<?xml version="1.0" encoding="utf-8"?>
<!-- Generator: Adobe Illustrator 25.4.1, SVG Export Plug-In . SVG Version: 6.00 Build 0)  -->
<svg version="1.1" id="Layer_1" xmlns="http://www.w3.org/2000/svg" xmlns:xlink="http://www.w3.org/1999/xlink" x="0px" y="0px"
	 viewBox="0 0 24 24" style="enable-background:new 0 0 24 24;" xml:space="preserve">
<style type="text/css">
	.st0{fill:#020202;}
	.st1{fill:none;stroke:#020202;stroke-width:1.9397;stroke-miterlimit:10;}
	.st2{fill:none;stroke:#020202;stroke-width:1.9423;stroke-miterlimit:10;}
	.st3{fill:none;stroke:#020202;stroke-width:2;stroke-miterlimit:10;}
	.st4{fill:none;stroke:#020202;stroke-width:2;stroke-linejoin:round;stroke-miterlimit:10;}
</style>
<image style="overflow:visible;" width="166" height="141" xlink:href="F005BE88.jpg"  transform="matrix(1 0 0 1 -529.8085 -133.0453)">
</image>
<g>
	<path class="st0" d="M18.5,2.6L18.5,2.6L18.5,2.6C18.5,2.6,18.5,2.6,18.5,2.6z"/>
	<path class="st0" d="M8.3,4.7c-1.3,0-2.3-1-2.3-2.3S7,0,8.3,0s2.3,1,2.3,2.3S9.6,4.7,8.3,4.7z M8.3,1.2c-0.6,0-1.1,0.5-1.1,1.1
		s0.5,1.1,1.1,1.1c0.6,0,1.1-0.5,1.1-1.1S8.9,1.2,8.3,1.2z"/>
	<path class="st0" d="M8.3,24c-1.3,0-2.3-1-2.3-2.3s1-2.3,2.3-2.3s2.3,1,2.3,2.3S9.6,24,8.3,24z M8.3,20.5c-0.6,0-1.1,0.5-1.1,1.1
		s0.5,1.1,1.1,1.1c0.6,0,1.1-0.5,1.1-1.1S8.9,20.5,8.3,20.5z"/>
	<g>
		<path class="st1" d="M11.9,5.5L5,8.8c-0.1,0-0.1,0.1,0,0.1l6.9,3.3c0,0,0,0,0.1,0L19,8.9c0.1,0,0.1-0.1,0-0.1L11.9,5.5
			C11.9,5.5,11.9,5.5,11.9,5.5z"/>
		<path class="st2" d="M15.8,10.4l3.1,1.5c0.1,0,0.1,0.1,0,0.1l-3.2,1.5l-3.9,1.8c0,0,0,0-0.1,0l-3.8-1.8L5,12c-0.1,0-0.1-0.1,0-0.1
			l3.1-1.5"/>
		<path class="st2" d="M15.8,13.5L19,15c0.1,0,0.1,0.1,0,0.1l-7.1,3.3c0,0,0,0-0.1,0L5,15.2c-0.1,0-0.1-0.1,0-0.1l3.1-1.5"/>
	</g>
	<path class="st3" d="M6.5,2.9c-0.1,0-3.5,1.9-4.9,2.6C1.2,5.7,1,6.1,1,6.5v11c0,0.4,0.2,0.8,0.6,1l5,2.7"/>
	<path class="st0" d="M13.2,2.3c0-1.3,1-2.3,2.3-2.3c1.3,0,2.3,1,2.3,2.3s-1,2.3-2.3,2.3S13.2,3.6,13.2,2.3z M14.5,2.3
		c0,0.6,0.5,1.1,1.1,1.1c0.6,0,1.1-0.5,1.1-1.1s-0.5-1.1-1.1-1.1C15,1.2,14.5,1.7,14.5,2.3z"/>
	<path class="st0" d="M13.2,21.7c0-1.3,1-2.3,2.3-2.3s2.3,1,2.3,2.3s-1,2.3-2.3,2.3S13.2,23,13.2,21.7z M14.5,21.7
		c0,0.6,0.5,1.1,1.1,1.1c0.6,0,1.1-0.5,1.1-1.1s-0.5-1.1-1.1-1.1C15,20.5,14.5,21,14.5,21.7z"/>
	<path class="st4" d="M17.5,2.9c0.1,0,3.5,1.9,4.9,2.6c0.4,0.2,0.6,0.6,0.6,1v11c0,0.4-0.2,0.8-0.6,1l-5,2.7"/>
</g>
</svg>
