<?xml version="1.0" encoding="utf-8"?>
<!-- Generator: Adobe Illustrator 25.4.1, SVG Export Plug-In . SVG Version: 6.00 Build 0)  -->
<svg version="1.1" id="Layer_1" xmlns="http://www.w3.org/2000/svg" xmlns:xlink="http://www.w3.org/1999/xlink" x="0px" y="0px"
	 viewBox="0 0 24 24" style="enable-background:new 0 0 24 24;" xml:space="preserve">
<style type="text/css">
	.st0{fill:#010101;}
</style>
<g>
	<path d="M12.1,8L9,9.1v2.6c0,1.1,0.5,2.1,1.4,2.7l1.7,1.2l1.7-1.2c0.9-0.6,1.4-1.6,1.4-2.7V9.1L12.1,8z M14.1,11.7
		c0,0.7-0.4,1.4-1,1.9l-1.1,0.8L11,13.6c-0.6-0.4-1-1.1-1-1.9v-2L12.1,9l2.1,0.8V11.7z"/>
	<path d="M12.1,7L8,8.4v3.3c0,1.4,0.7,2.7,1.8,3.5l2.3,1.6l2.3-1.7c1.1-0.8,1.8-2.1,1.8-3.5V8.4L12.1,7z M14.1,11.7
		c0,0.7-0.4,1.4-1,1.9l-1.1,0.8L11,13.6c-0.6-0.4-1-1.1-1-1.9v-2L12.1,9l2.1,0.8V11.7z"/>
</g>
<polygon class="st0" points="13.3,10.1 11.6,11.8 10.9,11.1 10.3,11.7 11.6,13 13.9,10.7 "/>
<path d="M20.7,8.7c-1.8,0-3.3,1.5-3.3,3.4c0,1.8,1.5,3.3,3.3,3.3c1.8,0,3.3-1.5,3.3-3.3C24,10.2,22.5,8.7,20.7,8.7z M20.7,13.2
	c-0.7,0-1.2-0.5-1.2-1.2s0.5-1.2,1.2-1.2s1.2,0.6,1.2,1.2S21.3,13.2,20.7,13.2z"/>
<path d="M12,0c-1.8,0-3.3,1.5-3.3,3.4c0,1.8,1.5,3.3,3.3,3.3c1.8,0,3.3-1.5,3.3-3.3C15.3,1.5,13.8,0,12,0z M12,4.6
	c-0.7,0-1.2-0.5-1.2-1.2s0.5-1.2,1.2-1.2s1.2,0.6,1.2,1.2S12.7,4.6,12,4.6z"/>
<path d="M12,17.3c-1.8,0-3.3,1.5-3.3,3.4c0,1.8,1.5,3.3,3.3,3.3c1.8,0,3.3-1.5,3.3-3.3C15.3,18.8,13.8,17.3,12,17.3z M12,21.9
	c-0.7,0-1.2-0.5-1.2-1.2s0.5-1.2,1.2-1.2s1.2,0.6,1.2,1.2S12.7,21.9,12,21.9z"/>
<path d="M3.3,8.7C1.5,8.7,0,10.2,0,12c0,1.8,1.5,3.3,3.3,3.3c1.8,0,3.3-1.5,3.3-3.3C6.7,10.2,5.2,8.7,3.3,8.7z M3.3,13.2
	c-0.7,0-1.2-0.5-1.2-1.2s0.5-1.2,1.2-1.2s1.2,0.6,1.2,1.2S4,13.2,3.3,13.2z"/>
<path d="M15.6,19.7L15.6,19.7c-0.4-0.4-0.4-1.1,0-1.5l2.6-2.6c0.4-0.4,1.1-0.4,1.5,0l0,0c0.4,0.4,0.4,1.1,0,1.5l-2.6,2.6
	C16.7,20.1,16.1,20.1,15.6,19.7z"/>
<path d="M3.7,7.8L3.7,7.8c-0.4-0.4-0.4-1.1,0-1.5l2.6-2.6c0.4-0.4,1.1-0.4,1.5,0l0,0c0.4,0.4,0.4,1.1,0,1.5L5.2,7.8
	C4.8,8.2,4.2,8.2,3.7,7.8z"/>
<path d="M3.4,16.5L3.4,16.5c0.4-0.4,1.1-0.4,1.5,0l2.6,2.6c0.4,0.4,0.4,1.1,0,1.5h0C7,21,6.4,21,6,20.6L3.4,18
	C3,17.6,3,16.9,3.4,16.5z"/>
<path d="M16.3,3.5L16.3,3.5c0.4-0.4,1.1-0.4,1.5,0l2.6,2.6c0.4,0.4,0.4,1.1,0,1.5l0,0c-0.4,0.4-1.1,0.4-1.5,0l-2.6-2.6
	C15.9,4.5,15.9,3.9,16.3,3.5z"/>
</svg>
