<?xml version="1.0" encoding="utf-8"?>
<!-- Generator: Adobe Illustrator 25.4.1, SVG Export Plug-In . SVG Version: 6.00 Build 0)  -->
<svg version="1.1" id="Layer_1" xmlns="http://www.w3.org/2000/svg" xmlns:xlink="http://www.w3.org/1999/xlink" x="0px" y="0px"
	 viewBox="0 0 24 24" style="enable-background:new 0 0 24 24;" xml:space="preserve">
<style type="text/css">
	.st0{fill:#FFFFFF;}
	.st1{fill:#606161;}
	.st2{fill:#010101;}
</style>
<g>
	<path class="st0" d="M-18.7,9.3c0-0.1-0.1-0.1-0.1-0.1c0,0,0-0.1,0-0.1c0,0,0,0,0-0.1c0,0,0-0.1-0.1-0.1C-19,8.9-19,8.9-19.1,8.9
		c-0.1,0-0.2,0.1-0.2,0.2c-0.1,0-0.2,0-0.2,0.1c-0.1,0.1-0.1,0.1-0.1,0.2c0,0.1,0.1,0.1,0.1,0.1s0.1,0,0.2,0c0.1,0,0.2,0,0.3,0
		c0.1,0,0.2,0,0.2,0C-18.7,9.5-18.7,9.4-18.7,9.3z"/>
	<circle class="st1" cx="35.3" cy="15.5" r="1"/>
	<path class="st2" d="M21.4,18.9h-1.5h-3.9l0-0.1c-0.4-1.3-1.5-2.4-2.8-2.8l-0.1,0v-1.2h4.6c2.6,0,4.7-2.1,4.7-4.7
		c0-2.3-1.7-4.3-4-4.6l-0.1,0l0-0.1c-0.4-3-3-5.3-6-5.3c-1.5,0-2.9,0.5-4,1.5C7.4,2.3,6.8,3.3,6.5,4.4l0,0.1H6.4
		C3.8,4.7,1.7,7,1.7,9.6c0,2.9,2.3,5.2,5.2,5.2h4v1.2l-0.1,0c-1.3,0.4-2.4,1.4-2.8,2.8l0,0.1H4.2H2.7c-0.3,0-0.6,0.1-0.8,0.3
		c-0.2,0.2-0.3,0.4-0.3,0.7c0,0.3,0.1,0.5,0.3,0.7C2.1,20.9,2.3,21,2.7,21h1.5h3.9l0,0.1C8.6,22.8,10.2,24,12,24s3.4-1.2,3.9-2.9
		l0-0.1h3.9h1.5c0.3,0,0.5-0.1,0.7-0.3c0.1-0.2,0.2-0.4,0.2-0.7c0-0.3-0.1-0.6-0.2-0.7C21.9,19,21.7,18.9,21.4,18.9z M6.9,12.8
		c-1.7,0-3.2-1.4-3.2-3.2c0-1.7,1.4-3.1,3.2-3.1c0.1,0,0.2,0,0.3,0h0.1c0.5,0,1-0.4,1-0.9c0.1-0.9,0.6-1.8,1.3-2.4
		c0.7-0.6,1.7-1,2.6-1c2.2,0,4,1.8,4,4c0,0.1,0,0.1,0,0.3c0,0.3,0.1,0.6,0.3,0.8c0.2,0.2,0.4,0.3,0.7,0.3c0,0,0.1,0,0.1,0
		c0.1,0,0.2,0,0.3,0c1.4,0,2.6,1.2,2.6,2.6c0,1.5-1.2,2.6-2.6,2.6H6.9z M13.5,21.2c-0.1,0.1-0.2,0.2-0.3,0.3
		c-0.1,0.1-0.2,0.2-0.3,0.2c-0.3,0.2-0.6,0.2-0.9,0.2s-0.6-0.1-0.9-0.2c-0.1,0-0.2-0.1-0.4-0.2c-0.1-0.1-0.2-0.2-0.3-0.3
		c-0.2-0.3-0.3-0.8-0.3-1.2s0.1-0.9,0.3-1.2c0.1-0.1,0.2-0.2,0.4-0.3c0.3-0.2,0.7-0.3,1.2-0.3s0.8,0.1,1.2,0.4
		c0.1,0.1,0.2,0.2,0.3,0.3c0.2,0.3,0.3,0.8,0.3,1.2S13.7,20.8,13.5,21.2z"/>
	<path class="st2" d="M22.1,20.7c0.1-0.2,0.2-0.4,0.2-0.7c0-0.3-0.1-0.6-0.2-0.7c0.2,0.2,0.3,0.5,0.3,0.7
		C22.4,20.2,22.3,20.5,22.1,20.7z"/>
</g>
</svg>
