<?xml version="1.0" encoding="utf-8"?>
<!-- Generator: Adobe Illustrator 25.4.1, SVG Export Plug-In . SVG Version: 6.00 Build 0)  -->
<svg version="1.1" id="Layer_1" xmlns="http://www.w3.org/2000/svg" xmlns:xlink="http://www.w3.org/1999/xlink" x="0px" y="0px"
	 viewBox="0 0 24 24" style="enable-background:new 0 0 24 24;" xml:space="preserve">
<g>
	<path d="M12,13.3c-0.8,0-1.4,0.6-1.4,1.4c0,0.3,0.1,0.7,0.4,0.9v0.8c0,0.6,0.5,1,1,1s1-0.5,1-1v-0.8c0.2-0.2,0.4-0.6,0.4-0.9
		C13.4,13.9,12.8,13.3,12,13.3z"/>
	<path d="M15.2,10.6h-4.7v-0.6c0-0.9,0.7-1.5,1.5-1.5c0.6,0,1.2,0.4,1.4,0.9c0.2,0.5,0.8,0.8,1.3,0.5c0.2-0.1,0.4-0.3,0.5-0.6
		c0.1-0.3,0.1-0.5,0-0.8c-0.6-1.3-1.8-2.2-3.3-2.2c-2,0-3.6,1.6-3.6,3.6v0.6c-1.1,0.2-2,1.1-2,2.3v4.8c0,1.3,1,2.3,2.3,2.3h6.3
		c1.3,0,2.3-1,2.3-2.3V13C17.5,11.7,16.5,10.6,15.2,10.6z M15.5,13v4.8c0,0.2-0.1,0.3-0.3,0.3H8.8c-0.2,0-0.3-0.1-0.3-0.3V13
		c0-0.2,0.1-0.3,0.3-0.3h6.3C15.4,12.7,15.5,12.8,15.5,13z"/>
	<path d="M24,12.6c-0.2-1.8-1.3-3.4-2.8-4c0.2-2.2-1.1-4.3-3.1-4.9c-0.8-0.3-1.7-0.3-2.6,0c-0.3-0.4-0.6-0.7-0.9-1
		c-1.4-1.3-3.1-1.9-4.9-1.7C8,1,6.3,1.9,5.2,3.5c-1,1.4-1.6,3-1.6,4.8C2.7,8.5,1.9,8.9,1.3,9.6C0.5,10.5,0,11.7,0,13
		c0,1.1,0.3,2.2,1,3.1c0.5,0.7,1.4,1.7,2.9,1.8c0,0,0,0,1,0c0,0,0,0,0,0c0.4,0,0.8-0.3,0.9-0.7c0.2-0.5-0.1-1.1-0.6-1.3
		c-0.1,0-0.2-0.1-0.3-0.1c-0.4,0-0.9,0-1,0c-0.7-0.1-1.1-0.4-1.5-1C2.2,14.4,2,13.7,2,13c0-0.8,0.3-1.5,0.7-2c0.5-0.5,1.2-0.8,2-0.8
		c0.3,0,0.5-0.1,0.7-0.3c0.2-0.2,0.3-0.4,0.3-0.7c0-0.1,0-0.1,0-0.2C5.2,6.1,7,3.4,9.6,2.9c1.9-0.3,3.7,0.6,4.8,2.5
		c0.1,0.2,0.3,0.4,0.6,0.5c0.2,0.1,0.5,0,0.7-0.1c0.6-0.4,1.2-0.4,1.8-0.2c0.6,0.2,1.1,0.7,1.4,1.3c0.3,0.7,0.4,1.4,0.2,2.2
		c-0.1,0.5,0.1,1,0.6,1.2l0.1,0c0.4,0.1,0.8,0.3,1.2,0.6c1.1,1,1.3,2.8,0.4,4.1c-0.5,0.7-0.9,1-1.4,1l-1.2,0c-0.5,0-1,0.5-1,1
		c0,0.1,0,0.2,0,0.3c0.1,0.4,0.5,0.7,0.9,0.7c0,0,0,0,0,0l1.2,0c1.5,0,2.4-1,2.9-1.8C23.8,15.1,24.1,13.8,24,12.6z"/>
</g>
</svg>
