<svg width="68" height="48" viewBox="0 0 68 48" fill="none" xmlns="http://www.w3.org/2000/svg">
<g clip-path="url(#clip0_1_898)">
<path d="M31.929 5.89495C31.929 8.97259 29.4623 11.4674 26.4192 11.4674C23.3762 11.4674 20.9084 8.97259 20.9084 5.89495C20.9084 2.8173 23.3752 0.32251 26.4192 0.32251C29.4613 0.32251 31.929 2.8173 31.929 5.89495Z" fill="white"/>
<path d="M47.0815 21.2197C47.0815 24.2973 44.6147 26.7921 41.5717 26.7921C38.5286 26.7921 36.0619 24.2973 36.0619 21.2197C36.0619 18.142 38.5286 15.6472 41.5717 15.6472C44.6147 15.6472 47.0815 18.142 47.0815 21.2197Z" fill="#088DB2"/>
<path d="M31.929 21.2197C31.929 24.2973 29.4623 26.7921 26.4192 26.7921C23.3762 26.7921 20.9084 24.2973 20.9084 21.2197C20.9084 18.142 23.3752 15.6472 26.4192 15.6472C29.4613 15.6472 31.929 18.142 31.929 21.2197Z" fill="#088DB2"/>
<path d="M47.0815 5.89495C47.0815 8.97259 44.6147 11.4674 41.5717 11.4674C38.5286 11.4674 36.0619 8.97259 36.0619 5.89495C36.0619 2.8173 38.5286 0.32251 41.5717 0.32251C44.6147 0.32251 47.0815 2.8173 47.0815 5.89495Z" fill="#32B8B2"/>
<path d="M31.7865 19.6335C31.7865 19.6335 32.3897 20.2768 34.1974 20.2768C36.0051 20.2768 36.9523 18.2399 36.9523 18.2399L38.8777 26.061C35.5834 24.3821 32.6709 24.0624 29.3756 25.9027L31.7865 19.6335Z" fill="#088DB2"/>
<path d="M25.5748 15.7229C25.5748 15.7229 31.0288 14.4836 33.3061 12.1643C35.5834 9.84494 36.061 5.89502 36.061 5.89502L42.5748 11.2859C42.5748 11.2859 37.6503 12.6312 35.373 14.9505C33.0957 17.2698 31.9291 20.5229 31.9291 20.5229L25.5748 15.7229Z" fill="url(#paint0_linear_1_898)"/>
</g>
<path d="M10.3744 45.2795V47.5484H0.0318604V45.7555L6.60553 37.7004H0.166464V35.4315H10.194V37.2234L3.59837 45.2775H10.3744V45.2795ZM24.9426 41.5585C24.9426 41.7552 24.9276 42.0345 24.8977 42.3975H15.4974C15.6619 43.2899 16.0886 44.0009 16.7756 44.5303C17.4785 45.0446 18.346 45.3017 19.378 45.3017C20.6941 45.3017 21.7779 44.8631 22.6314 43.9857L24.134 45.7323C23.5956 46.3827 22.9156 46.8738 22.093 47.2066C21.2704 47.5394 20.3431 47.7057 19.3112 47.7057C17.995 47.7057 16.8364 47.4415 15.8334 46.9111C14.8313 46.3817 14.0536 45.6486 13.5002 44.7108C12.9618 43.7578 12.6926 42.6839 12.6926 41.4889C12.6926 40.3091 12.9539 39.2503 13.4783 38.3125C14.0167 37.3595 14.7566 36.6183 15.6998 36.0889C16.642 35.5595 17.7039 35.2943 18.8854 35.2943C20.052 35.2943 21.0909 35.5585 22.0032 36.0889C22.9305 36.6032 23.6484 37.3373 24.1569 38.2893C24.6814 39.2291 24.9426 40.3182 24.9426 41.5585ZM18.8854 37.5652C17.988 37.5652 17.2253 37.8375 16.5971 38.382C15.9839 38.9115 15.61 39.6224 15.4754 40.5148H22.2724C22.1528 39.6375 21.7859 38.9266 21.1737 38.382C20.5615 37.8365 19.7977 37.5652 18.8854 37.5652ZM39.7959 41.5585C39.7959 41.7552 39.7809 42.0345 39.751 42.3975H30.3507C30.5152 43.2899 30.9419 44.0009 31.6299 44.5303C32.3329 45.0446 33.2003 45.3017 34.2323 45.3017C35.5484 45.3017 36.6322 44.8631 37.4847 43.9857L38.9873 45.7323C38.4489 46.3827 37.7689 46.8738 36.9463 47.2066C36.1237 47.5394 35.1964 47.7057 34.1645 47.7057C32.8483 47.7057 31.6898 47.4415 30.6867 46.9111C29.6846 46.3817 28.9069 45.6486 28.3536 44.7108C27.8151 43.7578 27.5459 42.6839 27.5459 41.4889C27.5459 40.3091 27.8072 39.2503 28.3316 38.3125C28.87 37.3595 29.6109 36.6183 30.5531 36.0889C31.4953 35.5595 32.5572 35.2943 33.7387 35.2943C34.9053 35.2943 35.9442 35.5585 36.8566 36.0889C37.7838 36.6032 38.5017 37.3373 39.0102 38.2893C39.5337 39.2291 39.7959 40.3182 39.7959 41.5585ZM33.7387 37.5652C32.8414 37.5652 32.0786 37.8375 31.4505 38.382C30.8373 38.9115 30.4634 39.6224 30.3288 40.5148H37.1268C37.0071 39.6375 36.6402 38.9266 36.027 38.382C35.4138 37.8365 34.651 37.5652 33.7387 37.5652ZM54.385 35.4325L49.2471 47.5484H46.3536L41.2167 35.4325H44.1332L47.8572 44.4173L51.6939 35.4325H54.385ZM67.968 41.5585C67.968 41.7552 67.9531 42.0345 67.9232 42.3975H58.5238C58.6883 43.2899 59.1141 44.0009 59.8021 44.5303C60.505 45.0446 61.3724 45.3017 62.4044 45.3017C63.7205 45.3017 64.8054 44.8631 65.6568 43.9857L67.1604 45.7323C66.622 46.3827 65.941 46.8738 65.1184 47.2066C64.2959 47.5394 63.3686 47.7057 62.3366 47.7057C61.0205 47.7057 59.8609 47.4415 58.8588 46.9111C57.8568 46.3817 57.0791 45.6486 56.5257 44.7108C55.9873 43.7578 55.7181 42.6839 55.7181 41.4889C55.7181 40.3091 55.9793 39.2503 56.5038 38.3125C57.0422 37.3595 57.782 36.6183 58.7242 36.0889C59.6665 35.5595 60.7283 35.2943 61.9099 35.2943C63.0764 35.2943 64.1154 35.5585 65.0287 36.0889C65.956 36.6032 66.6739 37.3373 67.1824 38.2893C67.7058 39.2291 67.968 40.3182 67.968 41.5585ZM61.9109 37.5652C61.0135 37.5652 60.2507 37.8375 59.6226 38.382C59.0094 38.9115 58.6355 39.6224 58.5009 40.5148H65.2989C65.1793 39.6375 64.8123 38.9266 64.1991 38.382C63.5859 37.8365 62.8232 37.5652 61.9109 37.5652Z" fill="white"/>
<defs>
<linearGradient id="paint0_linear_1_898" x1="29.0147" y1="18.2439" x2="38.9926" y2="8.7768" gradientUnits="userSpaceOnUse">
<stop stop-color="#088DB2"/>
<stop offset="1" stop-color="#32B8B2"/>
</linearGradient>
<clipPath id="clip0_1_898">
<rect width="28" height="27" fill="white" transform="translate(20 0.294312)"/>
</clipPath>
</defs>
</svg>
