<svg width="95" height="27" viewBox="0 0 95 27" fill="none" xmlns="http://www.w3.org/2000/svg">
<path d="M10.1056 6.11931C10.1056 9.08382 7.84365 11.4869 5.05325 11.4869C2.26285 11.4869 0 9.08382 0 6.11931C0 3.1548 2.26194 0.751724 5.05325 0.751724C7.84273 0.751724 10.1056 3.1548 10.1056 6.11931Z" fill="white"/>
<path d="M24 20.8807C24 23.8452 21.7381 26.2483 18.9477 26.2483C16.1573 26.2483 13.8953 23.8452 13.8953 20.8807C13.8953 17.9162 16.1573 15.5131 18.9477 15.5131C21.7381 15.5131 24 17.9162 24 20.8807Z" fill="#088DB2"/>
<path d="M10.1056 20.8807C10.1056 23.8452 7.84365 26.2483 5.05325 26.2483C2.26285 26.2483 0 23.8452 0 20.8807C0 17.9162 2.26194 15.5131 5.05325 15.5131C7.84273 15.5131 10.1056 17.9162 10.1056 20.8807Z" fill="#088DB2"/>
<path d="M24 6.11931C24 9.08382 21.7381 11.4869 18.9477 11.4869C16.1573 11.4869 13.8953 9.08382 13.8953 6.11931C13.8953 3.1548 16.1573 0.751724 18.9477 0.751724C21.7381 0.751724 24 3.1548 24 6.11931Z" fill="#32B8B2"/>
<path d="M9.97486 19.3527C9.97486 19.3527 10.528 19.9724 12.1856 19.9724C13.8432 19.9724 14.7118 18.0104 14.7118 18.0104L16.4773 25.544C13.4565 23.9267 10.7858 23.6188 7.76412 25.3915L9.97486 19.3527Z" fill="#088DB2"/>
<path d="M4.27887 15.5859C4.27887 15.5859 9.28 14.3921 11.3682 12.158C13.4565 9.92396 13.8944 6.11925 13.8944 6.11925L19.8674 11.312C19.8674 11.312 15.3518 12.6078 13.2635 14.8418C11.1753 17.0759 10.1056 20.2094 10.1056 20.2094L4.27887 15.5859Z" fill="url(#paint0_linear_728_6310)"/>
<path d="M40.7585 17.2199V19.4556H31.04V17.6889L37.217 9.75166H31.1665V7.51597H40.5889V9.28167L34.3913 17.2179H40.7585V17.2199ZM54.4475 13.5533C54.4475 13.7471 54.4335 14.0223 54.4054 14.38H45.5723C45.7268 15.2594 46.1278 15.9599 46.7734 16.4816C47.4339 16.9884 48.249 17.2417 49.2187 17.2417C50.4554 17.2417 51.4738 16.8095 52.2758 15.945L53.6877 17.666C53.1818 18.3069 52.5428 18.7908 51.7699 19.1187C50.9969 19.4466 50.1256 19.6106 49.1559 19.6106C47.9192 19.6106 46.8305 19.3502 45.888 18.8276C44.9464 18.3059 44.2156 17.5835 43.6956 16.6595C43.1897 15.7205 42.9368 14.6622 42.9368 13.4848C42.9368 12.3222 43.1822 11.2789 43.675 10.3548C44.181 9.41581 44.8761 8.68548 45.7624 8.16382C46.6478 7.64216 47.6456 7.38083 48.7558 7.38083C49.852 7.38083 50.8283 7.64117 51.6855 8.16382C52.5568 8.67058 53.2314 9.39395 53.7092 10.3319C54.202 11.258 54.4475 12.3312 54.4475 13.5533ZM48.7558 9.61851C47.9126 9.61851 47.1959 9.8868 46.6057 10.4234C46.0295 10.945 45.6781 11.6455 45.5516 12.5249H51.9385C51.8261 11.6604 51.4813 10.9599 50.906 10.4234C50.3308 9.8858 49.6131 9.61851 48.7558 9.61851ZM68.4045 13.5533C68.4045 13.7471 68.3905 14.0223 68.3624 14.38H59.5293C59.6839 15.2594 60.0848 15.9599 60.7313 16.4816C61.3918 16.9884 62.2069 17.2417 63.1766 17.2417C64.4133 17.2417 65.4317 16.8095 66.2328 15.945L67.6447 17.666C67.1388 18.3069 66.4998 18.7908 65.7269 19.1187C64.9539 19.4466 64.0826 19.6106 63.1129 19.6106C61.8762 19.6106 60.7875 19.3502 59.845 18.8276C58.9034 18.3059 58.1726 17.5835 57.6527 16.6595C57.1467 15.7205 56.8938 14.6622 56.8938 13.4848C56.8938 12.3222 57.1392 11.2789 57.632 10.3548C58.138 9.41581 58.8341 8.68548 59.7195 8.16382C60.6048 7.64216 61.6026 7.38083 62.7129 7.38083C63.809 7.38083 64.7853 7.64117 65.6425 8.16382C66.5139 8.67058 67.1884 9.39395 67.6662 10.3319C68.1581 11.258 68.4045 12.3312 68.4045 13.5533ZM62.7129 9.61851C61.8696 9.61851 61.1529 9.8868 60.5627 10.4234C59.9865 10.945 59.6351 11.6455 59.5086 12.5249H65.8964C65.784 11.6604 65.4392 10.9599 64.863 10.4234C64.2868 9.8858 63.5701 9.61851 62.7129 9.61851ZM82.1133 7.51696L77.2854 19.4556H74.5665L69.7396 7.51696H72.48L75.9794 16.3703L79.5846 7.51696H82.1133ZM94.8767 13.5533C94.8767 13.7471 94.8626 14.0223 94.8345 14.38H86.0023C86.1569 15.2594 86.557 15.9599 87.2034 16.4816C87.864 16.9884 88.6791 17.2417 89.6488 17.2417C90.8855 17.2417 91.9048 16.8095 92.7049 15.945L94.1178 17.666C93.6118 18.3069 92.9719 18.7908 92.199 19.1187C91.4261 19.4466 90.5547 19.6106 89.585 19.6106C88.3483 19.6106 87.2587 19.3502 86.3171 18.8276C85.3755 18.3059 84.6448 17.5835 84.1248 16.6595C83.6189 15.7205 83.3659 14.6622 83.3659 13.4848C83.3659 12.3222 83.6114 11.2789 84.1042 10.3548C84.6101 9.41581 85.3053 8.68548 86.1907 8.16382C87.076 7.64216 88.0738 7.38083 89.184 7.38083C90.2802 7.38083 91.2565 7.64117 92.1147 8.16382C92.986 8.67058 93.6606 9.39395 94.1384 10.3319C94.6302 11.258 94.8767 12.3312 94.8767 13.5533ZM89.185 9.61851C88.3418 9.61851 87.625 9.8868 87.0348 10.4234C86.4586 10.945 86.1073 11.6455 85.9808 12.5249H92.3686C92.2561 11.6604 91.9114 10.9599 91.3352 10.4234C90.759 9.8858 90.0422 9.61851 89.185 9.61851Z" fill="white"/>
<defs>
<linearGradient id="paint0_linear_728_6310" x1="7.43315" y1="18.0142" x2="17.0079" y2="9.36593" gradientUnits="userSpaceOnUse">
<stop stop-color="#088DB2"/>
<stop offset="1" stop-color="#32B8B2"/>
</linearGradient>
</defs>
</svg>
