<svg width="64" height="13" viewBox="0 0 64 13" fill="none" xmlns="http://www.w3.org/2000/svg">
<path d="M9.75846 10.2199V12.4556H0.0399857V10.6889L6.21697 2.75166H0.166467V0.515966H9.58888V2.28167L3.39128 10.2179H9.75846V10.2199ZM23.4475 6.55333C23.4475 6.7471 23.4335 7.02233 23.4054 7.38005H14.5723C14.7268 8.25942 15.1278 8.95994 15.7734 9.4816C16.4339 9.98835 17.249 10.2417 18.2187 10.2417C19.4554 10.2417 20.4738 9.8095 21.2758 8.94503L22.6877 10.666C22.1818 11.3069 21.5428 11.7908 20.7699 12.1187C19.9969 12.4466 19.1256 12.6106 18.1559 12.6106C16.9192 12.6106 15.8305 12.3502 14.888 11.8276C13.9464 11.3059 13.2156 10.5835 12.6956 9.65946C12.1897 8.72047 11.9368 7.66224 11.9368 6.48477C11.9368 5.32221 12.1822 4.27889 12.675 3.3548C13.181 2.41581 13.8761 1.68548 14.7624 1.16382C15.6478 0.642161 16.6456 0.380833 17.7558 0.380833C18.852 0.380833 19.8283 0.641167 20.6855 1.16382C21.5568 1.67058 22.2314 2.39395 22.7092 3.33195C23.202 4.25802 23.4475 5.33116 23.4475 6.55333ZM17.7558 2.61851C16.9126 2.61851 16.1959 2.8868 15.6057 3.42336C15.0295 3.94503 14.6781 4.64554 14.5516 5.52492H20.9385C20.8261 4.66045 20.4813 3.95993 19.906 3.42336C19.3308 2.8858 18.6131 2.61851 17.7558 2.61851ZM37.4045 6.55333C37.4045 6.7471 37.3905 7.02233 37.3624 7.38005H28.5293C28.6839 8.25942 29.0848 8.95994 29.7313 9.4816C30.3918 9.98835 31.2069 10.2417 32.1766 10.2417C33.4133 10.2417 34.4317 9.8095 35.2328 8.94503L36.6447 10.666C36.1388 11.3069 35.4998 11.7908 34.7269 12.1187C33.9539 12.4466 33.0826 12.6106 32.1129 12.6106C30.8762 12.6106 29.7875 12.3502 28.845 11.8276C27.9034 11.3059 27.1726 10.5835 26.6527 9.65946C26.1467 8.72047 25.8938 7.66224 25.8938 6.48477C25.8938 5.32221 26.1392 4.27889 26.632 3.3548C27.138 2.41581 27.8341 1.68548 28.7195 1.16382C29.6048 0.642161 30.6026 0.380833 31.7129 0.380833C32.809 0.380833 33.7853 0.641167 34.6425 1.16382C35.5139 1.67058 36.1884 2.39395 36.6662 3.33195C37.1581 4.25802 37.4045 5.33116 37.4045 6.55333ZM31.7129 2.61851C30.8696 2.61851 30.1529 2.8868 29.5627 3.42336C28.9865 3.94503 28.6351 4.64554 28.5086 5.52492H34.8964C34.784 4.66045 34.4392 3.95993 33.863 3.42336C33.2868 2.8858 32.5701 2.61851 31.7129 2.61851ZM51.1133 0.516961L46.2854 12.4556H43.5665L38.7396 0.516961H41.48L44.9794 9.37031L48.5846 0.516961H51.1133ZM63.8767 6.55333C63.8767 6.7471 63.8626 7.02233 63.8345 7.38005H55.0023C55.1569 8.25942 55.557 8.95994 56.2034 9.4816C56.864 9.98835 57.6791 10.2417 58.6488 10.2417C59.8855 10.2417 60.9048 9.8095 61.7049 8.94503L63.1178 10.666C62.6118 11.3069 61.9719 11.7908 61.199 12.1187C60.4261 12.4466 59.5547 12.6106 58.585 12.6106C57.3483 12.6106 56.2587 12.3502 55.3171 11.8276C54.3755 11.3059 53.6448 10.5835 53.1248 9.65946C52.6189 8.72047 52.3659 7.66224 52.3659 6.48477C52.3659 5.32221 52.6114 4.27889 53.1042 3.3548C53.6101 2.41581 54.3053 1.68548 55.1907 1.16382C56.076 0.642161 57.0738 0.380833 58.184 0.380833C59.2802 0.380833 60.2565 0.641167 61.1147 1.16382C61.986 1.67058 62.6606 2.39395 63.1384 3.33195C63.6302 4.25802 63.8767 5.33116 63.8767 6.55333ZM58.185 2.61851C57.3418 2.61851 56.625 2.8868 56.0348 3.42336C55.4586 3.94503 55.1073 4.64554 54.9808 5.52492H61.3686C61.2561 4.66045 60.9114 3.95993 60.3352 3.42336C59.759 2.8858 59.0422 2.61851 58.185 2.61851Z" fill="white"/>
</svg>
