<svg width="24" height="27" viewBox="0 0 24 27" fill="none" xmlns="http://www.w3.org/2000/svg">
<path d="M10.1056 6.11931C10.1056 9.08382 7.84365 11.4869 5.05325 11.4869C2.26285 11.4869 0 9.08382 0 6.11931C0 3.1548 2.26194 0.751724 5.05325 0.751724C7.84273 0.751724 10.1056 3.1548 10.1056 6.11931Z" fill="white"/>
<path d="M24 20.8807C24 23.8452 21.7381 26.2483 18.9477 26.2483C16.1573 26.2483 13.8953 23.8452 13.8953 20.8807C13.8953 17.9162 16.1573 15.5131 18.9477 15.5131C21.7381 15.5131 24 17.9162 24 20.8807Z" fill="#088DB2"/>
<path d="M10.1056 20.8807C10.1056 23.8452 7.84365 26.2483 5.05325 26.2483C2.26285 26.2483 0 23.8452 0 20.8807C0 17.9162 2.26194 15.5131 5.05325 15.5131C7.84273 15.5131 10.1056 17.9162 10.1056 20.8807Z" fill="#088DB2"/>
<path d="M24 6.11931C24 9.08382 21.7381 11.4869 18.9477 11.4869C16.1573 11.4869 13.8953 9.08382 13.8953 6.11931C13.8953 3.1548 16.1573 0.751724 18.9477 0.751724C21.7381 0.751724 24 3.1548 24 6.11931Z" fill="#32B8B2"/>
<path d="M9.97486 19.3527C9.97486 19.3527 10.528 19.9724 12.1856 19.9724C13.8432 19.9724 14.7118 18.0104 14.7118 18.0104L16.4773 25.544C13.4565 23.9267 10.7858 23.6188 7.76412 25.3915L9.97486 19.3527Z" fill="#088DB2"/>
<path d="M4.27887 15.5859C4.27887 15.5859 9.28 14.3921 11.3682 12.158C13.4565 9.92396 13.8944 6.11925 13.8944 6.11925L19.8674 11.312C19.8674 11.312 15.3518 12.6078 13.2635 14.8418C11.1753 17.0759 10.1056 20.2094 10.1056 20.2094L4.27887 15.5859Z" fill="url(#paint0_linear_728_6311)"/>
<defs>
<linearGradient id="paint0_linear_728_6311" x1="7.43315" y1="18.0142" x2="17.0079" y2="9.36593" gradientUnits="userSpaceOnUse">
<stop stop-color="#088DB2"/>
<stop offset="1" stop-color="#32B8B2"/>
</linearGradient>
</defs>
</svg>
