<svg width="158" height="40" viewBox="0 0 158 40" fill="none" xmlns="http://www.w3.org/2000/svg">
<g clip-path="url(#clip0_15_1575)">
<path d="M39.0023 19.9985C39.0023 30.7511 30.2915 39.4684 19.5426 39.4684C8.79344 39.4684 0.0791016 30.7511 0.0791016 19.9985C0.0791016 9.2459 8.79344 0.528564 19.5426 0.528564C30.2916 0.528564 39.0023 9.2459 39.0023 19.9985Z" fill="#EE3023"/>
<path d="M19.6963 30.8549C14.3504 30.8731 8.78618 26.3084 8.76132 18.9755C8.74343 14.1285 11.3609 9.46051 14.7007 6.69183C17.9618 3.99473 22.4282 2.25989 26.476 2.24548C26.9981 2.24548 27.5452 2.28843 27.8777 2.40286C24.3377 3.13617 21.5199 6.43424 21.5306 10.1722C21.5306 10.2974 21.5413 10.4297 21.5555 10.4906C27.4807 11.9357 30.1697 15.5128 30.1876 20.4598C30.2019 25.4105 26.2974 30.8335 19.6963 30.8549Z" fill="white"/>
<path d="M51.5713 28.0612L45.6211 13.8567H49.5082L53.2199 23.2894L56.8172 13.8567H60.529L54.754 28.0613L51.5713 28.0612ZM70.8846 20.8856C70.8846 20.2954 70.8167 19.7338 70.6772 19.2008C70.5413 18.6679 70.3339 18.21 70.0586 17.8272C69.7832 17.4409 69.4507 17.1369 69.0573 16.9115C68.664 16.6826 68.2027 16.5681 67.6735 16.5681C67.1443 16.5681 66.6794 16.6826 66.2896 16.9115C65.8963 17.1369 65.5601 17.4409 65.2884 17.8272C65.013 18.21 64.8057 18.6679 64.6698 19.2008C64.5303 19.7338 64.4623 20.2954 64.4623 20.8857C64.4623 21.4973 64.5303 22.0661 64.6697 22.5883C64.8057 23.1106 65.0058 23.5684 65.2705 23.9619C65.5351 24.3554 65.8712 24.6666 66.2753 24.8955C66.6758 25.1208 67.1443 25.2353 67.6734 25.2353C68.2027 25.2353 68.664 25.1208 69.0573 24.8955C69.4507 24.6666 69.7832 24.3554 70.0585 23.9619C70.3339 23.5684 70.5414 23.1105 70.6771 22.5883C70.8167 22.0661 70.8846 21.4973 70.8846 20.8856ZM74.4784 20.9012C74.4784 21.8276 74.3353 22.7362 74.0528 23.6305C73.7668 24.5247 73.3448 25.3224 72.7834 26.0307C72.2255 26.7389 71.5175 27.3077 70.6629 27.7405C69.8083 28.1733 68.8106 28.388 67.6735 28.388C66.5328 28.388 65.5352 28.1732 64.684 27.7405C63.8294 27.3077 63.1214 26.7389 62.56 26.0307C62.0021 25.3224 61.5802 24.5247 61.2941 23.6305C61.0117 22.7362 60.8686 21.8276 60.8686 20.9012C60.8686 19.9783 61.0117 19.0769 61.2941 18.1897C61.5802 17.3063 62.0021 16.5157 62.56 15.8182C63.1214 15.1207 63.8294 14.5627 64.684 14.1405C65.5352 13.7185 66.5328 13.5039 67.6735 13.5039C68.8106 13.5039 69.8047 13.7186 70.6487 14.1405C71.4925 14.5627 72.2005 15.1207 72.7691 15.8182C73.3412 16.5157 73.7668 17.3063 74.0528 18.1897C74.3353 19.0769 74.4784 19.9783 74.4784 20.9012ZM85.4527 16.9831C84.7483 16.7076 84.0938 16.5681 83.4859 16.5681C82.8637 16.5681 82.3238 16.6899 81.8769 16.9258C81.4262 17.1617 81.0543 17.4803 80.7612 17.8845C80.4679 18.2887 80.2498 18.743 80.1032 19.2473C79.9556 19.7515 79.8809 20.2743 79.8815 20.7997C79.8815 21.3899 79.9458 21.9551 80.0745 22.4989C80.1997 23.039 80.3964 23.5148 80.6611 23.9189C80.9221 24.3232 81.2546 24.6487 81.6551 24.8955C82.0556 25.1387 82.5312 25.264 83.0783 25.264C83.5289 25.264 83.9866 25.1388 84.455 24.8955C84.9235 24.6487 85.256 24.3554 85.4527 24.0227V16.9831ZM85.7459 28.0612L85.5993 26.9737C85.2668 27.3458 84.8269 27.6748 84.2762 27.9575C83.7292 28.2436 83.0819 28.3867 82.3381 28.3867C81.3619 28.3867 80.4965 28.1793 79.7564 27.7679C79.009 27.3565 78.3832 26.8056 77.8754 26.1188C77.3677 25.4321 76.9779 24.6343 76.7132 23.7294C76.4522 22.8279 76.32 21.8837 76.32 20.8999C76.3193 19.9808 76.4567 19.0668 76.7276 18.1885C77.0029 17.305 77.4178 16.5145 77.9755 15.817C78.5369 15.1194 79.2343 14.5614 80.0782 14.1393C80.9185 13.7172 81.909 13.5026 83.0425 13.5026C83.7863 13.5026 84.5909 13.642 85.4527 13.9139V8.40522H89.1036V28.0612H85.7459ZM99.3878 21.4007C98.9944 21.4214 98.5869 21.4581 98.172 21.5046C97.7749 21.5519 97.38 21.6163 96.9885 21.6976C96.1946 21.8549 95.6475 22.1233 95.3399 22.5061C95.036 22.8924 94.8823 23.3073 94.8823 23.7616C94.8823 24.2302 95.0538 24.6094 95.4007 24.8955C95.7475 25.1781 96.2339 25.3212 96.8668 25.3212C97.3424 25.3219 97.8128 25.222 98.2471 25.0279C98.6905 24.8311 99.0731 24.5843 99.3878 24.291V21.4007ZM99.681 28.0504L99.538 26.9881C99.1411 27.4245 98.6404 27.7679 98.029 28.0146C97.4175 28.2616 96.7488 28.3867 96.0194 28.3867C95.4078 28.3867 94.8179 28.2829 94.2601 28.0755C93.695 27.8718 93.198 27.5747 92.7653 27.192C92.3327 26.8092 91.9822 26.3406 91.7176 25.779C91.4494 25.2174 91.3171 24.5843 91.3171 23.8761C91.3171 23.1714 91.4529 22.5453 91.7319 22.0052C92.0072 21.4651 92.3791 21.0108 92.8548 20.6353C93.3267 20.2632 93.8703 19.9591 94.4817 19.7231C95.0896 19.4871 95.7333 19.3081 96.402 19.19C96.874 19.0935 97.3925 19.0219 97.9539 18.9718C98.5153 18.9217 98.9838 18.8789 99.3592 18.8394V18.632C99.3592 17.845 99.1589 17.2871 98.7513 16.9509C98.3472 16.6181 97.7894 16.45 97.0814 16.45C96.6666 16.45 96.2697 16.5001 95.8941 16.6003C95.5188 16.6968 95.1861 16.8186 94.8894 16.9652C94.5926 17.1154 94.3315 17.262 94.1027 17.4088C93.8774 17.5554 93.6951 17.6877 93.5556 17.8057L92.3469 15.2446C92.5042 15.1052 92.7439 14.9405 93.0692 14.7438C93.3947 14.547 93.7844 14.3539 94.2493 14.1679C94.7107 13.9818 95.2291 13.8245 95.8085 13.6957C96.3877 13.567 97.0134 13.5026 97.6786 13.5026C98.4652 13.5026 99.1841 13.6064 99.8312 13.8138C100.478 14.0212 101.04 14.3431 101.512 14.7867C101.98 15.2268 102.349 15.7848 102.617 16.4644C102.881 17.1404 103.014 17.9595 103.014 18.9218V28.0504H99.681ZM114.299 11.6461C114.181 11.589 113.952 11.5031 113.609 11.3956C113.262 11.2884 112.808 11.2346 112.236 11.2346C111.728 11.2346 111.299 11.3886 110.956 11.6926C110.612 11.9966 110.441 12.4938 110.441 13.1806V13.8567H113.505V16.8041H110.469V28.0612H106.815V16.8041H104.93V13.8567H106.815V13.0912C106.815 12.1683 106.933 11.3885 107.169 10.7482C107.405 10.1115 107.734 9.58918 108.156 9.18853C108.578 8.7844 109.075 8.48753 109.643 8.30152C110.216 8.11532 110.834 8.02246 111.503 8.02246C112.386 8.02246 113.116 8.10478 113.695 8.27299C114.274 8.4412 114.614 8.55195 114.71 8.6128L114.299 11.6461ZM124.258 20.8856C124.258 20.2954 124.186 19.7338 124.051 19.2008C123.915 18.6679 123.707 18.21 123.432 17.8272C123.157 17.4409 122.824 17.1369 122.431 16.9115C122.037 16.6826 121.576 16.5681 121.047 16.5681C120.518 16.5681 120.053 16.6826 119.663 16.9115C119.27 17.1369 118.933 17.4409 118.658 17.8272C118.386 18.21 118.179 18.6679 118.04 19.2008C117.904 19.7338 117.836 20.2954 117.836 20.8857C117.836 21.4973 117.904 22.0661 118.039 22.5883C118.179 23.1106 118.379 23.5684 118.644 23.9619C118.908 24.3554 119.245 24.6666 119.645 24.8955C120.049 25.1208 120.518 25.2353 121.047 25.2353C121.576 25.2353 122.037 25.1208 122.431 24.8955C122.824 24.6666 123.157 24.3554 123.432 23.9619C123.707 23.5684 123.915 23.1105 124.05 22.5883C124.186 22.0661 124.258 21.4973 124.258 20.8856ZM127.852 20.9012C127.852 21.8276 127.709 22.7362 127.423 23.6305C127.14 24.5247 126.718 25.3224 126.157 26.0307C125.599 26.7389 124.891 27.3077 124.036 27.7405C123.182 28.1733 122.184 28.388 121.047 28.388C119.906 28.388 118.908 28.1732 118.057 27.7405C117.203 27.3077 116.495 26.7389 115.933 26.0307C115.375 25.3224 114.954 24.5247 114.667 23.6305C114.384 22.7484 114.241 21.8276 114.242 20.9012C114.242 19.9783 114.381 19.0769 114.667 18.1897C114.954 17.3063 115.375 16.5157 115.933 15.8182C116.495 15.1207 117.203 14.5627 118.057 14.1405C118.909 13.7185 119.906 13.5039 121.047 13.5039C122.184 13.5039 123.178 13.7186 124.022 14.1405C124.866 14.5627 125.574 15.1207 126.142 15.8182C126.715 16.5157 127.14 17.3063 127.423 18.1897C127.709 19.0769 127.852 19.9783 127.852 20.9012ZM139.191 28.0612V19.9591C139.191 18.8789 138.965 18.0419 138.515 17.4516C138.061 16.865 137.435 16.5682 136.627 16.5682C136.058 16.5682 135.533 16.7147 135.054 17.0117C134.571 17.305 134.152 17.6305 133.798 17.9846V28.0612H130.147V13.8567H133.477L133.652 14.9763C134.227 14.5038 134.88 14.1357 135.583 13.8889C136.298 13.6314 137.02 13.5061 137.746 13.5061C138.493 13.5061 139.18 13.617 139.809 13.8424C140.439 14.0713 140.979 14.4291 141.429 14.9191C141.883 15.4092 142.23 16.0494 142.477 16.8328C142.72 17.6197 142.845 18.5641 142.845 19.6623V28.0612H139.191ZM154.209 19.2509C154.17 18.7608 154.066 18.3317 153.898 17.9703C153.73 17.6054 153.523 17.3121 153.276 17.0869C153.029 16.8578 152.765 16.6934 152.479 16.5824C152.189 16.4752 151.899 16.4215 151.603 16.4215C150.97 16.4215 150.369 16.6575 149.797 17.1297C149.225 17.6019 148.889 18.3066 148.788 19.251L154.209 19.2509ZM148.702 21.8729C148.781 23.0712 149.153 23.9368 149.825 24.4662C150.494 24.9956 151.363 25.264 152.425 25.264C152.918 25.264 153.383 25.2174 153.816 25.1315C154.249 25.0422 154.635 24.9312 154.971 24.7917C155.307 24.6557 155.593 24.5163 155.829 24.3803C156.065 24.2409 156.24 24.1121 156.362 23.9941L157.335 26.9737C157.195 27.0703 156.974 27.2026 156.67 27.3708C156.366 27.539 155.987 27.6927 155.536 27.8429C155.085 27.9896 154.553 28.1149 153.945 28.2257C153.337 28.3329 152.668 28.3867 151.942 28.3867C151.016 28.3867 150.14 28.24 149.303 27.9466C148.47 27.6498 147.737 27.1919 147.111 26.5731C146.482 25.9543 145.981 25.1852 145.609 24.2623C145.234 23.3393 145.048 22.2377 145.048 20.9607C145.048 19.7624 145.22 18.7 145.563 17.7771C145.906 16.8542 146.378 16.0781 146.975 15.4485C147.576 14.8224 148.273 14.3396 149.067 14.0033C149.865 13.6707 150.712 13.5026 151.617 13.5026C152.522 13.5026 153.355 13.6529 154.124 13.9462C154.889 14.2393 155.55 14.6973 156.112 15.316C156.67 15.9349 157.113 16.7362 157.435 17.7199C157.76 18.7 157.921 19.8697 157.921 21.2253V21.8728L148.702 21.8729Z" fill="#EE3023"/>
</g>
<defs>
<clipPath id="clip0_15_1575">
<rect width="158" height="39" fill="white" transform="translate(0 0.498413)"/>
</clipPath>
</defs>
</svg>
