<svg width="74" height="48" viewBox="0 0 74 48" fill="none" xmlns="http://www.w3.org/2000/svg">
<g filter="url(#filter0_d_2829_914)">
<path d="M57 9C61.4182 9.00002 64.9999 12.5819 65 17V26C65 30.4183 61.4183 34 57 34H42L37 39L32 34H17C12.5818 34 9.00013 30.4181 9 26V17C9.00003 12.5817 12.5817 9 17 9H57Z" fill="white"/>
</g>
<path d="M24.8354 20H23.7786C23.7161 19.696 23.6067 19.429 23.4505 19.1989C23.2971 18.9688 23.1096 18.7756 22.888 18.6193C22.6692 18.4602 22.4263 18.3409 22.1593 18.2614C21.8922 18.1818 21.6138 18.142 21.324 18.142C20.7956 18.142 20.3169 18.2756 19.888 18.5426C19.4618 18.8097 19.1223 19.2031 18.8695 19.723C18.6195 20.2429 18.4945 20.8807 18.4945 21.6364C18.4945 22.392 18.6195 23.0298 18.8695 23.5497C19.1223 24.0696 19.4618 24.4631 19.888 24.7301C20.3169 24.9972 20.7956 25.1307 21.324 25.1307C21.6138 25.1307 21.8922 25.0909 22.1593 25.0114C22.4263 24.9318 22.6692 24.8139 22.888 24.6577C23.1096 24.4986 23.2971 24.304 23.4505 24.0739C23.6067 23.8409 23.7161 23.5739 23.7786 23.2727H24.8354C24.7559 23.7187 24.611 24.1179 24.4007 24.4702C24.1905 24.8224 23.9292 25.1222 23.6167 25.3693C23.3042 25.6136 22.9533 25.7997 22.5641 25.9276C22.1777 26.0554 21.7644 26.1193 21.324 26.1193C20.5797 26.1193 19.9178 25.9375 19.3382 25.5739C18.7587 25.2102 18.3027 24.6932 17.9703 24.0227C17.638 23.3523 17.4718 22.5568 17.4718 21.6364C17.4718 20.7159 17.638 19.9205 17.9703 19.25C18.3027 18.5795 18.7587 18.0625 19.3382 17.6989C19.9178 17.3352 20.5797 17.1534 21.324 17.1534C21.7644 17.1534 22.1777 17.2173 22.5641 17.3452C22.9533 17.473 23.3042 17.6605 23.6167 17.9077C23.9292 18.152 24.1905 18.4503 24.4007 18.8026C24.611 19.152 24.7559 19.5511 24.8354 20ZM29.0659 26.1364C28.475 26.1364 27.9565 25.9957 27.5105 25.7145C27.0673 25.4332 26.7207 25.0398 26.4707 24.5341C26.2235 24.0284 26.1 23.4375 26.1 22.7614C26.1 22.0795 26.2235 21.4844 26.4707 20.9759C26.7207 20.4673 27.0673 20.0724 27.5105 19.7912C27.9565 19.5099 28.475 19.3693 29.0659 19.3693C29.6568 19.3693 30.1738 19.5099 30.617 19.7912C31.063 20.0724 31.4096 20.4673 31.6568 20.9759C31.9068 21.4844 32.0318 22.0795 32.0318 22.7614C32.0318 23.4375 31.9068 24.0284 31.6568 24.5341C31.4096 25.0398 31.063 25.4332 30.617 25.7145C30.1738 25.9957 29.6568 26.1364 29.0659 26.1364ZM29.0659 25.233C29.5147 25.233 29.8841 25.1179 30.1738 24.8878C30.4636 24.6577 30.6781 24.3551 30.8173 23.9801C30.9565 23.6051 31.0261 23.1989 31.0261 22.7614C31.0261 22.3239 30.9565 21.9162 30.8173 21.5384C30.6781 21.1605 30.4636 20.8551 30.1738 20.6222C29.8841 20.3892 29.5147 20.2727 29.0659 20.2727C28.617 20.2727 28.2477 20.3892 27.9579 20.6222C27.6681 20.8551 27.4537 21.1605 27.3145 21.5384C27.1752 21.9162 27.1056 22.3239 27.1056 22.7614C27.1056 23.1989 27.1752 23.6051 27.3145 23.9801C27.4537 24.3551 27.6681 24.6577 27.9579 24.8878C28.2477 25.1179 28.617 25.233 29.0659 25.233ZM33.5669 28.4545V19.4545H34.5385V20.4943H34.6578C34.7317 20.3807 34.834 20.2358 34.9647 20.0597C35.0982 19.8807 35.2885 19.7216 35.5357 19.5824C35.7857 19.4403 36.1238 19.3693 36.5499 19.3693C37.101 19.3693 37.5868 19.5071 38.0073 19.7827C38.4277 20.0582 38.7559 20.4489 38.9917 20.9545C39.2275 21.4602 39.3453 22.0568 39.3453 22.7443C39.3453 23.4375 39.2275 24.0384 38.9917 24.5469C38.7559 25.0526 38.4292 25.4446 38.0115 25.723C37.5939 25.9986 37.1124 26.1364 36.5669 26.1364C36.1465 26.1364 35.8098 26.0668 35.557 25.9276C35.3042 25.7855 35.1096 25.625 34.9732 25.446C34.8368 25.2642 34.7317 25.1136 34.6578 24.9943H34.5726V28.4545H33.5669ZM34.5556 22.7273C34.5556 23.2216 34.628 23.6577 34.7729 24.0355C34.9178 24.4105 35.1294 24.7045 35.4078 24.9176C35.6863 25.1278 36.0272 25.233 36.4306 25.233C36.851 25.233 37.2019 25.1222 37.4831 24.9006C37.7672 24.6761 37.9803 24.375 38.1223 23.9972C38.2672 23.6165 38.3397 23.1932 38.3397 22.7273C38.3397 22.267 38.2686 21.8523 38.1266 21.483C37.9874 21.1108 37.7757 20.8168 37.4917 20.6009C37.2104 20.3821 36.8567 20.2727 36.4306 20.2727C36.0215 20.2727 35.6777 20.3764 35.3993 20.5838C35.1209 20.7884 34.9107 21.0753 34.7686 21.4446C34.6266 21.8111 34.5556 22.2386 34.5556 22.7273ZM40.8794 26V19.4545H41.8851V26H40.8794ZM41.3908 18.3636C41.1948 18.3636 41.0257 18.2969 40.8837 18.1634C40.7445 18.0298 40.6749 17.8693 40.6749 17.6818C40.6749 17.4943 40.7445 17.3338 40.8837 17.2003C41.0257 17.0668 41.1948 17 41.3908 17C41.5868 17 41.7544 17.0668 41.8936 17.2003C42.0357 17.3338 42.1067 17.4943 42.1067 17.6818C42.1067 17.8693 42.0357 18.0298 41.8936 18.1634C41.7544 18.2969 41.5868 18.3636 41.3908 18.3636ZM46.4714 26.1364C45.8407 26.1364 45.2967 25.9972 44.8393 25.7188C44.3848 25.4375 44.0339 25.0455 43.7868 24.5426C43.5424 24.0369 43.4203 23.4489 43.4203 22.7784C43.4203 22.108 43.5424 21.517 43.7868 21.0057C44.0339 20.4915 44.3777 20.0909 44.818 19.804C45.2612 19.5142 45.7782 19.3693 46.3691 19.3693C46.71 19.3693 47.0467 19.4261 47.3791 19.5398C47.7115 19.6534 48.014 19.8381 48.2868 20.0938C48.5595 20.3466 48.7768 20.6818 48.9387 21.0994C49.1007 21.517 49.1816 22.0312 49.1816 22.642V23.0682H44.1362V22.1989H48.1589C48.1589 21.8295 48.085 21.5 47.9373 21.2102C47.7924 20.9205 47.585 20.6918 47.3152 20.5241C47.0481 20.3565 46.7328 20.2727 46.3691 20.2727C45.9686 20.2727 45.622 20.3722 45.3294 20.571C45.0396 20.767 44.8166 21.0227 44.6603 21.3381C44.5041 21.6534 44.426 21.9915 44.426 22.3523V22.9318C44.426 23.4261 44.5112 23.8452 44.6816 24.1889C44.8549 24.5298 45.095 24.7898 45.4018 24.9688C45.7086 25.1449 46.0652 25.233 46.4714 25.233C46.7356 25.233 46.9743 25.196 47.1873 25.1222C47.4032 25.0455 47.5893 24.9318 47.7456 24.7812C47.9018 24.6278 48.0225 24.4375 48.1078 24.2102L49.0794 24.483C48.9771 24.8125 48.8052 25.1023 48.5637 25.3523C48.3223 25.5994 48.024 25.7926 47.6689 25.9318C47.3137 26.0682 46.9146 26.1364 46.4714 26.1364ZM53.1831 26.1364C52.6376 26.1364 52.1561 25.9986 51.7385 25.723C51.3208 25.4446 50.9941 25.0526 50.7583 24.5469C50.5225 24.0384 50.4047 23.4375 50.4047 22.7443C50.4047 22.0568 50.5225 21.4602 50.7583 20.9545C50.9941 20.4489 51.3223 20.0582 51.7427 19.7827C52.1632 19.5071 52.649 19.3693 53.2001 19.3693C53.6262 19.3693 53.9629 19.4403 54.21 19.5824C54.46 19.7216 54.6504 19.8807 54.7811 20.0597C54.9146 20.2358 55.0183 20.3807 55.0922 20.4943H55.1774V17.2727H56.1831V26H55.2115V24.9943H55.0922C55.0183 25.1136 54.9132 25.2642 54.7768 25.446C54.6404 25.625 54.4458 25.7855 54.193 25.9276C53.9402 26.0668 53.6035 26.1364 53.1831 26.1364ZM53.3194 25.233C53.7228 25.233 54.0637 25.1278 54.3422 24.9176C54.6206 24.7045 54.8322 24.4105 54.9771 24.0355C55.122 23.6577 55.1944 23.2216 55.1944 22.7273C55.1944 22.2386 55.1234 21.8111 54.9814 21.4446C54.8393 21.0753 54.6291 20.7884 54.3507 20.5838C54.0723 20.3764 53.7285 20.2727 53.3194 20.2727C52.8933 20.2727 52.5382 20.3821 52.2541 20.6009C51.9728 20.8168 51.7612 21.1108 51.6191 21.483C51.4799 21.8523 51.4103 22.267 51.4103 22.7273C51.4103 23.1932 51.4814 23.6165 51.6234 23.9972C51.7683 24.375 51.9814 24.6761 52.2626 24.9006C52.5467 25.1222 52.899 25.233 53.3194 25.233Z" fill="#808080"/>
<defs>
<filter id="filter0_d_2829_914" x="0" y="0" width="74" height="48" filterUnits="userSpaceOnUse" color-interpolation-filters="sRGB">
<feFlood flood-opacity="0" result="BackgroundImageFix"/>
<feColorMatrix in="SourceAlpha" type="matrix" values="0 0 0 0 0 0 0 0 0 0 0 0 0 0 0 0 0 0 127 0" result="hardAlpha"/>
<feOffset/>
<feGaussianBlur stdDeviation="4.5"/>
<feComposite in2="hardAlpha" operator="out"/>
<feColorMatrix type="matrix" values="0 0 0 0 0 0 0 0 0 0 0 0 0 0 0 0 0 0 0.15 0"/>
<feBlend mode="normal" in2="BackgroundImageFix" result="effect1_dropShadow_2829_914"/>
<feBlend mode="normal" in="SourceGraphic" in2="effect1_dropShadow_2829_914" result="shape"/>
</filter>
</defs>
</svg>
