<svg width="74" height="48" viewBox="0 0 74 48" fill="none" xmlns="http://www.w3.org/2000/svg">
<g filter="url(#filter0_d_2546_40507)">
<path d="M57 9C61.4182 9.00002 64.9999 12.5819 65 17V26C65 30.4183 61.4183 34 57 34H42L37 39L32 34H17C12.5818 34 9.00013 30.4181 9 26V17C9.00003 12.5817 12.5817 9 17 9H57Z" fill="white"/>
</g>
<path d="M30.2553 20H29.1985C29.136 19.696 29.0266 19.429 28.8704 19.1989C28.717 18.9688 28.5295 18.7756 28.3079 18.6193C28.0891 18.4602 27.8462 18.3409 27.5792 18.2614C27.3121 18.1818 27.0337 18.142 26.744 18.142C26.2156 18.142 25.7369 18.2756 25.3079 18.5426C24.8817 18.8097 24.5423 19.2031 24.2894 19.723C24.0394 20.2429 23.9144 20.8807 23.9144 21.6364C23.9144 22.392 24.0394 23.0298 24.2894 23.5497C24.5423 24.0696 24.8817 24.4631 25.3079 24.7301C25.7369 24.9972 26.2156 25.1307 26.744 25.1307C27.0337 25.1307 27.3121 25.0909 27.5792 25.0114C27.8462 24.9318 28.0891 24.8139 28.3079 24.6577C28.5295 24.4986 28.717 24.304 28.8704 24.0739C29.0266 23.8409 29.136 23.5739 29.1985 23.2727H30.2553C30.1758 23.7187 30.0309 24.1179 29.8207 24.4702C29.6104 24.8224 29.3491 25.1222 29.0366 25.3693C28.7241 25.6136 28.3732 25.7997 27.984 25.9276C27.5977 26.0554 27.1843 26.1193 26.744 26.1193C25.9996 26.1193 25.3377 25.9375 24.7582 25.5739C24.1786 25.2102 23.7227 24.6932 23.3903 24.0227C23.0579 23.3523 22.8917 22.5568 22.8917 21.6364C22.8917 20.7159 23.0579 19.9205 23.3903 19.25C23.7227 18.5795 24.1786 18.0625 24.7582 17.6989C25.3377 17.3352 25.9996 17.1534 26.744 17.1534C27.1843 17.1534 27.5977 17.2173 27.984 17.3452C28.3732 17.473 28.7241 17.6605 29.0366 17.9077C29.3491 18.152 29.6104 18.4503 29.8207 18.8026C30.0309 19.152 30.1758 19.5511 30.2553 20ZM34.4858 26.1364C33.8949 26.1364 33.3764 25.9957 32.9304 25.7145C32.4872 25.4332 32.1406 25.0398 31.8906 24.5341C31.6435 24.0284 31.5199 23.4375 31.5199 22.7614C31.5199 22.0795 31.6435 21.4844 31.8906 20.9759C32.1406 20.4673 32.4872 20.0724 32.9304 19.7912C33.3764 19.5099 33.8949 19.3693 34.4858 19.3693C35.0767 19.3693 35.5938 19.5099 36.0369 19.7912C36.483 20.0724 36.8295 20.4673 37.0767 20.9759C37.3267 21.4844 37.4517 22.0795 37.4517 22.7614C37.4517 23.4375 37.3267 24.0284 37.0767 24.5341C36.8295 25.0398 36.483 25.4332 36.0369 25.7145C35.5938 25.9957 35.0767 26.1364 34.4858 26.1364ZM34.4858 25.233C34.9347 25.233 35.304 25.1179 35.5938 24.8878C35.8835 24.6577 36.098 24.3551 36.2372 23.9801C36.3764 23.6051 36.446 23.1989 36.446 22.7614C36.446 22.3239 36.3764 21.9162 36.2372 21.5384C36.098 21.1605 35.8835 20.8551 35.5938 20.6222C35.304 20.3892 34.9347 20.2727 34.4858 20.2727C34.0369 20.2727 33.6676 20.3892 33.3778 20.6222C33.0881 20.8551 32.8736 21.1605 32.7344 21.5384C32.5952 21.9162 32.5256 22.3239 32.5256 22.7614C32.5256 23.1989 32.5952 23.6051 32.7344 23.9801C32.8736 24.3551 33.0881 24.6577 33.3778 24.8878C33.6676 25.1179 34.0369 25.233 34.4858 25.233ZM38.9869 28.4545V19.4545H39.9585V20.4943H40.0778C40.1516 20.3807 40.2539 20.2358 40.3846 20.0597C40.5181 19.8807 40.7085 19.7216 40.9556 19.5824C41.2056 19.4403 41.5437 19.3693 41.9698 19.3693C42.521 19.3693 43.0067 19.5071 43.4272 19.7827C43.8477 20.0582 44.1758 20.4489 44.4116 20.9545C44.6474 21.4602 44.7653 22.0568 44.7653 22.7443C44.7653 23.4375 44.6474 24.0384 44.4116 24.5469C44.1758 25.0526 43.8491 25.4446 43.4315 25.723C43.0138 25.9986 42.5323 26.1364 41.9869 26.1364C41.5664 26.1364 41.2298 26.0668 40.9769 25.9276C40.7241 25.7855 40.5295 25.625 40.3931 25.446C40.2567 25.2642 40.1516 25.1136 40.0778 24.9943H39.9925V28.4545H38.9869ZM39.9755 22.7273C39.9755 23.2216 40.0479 23.6577 40.1928 24.0355C40.3377 24.4105 40.5494 24.7045 40.8278 24.9176C41.1062 25.1278 41.4471 25.233 41.8505 25.233C42.271 25.233 42.6218 25.1222 42.9031 24.9006C43.1871 24.6761 43.4002 24.375 43.5423 23.9972C43.6871 23.6165 43.7596 23.1932 43.7596 22.7273C43.7596 22.267 43.6886 21.8523 43.5465 21.483C43.4073 21.1108 43.1957 20.8168 42.9116 20.6009C42.6303 20.3821 42.2766 20.2727 41.8505 20.2727C41.4414 20.2727 41.0977 20.3764 40.8192 20.5838C40.5408 20.7884 40.3306 21.0753 40.1886 21.4446C40.0465 21.8111 39.9755 22.2386 39.9755 22.7273ZM46.7127 28.4545C46.5423 28.4545 46.3903 28.4403 46.2567 28.4119C46.1232 28.3864 46.0309 28.3608 45.9798 28.3352L46.2354 27.4489C46.4798 27.5114 46.6957 27.5341 46.8832 27.517C47.0707 27.5 47.2369 27.4162 47.3817 27.2656C47.5295 27.1179 47.6644 26.8778 47.7866 26.5455L47.9741 26.0341L45.5536 19.4545H46.6445L48.4513 24.6705H48.5195L50.3263 19.4545H51.4173L48.6388 26.9545C48.5138 27.2926 48.359 27.5724 48.1744 27.794C47.9897 28.0185 47.7752 28.1847 47.5309 28.2926C47.2894 28.4006 47.0167 28.4545 46.7127 28.4545Z" fill="#808080"/>
<defs>
<filter id="filter0_d_2546_40507" x="0" y="0" width="74" height="48" filterUnits="userSpaceOnUse" color-interpolation-filters="sRGB">
<feFlood flood-opacity="0" result="BackgroundImageFix"/>
<feColorMatrix in="SourceAlpha" type="matrix" values="0 0 0 0 0 0 0 0 0 0 0 0 0 0 0 0 0 0 127 0" result="hardAlpha"/>
<feOffset/>
<feGaussianBlur stdDeviation="4.5"/>
<feComposite in2="hardAlpha" operator="out"/>
<feColorMatrix type="matrix" values="0 0 0 0 0 0 0 0 0 0 0 0 0 0 0 0 0 0 0.15 0"/>
<feBlend mode="normal" in2="BackgroundImageFix" result="effect1_dropShadow_2546_40507"/>
<feBlend mode="normal" in="SourceGraphic" in2="effect1_dropShadow_2546_40507" result="shape"/>
</filter>
</defs>
</svg>
