<svg width="36" height="41" viewBox="0 0 36 41" fill="none" xmlns="http://www.w3.org/2000/svg">
<path fill-rule="evenodd" clip-rule="evenodd" d="M34.6753 20.0819C34.6613 20.1328 34.6437 20.1825 34.6233 20.2298C32.559 27.7009 27.96 34.3623 20.6839 39.2148C20.0352 39.6507 19.3602 40.0791 18.6508 40.4952C18.3048 40.699 17.8766 40.7148 17.5153 40.5366L17.5137 40.5358C17.4587 40.5084 16.5992 40.0793 15.2912 39.2189C4.84073 32.4159 -1.73221 20.4909 0.401572 5.94562C0.449492 5.61895 0.630068 5.32617 0.901223 5.13741C1.17121 4.94866 1.50782 4.87911 1.83215 4.94807C6.15977 5.85915 12.5557 4.48704 17.1764 0.308625C17.5995 -0.0729791 18.2336 -0.103952 18.6905 0.233824C22.4472 3.0165 29.0187 5.73728 34.3574 4.97729C35.0072 4.88671 35.5945 5.3215 35.705 5.95848C35.7137 6.00815 35.9159 7.19738 35.9837 9.15566C36.0614 11.7053 35.8978 15.6657 34.6753 20.0819ZM18.0144 38.0857C18.4737 37.8041 18.9185 37.5177 19.3521 37.2255C26.049 32.7609 30.4167 26.5978 32.3553 19.449C32.3699 19.3953 32.388 19.3439 32.409 19.2942C33.5147 15.2269 33.6631 11.5844 33.5912 9.23396C33.5667 8.53095 33.524 7.93604 33.4802 7.47379C28.1742 7.82922 22.4308 5.56985 18.0647 2.70578C13.521 6.47257 7.7861 7.9634 2.61581 7.46736C1.0986 20.6043 7.25185 31.1236 16.6019 37.2162C17.1881 37.6013 17.6725 37.8905 18.0144 38.0857ZM23.9372 16.2058V13.8372C23.9372 10.56 21.2707 7.89342 17.9934 7.89342C14.7156 7.89342 12.049 10.56 12.049 13.8372V16.2059C11.0669 16.3306 10.3023 17.1621 10.3023 18.1775V26.2496C10.3023 27.3506 11.1982 28.2464 12.2992 28.2464H23.6877C24.7887 28.2464 25.6845 27.3506 25.6845 26.2496V18.1775C25.6845 17.1619 24.9196 16.3303 23.9372 16.2058ZM14.4427 13.8372C14.4427 11.8795 16.0357 10.2871 17.9934 10.2871C19.9511 10.2871 21.5436 11.8795 21.5436 13.8372V16.1806H14.4427V13.8372ZM23.2909 25.8528H12.696V18.5743H23.2909V25.8528ZM18.9931 20.0288L17.147 21.8748L16.7017 21.4453C16.2272 20.9877 15.4687 21 15.0093 21.4757C14.5506 21.9514 14.564 22.7087 15.0397 23.1681L16.3306 24.414C16.5627 24.6378 16.8624 24.7494 17.1616 24.7494C17.4679 24.7494 17.7747 24.6326 18.0078 24.3988L20.6855 21.7211C21.153 21.2536 21.153 20.4963 20.6855 20.0288C20.218 19.5612 19.4606 19.5612 18.9931 20.0288Z" fill="url(#paint0_linear_1675_76)"/>
<defs>
<linearGradient id="paint0_linear_1675_76" x1="2.99947e-07" y1="-5" x2="36" y2="35" gradientUnits="userSpaceOnUse">
<stop offset="0.298406" stop-color="#2EC589"/>
<stop offset="1" stop-color="#158C36"/>
</linearGradient>
</defs>
</svg>
