<svg width="24" height="20" viewBox="0 0 24 20" fill="none" xmlns="http://www.w3.org/2000/svg">
<path d="M18 3.92C18 1.758 16.242 0 14.08 0H3.92C1.758 0 0 1.758 0 3.92C0 4.855 0.335 5.761 0.944 6.471L6 12.37V16C6 16.315 6.148 16.611 6.4 16.8L10.4 19.8C10.577 19.932 10.788 20 11 20C11.152 20 11.306 19.965 11.447 19.895C11.786 19.726 12 19.379 12 19V12.37L17.056 6.471C17.665 5.761 18 4.855 18 3.92ZM15.538 5.17L10.241 11.35C10.086 11.531 10 11.762 10 12.001V17.001L8 15.501V12.001C8 11.762 7.915 11.531 7.759 11.35L2.462 5.169C2.164 4.821 2 4.377 2 3.919C2 2.86 2.861 1.999 3.92 1.999H14.08C15.139 1.999 16 2.86 16 3.919C16 4.377 15.836 4.822 15.538 5.17ZM24 18.001C24 18.553 23.552 19.001 23 19.001H15C14.448 19.001 14 18.553 14 18.001C14 17.449 14.448 17.001 15 17.001H23C23.552 17.001 24 17.449 24 18.001ZM24 14.001C24 14.553 23.552 15.001 23 15.001H15C14.448 15.001 14 14.553 14 14.001C14 13.449 14.448 13.001 15 13.001H23C23.552 13.001 24 13.449 24 14.001ZM18 9.001H23C23.552 9.001 24 9.449 24 10.001C24 10.553 23.552 11.001 23 11.001H18C17.448 11.001 17 10.553 17 10.001C17 9.449 17.448 9.001 18 9.001Z" fill="#006CFF"/>
</svg>
