<svg width="34" height="36" viewBox="0 0 34 36" fill="none" xmlns="http://www.w3.org/2000/svg">
<path d="M12.5664 0.482254C12.8527 0.363512 13.182 0.383138 13.4541 0.541825L16.8486 2.52229L17.2031 2.72151C18.9892 3.69296 20.9777 4.25736 23.0205 4.36995L24.9355 4.47542C25.4653 4.50487 25.8807 4.9438 25.8809 5.47444V14.6307C27.3265 16.0135 28.6902 18.0037 28.9297 20.6463C29.1127 20.286 29.2608 19.9294 29.3633 19.6522C29.4178 19.5048 29.4583 19.3827 29.4854 19.2996C29.4987 19.2586 29.5094 19.2271 29.5156 19.2069C29.5187 19.1969 29.5212 19.1886 29.5225 19.1844V19.1815L29.5762 19.0408C29.7229 18.7247 30.0269 18.5031 30.3809 18.4666C30.7852 18.4251 31.1751 18.6332 31.3662 18.992V18.994C31.3666 18.9947 31.3675 18.9958 31.3682 18.9969C31.3696 18.9996 31.3715 19.0038 31.374 19.0086C31.3792 19.0185 31.3878 19.0332 31.3975 19.0516C31.4168 19.0885 31.4444 19.1425 31.4795 19.2108C31.5501 19.3483 31.6506 19.5467 31.7705 19.7908C32.0101 20.2786 32.3303 20.9557 32.6514 21.7098C32.9715 22.4616 33.2986 23.3039 33.5469 24.1199C33.7902 24.9197 33.9801 25.7657 33.9805 26.5008L33.9727 26.9188C33.9319 27.8863 33.7481 28.8006 33.4395 29.6473C33.2503 30.1662 32.6761 30.4331 32.1572 30.244C31.6385 30.0547 31.3704 29.4806 31.5596 28.9617C31.7963 28.3122 31.9414 27.601 31.9736 26.8338L31.9805 26.5018C31.9802 26.0635 31.8589 25.4418 31.6338 24.702C31.4136 23.9784 31.1156 23.2073 30.8115 22.493C30.7206 22.2795 30.629 22.072 30.54 21.8739C30.3071 22.2899 30.018 22.7301 29.6641 23.0985C29.2785 23.4996 28.7389 23.899 28.0498 23.9959L27.9102 24.0116C27.6025 24.0355 27.3006 23.9164 27.0928 23.6883C26.8852 23.4602 26.7942 23.1485 26.8467 22.8446C27.3907 19.6929 26.0024 17.4718 24.3955 15.9774C23.6633 15.2965 22.8951 14.7817 22.2725 14.4198C22.106 15.7035 21.7837 16.7588 21.3564 17.6668C20.7741 18.9043 20.0211 19.8206 19.3311 20.616C18.0487 22.0943 16.9875 23.1731 16.7773 25.4422L16.7471 25.9129C16.5859 30.0992 19.7589 33.4258 24.0488 33.5867L24.4443 33.5936C25.3635 33.5879 26.2464 33.4409 27.0625 33.1727L27.1611 33.1463C27.656 33.0376 28.1624 33.3197 28.3242 33.8114C28.4964 34.3359 28.2111 34.9007 27.6865 35.0731L27.2461 35.2069C26.3573 35.455 25.4196 35.5876 24.457 35.5936L23.9736 35.5858C20.3986 35.4516 17.3864 33.5222 15.8457 30.659L13.3594 31.7742C13.0992 31.8909 12.8012 31.8908 12.541 31.7742L9.14648 30.2528C3.70036 27.8107 0.0185674 23.6533 0.0185547 17.5272V5.47444L0.0244141 5.37581C0.0721726 4.89034 0.46806 4.50378 0.964844 4.47639L2.87891 4.36995L3.28711 4.34163C5.32177 4.16895 7.29245 3.54763 9.05078 2.52229L12.4463 0.541825L12.5664 0.482254ZM10.0586 4.24983C8.04258 5.42549 5.78514 6.13716 3.45605 6.33479L2.98926 6.36702L2.01953 6.41975V17.5272C2.01954 22.6447 5.01217 26.2068 9.96484 28.4276L12.9502 29.7655L15.0957 28.8035C14.8331 27.8714 14.709 26.8751 14.749 25.8358L14.7646 25.5242C14.978 22.359 16.5197 20.8047 17.8203 19.3055C18.4855 18.5387 19.0868 17.793 19.5469 16.8153C20.003 15.8459 20.3421 14.5985 20.3926 12.8309L20.4033 12.7098C20.4453 12.4327 20.6023 12.1833 20.8389 12.0262C21.1094 11.8466 21.4511 11.8093 21.7539 11.9266L21.3916 12.8592C21.7235 12.003 21.7513 11.9331 21.7539 11.9276H21.7549L21.7578 11.9285C21.7598 11.9293 21.7628 11.9304 21.7656 11.9315C21.7713 11.9337 21.779 11.9366 21.7881 11.9403C21.807 11.9479 21.8337 11.9588 21.8662 11.9725C21.9314 12 22.0237 12.0402 22.1377 12.0926C22.3658 12.1975 22.6849 12.3535 23.0605 12.5633C23.3105 12.7029 23.5872 12.8682 23.8809 13.0584V6.41975L22.9111 6.36702C20.5731 6.2382 18.2955 5.59188 16.248 4.47835L15.8418 4.24983L12.9502 2.56331L10.0586 4.24983Z" fill="url(#paint0_linear_2667_1127)"/>
<defs>
<linearGradient id="paint0_linear_2667_1127" x1="0.018555" y1="-3.92119" x2="30.78" y2="33.3377" gradientUnits="userSpaceOnUse">
<stop offset="0.298406" stop-color="#2EC589"/>
<stop offset="1" stop-color="#158C36"/>
</linearGradient>
</defs>
</svg>
