<svg width="36" height="36" viewBox="0 0 36 36" fill="none" xmlns="http://www.w3.org/2000/svg">
<g clip-path="url(#clip0_2526_1107)">
<path d="M0.0078125 35.9949H10.8036V31.1968H0.0078125V35.9949ZM1.20734 32.3963H9.60405V34.7954H1.20734V32.3963Z" fill="#696969"/>
<path d="M12.6028 35.9949H23.3986V31.1968H12.6028V35.9949ZM13.8024 32.3963H22.1991V34.7954H13.8024V32.3963Z" fill="#696969"/>
<path d="M25.1979 35.9949H35.9937V31.1968H25.1979V35.9949ZM26.3975 32.3963H34.7942V34.7954H26.3975V32.3963Z" fill="#696969"/>
<path d="M3.0066 32.9958H1.80707V34.1954H3.0066V32.9958Z" fill="#696969"/>
<path d="M28.1967 32.9958H26.9972V34.1954H28.1967V32.9958Z" fill="#696969"/>
<path d="M15.6017 32.9958H14.4022V34.1954H15.6017V32.9958Z" fill="#696969"/>
<path d="M31.1956 22.2002H18.6005V19.2014H30.5958C33.5769 19.2049 35.9965 16.791 36 13.8098C36.0027 11.4862 34.5182 9.42168 32.3147 8.68449C31.8089 5.74924 29.0193 3.77976 26.0841 4.28566C25.6229 4.36513 25.1739 4.50435 24.7487 4.69973C23.3655 0.973236 19.2233 -0.926295 15.4968 0.456914C13.5323 1.18608 11.9831 2.73527 11.254 4.69973C8.54769 3.45574 5.34532 4.64125 4.10133 7.34754C3.90566 7.7733 3.76621 8.22275 3.68674 8.68457C0.8596 9.6304 -0.665527 12.689 0.280377 15.5162C1.01756 17.7197 3.08218 19.2042 5.40567 19.2014H17.401V22.2003H4.20614V25.7989H0.00778381V30.597H10.8036V25.7989H5.40567V23.3998H17.401V25.7989H12.6029V30.597H23.3986V25.7989H18.6005V23.3998H29.996V25.7989H25.1979V30.597H35.9937V25.7989H31.1956V22.2002ZM9.60403 26.9983V29.3974H1.20731V26.9983H9.60403ZM22.1991 26.9983V29.3974H13.8024V26.9983H22.1991ZM5.40567 18.0018C3.0881 17.9992 1.20994 16.1211 1.20731 13.8035C1.20619 11.8798 2.51255 10.2015 4.37767 9.73048C4.62365 9.66818 4.80381 9.45774 4.8275 9.20509C5.02272 7.04676 6.83708 5.39673 9.00426 5.40678C9.81192 5.40483 10.6024 5.63956 11.278 6.08211C11.5548 6.26399 11.9267 6.18707 12.1086 5.9102C12.1455 5.85405 12.1727 5.79212 12.189 5.72705C13.0074 2.51733 16.2728 0.578741 19.4825 1.39712C21.6094 1.93938 23.2702 3.60021 23.8125 5.72705C23.8932 6.0483 24.2191 6.2433 24.5404 6.16255C24.6055 6.14621 24.6674 6.119 24.7235 6.08211C25.3991 5.63956 26.1896 5.40483 26.9972 5.40678C29.1644 5.39673 30.9788 7.04676 31.174 9.20509C31.1977 9.45774 31.3778 9.66818 31.6238 9.73048C33.8733 10.2928 35.241 12.5722 34.6786 14.8217C34.2105 16.6942 32.526 18.0063 30.5958 18.0018H5.40567ZM34.7942 26.9983V29.3974H26.3974V26.9983H34.7942Z" fill="#696969"/>
<path d="M3.0066 27.5981H1.80707V28.7977H3.0066V27.5981Z" fill="#696969"/>
<path d="M15.6017 27.5981H14.4022V28.7977H15.6017V27.5981Z" fill="#696969"/>
<path d="M28.1967 27.5981H26.9972V28.7977H28.1967V27.5981Z" fill="#696969"/>
<path d="M18.6005 16.2026H17.401V17.4022H18.6005V16.2026Z" fill="#696969"/>
<path d="M20.9996 16.2026H19.8V17.4022H20.9996V16.2026Z" fill="#696969"/>
<path d="M23.3986 16.2026H22.1991V17.4022H23.3986V16.2026Z" fill="#696969"/>
<path d="M25.7977 16.2026H24.5981V17.4022H25.7977V16.2026Z" fill="#696969"/>
<path d="M28.1967 16.2026H26.9972V17.4022H28.1967V16.2026Z" fill="#696969"/>
<path d="M30.5958 16.2026H29.3963V17.4022H30.5958V16.2026Z" fill="#696969"/>
<path d="M16.2014 16.2026H15.0019V17.4022H16.2014V16.2026Z" fill="#696969"/>
<path d="M13.8024 16.2026H12.6028V17.4022H13.8024V16.2026Z" fill="#696969"/>
<path d="M11.4033 16.2026H10.2038V17.4022H11.4033V16.2026Z" fill="#696969"/>
<path d="M9.00428 16.2026H7.80475V17.4022H9.00428V16.2026Z" fill="#696969"/>
<path d="M6.60517 16.2026H5.40564V17.4022H6.60517V16.2026Z" fill="#696969"/>
</g>
<defs>
<clipPath id="clip0_2526_1107">
<rect width="36" height="36" fill="white"/>
</clipPath>
</defs>
</svg>
