<svg width="77" height="24" viewBox="0 0 77 24" fill="none" xmlns="http://www.w3.org/2000/svg">
<rect width="77" height="24" rx="4" fill="white" fill-opacity="0.2"/>
<rect x="0.5" y="0.5" width="76" height="23" rx="3.5" stroke="white" stroke-opacity="0.1"/>
<path d="M11.2451 7.11479L8.75008 8.05479C8.17508 8.26979 7.70508 8.94979 7.70508 9.55979V13.2748C7.70508 13.8648 8.09508 14.6398 8.57008 14.9948L10.7201 16.5998C11.4251 17.1298 12.5851 17.1298 13.2901 16.5998L15.4401 14.9948C15.9151 14.6398 16.3051 13.8648 16.3051 13.2748V9.55979C16.3051 8.94479 15.8351 8.26479 15.2601 8.04979L12.7651 7.11479C12.3401 6.95979 11.6601 6.95979 11.2451 7.11479Z" stroke="#AAABB8" stroke-width="1.5" stroke-linecap="round" stroke-linejoin="round"/>
<path d="M13.0752 12.7202L10.9502 10.5952" stroke="#AAABB8" stroke-width="1.5" stroke-miterlimit="10" stroke-linecap="round" stroke-linejoin="round"/>
<path d="M13.0498 10.6201L10.9248 12.7451" stroke="#AAABB8" stroke-width="1.5" stroke-miterlimit="10" stroke-linecap="round" stroke-linejoin="round"/>
<path d="M24.6508 7.66V16H23.2828V7.66H24.6508ZM29.7829 9.28C30.3029 9.28 30.7669 9.388 31.1749 9.604C31.5909 9.82 31.9149 10.14 32.1469 10.564C32.3789 10.988 32.4949 11.5 32.4949 12.1V16H31.1389V12.304C31.1389 11.712 30.9909 11.26 30.6949 10.948C30.3989 10.628 29.9949 10.468 29.4829 10.468C28.9709 10.468 28.5629 10.628 28.2589 10.948C27.9629 11.26 27.8149 11.712 27.8149 12.304V16H26.4469V9.388H27.8149V10.144C28.0389 9.872 28.3229 9.66 28.6669 9.508C29.0189 9.356 29.3909 9.28 29.7829 9.28ZM33.7838 12.664C33.7838 12 33.9198 11.412 34.1918 10.9C34.4718 10.388 34.8478 9.992 35.3198 9.712C35.7998 9.424 36.3278 9.28 36.9038 9.28C37.4238 9.28 37.8758 9.384 38.2598 9.592C38.6518 9.792 38.9638 10.044 39.1958 10.348V9.388H40.5758V16H39.1958V15.016C38.9638 15.328 38.6478 15.588 38.2478 15.796C37.8478 16.004 37.3918 16.108 36.8798 16.108C36.3118 16.108 35.7918 15.964 35.3198 15.676C34.8478 15.38 34.4718 14.972 34.1918 14.452C33.9198 13.924 33.7838 13.328 33.7838 12.664ZM39.1958 12.688C39.1958 12.232 39.0998 11.836 38.9078 11.5C38.7238 11.164 38.4798 10.908 38.1758 10.732C37.8718 10.556 37.5438 10.468 37.1918 10.468C36.8398 10.468 36.5118 10.556 36.2078 10.732C35.9038 10.9 35.6558 11.152 35.4638 11.488C35.2798 11.816 35.1878 12.208 35.1878 12.664C35.1878 13.12 35.2798 13.52 35.4638 13.864C35.6558 14.208 35.9038 14.472 36.2078 14.656C36.5198 14.832 36.8478 14.92 37.1918 14.92C37.5438 14.92 37.8718 14.832 38.1758 14.656C38.4798 14.48 38.7238 14.224 38.9078 13.888C39.0998 13.544 39.1958 13.144 39.1958 12.688ZM41.9167 12.688C41.9167 12.008 42.0527 11.412 42.3247 10.9C42.6047 10.38 42.9887 9.98 43.4767 9.7C43.9647 9.42 44.5247 9.28 45.1567 9.28C45.9567 9.28 46.6167 9.472 47.1367 9.856C47.6647 10.232 48.0207 10.772 48.2047 11.476H46.7287C46.6087 11.148 46.4167 10.892 46.1527 10.708C45.8887 10.524 45.5567 10.432 45.1567 10.432C44.5967 10.432 44.1487 10.632 43.8127 11.032C43.4847 11.424 43.3207 11.976 43.3207 12.688C43.3207 13.4 43.4847 13.956 43.8127 14.356C44.1487 14.756 44.5967 14.956 45.1567 14.956C45.9487 14.956 46.4727 14.608 46.7287 13.912H48.2047C48.0127 14.584 47.6527 15.12 47.1247 15.52C46.5967 15.912 45.9407 16.108 45.1567 16.108C44.5247 16.108 43.9647 15.968 43.4767 15.688C42.9887 15.4 42.6047 15 42.3247 14.488C42.0527 13.968 41.9167 13.368 41.9167 12.688ZM51.164 10.504V14.164C51.164 14.412 51.22 14.592 51.332 14.704C51.452 14.808 51.652 14.86 51.932 14.86H52.772V16H51.692C51.076 16 50.604 15.856 50.276 15.568C49.948 15.28 49.784 14.812 49.784 14.164V10.504H49.004V9.388H49.784V7.744H51.164V9.388H52.772V10.504H51.164ZM54.7288 8.512C54.4808 8.512 54.2728 8.428 54.1048 8.26C53.9368 8.092 53.8528 7.884 53.8528 7.636C53.8528 7.388 53.9368 7.18 54.1048 7.012C54.2728 6.844 54.4808 6.76 54.7288 6.76C54.9688 6.76 55.1728 6.844 55.3408 7.012C55.5088 7.18 55.5928 7.388 55.5928 7.636C55.5928 7.884 55.5088 8.092 55.3408 8.26C55.1728 8.428 54.9688 8.512 54.7288 8.512ZM55.4008 9.388V16H54.0328V9.388H55.4008ZM59.7529 14.776L61.6249 9.388H63.0769L60.5569 16H58.9249L56.4169 9.388H57.8809L59.7529 14.776ZM70.1709 12.532C70.1709 12.78 70.1549 13.004 70.1229 13.204H65.0709C65.1109 13.732 65.3069 14.156 65.6589 14.476C66.0109 14.796 66.4429 14.956 66.9549 14.956C67.6909 14.956 68.2109 14.648 68.5149 14.032H69.9909C69.7909 14.64 69.4269 15.14 68.8989 15.532C68.3789 15.916 67.7309 16.108 66.9549 16.108C66.3229 16.108 65.7549 15.968 65.2509 15.688C64.7549 15.4 64.3629 15 64.0749 14.488C63.7949 13.968 63.6549 13.368 63.6549 12.688C63.6549 12.008 63.7909 11.412 64.0629 10.9C64.3429 10.38 64.7309 9.98 65.2269 9.7C65.7309 9.42 66.3069 9.28 66.9549 9.28C67.5789 9.28 68.1349 9.416 68.6229 9.688C69.1109 9.96 69.4909 10.344 69.7629 10.84C70.0349 11.328 70.1709 11.892 70.1709 12.532ZM68.7429 12.1C68.7349 11.596 68.5549 11.192 68.2029 10.888C67.8509 10.584 67.4149 10.432 66.8949 10.432C66.4229 10.432 66.0189 10.584 65.6829 10.888C65.3469 11.184 65.1469 11.588 65.0829 12.1H68.7429Z" fill="#AAABB8"/>
</svg>
