<svg width="36" height="41" viewBox="0 0 36 41" fill="none" xmlns="http://www.w3.org/2000/svg">
<path d="M17.177 0.308644C17.6 -0.0727 18.2337 -0.104052 18.6906 0.233449C22.4472 3.01613 29.019 5.73758 34.3576 4.97759C35.0073 4.88704 35.5946 5.32132 35.7053 5.95806C35.714 6.00773 35.9158 7.19728 35.9836 9.15532C36.0613 11.705 35.8975 15.6659 34.675 20.0821C34.661 20.1328 34.6436 20.1823 34.6232 20.2295C32.5589 27.7007 27.9599 34.3624 20.6838 39.2149C20.0352 39.6508 19.3599 40.0792 18.6506 40.4952C18.3048 40.6988 17.8769 40.715 17.5158 40.5372C17.4796 40.519 16.6148 40.0895 15.2912 39.2188C4.84086 32.4159 -1.73221 20.4906 0.401563 5.94536C0.449541 5.61881 0.630503 5.32645 0.901563 5.13775C1.17153 4.949 1.50792 4.87936 1.83223 4.94829C6.15985 5.85937 12.5563 4.48706 17.177 0.308644ZM18.0646 2.70611C13.5212 6.47263 7.78648 7.96373 2.61641 7.46782C1.09937 20.6044 7.25198 31.1233 16.6018 37.2159C17.1879 37.601 17.673 37.8908 18.0148 38.086C18.4741 37.8043 18.9191 37.5178 19.3527 37.2256C26.0495 32.761 30.4172 26.5979 32.3557 19.4493C32.3703 19.3955 32.3883 19.3437 32.4094 19.294C33.5149 15.227 33.6629 11.5848 33.591 9.23443C33.5665 8.53141 33.5245 7.93593 33.4807 7.47368C28.1746 7.82911 22.4307 5.57018 18.0646 2.70611ZM17.9934 7.89361C21.2705 7.89361 23.9375 10.5599 23.9377 13.837V16.2061C24.9199 16.3307 25.6848 17.1624 25.6848 18.1778V26.2501C25.6845 27.3508 24.7885 28.2461 23.6877 28.2461H12.299C11.1983 28.246 10.3032 27.3507 10.3029 26.2501V18.1778C10.3029 17.1625 11.067 16.3309 12.049 16.2061V13.837C12.0492 10.5599 14.7158 7.89375 17.9934 7.89361ZM12.6965 25.8526H23.2912V18.5743H12.6965V25.8526ZM18.9934 20.0284C19.4608 19.5612 20.2183 19.5611 20.6857 20.0284C21.1532 20.4958 21.153 21.2532 20.6857 21.7208L18.008 24.3985C17.775 24.6321 17.4684 24.749 17.1623 24.7491C16.8632 24.7491 16.5632 24.6378 16.3313 24.4141L15.0402 23.168C14.5645 22.7087 14.5512 21.9513 15.01 21.4756C15.4693 21.0002 16.2279 20.9879 16.7023 21.4454L17.1477 21.8751L18.9934 20.0284ZM17.9934 10.2872C16.0359 10.2873 14.4427 11.8795 14.4426 13.837V16.1807H21.5441V13.837C21.544 11.8794 19.951 10.2872 17.9934 10.2872Z" fill="#696969"/>
</svg>
