<svg width="34" height="36" viewBox="0 0 34 36" fill="none" xmlns="http://www.w3.org/2000/svg">
<path d="M24.88 14.8418V5.47455L22.9652 5.36902C20.6286 5.24028 18.3578 4.56015 16.3447 3.38616L12.9495 1.40625L9.55426 3.38623C7.54109 4.56022 5.27031 5.24035 2.93378 5.36909L1.01898 5.47462V17.5273C1.01898 23.1492 4.35576 27.0088 9.55517 29.3402L12.9495 30.8621L16.2725 29.3722" stroke="#696969" stroke-width="2" stroke-miterlimit="10" stroke-linecap="round" stroke-linejoin="round"/>
<path d="M32.4996 29.3051C32.8113 28.45 32.9815 27.5107 32.981 26.5017C32.9798 24.1548 30.483 19.4621 30.483 19.4621C30.483 19.4621 29.4843 22.8863 27.8325 23.0151C29.0718 15.8365 21.3921 12.8596 21.3921 12.8596C21.1763 20.4171 15.9779 19.9003 15.7479 25.8748C15.5645 30.6397 19.1957 34.4062 24.0113 34.5868C25.1889 34.6309 26.327 34.4679 27.3746 34.1236" stroke="#696969" stroke-width="2" stroke-miterlimit="10" stroke-linecap="round" stroke-linejoin="round"/>
</svg>
