<svg width="36" height="36" viewBox="0 0 36 36" fill="none" xmlns="http://www.w3.org/2000/svg">
<path d="M17.3678 34.1053H13.6989C13.236 34.1053 12.8407 33.7704 12.7645 33.3139L12.2523 30.2449C12.2116 30.0018 12.0518 29.8002 11.8248 29.7058C11.5778 29.6022 11.3203 29.6318 11.1189 29.7767L8.59138 31.5851C8.21422 31.8553 7.69737 31.8121 7.37017 31.4846L2.62069 26.7348C2.29287 26.4073 2.25031 25.8904 2.52015 25.5136L4.32854 22.9866C4.47348 22.7843 4.50278 22.5271 4.40687 22.2977C4.30479 22.0534 4.10341 21.8937 3.86071 21.853L0.791324 21.3405C0.334604 21.264 0 20.8692 0 20.406V13.6992C0 13.236 0.334604 12.8413 0.791324 12.7648L3.86041 12.2523C4.10342 12.2116 4.30479 12.0518 4.39977 11.8242C4.50278 11.5781 4.47348 11.3209 4.32885 11.1186L2.52015 8.59169C2.25031 8.21484 2.29287 7.69799 2.62069 7.37048L7.37017 2.62069C7.69737 2.29379 8.21484 2.25062 8.59138 2.52015L11.1186 4.32854C11.3206 4.47287 11.5784 4.50309 11.8082 4.40625C12.0518 4.3051 12.2116 4.10342 12.2523 3.86041L12.7645 0.791324C12.8407 0.334907 13.236 0 13.6989 0H20.4064C20.8692 0 21.2646 0.334907 21.3408 0.791324L21.8539 3.86657C21.894 4.10526 22.0513 4.30386 22.2749 4.39761C22.5296 4.50185 22.7831 4.47409 22.982 4.33223L25.5139 2.52014C25.8904 2.25 26.4079 2.29379 26.7351 2.62068L31.4846 7.37047C31.8124 7.69798 31.8549 8.21484 31.5851 8.59169L29.7727 11.1242C29.6302 11.3228 29.6025 11.5781 29.6984 11.8076C29.8002 12.0518 29.9997 12.2109 30.239 12.251L33.3139 12.7648C33.7706 12.8413 34.1053 13.236 34.1053 13.6992V20.406C34.1053 20.8692 33.77 21.2646 33.313 21.3405L32.056 21.5489C31.5407 21.6359 31.0522 21.2856 30.9662 20.7693C30.8807 20.2531 31.2298 19.7652 31.7458 19.6801L32.2105 19.603V14.5016L29.9269 14.1199C29.0403 13.9718 28.3036 13.3865 27.9566 12.5539C27.5992 11.6984 27.7047 10.7578 28.2323 10.0214L29.5769 8.14206L25.9635 4.52836L24.0842 5.87355C23.3468 6.40027 22.4084 6.50636 21.5733 6.15727C20.7163 5.80015 20.1331 5.06434 19.9851 4.17865L19.6039 1.89473H14.5013L14.1211 4.17249C13.9721 5.0625 13.3865 5.80139 12.5545 6.14864C11.6978 6.50452 10.755 6.39844 10.0155 5.86924L8.14206 4.52837L4.52836 8.14206L5.86924 10.0158C6.39874 10.7553 6.50606 11.6978 6.15542 12.5378C5.80046 13.3871 5.06187 13.9731 4.17217 14.1211L1.89472 14.5016V19.6036L4.17248 19.9842C5.06187 20.1322 5.80046 20.7181 6.14832 21.5508C6.50606 22.4075 6.39873 23.3499 5.86893 24.09L4.52836 25.9632L8.14206 29.5769L10.0158 28.236C10.7553 27.7062 11.6972 27.5995 12.5378 27.9498C13.3865 28.3039 13.9721 29.0428 14.1211 29.9328L14.5013 32.2105H17.3678C17.8911 32.2105 18.3152 32.6349 18.3152 33.1579C18.3152 33.6809 17.8911 34.1053 17.3678 34.1053Z" fill="#696969"/>
<path d="M15.4749 27.0221C15.421 27.0221 15.3664 27.0178 15.3118 27.0079C10.4652 26.1666 6.94739 21.98 6.94739 17.0525C6.94739 11.4806 11.4807 6.94727 17.0526 6.94727C22.6246 6.94727 27.1579 11.4806 27.1579 17.0525C27.1579 17.7803 27.0783 18.5118 26.9211 19.2267C26.8085 19.7367 26.3021 20.063 25.7927 19.9483C25.2817 19.836 24.9582 19.3309 25.0707 18.8196C25.1984 18.2386 25.2632 17.6434 25.2632 17.0525C25.2632 12.5254 21.5801 8.842 17.0526 8.842C12.5252 8.842 8.84212 12.5254 8.84212 17.0525C8.84212 21.056 11.6993 24.4582 15.6356 25.1416C16.1512 25.231 16.4966 25.7213 16.4072 26.2369C16.327 26.6977 15.927 27.0221 15.4749 27.0221Z" fill="#696969"/>
<path d="M20.6842 22.9704H14.2105C12.6433 22.9704 11.3684 21.6955 11.3684 20.1283V16.7366C11.3684 15.1694 12.6433 13.8945 14.2105 13.8945H19.8947C21.462 13.8945 22.7368 15.1694 22.7368 16.7366C22.7368 17.2597 22.3128 17.7062 21.7895 17.7062C21.2661 17.7062 20.8421 17.3041 20.8421 16.781C20.8421 16.2142 20.4171 15.7893 19.8947 15.7893H14.2105C13.6881 15.7893 13.2631 16.2142 13.2631 16.7366V20.1283C13.2631 20.6507 13.6881 21.0757 14.2105 21.0757H20.6842C21.2075 21.0757 21.6316 21.5 21.6316 22.023C21.6316 22.5461 21.2075 22.9704 20.6842 22.9704Z" fill="#696969"/>
<path d="M19.8948 15.7894C19.3714 15.7894 18.9474 15.365 18.9474 14.842V13.0916C18.9474 12.6401 18.6418 12.3212 18.4595 12.1714C18.0962 11.8728 17.5837 11.7014 17.0527 11.7014C16.0257 11.7014 15.1579 12.3379 15.1579 13.0916V14.842C15.1579 15.365 14.7339 15.7894 14.2106 15.7894C13.6872 15.7894 13.2632 15.365 13.2632 14.842V13.0916C13.2632 11.2801 14.963 9.80664 17.0527 9.80664C18.0299 9.80664 18.957 10.1268 19.6635 10.7084C20.4122 11.3245 20.8421 12.1929 20.8421 13.0916V14.842C20.8421 15.365 20.4181 15.7894 19.8948 15.7894Z" fill="#696969"/>
<path d="M27.0034 36C22.0427 36 18.0068 31.9639 18.0068 27.0031C18.0068 22.0424 22.0427 18.0068 27.0034 18.0068C31.9641 18.0068 36 22.0424 36 27.0031C36 31.9639 31.9641 36 27.0034 36ZM27.0034 19.9016C23.0875 19.9016 19.9015 23.0872 19.9015 27.0031C19.9015 30.919 23.0875 34.1053 27.0034 34.1053C30.9193 34.1053 34.1053 30.919 34.1053 27.0031C34.1053 23.0872 30.9193 19.9016 27.0034 19.9016Z" fill="#696969"/>
<path d="M32.9611 33.0488C32.6401 33.0488 32.3271 32.886 32.1491 32.5912C31.051 30.7711 29.1282 29.6843 27.0061 29.6843C24.9039 29.6843 22.9912 30.7538 21.89 32.5455C21.6155 32.9914 21.0324 33.1302 20.5867 32.857C20.1411 32.5825 20.0017 31.999 20.2759 31.5537C21.7247 29.1964 24.2405 27.7896 27.0061 27.7896C29.7563 27.7896 32.3486 29.2544 33.7712 31.6117C34.0417 32.0601 33.8977 32.6424 33.4496 32.9125C33.2966 33.005 33.1276 33.0488 32.9611 33.0488Z" fill="#696969"/>
<path d="M27.0033 29.6842C24.7398 29.6842 22.8981 27.8425 22.8981 25.5789C22.8981 23.3153 24.7398 21.4736 27.0033 21.4736C29.2669 21.4736 31.1086 23.3153 31.1086 25.5789C31.1086 27.8425 29.2669 29.6842 27.0033 29.6842ZM27.0033 23.3684C25.7846 23.3684 24.7928 24.3601 24.7928 25.5789C24.7928 26.7976 25.7846 27.7894 27.0033 27.7894C28.2221 27.7894 29.2139 26.7976 29.2139 25.5789C29.2139 24.3601 28.2221 23.3684 27.0033 23.3684Z" fill="#696969"/>
</svg>
