<svg width="36" height="36" viewBox="0 0 36 36" fill="none" xmlns="http://www.w3.org/2000/svg">
<g clip-path="url(#clip0_3980_4962)">
<path d="M34.0368 13.9452C35.0239 14.1303 35.7391 14.9922 35.7391 15.9964V19.4818C35.7391 20.4861 35.0239 21.348 34.0368 21.533L31.3608 22.0348C30.7943 22.141 30.2491 21.7679 30.1428 21.2015C30.0366 20.6351 30.4097 20.0898 30.9762 19.9836L33.6522 19.4818V15.9964L30.9762 15.4947C30.5745 15.4194 30.2537 15.1165 30.1556 14.7198C29.8549 13.5049 29.3734 12.347 28.7296 11.28C28.5185 10.9301 28.531 10.489 28.7619 10.1517L30.3 7.90364L27.8355 5.43911L25.5874 6.97726C25.2501 7.20806 24.8091 7.22068 24.4591 7.00952C23.3921 6.36573 22.2343 5.88429 21.0193 5.58359C20.6226 5.4854 20.3197 5.16466 20.2444 4.76297L19.7427 2.08696H16.2573L15.7556 4.76297C15.6803 5.16466 15.3774 5.4854 14.9807 5.58359C13.7657 5.88429 12.6078 6.36573 11.5409 7.00952C11.1909 7.22068 10.7499 7.20806 10.4126 6.97726L8.16449 5.43911L5.69996 7.90364L7.23814 10.1517C7.46894 10.489 7.48153 10.9301 7.27036 11.28C6.62658 12.347 6.14513 13.5049 5.84443 14.7198C5.74625 15.1165 5.42552 15.4194 5.02384 15.4947L2.34782 15.9964V19.4818L5.02384 19.9836C5.42552 20.0589 5.74625 20.3618 5.84443 20.7585C6.14513 21.9734 6.62658 23.1313 7.27036 24.1982C7.48153 24.5482 7.46894 24.9892 7.23814 25.3265L5.69996 27.5746L8.16449 30.0392L10.4126 28.501C10.7499 28.2702 11.1909 28.2576 11.5409 28.4687C12.6078 29.1125 13.7657 29.594 14.9807 29.8947C15.3774 29.9929 15.6803 30.3136 15.7556 30.7153L16.2573 33.3913H19.7427L20.2444 30.7153C20.3506 30.1489 20.8959 29.7758 21.4623 29.882C22.0288 29.9882 22.4019 30.5335 22.2956 31.0999L21.7939 33.7759C21.6088 34.763 20.747 35.4783 19.7427 35.4783H16.2573C15.253 35.4783 14.3912 34.763 14.2061 33.7759L13.8248 31.7422C12.8613 31.4553 11.9325 31.0697 11.0515 30.5925L9.34296 31.7615C8.51412 32.3286 7.39892 32.225 6.68879 31.5149L4.22429 29.0503C3.51416 28.3402 3.41049 27.225 3.97759 26.3961L5.14663 24.6876C4.66944 23.8066 4.28383 22.8778 3.99695 21.9143L1.9632 21.533C0.97613 21.348 0.260864 20.4861 0.260864 19.4818V15.9964C0.260864 14.9922 0.97613 14.1303 1.9632 13.9452L3.99695 13.5639C4.28383 12.6004 4.66944 11.6716 5.14663 10.7907L3.97759 9.08211C3.41049 8.25328 3.51416 7.13807 4.22429 6.42794L6.68879 3.96341C7.39892 3.25328 8.51412 3.14962 9.34296 3.71672L11.0515 4.88575C11.9325 4.40856 12.8613 4.02295 13.8248 3.73607L14.2061 1.70236C14.3912 0.715281 15.253 0 16.2573 0H19.7427C20.747 0 21.6088 0.715281 21.7939 1.70236L22.1752 3.73607C23.1387 4.02295 24.0675 4.40856 24.9484 4.88575L26.657 3.71672C27.4859 3.14962 28.6011 3.25328 29.3112 3.96341L31.7757 6.42794C32.4858 7.13807 32.5895 8.25328 32.0224 9.08211L30.8534 10.7907C31.3305 11.6716 31.7162 12.6004 32.003 13.5639L34.0368 13.9452ZM25.4956 24.5055C25.9401 24.1387 26.5977 24.2017 26.9645 24.6462C27.3313 25.0907 27.2683 25.7484 26.8238 26.1152C25.8676 26.9042 25.3043 28.0732 25.3043 29.3365C25.3043 31.6417 27.1731 33.5104 29.4783 33.5104C31.7834 33.5104 33.6522 31.6417 33.6522 29.3365C33.6522 28.073 33.0887 26.9039 32.1322 26.1148C31.6877 25.7481 31.6246 25.0904 31.9914 24.6458C32.3581 24.2013 33.0158 24.1382 33.4603 24.505C34.8923 25.6863 35.7391 27.4433 35.7391 29.3365C35.7391 32.7943 32.936 35.5973 29.4783 35.5973C26.0205 35.5973 23.2174 32.7943 23.2174 29.3365C23.2174 27.4436 24.0639 25.6869 25.4956 24.5055ZM28.4348 24C28.4348 23.4237 28.902 22.9565 29.4783 22.9565C30.0546 22.9565 30.5217 23.4237 30.5217 24V28.1739C30.5217 28.7502 30.0546 29.2174 29.4783 29.2174C28.902 29.2174 28.4348 28.7502 28.4348 28.1739V24ZM18 25.0435C13.9659 25.0435 10.6956 21.7732 10.6956 17.7391C10.6956 13.7051 13.9659 10.4348 18 10.4348C22.0341 10.4348 25.3043 13.7051 25.3043 17.7391C25.3043 21.7732 22.0341 25.0435 18 25.0435ZM18 22.9565C20.8815 22.9565 23.2174 20.6206 23.2174 17.7391C23.2174 14.8576 20.8815 12.5217 18 12.5217C15.1185 12.5217 12.7826 14.8576 12.7826 17.7391C12.7826 20.6206 15.1185 22.9565 18 22.9565Z" fill="#696969"/>
</g>
<defs>
<clipPath id="clip0_3980_4962">
<rect width="36" height="36" fill="white"/>
</clipPath>
</defs>
</svg>
