<svg width="36" height="36" viewBox="0 0 36 36" fill="none" xmlns="http://www.w3.org/2000/svg">
<g clip-path="url(#clip0_3057_22005)">
<path d="M0.0078125 35.9954H10.8036V31.1973H0.0078125V35.9954ZM1.20734 32.3968H9.60405V34.7959H1.20734V32.3968Z" fill="url(#paint0_linear_3057_22005)"/>
<path d="M12.603 35.9954H23.3988V31.1973H12.603V35.9954ZM13.8026 32.3968H22.1993V34.7959H13.8026V32.3968Z" fill="url(#paint1_linear_3057_22005)"/>
<path d="M25.1978 35.9954H35.9935V31.1973H25.1978V35.9954ZM26.3973 32.3968H34.794V34.7959H26.3973V32.3968Z" fill="url(#paint2_linear_3057_22005)"/>
<path d="M3.00666 32.9961H1.80713V34.1956H3.00666V32.9961Z" fill="url(#paint3_linear_3057_22005)"/>
<path d="M28.1966 32.9961H26.9971V34.1956H28.1966V32.9961Z" fill="url(#paint4_linear_3057_22005)"/>
<path d="M15.6019 32.9961H14.4023V34.1956H15.6019V32.9961Z" fill="url(#paint5_linear_3057_22005)"/>
<path d="M31.1956 22.2004H18.6005V19.2016H30.5958C33.5769 19.2051 35.9965 16.7912 36 13.81C36.0027 11.4865 34.5182 9.42192 32.3147 8.68474C31.8089 5.74949 29.0193 3.78001 26.0841 4.28591C25.6229 4.36538 25.1739 4.5046 24.7487 4.69997C23.3655 0.97348 19.2233 -0.926051 15.4968 0.457158C13.5323 1.18632 11.9831 2.73552 11.254 4.69997C8.54769 3.45598 5.34532 4.64149 4.10133 7.34778C3.90566 7.77354 3.76621 8.22299 3.68674 8.68481C0.8596 9.63064 -0.665527 12.6893 0.280377 15.5164C1.01756 17.72 3.08218 19.2045 5.40567 19.2017H17.401V22.2005H4.20614V25.7991H0.00778381V30.5972H10.8036V25.7991H5.40567V23.4H17.401V25.7991H12.6029V30.5972H23.3986V25.7991H18.6005V23.4H29.996V25.7991H25.1979V30.5972H35.9937V25.7991H31.1956V22.2004ZM9.60403 26.9986V29.3976H1.20731V26.9986H9.60403ZM22.1991 26.9986V29.3976H13.8024V26.9986H22.1991ZM5.40567 18.0021C3.0881 17.9995 1.20994 16.1213 1.20731 13.8037C1.20619 11.8801 2.51255 10.2018 4.37767 9.73073C4.62365 9.66843 4.80381 9.45798 4.8275 9.20533C5.02272 7.047 6.83708 5.39697 9.00426 5.40702C9.81192 5.40507 10.6024 5.6398 11.278 6.08236C11.5548 6.26423 11.9267 6.18731 12.1086 5.91045C12.1455 5.85429 12.1727 5.79237 12.189 5.72729C13.0074 2.51758 16.2728 0.578985 19.4825 1.39736C21.6094 1.93963 23.2702 3.60045 23.8125 5.72729C23.8932 6.04854 24.2191 6.24354 24.5404 6.1628C24.6055 6.14645 24.6674 6.11924 24.7235 6.08236C25.3991 5.6398 26.1896 5.40507 26.9972 5.40702C29.1644 5.39697 30.9788 7.047 31.174 9.20533C31.1977 9.45798 31.3778 9.66843 31.6238 9.73073C33.8733 10.2931 35.241 12.5725 34.6786 14.8219C34.2105 16.6944 32.526 18.0066 30.5958 18.0021H5.40567ZM34.7942 26.9986V29.3976H26.3974V26.9986H34.7942Z" fill="url(#paint6_linear_3057_22005)"/>
<path d="M3.00666 27.5986H1.80713V28.7982H3.00666V27.5986Z" fill="url(#paint7_linear_3057_22005)"/>
<path d="M15.6019 27.5986H14.4023V28.7982H15.6019V27.5986Z" fill="url(#paint8_linear_3057_22005)"/>
<path d="M28.1966 27.5986H26.9971V28.7982H28.1966V27.5986Z" fill="url(#paint9_linear_3057_22005)"/>
<path d="M18.6004 16.2031H17.4009V17.4027H18.6004V16.2031Z" fill="url(#paint10_linear_3057_22005)"/>
<path d="M20.9993 16.2031H19.7998V17.4027H20.9993V16.2031Z" fill="url(#paint11_linear_3057_22005)"/>
<path d="M23.3987 16.2031H22.1992V17.4027H23.3987V16.2031Z" fill="url(#paint12_linear_3057_22005)"/>
<path d="M25.7977 16.2031H24.5981V17.4027H25.7977V16.2031Z" fill="url(#paint13_linear_3057_22005)"/>
<path d="M28.1966 16.2031H26.9971V17.4027H28.1966V16.2031Z" fill="url(#paint14_linear_3057_22005)"/>
<path d="M30.596 16.2031H29.3965V17.4027H30.596V16.2031Z" fill="url(#paint15_linear_3057_22005)"/>
<path d="M16.2015 16.2031H15.002V17.4027H16.2015V16.2031Z" fill="url(#paint16_linear_3057_22005)"/>
<path d="M13.8026 16.2031H12.603V17.4027H13.8026V16.2031Z" fill="url(#paint17_linear_3057_22005)"/>
<path d="M11.4031 16.2031H10.2036V17.4027H11.4031V16.2031Z" fill="url(#paint18_linear_3057_22005)"/>
<path d="M9.00422 16.2031H7.80469V17.4027H9.00422V16.2031Z" fill="url(#paint19_linear_3057_22005)"/>
<path d="M6.60529 16.2031H5.40576V17.4027H6.60529V16.2031Z" fill="url(#paint20_linear_3057_22005)"/>
</g>
<defs>
<linearGradient id="paint0_linear_3057_22005" x1="0.00781259" y1="30.6072" x2="2.69638" y2="38.1987" gradientUnits="userSpaceOnUse">
<stop offset="0.298406" stop-color="#2EC589"/>
<stop offset="1" stop-color="#158C36"/>
</linearGradient>
<linearGradient id="paint1_linear_3057_22005" x1="12.603" y1="30.6072" x2="15.2916" y2="38.1987" gradientUnits="userSpaceOnUse">
<stop offset="0.298406" stop-color="#2EC589"/>
<stop offset="1" stop-color="#158C36"/>
</linearGradient>
<linearGradient id="paint2_linear_3057_22005" x1="25.1978" y1="30.6072" x2="27.8863" y2="38.1987" gradientUnits="userSpaceOnUse">
<stop offset="0.298406" stop-color="#2EC589"/>
<stop offset="1" stop-color="#158C36"/>
</linearGradient>
<linearGradient id="paint3_linear_3057_22005" x1="1.80713" y1="32.8486" x2="2.84813" y2="34.155" gradientUnits="userSpaceOnUse">
<stop offset="0.298406" stop-color="#2EC589"/>
<stop offset="1" stop-color="#158C36"/>
</linearGradient>
<linearGradient id="paint4_linear_3057_22005" x1="26.9971" y1="32.8486" x2="28.0381" y2="34.155" gradientUnits="userSpaceOnUse">
<stop offset="0.298406" stop-color="#2EC589"/>
<stop offset="1" stop-color="#158C36"/>
</linearGradient>
<linearGradient id="paint5_linear_3057_22005" x1="14.4023" y1="32.8486" x2="15.4433" y2="34.155" gradientUnits="userSpaceOnUse">
<stop offset="0.298406" stop-color="#2EC589"/>
<stop offset="1" stop-color="#158C36"/>
</linearGradient>
<linearGradient id="paint6_linear_3057_22005" x1="2.99947e-07" y1="-3.75654" x2="25.2898" y2="33.5911" gradientUnits="userSpaceOnUse">
<stop offset="0.298406" stop-color="#2EC589"/>
<stop offset="1" stop-color="#158C36"/>
</linearGradient>
<linearGradient id="paint7_linear_3057_22005" x1="1.80713" y1="27.4511" x2="2.84813" y2="28.7575" gradientUnits="userSpaceOnUse">
<stop offset="0.298406" stop-color="#2EC589"/>
<stop offset="1" stop-color="#158C36"/>
</linearGradient>
<linearGradient id="paint8_linear_3057_22005" x1="14.4023" y1="27.4511" x2="15.4433" y2="28.7575" gradientUnits="userSpaceOnUse">
<stop offset="0.298406" stop-color="#2EC589"/>
<stop offset="1" stop-color="#158C36"/>
</linearGradient>
<linearGradient id="paint9_linear_3057_22005" x1="26.9971" y1="27.4511" x2="28.0381" y2="28.7575" gradientUnits="userSpaceOnUse">
<stop offset="0.298406" stop-color="#2EC589"/>
<stop offset="1" stop-color="#158C36"/>
</linearGradient>
<linearGradient id="paint10_linear_3057_22005" x1="17.4009" y1="16.0556" x2="18.4419" y2="17.362" gradientUnits="userSpaceOnUse">
<stop offset="0.298406" stop-color="#2EC589"/>
<stop offset="1" stop-color="#158C36"/>
</linearGradient>
<linearGradient id="paint11_linear_3057_22005" x1="19.7998" y1="16.0556" x2="20.8408" y2="17.362" gradientUnits="userSpaceOnUse">
<stop offset="0.298406" stop-color="#2EC589"/>
<stop offset="1" stop-color="#158C36"/>
</linearGradient>
<linearGradient id="paint12_linear_3057_22005" x1="22.1992" y1="16.0556" x2="23.2402" y2="17.362" gradientUnits="userSpaceOnUse">
<stop offset="0.298406" stop-color="#2EC589"/>
<stop offset="1" stop-color="#158C36"/>
</linearGradient>
<linearGradient id="paint13_linear_3057_22005" x1="24.5981" y1="16.0556" x2="25.6391" y2="17.362" gradientUnits="userSpaceOnUse">
<stop offset="0.298406" stop-color="#2EC589"/>
<stop offset="1" stop-color="#158C36"/>
</linearGradient>
<linearGradient id="paint14_linear_3057_22005" x1="26.9971" y1="16.0556" x2="28.0381" y2="17.362" gradientUnits="userSpaceOnUse">
<stop offset="0.298406" stop-color="#2EC589"/>
<stop offset="1" stop-color="#158C36"/>
</linearGradient>
<linearGradient id="paint15_linear_3057_22005" x1="29.3965" y1="16.0556" x2="30.4375" y2="17.362" gradientUnits="userSpaceOnUse">
<stop offset="0.298406" stop-color="#2EC589"/>
<stop offset="1" stop-color="#158C36"/>
</linearGradient>
<linearGradient id="paint16_linear_3057_22005" x1="15.002" y1="16.0556" x2="16.043" y2="17.362" gradientUnits="userSpaceOnUse">
<stop offset="0.298406" stop-color="#2EC589"/>
<stop offset="1" stop-color="#158C36"/>
</linearGradient>
<linearGradient id="paint17_linear_3057_22005" x1="12.603" y1="16.0556" x2="13.644" y2="17.362" gradientUnits="userSpaceOnUse">
<stop offset="0.298406" stop-color="#2EC589"/>
<stop offset="1" stop-color="#158C36"/>
</linearGradient>
<linearGradient id="paint18_linear_3057_22005" x1="10.2036" y1="16.0556" x2="11.2446" y2="17.362" gradientUnits="userSpaceOnUse">
<stop offset="0.298406" stop-color="#2EC589"/>
<stop offset="1" stop-color="#158C36"/>
</linearGradient>
<linearGradient id="paint19_linear_3057_22005" x1="7.80469" y1="16.0556" x2="8.84569" y2="17.362" gradientUnits="userSpaceOnUse">
<stop offset="0.298406" stop-color="#2EC589"/>
<stop offset="1" stop-color="#158C36"/>
</linearGradient>
<linearGradient id="paint20_linear_3057_22005" x1="5.40576" y1="16.0556" x2="6.44676" y2="17.362" gradientUnits="userSpaceOnUse">
<stop offset="0.298406" stop-color="#2EC589"/>
<stop offset="1" stop-color="#158C36"/>
</linearGradient>
<clipPath id="clip0_3057_22005">
<rect width="36" height="36" fill="white"/>
</clipPath>
</defs>
</svg>
