<svg width="621" height="543" viewBox="0 0 621 543" fill="none" xmlns="http://www.w3.org/2000/svg">
<g id="Enable Push Notifications">
<g id="Group 26816">
<path id="Polygon 1" d="M299.028 185.822C305.956 173.822 323.276 173.822 330.204 185.822L421.47 343.898C428.398 355.898 419.738 370.898 405.881 370.898H223.351C209.494 370.898 200.834 355.898 207.762 343.898L299.028 185.822Z" fill="url(#paint0_linear_73_1906)"/>
<path id="Vector" d="M299.845 338.914C299.845 337.199 300.182 335.502 300.837 333.917C301.491 332.333 302.451 330.894 303.661 329.681C304.871 328.469 306.308 327.507 307.889 326.851C309.47 326.195 311.164 325.857 312.875 325.857C314.586 325.857 316.281 326.195 317.862 326.851C319.443 327.507 320.879 328.469 322.089 329.681C323.299 330.894 324.259 332.333 324.914 333.917C325.569 335.502 325.906 337.199 325.906 338.914C325.906 342.377 324.533 345.698 322.089 348.147C319.646 350.595 316.331 351.971 312.875 351.971C309.419 351.971 306.105 350.595 303.661 348.147C301.218 345.698 299.845 342.377 299.845 338.914ZM301.122 260.507C300.948 258.86 301.122 257.195 301.633 255.619C302.143 254.044 302.978 252.593 304.084 251.362C305.19 250.131 306.541 249.146 308.052 248.473C309.562 247.799 311.196 247.45 312.849 247.45C314.502 247.45 316.137 247.799 317.647 248.473C319.157 249.146 320.509 250.131 321.615 251.362C322.72 252.593 323.556 254.044 324.066 255.619C324.576 257.195 324.75 258.86 324.577 260.507L320.016 306.298C319.831 308.073 318.996 309.717 317.672 310.911C316.349 312.106 314.631 312.767 312.849 312.767C311.068 312.767 309.35 312.106 308.026 310.911C306.703 309.717 305.868 308.073 305.682 306.298L301.122 260.507Z" fill="white"/>
</g>
<path id="Stroke 5" fill-rule="evenodd" clip-rule="evenodd" d="M560.644 297.18C560.644 432.113 451.257 541.5 316.325 541.5C181.392 541.5 72.007 432.113 72.007 297.18C72.007 162.247 181.392 52.8602 316.325 52.8602C451.257 52.8602 560.644 162.247 560.644 297.18Z" stroke="#E9EAEC" stroke-dasharray="5.02 5.02"/>
<path id="Stroke 7" fill-rule="evenodd" clip-rule="evenodd" d="M497.758 297.18C497.758 397.382 416.527 478.613 316.325 478.613C216.121 478.613 134.894 397.382 134.894 297.18C134.894 196.978 216.121 115.747 316.325 115.747C416.527 115.747 497.758 196.978 497.758 297.18Z" stroke="#E9EAEC" stroke-dasharray="5.05 5.05"/>
<path id="Fill 9" fill-rule="evenodd" clip-rule="evenodd" d="M488.209 129.962C491.73 129.962 494.579 132.808 494.579 136.332C494.579 139.856 491.73 142.702 488.209 142.702C484.685 142.702 481.837 139.856 481.837 136.332C481.837 132.808 484.685 129.962 488.209 129.962ZM507.318 129.962C510.842 129.962 513.688 132.808 513.688 136.332C513.688 139.856 510.842 142.702 507.318 142.702C503.795 142.702 500.949 139.856 500.949 136.332C500.949 132.808 503.795 129.962 507.318 129.962ZM526.428 129.962C529.952 129.962 532.798 132.808 532.798 136.332C532.798 139.856 529.952 142.702 526.428 142.702C522.904 142.702 520.058 139.856 520.058 136.332C520.058 132.808 522.904 129.962 526.428 129.962ZM481.081 171.369H511.48C514.348 171.369 514.348 171.39 515.72 172.405C517.095 173.419 532.782 184.109 532.782 184.109V171.369H533.516C541.915 171.369 548.704 165.039 548.704 157.155V115.57C548.704 107.686 541.899 101.295 533.516 101.295H481.081C472.701 101.295 465.893 107.686 465.893 115.57V157.155C465.893 165.039 472.701 171.369 481.081 171.369Z" fill="#B2D3FF"/>
<path id="Fill 11" fill-rule="evenodd" clip-rule="evenodd" d="M113.142 203.362C113.142 205.667 111.282 207.526 108.976 207.526C106.673 207.526 104.814 205.667 104.814 203.362C104.814 201.058 106.673 199.196 108.976 199.196C111.282 199.196 113.142 201.058 113.142 203.362ZM100.647 203.362C100.647 205.667 98.7852 207.526 96.483 207.526C94.1785 207.526 92.3165 205.667 92.3165 203.362C92.3165 201.058 94.1785 199.196 96.483 199.196C98.7852 199.196 100.647 201.058 100.647 203.362ZM88.1523 203.362C88.1523 205.667 86.2903 207.526 83.9858 207.526C81.6836 207.526 79.8216 205.667 79.8216 203.362C79.8216 201.058 81.6836 199.196 83.9858 199.196C86.2903 199.196 88.1523 201.058 88.1523 203.362ZM123.57 216.978V189.787C123.57 184.632 119.116 180.453 113.639 180.453H79.353C73.8729 180.453 69.4215 184.632 69.4215 189.787V216.978C69.4215 222.131 73.8611 226.269 79.353 226.269H79.8355V234.602C79.8355 234.602 90.0918 227.611 90.9887 226.947C91.8879 226.283 91.8879 226.269 93.7617 226.269H113.639C119.116 226.269 123.57 222.131 123.57 216.978Z" fill="#006CFF"/>
<path id="Stroke 25" d="M25.8514 330.075L21.3153 329.936" stroke="#EAF3FF" stroke-linecap="round"/>
<path id="Stroke 27" d="M22.5972 321.474L19.344 324.513" stroke="#EAF3FF" stroke-linecap="round"/>
<path id="Stroke 29" d="M14.1183 317.546L14.05 321.981" stroke="#EAF3FF" stroke-linecap="round"/>
<path id="Stroke 31" d="M5.37927 320.591L8.53832 323.825" stroke="#EAF3FF" stroke-linecap="round"/>
<path id="Stroke 33" d="M1.5 328.827L6.03377 328.966" stroke="#EAF3FF" stroke-linecap="round"/>
<path id="Stroke 35" d="M4.75305 337.428L8.00861 334.389" stroke="#EAF3FF" stroke-linecap="round"/>
<path id="Stroke 37" d="M13.233 341.356L13.3013 336.921" stroke="#EAF3FF" stroke-linecap="round"/>
<path id="Stroke 39" d="M21.972 338.311L18.813 335.076" stroke="#EAF3FF" stroke-linecap="round"/>
<path id="Stroke 41" d="M617.414 266.846L615.42 269.005" stroke="#EAF3FF" stroke-linecap="round"/>
<path id="Stroke 43" d="M608.053 268.722L609.558 270.109" stroke="#EAF3FF" stroke-linecap="round"/>
<path id="Stroke 45" d="M606.536 278.29L608.53 276.131" stroke="#EAF3FF" stroke-linecap="round"/>
<path id="Stroke 47" d="M615.894 276.414L614.392 275.027" stroke="#EAF3FF" stroke-linecap="round"/>
<path id="Stroke 49" d="M434.799 13.1446L429.975 13.0151" stroke="#EAF3FF" stroke-linecap="round"/>
<path id="Stroke 51" d="M422.318 1.5L422.245 5.62182" stroke="#EAF3FF" stroke-linecap="round"/>
<path id="Stroke 53" d="M408.896 11.9848L413.719 12.1119" stroke="#EAF3FF" stroke-linecap="round"/>
<path id="Stroke 55" d="M421.376 23.6295L421.449 19.5077" stroke="#EAF3FF" stroke-linecap="round"/>
<path id="Fill 57" fill-rule="evenodd" clip-rule="evenodd" d="M77.6206 458.188C74.1508 459.226 68.3718 464.325 66.3944 470.37C66.0625 464.753 62.4962 457.694 58.5721 456.677C63.3601 454.984 68.546 448.763 69.9254 443.52C69.6759 449.014 74.664 456.992 77.6206 458.188Z" fill="#EBECEF"/>
<path id="Fill 59" fill-rule="evenodd" clip-rule="evenodd" d="M158.886 35.2224C156.21 35.6955 151.466 38.9911 149.47 43.3225C149.708 39.1112 147.662 33.544 144.828 32.447C148.54 31.5996 152.942 27.4142 154.423 23.629C153.761 27.7014 156.786 34.076 158.886 35.2224Z" fill="#EBECEF"/>
<path id="Fill 61" fill-rule="evenodd" clip-rule="evenodd" d="M513.631 65.8034C510.056 65.7257 507.222 62.7668 507.302 59.1934C507.379 55.6201 510.338 52.7859 513.909 52.8636C517.485 52.9412 520.319 55.9002 520.241 59.4735C520.161 63.0469 517.205 65.8811 513.631 65.8034Z" fill="#D1D9E0"/>
<path id="Fill 63" fill-rule="evenodd" clip-rule="evenodd" d="M513.648 489.879C510.538 489.813 508.071 487.236 508.137 484.126C508.203 481.014 510.781 478.547 513.893 478.613C517.005 478.681 519.472 481.257 519.403 484.368C519.335 487.478 516.76 489.947 513.648 489.879Z" fill="#EBECEF"/>
<path id="Stroke 65" fill-rule="evenodd" clip-rule="evenodd" d="M45.8073 151.692C43.8817 151.65 42.354 150.056 42.3964 148.128C42.4364 146.202 44.0324 144.677 45.9579 144.717C47.8835 144.759 49.4112 146.353 49.3712 148.279C49.3288 150.207 47.7328 151.734 45.8073 151.692Z" stroke="#EAF3FF" stroke-linecap="round"/>
</g>
<defs>
<linearGradient id="paint0_linear_73_1906" x1="173.232" y1="158.822" x2="173.232" y2="441.59" gradientUnits="userSpaceOnUse">
<stop stop-color="#FAD961"/>
<stop offset="1" stop-color="#F76B1C"/>
</linearGradient>
</defs>
</svg>
