<svg width="36" height="36" viewBox="0 0 36 36" fill="none" xmlns="http://www.w3.org/2000/svg">
<g clip-path="url(#clip0_3976_4949)">
<path d="M34.0369 13.9452C35.024 14.1303 35.7392 14.9922 35.7392 15.9964V19.4818C35.7392 20.4861 35.024 21.348 34.0369 21.533L31.3609 22.0348C30.7945 22.141 30.2492 21.7679 30.143 21.2015C30.0368 20.6351 30.4098 20.0898 30.9763 19.9836L33.6523 19.4818V15.9964L30.9763 15.4947C30.5746 15.4194 30.2539 15.1165 30.1557 14.7198C29.855 13.5049 29.3735 12.347 28.7297 11.28C28.5186 10.9301 28.5312 10.489 28.762 10.1517L30.3002 7.90364L27.8356 5.43911L25.5875 6.97726C25.2502 7.20806 24.8092 7.22068 24.4592 7.00952C23.3923 6.36573 22.2344 5.88429 21.0194 5.58359C20.6227 5.4854 20.3199 5.16466 20.2445 4.76297L19.7428 2.08696H16.2574L15.7557 4.76297C15.6804 5.16466 15.3775 5.4854 14.9808 5.58359C13.7659 5.88429 12.608 6.36573 11.541 7.00952C11.1911 7.22068 10.75 7.20806 10.4127 6.97726L8.16461 5.43911L5.70008 7.90364L7.23826 10.1517C7.46907 10.489 7.48165 10.9301 7.27049 11.28C6.6267 12.347 6.14526 13.5049 5.84456 14.7198C5.74637 15.1165 5.42564 15.4194 5.02396 15.4947L2.34794 15.9964V19.4818L5.02396 19.9836C5.42564 20.0589 5.74637 20.3618 5.84456 20.7585C6.14526 21.9734 6.6267 23.1313 7.27049 24.1982C7.48165 24.5482 7.46907 24.9892 7.23826 25.3265L5.70008 27.5746L8.16461 30.0392L10.4127 28.501C10.75 28.2702 11.1911 28.2576 11.541 28.4687C12.608 29.1125 13.7659 29.594 14.9808 29.8947C15.3775 29.9929 15.6804 30.3136 15.7557 30.7153L16.2574 33.3913H19.7428L20.2445 30.7153C20.3507 30.1489 20.896 29.7758 21.4625 29.882C22.0289 29.9882 22.402 30.5335 22.2958 31.0999L21.794 33.7759C21.6089 34.763 20.7471 35.4783 19.7428 35.4783H16.2574C15.2532 35.4783 14.3913 34.763 14.2062 33.7759L13.8249 31.7422C12.8614 31.4553 11.9326 31.0697 11.0517 30.5925L9.34308 31.7615C8.51425 32.3286 7.39904 32.225 6.68891 31.5149L4.22441 29.0503C3.51428 28.3402 3.41061 27.225 3.97771 26.3961L5.14675 24.6876C4.66957 23.8066 4.28395 22.8778 3.99707 21.9143L1.96333 21.533C0.976252 21.348 0.260986 20.4861 0.260986 19.4818V15.9964C0.260986 14.9922 0.976252 14.1303 1.96333 13.9452L3.99707 13.5639C4.28395 12.6004 4.66957 11.6716 5.14675 10.7907L3.97771 9.08211C3.41061 8.25328 3.51428 7.13807 4.22441 6.42794L6.68891 3.96341C7.39904 3.25328 8.51425 3.14962 9.34308 3.71672L11.0517 4.88575C11.9326 4.40856 12.8614 4.02295 13.8249 3.73607L14.2062 1.70236C14.3913 0.715281 15.2532 0 16.2574 0H19.7428C20.7471 0 21.6089 0.715281 21.794 1.70236L22.1753 3.73607C23.1388 4.02295 24.0676 4.40856 24.9486 4.88575L26.6572 3.71672C27.486 3.14962 28.6012 3.25328 29.3113 3.96341L31.7758 6.42794C32.486 7.13807 32.5896 8.25328 32.0225 9.08211L30.8535 10.7907C31.3307 11.6716 31.7163 12.6004 32.0032 13.5639L34.0369 13.9452ZM25.4957 24.5055C25.9402 24.1387 26.5978 24.2017 26.9646 24.6462C27.3314 25.0907 27.2685 25.7484 26.824 26.1152C25.8678 26.9042 25.3045 28.0732 25.3045 29.3365C25.3045 31.6417 27.1732 33.5104 29.4784 33.5104C31.7836 33.5104 33.6523 31.6417 33.6523 29.3365C33.6523 28.073 33.0888 26.9039 32.1324 26.1148C31.6878 25.7481 31.6247 25.0904 31.9915 24.6458C32.3582 24.2013 33.0159 24.1382 33.4604 24.505C34.8925 25.6863 35.7392 27.4433 35.7392 29.3365C35.7392 32.7943 32.9362 35.5973 29.4784 35.5973C26.0206 35.5973 23.2175 32.7943 23.2175 29.3365C23.2175 27.4436 24.064 25.6869 25.4957 24.5055ZM28.4349 24C28.4349 23.4237 28.9021 22.9565 29.4784 22.9565C30.0547 22.9565 30.5219 23.4237 30.5219 24V28.1739C30.5219 28.7502 30.0547 29.2174 29.4784 29.2174C28.9021 29.2174 28.4349 28.7502 28.4349 28.1739V24ZM18.0001 25.0435C13.966 25.0435 10.6958 21.7732 10.6958 17.7391C10.6958 13.7051 13.966 10.4348 18.0001 10.4348C22.0342 10.4348 25.3045 13.7051 25.3045 17.7391C25.3045 21.7732 22.0342 25.0435 18.0001 25.0435ZM18.0001 22.9565C20.8816 22.9565 23.2175 20.6206 23.2175 17.7391C23.2175 14.8576 20.8816 12.5217 18.0001 12.5217C15.1186 12.5217 12.7827 14.8576 12.7827 17.7391C12.7827 20.6206 15.1186 22.9565 18.0001 22.9565Z" fill="url(#paint0_linear_3976_4949)"/>
</g>
<defs>
<linearGradient id="paint0_linear_3976_4949" x1="0.260987" y1="-4.37745" x2="31.1767" y2="34.29" gradientUnits="userSpaceOnUse">
<stop offset="0.298406" stop-color="#2EC589"/>
<stop offset="1" stop-color="#158C36"/>
</linearGradient>
<clipPath id="clip0_3976_4949">
<rect width="36" height="36" fill="white"/>
</clipPath>
</defs>
</svg>
