<svg width="103" height="24" viewBox="0 0 103 24" fill="none" xmlns="http://www.w3.org/2000/svg">
<path d="M4 0.5H99.001C100.934 0.50019 102.501 2.06712 102.501 4V20C102.501 21.9329 100.934 23.4998 99.001 23.5H4C2.067 23.5 0.5 21.933 0.5 20V4C0.5 2.067 2.067 0.5 4 0.5Z" fill="#C0EDDB"/>
<path d="M4 0.5H99.001C100.934 0.50019 102.501 2.06712 102.501 4V20C102.501 21.9329 100.934 23.4998 99.001 23.5H4C2.067 23.5 0.5 21.933 0.5 20V4C0.5 2.067 2.067 0.5 4 0.5Z" stroke="#2EC589"/>
<path d="M16.5001 9H13.5001C13.2236 9 13.0001 9.2235 13.0001 9.5C13.0001 9.7765 13.2236 10 13.5001 10H16.2931L13.0121 13.281C12.7301 13.563 12.2711 13.563 11.9886 13.281L10.7191 12.0115C10.0471 11.3395 8.95363 11.3395 8.28163 12.0115L6.14663 14.1465C5.95112 14.342 5.95112 14.658 6.14663 14.8535C6.24413 14.951 6.37213 15 6.50013 15C6.62813 15 6.75613 14.951 6.85363 14.8535L8.98863 12.7185C9.26213 12.445 9.73863 12.445 10.0121 12.7185L11.2816 13.988C11.9536 14.66 13.0471 14.66 13.7191 13.988L17.0006 10.707V13.5C17.0006 13.7765 17.2241 14 17.5006 14C17.7771 14 18.0006 13.7765 18.0006 13.5V10.5C18.0006 9.673 17.3271 9 16.5001 9Z" fill="#2EC589"/>
<path d="M29.5437 12.244H27.1197V14.728H25.8477V12.244H23.4237V11.092H25.8477V8.608H27.1197V11.092H29.5437V12.244ZM31.3061 8.5V7.252H33.8021V16H32.4221V8.5H31.3061ZM41.2254 8.308L37.8894 16H36.5094L39.8814 8.452H35.4414V7.288H41.2254V8.308ZM42.3963 11.512C42.3963 10.128 42.6283 9.048 43.0923 8.272C43.5643 7.488 44.3723 7.096 45.5163 7.096C46.6603 7.096 47.4643 7.488 47.9283 8.272C48.4003 9.048 48.6363 10.128 48.6363 11.512C48.6363 12.912 48.4003 14.008 47.9283 14.8C47.4643 15.584 46.6603 15.976 45.5163 15.976C44.3723 15.976 43.5643 15.584 43.0923 14.8C42.6283 14.008 42.3963 12.912 42.3963 11.512ZM47.2923 11.512C47.2923 10.864 47.2483 10.316 47.1603 9.868C47.0803 9.42 46.9123 9.056 46.6563 8.776C46.4003 8.488 46.0203 8.344 45.5163 8.344C45.0123 8.344 44.6323 8.488 44.3763 8.776C44.1203 9.056 43.9483 9.42 43.8603 9.868C43.7803 10.316 43.7403 10.864 43.7403 11.512C43.7403 12.184 43.7803 12.748 43.8603 13.204C43.9403 13.66 44.1083 14.028 44.3643 14.308C44.6283 14.588 45.0123 14.728 45.5163 14.728C46.0203 14.728 46.4003 14.588 46.6563 14.308C46.9203 14.028 47.0923 13.66 47.1723 13.204C47.2523 12.748 47.2923 12.184 47.2923 11.512ZM50.0838 11.512C50.0838 10.128 50.3158 9.048 50.7798 8.272C51.2518 7.488 52.0598 7.096 53.2038 7.096C54.3478 7.096 55.1518 7.488 55.6158 8.272C56.0878 9.048 56.3238 10.128 56.3238 11.512C56.3238 12.912 56.0878 14.008 55.6158 14.8C55.1518 15.584 54.3478 15.976 53.2038 15.976C52.0598 15.976 51.2518 15.584 50.7798 14.8C50.3158 14.008 50.0838 12.912 50.0838 11.512ZM54.9798 11.512C54.9798 10.864 54.9358 10.316 54.8478 9.868C54.7678 9.42 54.5998 9.056 54.3438 8.776C54.0878 8.488 53.7078 8.344 53.2038 8.344C52.6998 8.344 52.3198 8.488 52.0638 8.776C51.8078 9.056 51.6358 9.42 51.5478 9.868C51.4678 10.316 51.4278 10.864 51.4278 11.512C51.4278 12.184 51.4678 12.748 51.5478 13.204C51.6278 13.66 51.7958 14.028 52.0518 14.308C52.3158 14.588 52.6998 14.728 53.2038 14.728C53.7078 14.728 54.0878 14.588 54.3438 14.308C54.6078 14.028 54.7798 13.66 54.8598 13.204C54.9398 12.748 54.9798 12.184 54.9798 11.512ZM57.7713 11.512C57.7713 10.128 58.0033 9.048 58.4673 8.272C58.9393 7.488 59.7473 7.096 60.8913 7.096C62.0353 7.096 62.8393 7.488 63.3033 8.272C63.7753 9.048 64.0113 10.128 64.0113 11.512C64.0113 12.912 63.7753 14.008 63.3033 14.8C62.8393 15.584 62.0353 15.976 60.8913 15.976C59.7473 15.976 58.9393 15.584 58.4673 14.8C58.0033 14.008 57.7713 12.912 57.7713 11.512ZM62.6673 11.512C62.6673 10.864 62.6233 10.316 62.5353 9.868C62.4553 9.42 62.2873 9.056 62.0313 8.776C61.7753 8.488 61.3953 8.344 60.8913 8.344C60.3873 8.344 60.0073 8.488 59.7513 8.776C59.4953 9.056 59.3233 9.42 59.2353 9.868C59.1553 10.316 59.1153 10.864 59.1153 11.512C59.1153 12.184 59.1553 12.748 59.2353 13.204C59.3153 13.66 59.4833 14.028 59.7393 14.308C60.0033 14.588 60.3873 14.728 60.8913 14.728C61.3953 14.728 61.7753 14.588 62.0313 14.308C62.2953 14.028 62.4673 13.66 62.5473 13.204C62.6273 12.748 62.6673 12.184 62.6673 11.512ZM68.3 11.812C68.3 10.996 68.488 10.264 68.864 9.616C69.248 8.968 69.764 8.464 70.412 8.104C71.068 7.736 71.784 7.552 72.56 7.552C73.448 7.552 74.236 7.772 74.924 8.212C75.62 8.644 76.124 9.26 76.436 10.06H74.792C74.576 9.62 74.276 9.292 73.892 9.076C73.508 8.86 73.064 8.752 72.56 8.752C72.008 8.752 71.516 8.876 71.084 9.124C70.652 9.372 70.312 9.728 70.064 10.192C69.824 10.656 69.704 11.196 69.704 11.812C69.704 12.428 69.824 12.968 70.064 13.432C70.312 13.896 70.652 14.256 71.084 14.512C71.516 14.76 72.008 14.884 72.56 14.884C73.064 14.884 73.508 14.776 73.892 14.56C74.276 14.344 74.576 14.016 74.792 13.576H76.436C76.124 14.376 75.62 14.992 74.924 15.424C74.236 15.856 73.448 16.072 72.56 16.072C71.776 16.072 71.06 15.892 70.412 15.532C69.764 15.164 69.248 14.656 68.864 14.008C68.488 13.36 68.3 12.628 68.3 11.812ZM80.9052 16.108C80.2812 16.108 79.7172 15.968 79.2132 15.688C78.7092 15.4 78.3132 15 78.0252 14.488C77.7372 13.968 77.5932 13.368 77.5932 12.688C77.5932 12.016 77.7412 11.42 78.0372 10.9C78.3332 10.38 78.7372 9.98 79.2492 9.7C79.7612 9.42 80.3332 9.28 80.9652 9.28C81.5972 9.28 82.1692 9.42 82.6812 9.7C83.1932 9.98 83.5972 10.38 83.8932 10.9C84.1892 11.42 84.3372 12.016 84.3372 12.688C84.3372 13.36 84.1852 13.956 83.8812 14.476C83.5772 14.996 83.1612 15.4 82.6332 15.688C82.1132 15.968 81.5372 16.108 80.9052 16.108ZM80.9052 14.92C81.2572 14.92 81.5852 14.836 81.8892 14.668C82.2012 14.5 82.4532 14.248 82.6452 13.912C82.8372 13.576 82.9332 13.168 82.9332 12.688C82.9332 12.208 82.8412 11.804 82.6572 11.476C82.4732 11.14 82.2292 10.888 81.9252 10.72C81.6212 10.552 81.2932 10.468 80.9412 10.468C80.5892 10.468 80.2612 10.552 79.9572 10.72C79.6612 10.888 79.4252 11.14 79.2492 11.476C79.0732 11.804 78.9852 12.208 78.9852 12.688C78.9852 13.4 79.1652 13.952 79.5252 14.344C79.8932 14.728 80.3532 14.92 80.9052 14.92ZM87.0576 10.348C87.2576 10.012 87.5216 9.752 87.8496 9.568C88.1856 9.376 88.5816 9.28 89.0376 9.28V10.696H88.6896C88.1536 10.696 87.7456 10.832 87.4656 11.104C87.1936 11.376 87.0576 11.848 87.0576 12.52V16H85.6896V9.388H87.0576V10.348ZM96.355 12.532C96.355 12.78 96.339 13.004 96.307 13.204H91.255C91.295 13.732 91.491 14.156 91.843 14.476C92.195 14.796 92.627 14.956 93.139 14.956C93.875 14.956 94.395 14.648 94.699 14.032H96.175C95.975 14.64 95.611 15.14 95.083 15.532C94.563 15.916 93.915 16.108 93.139 16.108C92.507 16.108 91.939 15.968 91.435 15.688C90.939 15.4 90.547 15 90.259 14.488C89.979 13.968 89.839 13.368 89.839 12.688C89.839 12.008 89.975 11.412 90.247 10.9C90.527 10.38 90.915 9.98 91.411 9.7C91.915 9.42 92.491 9.28 93.139 9.28C93.763 9.28 94.319 9.416 94.807 9.688C95.295 9.96 95.675 10.344 95.947 10.84C96.219 11.328 96.355 11.892 96.355 12.532ZM94.927 12.1C94.919 11.596 94.739 11.192 94.387 10.888C94.035 10.584 93.599 10.432 93.079 10.432C92.607 10.432 92.203 10.584 91.867 10.888C91.531 11.184 91.331 11.588 91.267 12.1H94.927Z" fill="#2EC589"/>
</svg>
