<svg width="36" height="36" viewBox="0 0 36 36" fill="none" xmlns="http://www.w3.org/2000/svg">
<path d="M16.1311 23.2294L21.0971 31.0233L25.6842 28.3648L19.1626 18.0853L16.1311 23.2294Z" fill="url(#paint0_linear_2526_333)"/>
<path d="M29.8616 25.2383L29.8582 23.1082L22.732 12.0092L20.0881 16.4953L26.9675 27.6212L29.455 26.1799C29.699 25.9819 29.8468 25.6909 29.8623 25.3773L29.8616 25.2383Z" fill="url(#paint1_linear_2526_333)"/>
<path d="M0 27.2469L3.5127 29.2709L15.2013 10.5255L13.2177 10.4731C11.5276 10.4492 9.70655 10.8887 8.87087 12.2529L2.23311 22.5408L0 25.9718V27.2469Z" fill="url(#paint2_linear_2526_333)"/>
<path d="M21.9477 10.5258L16.7193 10.5449L4.89062 30.0645L9.02523 32.4449L10.1493 30.5381L21.9477 10.5258Z" fill="url(#paint3_linear_2526_333)"/>
<path d="M32.0655 10.4987C32.0219 9.40526 31.4298 8.40442 30.5024 7.82152L17.5045 0.346663C16.5872 -0.115185 15.4412 -0.115851 14.5222 0.346448C14.4137 0.401172 1.88202 7.66925 1.88202 7.66925C1.70856 7.75215 1.54154 7.85116 1.38447 7.96371C0.556671 8.55712 0.052061 9.47915 0 10.492V25.9722L2.23311 22.5412L2.21362 10.5964C2.21627 10.5528 2.22181 10.5096 2.22935 10.4673C2.27986 10.1862 2.4369 9.93575 2.67305 9.7663C2.7322 9.7242 15.4777 2.34631 15.5181 2.32593C15.8179 2.17552 16.1985 2.17374 16.4983 2.32129L29.3282 9.70101C29.6317 9.8943 29.822 10.222 29.8388 10.5805V25.3769C29.8233 25.6904 29.6992 25.9812 29.4554 26.1793L26.9679 27.6208L25.6844 28.3646L21.0973 31.0231L16.4453 33.7189C16.1946 33.8095 15.9017 33.8044 15.6532 33.7034L10.1492 30.5377L9.02486 32.4444L13.9713 35.2923C14.1347 35.3853 14.2806 35.4678 14.4002 35.5352C14.5853 35.639 14.7116 35.7083 14.7561 35.73C15.1077 35.9008 15.6135 36 16.0692 36C16.4872 36 16.8946 35.9235 17.2803 35.7723L30.7926 27.9473C31.5681 27.3463 32.0245 26.44 32.0655 25.4585V10.4987Z" fill="url(#paint4_linear_2526_333)"/>
<defs>
<linearGradient id="paint0_linear_2526_333" x1="16.2536" y1="18.2076" x2="28.9292" y2="26.1824" gradientUnits="userSpaceOnUse">
<stop stop-color="white"/>
<stop offset="1" stop-color="#999999"/>
</linearGradient>
<linearGradient id="paint1_linear_2526_333" x1="20.2134" y1="12.1566" x2="34.3056" y2="19.6741" gradientUnits="userSpaceOnUse">
<stop stop-color="white"/>
<stop offset="1" stop-color="#999999"/>
</linearGradient>
<linearGradient id="paint2_linear_2526_333" x1="0.194888" y1="10.6498" x2="19.2856" y2="23.8036" gradientUnits="userSpaceOnUse">
<stop stop-color="white"/>
<stop offset="1" stop-color="#999999"/>
</linearGradient>
<linearGradient id="paint3_linear_2526_333" x1="5.1093" y1="10.7328" x2="27.0527" y2="25.2827" gradientUnits="userSpaceOnUse">
<stop stop-color="white"/>
<stop offset="1" stop-color="#999999"/>
</linearGradient>
<linearGradient id="paint4_linear_2526_333" x1="0.411095" y1="0.340089" x2="38.0936" y2="28.9391" gradientUnits="userSpaceOnUse">
<stop stop-color="white"/>
<stop offset="1" stop-color="#999999"/>
</linearGradient>
</defs>
</svg>
