<svg width="36" height="36" viewBox="0 0 36 36" fill="none" xmlns="http://www.w3.org/2000/svg">
<g clip-path="url(#clip0_2526_405)">
<path fill-rule="evenodd" clip-rule="evenodd" d="M36 18C36 27.9445 27.9445 36 18 36C8.05539 36 0 27.9445 0 18C0 8.05539 8.05539 0 18 0C27.9445 0 36 8.05539 36 18ZM12.8966 25.1632H9.40671C8.67201 25.1632 8.30466 25.1632 8.09476 25.019C7.8586 24.8615 7.71428 24.6123 7.68805 24.3236C7.67493 24.0613 7.8586 23.7464 8.21283 23.1035L16.8455 7.89796C17.2128 7.2551 17.3965 6.92711 17.6327 6.80904C17.8819 6.67784 18.1837 6.67784 18.4329 6.80904C18.6691 6.92711 18.8527 7.2551 19.2201 7.89796L20.9913 10.9942L21.0044 11.0073C21.398 11.7026 21.6079 12.0569 21.6866 12.4242C21.7784 12.8309 21.7784 13.2507 21.6866 13.6574C21.5947 14.0248 21.3979 14.379 20.9913 15.0875L16.465 23.1035L16.4519 23.1298C16.0584 23.825 15.8484 24.1793 15.5729 24.4548C15.2711 24.7435 14.9038 24.9534 14.4971 25.0846C14.1298 25.1895 13.7231 25.1895 12.8966 25.1895V25.1632ZM21.7128 25.1632H26.7245C27.4592 25.1632 27.8397 25.1632 28.0495 25.019C28.2858 24.8615 28.4431 24.5991 28.4563 24.3236C28.4694 24.0743 28.2858 23.7594 27.9447 23.1692C27.9315 23.1428 27.9183 23.1298 27.9053 23.1035L25.3995 18.8134L25.3731 18.7609C25.019 18.1705 24.8484 17.8688 24.6123 17.7507C24.363 17.6195 24.0613 17.6195 23.812 17.7507C23.5758 17.8688 23.3921 18.1837 23.0248 18.8134L20.532 23.1035L20.519 23.1166C20.1516 23.7464 19.968 24.0613 19.981 24.3236C19.9942 24.6123 20.1385 24.8615 20.3877 25.019C20.6108 25.1632 20.9781 25.1632 21.7128 25.1632Z" fill="url(#paint0_linear_2526_405)"/>
</g>
<defs>
<linearGradient id="paint0_linear_2526_405" x1="0.461537" y1="0.340089" x2="39.0905" y2="33.2547" gradientUnits="userSpaceOnUse">
<stop stop-color="white"/>
<stop offset="1" stop-color="#999999"/>
</linearGradient>
<clipPath id="clip0_2526_405">
<rect width="36" height="36" fill="white"/>
</clipPath>
</defs>
</svg>
