<svg width="36" height="36" viewBox="0 0 36 36" fill="none" xmlns="http://www.w3.org/2000/svg">
<path d="M18.998 29.8975V33.9313L15.4495 36L12.0054 33.9313V29.8975L15.4495 31.966L18.998 29.8975ZM0 15.9305L3.44408 17.9991V24.9309L9.39459 28.4477V32.4815L0 26.9996V15.9305ZM30.8974 15.9305V26.9996L21.3984 32.4815V28.4477L27.349 24.9309V18.0009L30.8974 15.9305ZM21.3984 10.4485L24.9469 12.5172V16.5512L18.9962 20.0678V27.103L15.5523 29.1717L12.1082 27.103V20.0695L5.95049 16.5512V12.5172L9.49902 10.4485L15.4495 13.9653L21.3984 10.4485ZM5.95049 19.4488L9.39459 21.5176V25.5515L5.95049 23.4828V19.4488ZM24.9469 19.4488V23.4828L21.5028 25.5515V21.5176L24.9469 19.4488ZM3.44408 6.93175L6.99245 9.00036L3.44408 11.0691V15.1031L0 13.0343V9.00036L3.44408 6.93175ZM27.4516 6.93175L31 9.00036V13.0343L27.4516 15.1031V11.0691L24.0075 9.00036L27.4516 6.93175ZM15.4479 6.93175L18.9962 9.00036L15.4479 11.0691L12.0038 9.00036L15.4479 6.93175ZM15.4479 0L24.9469 5.48199L21.5028 7.55064L15.5523 4.03393L9.49902 7.55226L6.05492 5.48366L15.4479 0Z" fill="url(#paint0_linear_2526_538)"/>
<defs>
<linearGradient id="paint0_linear_2526_538" x1="0.397435" y1="0.340089" x2="37.7192" y2="27.7241" gradientUnits="userSpaceOnUse">
<stop stop-color="white"/>
<stop offset="1" stop-color="#999999"/>
</linearGradient>
</defs>
</svg>
