<svg width="36" height="36" viewBox="0 0 36 36" fill="none" xmlns="http://www.w3.org/2000/svg">
<path d="M26.9294 14.4726C27.4913 10.6899 24.632 8.6565 20.7224 7.29985L21.9905 2.17566L18.8941 1.39831L17.6593 6.38748C16.8452 6.18315 16.0092 5.99038 15.1783 5.79938L16.4219 0.777326L13.3271 0L12.0579 5.1224C11.3842 4.96782 10.7228 4.81504 10.0806 4.65426L10.0842 4.63825L5.81387 3.56418L4.99004 6.89562C4.99004 6.89562 7.28763 7.42599 7.23913 7.45886C8.49313 7.77424 8.71977 8.61013 8.68185 9.27287L7.23736 15.1105C7.32379 15.1327 7.43578 15.1647 7.55924 15.2144C7.45607 15.1887 7.34583 15.1603 7.23207 15.1327L5.20698 23.3104C5.05353 23.6942 4.66463 24.2698 3.788 24.0513C3.81886 24.0966 1.53725 23.4854 1.53725 23.4854L0 27.0558L4.0297 28.0675C4.77928 28.2568 5.51386 28.4549 6.23716 28.6414L4.95565 33.8243L8.04867 34.6017L9.31784 29.4739C10.1627 29.7048 10.983 29.9181 11.7855 30.1188L10.5209 35.2227L13.6172 36L14.8988 30.8269C20.179 31.8334 24.1496 31.4274 25.8209 26.6168C27.1677 22.7436 25.7539 20.5093 22.9757 19.0523C24.9988 18.5823 26.5229 17.2418 26.9294 14.4726ZM19.8544 24.4662C18.8976 28.3394 12.4232 26.2454 10.324 25.7204L12.0244 18.8542C14.1236 19.3819 20.8546 20.4266 19.8544 24.4662ZM20.8123 14.4167C19.9391 17.94 14.5504 16.1499 12.8024 15.7111L14.3441 9.4836C16.0921 9.92229 21.7215 10.7414 20.8123 14.4167Z" fill="url(#paint0_linear_2526_472)"/>
<defs>
<linearGradient id="paint0_linear_2526_472" x1="0.346153" y1="0.340089" x2="35.8519" y2="23.0302" gradientUnits="userSpaceOnUse">
<stop stop-color="white"/>
<stop offset="1" stop-color="#999999"/>
</linearGradient>
</defs>
</svg>
