<svg width="36" height="36" viewBox="0 0 36 36" fill="none" xmlns="http://www.w3.org/2000/svg">
<circle cx="18.0001" cy="17.9999" r="4.28571" fill="url(#paint0_linear_2526_266)"/>
<path d="M5.27208 5.27208C7.78942 2.75473 10.9967 1.0404 14.4884 0.345865C17.98 -0.348669 21.5992 0.00779063 24.8883 1.37017C28.1774 2.73254 30.9886 5.03965 32.9664 7.99973C34.9443 10.9598 36 14.4399 36 18C36 21.5601 34.9443 25.0402 32.9665 28.0003C30.9886 30.9603 28.1774 33.2675 24.8883 34.6298C21.5992 35.9922 17.98 36.3487 14.4884 35.6541C10.9967 34.9596 7.78943 33.2453 5.27208 30.7279L11.875 24.125C13.0864 25.3364 14.6299 26.1614 16.3101 26.4956C17.9904 26.8298 19.732 26.6583 21.3148 26.0027C22.8976 25.3471 24.2504 24.2368 25.2022 22.8124C26.154 21.3879 26.662 19.7132 26.662 18C26.662 16.2868 26.154 14.6121 25.2022 13.1876C24.2504 11.7632 22.8976 10.6529 21.3148 9.99732C19.732 9.34171 17.9904 9.17018 16.3101 9.5044C14.6298 9.83863 13.0864 10.6636 11.875 11.875L5.27208 5.27208Z" fill="url(#paint1_linear_2526_266)"/>
<defs>
<linearGradient id="paint0_linear_2526_266" x1="13.8242" y1="13.7952" x2="23.0216" y2="21.632" gradientUnits="userSpaceOnUse">
<stop stop-color="white"/>
<stop offset="1" stop-color="#999999"/>
</linearGradient>
<linearGradient id="paint1_linear_2526_266" x1="0.461537" y1="0.340089" x2="39.0905" y2="33.2547" gradientUnits="userSpaceOnUse">
<stop stop-color="white"/>
<stop offset="1" stop-color="#999999"/>
</linearGradient>
</defs>
</svg>
