<svg width="32" height="32" viewBox="0 0 32 32" fill="none" xmlns="http://www.w3.org/2000/svg">
<g id="Energy-Web-Icon" clip-path="url(#clip0_913_88897)">
<path id="Vector" d="M15.9872 0C7.15958 0 0 7.15958 0 15.9872C0 24.8148 7.15958 31.9743 15.9872 31.9743C24.8148 31.9743 31.9743 24.8148 31.9743 15.9872C32 7.15958 24.8404 0 15.9872 0ZM15.2686 23.8653C14.3962 24.4812 13.344 24.8404 12.2919 24.8404C10.4443 24.8404 8.7506 23.8396 7.46752 21.992C6.31275 20.2213 5.67121 18.1684 5.61989 16.0642C5.61989 15.9872 5.67121 15.9102 5.7482 15.8845L7.00561 15.32C7.10826 15.2686 7.21091 15.32 7.26223 15.4226C7.26223 15.4483 7.28789 15.4739 7.28789 15.4996C7.28789 17.6038 7.85245 19.5798 8.85325 21.0425C9.80273 22.4282 11.0345 23.1724 12.3176 23.1724C13.0104 23.1724 13.7033 22.9671 14.2678 22.5822C14.3448 22.5309 14.4731 22.5565 14.5245 22.6335C14.7811 22.9671 15.0377 23.2751 15.32 23.583C15.3456 23.66 15.3456 23.7883 15.2686 23.8653ZM24.5325 21.992C23.2751 23.814 21.5557 24.8404 19.7081 24.8404C17.8605 24.8404 16.1668 23.814 14.8837 21.992C13.6776 20.247 13.0104 17.9375 13.0104 15.4996C13.0104 13.2414 14.3192 11.4707 15.9615 11.4707C17.6038 11.4707 18.9126 13.2414 18.9126 15.4996C18.9383 17.4755 18.4763 19.4002 17.5525 21.1451C17.5012 21.2478 17.3729 21.2735 17.2959 21.2221C17.2702 21.2221 17.2702 21.1965 17.2446 21.1708C17.0906 20.9912 16.9366 20.8115 16.8083 20.6319C16.6544 20.401 16.5261 20.1957 16.3978 19.9391C16.3721 19.8877 16.3721 19.8107 16.3978 19.7594C16.988 18.3994 17.2702 16.9366 17.2702 15.4739C17.2702 14.3705 16.7057 13.1131 15.9615 13.1131C15.2173 13.1131 14.6528 14.3705 14.6528 15.4739C14.6528 17.5782 15.2173 19.5541 16.2181 21.0168C17.1676 22.4026 18.3994 23.1468 19.6824 23.1468C20.9655 23.1468 22.1973 22.3769 23.1468 21.0168C24.1476 19.5541 24.7121 17.5782 24.7121 15.4739C24.7121 13.3697 24.1476 11.3937 23.1468 9.93104C22.8645 9.49479 22.5052 9.10986 22.1203 8.77626C22.0433 8.69928 22.0433 8.57097 22.0946 8.49399C22.1203 8.46832 22.146 8.44266 22.1716 8.44266L23.429 7.87811C23.506 7.85245 23.583 7.85245 23.6343 7.92943C23.9679 8.26303 24.2502 8.62229 24.5068 8.98156C25.7129 10.7265 26.3801 13.0361 26.3801 15.4739C26.3801 17.9118 25.7386 20.247 24.5325 21.992Z" fill="#A566FF"/>
</g>
<defs>
<clipPath id="clip0_913_88897">
<rect width="32" height="32" fill="white"/>
</clipPath>
</defs>
</svg>
