<svg width="36" height="36" viewBox="0 0 36 36" fill="none" xmlns="http://www.w3.org/2000/svg">
<g clip-path="url(#clip0_2526_673)">
<path d="M17.8633 -0.0481722C17.9626 -0.0480169 18.0618 -0.0478615 18.1641 -0.0477014C23.1566 -0.0265331 27.3372 1.91076 30.9294 5.32772C31.0845 5.49081 31.0845 5.49081 31.2428 5.65718C31.3253 5.74188 31.4079 5.82657 31.4929 5.91383C32.9968 7.50939 33.9623 9.32308 34.8428 11.3143C34.8983 11.4345 34.9538 11.5546 35.0111 11.6784C35.6848 13.2173 36.0122 15.0265 36.0306 16.6957C36.0318 16.7903 36.0331 16.8848 36.0344 16.9822C36.0768 20.9743 36.0768 20.9743 35.4857 22.8858C35.4553 22.9854 35.425 23.085 35.3937 23.1876C34.4729 26.1086 32.9498 28.5096 30.8571 30.7286C30.7757 30.8168 30.6943 30.905 30.6105 30.9958C27.7127 34.031 23.2584 35.936 19.0752 36.0387C18.73 36.0412 18.3853 36.0422 18.0401 36.0402C17.9497 36.0399 17.8593 36.0396 17.7662 36.0392C12.6773 36.0115 8.21266 33.9439 4.62851 30.3429C2.89111 28.4681 1.60219 26.2397 0.731192 23.842C0.68677 23.7219 0.68677 23.7219 0.64145 23.5993C0.0478757 21.8787 -0.0655662 20.1978 -0.0574065 18.3933C-0.0563133 18.026 -0.0600232 17.6589 -0.0640925 17.2916C-0.0824521 12.4982 2.07084 8.35963 5.31959 4.92593C7.74154 2.59603 10.8633 0.955256 14.1428 0.257185C14.3085 0.221697 14.3085 0.221697 14.4776 0.185491C15.604 -0.0296053 16.7212 -0.0514824 17.8633 -0.0481722ZM6.78692 8.60686C6.19745 9.28552 5.7201 10.0233 5.27137 10.8C5.18867 10.9391 5.10597 11.0781 5.02076 11.2214C3.28604 14.386 2.93489 18.4593 3.92338 21.9034C4.37597 23.3543 4.95695 24.6903 5.78566 25.9715C5.85908 26.0858 5.9325 26.2002 6.00815 26.318C7.02797 27.8097 8.36388 29.1334 9.89994 30.0858C10.0262 30.1698 10.1525 30.2538 10.2826 30.3404C13.4397 32.3875 17.3686 32.9335 21.0455 32.1911C23.7075 31.5998 26.1139 30.3806 28.0285 28.4143C28.1492 28.3174 28.2698 28.2204 28.3941 28.1205C30.5751 26.3141 32.0557 22.9459 32.3999 20.1858C32.4302 19.6137 32.4371 19.0434 32.4335 18.4706C32.4321 18.2103 32.4335 17.95 32.4351 17.6897C32.4331 16.652 32.3508 15.6735 32.1428 14.6572C32.1182 14.5302 32.0936 14.4032 32.0683 14.2724C31.6167 12.042 30.2519 9.72013 28.6714 8.10004C28.5865 8.10004 28.5017 8.10004 28.4142 8.10004C28.2869 7.84547 28.2869 7.84547 28.1571 7.58576C28.0722 7.58576 27.9874 7.58576 27.8999 7.58576C27.8711 7.512 27.8423 7.43825 27.8126 7.36226C26.9205 5.83408 24.3064 4.81305 22.7249 4.25093C22.6233 4.21462 22.5216 4.1783 22.4168 4.14088C20.9618 3.65178 19.5349 3.55861 18.008 3.5679C17.845 3.5669 17.682 3.56591 17.514 3.56489C13.2325 3.57366 9.64117 5.49267 6.78692 8.60686Z" fill="url(#paint0_linear_2526_673)"/>
<path d="M27.1285 15.1714C27.2558 15.2138 27.3831 15.2562 27.5142 15.3C27.8361 16.0631 27.8168 16.9606 27.8116 17.775C27.8108 17.8936 27.8101 18.0123 27.8094 18.1346C27.7927 19.0762 27.6819 19.9307 27.3857 20.8285C27.3148 21.055 27.3148 21.055 27.2425 21.2861C26.5605 23.2195 25.3259 24.7884 23.6571 25.9714C23.5219 26.077 23.5219 26.077 23.3839 26.1848C21.3426 27.6965 18.7321 27.958 16.2798 27.7312C15.6729 27.6323 15.6729 27.6323 15.4285 27.5142C15.3375 27.3456 15.2512 27.1742 15.1714 27C17.843 24.0244 17.843 24.0244 19.9285 23.7857C21.3641 23.3474 22.5325 22.3876 23.3161 21.1233C23.7383 20.2818 23.9372 19.3824 24.1375 18.4674C24.3235 17.9321 24.5395 17.686 24.9438 17.2933C25.0374 17.2011 25.0374 17.2011 25.133 17.1069C25.3306 16.9128 25.5304 16.7211 25.7303 16.5294C25.8656 16.3974 26.0007 16.2652 26.1356 16.1329C26.4649 15.8107 26.7962 15.4905 27.1285 15.1714Z" fill="url(#paint1_linear_2526_673)"/>
<path d="M20.7001 8.48569C20.6292 8.99195 20.3957 9.22229 20.0381 9.57553C19.9301 9.68293 19.822 9.79032 19.7107 9.90098C19.597 10.012 19.4833 10.1231 19.3661 10.2375C19.2534 10.3495 19.1407 10.4615 19.0246 10.577C18.3319 11.2612 17.8947 11.6904 16.9152 11.8607C15.2753 12.2018 13.8989 12.9694 12.8813 14.3246C12.3324 15.1891 11.8254 16.1974 11.8045 17.2366C11.7398 18.007 11.0609 18.5139 10.5429 19.0285C10.4546 19.1215 10.3662 19.2145 10.2752 19.3103C9.84087 19.7629 9.84087 19.7629 9.64292 19.9285C9.55807 19.9285 9.47321 19.9285 9.38578 19.9285C9.35396 20.0081 9.32214 20.0877 9.28935 20.1696C9.10212 20.4879 8.95145 20.5651 8.61435 20.7C7.84003 19.5385 7.94462 17.5253 8.18394 16.198C8.76726 13.4278 10.4369 11.0787 12.7899 9.53284C14.8662 8.23071 18.3614 7.31638 20.7001 8.48569Z" fill="url(#paint2_linear_2526_673)"/>
<path d="M15.4526 19.5669C15.918 19.8669 16.2099 20.2057 16.4571 20.7C16.558 21.5414 16.2934 21.9754 15.8142 22.6285C15.5012 22.9916 15.1671 23.3298 14.8268 23.6672C14.7328 23.7615 14.6388 23.8559 14.542 23.9531C14.3443 24.151 14.1461 24.3485 13.9475 24.5456C13.645 24.846 13.3446 25.1484 13.0444 25.4511C12.8512 25.6441 12.6578 25.8369 12.4643 26.0297C12.3309 26.1643 12.3309 26.1643 12.1947 26.3016C11.5678 26.9196 10.9853 27.4521 10.0847 27.5785C9.38475 27.4767 9.0212 27.1735 8.56599 26.6464C8.31763 26.1497 8.22093 25.7445 8.35706 25.2C8.78134 24.4717 9.34926 23.9134 9.94411 23.3216C10.0478 23.2177 10.1514 23.1138 10.2582 23.0068C10.4766 22.7882 10.6953 22.57 10.9144 22.352C11.2497 22.0181 11.5836 21.6828 11.9174 21.3473C12.1301 21.1348 12.3429 20.9224 12.5557 20.71C12.7054 20.5595 12.7054 20.5595 12.8581 20.406C12.9984 20.2669 12.9984 20.2669 13.1416 20.125C13.2643 20.0026 13.2643 20.0026 13.3895 19.8777C14.0271 19.3272 14.6617 19.2723 15.4526 19.5669Z" fill="url(#paint3_linear_2526_673)"/>
<path d="M26.3572 8.35717C26.8653 8.62562 27.2104 8.89966 27.5143 9.38574C27.5655 9.69461 27.5655 9.69461 27.5625 10.0206C27.564 10.1814 27.564 10.1814 27.5655 10.3455C27.4679 10.9669 27.0787 11.3965 26.6465 11.8317C26.503 11.9771 26.503 11.9771 26.3565 12.1255C26.2536 12.2282 26.1508 12.3309 26.0448 12.4368C25.9384 12.5437 25.832 12.6507 25.7224 12.7608C25.4978 12.9862 25.2727 13.2113 25.0474 13.4361C24.7028 13.7803 24.36 14.1261 24.0173 14.4721C23.7986 14.6911 23.5798 14.91 23.3609 15.1288C23.2585 15.2323 23.1562 15.3358 23.0507 15.4425C22.9542 15.5382 22.8577 15.6339 22.7582 15.7325C22.674 15.8168 22.5898 15.9011 22.5031 15.988C22.1073 16.3106 21.7331 16.4398 21.2304 16.5054C20.5764 16.4269 20.1211 16.154 19.6795 15.6697C19.4777 15.1237 19.4335 14.5873 19.5429 14.0143C19.8825 13.4042 20.3089 12.9786 20.8286 12.5277C21.3055 12.1104 21.7218 11.6846 22.1143 11.1857C22.2711 11.0421 22.4319 10.9026 22.5965 10.7679C22.987 10.4365 23.3193 10.0908 23.6491 9.69913C24.4082 8.83161 25.1588 8.16072 26.3572 8.35717Z" fill="url(#paint4_linear_2526_673)"/>
</g>
<defs>
<linearGradient id="paint0_linear_2526_673" x1="0.398798" y1="0.292475" x2="39.1283" y2="33.3155" gradientUnits="userSpaceOnUse">
<stop stop-color="white"/>
<stop offset="1" stop-color="#999999"/>
</linearGradient>
<linearGradient id="paint1_linear_2526_673" x1="15.3335" y1="15.2907" x2="28.889" y2="26.8511" gradientUnits="userSpaceOnUse">
<stop stop-color="white"/>
<stop offset="1" stop-color="#999999"/>
</linearGradient>
<linearGradient id="paint2_linear_2526_673" x1="8.1715" y1="8.0681" x2="21.8445" y2="19.6627" gradientUnits="userSpaceOnUse">
<stop stop-color="white"/>
<stop offset="1" stop-color="#999999"/>
</linearGradient>
<linearGradient id="paint3_linear_2526_673" x1="8.40008" y1="19.4677" x2="17.1853" y2="26.9489" gradientUnits="userSpaceOnUse">
<stop stop-color="white"/>
<stop offset="1" stop-color="#999999"/>
</linearGradient>
<linearGradient id="paint4_linear_2526_673" x1="19.5882" y1="8.40005" x2="28.3503" y2="15.7732" gradientUnits="userSpaceOnUse">
<stop stop-color="white"/>
<stop offset="1" stop-color="#999999"/>
</linearGradient>
<clipPath id="clip0_2526_673">
<rect width="36" height="36" fill="white"/>
</clipPath>
</defs>
</svg>
