<svg width="36" height="36" viewBox="0 0 36 36" fill="none" xmlns="http://www.w3.org/2000/svg">
<g clip-path="url(#clip0_2526_745)">
<path d="M18 0C27.9411 0 36 8.05887 36 18C36 27.9411 27.9411 36 18 36C8.05887 36 0 27.9411 0 18C0 8.05887 8.05887 0 18 0ZM18.8281 6.96582C18.2813 6.67845 17.4492 6.67845 16.9023 6.96582L11.3223 9.89746C10.9861 10.0741 10.813 10.3257 10.7881 10.5947H10.7861L10.7852 10.6416C10.7847 10.6574 10.7856 10.6736 10.7861 10.6895V25.335C10.7946 25.624 10.9657 25.9142 11.3223 26.1016L16.9023 29.0342C17.4492 29.3216 18.2813 29.3216 18.8281 29.0342L24.4082 26.1016C24.7662 25.9133 24.9489 25.6253 24.9561 25.335V10.5947H24.9512C24.9186 10.3286 24.7373 10.0704 24.4082 9.89746L18.8281 6.96582ZM24.0781 25.2822L18.79 28.0693C18.4821 28.219 18.178 28.377 17.8652 28.376L17.8057 28.374C17.5055 28.3544 17.1981 28.2013 16.9023 28.0439L11.6641 25.3057V18.8242L16.9023 21.5771C17.4492 21.8645 18.2813 21.8645 18.8281 21.5771L24.0781 18.8184V25.2822ZM9 25.0146V25.0537C9.00624 26.3434 9.32225 26.9635 10.1699 27.5322C10.2492 27.5854 10.3349 27.639 10.4375 27.7021L10.4971 27.7383L10.8516 27.9521L11.3057 27.2041L10.9893 27.0137L10.8857 26.9512C10.7983 26.8974 10.7264 26.8513 10.6611 26.8076L10.6445 26.7959C10.3471 26.5942 10.1838 26.4287 10.0752 26.2119C9.94424 25.9504 9.87794 25.5792 9.87793 25.0146H9ZM17.4258 20.8525C17.3853 20.8387 17.3472 20.8229 17.3125 20.8047L11.7324 17.8721L11.7197 17.8652L11.7109 17.8604L11.7158 17.8574C11.721 17.8544 11.7267 17.8516 11.7324 17.8486L17.3125 14.916C17.3473 14.8977 17.3852 14.8811 17.4258 14.8672V20.8525ZM18.418 14.916L23.998 17.8486L24.0107 17.8555L24.0195 17.8604L24.0146 17.8633C24.0094 17.8663 24.0038 17.8691 23.998 17.8721L18.418 20.8047C18.3833 20.8229 18.3452 20.8387 18.3047 20.8525V14.8672C18.3453 14.8811 18.3832 14.8977 18.418 14.916ZM24.0781 16.9023L19.0723 14.2715L24.0781 11.6406V16.9023ZM16.6582 14.2715L11.6641 16.8955V11.6465L16.6582 14.2715ZM17.3125 7.73828C17.6028 7.58579 18.1277 7.58579 18.418 7.73828L23.998 10.6709L24.0107 10.6777L24.0195 10.6826L24.0146 10.6855C24.0094 10.6885 24.0038 10.6913 23.998 10.6943L18.418 13.627C18.1277 13.7795 17.6027 13.7795 17.3125 13.627L11.7324 10.6943L11.7197 10.6875L11.7109 10.6826L11.7158 10.6797C11.721 10.6767 11.7267 10.6739 11.7324 10.6709L17.3125 7.73828ZM24.4482 8.80762L24.7646 8.99805L24.8682 9.06055C24.9556 9.11442 25.0274 9.16033 25.0928 9.2041L25.1094 9.21582C25.4067 9.41736 25.5701 9.58307 25.6787 9.7998C25.8096 10.0613 25.876 10.4325 25.876 10.9971H26.7539V10.958C26.7477 9.66844 26.4316 9.04807 25.584 8.47949C25.5047 8.42629 25.4189 8.37257 25.3164 8.30957L25.2568 8.27344L24.9023 8.05957L24.4482 8.80762Z" fill="url(#paint0_linear_2526_745)"/>
</g>
<defs>
<linearGradient id="paint0_linear_2526_745" x1="0.461537" y1="0.340089" x2="39.0905" y2="33.2547" gradientUnits="userSpaceOnUse">
<stop stop-color="white"/>
<stop offset="1" stop-color="#999999"/>
</linearGradient>
<clipPath id="clip0_2526_745">
<rect width="36" height="36" fill="white"/>
</clipPath>
</defs>
</svg>
