<svg width="36" height="36" viewBox="0 0 36 36" fill="none" xmlns="http://www.w3.org/2000/svg">
<g clip-path="url(#clip0_2526_128)">
<path d="M28.8479 1.84L21.3363 13C20.8169 13.76 21.8158 14.68 22.535 14.04L29.9267 7.6C30.1265 7.44 30.4062 7.56 30.4062 7.84V27.96C30.4062 28.24 30.0466 28.36 29.8868 28.16L7.51165 1.36C6.79245 0.48 5.75361 0 4.59489 0H3.79578C1.71809 0 0 1.72 0 3.84V32.16C0 34.28 1.71809 36 3.83574 36C5.15427 36 6.3929 35.32 7.1121 34.16L14.6238 23C15.1432 22.24 14.1443 21.32 13.4251 21.96L6.0333 28.36C5.83352 28.52 5.55383 28.4 5.55383 28.12V8.04C5.55383 7.76 5.91343 7.64 6.07325 7.84L28.4484 34.64C29.1676 35.52 30.2464 36 31.3651 36H32.1643C34.2819 36 36 34.28 36 32.16V3.84C36 1.72 34.2819 0 32.1643 0C30.8058 0 29.5671 0.68 28.8479 1.84Z" fill="url(#paint0_linear_2526_128)"/>
</g>
<defs>
<linearGradient id="paint0_linear_2526_128" x1="0.461537" y1="0.340089" x2="39.0905" y2="33.2547" gradientUnits="userSpaceOnUse">
<stop stop-color="white"/>
<stop offset="1" stop-color="#999999"/>
</linearGradient>
<clipPath id="clip0_2526_128">
<rect width="36" height="36" fill="white"/>
</clipPath>
</defs>
</svg>
