<svg width="36" height="36" viewBox="0 0 36 36" fill="none" xmlns="http://www.w3.org/2000/svg">
<g clip-path="url(#clip0_2526_815)">
<path d="M18 0C27.9412 0 36 8.05887 36 18C36 27.9412 27.9412 36 18 36C8.05887 36 0 27.9412 0 18C0 8.05887 8.05887 0 18 0ZM14.7383 12.96C12.1565 12.96 10.555 14.2432 9.93457 16.8096C9.71562 17.7523 9.54736 18.5605 9.42871 19.2324C9.38318 19.5309 9.36035 19.7831 9.36035 19.9883C9.36042 20.9681 9.70258 21.7239 10.3867 22.2559C11.08 22.7784 11.9692 23.04 13.0547 23.04C14.3684 23.04 15.4176 22.7269 16.2021 22.1016C16.9867 21.467 17.5391 20.5109 17.8584 19.2324C18.05 18.4484 18.2148 17.6403 18.3516 16.8096C18.3972 16.5114 18.4199 16.2642 18.4199 16.0684C18.4199 15.4151 18.2597 14.8545 17.9404 14.3877C17.6212 13.9119 17.1833 13.5575 16.627 13.3242C16.0704 13.0816 15.4408 12.96 14.7383 12.96ZM21.0732 13.0996C20.982 13.0996 20.8956 13.1329 20.8135 13.1982C20.7314 13.2635 20.6813 13.3475 20.6631 13.4502L18.7744 22.5498C18.7562 22.6431 18.7699 22.7272 18.8154 22.8018C18.8702 22.8671 18.9475 22.9004 19.0479 22.9004H20.9092C21.0003 22.9004 21.0869 22.8671 21.1689 22.8018C21.251 22.7365 21.3011 22.6525 21.3193 22.5498L21.9492 19.4844H23.7969C24.9918 19.4843 25.9311 19.2271 26.6152 18.7139C27.3087 18.2005 27.7699 17.4073 27.998 16.334C28.0527 16.0822 28.0801 15.8396 28.0801 15.6064C28.0801 14.7944 27.7697 14.1734 27.1494 13.7441C26.5382 13.3149 25.7264 13.0997 24.7139 13.0996H21.0732ZM14.5605 14.9756C15.4272 14.9756 15.8604 15.4008 15.8604 16.25C15.8603 16.4552 15.8422 16.6556 15.8057 16.8516C15.6963 17.5047 15.5369 18.2704 15.3271 19.1475C15.1722 19.782 14.9117 20.2536 14.5469 20.5615C14.1911 20.8695 13.7578 21.0243 13.2471 21.0244C12.3713 21.0244 11.9327 20.5948 11.9326 19.7363C11.9326 19.531 11.9507 19.3342 11.9873 19.1475C12.1514 18.2423 12.3162 17.4767 12.4805 16.8516C12.6355 16.2171 12.8913 15.7463 13.2471 15.4385C13.612 15.1305 14.0497 14.9756 14.5605 14.9756ZM24.4805 15.0459C24.8545 15.0459 25.1192 15.1212 25.2744 15.2705C25.4293 15.4105 25.5068 15.6153 25.5068 15.8857C25.5068 16.007 25.4931 16.1472 25.4658 16.3057C25.3745 16.7071 25.1834 17.0157 24.8916 17.2305C24.6087 17.445 24.2756 17.5517 23.8926 17.5518H22.3184L22.8389 15.0459H24.4805Z" fill="url(#paint0_linear_2526_815)"/>
</g>
<defs>
<linearGradient id="paint0_linear_2526_815" x1="0.461537" y1="0.340089" x2="39.0905" y2="33.2547" gradientUnits="userSpaceOnUse">
<stop stop-color="white"/>
<stop offset="1" stop-color="#999999"/>
</linearGradient>
<clipPath id="clip0_2526_815">
<rect width="36" height="36" fill="white"/>
</clipPath>
</defs>
</svg>
