<svg width="36" height="36" viewBox="0 0 36 36" fill="none" xmlns="http://www.w3.org/2000/svg">
<g clip-path="url(#clip0_2526_886)">
<path d="M18 0C27.9411 0 36 8.05887 36 18C36 27.9411 27.9411 36 18 36C8.05887 36 0 27.9411 0 18C0 8.05887 8.05887 0 18 0ZM12.5693 22.2158C12.475 22.216 12.3813 22.2354 12.2949 22.2725C12.2085 22.3097 12.1308 22.3638 12.0664 22.4316L9.09277 25.5713C9.04702 25.6196 9.01627 25.68 9.00488 25.7451C8.99349 25.8104 9.00153 25.8777 9.02832 25.9385C9.05512 25.9991 9.10008 26.0506 9.15625 26.0869C9.21232 26.123 9.27772 26.1425 9.34473 26.1426H23.4307C23.5254 26.1427 23.6192 26.1231 23.7061 26.0859C23.7928 26.0489 23.871 25.9949 23.9355 25.9268L26.9072 22.7881C26.953 22.7396 26.9836 22.6785 26.9951 22.6133C27.0064 22.5481 26.9983 22.4806 26.9717 22.4199C26.9447 22.3594 26.8998 22.3078 26.8438 22.2715C26.7878 22.2354 26.7222 22.2159 26.6553 22.2158H12.5693ZM9.34473 16.251C9.27767 16.251 9.21235 16.2705 9.15625 16.3066C9.10005 16.343 9.05512 16.3944 9.02832 16.4551C9.00158 16.5158 8.99349 16.5832 9.00488 16.6484C9.01632 16.7136 9.04701 16.7739 9.09277 16.8223L12.0664 19.9609C12.1308 20.0288 12.2084 20.0839 12.2949 20.1211C12.3813 20.1582 12.475 20.1766 12.5693 20.1768H26.6553C26.7222 20.1767 26.7878 20.158 26.8438 20.1221C26.8999 20.0857 26.9447 20.0333 26.9717 19.9727C26.9982 19.9121 27.0064 19.8453 26.9951 19.7803C26.9836 19.715 26.953 19.654 26.9072 19.6055L23.9355 16.4668C23.871 16.3986 23.7929 16.3438 23.7061 16.3066C23.6193 16.2696 23.5253 16.2509 23.4307 16.251H9.34473ZM12.5693 10.2852C12.475 10.2854 12.3813 10.3047 12.2949 10.3418C12.2085 10.3789 12.1308 10.4331 12.0664 10.501L9.09375 13.6406C9.04797 13.689 9.01728 13.7493 9.00586 13.8145C8.99449 13.8794 9.00273 13.9462 9.0293 14.0068C9.05599 14.0675 9.10016 14.1199 9.15625 14.1562C9.21222 14.1924 9.27776 14.2118 9.34473 14.2119H23.4307C23.5254 14.212 23.6192 14.1925 23.7061 14.1553C23.7928 14.1182 23.871 14.0642 23.9355 13.9961L26.9072 10.8574C26.953 10.809 26.9836 10.7479 26.9951 10.6826C27.0064 10.6176 26.9982 10.5508 26.9717 10.4902C26.9447 10.4295 26.8999 10.3771 26.8438 10.3408C26.7878 10.3047 26.7222 10.2852 26.6553 10.2852H12.5693Z" fill="url(#paint0_linear_2526_886)"/>
</g>
<defs>
<linearGradient id="paint0_linear_2526_886" x1="0.461537" y1="0.340089" x2="39.0905" y2="33.2547" gradientUnits="userSpaceOnUse">
<stop stop-color="white"/>
<stop offset="1" stop-color="#999999"/>
</linearGradient>
<clipPath id="clip0_2526_886">
<rect width="36" height="36" fill="white"/>
</clipPath>
</defs>
</svg>
