<svg width="20" height="20" viewBox="0 0 20 20" fill="none" xmlns="http://www.w3.org/2000/svg">
<g clip-path="url(#clip0_276_24765)">
<path d="M2.07879 15.4826H3.97L4.00685 18.4986C4.00796 18.5761 4.03265 18.6517 4.07798 18.7145C4.2357 18.9332 4.49182 19.0639 4.76341 19.0639C5.03501 19.0637 5.29149 18.933 5.42895 18.7396L8.22192 15.4826H16.037C16.7652 15.4826 17.3578 14.8919 17.3578 14.1658V8.01489H18.8635C18.9965 8.01489 19.1196 7.94487 19.1878 7.83063C19.2556 7.71639 19.2586 7.5747 19.1952 7.45769L15.7687 1.13307C15.7028 1.01146 15.5756 0.935547 15.4371 0.935547C15.2985 0.935731 15.1706 1.01183 15.1047 1.13399L13.6048 3.90909H2.07879C1.35245 3.90909 0.761719 4.5 0.761719 5.22616V14.1658C0.761719 14.8919 1.35245 15.4826 2.07879 15.4826ZM15.4382 2.10687L18.23 7.26017C17.1254 7.26017 14.0857 7.26017 12.6518 7.26017C15.3574 2.25629 15.0274 2.86666 15.4382 2.10687ZM1.51644 5.22616C1.51644 4.91605 1.76887 4.6638 2.07879 4.6638H13.1968L11.6867 7.45788C11.6233 7.5747 11.6263 7.71639 11.6941 7.83063C11.7622 7.94487 11.8853 8.01489 12.0184 8.01489H16.603V14.1658C16.603 14.4757 16.3491 14.7279 16.037 14.7279H8.04835C7.93816 14.7279 7.83351 14.776 7.76201 14.8597L4.83638 18.2736C4.81206 18.3071 4.77779 18.3112 4.75936 18.309L4.7203 15.1007C4.71772 14.8941 4.54968 14.7279 4.34294 14.7279H2.07879C1.76887 14.7279 1.51644 14.4757 1.51644 14.1658V5.22616Z" fill="url(#paint0_linear_276_24765)"/>
<path d="M15.4399 5.55277C15.6484 5.55277 15.8172 5.38381 15.8172 5.17541V4.13712C15.8172 3.92873 15.6484 3.75977 15.4399 3.75977C15.2313 3.75977 15.0625 3.92873 15.0625 4.13712V5.17541C15.0625 5.38381 15.2313 5.55277 15.4399 5.55277Z" fill="url(#paint1_linear_276_24765)"/>
<path d="M3.5883 9.93147H9.82835C10.0369 9.93147 10.2057 9.76251 10.2057 9.55412C10.2057 9.34572 10.0369 9.17676 9.82835 9.17676H3.5883C3.37972 9.17676 3.21094 9.34572 3.21094 9.55412C3.21094 9.76251 3.37972 9.93147 3.5883 9.93147Z" fill="url(#paint2_linear_276_24765)"/>
<path d="M3.5883 11.8826H14.3931C14.6017 11.8826 14.7705 11.7137 14.7705 11.5053C14.7705 11.2969 14.6017 11.1279 14.3931 11.1279H3.5883C3.37972 11.1279 3.21094 11.2969 3.21094 11.5053C3.21094 11.7137 3.37972 11.8826 3.5883 11.8826Z" fill="url(#paint3_linear_276_24765)"/>
<path d="M15.4391 6.00293C15.2305 6.00293 15.043 6.18903 15.043 6.39742C15.043 6.60582 15.2305 6.7921 15.4391 6.7921C15.6477 6.7921 15.8356 6.60582 15.8356 6.39742C15.8356 6.18903 15.6477 6.00293 15.4391 6.00293Z" fill="url(#paint4_linear_276_24765)"/>
</g>
<defs>
<linearGradient id="paint0_linear_276_24765" x1="4.50088" y1="16.2395" x2="16.6776" y2="6.10593" gradientUnits="userSpaceOnUse">
<stop stop-color="#088DB2"/>
<stop offset="1" stop-color="#32B8B2"/>
</linearGradient>
<linearGradient id="paint1_linear_276_24765" x1="15.2152" y1="5.27343" x2="15.9681" y2="5.01471" gradientUnits="userSpaceOnUse">
<stop stop-color="#088DB2"/>
<stop offset="1" stop-color="#32B8B2"/>
</linearGradient>
<linearGradient id="paint2_linear_276_24765" x1="4.6263" y1="9.81389" x2="4.76022" y2="8.80056" gradientUnits="userSpaceOnUse">
<stop stop-color="#088DB2"/>
<stop offset="1" stop-color="#32B8B2"/>
</linearGradient>
<linearGradient id="paint3_linear_276_24765" x1="5.54997" y1="11.7651" x2="5.6319" y2="10.7406" gradientUnits="userSpaceOnUse">
<stop stop-color="#088DB2"/>
<stop offset="1" stop-color="#32B8B2"/>
</linearGradient>
<linearGradient id="paint4_linear_276_24765" x1="15.2034" y1="6.66915" x2="15.732" y2="6.23567" gradientUnits="userSpaceOnUse">
<stop stop-color="#088DB2"/>
<stop offset="1" stop-color="#32B8B2"/>
</linearGradient>
<clipPath id="clip0_276_24765">
<rect width="20" height="20" fill="white"/>
</clipPath>
</defs>
</svg>
