<svg width="20" height="20" viewBox="0 0 20 20" fill="none" xmlns="http://www.w3.org/2000/svg">
<path d="M17.2656 6.875C17.05 6.875 16.875 7.05 16.875 7.26562C16.875 7.48125 17.05 7.65625 17.2656 7.65625C17.4812 7.65625 17.6562 7.48125 17.6562 7.26562C17.6562 7.05 17.4812 6.875 17.2656 6.875Z" fill="url(#paint0_linear_276_24792)"/>
<path d="M10.7812 12.3438C10.5656 12.3438 10.3906 12.5187 10.3906 12.7344C10.3906 12.95 10.5656 13.125 10.7812 13.125C10.9969 13.125 11.1719 12.95 11.1719 12.7344C11.1719 12.5187 10.9969 12.3438 10.7812 12.3438Z" fill="url(#paint1_linear_276_24792)"/>
<path d="M10.7812 10H2.73438C2.51867 10 2.34375 10.1749 2.34375 10.3906C2.34375 10.6063 2.51867 10.7812 2.73438 10.7812H10.7812C10.997 10.7812 11.1719 10.6063 11.1719 10.3906C11.1719 10.1749 10.997 10 10.7812 10Z" fill="url(#paint2_linear_276_24792)"/>
<path d="M9.21875 12.3438H2.73438C2.51867 12.3438 2.34375 12.5187 2.34375 12.7344C2.34375 12.9501 2.51867 13.125 2.73438 13.125H9.21875C9.43445 13.125 9.60938 12.9501 9.60938 12.7344C9.60938 12.5187 9.43445 12.3438 9.21875 12.3438Z" fill="url(#paint3_linear_276_24792)"/>
<path d="M18.8281 1.40625H7.65625C7.01008 1.40625 6.48438 1.93195 6.48438 2.57812V6.875H1.17188C0.525703 6.875 0 7.4007 0 8.04688V15.0781C0 15.7243 0.525703 16.25 1.17188 16.25H2.34375V18.2031C2.34375 18.352 2.42836 18.4879 2.56195 18.5536C2.69543 18.6194 2.85496 18.6034 2.97277 18.5126L5.90957 16.25H12.3438C12.9899 16.25 13.5156 15.7243 13.5156 15.0781V10.7812H18.8281C19.4743 10.7812 20 10.2555 20 9.60938V2.57812C20 1.93195 19.4743 1.40625 18.8281 1.40625ZM12.7344 15.0781C12.7344 15.2935 12.5591 15.4688 12.3438 15.4688H5.77656C5.69031 15.4688 5.60648 15.4973 5.53816 15.5499L3.125 17.4091V15.8594C3.125 15.6437 2.95008 15.4688 2.73438 15.4688H1.17188C0.956484 15.4688 0.78125 15.2935 0.78125 15.0781V8.04688C0.78125 7.83148 0.956484 7.65625 1.17188 7.65625H12.3438C12.5591 7.65625 12.7344 7.83148 12.7344 8.04688V15.0781ZM19.2188 9.60938C19.2188 9.82477 19.0435 10 18.8281 10H13.5156V8.04688C13.5156 7.90992 13.4918 7.77852 13.4484 7.65625H15.7031C15.9188 7.65625 16.0938 7.48133 16.0938 7.26562C16.0938 7.04992 15.9188 6.875 15.7031 6.875C15.3897 6.875 7.57715 6.875 7.26562 6.875V2.57812C7.26562 2.36273 7.44086 2.1875 7.65625 2.1875H18.8281C19.0435 2.1875 19.2188 2.36273 19.2188 2.57812V9.60938Z" fill="url(#paint4_linear_276_24792)"/>
<path d="M17.2656 4.53125H9.21875C9.00305 4.53125 8.82812 4.70617 8.82812 4.92188C8.82812 5.13758 9.00305 5.3125 9.21875 5.3125H17.2656C17.4813 5.3125 17.6562 5.13758 17.6562 4.92188C17.6562 4.70617 17.4813 4.53125 17.2656 4.53125Z" fill="url(#paint5_linear_276_24792)"/>
<defs>
<linearGradient id="paint0_linear_276_24792" x1="17.0331" y1="7.53453" x2="17.5559" y2="7.10767" gradientUnits="userSpaceOnUse">
<stop stop-color="#088DB2"/>
<stop offset="1" stop-color="#32B8B2"/>
</linearGradient>
<linearGradient id="paint1_linear_276_24792" x1="10.5487" y1="13.0033" x2="11.0716" y2="12.5764" gradientUnits="userSpaceOnUse">
<stop stop-color="#088DB2"/>
<stop offset="1" stop-color="#32B8B2"/>
</linearGradient>
<linearGradient id="paint2_linear_276_24792" x1="4.13009" y1="10.6595" x2="4.24443" y2="9.60465" gradientUnits="userSpaceOnUse">
<stop stop-color="#088DB2"/>
<stop offset="1" stop-color="#32B8B2"/>
</linearGradient>
<linearGradient id="paint3_linear_276_24792" x1="3.81392" y1="13.0033" x2="3.95209" y2="11.9542" gradientUnits="userSpaceOnUse">
<stop stop-color="#088DB2"/>
<stop offset="1" stop-color="#32B8B2"/>
</linearGradient>
<linearGradient id="paint4_linear_276_24792" x1="4.04692" y1="15.916" x2="15.7715" y2="4.77746" gradientUnits="userSpaceOnUse">
<stop stop-color="#088DB2"/>
<stop offset="1" stop-color="#32B8B2"/>
</linearGradient>
<linearGradient id="paint5_linear_276_24792" x1="10.6145" y1="5.19078" x2="10.7288" y2="4.1359" gradientUnits="userSpaceOnUse">
<stop stop-color="#088DB2"/>
<stop offset="1" stop-color="#32B8B2"/>
</linearGradient>
</defs>
</svg>
