<svg width="25" height="24" viewBox="0 0 25 24" fill="none" xmlns="http://www.w3.org/2000/svg">
<circle cx="12.667" cy="12" r="9.75" fill="white"/>
<path fill-rule="evenodd" clip-rule="evenodd" d="M12.667 0C19.2934 0 24.667 5.37364 24.667 12C24.667 18.6264 19.2934 24 12.667 24C6.04063 24 0.666992 18.6264 0.666992 12C0.666992 5.37364 6.04063 0 12.667 0ZM6.6018 16.3435L10.9453 12L6.6018 7.65647C6.35263 7.40721 6.35263 7.00063 6.6018 6.75146L7.41846 5.9348C7.66762 5.68564 8.0742 5.68564 8.32346 5.9348L12.667 10.2783L17.0105 5.9348C17.2598 5.68564 17.6664 5.68564 17.9155 5.9348L18.7322 6.75146C18.9814 7.00063 18.9814 7.40721 18.7322 7.65647L14.3887 12L18.7322 16.3435C18.9814 16.5928 18.9814 16.9994 18.7322 17.2485L17.9155 18.0652C17.6664 18.3144 17.2598 18.3144 17.0105 18.0652L12.667 13.7217L8.32346 18.0652C8.0742 18.3144 7.66762 18.3144 7.41846 18.0652L6.6018 17.2485C6.35263 16.9994 6.35263 16.5928 6.6018 16.3435Z" fill="#FF4141"/>
</svg>
