<svg width="20" height="20" viewBox="0 0 20 20" fill="none" xmlns="http://www.w3.org/2000/svg">
<path d="M15.236 5.37719L9.97457 0.115781C9.90043 0.0416406 9.79992 0 9.69504 0H2.28125C1.3809 0 0.648438 0.732461 0.648438 1.63281V18.3672C0.648438 19.2675 1.3809 20 2.28125 20H13.7189C14.6193 20 15.3517 19.2675 15.3517 18.3672V5.65668C15.3517 5.55188 15.3101 5.45129 15.236 5.37719ZM10.0904 1.34957L14.0022 5.26133H10.9326C10.4682 5.26133 10.0904 4.88352 10.0904 4.41906V1.34957H10.0904ZM14.5612 18.3672C14.5612 18.8316 14.1834 19.2095 13.7189 19.2095H2.28125C1.81684 19.2095 1.43898 18.8316 1.43898 18.3672V1.63281C1.43898 1.1684 1.81684 0.790547 2.28125 0.790547H9.29977V4.41914C9.29977 5.31949 10.0322 6.05195 10.9325 6.05195H14.5612V18.3672Z" fill="url(#paint0_linear_276_24774)"/>
<path d="M11.1608 10.0391H4.83668C4.6184 10.0391 4.44141 10.2161 4.44141 10.4343C4.44141 10.6526 4.6184 10.8296 4.83668 10.8296H11.1608C11.3792 10.8296 11.5561 10.6526 11.5561 10.4343C11.5561 10.2161 11.3792 10.0391 11.1608 10.0391Z" fill="url(#paint1_linear_276_24774)"/>
<path d="M11.1608 11.8047H4.83668C4.6184 11.8047 4.44141 11.9817 4.44141 12.2C4.44141 12.4182 4.6184 12.5952 4.83668 12.5952H11.1608C11.3792 12.5952 11.5561 12.4182 11.5561 12.2C11.5561 11.9817 11.3792 11.8047 11.1608 11.8047Z" fill="url(#paint2_linear_276_24774)"/>
<path d="M11.1608 13.5703H4.83668C4.6184 13.5703 4.44141 13.7473 4.44141 13.9656C4.44141 14.1839 4.6184 14.3609 4.83668 14.3609H11.1608C11.3792 14.3609 11.5561 14.1839 11.5561 13.9656C11.5561 13.7473 11.3792 13.5703 11.1608 13.5703Z" fill="url(#paint3_linear_276_24774)"/>
<path d="M9.10547 15.3359H4.83668C4.6184 15.3359 4.44141 15.5129 4.44141 15.7312C4.44141 15.9495 4.6184 16.1265 4.83668 16.1265H9.10547C9.32383 16.1265 9.50074 15.9495 9.50074 15.7312C9.50074 15.5129 9.32383 15.3359 9.10547 15.3359Z" fill="url(#paint4_linear_276_24774)"/>
<defs>
<linearGradient id="paint0_linear_276_24774" x1="3.62359" y1="16.884" x2="15.6794" y2="9.64814" gradientUnits="userSpaceOnUse">
<stop stop-color="#088DB2"/>
<stop offset="1" stop-color="#32B8B2"/>
</linearGradient>
<linearGradient id="paint1_linear_276_24774" x1="5.88104" y1="10.7064" x2="6.02535" y2="9.64611" gradientUnits="userSpaceOnUse">
<stop stop-color="#088DB2"/>
<stop offset="1" stop-color="#32B8B2"/>
</linearGradient>
<linearGradient id="paint2_linear_276_24774" x1="5.88104" y1="12.4721" x2="6.02535" y2="11.4117" gradientUnits="userSpaceOnUse">
<stop stop-color="#088DB2"/>
<stop offset="1" stop-color="#32B8B2"/>
</linearGradient>
<linearGradient id="paint3_linear_276_24774" x1="5.88104" y1="14.2377" x2="6.02535" y2="13.1774" gradientUnits="userSpaceOnUse">
<stop stop-color="#088DB2"/>
<stop offset="1" stop-color="#32B8B2"/>
</linearGradient>
<linearGradient id="paint4_linear_276_24774" x1="5.46514" y1="16.0033" x2="5.66454" y2="14.9615" gradientUnits="userSpaceOnUse">
<stop stop-color="#088DB2"/>
<stop offset="1" stop-color="#32B8B2"/>
</linearGradient>
</defs>
</svg>
