<?xml version="1.0" encoding="UTF-8"?>
<svg version="1.1" xmlns="http://www.w3.org/2000/svg" width="400" height="400">
<path d="M0 0 C132 0 264 0 400 0 C400 132 400 264 400 400 C268 400 136 400 0 400 C0 268 0 136 0 0 Z " fill="#212222" transform="translate(0,0)"/>
<path d="M0 0 C0.7613324 -0.00817749 1.52266479 -0.01635498 2.30706787 -0.02478027 C4.8266929 -0.04959355 7.34626177 -0.06613932 9.8659668 -0.08056641 C10.7272991 -0.08589008 11.5886314 -0.09121376 12.47606468 -0.09669876 C17.03465255 -0.12341196 21.5932132 -0.14279318 26.15185547 -0.15722656 C29.92228433 -0.17056976 33.6921725 -0.19843148 37.46240234 -0.23925781 C42.01763295 -0.28858263 46.57237286 -0.31334717 51.12785912 -0.32045364 C52.8618016 -0.32716402 54.59573322 -0.34238066 56.32952309 -0.36634445 C58.75932348 -0.39801372 61.18723437 -0.39803106 63.6171875 -0.390625 C64.32961105 -0.40703033 65.04203461 -0.42343567 65.77604675 -0.44033813 C71.41624317 -0.37016805 73.67009884 1.36197169 77.50268555 5.19287109 C78.97924805 7.34912109 78.97924805 7.34912109 80.12768555 9.69287109 C83.12141419 15.51356897 86.31262812 21.20001541 89.56518555 26.88037109 C90.07194824 27.77111328 90.57871094 28.66185547 91.10083008 29.57958984 C93.77722695 34.26480951 96.53216947 38.87844838 99.41503906 43.43920898 C100.85709557 45.76430257 102.15773096 48.15165232 103.44018555 50.56787109 C105.92159496 55.19553852 108.59260665 59.66310545 111.40112305 64.09912109 C112.50268555 66.19287109 112.50268555 66.19287109 112.50268555 69.19287109 C110.25604293 70.51142204 108.00571249 71.82281082 105.75268555 73.13037109 C104.80135742 73.69014648 104.80135742 73.69014648 103.83081055 74.26123047 C100.73976923 76.04823873 97.98800886 77.44172383 94.50268555 78.19287109 C78.50268555 51.22053908 78.50268555 51.22053908 78.50268555 48.19287109 C77.84268555 48.19287109 77.18268555 48.19287109 76.50268555 48.19287109 C75.70604492 46.60345703 75.70604492 46.60345703 74.89331055 44.98193359 C74.18038147 43.59359802 73.46680588 42.2055943 72.75268555 40.81787109 C72.40463867 40.11919922 72.0565918 39.42052734 71.69799805 38.70068359 C69.19027327 33.83216386 69.19027327 33.83216386 64.50268555 31.19287109 C63.25268555 29.06787109 63.25268555 29.06787109 62.50268555 27.19287109 C61.84268555 28.51287109 61.18268555 29.83287109 60.50268555 31.19287109 C59.84268555 31.19287109 59.18268555 31.19287109 58.50268555 31.19287109 C58.17268555 32.18287109 57.84268555 33.17287109 57.50268555 34.19287109 C56.84268555 34.19287109 56.18268555 34.19287109 55.50268555 34.19287109 C55.17268555 35.51287109 54.84268555 36.83287109 54.50268555 38.19287109 C54.04893555 37.69787109 53.59518555 37.20287109 53.12768555 36.69287109 C51.62633036 34.96677773 51.62633036 34.96677773 49.50268555 35.19287109 C54.48532991 44.23945098 59.50756028 53.25907673 64.69018555 62.19287109 C65.34784912 63.33405396 65.34784912 63.33405396 66.01879883 64.49829102 C68.4656454 68.73235832 70.94763863 72.94118507 73.48442078 77.12213135 C74.88661444 79.43989646 76.27291071 81.76697378 77.65762329 84.09521484 C78.66714614 85.77943372 79.69737316 87.45118744 80.72802734 89.12255859 C86.62908772 99.07796392 86.62908772 99.07796392 86.11645508 105.00268555 C84.8364654 109.57022232 82.10152804 113.2809603 79.50268555 117.19287109 C78.47214917 118.96348126 77.45793598 120.74368605 76.4597168 122.53271484 C75.94884521 123.44102051 75.43797363 124.34932617 74.91162109 125.28515625 C74.38479736 126.22407715 73.85797363 127.16299805 73.31518555 128.13037109 C66.03924791 141.04377585 58.73547799 153.94565917 51.06518555 166.63037109 C50.16993164 168.1134375 50.16993164 168.1134375 49.2565918 169.62646484 C47.43637094 172.28990605 46.04285635 174.19183019 43.50268555 176.19287109 C40.78716516 176.57748278 38.48012562 176.72061139 35.76831055 176.67871094 C34.99386597 176.68250763 34.21942139 176.68630432 33.42150879 176.69021606 C30.86482068 176.69761777 28.30927244 176.67624538 25.75268555 176.65380859 C23.97436659 176.65142381 22.19604509 176.65051892 20.41772461 176.65103149 C16.69197806 176.64790414 12.9666165 176.63134412 9.2409668 176.60449219 C4.465898 176.57051245 -0.3087478 176.56286367 -5.08392334 176.56438255 C-8.75565629 176.56383861 -12.42729682 176.55286758 -16.09899902 176.53837967 C-17.85965272 176.53201662 -19.62031688 176.52807393 -21.38098145 176.52659225 C-23.8418154 176.52225398 -26.30220176 176.5047419 -28.76293945 176.48339844 C-29.85403015 176.484758 -29.85403015 176.484758 -30.96716309 176.48614502 C-34.6197899 176.43983934 -37.44680885 176.3072333 -40.49731445 174.19287109 C-42.21606445 171.89208984 -42.21606445 171.89208984 -43.99731445 168.88037109 C-44.49944458 168.03853271 -44.49944458 168.03853271 -45.01171875 167.1796875 C-46.18860733 165.19248652 -47.34486824 163.19434499 -48.49731445 161.19287109 C-48.94671387 160.41347168 -49.39611328 159.63407227 -49.85913086 158.83105469 C-52.3868909 154.43685221 -54.89919271 150.03403305 -57.40356445 145.62646484 C-60.34798843 140.44690495 -63.3224732 135.285274 -66.30981445 130.13037109 C-66.98778076 128.95849243 -66.98778076 128.95849243 -67.67944336 127.76293945 C-69.68353045 124.30284434 -71.69602843 120.84862239 -73.73950195 117.41162109 C-74.70243164 115.78740234 -74.70243164 115.78740234 -75.68481445 114.13037109 C-76.51045898 112.75171875 -76.51045898 112.75171875 -77.3527832 111.34521484 C-78.49731445 109.19287109 -78.49731445 109.19287109 -78.49731445 107.19287109 C-76.10945649 105.52077653 -73.74357717 103.99805314 -71.24731445 102.50537109 C-70.56540039 102.07675781 -69.88348633 101.64814453 -69.1809082 101.20654297 C-68.51704102 100.80628906 -67.85317383 100.40603516 -67.16918945 99.99365234 C-66.56171875 99.62409424 -65.95424805 99.25453613 -65.32836914 98.8737793 C-62.94276459 97.98665249 -61.82516507 98.20363874 -59.49731445 99.19287109 C-57.77784195 101.65141512 -56.31615461 104.0164332 -54.87231445 106.63037109 C-54.44499023 107.37939697 -54.01766602 108.12842285 -53.57739258 108.90014648 C-52.20138933 111.32246462 -50.84659871 113.7555774 -49.49731445 116.19287109 C-49.03357422 117.02947266 -48.56983398 117.86607422 -48.09204102 118.72802734 C-47.63023437 119.56205078 -47.16842773 120.39607422 -46.69262695 121.25537109 C-46.24097168 122.07078369 -45.78931641 122.88619629 -45.32397461 123.72631836 C-44.45146835 125.30739476 -43.5838079 126.89115669 -42.72143555 128.4777832 C-42.32778809 129.19716064 -41.93414062 129.91653809 -41.52856445 130.65771484 C-41.18374023 131.29314209 -40.83891602 131.92856934 -40.48364258 132.58325195 C-39.47349206 134.37233771 -39.47349206 134.37233771 -37.49731445 136.19287109 C-37.24981445 135.38849609 -37.00231445 134.58412109 -36.74731445 133.75537109 C-36.33481445 132.90974609 -35.92231445 132.06412109 -35.49731445 131.19287109 C-34.16398112 130.85953776 -32.83064779 130.52620443 -31.49731445 130.19287109 C-29.0346303 126.44020953 -29.34790991 122.91043253 -29.9621582 118.64599609 C-31.78155828 110.30597238 -36.0572124 103.36187968 -40.49731445 96.19287109 C-42.4808319 92.97837854 -44.43261675 89.74646739 -46.37231445 86.50537109 C-46.8731958 85.69720947 -47.37407715 84.88904785 -47.89013672 84.05639648 C-50.73386822 79.27225957 -52.33446044 75.91565596 -51.49731445 70.19287109 C-50.40356445 67.32177734 -50.40356445 67.32177734 -48.99731445 64.75537109 C-48.53325195 63.89041016 -48.06918945 63.02544922 -47.59106445 62.13427734 C-47.23012695 61.49361328 -46.86918945 60.85294922 -46.49731445 60.19287109 C-45.83731445 60.19287109 -45.17731445 60.19287109 -44.49731445 60.19287109 C-44.38121826 59.62785889 -44.26512207 59.06284668 -44.14550781 58.48071289 C-43.4263039 55.94223462 -42.39299911 53.90147834 -41.1262207 51.58740234 C-40.63927734 50.694646 -40.15233398 49.80188965 -39.65063477 48.88208008 C-39.12566406 47.93276611 -38.60069336 46.98345215 -38.05981445 46.00537109 C-37.52066406 45.0244751 -36.98151367 44.0435791 -36.42602539 43.03295898 C-31.6139429 34.32008743 -26.63076805 25.71966134 -21.49731445 17.19287109 C-21.11526855 16.55397949 -20.73322266 15.91508789 -20.33959961 15.25683594 C-19.25196875 13.44037546 -18.15756194 11.62823196 -17.05981445 9.81787109 C-16.13362305 8.29033203 -16.13362305 8.29033203 -15.1887207 6.73193359 C-11.02278301 0.4782165 -7.2631826 0.04306325 0 0 Z " fill="#212222" transform="translate(182.497314453125,111.80712890625)"/>
<path d="M0 0 C0.59425781 1.07894531 1.18851563 2.15789062 1.80078125 3.26953125 C6.19235061 11.22122584 10.62926658 19.14253049 15.1875 27 C15.84516357 28.14118286 15.84516357 28.14118286 16.51611328 29.30541992 C18.96295985 33.53948723 21.44495309 37.74831398 23.98173523 41.92926025 C25.3839289 44.24702537 26.77022516 46.57410268 28.15493774 48.90234375 C29.16446059 50.58656262 30.19468761 52.25831635 31.2253418 53.9296875 C37.12640217 63.88509282 37.12640217 63.88509282 36.61376953 69.80981445 C35.33377985 74.37735122 32.59884249 78.08808921 30 82 C28.96946363 83.77061016 27.95525043 85.55081495 26.95703125 87.33984375 C26.44615967 88.24814941 25.93528809 89.15645508 25.40893555 90.09228516 C24.88211182 91.03120605 24.35528809 91.97012695 23.8125 92.9375 C16.53656236 105.85090476 9.23279244 118.75278808 1.5625 131.4375 C0.66724609 132.92056641 0.66724609 132.92056641 -0.24609375 134.43359375 C-2.0663146 137.09703495 -3.4598292 138.99895909 -6 141 C-8.71552039 141.38461169 -11.02255993 141.52774029 -13.734375 141.48583984 C-14.50881958 141.48963654 -15.28326416 141.49343323 -16.08117676 141.49734497 C-18.63786487 141.50474668 -21.19341311 141.48337429 -23.75 141.4609375 C-25.52831895 141.45855271 -27.30664046 141.45764783 -29.08496094 141.4581604 C-32.81070749 141.45503305 -36.53606905 141.43847302 -40.26171875 141.41162109 C-45.03678755 141.37764136 -49.81143335 141.36999258 -54.58660889 141.37151146 C-58.25834184 141.37096752 -61.92998237 141.35999648 -65.60168457 141.34550858 C-67.36233826 141.33914553 -69.12300242 141.33520283 -70.88366699 141.33372116 C-73.34450095 141.32938289 -75.80488731 141.3118708 -78.265625 141.29052734 C-79.3567157 141.2918869 -79.3567157 141.2918869 -80.46984863 141.29327393 C-84.12247544 141.24696825 -86.94949439 141.11436221 -90 139 C-91.71875 136.69921875 -91.71875 136.69921875 -93.5 133.6875 C-94.00213013 132.84566162 -94.00213013 132.84566162 -94.5144043 131.98681641 C-95.69129287 129.99961542 -96.84755378 128.00147389 -98 126 C-98.44939941 125.22060059 -98.89879883 124.44120117 -99.36181641 123.63818359 C-101.88957645 119.24398111 -104.40187826 114.84116195 -106.90625 110.43359375 C-109.85067398 105.25403386 -112.82515875 100.0924029 -115.8125 94.9375 C-116.49046631 93.76562134 -116.49046631 93.76562134 -117.18212891 92.57006836 C-119.186216 89.10997325 -121.19871398 85.65575129 -123.2421875 82.21875 C-124.20511719 80.59453125 -124.20511719 80.59453125 -125.1875 78.9375 C-126.01314453 77.55884766 -126.01314453 77.55884766 -126.85546875 76.15234375 C-128 74 -128 74 -128 72 C-125.61214204 70.32790543 -123.24626272 68.80518205 -120.75 67.3125 C-120.06808594 66.88388672 -119.38617188 66.45527344 -118.68359375 66.01367188 C-118.01972656 65.61341797 -117.35585937 65.21316406 -116.671875 64.80078125 C-116.0644043 64.43122314 -115.45693359 64.06166504 -114.83105469 63.6809082 C-112.44545014 62.79378139 -111.32785061 63.01076765 -109 64 C-107.2804203 66.45869729 -105.81890285 68.82340906 -104.375 71.4375 C-103.9433252 72.19450195 -103.51165039 72.95150391 -103.06689453 73.73144531 C-101.69575887 76.14595512 -100.34512968 78.57091676 -99 81 C-98.35224609 82.16716553 -98.35224609 82.16716553 -97.69140625 83.35791016 C-95.99902567 86.41023942 -94.30838285 89.46349977 -92.62402344 92.52026367 C-88.3271038 100.28823023 -83.80949295 107.91884182 -78.7734375 115.234375 C-77 118 -77 118 -77 120 C-69.27197534 120.40509487 -61.55044224 120.68127734 -53.81332111 120.80052853 C-50.21749106 120.85984801 -46.63360521 120.96061633 -43.04272461 121.16235352 C-27.31855568 122.50948389 -27.31855568 122.50948389 -13.48431396 116.82403564 C-9.25202172 111.39117878 -6.70656715 105.41505732 -4.28134155 99.01556396 C-2.13283856 93.95918521 0.94866131 89.54621477 4 85 C5.71454549 82.23449401 7.37065378 79.44136133 9 76.625 C9.40605469 75.95339844 9.81210938 75.28179687 10.23046875 74.58984375 C11.81108161 71.84400092 12.99683653 69.68225574 13.01171875 66.47265625 C11.60804566 63.04205753 9.77373262 59.94379296 7.8125 56.8125 C7.20184692 55.81621582 7.20184692 55.81621582 6.57885742 54.79980469 C5.7638298 53.47037042 4.94593397 52.14268974 4.125 50.81689453 C0.10096139 44.31800231 -3.7158372 37.74273756 -7.3515625 31.01953125 C-9.2869769 27.47432904 -11.2584316 23.95139549 -13.25 20.4375 C-13.59144043 19.82938477 -13.93288086 19.22126953 -14.28466797 18.59472656 C-15.69755327 16.11215557 -16.9698397 14.0301603 -19 12 C-19 11.01 -19 10.02 -19 9 C-16.40011448 7.49212623 -13.79559803 5.99354539 -11.1875 4.5 C-10.44951172 4.07074219 -9.71152344 3.64148438 -8.95117188 3.19921875 C-7.88286133 2.59013672 -7.88286133 2.59013672 -6.79296875 1.96875 C-6.1383667 1.59169922 -5.48376465 1.21464844 -4.80932617 0.82617188 C-3 0 -3 0 0 0 Z " fill="#07D0DA" transform="translate(232,147)"/>
<path d="M0 0 C0.7613324 -0.00817749 1.52266479 -0.01635498 2.30706787 -0.02478027 C4.8266929 -0.04959355 7.34626177 -0.06613932 9.8659668 -0.08056641 C10.7272991 -0.08589008 11.5886314 -0.09121376 12.47606468 -0.09669876 C17.03465255 -0.12341196 21.5932132 -0.14279318 26.15185547 -0.15722656 C29.92228433 -0.17056976 33.6921725 -0.19843148 37.46240234 -0.23925781 C42.01763295 -0.28858263 46.57237286 -0.31334717 51.12785912 -0.32045364 C52.8618016 -0.32716402 54.59573322 -0.34238066 56.32952309 -0.36634445 C58.75932348 -0.39801372 61.18723437 -0.39803106 63.6171875 -0.390625 C64.68582283 -0.415233 64.68582283 -0.415233 65.77604675 -0.44033813 C71.41624317 -0.37016805 73.67009884 1.36197169 77.50268555 5.19287109 C78.97924805 7.34912109 78.97924805 7.34912109 80.12768555 9.69287109 C83.12141419 15.51356897 86.31262812 21.20001541 89.56518555 26.88037109 C90.07194824 27.77111328 90.57871094 28.66185547 91.10083008 29.57958984 C93.77722695 34.26480951 96.53216947 38.87844838 99.41503906 43.43920898 C100.85709557 45.76430257 102.15773096 48.15165232 103.44018555 50.56787109 C105.92159496 55.19553852 108.59260665 59.66310545 111.40112305 64.09912109 C112.50268555 66.19287109 112.50268555 66.19287109 112.50268555 69.19287109 C110.25604293 70.51142204 108.00571249 71.82281082 105.75268555 73.13037109 C104.80135742 73.69014648 104.80135742 73.69014648 103.83081055 74.26123047 C100.73976923 76.04823873 97.98800886 77.44172383 94.50268555 78.19287109 C78.50268555 51.22053908 78.50268555 51.22053908 78.50268555 48.19287109 C77.84268555 48.19287109 77.18268555 48.19287109 76.50268555 48.19287109 C75.74084961 46.76007813 75.74084961 46.76007813 74.96362305 45.29833984 C74.26833974 43.99233472 73.57302555 42.68634604 72.87768555 41.38037109 C72.54639648 40.75710937 72.21510742 40.13384766 71.8737793 39.49169922 C69.7238965 35.4555985 67.54794557 31.43445817 65.35668945 27.4206543 C64.82089264 26.4390181 64.28509583 25.4573819 63.73306274 24.44599915 C63.32703827 23.70246689 62.92101379 22.95893463 62.50268555 22.19287109 C54.52288944 21.96075645 46.54451134 21.78329588 38.56217003 21.67474937 C34.85509083 21.62263886 31.15032654 21.55203052 27.44458008 21.43847656 C23.86523532 21.32948743 20.28810972 21.26996869 16.70723343 21.24409866 C15.34420437 21.22567617 13.98129181 21.18969281 12.6192131 21.13557053 C8.40227555 20.97473694 4.55991063 20.97434368 0.50268555 22.19287109 C-2.43729004 25.18398141 -3.94974422 28.33289095 -5.49731445 32.19287109 C-6.06579102 33.20478516 -6.63426758 34.21669922 -7.2199707 35.25927734 C-7.88319336 36.49484375 -7.88319336 36.49484375 -8.55981445 37.75537109 C-10.38859839 41.14554497 -12.23548592 44.52216251 -14.12231445 47.88037109 C-16.37790812 51.92438045 -18.45688019 56.03643092 -20.49731445 60.19287109 C-21.15731445 60.19287109 -21.81731445 60.19287109 -22.49731445 60.19287109 C-22.74481445 60.87349609 -22.99231445 61.55412109 -23.24731445 62.25537109 C-24.26082581 64.63712279 -25.32828372 66.57741171 -26.68481445 68.75537109 C-28.70841435 71.8784144 -28.70841435 71.8784144 -28.37231445 74.44287109 C-27.40945652 76.45902896 -27.40945652 76.45902896 -25.49731445 79.19287109 C-25.49731445 80.18287109 -25.49731445 81.17287109 -25.49731445 82.19287109 C-24.83731445 82.19287109 -24.17731445 82.19287109 -23.49731445 82.19287109 C-21.34009545 85.91556107 -19.19857829 89.64705244 -17.05981445 93.38037109 C-16.4481543 94.43546875 -15.83649414 95.49056641 -15.20629883 96.57763672 C-14.33134766 98.11000977 -14.33134766 98.11000977 -13.4387207 99.67333984 C-12.89932861 100.61072998 -12.35993652 101.54812012 -11.80419922 102.51391602 C-10.53364496 105.11839797 -9.91606207 107.33859679 -9.49731445 110.19287109 C-8.83731445 110.19287109 -8.17731445 110.19287109 -7.49731445 110.19287109 C-5.65715947 113.48076889 -3.82636398 116.77378436 -1.99731445 120.06787109 C-1.47266602 121.00501953 -0.94801758 121.94216797 -0.4074707 122.90771484 C0.08881836 123.80361328 0.58510742 124.69951172 1.09643555 125.62255859 C1.55727539 126.44997559 2.01811523 127.27739258 2.49291992 128.12988281 C3.50268555 130.19287109 3.50268555 130.19287109 3.50268555 132.19287109 C1.25604293 133.51142204 -0.99428751 134.82281082 -3.24731445 136.13037109 C-3.8815332 136.50355469 -4.51575195 136.87673828 -5.16918945 137.26123047 C-8.26023077 139.04823873 -11.01199114 140.44172383 -14.49731445 141.19287109 C-21.41877763 129.50907374 -28.20574888 117.75344916 -34.92553711 105.95263672 C-37.63372534 101.19753269 -40.34652802 96.44506729 -43.05981445 91.69287109 C-43.5604541 90.81469727 -44.06109375 89.93652344 -44.5769043 89.03173828 C-45.04692871 88.20834961 -45.51695312 87.38496094 -46.0012207 86.53662109 C-46.43644043 85.77325439 -46.87166016 85.0098877 -47.32006836 84.22338867 C-48.28299834 82.56252416 -49.28860367 80.92646654 -50.3059082 79.29833984 C-52.16113233 76.01976344 -51.98611568 73.91998043 -51.49731445 70.19287109 C-50.04162396 66.73560617 -48.33770462 63.45956364 -46.49731445 60.19287109 C-45.83731445 60.19287109 -45.17731445 60.19287109 -44.49731445 60.19287109 C-44.38121826 59.62785889 -44.26512207 59.06284668 -44.14550781 58.48071289 C-43.4263039 55.94223462 -42.39299911 53.90147834 -41.1262207 51.58740234 C-40.63927734 50.694646 -40.15233398 49.80188965 -39.65063477 48.88208008 C-39.12566406 47.93276611 -38.60069336 46.98345215 -38.05981445 46.00537109 C-37.52066406 45.0244751 -36.98151367 44.0435791 -36.42602539 43.03295898 C-31.6139429 34.32008743 -26.63076805 25.71966134 -21.49731445 17.19287109 C-21.11526855 16.55397949 -20.73322266 15.91508789 -20.33959961 15.25683594 C-19.25196875 13.44037546 -18.15756194 11.62823196 -17.05981445 9.81787109 C-16.13362305 8.29033203 -16.13362305 8.29033203 -15.1887207 6.73193359 C-11.02278301 0.4782165 -7.2631826 0.04306325 0 0 Z " fill="#996CF7" transform="translate(182.497314453125,111.80712890625)"/>
<path d="M0 0 C2.475 0.495 2.475 0.495 5 1 C5 1.66 5 2.32 5 3 C31.07 3.33 57.14 3.66 84 4 C84 3.34 84 2.68 84 2 C84.99 2 85.98 2 87 2 C87 1.34 87 0.68 87 0 C87.99 0.33 88.98 0.66 90 1 C88.48339844 3.46253967 88.48339844 3.46253967 86 6 C83.21683429 6.49005855 81.04464738 6.65603993 78.265625 6.59936523 C77.49118042 6.60330795 76.71673584 6.60725067 75.91882324 6.61131287 C73.36188825 6.61801933 70.80674355 6.5888699 68.25 6.55859375 C66.47168321 6.55434289 64.69336087 6.55201499 62.91503906 6.55152893 C59.18919708 6.54536375 55.46395633 6.52266585 51.73828125 6.48706055 C46.96320126 6.44178804 42.1886659 6.42703457 37.41339111 6.42332363 C33.7416446 6.41889385 30.07001233 6.4035879 26.39831543 6.3844471 C24.63766418 6.37556953 22.87700076 6.36883728 21.11633301 6.36428642 C18.65547227 6.35523882 16.19510253 6.33284371 13.734375 6.30639648 C13.0069812 6.30573181 12.2795874 6.30506714 11.53015137 6.30438232 C7.88833133 6.25039168 5.03795809 6.12153027 2 4 C0.75 1.875 0.75 1.875 0 0 Z " fill="#16BBC4" transform="translate(140,282)"/>
<path d="M0 0 C0.77097015 -0.00014603 1.54194031 -0.00029205 2.33627319 -0.0004425 C4.88477389 0.0002542 7.43320152 0.00803529 9.98168945 0.01586914 C11.74860087 0.01773418 13.51551281 0.01915768 15.28242493 0.02015686 C19.93325223 0.02397527 24.58404831 0.03379981 29.23486328 0.04486084 C33.98054583 0.05508948 38.72623343 0.0596576 43.47192383 0.06469727 C52.7837865 0.07542266 62.09562601 0.092491 71.4074707 0.11352539 C71.4074707 0.44352539 71.4074707 0.77352539 71.4074707 1.11352539 C66.7874707 1.44352539 62.1674707 1.77352539 57.4074707 2.11352539 C57.4074707 2.44352539 57.4074707 2.77352539 57.4074707 3.11352539 C35.2974707 3.44352539 13.1874707 3.77352539 -9.5925293 4.11352539 C-9.5925293 4.77352539 -9.5925293 5.43352539 -9.5925293 6.11352539 C-10.5825293 6.11352539 -11.5725293 6.11352539 -12.5925293 6.11352539 C-12.9225293 7.10352539 -13.2525293 8.09352539 -13.5925293 9.11352539 C-14.2525293 9.11352539 -14.9125293 9.11352539 -15.5925293 9.11352539 C-14.41444878 5.76052699 -13.39846317 3.35827249 -10.5925293 1.11352539 C-6.9998987 -0.08401814 -3.73796323 -0.01846214 0 0 Z " fill="#8760D1" transform="translate(182.592529296875,111.886474609375)"/>
<path d="M0 0 C1.28027344 1.45874023 1.28027344 1.45874023 2.359375 3.30859375 C2.75253906 3.97310547 3.14570312 4.63761719 3.55078125 5.32226562 C3.94652344 6.02029297 4.34226562 6.71832031 4.75 7.4375 C5.16121094 8.13166016 5.57242188 8.82582031 5.99609375 9.54101562 C9 14.69555907 9 14.69555907 9 17 C8.01 17 7.02 17 6 17 C6 15.68 6 14.36 6 13 C5.34 13 4.68 13 4 13 C3.34 11.68 2.68 10.36 2 9 C1.46375 9.144375 0.9275 9.28875 0.375 9.4375 C-2.42667138 10.10105375 -5.13449393 10.68853195 -8 11 C-8.66 10.34 -9.32 9.68 -10 9 C-10.33 9.66 -10.66 10.32 -11 11 C-11.66 11 -12.32 11 -13 11 C-13 10.01 -13 9.02 -13 8 C-15.51083114 9.25541557 -15.87125446 10.50063488 -17 13 C-17.66 11.35 -18.32 9.7 -19 8 C-16.59205692 6.46358856 -14.17531353 4.94603605 -11.75 3.4375 C-11.06808594 2.99986328 -10.38617188 2.56222656 -9.68359375 2.11132812 C-9.01972656 1.70205078 -8.35585937 1.29277344 -7.671875 0.87109375 C-7.0644043 0.48880615 -6.45693359 0.10651855 -5.83105469 -0.28735352 C-3.43637837 -1.21936154 -2.34616387 -1.00763199 0 0 Z " fill="#12C5CD" transform="translate(123,211)"/>
<path d="M0 0 C20.46 0 40.92 0 62 0 C63.65 2.97 65.3 5.94 67 9 C66.67 9.66 66.34 10.32 66 11 C64 10 64 10 63.125 7.5625 C62.24945527 4.94704675 62.24945527 4.94704675 60.29656982 3.85403442 C57.4496541 2.79534071 55.16807877 2.75996548 52.12988281 2.77294922 C50.94896057 2.77310028 49.76803833 2.77325134 48.55133057 2.77340698 C47.28142273 2.78372955 46.01151489 2.79405212 44.703125 2.8046875 C43.39921814 2.8075174 42.09531128 2.81034729 40.75189209 2.81326294 C37.2929105 2.82088279 33.83409807 2.84051692 30.37518311 2.8626709 C26.84259326 2.88316497 23.30997597 2.89227226 19.77734375 2.90234375 C12.85149321 2.92376452 5.92575474 2.95788044 -1 3 C-0.67 2.01 -0.34 1.02 0 0 Z " fill="#261D33" transform="translate(183,133)"/>
<path d="M0 0 C0.66 0.33 1.32 0.66 2 1 C1.67 1.66 1.34 2.32 1 3 C0.34 3 -0.32 3 -1 3 C-1.33 3.99 -1.66 4.98 -2 6 C-3.98 6.33 -5.96 6.66 -8 7 C-8 7.66 -8 8.32 -8 9 C-7.34 9 -6.68 9 -6 9 C-6 9.66 -6 10.32 -6 11 C-6.66 11 -7.32 11 -8 11 C-8 12.98 -8 14.96 -8 17 C-7.01 17.33 -6.02 17.66 -5 18 C-4.4375 19.875 -4.4375 19.875 -4 22 C-3.34 22.99 -2.68 23.98 -2 25 C-2 25.99 -2 26.98 -2 28 C-1.34 28 -0.68 28 0 28 C0.0825 28.78375 0.165 29.5675 0.25 30.375 C0.72806339 33.14749104 0.72806339 33.14749104 3.0625 34.3125 C3.701875 34.539375 4.34125 34.76625 5 35 C5 35.66 5 36.32 5 37 C3.515 37.495 3.515 37.495 2 38 C1.6596875 37.36835938 1.319375 36.73671875 0.96875 36.0859375 C-2.05347046 30.50769017 -5.12340188 24.95781017 -8.25 19.4375 C-8.59095703 18.83019043 -8.93191406 18.22288086 -9.28320312 17.59716797 C-10.69662969 15.1138365 -11.96917021 13.03082979 -14 11 C-14 10.01 -14 9.02 -14 8 C-11.7136988 6.63597957 -9.42178251 5.28365726 -7.125 3.9375 C-6.47402344 3.54755859 -5.82304687 3.15761719 -5.15234375 2.75585938 C-3.46934275 1.77555467 -1.73703801 0.88101568 0 0 Z " fill="#15C0C4" transform="translate(227,148)"/>
<path d="M0 0 C0.99 0.66 1.98 1.32 3 2 C3 2.66 3 3.32 3 4 C3.66 4 4.32 4 5 4 C4.67 5.32 4.34 6.64 4 8 C3.67 7.34 3.34 6.68 3 6 C2.34 6 1.68 6 1 6 C3.35755448 11.86744096 3.35755448 11.86744096 7 17 C7.33 17 7.66 17 8 17 C8 18.98 8 20.96 8 23 C8.66 23.33 9.32 23.66 10 24 C9.01 24 8.02 24 7 24 C5.3264663 21.04550087 3.66236015 18.0857982 2 15.125 C1.52304688 14.28324219 1.04609375 13.44148437 0.5546875 12.57421875 C0.10351562 11.76855469 -0.34765625 10.96289062 -0.8125 10.1328125 C-1.23144531 9.38918457 -1.65039062 8.64555664 -2.08203125 7.87939453 C-3 6 -3 6 -3 4 C-2.34 3.67 -1.68 3.34 -1 3 C-0.67 2.01 -0.34 1.02 0 0 Z " fill="#26212E" transform="translate(163,192)"/>
<path d="M0 0 C20.46 0 40.92 0 62 0 C62 0.99 62 1.98 62 3 C61.505 2.505 61.505 2.505 61 2 C59.17486539 1.90095357 57.34588603 1.87200797 55.51806641 1.87060547 C53.76086777 1.86587723 53.76086777 1.86587723 51.96817017 1.86105347 C50.69218964 1.8630777 49.41620911 1.86510193 48.1015625 1.8671875 C46.80052582 1.86623077 45.49948914 1.86527405 44.1590271 1.86428833 C41.39995136 1.86281132 38.64090793 1.8649653 35.88183594 1.86962891 C32.34536974 1.87531503 28.80897963 1.87205433 25.27251625 1.86605644 C21.90302559 1.86157159 18.53355533 1.86471336 15.1640625 1.8671875 C13.89213043 1.86516327 12.62019836 1.86313904 11.3097229 1.86105347 C9.54306778 1.86578171 9.54306778 1.86578171 7.74072266 1.87060547 C6.70227203 1.87140106 5.66382141 1.87219666 4.59390259 1.87301636 C1.88420731 1.88889612 1.88420731 1.88889612 -1 3 C-0.67 2.01 -0.34 1.02 0 0 Z " fill="#342158" transform="translate(183,133)"/>
<path d="M0 0 C0.66 0 1.32 0 2 0 C1.67 0.99 1.34 1.98 1 3 C-19.13 3 -39.26 3 -60 3 C-60 2.67 -60 2.34 -60 2 C-58.89459618 1.9845388 -58.89459618 1.9845388 -57.76686096 1.96876526 C-50.83578924 1.87095357 -43.90480098 1.76846284 -36.97387791 1.66066074 C-33.41027032 1.60539973 -29.84665457 1.55197482 -26.28295898 1.50268555 C-22.18984755 1.44599468 -18.0968939 1.38142682 -14.00390625 1.31640625 C-12.07581871 1.29133751 -12.07581871 1.29133751 -10.10877991 1.26576233 C-8.92763107 1.24581711 -7.74648224 1.22587189 -6.52954102 1.20532227 C-5.48363297 1.18977798 -4.43772491 1.1742337 -3.36012268 1.15821838 C-1.04359303 1.26300176 -1.04359303 1.26300176 0 0 Z " fill="#013F44" transform="translate(215,264)"/>
<path d="M0 0 C0.99 0.33 1.98 0.66 3 1 C2.42167939 4.69659593 1.41354556 7.41904093 -0.46875 10.64453125 C-0.95730469 11.48564453 -1.44585937 12.32675781 -1.94921875 13.19335938 C-2.46097656 14.05767578 -2.97273437 14.92199219 -3.5 15.8125 C-4.01175781 16.69615234 -4.52351562 17.57980469 -5.05078125 18.49023438 C-7.8434496 23.26134983 -7.8434496 23.26134983 -9 25 C-9.33 25 -9.66 25 -10 25 C-10 23.35 -10 21.7 -10 20 C-9.34 20 -8.68 20 -8 20 C-7.67 17.69 -7.34 15.38 -7 13 C-6.01 13 -5.02 13 -4 13 C-3.67 11.02 -3.34 9.04 -3 7 C-2.34 7 -1.68 7 -1 7 C-0.67 4.69 -0.34 2.38 0 0 Z " fill="#0D3338" transform="translate(227,239)"/>
<path d="M0 0 C2.74945503 1.37472752 3.21650455 3.02743338 4.625 5.75 C8.13174016 12.35551798 12.03147816 18.6644664 16 25 C15.34 25.33 14.68 25.66 14 26 C14 25.34 14 24.68 14 24 C13.38125 23.9175 12.7625 23.835 12.125 23.75 C10 23 10 23 8.75 21.1875 C8 19 8 19 8 15 C7.34 15 6.68 15 6 15 C5.67 13.35 5.34 11.7 5 10 C4.34 10 3.68 10 3 10 C2.01 6.7 1.02 3.4 0 0 Z " fill="#093D47" transform="translate(127,261)"/>
<path d="M0 0 C0.99 0 1.98 0 3 0 C3.33066282 5.62126801 3.38198552 9.26522027 0 14 C-0.69579454 16.19130534 -0.69579454 16.19130534 -1 18 C-1.66 18 -2.32 18 -3 18 C-3 18.66 -3 19.32 -3 20 C-3.99 20.33 -4.98 20.66 -6 21 C-5.43749758 16.95430952 -4.15782072 14.42302445 -1.875 11.0625 C0.64720583 7.07432271 0.64720583 7.07432271 0.875 2.375 C0.58625 1.59125 0.2975 0.8075 0 0 Z " fill="#16C2C7" transform="translate(244,210)"/>
<path d="M0 0 C3.24822479 2.77687356 5.12183056 6.39061382 7.1875 10.0625 C7.55552734 10.69994141 7.92355469 11.33738281 8.30273438 11.99414062 C11 16.74312964 11 16.74312964 11 19 C10.01 18.67 9.02 18.34 8 18 C7.3125 15.9375 7.3125 15.9375 7 14 C6.01 14.33 5.02 14.66 4 15 C3.34 12.69 2.68 10.38 2 8 C1.34 8 0.68 8 0 8 C0 5.36 0 2.72 0 0 Z " fill="#123238" transform="translate(232,191)"/>
<path d="M0 0 C0.66 0.33 1.32 0.66 2 1 C-1.78284727 8.15143461 -5.60205083 15.20316946 -10 22 C-10.33 20.68 -10.66 19.36 -11 18 C-10.34 18 -9.68 18 -9 18 C-8.91363281 17.33613281 -8.82726562 16.67226562 -8.73828125 15.98828125 C-7.79467011 10.05824792 -6.79431868 6.95531291 -2 3 C-1.34 2.01 -0.68 1.02 0 0 Z " fill="#0C3A41" transform="translate(242,218)"/>
<path d="M0 0 C0.66 0 1.32 0 2 0 C1.855625 1.2375 1.71125 2.475 1.5625 3.75 C1.48709841 9.67844973 4.40296979 13.66769073 7.56640625 18.49609375 C8.03949219 19.32238281 8.51257813 20.14867187 9 21 C8 23 8 23 6 24 C5.731875 23.030625 5.46375 22.06125 5.1875 21.0625 C4.795625 20.051875 4.40375 19.04125 4 18 C3.01 17.67 2.02 17.34 1 17 C-0.22517308 11.33357449 -0.09228867 5.76291482 0 0 Z " fill="#32234B" transform="translate(130,180)"/>
<path d="M0 0 C1.32 0 2.64 0 4 0 C4 1.65 4 3.3 4 5 C4.66 5 5.32 5 6 5 C6.33 6.65 6.66 8.3 7 10 C7.66 10 8.32 10 9 10 C9.33 11.65 9.66 13.3 10 15 C10.66 15 11.32 15 12 15 C12.66 17.64 13.32 20.28 14 23 C11.222528 21.611264 10.69198328 19.86166719 9.25 17.125 C8.72664062 16.14144531 8.20328125 15.15789062 7.6640625 14.14453125 C7.11492187 13.10683594 6.56578125 12.06914062 6 11 C4.87784712 8.93594957 3.75299527 6.87336339 2.625 4.8125 C1.75 3.20833333 0.875 1.60416667 0 0 Z " fill="#0C353B" transform="translate(122,210)"/>
<path d="M0 0 C1 2 1 2 0.5 5.25 C0.01088887 8.91833344 0.22122399 11.41763036 1 15 C1.185625 15.94875 1.37125 16.8975 1.5625 17.875 C1.706875 18.57625 1.85125 19.2775 2 20 C1.67 19.34 1.34 18.68 1 18 C0.34 18 -0.32 18 -1 18 C-4.62950257 11.05660377 -4.62950257 11.05660377 -5 8 C-4.00390625 5.859375 -4.00390625 5.859375 -2.5625 3.75 C-2.08941406 3.04359375 -1.61632812 2.3371875 -1.12890625 1.609375 C-0.75636719 1.07828125 -0.38382813 0.5471875 0 0 Z " fill="#362651" transform="translate(158,176)"/>
<path d="M0 0 C3.77518545 1.25839515 4.19759138 2.55903808 6 6 C6.33 6.99 6.66 7.98 7 9 C7.99 8.67 8.98 8.34 10 8 C10.33 11.63 10.66 15.26 11 19 C8.29372244 15.39162992 6.0261609 11.72343435 3.8125 7.8125 C3.44447266 7.17119141 3.07644531 6.52988281 2.69726562 5.86914062 C0 1.13016002 0 1.13016002 0 0 Z " fill="#122D30" transform="translate(250,179)"/>
<path d="M0 0 C3.06793067 2.93454238 4.17951133 4.79934328 4.375 9.0625 C4.35698823 14.61012632 1.99815549 18.47064367 -1 23 C-1.66 22.67 -2.32 22.34 -3 22 C-3 21.34 -3 20.68 -3 20 C-2.34 20 -1.68 20 -1 20 C-0.67 18.02 -0.34 16.04 0 14 C0.99 13.67 1.98 13.34 3 13 C3 11.35 3 9.7 3 8 C2.34 8 1.68 8 1 8 C0.67 5.36 0.34 2.72 0 0 Z " fill="#1BBEC1" transform="translate(264,205)"/>
<path d="M0 0 C2.15377564 2.62198774 3.40072174 4.64404172 4 8 C4.66 8 5.32 8 6 8 C9 13.75 9 13.75 9 16 C7.68 16 6.36 16 5 16 C4.67 14.35 4.34 12.7 4 11 C3.01 11.495 3.01 11.495 2 12 C0.70756464 7.8803623 -0.26252625 4.33168317 0 0 Z " fill="#291F39" transform="translate(255,152)"/>
<path d="M0 0 C4.15633047 3.54057781 6.78130023 8.06248371 9 13 C9 13.99 9 14.98 9 16 C5.83884224 14.63016497 5.0072908 14.0109362 3 11 C3 9.68 3 8.36 3 7 C2.34 7 1.68 7 1 7 C0.67 4.69 0.34 2.38 0 0 Z " fill="#1CB1B5" transform="translate(145,251)"/>
<path d="M0 0 C1.32 0 2.64 0 4 0 C4.81756238 2.06049855 5.62884734 4.12348853 6.4375 6.1875 C7.11619141 7.91033203 7.11619141 7.91033203 7.80859375 9.66796875 C8.81093301 12.47123233 9.52012795 15.07112576 10 18 C7.47310806 14.78112842 5.38057026 11.40415973 3.3125 7.875 C2.68988281 6.82054687 2.06726563 5.76609375 1.42578125 4.6796875 C0 2 0 2 0 0 Z " fill="#17BFC2" transform="translate(126,257)"/>
<path d="M0 0 C2.48982535 2.27745789 4.10368997 4.62335238 5.75 7.5625 C6.19859375 8.34753906 6.6471875 9.13257813 7.109375 9.94140625 C7.40328125 10.62074219 7.6971875 11.30007812 8 12 C7.67 12.66 7.34 13.32 7 14 C4.0625 13.1875 4.0625 13.1875 1 11 C0.14178903 7.34045888 0.01273347 3.75000564 0 0 Z " fill="#302541" transform="translate(152,226)"/>
<path d="M0 0 C4.55384615 -0.36923077 4.55384615 -0.36923077 6.8125 1.5 C7.204375 1.995 7.59625 2.49 8 3 C8.33 2.01 8.66 1.02 9 0 C9.66 0 10.32 0 11 0 C11 1.65 11 3.3 11 5 C10.01 5.495 10.01 5.495 9 6 C7.86649466 8.01669827 7.86649466 8.01669827 7 10 C3 3.25 3 3.25 3 1 C2.01 0.67 1.02 0.34 0 0 Z " fill="#162D2E" transform="translate(229,146)"/>
<path d="M0 0 C-0.18433594 0.57234375 -0.36867187 1.1446875 -0.55859375 1.734375 C-1.05605939 4.28773847 -0.76634248 5.76585006 -0.0625 8.25 C0.4634375 10.10625 0.4634375 10.10625 1 12 C1.66 12 2.32 12 3 12 C3.33 13.98 3.66 15.96 4 18 C0.95591696 14.43312878 -1.21082201 10.90489084 -3.25 6.6875 C-4.03117188 5.08455078 -4.03117188 5.08455078 -4.828125 3.44921875 C-5.21484375 2.64097656 -5.6015625 1.83273438 -6 1 C-3.92446352 0.4465236 -2.15634036 0 0 0 Z " fill="#103840" transform="translate(142,233)"/>
<path d="M0 0 C4.04191465 4.49101628 6.43674441 9.58984989 9 15 C8.01 15 7.02 15 6 15 C3 10.77777778 3 10.77777778 3 8 C2.34 7.67 1.68 7.34 1 7 C1.33 6.01 1.66 5.02 2 4 C1.34 4 0.68 4 0 4 C0 2.68 0 1.36 0 0 Z " fill="#2F2145" transform="translate(264,168)"/>
<path d="M0 0 C0 0.66 0 1.32 0 2 C-0.66 2 -1.32 2 -2 2 C-2 3.98 -2 5.96 -2 8 C-3.32 8.33 -4.64 8.66 -6 9 C-5.67 8.01 -5.34 7.02 -5 6 C-6.98 6 -8.96 6 -11 6 C-8.24029211 2.78034079 -4.3526723 0 0 0 Z " fill="#322746" transform="translate(292,183)"/>
<path d="M0 0 C-6.75 4 -6.75 4 -9 4 C-8.484375 4.78375 -7.96875 5.5675 -7.4375 6.375 C-6.963125 7.24125 -6.48875 8.1075 -6 9 C-6.33 9.66 -6.66 10.32 -7 11 C-8.5 9.75 -8.5 9.75 -10 8 C-10 6.68 -10 5.36 -10 4 C-10.99 3.67 -11.98 3.34 -13 3 C-8.38948622 0.05439397 -5.37637186 -1.72811953 0 0 Z " fill="#122F38" transform="translate(222,152)"/>
<path d="M0 0 C1.06125335 3.71438673 1 7.14694846 1 11 C0.01 11.33 -0.98 11.66 -2 12 C-2 11.34 -2 10.68 -2 10 C-3.98 10.99 -3.98 10.99 -6 12 C-4.43358249 7.69235185 -2.31663844 3.93828536 0 0 Z " fill="#113438" transform="translate(237,271)"/>
<path d="M0 0 C1.60080151 4.00200378 0.29279692 7.04556236 -1 11 C-1.66 10.67 -2.32 10.34 -3 10 C-3.33 10.66 -3.66 11.32 -4 12 C-4.66 12 -5.32 12 -6 12 C-4.68139111 7.38486888 -2.78644563 3.90102388 0 0 Z " fill="#0F383D" transform="translate(244,259)"/>
<path d="M0 0 C1.65 0 3.3 0 5 0 C-5.10526316 8 -5.10526316 8 -9 8 C-8.67 9.32 -8.34 10.64 -8 12 C-8.66 11.67 -9.32 11.34 -10 11 C-10 9.68 -10 8.36 -10 7 C-9.34 7 -8.68 7 -8 7 C-8 6.01 -8 5.02 -8 4 C-6.35 4 -4.7 4 -3 4 C-3 3.34 -3 2.68 -3 2 C-2.01 2 -1.02 2 0 2 C0 1.34 0 0.68 0 0 Z " fill="#0B353D" transform="translate(113,211)"/>
<path d="M0 0 C2.56435439 2.56435439 4.01529448 4.46554044 5.75 7.5625 C6.19859375 8.34753906 6.6471875 9.13257813 7.109375 9.94140625 C7.40328125 10.62074219 7.6971875 11.30007812 8 12 C7.67 12.66 7.34 13.32 7 14 C6.01 13.34 5.02 12.68 4 12 C4 11.01 4 10.02 4 9 C3.01 9.33 2.02 9.66 1 10 C0.67 6.7 0.34 3.4 0 0 Z " fill="#16BBC1" transform="translate(256,191)"/>
<path d="M0 0 C0.99 0 1.98 0 3 0 C3.33 1.65 3.66 3.3 4 5 C4.66 5 5.32 5 6 5 C6.0825 5.78375 6.165 6.5675 6.25 7.375 C6.72806339 10.14749104 6.72806339 10.14749104 9.0625 11.3125 C9.701875 11.539375 10.34125 11.76625 11 12 C11 12.66 11 13.32 11 14 C10.01 14.33 9.02 14.66 8 15 C7.04078278 13.25048432 6.08266183 11.50036756 5.125 9.75 C4.59132812 8.77546875 4.05765625 7.8009375 3.5078125 6.796875 C2.29580534 4.54869592 1.12452433 2.2927195 0 0 Z " fill="#1CBCBE" transform="translate(221,171)"/>
<path d="M0 0 C0.88336837 2.4667645 1.1312406 3.63859372 0.22265625 6.140625 C-0.16019531 6.83671875 -0.54304687 7.5328125 -0.9375 8.25 C-1.31777344 8.95640625 -1.69804687 9.6628125 -2.08984375 10.390625 C-2.39019531 10.92171875 -2.69054687 11.4528125 -3 12 C-3.99 12 -4.98 12 -6 12 C-4.68139111 7.38486888 -2.78644563 3.90102388 0 0 Z " fill="#8766CF" transform="translate(166,121)"/>
<path d="M0 0 C1 2 1 2 0.25 5.375 C-0.84954722 8.56368695 -1.68859316 10.59228454 -4 13 C-4.66 13 -5.32 13 -6 13 C-6 13.99 -6 14.98 -6 16 C-6.66 16 -7.32 16 -8 16 C-7.67 14.68 -7.34 13.36 -7 12 C-6.34 12 -5.68 12 -5 12 C-4.9175 11.319375 -4.835 10.63875 -4.75 9.9375 C-3.77667472 6.1253093 -2.04192545 3.35929671 0 0 Z " fill="#382850" transform="translate(167,160)"/>
<path d="M0 0 C0.99 0 1.98 0 3 0 C4.03046722 1.78614318 5.04913236 3.57910018 6.0625 5.375 C6.63097656 6.37273437 7.19945312 7.37046875 7.78515625 8.3984375 C8.38650391 9.68621094 8.38650391 9.68621094 9 11 C8.67 11.66 8.34 12.32 8 13 C7.34 13 6.68 13 6 13 C6 11.68 6 10.36 6 9 C5.34 9 4.68 9 4 9 C1.8480563 5.77208445 1.79913557 4.71599191 2 1 C1.34 0.67 0.68 0.34 0 0 Z " fill="#16B4B6" transform="translate(229,147)"/>
<path d="M0 0 C3.33511388 2.9901021 5.21521119 5.89498574 7 10 C7 10.66 7 11.32 7 12 C5.1875 11.9375 5.1875 11.9375 3 11 C0.90330932 7.03126406 0 4.51561274 0 0 Z " fill="#123642" transform="translate(225,179)"/>
<path d="M0 0 C3 1 3 1 4.5625 3.6875 C5.89458257 6.75708157 7.0110963 9.80508036 8 13 C8.66 13 9.32 13 10 13 C10.33 13.99 10.66 14.98 11 16 C10.01 16 9.02 16 8 16 C5.36 10.72 2.72 5.44 0 0 Z " fill="#2C1E46" transform="translate(266,128)"/>
<path d="M0 0 C0.66 0 1.32 0 2 0 C2.99 1.98 3.98 3.96 5 6 C5.66 6 6.32 6 7 6 C7 7.98 7 9.96 7 12 C7.66 12.33 8.32 12.66 9 13 C8.01 13 7.02 13 6 13 C4.99491199 11.21118264 3.99607264 9.41885304 3 7.625 C2.1646875 6.12839844 2.1646875 6.12839844 1.3125 4.6015625 C0 2 0 2 0 0 Z " fill="#2E2240" transform="translate(164,203)"/>
<path d="M0 0 C0.66 0.33 1.32 0.66 2 1 C0.25 5.875 0.25 5.875 -2 7 C-3.05352843 9.30965848 -4.05719096 11.6429774 -5 14 C-5.66 14 -6.32 14 -7 14 C-5.53967505 8.68972746 -3.01679014 4.53669968 0 0 Z " fill="#8968D0" transform="translate(147,154)"/>
<path d="M0 0 C0.66 0.33 1.32 0.66 2 1 C-0.64 5.62 -3.28 10.24 -6 15 C-7 11 -7 11 -6 9 C-5.34 9 -4.68 9 -4 9 C-3.896875 8.443125 -3.79375 7.88625 -3.6875 7.3125 C-2.86866423 4.55823422 -1.54146219 2.41272343 0 0 Z " fill="#2B1D41" transform="translate(160,128)"/>
<path d="M0 0 C1.65 0 3.3 0 5 0 C5.33 2.97 5.66 5.94 6 9 C2.91910327 6.22719294 1.31224548 3.93673644 0 0 Z " fill="#132D35" transform="translate(149,256)"/>
<path d="M0 0 C0.66 0 1.32 0 2 0 C0.23570801 4.97209562 -2.3939166 9.43438061 -5 14 C-5.33 12.68 -5.66 11.36 -6 10 C-5.34 10 -4.68 10 -4 10 C-4 8.68 -4 7.36 -4 6 C-3.34 6 -2.68 6 -2 6 C-2 4.68 -2 3.36 -2 2 C-1.34 2 -0.68 2 0 2 C0 1.34 0 0.68 0 0 Z " fill="#1CBBBF" transform="translate(251,243)"/>
<path d="M0 0 C3.68006822 3.38168431 5.9785845 6.42521756 8 11 C7.34 11 6.68 11 6 11 C6 10.34 6 9.68 6 9 C5.38125 8.9175 4.7625 8.835 4.125 8.75 C2 8 2 8 0.75 6.1875 C0 4 0 4 0 0 Z " fill="#0E393D" transform="translate(135,276)"/>
<path d="M0 0 C2.4375 0.8125 2.4375 0.8125 5 2 C5.33 2.99 5.66 3.98 6 5 C6.99 5 7.98 5 9 5 C8.67 5.66 8.34 6.32 8 7 C7.34 7 6.68 7 6 7 C6.33 8.65 6.66 10.3 7 12 C3.95950199 8.35140239 2.03481238 4.2555467 0 0 Z " fill="#2E233C" transform="translate(179,230)"/>
<path d="M0 0 C0.33 0 0.66 0 1 0 C1.68837568 9.67550265 1.68837568 9.67550265 -0.875 13.625 C-1.57625 14.40875 -2.2775 15.1925 -3 16 C-3.66 16 -4.32 16 -5 16 C-3.94124926 12.59687262 -2.99097846 9.98646769 -1 7 C-0.60612212 4.67612053 -0.26513915 2.34206251 0 0 Z " fill="#0E454C" transform="translate(268,212)"/>
<path d="M0 0 C7 8.44827586 7 8.44827586 7 12 C5.68 11.67 4.36 11.34 3 11 C3 9.35 3 7.7 3 6 C2.34 6 1.68 6 1 6 C0.67 4.02 0.34 2.04 0 0 Z " fill="#1ABAC0" transform="translate(238,160)"/>
<path d="M0 0 C0.99 0.33 1.98 0.66 3 1 C1.02 4.63 -0.96 8.26 -3 12 C-3.33 12 -3.66 12 -4 12 C-4 9.36 -4 6.72 -4 4 C-2.68 4 -1.36 4 0 4 C0 2.68 0 1.36 0 0 Z " fill="#1CBCC3" transform="translate(236,268)"/>
<path d="M0 0 C0.66 0 1.32 0 2 0 C5 5.75 5 5.75 5 8 C4.01 8.33 3.02 8.66 2 9 C-0.29013653 5.5647952 -0.17842973 4.014669 0 0 Z " fill="#30253B" transform="translate(147,218)"/>
<path d="M0 0 C2 3 2 3 1.9375 5.0625 C1 7 1 7 -1.5625 8.25 C-2.366875 8.4975 -3.17125 8.745 -4 9 C-2.94124926 5.59687262 -1.99097846 2.98646769 0 0 Z " fill="#8C66DE" transform="translate(152,145)"/>
<path d="M0 0 C2.74277578 3.19990508 4.6302836 6.00499382 6 10 C5.01 10.495 5.01 10.495 4 11 C4 10.01 4 9.02 4 8 C2.02 8.99 2.02 8.99 0 10 C0 6.7 0 3.4 0 0 Z " fill="#8E6BDC" transform="translate(272,140)"/>
<path d="M0 0 C0.33 1.32 0.66 2.64 1 4 C-5.45 8.09326923 -5.45 8.09326923 -8.234375 7.62109375 C-8.81703125 7.41613281 -9.3996875 7.21117187 -10 7 C-8.71186658 6.16121545 -7.41936744 5.32913217 -6.125 4.5 C-5.40570313 4.0359375 -4.68640625 3.571875 -3.9453125 3.09375 C-2 2 -2 2 0 2 C0 1.34 0 0.68 0 0 Z " fill="#382957" transform="translate(186,242)"/>
<path d="M0 0 C0.66 0.33 1.32 0.66 2 1 C2 1.66 2 2.32 2 3 C0.68 3 -0.64 3 -2 3 C-1.649375 3.763125 -1.29875 4.52625 -0.9375 5.3125 C0 8 0 8 -1 11 C-5 4.25 -5 4.25 -5 2 C-2.625 0.9375 -2.625 0.9375 0 0 Z " fill="#8F6BE3" transform="translate(167,239)"/>
<path d="M0 0 C0.66 0.66 1.32 1.32 2 2 C3.94074861 1.72382467 3.94074861 1.72382467 6 1 C7.33333333 0.66666667 8.66666667 0.33333333 10 0 C9.67 1.32 9.34 2.64 9 4 C5.62182575 4.84454356 3.32534757 5.10844919 0 4 C0 2.68 0 1.36 0 0 Z " fill="#2F224B" transform="translate(166,250)"/>
<path d="M0 0 C2 1 2 1 3 3 C2.34 3 1.68 3 1 3 C1 3.66 1 4.32 1 5 C0.01 5 -0.98 5 -2 5 C-2.33 5.99 -2.66 6.98 -3 8 C-3.66 8 -4.32 8 -5 8 C-3.8141763 4.62496331 -2.72426311 2.35277269 0 0 Z " fill="#8A69D5" transform="translate(172,113)"/>
<path d="M0 0 C0.66 0.99 1.32 1.98 2 3 C1.34 3.66 0.68 4.32 0 5 C0 5.66 0 6.32 0 7 C-0.66 7 -1.32 7 -2 7 C-2 7.66 -2 8.32 -2 9 C-2.66 9 -3.32 9 -4 9 C-4 9.99 -4 10.98 -4 12 C-4.66 12 -5.32 12 -6 12 C-4.43358249 7.69235185 -2.31663844 3.93828536 0 0 Z " fill="#1BB7BD" transform="translate(223,254)"/>
<path d="M0 0 C3.3502463 3.81234923 5.16974789 7.33285711 7 12 C3.33663903 10.77887968 2.64957986 9.13279518 0.76953125 5.88671875 C0 4 0 4 0 0 Z " fill="#35244D" transform="translate(139,203)"/>
<path d="M0 0 C0.99 0.66 1.98 1.32 3 2 C3 2.66 3 3.32 3 4 C2.34 4 1.68 4 1 4 C0.71125 4.969375 0.4225 5.93875 0.125 6.9375 C-1 10 -1 10 -3 11 C-2.67 9.02 -2.34 7.04 -2 5 C-1.34 5 -0.68 5 0 5 C-0.2784375 4.0409375 -0.2784375 4.0409375 -0.5625 3.0625 C-0.706875 2.381875 -0.85125 1.70125 -1 1 C-0.67 0.67 -0.34 0.34 0 0 Z " fill="#2D213A" transform="translate(135,168)"/>
<path d="M0 0 C0.12375 0.515625 0.2475 1.03125 0.375 1.5625 C1.18641628 4.72702351 2.0945913 7.86124985 3 11 C2.01 11 1.02 11 0 11 C-2.21538462 4.6 -2.21538462 4.6 -1.125 1.5625 C-0.75375 1.046875 -0.3825 0.53125 0 0 Z " fill="#122A2D" transform="translate(147,243)"/>
<path d="M0 0 C2.74277578 3.19990508 4.6302836 6.00499382 6 10 C4.02 9.01 2.04 8.02 0 7 C0 4.69 0 2.38 0 0 Z " fill="#10373F" transform="translate(108,228)"/>
<path d="M0 0 C3.75608601 1.25202867 4.14684965 2.63063573 6 6 C6.33 6.33 6.66 6.66 7 7 C7.04063832 8.66617115 7.042721 10.33388095 7 12 C3.6497537 8.18765077 1.83025211 4.66714289 0 0 Z " fill="#09363C" transform="translate(250,179)"/>
<path d="M0 0 C1.1484375 1.734375 1.1484375 1.734375 2 4 C1.1015625 6.140625 1.1015625 6.140625 -0.375 8.25 C-0.85710937 8.95640625 -1.33921875 9.6628125 -1.8359375 10.390625 C-2.22007812 10.92171875 -2.60421875 11.4528125 -3 12 C-3.5859375 10.125 -3.5859375 10.125 -4 8 C-2.625 6 -2.625 6 -1 4 C-0.29485154 1.85266073 -0.29485154 1.85266073 0 0 Z " fill="#2C203F" transform="translate(147,148)"/>
<path d="M0 0 C3.09592835 3.5087188 4.74194623 6.49197399 6 11 C5.01 11 4.02 11 3 11 C3 9.35 3 7.7 3 6 C2.34 6 1.68 6 1 6 C0.67 4.02 0.34 2.04 0 0 Z " fill="#19B9BC" transform="translate(136,235)"/>
<path d="M0 0 C2.475 0.99 2.475 0.99 5 2 C0.25 6 0.25 6 -2 6 C-2 5.34 -2 4.68 -2 4 C-2.66 3.67 -3.32 3.34 -4 3 C-2.68 3 -1.36 3 0 3 C0 2.01 0 1.02 0 0 Z " fill="#14313A" transform="translate(224,145)"/>
<path d="M0 0 C0.33 0.66 0.66 1.32 1 2 C1.99 2 2.98 2 4 2 C5.6875 4 5.6875 4 7 6 C6.67 6.66 6.34 7.32 6 8 C2.83884224 6.63016497 2.0072908 6.0109362 0 3 C0 2.01 0 1.02 0 0 Z " fill="#12BCBC" transform="translate(148,259)"/>
<path d="M0 0 C0.97079451 3.0202496 1.32756618 5.06038917 0 8 C-2.5625 9.75 -2.5625 9.75 -5 11 C-3.55049545 7.2089881 -1.84827434 3.6125362 0 0 Z " fill="#0D393D" transform="translate(250,248)"/>
<path d="M0 0 C0.66 0.99 1.32 1.98 2 3 C1.34 3 0.68 3 0 3 C0 3.99 0 4.98 0 6 C-0.66 6 -1.32 6 -2 6 C-2.33 7.65 -2.66 9.3 -3 11 C-3.66 11 -4.32 11 -5 11 C-3.77472971 6.94718288 -2.30119506 3.55639236 0 0 Z " fill="#0D3F43" transform="translate(257,236)"/>
<path d="M0 0 C1.32 0.66 2.64 1.32 4 2 C3.67 2.66 3.34 3.32 3 4 C2.34 4 1.68 4 1 4 C0.67 4.99 0.34 5.98 0 7 C-2 4 -2 4 -2 2 C-1.34 2 -0.68 2 0 2 C0 1.34 0 0.68 0 0 Z " fill="#241E2D" transform="translate(188,238)"/>
<path d="M0 0 C2.15377564 2.62198774 3.40072174 4.64404172 4 8 C2.68 8 1.36 8 0 8 C-0.38063221 5.6739143 -0.71269945 3.33944736 -1 1 C-0.67 0.67 -0.34 0.34 0 0 Z " fill="#342643" transform="translate(260,160)"/>
<path d="M0 0 C0.99 0 1.98 0 3 0 C1.25 5.75 1.25 5.75 -1 8 C-1.625 5.6875 -1.625 5.6875 -2 3 C-1.34 2.01 -0.68 1.02 0 0 Z " fill="#2D2139" transform="translate(140,160)"/>
<path d="M0 0 C0.66 0.99 1.32 1.98 2 3 C1.01 3.495 1.01 3.495 0 4 C-0.65555119 6.52733235 -0.65555119 6.52733235 -1 9 C-2.32 9.33 -3.64 9.66 -5 10 C-3.49760034 6.38058265 -2.17854707 3.2678206 0 0 Z " fill="#3A2957" transform="translate(173,150)"/>
<path d="M0 0 C2.475 0.495 2.475 0.495 5 1 C5 1.66 5 2.32 5 3 C6.65 3 8.3 3 10 3 C7.8019253 4.33454536 6.47386397 5.02787435 3.875 4.875 C1.424863 3.73160273 0.95567383 2.46882406 0 0 Z " fill="#1ABAC0" transform="translate(140,282)"/>
<path d="M0 0 C0.33 0.99 0.66 1.98 1 3 C1.66 3 2.32 3 3 3 C3 4.65 3 6.3 3 8 C2.01 7.34 1.02 6.68 0 6 C0 5.34 0 4.68 0 4 C-0.66 4 -1.32 4 -2 4 C-1.34 2.68 -0.68 1.36 0 0 Z " fill="#291D26" transform="translate(247,259)"/>
<path d="M0 0 C-2.25 2.0625 -2.25 2.0625 -5 4 C-7.3125 3.75 -7.3125 3.75 -9 3 C-9 2.34 -9 1.68 -9 1 C-5.92677456 0.08941469 -3.19902639 -0.08886184 0 0 Z " fill="#896BD3" transform="translate(176,249)"/>
<path d="M0 0 C0.99 0 1.98 0 3 0 C3.33 1.98 3.66 3.96 4 6 C4.66 6 5.32 6 6 6 C5.67 7.32 5.34 8.64 5 10 C3.35 6.7 1.7 3.4 0 0 Z " fill="#1CB7BA" transform="translate(107,225)"/>
<path d="M0 0 C0.66 0 1.32 0 2 0 C2 0.66 2 1.32 2 2 C2.66 2 3.32 2 4 2 C4.12375 2.804375 4.2475 3.60875 4.375 4.4375 C4.684375 5.7059375 4.684375 5.7059375 5 7 C5.66 7.33 6.32 7.66 7 8 C6.34 8.66 5.68 9.32 5 10 C3.35 6.7 1.7 3.4 0 0 Z " fill="#1DBDC1" transform="translate(230,186)"/>
<path d="M0 0 C2.64 0 5.28 0 8 0 C8 0.99 8 1.98 8 3 C5.6568787 2.74438677 3.32156597 2.40729228 1 2 C0.67 1.34 0.34 0.68 0 0 Z " fill="#936CE0" transform="translate(248,113)"/>
<path d="M0 0 C0.66 0 1.32 0 2 0 C2 0.66 2 1.32 2 2 C2.99 2 3.98 2 5 2 C5 3.98 5 5.96 5 8 C2.27573689 5.64722731 1.1858237 3.37503669 0 0 Z " fill="#1DBFC2" transform="translate(121,249)"/>
<path d="M0 0 C0.6875 1.6875 0.6875 1.6875 1 4 C-0.3125 6.75 -0.3125 6.75 -2 9 C-2.66 9 -3.32 9 -4 9 C-2.94124926 5.59687262 -1.99097846 2.98646769 0 0 Z " fill="#1FB0B4" transform="translate(232,238)"/>
<path d="M0 0 C4 4.75 4 4.75 4 7 C2.35 7 0.7 7 -1 7 C-0.67 4.69 -0.34 2.38 0 0 Z " fill="#0D3941" transform="translate(114,238)"/>
<path d="M0 0 C2.32472205 2.85306797 3.7508258 5.54074837 5 9 C4.01 9 3.02 9 2 9 C2 7.68 2 6.36 2 5 C1.34 5 0.68 5 0 5 C0 3.35 0 1.7 0 0 Z " fill="#1FB4BC" transform="translate(127,219)"/>
<path d="M0 0 C2.72426311 2.35277269 3.8141763 4.62496331 5 8 C3.68 7.67 2.36 7.34 1 7 C0.67 4.69 0.34 2.38 0 0 Z " fill="#0D4445" transform="translate(119,247)"/>
<path d="M0 0 C1.32 0.33 2.64 0.66 4 1 C4.33 3.31 4.66 5.62 5 8 C4.34 6.68 3.68 5.36 3 4 C2.34 4 1.68 4 1 4 C0.67 2.68 0.34 1.36 0 0 Z " fill="#3A2951" transform="translate(172,218)"/>
<path d="M0 0 C1.32 0 2.64 0 4 0 C4 2.31 4 4.62 4 7 C0 2.25 0 2.25 0 0 Z " fill="#1CBCC1" transform="translate(240,203)"/>
<path d="M0 0 C1.37562854 1.28965176 2.70766393 2.62689293 4 4 C4 4.66 4 5.32 4 6 C4.66 6.33 5.32 6.66 6 7 C5.01 7.33 4.02 7.66 3 8 C0.4345406 5.4345406 0.45953913 3.52313332 0 0 Z " fill="#332649" transform="translate(273,184)"/>
<path d="M0 0 C4.42857143 5.14285714 4.42857143 5.14285714 5 9 C3.0625 8.4375 3.0625 8.4375 1 7 C0.25 3.375 0.25 3.375 0 0 Z " fill="#8667C6" transform="translate(282,157)"/>
<path d="M0 0 C2.79872437 2.52788007 4.45773019 4.20411134 5 8 C3.0625 7.375 3.0625 7.375 1 6 C0.25 2.875 0.25 2.875 0 0 Z " fill="#362652" transform="translate(250,144)"/>
<path d="M0 0 C0.99 0 1.98 0 3 0 C3 1.32 3 2.64 3 4 C1.35 4.33 -0.3 4.66 -2 5 C-1.34 3.35 -0.68 1.7 0 0 Z " fill="#1A261B" transform="translate(214,148)"/>
<path d="M0 0 C1.32 1.65 2.64 3.3 4 5 C3.34 6.32 2.68 7.64 2 9 C-0.29013653 5.5647952 -0.17842973 4.014669 0 0 Z " fill="#8666CD" transform="translate(264,126)"/>
</svg>
