<?xml version="1.0" encoding="UTF-8"?>
<svg version="1.1" xmlns="http://www.w3.org/2000/svg" width="420" height="420">
<path d="M0 0 C2.49706427 -0.0054307 4.99412533 -0.01255863 7.49118042 -0.02124023 C13.52990241 -0.03748868 19.56834757 -0.03524587 25.60705829 -0.02358967 C30.52118731 -0.01450237 35.43526071 -0.01335403 40.34939575 -0.01768494 C41.05267661 -0.01829787 41.75595747 -0.0189108 42.48054987 -0.01954231 C43.90989838 -0.02082139 45.33924687 -0.02211825 46.76859534 -0.02343267 C60.12604764 -0.0347993 73.48338958 -0.02178662 86.84082377 -0.00023121 C98.26600802 0.01763622 109.69102962 0.01453101 121.11621094 -0.00390625 C134.43060062 -0.02538259 147.74489393 -0.03370104 161.05929852 -0.0214572 C162.48296291 -0.02018319 163.90662732 -0.01892571 165.33029175 -0.01768494 C166.38059975 -0.01675928 166.38059975 -0.01675928 167.45212609 -0.01581493 C172.35206988 -0.01238224 177.25195179 -0.01814507 182.15188599 -0.02760315 C188.76442432 -0.0400882 195.37670571 -0.03101612 201.98923111 -0.00802612 C204.40416078 -0.00277406 206.81911645 -0.00419207 209.23403549 -0.01307678 C237.53270098 -0.1075263 263.17045773 6.15164595 283.87109375 26.51757812 C284.86209001 27.51617794 285.85175534 28.51610098 286.83984375 29.51757812 C288.0928125 30.75507812 288.0928125 30.75507812 289.37109375 32.01757812 C309.51924344 52.99373397 313.4595847 79.90926547 313.35742188 107.67773438 C313.36285257 110.17479865 313.36998051 112.67185971 313.37866211 115.16891479 C313.39491055 121.20763679 313.39266775 127.24608194 313.38101155 133.28479266 C313.37192425 138.19892168 313.37077591 143.11299509 313.37510681 148.02713013 C313.37571974 148.73041099 313.37633268 149.43369185 313.37696418 150.15828425 C313.37824327 151.58763275 313.37954013 153.01698124 313.38085455 154.44632971 C313.39222118 167.80378202 313.37920849 181.16112395 313.35765308 194.51855814 C313.33978565 205.94374239 313.34289087 217.36876399 313.36132812 228.79394531 C313.38280446 242.10833499 313.39112291 255.4226283 313.37887907 268.73703289 C313.37760507 270.16069729 313.37634758 271.5843617 313.37510681 273.00802612 C313.37418116 274.05833412 313.37418116 274.05833412 313.37323681 275.12986046 C313.36980411 280.02980425 313.37556694 284.92968616 313.38502502 289.82962036 C313.39751008 296.4421587 313.388438 303.05444008 313.365448 309.66696548 C313.36019593 312.08189515 313.36161394 314.49685083 313.37049866 316.91176987 C313.46494817 345.21043535 307.20577593 370.8481921 286.83984375 391.54882812 C285.84124394 392.53982439 284.84132089 393.52948971 283.83984375 394.51757812 C282.60234375 395.77054687 282.60234375 395.77054687 281.33984375 397.04882812 C260.36368791 417.19697782 233.4481564 421.13731907 205.6796875 421.03515625 C203.18262323 421.04058695 200.68556217 421.04771488 198.18850708 421.05639648 C192.14978509 421.07264493 186.11133993 421.07040212 180.07262921 421.05874592 C175.15850019 421.04965862 170.24442679 421.04851028 165.33029175 421.05284119 C164.62701089 421.05345412 163.92373003 421.05406705 163.19913763 421.05469856 C161.76978912 421.05597764 160.34044063 421.0572745 158.91109216 421.05858892 C145.55363986 421.06995555 132.19629792 421.05694287 118.83886373 421.03538746 C107.41367948 421.01752003 95.98865788 421.02062524 84.56347656 421.0390625 C71.24908688 421.06053884 57.93479357 421.06885729 44.62038898 421.05661345 C43.19672459 421.05533944 41.77306018 421.05408196 40.34939575 421.05284119 C39.29908775 421.05191553 39.29908775 421.05191553 38.22756141 421.05097118 C33.32761762 421.04753849 28.42773571 421.05330132 23.52780151 421.0627594 C16.91526318 421.07524445 10.30298179 421.06617237 3.69045639 421.04318237 C1.27552672 421.03793031 -1.13942895 421.03934832 -3.55434799 421.04823303 C-31.85301348 421.14268255 -57.49077023 414.8835103 -78.19140625 394.51757812 C-79.18240251 393.51897831 -80.17206784 392.51905527 -81.16015625 391.51757812 C-81.99546875 390.69257813 -82.83078125 389.86757813 -83.69140625 389.01757812 C-103.83955594 368.04142228 -107.7798972 341.12589078 -107.67773438 313.35742188 C-107.68316507 310.8603576 -107.69029301 308.36329654 -107.69897461 305.86624146 C-107.71522305 299.82751946 -107.71298025 293.78907431 -107.70132405 287.75036359 C-107.69223675 282.83623457 -107.69108841 277.92216116 -107.69541931 273.00802612 C-107.69603224 272.30474526 -107.69664518 271.6014644 -107.69727668 270.876872 C-107.69855577 269.4475235 -107.69985263 268.01817501 -107.70116705 266.58882654 C-107.71253368 253.23137423 -107.69952099 239.8740323 -107.67796558 226.51659811 C-107.66009815 215.09141386 -107.66320337 203.66639226 -107.68164062 192.24121094 C-107.70311696 178.92682126 -107.71143541 165.61252795 -107.69919157 152.29812336 C-107.69791757 150.87445896 -107.69666008 149.45079455 -107.69541931 148.02713013 C-107.69480221 147.3269248 -107.69418511 146.62671946 -107.69354931 145.90529579 C-107.69011661 141.005352 -107.69587944 136.10547009 -107.70533752 131.20553589 C-107.71782258 124.59299755 -107.7087505 117.98071617 -107.6857605 111.36819077 C-107.68050843 108.9532611 -107.68192644 106.53830542 -107.69081116 104.12338638 C-107.78526067 75.8247209 -101.52608843 50.18696415 -81.16015625 29.48632812 C-80.16155644 28.49533186 -79.16163339 27.50566654 -78.16015625 26.51757812 C-77.33515625 25.68226562 -76.51015625 24.84695312 -75.66015625 23.98632812 C-54.68400041 3.83817843 -27.7684689 -0.10216282 0 0 Z " fill="#3C84F8" transform="translate(107.16015625,-0.517578125)"/>
<path d="M0 0 C13.86 0 27.72 0 42 0 C42 30.36 42 60.72 42 92 C43.65 90.35 45.3 88.7 47 87 C47.58523437 86.42636719 48.17046875 85.85273438 48.7734375 85.26171875 C51.73153448 82.35412586 54.57036233 79.39374687 57.27734375 76.25 C60.81974363 72.17830294 64.48088458 68.23447403 68.1875 64.3125 C69.51080806 62.9066183 70.83371972 61.50036339 72.15625 60.09375 C72.8059375 59.4028125 73.455625 58.711875 74.125 58 C78.2948479 53.55216224 82.41983409 49.06283003 86.54833984 44.57666016 C89.02946406 41.88189054 91.51499116 39.19118686 94 36.5 C95.00002027 35.41668538 96.00002029 34.33335206 97 33.25 C99 31.08333333 101 28.91666667 103 26.75 C103.49564453 26.2130249 103.99128906 25.6760498 104.50195312 25.12280273 C105.49533441 24.04669364 106.48882284 22.97068344 107.48242188 21.89477539 C110.08460548 19.07674048 112.68453896 16.25667292 115.28125 13.43359375 C115.82007813 12.84835938 116.35890625 12.263125 116.9140625 11.66015625 C117.94079793 10.54490914 118.96688259 9.42906241 119.9921875 8.3125 C121.32173918 6.86909168 122.66056637 5.43424294 124 4 C124.60378479 3.29208313 125.20756958 2.58416626 125.82965088 1.85479736 C128.52939601 -0.45242597 129.80931873 -0.4875303 133.31933594 -0.45410156 C134.38013367 -0.45379944 135.4409314 -0.45349731 136.53387451 -0.45318604 C137.67253967 -0.43254089 138.81120483 -0.41189575 139.984375 -0.390625 C141.15510559 -0.38496521 142.32583618 -0.37930542 143.53204346 -0.37347412 C147.271778 -0.35108125 151.01055497 -0.3008768 154.75 -0.25 C157.28514242 -0.22993889 159.82029985 -0.21168744 162.35546875 -0.1953125 C168.57063929 -0.15120678 174.78525124 -0.08426454 181 0 C179.47396585 3.21630141 177.90199229 5.28769299 175.3125 7.75 C172.70286927 10.28985451 170.22229863 12.84168915 167.875 15.625 C164.4471922 19.62147638 160.739664 23.29932129 157 27 C151.58504466 32.34464652 151.58504466 32.34464652 146.5 38 C142.64811224 42.55937735 138.35187792 46.67246864 134.11328125 50.8671875 C131.13199023 53.82940843 128.21436684 56.78707598 125.5 60 C121.68910331 64.5108573 117.45267971 68.59892706 113.23632812 72.7265625 C110.25845297 75.66089167 107.40704521 78.63945406 104.68359375 81.8125 C100.38943725 86.78733493 95.73022019 91.37842457 91.0625 96 C90.18787109 96.87011719 89.31324219 97.74023438 88.41210938 98.63671875 C86.27702551 100.76013549 84.13962795 102.88116378 82 105 C83.35703403 108.03579807 84.8754832 110.11711042 87.23706055 112.44824219 C87.89502121 113.1028241 88.55298187 113.75740601 89.23088074 114.43182373 C90.29802055 115.47877411 90.29802055 115.47877411 91.38671875 116.546875 C92.12195267 117.27690735 92.85718658 118.0069397 93.61470032 118.75909424 C95.9676025 121.09419488 98.32705672 123.42252447 100.6875 125.75 C103.02926472 128.06399867 105.36950514 130.3794862 107.70674133 132.69805908 C109.15979808 134.13902375 110.61551808 135.57730974 112.0743866 137.01239014 C115.23536767 140.14272933 118.29675867 143.29420594 121.18286133 146.68066406 C125.92448633 152.17817366 131.11946064 157.23010713 136.26751709 162.34268188 C138.16271893 164.22496176 140.05464053 166.11048618 141.94580078 167.99682617 C145.96104704 172.00072039 149.98022013 176.00065806 154 180 C158.66315461 184.63944554 163.32462555 189.28055741 167.98187256 193.92593384 C169.83367034 195.77131359 171.68848449 197.61362294 173.54345703 199.45581055 C187.57770009 213.42403968 187.57770009 213.42403968 190 217 C190 217.99 190 218.98 190 220 C182.65432239 220.28055303 175.31003995 220.47220358 167.96020508 220.60424805 C165.46423732 220.65932635 162.96862062 220.73421663 160.47387695 220.82983398 C137.4694076 221.68899831 137.4694076 221.68899831 131.56684875 216.42268372 C129.46255004 214.10125813 127.7168761 211.61611883 126 209 C124.9079774 207.69946772 123.79501907 206.41605259 122.65625 205.15625 C122.11484375 204.52332031 121.5734375 203.89039063 121.015625 203.23828125 C116.08764649 197.76593302 110.73508126 192.67611816 105.5 187.5 C92.18469613 174.33466737 92.18469613 174.33466737 86.92773438 168.15039062 C82.040598 162.69878257 76.70457638 157.64595685 71.5 152.5 C58.19282654 139.3427062 58.19282654 139.3427062 54.15625 134.65625 C50.64182549 130.58508498 46.80299647 126.80299647 43 123 C42.67 154.68 42.34 186.36 42 219 C28.14 219 14.28 219 0 219 C0 146.73 0 74.46 0 0 Z " fill="#FEFEFE" transform="translate(130,103)"/>
</svg>
