<?xml version="1.0" encoding="UTF-8"?>
<svg version="1.1" xmlns="http://www.w3.org/2000/svg" width="166" height="166">
<path d="M0 0 C54.78 0 109.56 0 166 0 C166 54.78 166 109.56 166 166 C111.22 166 56.44 166 0 166 C0 111.22 0 56.44 0 0 Z " fill="#092511" transform="translate(0,0)"/>
<path d="M0 0 C1.09570312 -0.04898438 2.19140625 -0.09796875 3.3203125 -0.1484375 C6.91255268 0.38052974 7.61298301 0.78697625 10.32421875 2.86328125 C15.83125163 6.58675632 22.0478082 6.08754032 28.44848633 5.97192383 C30.56920667 5.93739079 32.68579852 5.95135372 34.80664062 5.97070312 C36.16668425 5.9638087 37.52671726 5.95413994 38.88671875 5.94140625 C40.10834717 5.93052979 41.32997559 5.91965332 42.58862305 5.90844727 C46.44930583 5.28177823 48.00953926 3.95574851 50.875 1.375 C56.75340839 -0.58446946 63.45101626 -0.41830377 69.3125 1.5 C73.58156488 4.62370601 76.84001377 8.43810516 78.875 13.375 C79.40480408 18.81671644 78.76932816 24.00903107 77.875 29.375 C78.10896484 30.25865234 78.10896484 30.25865234 78.34765625 31.16015625 C79.01749964 33.97349851 78.93226647 36.54912246 78.875 39.4375 C78.80779614 42.83549499 78.79532657 45.13597972 79.875 48.375 C81.5146875 47.446875 81.5146875 47.446875 83.1875 46.5 C83.80238281 46.15195313 84.41726562 45.80390625 85.05078125 45.4453125 C86.69482289 44.48071419 88.28900588 43.43232941 89.875 42.375 C92.9375 42.125 92.9375 42.125 95.875 42.375 C98.59995843 45.09995843 98.20618189 46.62094249 98.25 50.4375 C98.18168683 57.06387784 97.04083723 63.04352193 95.29833984 69.42407227 C94.11522835 73.82729087 93.41392358 77.76999926 93.875 82.375 C94.865 83.035 95.855 83.695 96.875 84.375 C96.545 85.695 96.215 87.015 95.875 88.375 C91.78161348 88.42439115 87.68834202 88.46071501 83.59472656 88.48486328 C82.20179219 88.49492877 80.80887898 88.50858234 79.41601562 88.52587891 C77.4154564 88.5501022 75.41474385 88.56040814 73.4140625 88.5703125 C72.20959473 88.58078613 71.00512695 88.59125977 69.76416016 88.60205078 C66.875 88.375 66.875 88.375 64.875 86.375 C61.53802127 86.64640764 61.53802127 86.64640764 57.875 87.375 C39.71340138 90.59797799 20.54733835 90.94704775 2.43457031 87.2668457 C0.59404696 86.89919929 -1.26510743 86.62697167 -3.125 86.375 C-3.785 87.035 -4.445 87.695 -5.125 88.375 C-7.63420846 88.54995606 -10.03124941 88.60669569 -12.5390625 88.5703125 C-13.26870209 88.5674826 -13.99834167 88.56465271 -14.75009155 88.56173706 C-17.08356028 88.55053002 -19.41664703 88.5254251 -21.75 88.5 C-23.33072363 88.48997085 -24.91145327 88.48084489 -26.4921875 88.47265625 C-30.36993914 88.45058905 -34.24740478 88.41605615 -38.125 88.375 C-38.125 87.055 -38.125 85.735 -38.125 84.375 C-36.64 83.385 -36.64 83.385 -35.125 82.375 C-34.50314729 77.29653617 -35.64344847 73.51197772 -37.32421875 68.828125 C-39.75356137 61.38604125 -42.27423112 51.27047088 -39 43.8125 C-37.125 42.375 -37.125 42.375 -34.4375 41.8125 C-30.4896923 42.48288244 -28.2329138 44.02395544 -25.0546875 46.37890625 C-23.14662669 47.60391548 -23.14662669 47.60391548 -20.8828125 47.02734375 C-20.30273438 46.81207031 -19.72265625 46.59679687 -19.125 46.375 C-19.03412109 44.96347656 -19.03412109 44.96347656 -18.94140625 43.5234375 C-18.85761719 42.27820313 -18.77382813 41.03296875 -18.6875 39.75 C-18.60628906 38.52023438 -18.52507813 37.29046875 -18.44140625 36.0234375 C-18.125 32.375 -18.125 32.375 -17.52734375 29.1015625 C-16.90280126 26.28937581 -16.90280126 26.28937581 -18.125 23.375 C-18.92286265 16.95790467 -18.34014294 12.37871663 -14.5625 7.06640625 C-10.17130904 1.89959732 -6.62460012 0.19981392 0 0 Z " fill="#32D86C" transform="translate(54.125,38.625)"/>
<path d="M0 0 C0.33 0 0.66 0 1 0 C1.22042969 0.8353125 1.22042969 0.8353125 1.4453125 1.6875 C4.28251691 11.34051732 9.07049101 17.27676426 17.7734375 22.390625 C35.25788517 31.11168122 54.24024891 31.29002764 72.6875 25.25 C81.45865957 21.85632233 87.15702505 16.20387038 93 9 C93.804375 8.01 94.60875 7.02 95.4375 6 C95.953125 5.34 96.46875 4.68 97 4 C97.495 5.485 97.495 5.485 98 7 C99.6396875 6.071875 99.6396875 6.071875 101.3125 5.125 C101.92738281 4.77695313 102.54226562 4.42890625 103.17578125 4.0703125 C104.81982289 3.10571419 106.41400588 2.05732941 108 1 C111.0625 0.75 111.0625 0.75 114 1 C116.72495843 3.72495843 116.33118189 5.24594249 116.375 9.0625 C116.30668683 15.68887784 115.16583723 21.66852193 113.42333984 28.04907227 C112.24022835 32.45229087 111.53892358 36.39499926 112 41 C112.99 41.66 113.98 42.32 115 43 C114.67 44.32 114.34 45.64 114 47 C109.90661348 47.04939115 105.81334202 47.08571501 101.71972656 47.10986328 C100.32679219 47.11992877 98.93387898 47.13358234 97.54101562 47.15087891 C95.5404564 47.1751022 93.53974385 47.18540814 91.5390625 47.1953125 C90.33459473 47.20578613 89.13012695 47.21625977 87.88916016 47.22705078 C85 47 85 47 83 45 C79.66302127 45.27140764 79.66302127 45.27140764 76 46 C57.83840138 49.22297799 38.67233835 49.57204775 20.55957031 45.8918457 C18.71904696 45.52419929 16.85989257 45.25197167 15 45 C14.34 45.66 13.68 46.32 13 47 C10.49079154 47.17495606 8.09375059 47.23169569 5.5859375 47.1953125 C4.85629791 47.1924826 4.12665833 47.18965271 3.37490845 47.18673706 C1.04143972 47.17553002 -1.29164703 47.1504251 -3.625 47.125 C-5.20572363 47.11497085 -6.78645327 47.10584489 -8.3671875 47.09765625 C-12.24493914 47.07558905 -16.12240478 47.04105615 -20 47 C-20 45.68 -20 44.36 -20 43 C-19.01 42.34 -18.02 41.68 -17 41 C-16.37814729 35.92153617 -17.51844847 32.13697772 -19.19921875 27.453125 C-21.62856137 20.01104125 -24.14923112 9.89547088 -20.875 2.4375 C-19 1 -19 1 -16.3125 0.4375 C-12.3646923 1.10788244 -10.1079138 2.64895544 -6.9296875 5.00390625 C-5.02162669 6.22891548 -5.02162669 6.22891548 -2.7578125 5.65234375 C-2.17773438 5.43707031 -1.59765625 5.22179687 -1 5 C-0.67 3.35 -0.34 1.7 0 0 Z " fill="#24A859" transform="translate(36,80)"/>
<path d="M0 0 C9.33915507 1.58589426 18.01461848 10.03563267 23.3984375 17.42578125 C28.44984429 25.64231002 32.35676671 34.74639288 31.3125 44.5625 C29.3125 46.5625 29.3125 46.5625 26.05615234 46.78955078 C24.67020705 46.78923382 23.28423699 46.77791759 21.8984375 46.7578125 C21.16879791 46.7549826 20.43915833 46.75215271 19.68740845 46.74923706 C17.35393972 46.73803002 15.02085297 46.7129251 12.6875 46.6875 C11.10677637 46.67747085 9.52604673 46.66834489 7.9453125 46.66015625 C4.06756086 46.63808905 0.19009522 46.60355615 -3.6875 46.5625 C-3.6875 45.2425 -3.6875 43.9225 -3.6875 42.5625 C-2.6975 41.9025 -1.7075 41.2425 -0.6875 40.5625 C-0.06564729 35.48403617 -1.20594847 31.69947772 -2.88671875 27.015625 C-5.31606137 19.57354125 -7.83673112 9.45797088 -4.5625 2 C-2.6875 0.5625 -2.6875 0.5625 0 0 Z " fill="#31D76B" transform="translate(19.6875,80.4375)"/>
<path d="M0 0 C2.72495843 2.72495843 2.33118189 4.24594249 2.375 8.0625 C2.30668683 14.68887784 1.16583723 20.66852193 -0.57666016 27.04907227 C-1.75977165 31.45229087 -2.46107642 35.39499926 -2 40 C-1.01 40.66 -0.02 41.32 1 42 C0.67 43.32 0.34 44.64 0 46 C-4.09338652 46.04939115 -8.18665798 46.08571501 -12.28027344 46.10986328 C-13.67320781 46.11992877 -15.06612102 46.13358234 -16.45898438 46.15087891 C-18.4595436 46.1751022 -20.46025615 46.18540814 -22.4609375 46.1953125 C-23.66540527 46.20578613 -24.86987305 46.21625977 -26.11083984 46.22705078 C-29 46 -29 46 -31 44 C-32.31334569 32.74275121 -27.28503959 21.75875104 -21.10546875 12.55078125 C-15.56999106 5.84453462 -9.01045219 -0.56315326 0 0 Z " fill="#31D76B" transform="translate(150,81)"/>
<path d="M0 0 C1.92149769 0.04197722 3.84144716 0.15819735 5.7578125 0.3046875 C7.53285156 0.43810547 7.53285156 0.43810547 9.34375 0.57421875 C10.5915625 0.67347656 11.839375 0.77273437 13.125 0.875 C14.96191406 1.01228516 14.96191406 1.01228516 16.8359375 1.15234375 C22.59162906 1.59461009 28.30127039 2.06994027 34 3 C35.32553662 6.64522571 35.02880894 7.93431562 33.4375 11.5625 C30.65161621 16.0025023 26.93887798 18.35370734 22 20 C15.11492608 20.73424739 10.59542184 20.14061216 5 16 C1.46794358 12.18156063 -0.87900893 9.05684826 -1.1875 3.8125 C-1 1 -1 1 0 0 Z " fill="#092812" transform="translate(67,80)"/>
<path d="M0 0 C3.47794735 1.73897368 5.42256446 3.00261134 7.375 6.375 C8.12651216 9.53135108 8.46214398 11.76499216 8 15 C5.57184111 18.41254763 3.48478855 20.67680763 0 23 C-4.26264558 23.48256365 -6.49132744 23.26873267 -10.3125 21.25 C-13.4045941 18.66127006 -14.63370199 16.78286641 -15.44140625 12.8515625 C-15.62742038 9.43130278 -15.66282247 6.98919705 -13.71484375 4.08203125 C-9.3137369 -0.1386202 -5.96200406 -0.94634985 0 0 Z " fill="#F3FAF6" transform="translate(57,45)"/>
<path d="M0 0 C4.1657644 1.7588783 6.17507027 3.86989588 8 8 C8.58496307 11.92760919 8.18285914 13.65459941 6.3125 17.1875 C3.20635319 20.96524611 0.93140988 22.71234321 -3.9375 23.4375 C-7.83530088 22.8806713 -9.93989651 21.43417323 -13 19 C-15.07324138 15.89013793 -15.27392186 15.10891613 -15.25 11.5625 C-15.25515625 10.80066406 -15.2603125 10.03882813 -15.265625 9.25390625 C-14.83575084 5.60629757 -13.69815066 3.5749476 -10.875 1.25 C-7.11389621 -0.38526252 -4.04156346 -0.59844652 0 0 Z " fill="#F4FAF6" transform="translate(119,45)"/>
<path d="M0 0 C1.875 1.1875 1.875 1.1875 3 3 C3.54068562 6.63031776 3.46379841 8.32214079 1.375 11.375 C-1.71186432 13.48706506 -3.3282913 13.61195145 -7 13 C-9.4375 11.4375 -9.4375 11.4375 -11 9 C-11 5.18846501 -10.80074051 2.94902579 -8.3125 0 C-5.12832007 -1.37694267 -3.29075199 -0.980224 0 0 Z " fill="#142E1B" transform="translate(119,50)"/>
<path d="M0 0 C1.875 1.1875 1.875 1.1875 3 3 C3.54068562 6.63031776 3.46379841 8.32214079 1.375 11.375 C-1 13 -1 13 -4 13.5625 C-7 13 -7 13 -9.4375 10.875 C-11 8 -11 8 -11 4.875 C-10 2 -10 2 -8.3125 0.0625 C-5.12702876 -1.40109489 -3.32118677 -0.98928968 0 0 Z " fill="#132E1B" transform="translate(57,50)"/>
</svg>
