<svg width="16" height="16" viewBox="0 0 16 16" fill="none" xmlns="http://www.w3.org/2000/svg">
<g clip-path="url(#clip0_274_1767)">
<path d="M14.3333 8.77502V7.22436C15.294 6.93502 16 6.05302 16 4.99969C16 3.71302 14.9533 2.66636 13.6667 2.66636C13.0113 2.66636 12.42 2.94036 11.9953 3.37702L10.324 2.33236C10.324 1.04569 9.27733 -0.000976562 7.99067 -0.000976562C6.704 -0.000976562 5.65733 1.04569 5.65733 2.33236C5.65733 2.33569 5.65867 2.33902 5.65867 2.34302L4.00467 3.37702C3.58067 2.93969 2.98933 2.66569 2.33333 2.66569C1.04667 2.66569 0 3.71236 0 4.99902C0 6.05236 0.706 6.93436 1.66667 7.22369V8.77436C0.706 9.06369 0 9.94569 0 10.999C0 12.2857 1.04667 13.3324 2.33333 13.3324C2.98933 13.3324 3.58 13.0584 4.00467 12.621L5.65867 13.655C5.65867 13.6584 5.65733 13.6617 5.65733 13.6657C5.65733 14.9524 6.704 15.999 7.99067 15.999C9.27733 15.999 10.324 14.9524 10.324 13.6657L11.9953 12.621C12.4193 13.0584 13.0107 13.3324 13.6667 13.3324C14.9533 13.3324 16 12.2857 16 10.999C16 9.94569 15.294 9.06369 14.3333 8.77436V8.77502ZM13.6667 3.99969C14.218 3.99969 14.6667 4.44836 14.6667 4.99969C14.6667 5.55102 14.218 5.99969 13.6667 5.99969C13.1153 5.99969 12.6667 5.55102 12.6667 4.99969C12.6667 4.44836 13.1153 3.99969 13.6667 3.99969ZM7.99067 1.33302C8.542 1.33302 8.99067 1.78169 8.99067 2.33302C8.99067 2.88436 8.542 3.33302 7.99067 3.33302C7.43933 3.33302 6.99067 2.88436 6.99067 2.33302C6.99067 1.78169 7.43933 1.33302 7.99067 1.33302ZM1.33333 4.99969C1.33333 4.44836 1.782 3.99969 2.33333 3.99969C2.88467 3.99969 3.33333 4.44836 3.33333 4.99969C3.33333 5.55102 2.88467 5.99969 2.33333 5.99969C1.782 5.99969 1.33333 5.55102 1.33333 4.99969ZM2.33333 11.9997C1.782 11.9997 1.33333 11.551 1.33333 10.9997C1.33333 10.4484 1.782 9.99969 2.33333 9.99969C2.88467 9.99969 3.33333 10.4484 3.33333 10.9997C3.33333 11.551 2.88467 11.9997 2.33333 11.9997ZM7.99067 14.6664C7.43933 14.6664 6.99067 14.2177 6.99067 13.6664C6.99067 13.115 7.43933 12.6664 7.99067 12.6664C8.542 12.6664 8.99067 13.115 8.99067 13.6664C8.99067 14.2177 8.542 14.6664 7.99067 14.6664ZM9.91467 12.3504C9.494 11.737 8.78867 11.333 7.99067 11.333C7.19267 11.333 6.49467 11.7337 6.07333 12.3424L4.62267 11.4357C4.64933 11.2937 4.66667 11.149 4.66667 10.9997C4.66667 9.94636 3.96067 9.06436 3 8.77502V7.22436C3.96067 6.93502 4.66667 6.05302 4.66667 4.99969C4.66667 4.85036 4.64933 4.70502 4.62267 4.56369L6.07333 3.65702C6.49467 4.26569 7.196 4.66636 7.99067 4.66636C8.78533 4.66636 9.49333 4.26236 9.91467 3.64902L11.3773 4.56302C11.3507 4.70502 11.3333 4.84969 11.3333 4.99969C11.3333 6.05302 12.0393 6.93502 13 7.22436V8.77502C12.0393 9.06436 11.3333 9.94636 11.3333 10.9997C11.3333 11.149 11.3507 11.2944 11.3773 11.4357L9.91467 12.3504ZM13.6667 11.9997C13.1153 11.9997 12.6667 11.551 12.6667 10.9997C12.6667 10.4484 13.1153 9.99969 13.6667 9.99969C14.218 9.99969 14.6667 10.4484 14.6667 10.9997C14.6667 11.551 14.218 11.9997 13.6667 11.9997ZM8.66667 8.73836L10.6667 7.59502V9.66036L8.66667 10.9104V8.73836ZM10.2287 6.39236L8 7.66569L5.77133 6.39236L8 4.99902L10.2287 6.39236ZM5.33333 7.59502L7.33333 8.73836V10.9104L5.33333 9.66036V7.59502Z" fill="#AAABB8"/>
</g>
<defs>
<clipPath id="clip0_274_1767">
<rect width="16" height="16" fill="white"/>
</clipPath>
</defs>
</svg>
