<svg width="16" height="16" viewBox="0 0 16 16" fill="none" xmlns="http://www.w3.org/2000/svg">
<g clip-path="url(#clip0_274_1730)">
<path d="M15.3333 7.33333C15.702 7.33333 16 7.03533 16 6.66667C16 6.298 15.702 6 15.3333 6H14.6667V4.66667H15.3333C15.702 4.66667 16 4.36867 16 4C16 3.63133 15.702 3.33333 15.3333 3.33333H14.384C14.048 2.56733 13.4327 1.952 12.6667 1.616V0.666667C12.6667 0.298 12.3687 0 12 0C11.6313 0 11.3333 0.298 11.3333 0.666667V1.33333H10V0.666667C10 0.298 9.702 0 9.33333 0C8.96467 0 8.66667 0.298 8.66667 0.666667V1.33333H7.33333V0.666667C7.33333 0.298 7.03467 0 6.66667 0C6.29867 0 6 0.298 6 0.666667V1.33333H4.66667V0.666667C4.66667 0.298 4.368 0 4 0C3.632 0 3.33333 0.298 3.33333 0.666667V1.616C2.56733 1.952 1.952 2.56733 1.616 3.33333H0.666667C0.298667 3.33333 0 3.63133 0 4C0 4.36867 0.298667 4.66667 0.666667 4.66667H1.33333V6H0.666667C0.298667 6 0 6.298 0 6.66667C0 7.03533 0.298667 7.33333 0.666667 7.33333H1.33333V8.66667H0.666667C0.298667 8.66667 0 8.96467 0 9.33333C0 9.702 0.298667 10 0.666667 10H1.33333V11.3333H0.666667C0.298667 11.3333 0 11.6313 0 12C0 12.3687 0.298667 12.6667 0.666667 12.6667H1.616C1.952 13.4327 2.56733 14.048 3.33333 14.384V15.3333C3.33333 15.702 3.632 16 4 16C4.368 16 4.66667 15.702 4.66667 15.3333V14.6667H6V15.3333C6 15.702 6.29867 16 6.66667 16C7.03467 16 7.33333 15.702 7.33333 15.3333V14.6667H8.66667V15.3333C8.66667 15.702 8.96467 16 9.33333 16C9.702 16 10 15.702 10 15.3333V14.6667H11.3333V15.3333C11.3333 15.702 11.6313 16 12 16C12.3687 16 12.6667 15.702 12.6667 15.3333V14.384C13.4327 14.048 14.048 13.4327 14.384 12.6667H15.3333C15.702 12.6667 16 12.3687 16 12C16 11.6313 15.702 11.3333 15.3333 11.3333H14.6667V10H15.3333C15.702 10 16 9.702 16 9.33333C16 8.96467 15.702 8.66667 15.3333 8.66667H14.6667V7.33333H15.3333ZM11.3333 13.3333H4.66667C3.564 13.3333 2.66667 12.436 2.66667 11.3333V4.66667C2.66667 3.564 3.564 2.66667 4.66667 2.66667H11.3333C12.436 2.66667 13.3333 3.564 13.3333 4.66667V11.3333C13.3333 12.436 12.436 13.3333 11.3333 13.3333ZM5.894 9.23733C5.69067 9.708 5.21867 10.0433 4.66667 10.0453C3.92733 10.046 3.33333 9.45267 3.33333 8.72267V7.32333C3.33333 6.594 3.92733 6 4.66667 6C5.18 6.004 5.62533 6.29733 5.84867 6.72067C5.99467 6.99867 5.79333 7.33333 5.47933 7.33333C5.326 7.33333 5.18333 7.25067 5.11267 7.11467C5.02933 6.95333 4.85933 6.83667 4.66733 6.83333C4.40667 6.83333 4.168 7.03467 4.168 7.334V8.712C4.168 9.01133 4.40667 9.21267 4.66733 9.21267C4.874 9.21 5.04933 9.08267 5.12667 8.90933C5.19067 8.76533 5.32667 8.66667 5.484 8.66667H5.51733C5.81133 8.66667 6.01133 8.96733 5.89467 9.23733H5.894ZM12.6667 6.41667V8.72267C12.6667 9.452 12.0727 10.046 11.3333 10.046C10.5973 10.0407 10 9.44933 10 8.72267V8.712H9.99933V6.41667C10 6.18667 10.1867 6 10.4167 6C10.6467 6 10.8333 6.18667 10.8333 6.41667V8.72267C10.8333 8.98533 11.0613 9.208 11.3333 9.21267C11.594 9.21267 11.8327 9.01133 11.8327 8.712V6.41667C11.8333 6.18667 12.02 6 12.25 6C12.48 6 12.6667 6.18667 12.6667 6.41667ZM7.978 6H7.33333C6.96533 6 6.66667 6.29867 6.66667 6.66667V9.62933C6.66667 9.85933 6.85333 10.046 7.08333 10.046C7.31333 10.046 7.5 9.85933 7.5 9.62933V8.64867L7.978 8.64667C8.71733 8.64667 9.31933 8.05267 9.31933 7.32333C9.31933 6.594 8.718 6 7.978 6ZM7.978 7.81333L7.50467 7.81533L7.50133 6.83333H7.978C8.25333 6.83333 8.486 7.05733 8.486 7.32333C8.486 7.58933 8.25333 7.81333 7.978 7.81333Z" fill="#AAABB8"/>
</g>
<defs>
<clipPath id="clip0_274_1730">
<rect width="16" height="16" fill="white"/>
</clipPath>
</defs>
</svg>
