<svg width="16" height="16" viewBox="0 0 16 16" fill="none" xmlns="http://www.w3.org/2000/svg">
<g clip-path="url(#clip0_274_1736)">
<path d="M15.9997 7.6667C15.9981 7.21722 15.895 6.77392 15.698 6.36988C15.5011 5.96585 15.2154 5.61152 14.8624 5.33336C15.3508 4.94831 15.7069 4.42039 15.881 3.82325C16.055 3.22612 16.0383 2.58955 15.8332 2.00235C15.6282 1.41515 15.2449 0.906608 14.737 0.547662C14.229 0.188715 13.6217 -0.00273129 12.9997 2.94434e-05H2.9997C2.37773 -0.00273129 1.7704 0.188715 1.26245 0.547662C0.754494 0.906608 0.371246 1.41515 0.166166 2.00235C-0.038913 2.58955 -0.0555946 3.22612 0.118449 3.82325C0.292492 4.42039 0.64858 4.94831 1.13704 5.33336C0.782734 5.61041 0.496175 5.96451 0.299096 6.36879C0.102016 6.77308 -0.000407765 7.21693 -0.000407765 7.6667C-0.000407765 8.11646 0.102016 8.56032 0.299096 8.9646C0.496175 9.36889 0.782734 9.72298 1.13704 10C0.64858 10.3851 0.292492 10.913 0.118449 11.5101C-0.0555946 12.1073 -0.038913 12.7438 0.166166 13.331C0.371246 13.9182 0.754494 14.4268 1.26245 14.7857C1.7704 15.1447 2.37773 15.3361 2.9997 15.3334H12.9997C13.6217 15.3361 14.229 15.1447 14.737 14.7857C15.2449 14.4268 15.6282 13.9182 15.8332 13.331C16.0383 12.7438 16.055 12.1073 15.881 11.5101C15.7069 10.913 15.3508 10.3851 14.8624 10C15.2154 9.72187 15.5011 9.36755 15.698 8.96351C15.895 8.55947 15.9981 8.11617 15.9997 7.6667ZM1.33304 3.00003C1.33304 2.558 1.50863 2.13408 1.82119 1.82152C2.13375 1.50896 2.55768 1.33336 2.9997 1.33336H3.33304V2.00003C3.33304 2.17684 3.40328 2.34641 3.5283 2.47143C3.65332 2.59646 3.82289 2.6667 3.9997 2.6667C4.17652 2.6667 4.34608 2.59646 4.47111 2.47143C4.59613 2.34641 4.66637 2.17684 4.66637 2.00003V1.33336H5.9997V2.00003C5.9997 2.17684 6.06994 2.34641 6.19497 2.47143C6.31999 2.59646 6.48956 2.6667 6.66637 2.6667C6.84318 2.6667 7.01275 2.59646 7.13778 2.47143C7.2628 2.34641 7.33304 2.17684 7.33304 2.00003V1.33336H12.9997C13.4417 1.33336 13.8657 1.50896 14.1782 1.82152C14.4908 2.13408 14.6664 2.558 14.6664 3.00003C14.6664 3.44206 14.4908 3.86598 14.1782 4.17854C13.8657 4.4911 13.4417 4.6667 12.9997 4.6667H2.9997C2.55768 4.6667 2.13375 4.4911 1.82119 4.17854C1.50863 3.86598 1.33304 3.44206 1.33304 3.00003ZM14.6664 12.3334C14.6664 12.7754 14.4908 13.1993 14.1782 13.5119C13.8657 13.8244 13.4417 14 12.9997 14H2.9997C2.55768 14 2.13375 13.8244 1.82119 13.5119C1.50863 13.1993 1.33304 12.7754 1.33304 12.3334C1.33304 11.8913 1.50863 11.4674 1.82119 11.1549C2.13375 10.8423 2.55768 10.6667 2.9997 10.6667H3.33304V11.3334C3.33304 11.5102 3.40328 11.6797 3.5283 11.8048C3.65332 11.9298 3.82289 12 3.9997 12C4.17652 12 4.34608 11.9298 4.47111 11.8048C4.59613 11.6797 4.66637 11.5102 4.66637 11.3334V10.6667H5.9997V11.3334C5.9997 11.5102 6.06994 11.6797 6.19497 11.8048C6.31999 11.9298 6.48956 12 6.66637 12C6.84318 12 7.01275 11.9298 7.13778 11.8048C7.2628 11.6797 7.33304 11.5102 7.33304 11.3334V10.6667H12.9997C13.4417 10.6667 13.8657 10.8423 14.1782 11.1549C14.4908 11.4674 14.6664 11.8913 14.6664 12.3334ZM2.9997 9.33336C2.55768 9.33336 2.13375 9.15777 1.82119 8.84521C1.50863 8.53265 1.33304 8.10872 1.33304 7.6667C1.33304 7.22467 1.50863 6.80075 1.82119 6.48818C2.13375 6.17562 2.55768 6.00003 2.9997 6.00003H3.33304V6.6667C3.33304 6.84351 3.40328 7.01308 3.5283 7.1381C3.65332 7.26312 3.82289 7.33336 3.9997 7.33336C4.17652 7.33336 4.34608 7.26312 4.47111 7.1381C4.59613 7.01308 4.66637 6.84351 4.66637 6.6667V6.00003H5.9997V6.6667C5.9997 6.84351 6.06994 7.01308 6.19497 7.1381C6.31999 7.26312 6.48956 7.33336 6.66637 7.33336C6.84318 7.33336 7.01275 7.26312 7.13778 7.1381C7.2628 7.01308 7.33304 6.84351 7.33304 6.6667V6.00003H12.9997C13.4417 6.00003 13.8657 6.17562 14.1782 6.48818C14.4908 6.80075 14.6664 7.22467 14.6664 7.6667C14.6664 8.10872 14.4908 8.53265 14.1782 8.84521C13.8657 9.15777 13.4417 9.33336 12.9997 9.33336H2.9997Z" fill="#AAABB8"/>
</g>
<defs>
<clipPath id="clip0_274_1736">
<rect width="16" height="16" fill="white"/>
</clipPath>
</defs>
</svg>
