<svg width="16" height="16" viewBox="0 0 16 16" fill="none" xmlns="http://www.w3.org/2000/svg">
<g clip-path="url(#clip0_274_1748)">
<path d="M9.99733 8.692L11.508 8.54533C11.856 9.39667 12.6913 9.99933 13.6667 9.99933C14.9533 9.99933 16 8.95267 16 7.666C16 6.37933 14.9533 5.33267 13.6667 5.33267C12.5333 5.33267 11.588 6.14533 11.3787 7.21867L9.74 7.37733C9.58733 7.01467 9.366 6.69067 9.102 6.40667L10.328 4.556C10.542 4.62133 10.7647 4.66667 11 4.66667C12.2867 4.66667 13.3333 3.62 13.3333 2.33333C13.3333 1.04667 12.2867 0 11 0C9.71333 0 8.66667 1.04667 8.66667 2.33333C8.66667 2.90067 8.87867 3.41467 9.216 3.81933L8.01933 5.62667C7.60467 5.44133 7.14933 5.33333 6.66667 5.33333C6.184 5.33333 5.72867 5.44133 5.314 5.62667L4.11733 3.81933C4.45533 3.41467 4.66667 2.90067 4.66667 2.33333C4.66667 1.04667 3.62 0 2.33333 0C1.04667 0 0 1.04667 0 2.33333C0 3.62 1.04667 4.66667 2.33333 4.66667C2.56867 4.66667 2.79133 4.62133 3.00533 4.556L4.23133 6.40667C3.67867 7.002 3.33333 7.792 3.33333 8.66667C3.33333 9.41933 3.594 10.1073 4.01667 10.666L3.27533 11.5353C2.98667 11.4073 2.66933 11.3333 2.334 11.3333C1.04733 11.3333 0.000666667 12.38 0.000666667 13.6667C0.000666667 14.9533 1.04733 16 2.334 16C3.62067 16 4.66733 14.9533 4.66733 13.6667C4.66733 13.2 4.526 12.7667 4.28933 12.4013L5.01867 11.546C5.50667 11.8267 6.06467 12 6.66733 12C7.40467 12 8.08 11.752 8.63267 11.3453L10.2107 12.7113C10.0787 13.004 10.0007 13.326 10.0007 13.6673C10.0007 14.954 11.0473 16.0007 12.334 16.0007C13.6207 16.0007 14.6673 14.954 14.6673 13.6673C14.6673 12.3807 13.6207 11.334 12.334 11.334C11.8733 11.334 11.446 11.4727 11.084 11.704L9.52533 10.3553C9.816 9.86533 9.99333 9.30133 9.998 8.69333L9.99733 8.692ZM13.6667 6.66667C14.218 6.66667 14.6667 7.11533 14.6667 7.66667C14.6667 8.218 14.218 8.66667 13.6667 8.66667C13.1153 8.66667 12.6667 8.218 12.6667 7.66667C12.6667 7.11533 13.1153 6.66667 13.6667 6.66667ZM11 1.33333C11.5513 1.33333 12 1.782 12 2.33333C12 2.88467 11.5513 3.33333 11 3.33333C10.4487 3.33333 10 2.88467 10 2.33333C10 1.782 10.4487 1.33333 11 1.33333ZM1.33333 2.33333C1.33333 1.782 1.782 1.33333 2.33333 1.33333C2.88467 1.33333 3.33333 1.782 3.33333 2.33333C3.33333 2.88467 2.88467 3.33333 2.33333 3.33333C1.782 3.33333 1.33333 2.88467 1.33333 2.33333ZM2.33333 14.6667C1.782 14.6667 1.33333 14.218 1.33333 13.6667C1.33333 13.1153 1.782 12.6667 2.33333 12.6667C2.88467 12.6667 3.33333 13.1153 3.33333 13.6667C3.33333 14.218 2.88467 14.6667 2.33333 14.6667ZM6.66667 10.6667C5.564 10.6667 4.66667 9.76933 4.66667 8.66667C4.66667 7.564 5.564 6.66667 6.66667 6.66667C7.76933 6.66667 8.66667 7.564 8.66667 8.66667C8.66667 9.76933 7.76933 10.6667 6.66667 10.6667ZM12.3333 12.6667C12.8847 12.6667 13.3333 13.1153 13.3333 13.6667C13.3333 14.218 12.8847 14.6667 12.3333 14.6667C11.782 14.6667 11.3333 14.218 11.3333 13.6667C11.3333 13.1153 11.782 12.6667 12.3333 12.6667Z" fill="#AAABB8"/>
</g>
<defs>
<clipPath id="clip0_274_1748">
<rect width="16" height="16" fill="white"/>
</clipPath>
</defs>
</svg>
