<svg width="16" height="16" viewBox="0 0 16 16" fill="none" xmlns="http://www.w3.org/2000/svg">
<g clip-path="url(#clip0_274_1742)">
<path d="M13.3332 10H12.6765L15.8932 5.02867C16.0932 4.71933 16.0045 4.30733 15.6952 4.10667C15.3859 3.90667 14.9732 3.99533 14.7732 4.30467C14.7732 4.30467 11.1005 9.99067 11.0952 10H4.90453C4.8992 9.99067 1.22653 4.30467 1.22653 4.30467C1.02653 3.99533 0.613863 3.90667 0.30453 4.10667C-0.00480362 4.30733 -0.0934703 4.71933 0.10653 5.02867L3.3232 10H2.66653C1.19586 10 -0.000136953 11.196 -0.000136953 12.6667V13.3333C-0.000136953 14.804 1.19586 16 2.66653 16H13.3332C14.8039 16 15.9999 14.804 15.9999 13.3333V12.6667C15.9999 11.196 14.8039 10 13.3332 10ZM14.6665 13.3333C14.6665 14.0687 14.0685 14.6667 13.3332 14.6667H2.66653C1.9312 14.6667 1.3332 14.0687 1.3332 13.3333V12.6667C1.3332 11.9313 1.9312 11.3333 2.66653 11.3333H13.3332C14.0685 11.3333 14.6665 11.9313 14.6665 12.6667V13.3333ZM4.66653 13C4.66653 13.552 4.21853 14 3.66653 14C3.11453 14 2.66653 13.552 2.66653 13C2.66653 12.448 3.11453 12 3.66653 12C4.21853 12 4.66653 12.448 4.66653 13ZM7.3332 13C7.3332 13.552 6.8852 14 6.3332 14C5.7812 14 5.3332 13.552 5.3332 13C5.3332 12.448 5.7812 12 6.3332 12C6.8852 12 7.3332 12.448 7.3332 13ZM10.6285 4.868C9.1012 3.73267 6.89786 3.73267 5.37053 4.868C5.0752 5.08867 4.65786 5.026 4.43853 4.73133C4.21853 4.43667 4.27986 4.01867 4.5752 3.79933C5.56986 3.05867 6.75453 2.66733 7.99986 2.66733C9.2452 2.66733 10.4299 3.05867 11.4245 3.79933C11.7199 4.01867 11.7812 4.43667 11.5612 4.73133C11.3405 5.02867 10.9212 5.08733 10.6292 4.868H10.6285ZM9.53386 5.76467C9.84853 5.95667 9.9472 6.36667 9.7552 6.68133C9.56186 6.998 9.14786 7.09267 8.83853 6.90267C8.33453 6.594 7.66386 6.594 7.15986 6.90267C6.8452 7.09467 6.4352 6.996 6.2432 6.68133C6.0512 6.36667 6.14986 5.95667 6.46453 5.76467C7.38786 5.20067 8.61053 5.20067 9.53386 5.76467ZM2.7392 2.75133C2.50853 2.464 2.55386 2.04467 2.84053 1.814C4.29386 0.644667 6.12653 0 7.99986 0C9.8732 0 11.7059 0.644667 13.1585 1.814C13.4459 2.04533 13.4905 2.46467 13.2599 2.75133C13.0279 3.03933 12.6072 3.08267 12.3225 2.85267C11.1052 1.87267 9.56986 1.33333 7.99986 1.33333C6.42986 1.33333 4.89453 1.87333 3.6772 2.85267C3.3892 3.08333 2.96986 3.03667 2.7392 2.75133Z" fill="#AAABB8"/>
</g>
<defs>
<clipPath id="clip0_274_1742">
<rect width="16" height="16" fill="white"/>
</clipPath>
</defs>
</svg>
