<svg width="106" height="17" viewBox="0 0 106 17" fill="none" xmlns="http://www.w3.org/2000/svg">
<path d="M7.99414 0.543945C8.36588 -0.181206 9.40288 -0.181424 9.77441 0.543945L11.8018 4.50391C11.947 4.78753 12.2186 4.98468 12.5332 5.03516L16.9258 5.74023C17.7305 5.86955 18.0508 6.85605 17.4756 7.43359L14.3359 10.585C14.1111 10.8108 14.0074 11.1305 14.0566 11.4453L14.7441 15.8408C14.8697 16.6461 14.0307 17.2553 13.3037 16.8867L9.33594 14.875C9.05173 14.731 8.71583 14.7309 8.43164 14.875L4.46387 16.8867C3.7369 17.2552 2.89791 16.646 3.02344 15.8408L3.71094 11.4453C3.76016 11.1304 3.65653 10.8108 3.43164 10.585L0.291992 7.43359C-0.283213 6.85609 0.0371768 5.86966 0.841797 5.74023L5.23438 5.03516C5.54899 4.98468 5.82055 4.7875 5.96582 4.50391L7.99414 0.543945ZM29.958 0.543945C30.3296 -0.181353 31.3666 -0.181277 31.7383 0.543945L33.7656 4.50391C33.9109 4.78758 34.1834 4.98467 34.498 5.03516L38.8896 5.74023C39.6946 5.86937 40.0157 6.85598 39.4404 7.43359L36.3008 10.585C36.0759 10.8108 35.9723 11.1304 36.0215 11.4453L36.708 15.8408C36.8336 16.646 35.9955 17.255 35.2686 16.8867L31.3008 14.875C31.0167 14.7309 30.6807 14.7311 30.3965 14.875L26.4287 16.8867C25.7017 17.2553 24.8627 16.6461 24.9883 15.8408L25.6758 11.4453C25.725 11.1305 25.6204 10.8108 25.3955 10.585L22.2568 7.43359C21.6815 6.85599 22.0017 5.86939 22.8066 5.74023L27.1992 5.03516C27.5138 4.9846 27.7855 4.7875 27.9307 4.50391L29.958 0.543945ZM51.9229 0.543945C52.2946 -0.181238 53.3316 -0.181393 53.7031 0.543945L55.7305 4.50391C55.8757 4.78752 56.1473 4.98464 56.4619 5.03516L60.8545 5.74023C61.6593 5.86948 61.9796 6.85602 61.4043 7.43359L58.2656 10.585C58.0407 10.8108 57.9361 11.1304 57.9854 11.4453L58.6729 15.8408C58.7984 16.6461 57.9594 17.2553 57.2324 16.8867L53.2646 14.875C52.9804 14.731 52.6445 14.7309 52.3604 14.875L48.3926 16.8867C47.6656 17.2551 46.8266 16.646 46.9521 15.8408L47.6396 11.4453C47.6889 11.1304 47.5853 10.8108 47.3604 10.585L44.2207 7.43359C43.6454 6.85598 43.9665 5.86937 44.7715 5.74023L49.1631 5.03516C49.4778 4.98467 49.7503 4.78758 49.8955 4.50391L51.9229 0.543945ZM73.8867 0.543945C74.2583 -0.181383 75.2953 -0.181247 75.667 0.543945L77.6943 4.50391C77.8396 4.78758 78.1121 4.98467 78.4268 5.03516L82.8184 5.74023C83.6233 5.86937 83.9445 6.85598 83.3691 7.43359L80.2295 10.585C80.0046 10.8108 79.901 11.1304 79.9502 11.4453L80.6367 15.8408C80.7624 16.646 79.9242 17.2551 79.1973 16.8867L75.2295 14.875C74.9453 14.7309 74.6094 14.731 74.3252 14.875L70.3574 16.8867C69.6304 17.2553 68.7914 16.6461 68.917 15.8408L69.6045 11.4453C69.6537 11.1304 69.5491 10.8108 69.3242 10.585L66.1855 7.43359C65.6103 6.85602 65.9305 5.86946 66.7354 5.74023L71.1279 5.03516C71.4425 4.98463 71.7141 4.78752 71.8594 4.50391L73.8867 0.543945ZM95.8516 0.543945C96.2232 -0.181266 97.2602 -0.181365 97.6318 0.543945L99.6592 4.50391C99.8044 4.78751 100.076 4.98462 100.391 5.03516L104.783 5.74023C105.588 5.86942 105.908 6.856 105.333 7.43359L102.194 10.585C101.969 10.8108 101.865 11.1304 101.914 11.4453L102.602 15.8408C102.727 16.6461 101.888 17.2553 101.161 16.8867L97.1934 14.875C96.9092 14.731 96.5732 14.7309 96.2891 14.875L92.3213 16.8867C91.5943 17.2551 90.7562 16.646 90.8818 15.8408L91.5684 11.4453C91.6176 11.1304 91.514 10.8108 91.2891 10.585L88.1494 7.43359C87.5741 6.85598 87.8953 5.86937 88.7002 5.74023L93.0918 5.03516C93.4065 4.98467 93.679 4.78758 93.8242 4.50391L95.8516 0.543945Z" fill="#F9B400"/>
</svg>
