<svg width="32" height="32" viewBox="0 0 32 32" fill="none" xmlns="http://www.w3.org/2000/svg">
<g id="Acala Icon">
<circle id="Base" cx="16" cy="16" r="16" fill="url(#paint0_linear_913_89286)"/>
<path id="Acala" fill-rule="evenodd" clip-rule="evenodd" d="M15.426 8.38086L23.1697 21.8122L24 20.3719L17.0867 8.38086H15.426ZM8 20.3477L14.6277 8.85194L14.6414 8.87564L14.6544 8.85301L22.5086 22.4761H20.8479L18.8636 19.0345C17.962 18.7495 17.0021 18.5958 16.0062 18.5958C15.4928 18.5958 14.9918 18.6317 14.5048 18.7032L15.4612 17.0468C15.6418 17.038 15.8235 17.0335 16.0062 17.0335C16.6146 17.0335 17.2114 17.0828 17.7931 17.1775L14.6408 11.7098L8.8304 21.7879L8 20.3477ZM12.5058 20.1729L15.4839 15.0073L14.6536 13.567L9.51721 22.476H11.178L11.1937 22.4487C12.6181 21.5912 14.2526 21.1578 16.0374 21.1578C17.1771 21.1578 18.2697 21.3591 19.2817 21.7281L18.1691 19.8013C17.4668 19.6642 16.7529 19.5953 16.0374 19.5956C14.8023 19.5956 13.6146 19.7985 12.5058 20.1729Z" fill="white"/>
</g>
<defs>
<linearGradient id="paint0_linear_913_89286" x1="26.4762" y1="28.381" x2="3.47195" y2="5.7126" gradientUnits="userSpaceOnUse">
<stop stop-color="#5A81FF"/>
<stop offset="0.524" stop-color="#E40C5B"/>
<stop offset="1" stop-color="#FF4C3B"/>
</linearGradient>
</defs>
</svg>
