<svg width="51" height="24" viewBox="0 0 51 24" fill="none" xmlns="http://www.w3.org/2000/svg">
<rect x="0.700195" y="0.5" width="49" height="23" rx="3.5" fill="#0BB63B" fill-opacity="0.2"/>
<rect x="0.700195" y="0.5" width="49" height="23" rx="3.5" stroke="#0BB63B"/>
<path d="M12.2013 14.164H8.62529L7.97729 16H6.51329L9.63329 7.66H11.2053L14.3133 16H12.8493L12.2013 14.164ZM11.8173 13.108L10.4133 9.148L9.00929 13.108H11.8173ZM18.269 9.304C19.125 9.304 19.833 9.532 20.393 9.988C20.953 10.436 21.301 11.048 21.437 11.824H19.985C19.905 11.408 19.709 11.084 19.397 10.852C19.093 10.612 18.709 10.492 18.245 10.492C17.717 10.492 17.277 10.68 16.925 11.056C16.573 11.424 16.397 11.968 16.397 12.688C16.397 13.408 16.573 13.956 16.925 14.332C17.277 14.708 17.717 14.896 18.245 14.896C18.709 14.896 19.093 14.776 19.397 14.536C19.709 14.296 19.905 13.968 19.985 13.552H21.437C21.301 14.328 20.953 14.944 20.393 15.4C19.833 15.856 19.125 16.084 18.269 16.084C17.629 16.084 17.061 15.948 16.565 15.676C16.077 15.404 15.693 15.012 15.413 14.5C15.133 13.988 14.993 13.384 14.993 12.688C14.993 12 15.133 11.4 15.413 10.888C15.693 10.376 16.077 9.984 16.565 9.712C17.061 9.44 17.629 9.304 18.269 9.304ZM26.0827 14.812V16H25.2427C24.5387 16 24.0027 15.832 23.6347 15.496C23.2747 15.152 23.0947 14.584 23.0947 13.792V10.552H22.1467V9.388H23.0947V7.744H24.4747V9.388H26.0707V10.552H24.4747V13.816C24.4747 14.192 24.5427 14.452 24.6787 14.596C24.8227 14.74 25.0707 14.812 25.4227 14.812H26.0827ZM27.1721 7.468C27.1721 7.236 27.2521 7.044 27.4121 6.892C27.5721 6.74 27.7841 6.664 28.0481 6.664C28.3121 6.664 28.5241 6.74 28.6841 6.892C28.8521 7.044 28.9361 7.236 28.9361 7.468C28.9361 7.7 28.8521 7.888 28.6841 8.032C28.5241 8.176 28.3121 8.248 28.0481 8.248C27.7841 8.248 27.5721 8.176 27.4121 8.032C27.2521 7.888 27.1721 7.7 27.1721 7.468ZM28.7321 9.388V16H27.3641V9.388H28.7321ZM33.0996 14.584L34.9716 9.388H36.4356L33.9156 16H32.2596L29.7396 9.388H31.2036L33.0996 14.584ZM43.5863 12.376C43.5863 12.6 43.5703 12.796 43.5383 12.964H38.4503C38.4743 13.644 38.6623 14.148 39.0143 14.476C39.3663 14.804 39.8023 14.968 40.3223 14.968C40.7783 14.968 41.1623 14.852 41.4743 14.62C41.7943 14.388 41.9903 14.08 42.0623 13.696H43.5263C43.4383 14.16 43.2543 14.572 42.9743 14.932C42.6943 15.292 42.3303 15.576 41.8823 15.784C41.4343 15.984 40.9343 16.084 40.3823 16.084C39.7423 16.084 39.1743 15.948 38.6783 15.676C38.1903 15.404 37.8063 15.012 37.5263 14.5C37.2463 13.988 37.1063 13.384 37.1063 12.688C37.1063 12 37.2463 11.4 37.5263 10.888C37.8063 10.376 38.1903 9.984 38.6783 9.712C39.1743 9.44 39.7423 9.304 40.3823 9.304C41.0303 9.304 41.5943 9.44 42.0743 9.712C42.5623 9.976 42.9343 10.344 43.1903 10.816C43.4543 11.28 43.5863 11.8 43.5863 12.376ZM42.2063 12.34C42.2223 11.908 42.1463 11.548 41.9783 11.26C41.8183 10.964 41.5943 10.748 41.3063 10.612C41.0263 10.468 40.7183 10.396 40.3823 10.396C39.8463 10.396 39.3983 10.56 39.0383 10.888C38.6783 11.216 38.4823 11.7 38.4503 12.34H42.2063Z" fill="#0BB63B"/>
</svg>
