<svg width="32" height="32" viewBox="0 0 32 32" fill="none" xmlns="http://www.w3.org/2000/svg">
<circle cx="16" cy="16" r="16" fill="white"/>
<path d="M17.7345 15.2993L18.9655 13.2105L22.2835 18.3783L22.285 19.3701L22.2742 12.5454C22.2664 12.3786 22.1778 12.2259 22.0365 12.1359L16.0628 8.69987C15.9232 8.63118 15.7459 8.632 15.6064 8.70204C15.5875 8.71152 15.5699 8.72174 15.553 8.73298L15.5322 8.74608L9.73373 12.1062L9.71124 12.1165C9.68226 12.1297 9.65307 12.1467 9.62553 12.1663C9.51559 12.2451 9.44256 12.3618 9.41894 12.4924C9.41544 12.5122 9.41276 12.5325 9.41162 12.5529L9.4207 18.1143L12.5113 13.3242C12.9003 12.689 13.7481 12.4843 14.5352 12.4955L15.4588 12.5199L10.0164 21.2479L10.658 21.6172L16.1655 12.5287L18.6 12.5199L13.1066 21.8378L15.3958 23.1545L15.6693 23.3117C15.7851 23.3588 15.9214 23.3611 16.0381 23.3189L22.0957 19.8085L20.9375 20.4796L17.7345 15.2993ZM18.2041 22.0637L15.892 18.4347L17.3035 16.0396L20.34 20.8258L18.2041 22.0637Z" fill="#2D374B"/>
<path d="M15.8916 18.4349L18.2038 22.0638L20.3396 20.826L17.3031 16.0398L15.8916 18.4349Z" fill="#28A0F0"/>
<path d="M22.2847 19.3703L22.2831 18.3785L18.9651 13.2107L17.7341 15.2995L20.9372 20.4798L22.0954 19.8087C22.209 19.7165 22.2778 19.581 22.285 19.435L22.2847 19.3703Z" fill="#28A0F0"/>
<path d="M8.38086 20.3055L10.0164 21.2479L15.4587 12.5199L14.5351 12.4955C13.7482 12.4844 12.9003 12.689 12.5112 13.3242L9.42061 18.1143L8.38086 19.7118V20.3055Z" fill="white"/>
<path d="M18.5999 12.52L16.1655 12.5289L10.658 21.6174L12.5831 22.7257L13.1065 21.8379L18.5999 12.52Z" fill="white"/>
<path d="M23.3108 12.5074C23.2905 11.9983 23.0148 11.5323 22.583 11.2609L16.5311 7.78055C16.104 7.56551 15.5704 7.5652 15.1425 7.78045C15.092 7.80593 9.25714 11.19 9.25714 11.19C9.17638 11.2286 9.09861 11.2747 9.02548 11.3271C8.64005 11.6034 8.4051 12.0327 8.38086 12.5043V19.712L9.42061 18.1145L9.41154 12.5529C9.41277 12.5326 9.41535 12.5125 9.41886 12.4928C9.44238 12.3619 9.5155 12.2453 9.62545 12.1664C9.65299 12.1468 15.5874 8.7116 15.6062 8.70211C15.7458 8.63208 15.923 8.63125 16.0626 8.69995L22.0363 12.136C22.1776 12.226 22.2662 12.3786 22.274 12.5455V19.4348C22.2668 19.5808 22.209 19.7162 22.0955 19.8084L20.9373 20.4796L20.3397 20.8259L18.2039 22.0637L16.0379 23.3189C15.9212 23.3611 15.7848 23.3587 15.6691 23.3117L13.1064 21.8377L12.5829 22.7255L14.886 24.0515C14.9621 24.0948 15.03 24.1332 15.0857 24.1646C15.1719 24.2129 15.2307 24.2452 15.2514 24.2553C15.4151 24.3348 15.6506 24.381 15.8628 24.381C16.0574 24.381 16.2471 24.3454 16.4267 24.275L22.7181 20.6316C23.0792 20.3518 23.2917 19.9298 23.3108 19.4728V12.5074Z" fill="#96BEDC"/>
</svg>
