<svg width="32" height="32" viewBox="0 0 32 32" fill="none" xmlns="http://www.w3.org/2000/svg">
<circle cx="16" cy="16" r="16" fill="#0C192B"/>
<g clip-path="url(#clip0_913_89329)">
<path d="M23.905 17.9595L16.7374 23.2592C16.6424 23.3288 16.5031 23.3352 16.4082 23.2655L9.1266 18.1178C8.9873 18.0165 8.95564 17.8138 9.06961 17.6809L16.2309 9.09498C16.3322 8.96834 16.5221 8.96834 16.6298 9.09498L23.943 17.6302C24.0253 17.7315 24.0126 17.8835 23.905 17.9595Z" fill="#FFF4FC"/>
<path d="M23.5188 17.7821L16.7058 22.8158L16.6678 17.6871L16.6172 9.63306L23.3605 17.5921L23.5188 17.7821Z" fill="url(#paint0_linear_913_89329)"/>
<path d="M9.40527 17.8897L16.3956 22.8158L16.2373 9.63306L9.40527 17.8897Z" fill="url(#paint1_linear_913_89329)"/>
<path d="M16.3386 17.7L9.45593 17.8329L9.40527 17.8899L16.3956 22.816L16.3386 17.7Z" fill="url(#paint2_linear_913_89329)"/>
<path d="M16.6677 17.6873L23.3604 17.5923L23.5187 17.7822L16.7057 22.816L16.6677 17.6873Z" fill="url(#paint3_linear_913_89329)"/>
<path fill-rule="evenodd" clip-rule="evenodd" d="M15.1356 10.7698L16.3548 13.6714L16.2709 13.5971C16.0477 13.3994 15.6968 13.0421 15.4415 12.4933C15.1225 11.8107 15.1098 11.1919 15.1289 10.879L15.1356 10.7698ZM15.1752 10.996C15.1677 11.3265 15.2087 11.8743 15.4878 12.4717L15.4879 12.4717C15.7085 12.9462 16.0019 13.2753 16.2192 13.4805L15.1752 10.996ZM16.6586 13.8368C16.9808 14.1021 17.2649 14.3041 17.4855 14.4427L17.4857 14.4429C18.1546 14.872 18.7415 15.0992 19.0448 15.2129L19.045 15.213C19.1727 15.2624 19.3135 15.309 19.5211 15.3778C19.6316 15.4144 19.7611 15.4573 19.9177 15.5102C20.2747 15.6261 20.4609 15.6817 20.5758 15.716L20.5881 15.7197C20.7021 15.7537 20.7446 15.7668 20.8252 15.8022C20.9459 15.8531 21.7459 16.1919 22.0731 16.9297C22.1608 17.1267 22.203 17.3261 22.2139 17.5197L23.3601 17.5034L23.3608 17.5545L22.216 17.5708C22.2239 17.8486 22.1692 18.113 22.0946 18.3395C21.9637 18.737 21.7706 19.0211 21.7415 19.0631L21.6995 19.034C21.7273 18.9938 21.9173 18.7143 22.046 18.3235C22.1195 18.1004 22.1727 17.842 22.1649 17.5715L16.6681 17.6495L16.6674 17.5984L18.8607 17.5672L16.6382 15.6233L16.6719 15.5848L18.9371 17.5662L22.1627 17.5204C22.1519 17.3329 22.1109 17.1404 22.0264 16.9505L22.0264 16.9505C21.7079 16.2324 20.9257 15.9 20.8051 15.8493L20.8049 15.8492L20.8047 15.8491C20.7271 15.815 20.6873 15.8027 20.5734 15.7687L20.5612 15.765C20.4461 15.7307 20.2594 15.6749 19.9017 15.5588L19.9014 15.5587C19.7462 15.5062 19.6172 15.4635 19.5067 15.4269C19.2981 15.3578 19.1555 15.3106 19.0267 15.2607C18.7221 15.1465 18.1314 14.9178 17.4581 14.4859C17.2355 14.346 16.9497 14.1427 16.6261 13.8763L16.6586 13.8368ZM14.6779 14.3088C15.052 14.4723 15.581 14.8014 16.3223 15.3685L16.3457 15.3864L14.6657 17.0418C14.7373 17.2446 14.8033 17.4456 14.858 17.6396L16.338 17.611L16.339 17.6622L14.8721 17.6905C14.9124 17.8385 14.9458 17.9822 14.9696 18.1192C15.0495 18.5803 15.0225 18.9769 14.7728 19.2067L14.7727 19.2068C14.6279 19.3385 14.4081 19.417 14.0898 19.4766C13.7711 19.5362 13.3487 19.5774 12.7951 19.6312L12.795 19.6312C12.4525 19.6629 12.1668 19.6757 11.9822 19.6757H11.9198L13.9158 17.709L9.45631 17.7951L9.45532 17.744L13.9687 17.6568L14.6067 17.0282C14.5572 16.8889 14.5051 16.7485 14.4522 16.6088C14.411 16.4997 14.3693 16.391 14.328 16.2835C14.1705 15.8729 14.0194 15.4791 13.9251 15.1471C13.8656 14.9375 13.8281 14.7506 13.8263 14.5982C13.8245 14.4464 13.8581 14.3231 13.9477 14.2484L13.9479 14.2482C14.0129 14.1956 14.103 14.1703 14.2223 14.1782C14.3412 14.1861 14.4909 14.227 14.6779 14.3088ZM14.6468 16.9886L16.2679 15.3913C15.5399 14.8359 15.0219 14.5149 14.6574 14.3556C14.4732 14.2751 14.3297 14.2365 14.2189 14.2292C14.1086 14.2219 14.0325 14.2456 13.9803 14.2878C13.9085 14.3478 13.8757 14.4516 13.8774 14.5976C13.8791 14.7432 13.9152 14.925 13.9743 15.1331C14.0679 15.4627 14.2178 15.8536 14.3752 16.2638C14.4166 16.3717 14.4585 16.4809 14.5 16.5907C14.5501 16.723 14.5995 16.8561 14.6468 16.9886ZM14.6255 17.0814L14.043 17.6554L14.8051 17.6406C14.7537 17.4592 14.6922 17.2714 14.6255 17.0814ZM14.8193 17.6915L13.9901 17.7075L12.045 19.6241C12.227 19.6216 12.4859 19.6085 12.7903 19.5803C13.3447 19.5265 13.7644 19.4854 14.0804 19.4263C14.3969 19.3671 14.6045 19.2906 14.7382 19.1691C14.9666 18.9588 14.9989 18.5877 14.9192 18.1279C14.8951 17.9888 14.8609 17.8425 14.8193 17.6915Z" fill="#98C9C0"/>
</g>
<defs>
<linearGradient id="paint0_linear_913_89329" x1="16.6161" y1="16.2248" x2="23.5204" y2="16.2248" gradientUnits="userSpaceOnUse">
<stop stop-color="#3B8270"/>
<stop offset="1" stop-color="#305C6E"/>
</linearGradient>
<linearGradient id="paint1_linear_913_89329" x1="9.40796" y1="16.2248" x2="16.3971" y2="16.2248" gradientUnits="userSpaceOnUse">
<stop stop-color="#4E7F98"/>
<stop offset="1" stop-color="#3BC0B5"/>
</linearGradient>
<linearGradient id="paint2_linear_913_89329" x1="9.40796" y1="20.2574" x2="16.3971" y2="20.2574" gradientUnits="userSpaceOnUse">
<stop stop-color="#30435C"/>
<stop offset="1" stop-color="#299AA9"/>
</linearGradient>
<linearGradient id="paint3_linear_913_89329" x1="16.6692" y1="20.2063" x2="23.5203" y2="20.2063" gradientUnits="userSpaceOnUse">
<stop stop-color="#2E2C29"/>
<stop offset="1" stop-color="#323232"/>
</linearGradient>
<clipPath id="clip0_913_89329">
<rect width="15" height="14.3162" fill="white" transform="translate(9 9)"/>
</clipPath>
</defs>
</svg>
