<svg width="32" height="32" viewBox="0 0 32 32" fill="none" xmlns="http://www.w3.org/2000/svg">
<g id="avalanche">
<path id="avalanche_2" fill-rule="evenodd" clip-rule="evenodd" d="M32 16C32 24.8396 24.8396 32 16 32C7.16035 32 0 24.8396 0 16C0 7.16035 7.16035 0 16 0C24.8396 0 32 7.16035 32 16ZM11.4636 22.3673H8.36152C7.70845 22.3673 7.38192 22.3673 7.19534 22.2391C6.98542 22.0991 6.85714 21.8776 6.83382 21.621C6.82216 21.3878 6.98542 21.1079 7.30029 20.5364L14.9738 7.02041C15.3003 6.44898 15.4636 6.15743 15.6735 6.05248C15.895 5.93586 16.1633 5.93586 16.3848 6.05248C16.5948 6.15743 16.758 6.44898 17.0845 7.02041L18.6589 9.7726L18.6706 9.78426C19.0204 10.4023 19.207 10.7172 19.277 11.0437C19.3586 11.4052 19.3586 11.7784 19.277 12.1399C19.1953 12.4665 19.0204 12.7813 18.6589 13.4111L14.6356 20.5364L14.6239 20.5598C14.2741 21.1778 14.0875 21.4927 13.8426 21.7376C13.5743 21.9942 13.2478 22.1808 12.8863 22.2974C12.5598 22.3907 12.1983 22.3907 11.4636 22.3907V22.3673ZM19.3003 22.3673H23.7551C24.4082 22.3673 24.7464 22.3673 24.9329 22.2391C25.1429 22.0991 25.2828 21.8659 25.2945 21.621C25.3061 21.3994 25.1429 21.1195 24.8397 20.5948C24.828 20.5714 24.8163 20.5598 24.8047 20.5364L22.5773 16.723L22.5539 16.6764C22.2391 16.1516 22.0875 15.8834 21.8776 15.7784C21.656 15.6618 21.3878 15.6618 21.1662 15.7784C20.9563 15.8834 20.793 16.1633 20.4665 16.723L18.2507 20.5364L18.2391 20.5481C17.9125 21.1079 17.7493 21.3878 17.7609 21.621C17.7726 21.8776 17.9009 22.0991 18.1224 22.2391C18.3207 22.3673 18.6472 22.3673 19.3003 22.3673Z" fill="#E84142"/>
</g>
</svg>
