<svg width="65" height="24" viewBox="0 0 65 24" fill="none" xmlns="http://www.w3.org/2000/svg">
<rect x="0.700012" y="0.5" width="63" height="23" rx="3.5" fill="#607FFF" fill-opacity="0.2"/>
<rect x="0.700012" y="0.5" width="63" height="23" rx="3.5" stroke="#607FFF"/>
<path d="M12.5038 14.164H8.92784L8.27984 16H6.81584L9.93584 7.66H11.5078L14.6158 16H13.1518L12.5038 14.164ZM12.1198 13.108L10.7158 9.148L9.31184 13.108H12.1198ZM18.3435 14.584L20.2155 9.388H21.6795L19.1595 16H17.5035L14.9835 9.388H16.4475L18.3435 14.584ZM28.8302 12.376C28.8302 12.6 28.8142 12.796 28.7822 12.964H23.6942C23.7182 13.644 23.9062 14.148 24.2582 14.476C24.6102 14.804 25.0462 14.968 25.5662 14.968C26.0222 14.968 26.4062 14.852 26.7182 14.62C27.0382 14.388 27.2342 14.08 27.3062 13.696H28.7702C28.6822 14.16 28.4982 14.572 28.2182 14.932C27.9382 15.292 27.5742 15.576 27.1262 15.784C26.6782 15.984 26.1782 16.084 25.6262 16.084C24.9862 16.084 24.4182 15.948 23.9222 15.676C23.4342 15.404 23.0502 15.012 22.7702 14.5C22.4902 13.988 22.3502 13.384 22.3502 12.688C22.3502 12 22.4902 11.4 22.7702 10.888C23.0502 10.376 23.4342 9.984 23.9222 9.712C24.4182 9.44 24.9862 9.304 25.6262 9.304C26.2742 9.304 26.8382 9.44 27.3182 9.712C27.8062 9.976 28.1782 10.344 28.4342 10.816C28.6982 11.28 28.8302 11.8 28.8302 12.376ZM27.4502 12.34C27.4662 11.908 27.3902 11.548 27.2222 11.26C27.0622 10.964 26.8382 10.748 26.5502 10.612C26.2702 10.468 25.9622 10.396 25.6262 10.396C25.0902 10.396 24.6422 10.56 24.2822 10.888C23.9222 11.216 23.7262 11.7 23.6942 12.34H27.4502ZM31.5191 10.684C31.7431 10.252 32.0631 9.912 32.4791 9.664C32.8951 9.408 33.3751 9.28 33.9191 9.28V10.768H33.5111C32.9111 10.768 32.4271 10.916 32.0591 11.212C31.6991 11.5 31.5191 11.98 31.5191 12.652V16H30.1511V9.388H31.5191V10.684ZM37.596 9.304C38.196 9.304 38.708 9.452 39.132 9.748C39.556 10.044 39.856 10.436 40.032 10.924V9.388H41.4V16H40.032V14.464C39.856 14.952 39.556 15.344 39.132 15.64C38.708 15.936 38.196 16.084 37.596 16.084C37.02 16.084 36.504 15.948 36.048 15.676C35.6 15.404 35.248 15.012 34.992 14.5C34.736 13.988 34.608 13.384 34.608 12.688C34.608 12 34.736 11.4 34.992 10.888C35.248 10.376 35.6 9.984 36.048 9.712C36.504 9.44 37.02 9.304 37.596 9.304ZM38.016 10.504C37.408 10.504 36.92 10.7 36.552 11.092C36.192 11.476 36.012 12.008 36.012 12.688C36.012 13.368 36.192 13.904 36.552 14.296C36.92 14.68 37.408 14.872 38.016 14.872C38.4 14.872 38.744 14.784 39.048 14.608C39.352 14.424 39.592 14.168 39.768 13.84C39.944 13.512 40.032 13.128 40.032 12.688C40.032 12.256 39.944 11.876 39.768 11.548C39.592 11.212 39.352 10.956 39.048 10.78C38.744 10.596 38.4 10.504 38.016 10.504ZM45.6937 9.304C46.2937 9.304 46.8057 9.452 47.2297 9.748C47.6537 10.044 47.9537 10.436 48.1297 10.924V9.388H49.4977V16.072C49.4977 16.688 49.3697 17.232 49.1137 17.704C48.8657 18.184 48.5057 18.56 48.0337 18.832C47.5617 19.104 47.0017 19.24 46.3537 19.24C45.4257 19.24 44.6737 19.02 44.0977 18.58C43.5297 18.14 43.1737 17.544 43.0297 16.792H44.3857C44.4977 17.184 44.7137 17.488 45.0337 17.704C45.3537 17.928 45.7617 18.04 46.2577 18.04C46.8017 18.04 47.2497 17.872 47.6017 17.536C47.9537 17.2 48.1297 16.712 48.1297 16.072V14.464C47.9537 14.952 47.6537 15.344 47.2297 15.64C46.8057 15.936 46.2937 16.084 45.6937 16.084C45.1177 16.084 44.6017 15.948 44.1457 15.676C43.6977 15.404 43.3457 15.012 43.0897 14.5C42.8337 13.988 42.7057 13.384 42.7057 12.688C42.7057 12 42.8337 11.4 43.0897 10.888C43.3457 10.376 43.6977 9.984 44.1457 9.712C44.6017 9.44 45.1177 9.304 45.6937 9.304ZM46.1137 10.504C45.5057 10.504 45.0177 10.7 44.6497 11.092C44.2897 11.476 44.1097 12.008 44.1097 12.688C44.1097 13.368 44.2897 13.904 44.6497 14.296C45.0177 14.68 45.5057 14.872 46.1137 14.872C46.4977 14.872 46.8417 14.784 47.1457 14.608C47.4497 14.424 47.6897 14.168 47.8657 13.84C48.0417 13.512 48.1297 13.128 48.1297 12.688C48.1297 12.256 48.0417 11.876 47.8657 11.548C47.6897 11.212 47.4497 10.956 47.1457 10.78C46.8417 10.596 46.4977 10.504 46.1137 10.504ZM57.2833 12.376C57.2833 12.6 57.2673 12.796 57.2353 12.964H52.1473C52.1713 13.644 52.3593 14.148 52.7113 14.476C53.0633 14.804 53.4993 14.968 54.0193 14.968C54.4753 14.968 54.8593 14.852 55.1713 14.62C55.4913 14.388 55.6873 14.08 55.7593 13.696H57.2233C57.1353 14.16 56.9513 14.572 56.6713 14.932C56.3913 15.292 56.0273 15.576 55.5793 15.784C55.1313 15.984 54.6313 16.084 54.0793 16.084C53.4393 16.084 52.8713 15.948 52.3753 15.676C51.8873 15.404 51.5033 15.012 51.2233 14.5C50.9433 13.988 50.8033 13.384 50.8033 12.688C50.8033 12 50.9433 11.4 51.2233 10.888C51.5033 10.376 51.8873 9.984 52.3753 9.712C52.8713 9.44 53.4393 9.304 54.0793 9.304C54.7273 9.304 55.2913 9.44 55.7713 9.712C56.2593 9.976 56.6313 10.344 56.8873 10.816C57.1513 11.28 57.2833 11.8 57.2833 12.376ZM55.9033 12.34C55.9193 11.908 55.8433 11.548 55.6753 11.26C55.5153 10.964 55.2913 10.748 55.0033 10.612C54.7233 10.468 54.4153 10.396 54.0793 10.396C53.5433 10.396 53.0953 10.56 52.7353 10.888C52.3753 11.216 52.1793 11.7 52.1473 12.34H55.9033Z" fill="#607FFF"/>
</svg>
