<svg width="14" height="14" viewBox="0 0 14 14" fill="none" xmlns="http://www.w3.org/2000/svg">
<path d="M12.1133 4.61915C11.9083 3.34231 10.796 2.36209 9.46225 2.36209C9.20347 2.36209 8.94556 2.39972 8.69859 2.47278C7.88769 1.42869 6.48725 0.880717 5.06472 1.09028C3.14431 1.37203 1.74562 2.93106 1.75262 4.67712C0.802811 5.10281 0.171936 6.0524 0.171936 7.1245C0.171936 8.47134 1.16987 9.58653 2.46444 9.77728C2.4454 9.60797 2.43337 9.43669 2.43337 9.26234C2.43337 9.06044 2.45109 8.8629 2.47669 8.66756C1.78259 8.4965 1.26569 7.87044 1.26569 7.12428C1.26569 6.39519 1.75744 5.7619 2.46159 5.58406C2.73306 5.51559 2.90894 5.25265 2.8689 4.9755C2.67684 3.64878 3.73319 2.39119 5.22375 2.17222C5.37337 2.15012 5.52234 2.13962 5.66978 2.13962C6.6559 2.13962 7.5635 2.62 8.01456 3.41275C8.15915 3.66672 8.47787 3.76209 8.73906 3.62909C8.9635 3.51425 9.20697 3.45584 9.46247 3.45584C10.3364 3.45584 11.0502 4.16547 11.0534 5.0374C11.0545 5.29378 11.2332 5.51515 11.4839 5.56962C12.2202 5.72997 12.7345 6.36937 12.7345 7.12428C12.7345 7.87044 12.2176 8.4965 11.5235 8.66756C11.5491 8.86269 11.5668 9.06022 11.5668 9.26234C11.5668 9.43669 11.5548 9.60797 11.5358 9.77728C12.8303 9.58631 13.8283 8.47134 13.8283 7.1245C13.8281 5.99115 13.1407 5.01225 12.1133 4.61915Z" fill="#AAABB8"/>
<path d="M7 5.57334C6.76003 5.57334 6.52115 5.59718 6.28687 5.64334C6.4459 5.42546 6.4004 5.12009 6.18362 4.95865C5.96509 4.79634 5.65709 4.84162 5.495 5.05949L4.64625 6.1994C4.56378 6.31031 4.53162 6.45074 4.55765 6.58637C4.5839 6.72199 4.66572 6.84056 4.7834 6.91274L6.00228 7.66087C6.08256 7.71031 6.17137 7.73371 6.25931 7.73371C6.42469 7.73371 6.58634 7.65015 6.67909 7.49899C6.82128 7.26734 6.74887 6.96415 6.51722 6.82196L6.38662 6.74168C6.58525 6.69334 6.78978 6.66665 6.99978 6.66665C8.4315 6.66665 9.59634 7.83149 9.59634 9.26321C9.59634 9.71384 9.48456 10.1411 9.26362 10.5337C9.03022 10.95 8.68634 11.2939 8.2694 11.5277C7.8774 11.7482 7.45018 11.86 6.99956 11.86C5.56784 11.86 4.403 10.6952 4.403 9.26343C4.403 8.86553 4.49006 8.48687 4.66178 8.13774C4.795 7.86671 4.68343 7.53903 4.4124 7.40559C4.14137 7.27193 3.81368 7.38393 3.68025 7.65496C3.43393 8.15568 3.30903 8.69687 3.30903 9.26365C3.30903 11.2985 4.96453 12.954 6.99934 12.954C7.63109 12.954 8.2554 12.7906 8.80469 12.4817C9.39684 12.1494 9.88509 11.6611 10.2169 11.0697C10.5262 10.5197 10.6897 9.8954 10.6897 9.26365C10.6903 7.22884 9.03481 5.57334 7 5.57334Z" fill="#AAABB8"/>
</svg>
