<svg width="36" height="36" viewBox="0 0 36 36" fill="none" xmlns="http://www.w3.org/2000/svg">
<g clip-path="url(#clip0_1660_5435)">
<path d="M0.00778198 35.9949H10.8036V31.1968H0.00778198V35.9949ZM1.20731 32.3963H9.60402V34.7954H1.20731V32.3963Z" fill="url(#paint0_linear_1660_5435)"/>
<path d="M12.6028 35.9949H23.3986V31.1968H12.6028V35.9949ZM13.8024 32.3963H22.1991V34.7954H13.8024V32.3963Z" fill="url(#paint1_linear_1660_5435)"/>
<path d="M25.1979 35.9949H35.9937V31.1968H25.1979V35.9949ZM26.3974 32.3963H34.7941V34.7954H26.3974V32.3963Z" fill="url(#paint2_linear_1660_5435)"/>
<path d="M3.0066 32.9961H1.80707V34.1956H3.0066V32.9961Z" fill="url(#paint3_linear_1660_5435)"/>
<path d="M28.1968 32.9961H26.9972V34.1956H28.1968V32.9961Z" fill="url(#paint4_linear_1660_5435)"/>
<path d="M15.6017 32.9961H14.4022V34.1956H15.6017V32.9961Z" fill="url(#paint5_linear_1660_5435)"/>
<path d="M31.1956 22.2003H18.6005V19.2015H30.5958C33.5769 19.205 35.9965 16.7911 36 13.8099C36.0027 11.4863 34.5182 9.4218 32.3147 8.68461C31.8089 5.74936 29.0193 3.77988 26.0841 4.28579C25.6229 4.36525 25.1739 4.50448 24.7487 4.69985C23.3655 0.973358 19.2233 -0.926173 15.4968 0.457036C13.5323 1.1862 11.9831 2.73539 11.254 4.69985C8.54769 3.45586 5.34532 4.64137 4.10133 7.34766C3.90566 7.77342 3.76621 8.22287 3.68674 8.68469C0.8596 9.63052 -0.665527 12.6892 0.280377 15.5163C1.01756 17.7199 3.08218 19.2043 5.40567 19.2016H17.401V22.2004H4.20614V25.799H0.00778381V30.5971H10.8036V25.799H5.40567V23.3999H17.401V25.799H12.6029V30.5971H23.3986V25.799H18.6005V23.3999H29.996V25.799H25.1979V30.5971H35.9937V25.799H31.1956V22.2003ZM9.60403 26.9984V29.3975H1.20731V26.9984H9.60403ZM22.1991 26.9984V29.3975H13.8024V26.9984H22.1991ZM5.40567 18.002C3.0881 17.9993 1.20994 16.1212 1.20731 13.8036C1.20619 11.8799 2.51255 10.2016 4.37767 9.7306C4.62365 9.6683 4.80381 9.45786 4.8275 9.20521C5.02272 7.04688 6.83708 5.39685 9.00426 5.4069C9.81192 5.40495 10.6024 5.63968 11.278 6.08223C11.5548 6.26411 11.9267 6.18719 12.1086 5.91033C12.1455 5.85417 12.1727 5.79225 12.189 5.72717C13.0074 2.51745 16.2728 0.578863 19.4825 1.39724C21.6094 1.93951 23.2702 3.60033 23.8125 5.72717C23.8932 6.04842 24.2191 6.24342 24.5404 6.16268C24.6055 6.14633 24.6674 6.11912 24.7235 6.08223C25.3991 5.63968 26.1896 5.40495 26.9972 5.4069C29.1644 5.39685 30.9788 7.04688 31.174 9.20521C31.1977 9.45786 31.3778 9.6683 31.6238 9.7306C33.8733 10.293 35.241 12.5724 34.6786 14.8218C34.2105 16.6943 32.526 18.0065 30.5958 18.002H5.40567ZM34.7942 26.9984V29.3975H26.3974V26.9984H34.7942Z" fill="url(#paint6_linear_1660_5435)"/>
<path d="M3.0066 27.5981H1.80707V28.7977H3.0066V27.5981Z" fill="url(#paint7_linear_1660_5435)"/>
<path d="M15.6017 27.5981H14.4022V28.7977H15.6017V27.5981Z" fill="url(#paint8_linear_1660_5435)"/>
<path d="M28.1968 27.5981H26.9972V28.7977H28.1968V27.5981Z" fill="url(#paint9_linear_1660_5435)"/>
<path d="M18.6005 16.2026H17.401V17.4022H18.6005V16.2026Z" fill="url(#paint10_linear_1660_5435)"/>
<path d="M20.9995 16.2026H19.8V17.4022H20.9995V16.2026Z" fill="url(#paint11_linear_1660_5435)"/>
<path d="M23.3986 16.2026H22.1991V17.4022H23.3986V16.2026Z" fill="url(#paint12_linear_1660_5435)"/>
<path d="M25.7977 16.2026H24.5981V17.4022H25.7977V16.2026Z" fill="url(#paint13_linear_1660_5435)"/>
<path d="M28.1968 16.2026H26.9972V17.4022H28.1968V16.2026Z" fill="url(#paint14_linear_1660_5435)"/>
<path d="M30.5958 16.2026H29.3963V17.4022H30.5958V16.2026Z" fill="url(#paint15_linear_1660_5435)"/>
<path d="M16.2015 16.2026H15.0019V17.4022H16.2015V16.2026Z" fill="url(#paint16_linear_1660_5435)"/>
<path d="M13.8024 16.2026H12.6028V17.4022H13.8024V16.2026Z" fill="url(#paint17_linear_1660_5435)"/>
<path d="M11.4033 16.2026H10.2038V17.4022H11.4033V16.2026Z" fill="url(#paint18_linear_1660_5435)"/>
<path d="M9.00425 16.2026H7.80472V17.4022H9.00425V16.2026Z" fill="url(#paint19_linear_1660_5435)"/>
<path d="M6.6052 16.2026H5.40567V17.4022H6.6052V16.2026Z" fill="url(#paint20_linear_1660_5435)"/>
</g>
<defs>
<linearGradient id="paint0_linear_1660_5435" x1="0.00778207" y1="30.6067" x2="2.69635" y2="38.1982" gradientUnits="userSpaceOnUse">
<stop offset="0.298406" stop-color="#2EC589"/>
<stop offset="1" stop-color="#158C36"/>
</linearGradient>
<linearGradient id="paint1_linear_1660_5435" x1="12.6028" y1="30.6067" x2="15.2914" y2="38.1982" gradientUnits="userSpaceOnUse">
<stop offset="0.298406" stop-color="#2EC589"/>
<stop offset="1" stop-color="#158C36"/>
</linearGradient>
<linearGradient id="paint2_linear_1660_5435" x1="25.1979" y1="30.6067" x2="27.8865" y2="38.1982" gradientUnits="userSpaceOnUse">
<stop offset="0.298406" stop-color="#2EC589"/>
<stop offset="1" stop-color="#158C36"/>
</linearGradient>
<linearGradient id="paint3_linear_1660_5435" x1="1.80707" y1="32.8486" x2="2.84807" y2="34.155" gradientUnits="userSpaceOnUse">
<stop offset="0.298406" stop-color="#2EC589"/>
<stop offset="1" stop-color="#158C36"/>
</linearGradient>
<linearGradient id="paint4_linear_1660_5435" x1="26.9972" y1="32.8486" x2="28.0382" y2="34.155" gradientUnits="userSpaceOnUse">
<stop offset="0.298406" stop-color="#2EC589"/>
<stop offset="1" stop-color="#158C36"/>
</linearGradient>
<linearGradient id="paint5_linear_1660_5435" x1="14.4022" y1="32.8486" x2="15.4432" y2="34.155" gradientUnits="userSpaceOnUse">
<stop offset="0.298406" stop-color="#2EC589"/>
<stop offset="1" stop-color="#158C36"/>
</linearGradient>
<linearGradient id="paint6_linear_1660_5435" x1="2.99947e-07" y1="-3.75667" x2="25.2898" y2="33.591" gradientUnits="userSpaceOnUse">
<stop offset="0.298406" stop-color="#2EC589"/>
<stop offset="1" stop-color="#158C36"/>
</linearGradient>
<linearGradient id="paint7_linear_1660_5435" x1="1.80707" y1="27.4506" x2="2.84807" y2="28.757" gradientUnits="userSpaceOnUse">
<stop offset="0.298406" stop-color="#2EC589"/>
<stop offset="1" stop-color="#158C36"/>
</linearGradient>
<linearGradient id="paint8_linear_1660_5435" x1="14.4022" y1="27.4506" x2="15.4432" y2="28.757" gradientUnits="userSpaceOnUse">
<stop offset="0.298406" stop-color="#2EC589"/>
<stop offset="1" stop-color="#158C36"/>
</linearGradient>
<linearGradient id="paint9_linear_1660_5435" x1="26.9972" y1="27.4506" x2="28.0382" y2="28.757" gradientUnits="userSpaceOnUse">
<stop offset="0.298406" stop-color="#2EC589"/>
<stop offset="1" stop-color="#158C36"/>
</linearGradient>
<linearGradient id="paint10_linear_1660_5435" x1="17.401" y1="16.0551" x2="18.442" y2="17.3615" gradientUnits="userSpaceOnUse">
<stop offset="0.298406" stop-color="#2EC589"/>
<stop offset="1" stop-color="#158C36"/>
</linearGradient>
<linearGradient id="paint11_linear_1660_5435" x1="19.8" y1="16.0551" x2="20.841" y2="17.3615" gradientUnits="userSpaceOnUse">
<stop offset="0.298406" stop-color="#2EC589"/>
<stop offset="1" stop-color="#158C36"/>
</linearGradient>
<linearGradient id="paint12_linear_1660_5435" x1="22.1991" y1="16.0551" x2="23.2401" y2="17.3615" gradientUnits="userSpaceOnUse">
<stop offset="0.298406" stop-color="#2EC589"/>
<stop offset="1" stop-color="#158C36"/>
</linearGradient>
<linearGradient id="paint13_linear_1660_5435" x1="24.5981" y1="16.0551" x2="25.6391" y2="17.3615" gradientUnits="userSpaceOnUse">
<stop offset="0.298406" stop-color="#2EC589"/>
<stop offset="1" stop-color="#158C36"/>
</linearGradient>
<linearGradient id="paint14_linear_1660_5435" x1="26.9972" y1="16.0551" x2="28.0382" y2="17.3615" gradientUnits="userSpaceOnUse">
<stop offset="0.298406" stop-color="#2EC589"/>
<stop offset="1" stop-color="#158C36"/>
</linearGradient>
<linearGradient id="paint15_linear_1660_5435" x1="29.3963" y1="16.0551" x2="30.4373" y2="17.3615" gradientUnits="userSpaceOnUse">
<stop offset="0.298406" stop-color="#2EC589"/>
<stop offset="1" stop-color="#158C36"/>
</linearGradient>
<linearGradient id="paint16_linear_1660_5435" x1="15.0019" y1="16.0551" x2="16.0429" y2="17.3615" gradientUnits="userSpaceOnUse">
<stop offset="0.298406" stop-color="#2EC589"/>
<stop offset="1" stop-color="#158C36"/>
</linearGradient>
<linearGradient id="paint17_linear_1660_5435" x1="12.6028" y1="16.0551" x2="13.6438" y2="17.3615" gradientUnits="userSpaceOnUse">
<stop offset="0.298406" stop-color="#2EC589"/>
<stop offset="1" stop-color="#158C36"/>
</linearGradient>
<linearGradient id="paint18_linear_1660_5435" x1="10.2038" y1="16.0551" x2="11.2448" y2="17.3615" gradientUnits="userSpaceOnUse">
<stop offset="0.298406" stop-color="#2EC589"/>
<stop offset="1" stop-color="#158C36"/>
</linearGradient>
<linearGradient id="paint19_linear_1660_5435" x1="7.80472" y1="16.0551" x2="8.84572" y2="17.3615" gradientUnits="userSpaceOnUse">
<stop offset="0.298406" stop-color="#2EC589"/>
<stop offset="1" stop-color="#158C36"/>
</linearGradient>
<linearGradient id="paint20_linear_1660_5435" x1="5.40567" y1="16.0551" x2="6.44667" y2="17.3615" gradientUnits="userSpaceOnUse">
<stop offset="0.298406" stop-color="#2EC589"/>
<stop offset="1" stop-color="#158C36"/>
</linearGradient>
<clipPath id="clip0_1660_5435">
<rect width="36" height="36" fill="white"/>
</clipPath>
</defs>
</svg>
