<svg width="32" height="32" viewBox="0 0 32 32" fill="none" xmlns="http://www.w3.org/2000/svg">
<g id="Bitcoin Icon">
<path id="Vector" d="M31.5211 19.8706C29.3839 28.442 20.7014 33.6585 12.128 31.521C3.55811 29.384 -1.65895 20.7021 0.479281 12.1312C2.61551 3.55876 11.2979 -1.65819 19.8688 0.478793C28.4418 2.61577 33.6583 11.2987 31.5211 19.8706Z" fill="#F7931A"/>
<path id="Vector_2" d="M23.0552 13.7206C23.3738 11.5916 21.7526 10.4472 19.5359 9.68366L20.2549 6.79969L18.4993 6.36219L17.7992 9.17016C17.3376 9.05516 16.8636 8.94667 16.3925 8.83917L17.0976 6.01269L15.3429 5.5752L14.6233 8.45816C14.2413 8.37116 13.8663 8.28517 13.5022 8.19468L13.5042 8.18567L11.083 7.58117L10.6159 9.45615C10.6159 9.45615 11.9186 9.75465 11.8911 9.77315C12.6021 9.95065 12.7306 10.4211 12.7091 10.7941L11.8901 14.0796C11.9391 14.0921 12.0026 14.1101 12.0726 14.1381C12.0141 14.1236 11.9516 14.1076 11.8871 14.0921L10.7389 18.6946C10.6519 18.9106 10.4314 19.2346 9.93436 19.1116C9.95186 19.1371 8.65822 18.7931 8.65822 18.7931L7.78662 20.8026L10.0714 21.372C10.4964 21.4785 10.9129 21.59 11.323 21.695L10.5964 24.612L12.3501 25.0495L13.0697 22.1635C13.5487 22.2935 14.0138 22.4135 14.4688 22.5265L13.7518 25.399L15.5074 25.8365L16.234 22.925C19.2278 23.4915 21.4791 23.263 22.4267 20.5555C23.1903 18.3756 22.3887 17.1181 20.8135 16.2981C21.9606 16.0336 22.8247 15.2791 23.0552 13.7206ZM19.0438 19.3451C18.5013 21.525 14.8304 20.3465 13.6402 20.051L14.6043 16.1866C15.7945 16.4836 19.6109 17.0716 19.0438 19.3451ZM19.5869 13.6891C19.0918 15.6721 16.0365 14.6646 15.0454 14.4176L15.9195 10.9127C16.9106 11.1596 20.1024 11.6206 19.5869 13.6891Z" fill="white"/>
</g>
</svg>
