<svg width="24" height="12" viewBox="0 0 24 12" fill="none" xmlns="http://www.w3.org/2000/svg">
<path fill-rule="evenodd" clip-rule="evenodd" d="M4.77397 3.37346C6.46614 1.72401 8.67881 0.692007 12.1775 0.560425C15.5885 0.688726 17.7898 1.69007 19.4716 3.27617L17.9664 4.06897C17.0263 3.08933 15.4593 1.74074 12.1775 1.74074C8.82179 1.74074 7.24801 3.18881 6.32974 4.1739L4.77397 3.37346ZM6.80753 5.61609C6.77621 5.59801 3.65708 3.98217 3.6258 3.97162C3.53636 3.92552 3.4302 3.92552 3.34076 3.97162L0.17181 5.60906C0.163206 5.61613 0.154064 5.62313 0.144657 5.63035C0.0815785 5.67871 0.0066427 5.73616 0.00298154 5.87899C0.00217432 5.91049 -0.0032105 9.21539 0.00282944 9.24716C0.00282944 9.3577 0.0609307 9.45999 0.155688 9.51632L1.73248 10.4522L1.73537 10.4539C2.7013 11.0271 3.35557 11.4154 3.3289 11.4002C3.41397 11.4487 3.5385 11.4567 3.63766 11.4002L3.63862 11.3995L3.63954 11.3988C3.67077 11.3805 6.77905 9.53665 6.81087 9.51632C6.90563 9.45999 6.96373 9.3577 6.96373 9.24716V5.88709C6.95017 5.7793 6.92184 5.68207 6.80753 5.61609ZM3.48328 4.60126L6.00399 5.90388L3.48328 7.37565L0.962566 5.90388L3.48328 4.60126ZM0.625821 6.43076L3.17178 7.91721V10.5803L0.625821 9.06883V6.43076ZM6.34074 9.06883L3.79478 10.5803V7.91721L6.34074 6.43076V9.06883ZM23.8438 5.61609C23.8125 5.59801 20.6934 3.98217 20.6621 3.97162C20.5726 3.92552 20.4665 3.92552 20.377 3.97162L17.2081 5.60906C17.1995 5.61612 17.1903 5.62313 17.1809 5.63035C17.1178 5.67871 17.0429 5.73616 17.0393 5.87899C17.0384 5.91049 17.0331 9.21539 17.0391 9.24716C17.0391 9.3577 17.0972 9.45999 17.192 9.51632L18.7686 10.4521L18.7691 10.4523C19.7364 11.0264 20.3919 11.4154 20.3652 11.4002C20.4502 11.4487 20.5748 11.4567 20.6739 11.4002L20.6749 11.3995L20.6758 11.3988C20.707 11.3805 23.8153 9.53665 23.8471 9.51632C23.9419 9.45999 24 9.3577 24 9.24716V5.88709C23.9864 5.7793 23.9581 5.68207 23.8438 5.61609ZM20.5196 4.60126L23.0403 5.90388L20.5196 7.37565L17.9988 5.90388L20.5196 4.60126ZM17.6621 6.43076L20.2081 7.91721V10.5803L17.6621 9.06883V6.43076ZM23.377 9.06883L20.831 10.5803V7.91721L23.377 6.43076V9.06883Z" fill="#AAABB8"/>
</svg>
