<?xml version="1.0" encoding="UTF-8"?>
<svg id="Layer_7" data-name="Layer 7" xmlns="http://www.w3.org/2000/svg" viewBox="0 0 100 100">
  <defs>
    <style>
      .cls-1 {
        fill: #0033ad;
        stroke-width: 0px;
      }
    </style>
  </defs>
  <path class="cls-1" d="m29.1350804009,49.6790189393c-.1970557814,3.4322217876,2.4236593935,6.3752027074,5.855679054,6.5757490684h.3396564494c3.4328411258-.0037782219,6.2126458755-2.7897115689,6.2088650622-6.2225526947-.0037808133-3.4328411258-2.7897115689-6.2126458755-6.2225526947-6.2088650622-3.2916605302.0036227395-6.0097620961,2.5728266008-6.1986291387,5.8590659786l.0169812677-.0033972901Z"/>
  <path class="cls-1" d="m5.956925017,48.1030132213c-1.1069072691-.0619519557-2.0544547622.7851523487-2.1164065306,1.8920599417-.0619517684,1.1069050016.7851520298,2.0544561085,1.8920593799,2.1164054728,1.1057165331.0618871714,2.0526661175-.7833876236,2.1162334704-1.8890098956.0654049603-1.1048293118-.777214973-2.0534921177-1.8820444468-2.1188983737-.0032801924-.0001917616-.0065607087-.0003783405-.0098418729-.0005571452Z"/>
  <path class="cls-1" d="m28.741080267,13.6041077558c.9878728716-.5072994988,1.3774547144-1.7193760239.8701545677-2.7072485716-.5073001467-.9878722238-1.7193760239-1.3774532567-2.7072488955-.8701535959-.9801920419.5033551051-1.3726917707,1.701829189-.8801572677,2.6875023089.4989274203.9942265944,1.7093681411,1.395746245,2.7035924681.8968188247.004563408-.0022888303.0091164504-.0045951523.0136591274-.0069189661Z"/>
  <path class="cls-1" d="m35.0485004294,24.6021839513c1.5308095806-.7721967791,2.1457864605-2.63915409,1.3735909772-4.1699636705-.7721980748-1.5308095806-2.6391553857-2.1457864605-4.1699649662-1.3735896815-1.5300218031.771800299-2.1452915083,2.6373621555-1.3746067954,4.1679449909.771081193,1.5313719085,2.6375901963,2.1477079637,4.1689621048,1.376625475.000673757-.0003381742.0013449226-.0006776441.0020186796-.0010171139Z"/>
  <path class="cls-1" d="m13.8233683341,32.1663332357c1.180208467.7761136394,2.7661197086.4485303971,3.542233348-.7316793656.7761123438-1.1802071713.4485291014-2.7661197086-.7316793656-3.542233348-1.180208467-.7761123438-2.7661203565-.4485291014-3.542233348.7316793656-.0006601523.0010041571-.0013196567.0020083141-.0019785134.0030137669-.7736771009,1.1801242474-.4453741047,2.7638807623.733657879,3.5392195812Z"/>
  <path class="cls-1" d="m17.6037449791,46.9719566227c-1.7118221714-.0965960221-3.1778351165,1.212804053-3.2744311386,2.9246288158-.0965953743,1.71181958,1.2128047009,3.1778318773,2.924628168,3.2744278994,1.7105511029.0965234637,3.1759259224-1.2109227162,3.2742452076-2.9213714599.0965493774-1.7123223064-1.2122313596-3.1791897568-2.9244422369-3.2776852553Z"/>
  <path class="cls-1" d="m14.1630247835,67.843844404c-1.2606738397.637135711-1.7661503076,2.1756183472-1.1290133009,3.4362902433.6371370066,1.2606770789,2.1756170515,1.7661503076,3.436291539,1.1290145966,1.2598763446-.6367366395,1.7656514682-2.173804386,1.1300446674-3.4342482414-.6360084637-1.2612419982-2.1740363139-1.7680990201-3.4352796078-1.132087965-.0006815311.0003420612-.0013624144.0006893052-.0020432977.0010313665Z"/>
  <path class="cls-1" d="m26.231019313,40.5558465002c1.688201806,1.1063737702,3.9536526916.6347075944,5.0600264617-1.0534942116,1.1063711788-1.6882043974.634705003-3.9536552829-1.0534968029-5.0600264617-1.6878675189-1.1061535035-3.9528390004-.634920087-5.0594641338,1.0526390584-1.1073857013,1.6852942854-.6388991403,3.9492084868,1.0463938494,5.0565928925.0021793448.0014330293.0043586895.0028608759.0065406256.0042887224Z"/>
  <path class="cls-1" d="m64.517094708,24.3576308931c1.4376160313.9377414641,3.3632290713.5325116151,4.3009692398-.9051070075.9377401684-1.437617327.5325116151-3.36322648-.9051095989-4.3009679441-1.4366468578-.9371091691-3.3608709218-.5331283619-4.2993470402.9026270635-.9396577845,1.4341241561-.5388086517,3.3584544665.8953142087,4.2981109553.0027209417.0017828647.0054470661.0035618423.0081731906.0053369328Z"/>
  <path class="cls-1" d="m70.8890478336,13.3935204721c.9287688349.6087971031,2.175214093.3494084341,2.7840105482-.5793604008.6087964552-.928768511.3494051949-2.1752115016-.57936364-2.7840082807-.9287688349-.6087967791-2.1752089102-.3494084341-2.7840053655.5793600769-.0004871781.0007404849-.0009743563.0014812936-.0014563516.0022224263-.6070032251.9287037267-.3470885074,2.1735578817.5808148089,2.7817861783Z"/>
  <path class="cls-1" d="m65.0062008244,43.7622042121c-3.4281533319-.1969676748-6.3668947654,2.4224284913-6.5638650315,5.8505818232-.1969650834,3.4281559233,2.4224310827,6.3668973568,5.8505844146,6.5638624402h.3600350071c3.4328437172-.0016792097,6.214350999-2.7859074333,6.2126717893-6.2187537418-.0007463154-1.5263057742-.563053538-2.998983083-1.5797580263-4.1373706759-1.092813115-1.2322523078-2.634809653-1.973882546-4.2796681532-2.0583198457Z"/>
  <path class="cls-1" d="m37.0898364161,40.1244839496c1.0525379949,2.1027541195,3.205323754,3.4278475499,5.5567797201,3.4203403422,3.4347198713.0007592723,6.2197255067-2.7830154609,6.2204873704-6.2177327408.0002124926-.9764267768-.2294868152-1.9391814694-.6705022305-2.8103363071-1.0597782912-2.092956138-3.2108304218-3.4077825483-5.5567797201-3.3965644944-3.4347146885.005848729-6.2143587731,2.794977239-6.2085074527,6.2296919275.0016403391.963389579.2270742469,1.9132236855.6585223128,2.7746012726Z"/>
  <path class="cls-1" d="m85.83053691,32.1595386556c1.2610554194-.6363842128,1.7674511768-2.174561067,1.131066964-3.4356164863-.6363842128-1.2610541237-2.174561067-1.7674498811-3.4356164863-1.1310656684-1.2597338191.6357169342-1.7666219375,2.1715563699-1.1327720875,3.4322308574.6365034159,1.2617810038,2.1747942905,1.7694776306,3.4373216098,1.1344512973Z"/>
  <path class="cls-1" d="m70.0670798479,34.1397363777c-1.8027093987.9079212387-2.5280813623,3.1053226678-1.6201575322,4.9080346578.9079186473,1.8027093987,3.1053200764,2.5280813623,4.9080346578,1.6201575322,1.8027093987-.9079212387,2.5280761795-3.1053226678,1.6201575322-4.9080320664-.9053998327-1.8018801593-3.1000855028-2.5286177765-4.9019656621-1.6232179438-.002021271.0010184096-.0040477247.0020368192-.0060689957.0030578202Z"/>
  <path class="cls-1" d="m49.7624177153,12.4560689179c1.410245949.0803173405,2.6185876577-.9978026892,2.6989046742-2.4080481524s-.9978030132-2.6185852181-2.4080489622-2.6989024046c-1.4102459491-.0803171858-2.6185876577.997802687-2.6989046742,2.4080481502-.0000362792.0006766723-.0000777412.0013535065-.0001140204.0020301788-.0791508987,1.4095159917.9987099938,2.6166002365,2.4081629827,2.6968722279Z"/>
  <path class="cls-1" d="m49.7352445774,28.5523875254c2.0152745478.1129838653,3.740564085-1.4291241018,3.8535479504-3.4443973539.1129838653-2.0152719565-1.4291215104-3.7405653807-3.4443960583-3.853549246-2.0133413835-.1128763233-3.7376617472,1.4262645216-3.8532680821,3.4394504228-.1139089855,2.0163797685,1.4277947274,3.7435726692,3.44411619,3.8584961772Z"/>
  <path class="cls-1" d="m29.9332725388,65.8602519831c1.8023310582-.9086753282,2.526780493-3.1063825393,1.6181025734-4.9087135975-.9086753282-1.8023310582-3.106379948-2.526780493-4.9087110061-1.618099982-1.8023310582.9086753282-2.526780493,3.1063773566-1.6181038691,4.9087084148.0002254495.0004508989.0004508989.0008966151.0006763484.0013423312.9091534365,1.8014344431,3.1062283526,2.5251738417,4.9080359535,1.6167628335Z"/>
  <path class="cls-1" d="m52.0958558644,33.8849940406c-1.8814923224,2.8713061324-1.079094386,6.7242114222,1.792209155,8.6057037446,2.871303541,1.8814949137,6.7242088309,1.0790969774,8.605706336-1.792209155,1.8814923224-2.871303541,1.079094386-6.7242088309-1.792209155-8.6057037446-1.0100964869-.6618910978-2.191135489-1.0152014919-3.3987723442-1.016751133-2.0982243994-.0014537603-4.0558875415,1.0546370071-5.2069339918,2.808960288Z"/>
  <path class="cls-1" d="m62.9037265732,59.8789017013c-1.5457177498-3.065153794-5.2835660758-4.2969007841-8.3487198698-2.751188217-3.065153794,1.5457177498-4.2969059668,5.2835660758-2.751188217,8.3487198698,1.0566375471,2.0953168789,3.2032584297,3.4169378693,5.5499229469,3.4169482348.9729361973-.0067012907,1.9310186442-.2392511089,2.7987710091-.6793128989,3.055783389-1.5468216747,4.2857578799-5.2732005836,2.7512141308-8.3351669887Z"/>
  <path class="cls-1" d="m73.7659383749,59.4441418606c-1.6873414701-1.1076875963-3.9531603307-.6377835542-5.0608427442,1.0495579159-1.1076875963,1.6873414701-.6377835542,3.9531603307,1.0495579159,5.060847927,1.6873311046,1.1076720481,3.9531240515.637788737,5.0608220133-1.0495268194,1.1037383438-1.6880981511.6344717795-3.9509110189-1.0495371849-5.0608790235Z"/>
  <path class="cls-1" d="m85.6674980827,50.1069867912c.0965960221-1.7118221714-1.212804053-3.17783706-2.9246236331-3.2744330821-1.7118247628-.0965986135-3.17783706,1.2128014617-3.2744330821,2.9246236331-.0965286464,1.7105523986,1.2109227162,3.1759324008,2.9213740512,3.2742490946,1.7123223064.0965493774,3.179184574-1.2122287682,3.2776826639-2.9244396456Z"/>
  <path class="cls-1" d="m94.2676018701,47.8958225798c-1.1086826836-.063822927-2.0591775902.7832010448-2.1230082913,1.891881137-.0638203357,1.1086800922.7832062275,2.0591801816,1.8918785456,2.1230057,1.1086826836.0638203357,2.0591879557-.7832010448,2.1230082913-1.8918811369,0-.0000518275.0000103655-.0001010636.0000103655-.000152891.0618197957-1.1079596905-.7841494873-2.057210738-1.8918889111-2.122852809Z"/>
  <path class="cls-1" d="m86.1701933594,67.8336551251c-1.1816350179-.7739446602-2.7669385825-.4434461231-3.5408832427.7381888947-.7739394774,1.1816350179-.4434409404,2.7669385825.7381888948,3.5408832427,1.1809560781.773498944,2.7652904692.4438711083,3.5397482213-.7364578575.7748982855-1.1810079056.4456850695-2.766580973-.7353228361-3.5414792585-.0005752848-.0003783405-.0011557524-.0007566809-.0017310372-.0011350214Z"/>
  <path class="cls-1" d="m29.1079098544,86.6064685365c-.928470827-.6092525369-2.175040471-.3504728406-2.7842904165.5780005778-.6092525369.9284682356-.3504728406,2.1750378796.5779979864,2.7842904165.928123583.6090244961,2.174193092.3506905159,2.7837073575-.5771091455.6097423064-.9281469054.3516234102-2.1748564835-.5765234951-2.7845961985-.0002980079-.0001969443-.0005934244-.000388706-.0008914323-.0005856503Z"/>
  <path class="cls-1" d="m71.2524827222,86.3958831964c-.9916718245.4998292181-1.3903908487,1.7089276077-.8905616305,2.700604615.4998240354.9916718245,1.7089276077,1.3903908487,2.7005994322.8905616305.9916770072-.4998292181,1.3903960314-1.7089276077.8905668133-2.700604615-.0001140204-.0002176753-.0002228581-.0004405334-.0003368785-.0006633915-.4976731958-.9906560063-1.704206126-1.3902975593-2.6948621323-.8926243635-.0018035956.0009069806-.0036071913.0018139611-.0054056042.0027261245Z"/>
  <path class="cls-1" d="m47.8977019421,66.1048050413c1.8814975051-2.871303541,1.0790995687-6.7242088309-1.7922039723-8.605706336-2.871303541-1.8814975051-6.7242088308-1.0790995687-8.605706336,1.7922039723-1.8814975051,2.871303541-1.0790995688,6.7242088309,1.7922039723,8.605706336,1.0110656605.6625259842,2.193371844,1.0158648834,3.4021696343,1.0167563157,2.0987452654.0071625551,4.0579347262-1.0504441655,5.2035367017-2.808960288Z"/>
  <path class="cls-1" d="m35.4764682813,75.6457534621c-1.4347966174-.9386316008-3.3588392854-.536414223-4.2974708861.8983823944-.9386316008,1.4347966174-.5364116316,3.3588392854.8983849858,4.2974708861,1.4337859819.937973392,3.3563826637.5370517007,4.2957787195-.8958013869.9387248902-1.4352475163.5374326326-3.3596166973-.8966928192-4.3000518937Z"/>
  <path class="cls-1" d="m49.9696083567,87.5439184712c-1.4102511318-.0802133616-2.6185099165.9979999575-2.6987206867,2.4082510893s.9979973662,2.6185099165,2.408248498,2.6987232781c1.4096499332.0801770824,2.6176029359-.9971085252,2.6986351714-2.406706631.081063332-1.4102044871-.9964140372-2.6191162978-2.4066185243-2.7001796298-.0005130918-.0000310965-.0010313665-.0000570102-.0015444583-.0000881067Z"/>
  <path class="cls-1" d="m49.9967814946,71.4509994212c-2.014719994-.122442377-3.7472290965,1.4115571838-3.8696714735,3.4262771778-.1224397856,2.014719994,1.4115571838,3.7472290965,3.4262771779,3.8696714735,2.014719994.1224371942,3.7472290965-1.4115571838,3.8696714735-3.4262771778.0002954165-.0048562331.0005804675-.009717649.0008551531-.0145738821.1159743098-2.0101643602-1.4172167426-3.7348216023-3.427132331-3.8550975914Z"/>
  <path class="cls-1" d="m64.9450599685,75.3978057052c-1.5306618723.7766500537-2.1419097664,2.6470927613-1.3652597128,4.1777494509.7766500537,1.5306618723,2.6470927613,2.1419097664,4.1777494508,1.3652597128,1.5306618723-.7766448709,2.1419097664-2.6470875786,1.3652597128-4.1777494509-.0011194732-.0022130326-.0022441291-.0044260652-.0033739677-.006633915-.7752662605-1.5271531532-2.6417493501-2.1366803756-4.1689025032-1.3614089324-.0018243266.0009225288-.0036486533.0018554231-.0054729799.0027831347Z"/>
</svg>