<svg width="14" height="14" viewBox="0 0 14 14" fill="none" xmlns="http://www.w3.org/2000/svg">
<path d="M4.83083 0H11.9716C12.5298 0 13.037 0.227874 13.4046 0.595412C13.7721 0.962951 14 1.47015 14 2.02835V9.11541C14 9.67361 13.7721 10.1808 13.4046 10.5484C13.037 10.9159 12.5298 11.1438 11.9716 11.1438H11.1975V11.9716C11.1975 12.5298 10.9692 13.037 10.6021 13.4046C10.2346 13.7721 9.72736 14 9.16917 14H2.02835C1.47015 14 0.962951 13.7721 0.595412 13.4046C0.227874 13.037 0 12.5298 0 11.9716V4.88459C0 4.32639 0.227874 3.81918 0.595412 3.45165C0.962951 3.08411 1.47015 2.85623 2.02835 2.85623H2.80248V2.02835C2.80248 1.47015 3.03081 0.962951 3.39789 0.595412C3.76543 0.227874 4.27263 0 4.83083 0ZM10.5088 11.1438H4.83083C4.27263 11.1438 3.76543 10.9159 3.39789 10.5484C3.03035 10.1808 2.80248 9.67361 2.80248 9.11541V3.54491H2.02835C1.6599 3.54491 1.32544 3.6956 1.0824 3.93863C0.839366 4.18167 0.688675 4.51659 0.688675 4.88459V11.9716C0.688675 12.3401 0.839366 12.6746 1.0824 12.9176C1.32544 13.1606 1.66035 13.3113 2.02835 13.3113H9.16917C9.53716 13.3113 9.87208 13.1606 10.1151 12.9176C10.3582 12.6746 10.5088 12.3396 10.5088 11.9716V11.1438ZM11.9712 0.688675H4.83037C4.46238 0.688675 4.12746 0.839366 3.88442 1.0824C3.64139 1.32544 3.4907 1.66035 3.4907 2.02835V3.20034V9.11495C3.4907 9.48295 3.64139 9.81787 3.88442 10.0609C4.12746 10.3039 4.46238 10.4546 4.83037 10.4546H10.853H11.9712C12.3396 10.4546 12.6741 10.3039 12.9171 10.0609C13.1602 9.81787 13.3109 9.48295 13.3109 9.11495V2.02789C13.3109 1.65944 13.1602 1.32498 12.9171 1.08194C12.6741 0.838906 12.3392 0.688216 11.9712 0.688216V0.688675Z" fill="#09122D"/>
</svg>
