<svg width="32" height="32" viewBox="0 0 32 32" fill="none" xmlns="http://www.w3.org/2000/svg">
<g id="Clip path group">
<mask id="mask0_913_89106" style="mask-type:luminance" maskUnits="userSpaceOnUse" x="0" y="0" width="32" height="32">
<g id="clip0_98_4407">
<path id="Vector" d="M32 0H0V32H32V0Z" fill="white"/>
</g>
</mask>
<g mask="url(#mask0_913_89106)">
<g id="Group">
<path id="Vector_2" d="M31.0588 16C31.0588 24.3168 24.3168 31.0588 16 31.0588C7.6832 31.0588 0.941162 24.3168 0.941162 16C0.941162 7.68325 7.6832 0.941162 16 0.941162C24.3168 0.941162 31.0588 7.68325 31.0588 16Z" fill="white"/>
<path id="Vector_3" fill-rule="evenodd" clip-rule="evenodd" d="M32 16C32 24.8365 24.8365 32 16 32C7.16347 32 0 24.8365 0 16C0 7.16347 7.16347 0 16 0C24.8365 0 32 7.16347 32 16ZM16 31.0588C24.3168 31.0588 31.0588 24.3168 31.0588 16C31.0588 7.68327 24.3168 0.941173 16 0.941173C7.68327 0.941173 0.941173 7.68327 0.941173 16C0.941173 24.3168 7.68327 31.0588 16 31.0588Z" fill="#E0081C"/>
<path id="Vector_4" d="M18.3521 10.7163C17.1929 11.5586 16.3284 12.7446 15.8814 14.106C14.7108 13.2561 13.0729 13.516 12.2229 14.6864C11.8147 15.2484 11.6466 15.9497 11.7557 16.6357C11.8647 17.3217 12.2418 17.9364 12.8041 18.3442C13.7216 19.0108 14.9639 19.0108 15.8814 18.3442C16.3284 19.7057 17.1929 20.8917 18.3521 21.734C16.8911 22.7975 15.0674 23.2369 13.2823 22.9556C11.4973 22.6743 9.89712 21.6954 8.83399 20.2341C7.77052 18.7731 7.33105 16.9494 7.61239 15.1644C7.89365 13.3793 8.87265 11.7792 10.3339 10.716C12.7237 8.9769 15.9623 8.97716 18.3521 10.7163ZM22.368 18.8472C20.9215 18.8435 19.7518 17.668 19.7553 16.2215C19.7588 14.7754 20.9338 13.6057 22.3801 13.6089C23.8242 13.6122 24.9931 14.7838 24.9933 16.2279C24.9907 17.6758 23.8159 18.8481 22.368 18.8472Z" fill="#E0081C"/>
</g>
</g>
</g>
</svg>
