<svg width="32" height="32" viewBox="0 0 32 32" fill="none" xmlns="http://www.w3.org/2000/svg">
<g id="Coreum-icon" clip-path="url(#clip0_913_89101)">
<path id="Vector" d="M16 32C24.8366 32 32 24.8366 32 16C32 7.16344 24.8366 0 16 0C7.16344 0 0 7.16344 0 16C0 24.8366 7.16344 32 16 32Z" fill="#1E222D"/>
<path id="Vector_2" d="M8.45749 23.5425C9.95655 25.0415 11.8684 26.0599 13.9488 26.4676C16.0293 26.8753 18.1841 26.6537 20.1381 25.8313C22.0921 25.0088 23.7566 23.6227 24.9194 21.85C26.082 20.0772 26.6901 17.9982 26.666 15.8783C26.6418 13.7584 25.9864 11.6938 24.7836 9.94805C23.5807 8.20225 21.8849 6.85452 19.9127 6.07686C17.9404 5.29919 15.7812 5.12688 13.7106 5.5819C11.6399 6.03694 9.75182 7.09865 8.28735 8.63158L12.2156 12.3845C12.9342 11.6323 13.8606 11.1113 14.8766 10.8881C15.8926 10.6648 16.9521 10.7493 17.9198 11.1309C18.8876 11.5125 19.7197 12.1738 20.3099 13.0305C20.9001 13.8871 21.2216 14.9001 21.2335 15.9403C21.2454 16.9805 20.947 18.0006 20.3765 18.8705C19.806 19.7403 18.9892 20.4204 18.0304 20.824C17.0716 21.2275 16.0144 21.3363 14.9935 21.1362C13.9727 20.9362 13.0346 20.4365 12.299 19.7009L8.45749 23.5425Z" fill="#26D695"/>
<path id="Vector_3" d="M15.9999 18.6666C17.4727 18.6666 18.6666 17.4727 18.6666 16C18.6666 14.5272 17.4727 13.3333 15.9999 13.3333C14.5272 13.3333 13.3333 14.5272 13.3333 16C13.3333 17.4727 14.5272 18.6666 15.9999 18.6666Z" fill="#26D695"/>
</g>
<defs>
<clipPath id="clip0_913_89101">
<rect width="32" height="32" fill="white"/>
</clipPath>
</defs>
</svg>
