<svg width="24" height="24" viewBox="0 0 24 24" fill="none" xmlns="http://www.w3.org/2000/svg">
<path d="M15.1063 8.87964L8.88965 15.0963" stroke="#09122D" stroke-width="1.5" stroke-linecap="round" stroke-linejoin="round"/>
<path d="M15.1128 15.1045L8.88574 8.87744" stroke="#09122D" stroke-width="1.5" stroke-linecap="round" stroke-linejoin="round"/>
<path d="M12 0.75C16.4581 0.75 19.192 1.50259 20.8447 3.15527C22.4974 4.80795 23.25 7.54192 23.25 12C23.25 16.4581 22.4974 19.192 20.8447 20.8447C19.192 22.4974 16.4581 23.25 12 23.25C7.54192 23.25 4.80795 22.4974 3.15527 20.8447C1.50259 19.192 0.75 16.4581 0.75 12C0.75 7.54192 1.50259 4.80795 3.15527 3.15527C4.80795 1.50259 7.54192 0.75 12 0.75Z" stroke="#09122D" stroke-width="1.5" stroke-linecap="round" stroke-linejoin="round"/>
</svg>
