<svg width="14" height="16" viewBox="0 0 14 16" fill="none" xmlns="http://www.w3.org/2000/svg">
<path fill-rule="evenodd" clip-rule="evenodd" d="M13.4848 7.90351C13.4794 7.92329 13.4726 7.9426 13.4646 7.96101C12.6618 10.8664 10.8733 13.457 8.04373 15.3441C7.79147 15.5136 7.52899 15.6802 7.25309 15.842C7.11855 15.9213 6.95202 15.9274 6.81152 15.8581L6.81088 15.8578C6.7894 15.8471 6.45518 15.6802 5.94656 15.3457C1.88251 12.7001 -0.673639 8.06257 0.156167 2.40606C0.174803 2.27902 0.245026 2.16516 0.350476 2.09176C0.455471 2.01835 0.586373 1.99131 0.712503 2.01812C2.39547 2.37243 4.88278 1.83883 6.67971 0.213893C6.84425 0.0654913 7.09083 0.0534464 7.26854 0.184804C8.72945 1.26696 11.2851 2.32504 13.3612 2.02949C13.6139 1.99426 13.8423 2.16334 13.8853 2.41106C13.8887 2.43037 13.9673 2.89285 13.9937 3.65441C14.0239 4.64595 13.9603 6.1861 13.4848 7.90351ZM7.0056 14.905C7.18423 14.7954 7.35718 14.6841 7.5258 14.5705C10.1302 12.8342 11.8287 10.4375 12.5826 7.65739C12.5883 7.63648 12.5953 7.61648 12.6035 7.59717C13.0335 6.01543 13.0912 4.5989 13.0633 3.68486C13.0537 3.41146 13.0371 3.18011 13.0201 3.00035C10.9566 3.13857 8.72307 2.25993 7.02515 1.14612C5.25818 2.61098 3.02793 3.19075 1.01726 2.99785C0.427234 8.10667 2.82016 12.1975 6.45631 14.5668C6.68426 14.7166 6.87265 14.8291 7.0056 14.905ZM9.3089 6.39609V5.47497C9.3089 4.20049 8.2719 3.16349 6.99742 3.16349C5.72271 3.16349 4.68572 4.20049 4.68572 5.47497V6.39612C4.30378 6.44461 4.00643 6.76798 4.00643 7.16284V10.302C4.00643 10.7302 4.35482 11.0786 4.78298 11.0786H9.21186C9.64002 11.0786 9.98841 10.7302 9.98841 10.302V7.16284C9.98841 6.76792 9.69092 6.4445 9.3089 6.39609ZM5.61658 5.47497C5.61658 4.71364 6.2361 4.09436 6.99742 4.09436C7.75875 4.09436 8.37803 4.71364 8.37803 5.47497V6.38629H5.61658V5.47497ZM9.05755 10.1477H4.9373V7.31715H9.05755V10.1477ZM7.38626 7.88286L6.66835 8.60078L6.49517 8.43375C6.31064 8.2558 6.01565 8.26057 5.83702 8.44556C5.65862 8.63055 5.66385 8.92509 5.84884 9.10371L6.35086 9.58823C6.44108 9.67528 6.55767 9.71868 6.67403 9.71868C6.79311 9.71868 6.91243 9.67323 7.0031 9.58233L8.04441 8.54101C8.22622 8.3592 8.22622 8.06467 8.04441 7.88286C7.8626 7.70106 7.56807 7.70106 7.38626 7.88286Z" fill="#AAABB8"/>
</svg>
