<svg width="63" height="24" viewBox="0 0 63 24" fill="none" xmlns="http://www.w3.org/2000/svg">
<rect x="0.900024" y="0.5" width="61" height="23" rx="3.5" fill="#DE4841" fill-opacity="0.2"/>
<rect x="0.900024" y="0.5" width="61" height="23" rx="3.5" stroke="#DE4841"/>
<path d="M14.8438 11.752C14.8438 12.608 14.6678 13.356 14.3158 13.996C13.9718 14.628 13.4638 15.12 12.7918 15.472C12.1278 15.824 11.3318 16 10.4038 16H7.57177V7.528H10.4038C11.3318 7.528 12.1278 7.704 12.7918 8.056C13.4638 8.4 13.9718 8.888 14.3158 9.52C14.6678 10.152 14.8438 10.896 14.8438 11.752ZM10.2958 14.764C11.3118 14.764 12.0918 14.5 12.6358 13.972C13.1798 13.444 13.4518 12.704 13.4518 11.752C13.4518 10.8 13.1798 10.06 12.6358 9.532C12.0918 9.004 11.3118 8.74 10.2958 8.74H8.93977V14.764H10.2958ZM16.0282 7.468C16.0282 7.236 16.1082 7.044 16.2682 6.892C16.4282 6.74 16.6402 6.664 16.9042 6.664C17.1682 6.664 17.3802 6.74 17.5402 6.892C17.7082 7.044 17.7922 7.236 17.7922 7.468C17.7922 7.7 17.7082 7.888 17.5402 8.032C17.3802 8.176 17.1682 8.248 16.9042 8.248C16.6402 8.248 16.4282 8.176 16.2682 8.032C16.1082 7.888 16.0282 7.7 16.0282 7.468ZM17.5882 9.388V16H16.2202V9.388H17.5882ZM21.4156 9.304C22.1916 9.304 22.8116 9.504 23.2756 9.904C23.7476 10.296 24.0356 10.824 24.1396 11.488H22.8436C22.7876 11.128 22.6316 10.84 22.3756 10.624C22.1276 10.4 21.7956 10.288 21.3796 10.288C21.0356 10.288 20.7676 10.372 20.5756 10.54C20.3916 10.7 20.2996 10.92 20.2996 11.2C20.2996 11.408 20.3676 11.576 20.5036 11.704C20.6396 11.832 20.8076 11.932 21.0076 12.004C21.2156 12.076 21.5076 12.156 21.8836 12.244C22.3796 12.356 22.7796 12.472 23.0836 12.592C23.3956 12.712 23.6596 12.904 23.8756 13.168C24.0996 13.424 24.2116 13.776 24.2116 14.224C24.2116 14.776 23.9996 15.224 23.5756 15.568C23.1596 15.912 22.5956 16.084 21.8836 16.084C21.0596 16.084 20.3916 15.892 19.8796 15.508C19.3756 15.124 19.0716 14.588 18.9676 13.9H20.2996C20.3396 14.26 20.4996 14.552 20.7796 14.776C21.0596 15 21.4276 15.112 21.8836 15.112C22.2116 15.112 22.4676 15.028 22.6516 14.86C22.8436 14.684 22.9396 14.464 22.9396 14.2C22.9396 13.968 22.8676 13.784 22.7236 13.648C22.5796 13.512 22.3996 13.408 22.1836 13.336C21.9676 13.256 21.6716 13.176 21.2956 13.096C20.8156 12.984 20.4236 12.872 20.1196 12.76C19.8236 12.648 19.5676 12.468 19.3516 12.22C19.1436 11.964 19.0396 11.62 19.0396 11.188C19.0396 10.628 19.2476 10.176 19.6636 9.832C20.0876 9.48 20.6716 9.304 21.4156 9.304ZM28.2355 9.304C28.8355 9.304 29.3475 9.452 29.7715 9.748C30.1955 10.044 30.4955 10.436 30.6715 10.924V9.388H32.0395V16H30.6715V14.464C30.4955 14.952 30.1955 15.344 29.7715 15.64C29.3475 15.936 28.8355 16.084 28.2355 16.084C27.6595 16.084 27.1435 15.948 26.6875 15.676C26.2395 15.404 25.8875 15.012 25.6315 14.5C25.3755 13.988 25.2475 13.384 25.2475 12.688C25.2475 12 25.3755 11.4 25.6315 10.888C25.8875 10.376 26.2395 9.984 26.6875 9.712C27.1435 9.44 27.6595 9.304 28.2355 9.304ZM28.6555 10.504C28.0475 10.504 27.5595 10.7 27.1915 11.092C26.8315 11.476 26.6515 12.008 26.6515 12.688C26.6515 13.368 26.8315 13.904 27.1915 14.296C27.5595 14.68 28.0475 14.872 28.6555 14.872C29.0395 14.872 29.3835 14.784 29.6875 14.608C29.9915 14.424 30.2315 14.168 30.4075 13.84C30.5835 13.512 30.6715 13.128 30.6715 12.688C30.6715 12.256 30.5835 11.876 30.4075 11.548C30.2315 11.212 29.9915 10.956 29.6875 10.78C29.3835 10.596 29.0395 10.504 28.6555 10.504ZM35.8531 9.304C36.6291 9.304 37.2491 9.504 37.7131 9.904C38.1851 10.296 38.4731 10.824 38.5771 11.488H37.2811C37.2251 11.128 37.0691 10.84 36.8131 10.624C36.5651 10.4 36.2331 10.288 35.8171 10.288C35.4731 10.288 35.2051 10.372 35.0131 10.54C34.8291 10.7 34.7371 10.92 34.7371 11.2C34.7371 11.408 34.8051 11.576 34.9411 11.704C35.0771 11.832 35.2451 11.932 35.4451 12.004C35.6531 12.076 35.9451 12.156 36.3211 12.244C36.8171 12.356 37.2171 12.472 37.5211 12.592C37.8331 12.712 38.0971 12.904 38.3131 13.168C38.5371 13.424 38.6491 13.776 38.6491 14.224C38.6491 14.776 38.4371 15.224 38.0131 15.568C37.5971 15.912 37.0331 16.084 36.3211 16.084C35.4971 16.084 34.8291 15.892 34.3171 15.508C33.8131 15.124 33.5091 14.588 33.4051 13.9H34.7371C34.7771 14.26 34.9371 14.552 35.2171 14.776C35.4971 15 35.8651 15.112 36.3211 15.112C36.6491 15.112 36.9051 15.028 37.0891 14.86C37.2811 14.684 37.3771 14.464 37.3771 14.2C37.3771 13.968 37.3051 13.784 37.1611 13.648C37.0171 13.512 36.8371 13.408 36.6211 13.336C36.4051 13.256 36.1091 13.176 35.7331 13.096C35.2531 12.984 34.8611 12.872 34.5571 12.76C34.2611 12.648 34.0051 12.468 33.7891 12.22C33.5811 11.964 33.4771 11.62 33.4771 11.188C33.4771 10.628 33.6851 10.176 34.1011 9.832C34.5251 9.48 35.1091 9.304 35.8531 9.304ZM43.345 14.812V16H42.505C41.801 16 41.265 15.832 40.897 15.496C40.537 15.152 40.357 14.584 40.357 13.792V10.552H39.409V9.388H40.357V7.744H41.737V9.388H43.333V10.552H41.737V13.816C41.737 14.192 41.805 14.452 41.941 14.596C42.085 14.74 42.333 14.812 42.685 14.812H43.345ZM50.7705 12.376C50.7705 12.6 50.7545 12.796 50.7225 12.964H45.6345C45.6585 13.644 45.8465 14.148 46.1985 14.476C46.5505 14.804 46.9865 14.968 47.5065 14.968C47.9625 14.968 48.3465 14.852 48.6585 14.62C48.9785 14.388 49.1745 14.08 49.2465 13.696H50.7105C50.6225 14.16 50.4385 14.572 50.1585 14.932C49.8785 15.292 49.5145 15.576 49.0665 15.784C48.6185 15.984 48.1185 16.084 47.5665 16.084C46.9265 16.084 46.3585 15.948 45.8625 15.676C45.3745 15.404 44.9905 15.012 44.7105 14.5C44.4305 13.988 44.2905 13.384 44.2905 12.688C44.2905 12 44.4305 11.4 44.7105 10.888C44.9905 10.376 45.3745 9.984 45.8625 9.712C46.3585 9.44 46.9265 9.304 47.5665 9.304C48.2145 9.304 48.7785 9.44 49.2585 9.712C49.7465 9.976 50.1185 10.344 50.3745 10.816C50.6385 11.28 50.7705 11.8 50.7705 12.376ZM49.3905 12.34C49.4065 11.908 49.3305 11.548 49.1625 11.26C49.0025 10.964 48.7785 10.748 48.4905 10.612C48.2105 10.468 47.9025 10.396 47.5665 10.396C47.0305 10.396 46.5825 10.56 46.2225 10.888C45.8625 11.216 45.6665 11.7 45.6345 12.34H49.3905ZM53.4593 10.684C53.6833 10.252 54.0033 9.912 54.4193 9.664C54.8353 9.408 55.3153 9.28 55.8593 9.28V10.768H55.4513C54.8513 10.768 54.3673 10.916 53.9993 11.212C53.6393 11.5 53.4593 11.98 53.4593 12.652V16H52.0913V9.388H53.4593V10.684Z" fill="#DE4841"/>
</svg>
