<svg width="62" height="24" viewBox="0 0 62 24" fill="none" xmlns="http://www.w3.org/2000/svg">
<rect x="0.5" y="0.5" width="61" height="23" rx="3.5" fill="#0BB63B" fill-opacity="0.3"/>
<rect x="0.5" y="0.5" width="61" height="23" rx="3.5" stroke="#0BB63B"/>
<path d="M8.74066 8.764V11.212H11.6207V12.328H8.74066V14.884H11.9807V16H7.37266V7.648H11.9807V8.764H8.74066ZM17.0016 9.28C17.5216 9.28 17.9856 9.388 18.3936 9.604C18.8096 9.82 19.1336 10.14 19.3656 10.564C19.5976 10.988 19.7136 11.5 19.7136 12.1V16H18.3576V12.304C18.3576 11.712 18.2096 11.26 17.9136 10.948C17.6176 10.628 17.2136 10.468 16.7016 10.468C16.1896 10.468 15.7816 10.628 15.4776 10.948C15.1816 11.26 15.0336 11.712 15.0336 12.304V16H13.6656V9.388H15.0336V10.144C15.2576 9.872 15.5416 9.66 15.8856 9.508C16.2376 9.356 16.6096 9.28 17.0016 9.28ZM21.0026 12.664C21.0026 12 21.1386 11.412 21.4106 10.9C21.6906 10.388 22.0666 9.992 22.5386 9.712C23.0186 9.424 23.5466 9.28 24.1226 9.28C24.6426 9.28 25.0946 9.384 25.4786 9.592C25.8706 9.792 26.1826 10.044 26.4146 10.348V9.388H27.7946V16H26.4146V15.016C26.1826 15.328 25.8666 15.588 25.4666 15.796C25.0666 16.004 24.6106 16.108 24.0986 16.108C23.5306 16.108 23.0106 15.964 22.5386 15.676C22.0666 15.38 21.6906 14.972 21.4106 14.452C21.1386 13.924 21.0026 13.328 21.0026 12.664ZM26.4146 12.688C26.4146 12.232 26.3186 11.836 26.1266 11.5C25.9426 11.164 25.6986 10.908 25.3946 10.732C25.0906 10.556 24.7626 10.468 24.4106 10.468C24.0586 10.468 23.7306 10.556 23.4266 10.732C23.1226 10.9 22.8746 11.152 22.6826 11.488C22.4986 11.816 22.4066 12.208 22.4066 12.664C22.4066 13.12 22.4986 13.52 22.6826 13.864C22.8746 14.208 23.1226 14.472 23.4266 14.656C23.7386 14.832 24.0666 14.92 24.4106 14.92C24.7626 14.92 25.0906 14.832 25.3946 14.656C25.6986 14.48 25.9426 14.224 26.1266 13.888C26.3186 13.544 26.4146 13.144 26.4146 12.688ZM30.9594 10.372C31.1914 10.052 31.5074 9.792 31.9074 9.592C32.3154 9.384 32.7674 9.28 33.2634 9.28C33.8474 9.28 34.3754 9.42 34.8474 9.7C35.3194 9.98 35.6914 10.38 35.9634 10.9C36.2354 11.412 36.3714 12 36.3714 12.664C36.3714 13.328 36.2354 13.924 35.9634 14.452C35.6914 14.972 35.3154 15.38 34.8354 15.676C34.3634 15.964 33.8394 16.108 33.2634 16.108C32.7514 16.108 32.2954 16.008 31.8954 15.808C31.5034 15.608 31.1914 15.352 30.9594 15.04V16H29.5914V7.12H30.9594V10.372ZM34.9794 12.664C34.9794 12.208 34.8834 11.816 34.6914 11.488C34.5074 11.152 34.2594 10.9 33.9474 10.732C33.6434 10.556 33.3154 10.468 32.9634 10.468C32.6194 10.468 32.2914 10.556 31.9794 10.732C31.6754 10.908 31.4274 11.164 31.2354 11.5C31.0514 11.836 30.9594 12.232 30.9594 12.688C30.9594 13.144 31.0514 13.544 31.2354 13.888C31.4274 14.224 31.6754 14.48 31.9794 14.656C32.2914 14.832 32.6194 14.92 32.9634 14.92C33.3154 14.92 33.6434 14.832 33.9474 14.656C34.2594 14.472 34.5074 14.208 34.6914 13.864C34.8834 13.52 34.9794 13.12 34.9794 12.664ZM39.0922 7.12V16H37.7242V7.12H39.0922ZM46.9483 12.532C46.9483 12.78 46.9323 13.004 46.9003 13.204H41.8483C41.8883 13.732 42.0843 14.156 42.4363 14.476C42.7883 14.796 43.2203 14.956 43.7323 14.956C44.4683 14.956 44.9883 14.648 45.2923 14.032H46.7683C46.5683 14.64 46.2043 15.14 45.6763 15.532C45.1563 15.916 44.5083 16.108 43.7323 16.108C43.1003 16.108 42.5323 15.968 42.0283 15.688C41.5323 15.4 41.1403 15 40.8523 14.488C40.5723 13.968 40.4323 13.368 40.4323 12.688C40.4323 12.008 40.5683 11.412 40.8403 10.9C41.1203 10.38 41.5083 9.98 42.0043 9.7C42.5083 9.42 43.0843 9.28 43.7323 9.28C44.3563 9.28 44.9123 9.416 45.4003 9.688C45.8883 9.96 46.2683 10.344 46.5403 10.84C46.8123 11.328 46.9483 11.892 46.9483 12.532ZM45.5203 12.1C45.5123 11.596 45.3323 11.192 44.9803 10.888C44.6283 10.584 44.1923 10.432 43.6723 10.432C43.2003 10.432 42.7963 10.584 42.4603 10.888C42.1243 11.184 41.9243 11.588 41.8603 12.1H45.5203ZM47.8385 12.664C47.8385 12 47.9745 11.412 48.2465 10.9C48.5265 10.388 48.9025 9.992 49.3745 9.712C49.8545 9.424 50.3865 9.28 50.9705 9.28C51.4025 9.28 51.8265 9.376 52.2425 9.568C52.6665 9.752 53.0025 10 53.2505 10.312V7.12H54.6305V16H53.2505V15.004C53.0265 15.324 52.7145 15.588 52.3145 15.796C51.9225 16.004 51.4705 16.108 50.9585 16.108C50.3825 16.108 49.8545 15.964 49.3745 15.676C48.9025 15.38 48.5265 14.972 48.2465 14.452C47.9745 13.924 47.8385 13.328 47.8385 12.664ZM53.2505 12.688C53.2505 12.232 53.1545 11.836 52.9625 11.5C52.7785 11.164 52.5345 10.908 52.2305 10.732C51.9265 10.556 51.5985 10.468 51.2465 10.468C50.8945 10.468 50.5665 10.556 50.2625 10.732C49.9585 10.9 49.7105 11.152 49.5185 11.488C49.3345 11.816 49.2425 12.208 49.2425 12.664C49.2425 13.12 49.3345 13.52 49.5185 13.864C49.7105 14.208 49.9585 14.472 50.2625 14.656C50.5745 14.832 50.9025 14.92 51.2465 14.92C51.5985 14.92 51.9265 14.832 52.2305 14.656C52.5345 14.48 52.7785 14.224 52.9625 13.888C53.1545 13.544 53.2505 13.144 53.2505 12.688Z" fill="#0BB63B"/>
</svg>
