<svg width="78" height="24" viewBox="0 0 78 24" fill="none" xmlns="http://www.w3.org/2000/svg">
<rect x="0.5" y="0.5" width="77" height="23" rx="3.5" fill="#14493D"/>
<rect x="0.5" y="0.5" width="77" height="23" rx="3.5" stroke="#0BB63B"/>
<path d="M7 12L10.3294 15L17 9" stroke="#0BB63B" stroke-width="1.5" stroke-linecap="round" stroke-linejoin="round"/>
<path d="M24.7407 8.764V11.212H27.6207V12.328H24.7407V14.884H27.9807V16H23.3727V7.648H27.9807V8.764H24.7407ZM33.0016 9.28C33.5216 9.28 33.9856 9.388 34.3936 9.604C34.8096 9.82 35.1336 10.14 35.3656 10.564C35.5976 10.988 35.7136 11.5 35.7136 12.1V16H34.3576V12.304C34.3576 11.712 34.2096 11.26 33.9136 10.948C33.6176 10.628 33.2136 10.468 32.7016 10.468C32.1896 10.468 31.7816 10.628 31.4776 10.948C31.1816 11.26 31.0336 11.712 31.0336 12.304V16H29.6656V9.388H31.0336V10.144C31.2576 9.872 31.5416 9.66 31.8856 9.508C32.2376 9.356 32.6096 9.28 33.0016 9.28ZM37.0026 12.664C37.0026 12 37.1386 11.412 37.4106 10.9C37.6906 10.388 38.0666 9.992 38.5386 9.712C39.0186 9.424 39.5466 9.28 40.1226 9.28C40.6426 9.28 41.0946 9.384 41.4786 9.592C41.8706 9.792 42.1826 10.044 42.4146 10.348V9.388H43.7946V16H42.4146V15.016C42.1826 15.328 41.8666 15.588 41.4666 15.796C41.0666 16.004 40.6106 16.108 40.0986 16.108C39.5306 16.108 39.0106 15.964 38.5386 15.676C38.0666 15.38 37.6906 14.972 37.4106 14.452C37.1386 13.924 37.0026 13.328 37.0026 12.664ZM42.4146 12.688C42.4146 12.232 42.3186 11.836 42.1266 11.5C41.9426 11.164 41.6986 10.908 41.3946 10.732C41.0906 10.556 40.7626 10.468 40.4106 10.468C40.0586 10.468 39.7306 10.556 39.4266 10.732C39.1226 10.9 38.8746 11.152 38.6826 11.488C38.4986 11.816 38.4066 12.208 38.4066 12.664C38.4066 13.12 38.4986 13.52 38.6826 13.864C38.8746 14.208 39.1226 14.472 39.4266 14.656C39.7386 14.832 40.0666 14.92 40.4106 14.92C40.7626 14.92 41.0906 14.832 41.3946 14.656C41.6986 14.48 41.9426 14.224 42.1266 13.888C42.3186 13.544 42.4146 13.144 42.4146 12.688ZM46.9594 10.372C47.1914 10.052 47.5074 9.792 47.9074 9.592C48.3154 9.384 48.7674 9.28 49.2634 9.28C49.8474 9.28 50.3754 9.42 50.8474 9.7C51.3194 9.98 51.6914 10.38 51.9634 10.9C52.2354 11.412 52.3714 12 52.3714 12.664C52.3714 13.328 52.2354 13.924 51.9634 14.452C51.6914 14.972 51.3154 15.38 50.8354 15.676C50.3634 15.964 49.8394 16.108 49.2634 16.108C48.7514 16.108 48.2954 16.008 47.8954 15.808C47.5034 15.608 47.1914 15.352 46.9594 15.04V16H45.5914V7.12H46.9594V10.372ZM50.9794 12.664C50.9794 12.208 50.8834 11.816 50.6914 11.488C50.5074 11.152 50.2594 10.9 49.9474 10.732C49.6434 10.556 49.3154 10.468 48.9634 10.468C48.6194 10.468 48.2914 10.556 47.9794 10.732C47.6754 10.908 47.4274 11.164 47.2354 11.5C47.0514 11.836 46.9594 12.232 46.9594 12.688C46.9594 13.144 47.0514 13.544 47.2354 13.888C47.4274 14.224 47.6754 14.48 47.9794 14.656C48.2914 14.832 48.6194 14.92 48.9634 14.92C49.3154 14.92 49.6434 14.832 49.9474 14.656C50.2594 14.472 50.5074 14.208 50.6914 13.864C50.8834 13.52 50.9794 13.12 50.9794 12.664ZM55.0922 7.12V16H53.7242V7.12H55.0922ZM62.9483 12.532C62.9483 12.78 62.9323 13.004 62.9003 13.204H57.8483C57.8883 13.732 58.0843 14.156 58.4363 14.476C58.7883 14.796 59.2203 14.956 59.7323 14.956C60.4683 14.956 60.9883 14.648 61.2923 14.032H62.7683C62.5683 14.64 62.2043 15.14 61.6763 15.532C61.1563 15.916 60.5083 16.108 59.7323 16.108C59.1003 16.108 58.5323 15.968 58.0283 15.688C57.5323 15.4 57.1403 15 56.8523 14.488C56.5723 13.968 56.4323 13.368 56.4323 12.688C56.4323 12.008 56.5683 11.412 56.8403 10.9C57.1203 10.38 57.5083 9.98 58.0043 9.7C58.5083 9.42 59.0843 9.28 59.7323 9.28C60.3563 9.28 60.9123 9.416 61.4003 9.688C61.8883 9.96 62.2683 10.344 62.5403 10.84C62.8123 11.328 62.9483 11.892 62.9483 12.532ZM61.5203 12.1C61.5123 11.596 61.3323 11.192 60.9803 10.888C60.6283 10.584 60.1923 10.432 59.6723 10.432C59.2003 10.432 58.7963 10.584 58.4603 10.888C58.1243 11.184 57.9243 11.588 57.8603 12.1H61.5203ZM63.8385 12.664C63.8385 12 63.9745 11.412 64.2465 10.9C64.5265 10.388 64.9025 9.992 65.3745 9.712C65.8545 9.424 66.3865 9.28 66.9705 9.28C67.4025 9.28 67.8265 9.376 68.2425 9.568C68.6665 9.752 69.0025 10 69.2505 10.312V7.12H70.6305V16H69.2505V15.004C69.0265 15.324 68.7145 15.588 68.3145 15.796C67.9225 16.004 67.4705 16.108 66.9585 16.108C66.3825 16.108 65.8545 15.964 65.3745 15.676C64.9025 15.38 64.5265 14.972 64.2465 14.452C63.9745 13.924 63.8385 13.328 63.8385 12.664ZM69.2505 12.688C69.2505 12.232 69.1545 11.836 68.9625 11.5C68.7785 11.164 68.5345 10.908 68.2305 10.732C67.9265 10.556 67.5985 10.468 67.2465 10.468C66.8945 10.468 66.5665 10.556 66.2625 10.732C65.9585 10.9 65.7105 11.152 65.5185 11.488C65.3345 11.816 65.2425 12.208 65.2425 12.664C65.2425 13.12 65.3345 13.52 65.5185 13.864C65.7105 14.208 65.9585 14.472 66.2625 14.656C66.5745 14.832 66.9025 14.92 67.2465 14.92C67.5985 14.92 67.9265 14.832 68.2305 14.656C68.5345 14.48 68.7785 14.224 68.9625 13.888C69.1545 13.544 69.2505 13.144 69.2505 12.688Z" fill="#0BB63B"/>
</svg>
