<svg width="12" height="18" viewBox="0 0 12 18" fill="none" xmlns="http://www.w3.org/2000/svg">
<path d="M11.9928 9.10144L11.9964 9.08738C11.9964 9.07332 12 9.06278 12 9.04872C12 9.03466 12 9.01358 12 8.996C12 8.98897 12 8.98546 12 8.97843C12 8.96086 12 8.94328 11.9964 8.92571C11.9964 8.9222 11.9964 8.9222 11.9964 8.91868C11.9857 8.81324 11.9498 8.71483 11.8925 8.62697L6.60932 0.332471C6.40143 0.00209672 5.96057 -0.0998272 5.62366 0.107535C5.53047 0.163769 5.45161 0.241091 5.39068 0.335985L0.107527 8.63048C0.0501792 8.71835 0.0143369 8.82027 0.00358417 8.9222V8.92922C0.00358417 8.9468 0 8.96437 0 8.98194V8.99952V9.05224C0 9.05224 0.00358417 9.07684 0.00358417 9.0909V9.10496C0.0179211 9.21742 0.0645163 9.32638 0.132617 9.42127L5.39068 17.6666C5.59857 17.9969 6.03943 18.0989 6.37634 17.895C6.46953 17.8388 6.54839 17.7615 6.60932 17.6666L11.8638 9.41776C11.9319 9.32286 11.9749 9.21391 11.9928 9.10144ZM6 2.03706L10.276 8.75349L6 11.1364L1.72401 8.75349L6 2.03706ZM6 15.962L2.83513 10.9958L5.64158 12.5598C5.86022 12.6828 6.13262 12.6828 6.35125 12.5598L9.16129 10.9958L6 15.962Z" fill="white"/>
</svg>
