<?xml version="1.0" encoding="UTF-8"?>
<svg version="1.1" xmlns="http://www.w3.org/2000/svg" width="280" height="280">
<path d="M0 0 C0.77184631 0.0012085 1.54369263 0.00241699 2.33892822 0.00366211 C41.16951148 0.16830483 73.68576715 15.23615656 101.625 41.8125 C102.8315625 43.0809375 102.8315625 43.0809375 104.0625 44.375 C104.70445312 45.03371094 105.34640625 45.69242188 106.0078125 46.37109375 C117.70456872 58.78106681 125.21448449 72.88748923 132.0625 88.375 C132.49433594 89.30957031 132.92617188 90.24414062 133.37109375 91.20703125 C138.61113916 103.17553963 141.15764847 117.24720373 141.30078125 130.23046875 C141.31062042 130.9657077 141.32045959 131.70094666 141.33059692 132.45846558 C141.66060135 163.50791566 141.66060135 163.50791566 137.0625 178.375 C136.82644043 179.14972656 136.59038086 179.92445313 136.34716797 180.72265625 C129.18514753 203.44163793 117.33916223 222.11638191 101.0625 239.375 C100.42957031 240.06078125 99.79664063 240.7465625 99.14453125 241.453125 C76.60608624 265.06040348 41.96131158 279.87684937 9.42578125 280.67578125 C6.74084487 280.69543236 4.05959629 280.70273057 1.375 280.6875 C0.67184662 280.68501251 -0.03130676 280.68252502 -0.75576782 280.67996216 C-40.33589672 280.46383681 -75.06079355 264.38306757 -102.9375 236.375 C-116.45064391 221.79346697 -126.47554126 204.46104965 -133.25 185.8125 C-133.59550903 184.87796997 -133.59550903 184.87796997 -133.94799805 183.92456055 C-138.5646831 170.54210357 -139.44700918 157.46853079 -139.38354492 143.43334961 C-139.37504189 140.57657497 -139.40389707 137.72181284 -139.43554688 134.86523438 C-139.57834411 97.58268579 -122.83050045 65.39402523 -97.5625 38.6875 C-78.72511143 20.56602168 -54.44443956 7.8044392 -28.9375 2.375 C-27.64863892 2.09897949 -27.64863892 2.09897949 -26.33374023 1.81738281 C-17.5729986 0.14440994 -8.88356894 -0.02574602 0 0 Z " fill="#262726" transform="translate(138.9375,-0.37499999999999994)"/>
<path d="M0 0 C0.77184631 0.0012085 1.54369263 0.00241699 2.33892822 0.00366211 C41.16951148 0.16830483 73.68576715 15.23615656 101.625 41.8125 C102.8315625 43.0809375 102.8315625 43.0809375 104.0625 44.375 C104.70445312 45.03371094 105.34640625 45.69242188 106.0078125 46.37109375 C117.70456872 58.78106681 125.21448449 72.88748923 132.0625 88.375 C132.49433594 89.30957031 132.92617188 90.24414062 133.37109375 91.20703125 C138.61113916 103.17553963 141.15764847 117.24720373 141.30078125 130.23046875 C141.31062042 130.9657077 141.32045959 131.70094666 141.33059692 132.45846558 C141.66060135 163.50791566 141.66060135 163.50791566 137.0625 178.375 C136.82644043 179.14972656 136.59038086 179.92445313 136.34716797 180.72265625 C129.18514753 203.44163793 117.33916223 222.11638191 101.0625 239.375 C100.42957031 240.06078125 99.79664063 240.7465625 99.14453125 241.453125 C76.60608624 265.06040348 41.96131158 279.87684937 9.42578125 280.67578125 C6.74084487 280.69543236 4.05959629 280.70273057 1.375 280.6875 C0.67184662 280.68501251 -0.03130676 280.68252502 -0.75576782 280.67996216 C-40.33589672 280.46383681 -75.06079355 264.38306757 -102.9375 236.375 C-116.45064391 221.79346697 -126.47554126 204.46104965 -133.25 185.8125 C-133.59550903 184.87796997 -133.59550903 184.87796997 -133.94799805 183.92456055 C-138.5646831 170.54210357 -139.44700918 157.46853079 -139.38354492 143.43334961 C-139.37504189 140.57657497 -139.40389707 137.72181284 -139.43554688 134.86523438 C-139.57834411 97.58268579 -122.83050045 65.39402523 -97.5625 38.6875 C-78.72511143 20.56602168 -54.44443956 7.8044392 -28.9375 2.375 C-27.64863892 2.09897949 -27.64863892 2.09897949 -26.33374023 1.81738281 C-17.5729986 0.14440994 -8.88356894 -0.02574602 0 0 Z M-86.14990234 67.31689453 C-90.73462689 72.59540149 -94.44735145 78.3339123 -97.9375 84.375 C-98.58074219 85.45652344 -99.22398438 86.53804687 -99.88671875 87.65234375 C-113.37892807 112.26611389 -116.11013397 143.94675116 -108.421875 170.734375 C-104.90170486 182.01935316 -100.3830354 192.40995384 -93.9375 202.375 C-93.36644531 203.26445312 -92.79539062 204.15390625 -92.20703125 205.0703125 C-84.27505772 216.67230364 -73.88464979 226.96776713 -61.9375 234.375 C-60.95523438 235.02855469 -59.97296875 235.68210938 -58.9609375 236.35546875 C-34.40600181 252.27734311 -3.84802853 256.52394875 24.75 250.75 C45.45475335 246.15078855 64.17135358 236.66860984 79.0625 221.375 C80.0009375 220.62089844 80.939375 219.86679688 81.90625 219.08984375 C98.86901485 205.03992912 110.38503588 178.84255766 113.0625 157.375 C113.29803488 152.92559406 113.35114105 148.49038924 113.32324219 144.03515625 C113.31255336 142.01010955 113.32317684 139.98595685 113.3359375 137.9609375 C113.32011266 129.8902677 112.68048983 122.2793864 111.0625 114.375 C110.87131592 113.38733643 110.68013184 112.39967285 110.4831543 111.38208008 C106.9703626 94.03501879 96.35583764 75.97567108 84.0625 63.375 C83.4025 63.375 82.7425 63.375 82.0625 63.375 C81.0725 61.395 81.0725 61.395 80.0625 59.375 C79.4025 59.375 78.7425 59.375 78.0625 59.375 C77.83820313 58.80136719 77.61390625 58.22773437 77.3828125 57.63671875 C70.44423708 45.75081588 50.112759 37.80953084 37.8125 33.4375 C37.02166016 33.15503418 36.23082031 32.87256836 35.41601562 32.58154297 C24.09913842 28.77737423 13.00116551 28.05276787 1.125 28.125 C-0.14279297 28.11726563 -1.41058594 28.10953125 -2.71679688 28.1015625 C-36.01778721 28.16983721 -63.95020907 43.09545356 -86.14990234 67.31689453 Z " fill="#37F998" transform="translate(138.9375,-0.37499999999999994)"/>
<path d="M0 0 C0.99 0.33 1.98 0.66 3 1 C5.50320952 6.93567292 5.35330549 13.91582161 5.3125 20.25 C5.30686035 21.17312988 5.3012207 22.09625977 5.29541016 23.04736328 C5.1658946 30.37076247 4.30413813 37.0169607 2 44 C1.44892578 45.76150391 1.44892578 45.76150391 0.88671875 47.55859375 C-4.41787444 62.59609834 -14.02010005 74.79930872 -27 84 C-28.051875 84.82177734 -28.051875 84.82177734 -29.125 85.66015625 C-45.0016622 97.41730572 -65.30594402 99.45147339 -84.37890625 97.6875 C-89.09908941 96.9179796 -89.09908941 96.9179796 -91 96 C-91.70792823 94.6881083 -92.378958 93.35518599 -93 92 C-72.22051243 68.85645171 -72.22051243 68.85645171 -56 67 C-44.83433397 63.59153353 -35.74670564 56.12620297 -29.65234375 46.29296875 C-26.36808497 39.74774381 -24.82121547 32.75210514 -23.26367188 25.63574219 C-21.81660332 21.4723448 -20.13708787 19.55843592 -16.9921875 16.50390625 C-16.26396286 15.78629372 -16.26396286 15.78629372 -15.52102661 15.05418396 C-13.98378585 13.54469597 -12.43002595 12.05363729 -10.875 10.5625 C-9.82307154 9.53567916 -8.77227792 8.50769437 -7.72265625 7.47851562 C-5.16141617 4.97208888 -2.58506296 2.48187634 0 0 Z " fill="#37FB9A" transform="translate(211,118)"/>
<path d="M0 0 C-0.55102404 3.93764241 -2.36730446 5.72911201 -5.1484375 8.4765625 C-5.98890625 9.311875 -6.829375 10.1471875 -7.6953125 11.0078125 C-8.57960938 11.87148437 -9.46390625 12.73515625 -10.375 13.625 C-11.2515625 14.49640625 -12.128125 15.3678125 -13.03125 16.265625 C-18.41902209 21.58749162 -21.81972803 24.92517009 -29.4375 26.25 C-42.19228591 28.90341581 -52.8981657 34.87298794 -60.8125 45.4140625 C-65.08157996 52.13786343 -69.02487183 59.97987998 -69.1875 68.0625 C-69.69091342 74.05434756 -74.9710785 77.99702968 -79 82 C-79.68707031 82.72316406 -80.37414062 83.44632812 -81.08203125 84.19140625 C-84.46041105 87.71203362 -84.46041105 87.71203362 -86 89 C-86.66 89 -87.32 89 -88 89 C-88.2475 89.61875 -88.495 90.2375 -88.75 90.875 C-90.20628639 93.35068687 -91.37812506 93.95125002 -94 95 C-100.02247311 85.96629033 -99.2090167 70.30805472 -97.34765625 59.984375 C-92.81071253 38.43844227 -79.82427615 20.16813304 -61.5234375 8.14453125 C-45.37473666 -1.98315204 -18.18923857 -9.09461928 0 0 Z " fill="#37FB9A" transform="translate(161,66)"/>
<path d="M0 0 C3.62011046 2.33296007 5.89022378 4.96794755 7.8125 8.8125 C8.59786241 15.35718671 6.53952014 18.73244626 2.8125 23.8125 C0.37838414 26.63654158 -2.22015878 29.26669386 -4.8671875 31.890625 C-5.59817657 32.62448425 -6.32916565 33.35834351 -7.08230591 34.11444092 C-8.62003504 35.65419988 -10.16151248 37.19022376 -11.70654297 38.72265625 C-14.05921831 41.05924076 -16.39542378 43.4114363 -18.73046875 45.765625 C-20.2334139 47.26658798 -21.73728927 48.76662022 -23.2421875 50.265625 C-24.28002884 51.31257538 -24.28002884 51.31257538 -25.33883667 52.38067627 C-30.21481575 57.18721719 -34.7457738 61.32945071 -41.75 62.3125 C-47.19430056 61.52060174 -50.02194256 59.16209282 -53.5625 55.0625 C-55.49416589 51.19916823 -56.24624276 48.04747105 -55.1875 43.8125 C-51.88753041 38.1484049 -47.47035205 33.8055939 -42.84375 29.203125 C-42.03764282 28.39510437 -41.23153564 27.58708374 -40.40100098 26.75457764 C-38.70224612 25.05446615 -37.00098038 23.35686028 -35.29736328 21.66162109 C-32.68939813 19.06439032 -30.09230276 16.4566327 -27.49609375 13.84765625 C-25.84178697 12.19467061 -24.18686013 10.54230522 -22.53125 8.890625 C-21.36704529 7.7203476 -21.36704529 7.7203476 -20.17932129 6.52642822 C-19.08798889 5.44455231 -19.08798889 5.44455231 -17.97460938 4.34082031 C-17.02007874 3.38867645 -17.02007874 3.38867645 -16.04626465 2.41729736 C-11.08720193 -1.86419722 -6.15103165 -2.29156081 0 0 Z " fill="#37FB99" transform="translate(120.1875,152.1875)"/>
<path d="M0 0 C3.95215917 2.08793315 6.63625364 4.21936822 9 8 C9.3984375 10.40234375 9.3984375 10.40234375 9.375 12.9375 C9.38660156 14.18853516 9.38660156 14.18853516 9.3984375 15.46484375 C8.63886972 20.29777994 5.61186407 23.6390889 2.25048828 27.02416992 C1.133853 28.15510323 1.133853 28.15510323 -0.00534058 29.30888367 C-0.80537506 30.10800674 -1.60540955 30.90712982 -2.4296875 31.73046875 C-3.257034 32.56210037 -4.08438049 33.39373199 -4.9367981 34.25056458 C-6.68431822 36.00381802 -8.43445214 37.75446956 -10.18701172 39.50268555 C-12.86704166 42.17955106 -15.53346749 44.86947073 -18.19921875 47.56054688 C-19.90023054 49.26383127 -21.60202734 50.96633213 -23.3046875 52.66796875 C-24.10067352 53.47316452 -24.89665955 54.27836029 -25.71676636 55.10795593 C-26.4674942 55.85245499 -27.21822205 56.59695404 -27.99169922 57.36401367 C-28.64661346 58.01955734 -29.30152771 58.67510101 -29.97628784 59.35050964 C-33.05479572 61.85974449 -35.96483272 62.86497818 -39.875 63.375 C-44.96183447 62.76457986 -48.50300325 60.64186741 -51.9375 56.875 C-53.50688129 52.62843887 -53.85109403 48.45651599 -53 44 C-50.35887714 39.25472015 -47.04188243 35.94413315 -43 32.4375 C-39.29047413 29.19166487 -36.05298243 25.88036632 -33 22 C-31.78023362 20.882735 -30.53021781 19.79745094 -29.25 18.75 C-26.21231165 16.17273761 -23.62763159 13.48391376 -21.0625 10.4375 C-15.15851246 3.69008566 -9.32053679 -1.52795685 0 0 Z " fill="#37FC9A" transform="translate(205,65)"/>
</svg>
