<svg width="24" height="24" viewBox="0 0 24 24" fill="none" xmlns="http://www.w3.org/2000/svg">
<path d="M19 8.25H9.87C10.16 7.28 11 6.53 12.06 6.41L17.14 5.85C18.06 5.75 18.75 4.98 18.75 4.06C18.75 3.06 17.94 2.25 16.94 2.25H6C3.93 2.25 2.25 3.93 2.25 6V19C2.25 19.41 2.59 19.75 3 19.75H9C9.41 19.75 9.75 19.41 9.75 19V13C9.75 12.86 9.86 12.75 10 12.75H16.38C16.48 12.75 16.56 12.8 16.6 12.89L17.05 13.78C17.35 14.38 17.95 14.75 18.62 14.75H19.38C20.05 14.75 20.65 14.38 20.95 13.78L21.57 12.54C21.69 12.3 21.75 12.03 21.75 11.76V11C21.75 9.48 20.52 8.25 19 8.25ZM6 3.75H16.94C17.11 3.75 17.25 3.89 17.25 4.06C17.25 4.22 17.13 4.35 16.98 4.36L11.9 4.92C10.07 5.12 8.64 6.5 8.32 8.25H3.75V6C3.75 4.76 4.76 3.75 6 3.75ZM20.25 11.76C20.25 11.76 20.25 11.84 20.22 11.87L19.6 13.11C19.56 13.2 19.47 13.25 19.38 13.25H18.62C18.52 13.25 18.44 13.2 18.4 13.11L17.95 12.22C17.65 11.62 17.05 11.25 16.38 11.25H10C9.04 11.25 8.25 12.04 8.25 13V18.25H3.75V9.75H19C19.69 9.75 20.25 10.31 20.25 11V11.76Z" fill="#AAABB8"/>
<path d="M20.59 17.5399C20.26 17.1199 19.88 16.7399 19.46 16.4099C19.19 16.1999 18.81 16.1999 18.54 16.4099C18.12 16.7399 17.73 17.1199 17.41 17.5399C17.26 17.7399 17.12 17.9299 17 18.1299C16.56 18.8599 16.54 19.7799 16.95 20.5299C17.35 21.2699 18.09 21.7299 18.91 21.7499H19.1C19.93 21.7099 20.67 21.2499 21.07 20.4999C21.47 19.7399 21.45 18.8599 21.01 18.1299C20.89 17.9399 20.76 17.7399 20.6 17.5399H20.59ZM19.74 19.7899C19.67 19.9199 19.46 20.2299 18.95 20.2399C18.54 20.2299 18.33 19.9299 18.26 19.7999C18.1 19.5099 18.11 19.1699 18.28 18.8999C18.37 18.7499 18.47 18.5999 18.59 18.4499C18.72 18.2899 18.85 18.1299 19 17.9899C19.15 18.1399 19.28 18.2899 19.41 18.4499C19.53 18.5999 19.63 18.7499 19.72 18.8999C19.88 19.1699 19.89 19.4999 19.74 19.7799V19.7899Z" fill="#AAABB8"/>
</svg>
