<?xml version="1.0" encoding="UTF-8"?>
<svg id="Layer_1" xmlns="http://www.w3.org/2000/svg" version="1.1" xmlns:xlink="http://www.w3.org/1999/xlink" viewBox="0 0 173.4 194.9">
  <!-- Generator: Adobe Illustrator 29.3.1, SVG Export Plug-In . SVG Version: 2.1.0 Build 151)  -->
  <defs>
    <style>
      .st0 {
        fill: url(#linear-gradient1);
      }

      .st1 {
        fill: url(#linear-gradient);
      }
    </style>
    <linearGradient id="linear-gradient" x1="-61.1" y1="147.2" x2="172.1" y2="147.2" gradientUnits="userSpaceOnUse">
      <stop offset=".5" stop-color="#a2c9f7" stop-opacity="0"/>
      <stop offset=".6" stop-color="#80b5f4" stop-opacity=".3"/>
      <stop offset=".6" stop-color="#64a5f2" stop-opacity=".5"/>
      <stop offset=".7" stop-color="#4e98f1" stop-opacity=".7"/>
      <stop offset=".8" stop-color="#3e8fef" stop-opacity=".9"/>
      <stop offset=".8" stop-color="#348aef" stop-opacity="1"/>
      <stop offset=".8" stop-color="#3188ef"/>
    </linearGradient>
    <linearGradient id="linear-gradient1" x1="-.5" y1="74.9" x2="132.9" y2="107.9" gradientUnits="userSpaceOnUse">
      <stop offset=".6" stop-color="#a2c9f7"/>
      <stop offset=".9" stop-color="#368bef"/>
    </linearGradient>
  </defs>
  <path class="st1" d="M130.3,124.3H47.7v45.7h82.6c12.6,0,22.8-10.2,22.8-22.8s-10.2-22.8-22.8-22.8Z"/>
  <path class="st0" d="M149,59h0c2.7-3.8,4.2-8.3,4.2-13.3,0-12.2-9.5-22.1-21.5-22.8h0c0,0-88.8,0-88.8,0-12.6,0-22.8,10.2-22.8,22.8s10.2,22.8,22.8,22.8h37.5l-54.6,63.4h0c-3.6,4.1-5.8,9.4-5.8,15.2,0,12.6,10.2,22.8,22.8,22.8s13.7-3.4,17.9-8.6h0s85.8-99.5,85.8-99.5c.7-.7,1.3-1.5,2-2.3l.5-.6Z"/>
</svg>