<svg width="13" height="18" viewBox="0 0 13 18" fill="none" xmlns="http://www.w3.org/2000/svg">
<path d="M12.7706 9.10144L12.7742 9.08738C12.7742 9.07332 12.7778 9.06278 12.7778 9.04872C12.7778 9.03466 12.7778 9.01358 12.7778 8.996C12.7778 8.98897 12.7778 8.98546 12.7778 8.97843C12.7778 8.96086 12.7778 8.94328 12.7742 8.92571C12.7742 8.9222 12.7742 8.9222 12.7742 8.91868C12.7634 8.81324 12.7276 8.71483 12.6702 8.62697L7.38709 0.332471C7.1792 0.00209672 6.73834 -0.0998272 6.40143 0.107535C6.30824 0.163769 6.22938 0.241091 6.16845 0.335985L0.885298 8.63048C0.82795 8.71835 0.792108 8.82027 0.781355 8.9222V8.92922C0.781355 8.9468 0.777771 8.96437 0.777771 8.98194V8.99952V9.05224C0.777771 9.05224 0.781355 9.07684 0.781355 9.0909V9.10496C0.795692 9.21742 0.842287 9.32638 0.910388 9.42127L6.16845 17.6666C6.37634 17.9969 6.8172 18.0989 7.15412 17.895C7.2473 17.8388 7.32616 17.7615 7.38709 17.6666L12.6416 9.41776C12.7097 9.32286 12.7527 9.21391 12.7706 9.10144ZM6.77777 2.03706L11.0538 8.75349L6.77777 11.1364L2.50179 8.75349L6.77777 2.03706ZM6.77777 15.962L3.6129 10.9958L6.41935 12.5598C6.63799 12.6828 6.91039 12.6828 7.12902 12.5598L9.93906 10.9958L6.77777 15.962Z" fill="#E59D44"/>
</svg>
