<svg width="24" height="24" viewBox="0 0 24 24" fill="none" xmlns="http://www.w3.org/2000/svg">
<rect x="0.75" y="0.75" width="22.5" height="22.5" rx="3.25" stroke="#4054B2" stroke-width="1.5"/>
<path d="M4.66667 7.1666H6.49067C6.63376 7.69308 6.94612 8.15786 7.37955 8.48922C7.81299 8.82057 8.34341 9.0001 8.889 9.0001C9.43459 9.0001 9.96501 8.82057 10.3984 8.48922C10.8319 8.15786 11.1442 7.69308 11.2873 7.1666H19.3333C19.5101 7.1666 19.6797 7.09636 19.8047 6.97133C19.9298 6.84631 20 6.67674 20 6.49993C20 6.32312 19.9298 6.15355 19.8047 6.02852C19.6797 5.9035 19.5101 5.83326 19.3333 5.83326H11.2873C11.1442 5.30677 10.8319 4.842 10.3984 4.51064C9.96501 4.17928 9.43459 3.99976 8.889 3.99976C8.34341 3.99976 7.81299 4.17928 7.37955 4.51064C6.94612 4.842 6.63376 5.30677 6.49067 5.83326H4.66667C4.48986 5.83326 4.32029 5.9035 4.19526 6.02852C4.07024 6.15355 4 6.32312 4 6.49993C4 6.67674 4.07024 6.84631 4.19526 6.97133C4.32029 7.09636 4.48986 7.1666 4.66667 7.1666ZM8.88867 5.33326C9.11941 5.33326 9.34497 5.40169 9.53683 5.52988C9.72869 5.65808 9.87822 5.84028 9.96653 6.05346C10.0548 6.26664 10.0779 6.50122 10.0329 6.72753C9.9879 6.95385 9.87679 7.16173 9.71362 7.32489C9.55046 7.48805 9.34258 7.59916 9.11627 7.64418C8.88996 7.68919 8.65538 7.66609 8.4422 7.57779C8.22902 7.48949 8.04681 7.33995 7.91862 7.14809C7.79042 6.95624 7.722 6.73067 7.722 6.49993C7.72235 6.19062 7.84538 5.89408 8.0641 5.67536C8.28281 5.45664 8.57936 5.33361 8.88867 5.33326Z" fill="#4054B2" stroke="#4054B2" stroke-width="0.25"/>
<path d="M19.3333 11.3333H17.5093C17.3665 10.8067 17.0542 10.3417 16.6208 10.0103C16.1874 9.67876 15.657 9.49915 15.1113 9.49915C14.5657 9.49915 14.0352 9.67876 13.6018 10.0103C13.1684 10.3417 12.8562 10.8067 12.7133 11.3333H4.66667C4.48986 11.3333 4.32029 11.4035 4.19526 11.5286C4.07024 11.6536 4 11.8232 4 12C4 12.1768 4.07024 12.3463 4.19526 12.4714C4.32029 12.5964 4.48986 12.6666 4.66667 12.6666H12.7133C12.8562 13.1932 13.1684 13.6582 13.6018 13.9897C14.0352 14.3212 14.5657 14.5008 15.1113 14.5008C15.657 14.5008 16.1874 14.3212 16.6208 13.9897C17.0542 13.6582 17.3665 13.1932 17.5093 12.6666H19.3333C19.5101 12.6666 19.6797 12.5964 19.8047 12.4714C19.9298 12.3463 20 12.1768 20 12C20 11.8232 19.9298 11.6536 19.8047 11.5286C19.6797 11.4035 19.5101 11.3333 19.3333 11.3333ZM15.1113 13.1666C14.8806 13.1666 14.655 13.0982 14.4632 12.97C14.2713 12.8418 14.1218 12.6596 14.0335 12.4464C13.9452 12.2333 13.9221 11.9987 13.9671 11.7724C14.0121 11.5461 14.1232 11.3382 14.2864 11.175C14.4495 11.0118 14.6574 10.9007 14.8837 10.8557C15.11 10.8107 15.3446 10.8338 15.5578 10.9221C15.771 11.0104 15.9532 11.1599 16.0814 11.3518C16.2096 11.5437 16.278 11.7692 16.278 12C16.2776 12.3093 16.1546 12.6058 15.9359 12.8245C15.7172 13.0433 15.4206 13.1663 15.1113 13.1666Z" fill="#4054B2" stroke="#4054B2" stroke-width="0.25"/>
<path d="M19.3333 16.8334H11.2873C11.1442 16.3069 10.8319 15.8421 10.3984 15.5108C9.96501 15.1794 9.43459 14.9999 8.889 14.9999C8.34341 14.9999 7.81299 15.1794 7.37955 15.5108C6.94612 15.8421 6.63376 16.3069 6.49067 16.8334H4.66667C4.48986 16.8334 4.32029 16.9036 4.19526 17.0286C4.07024 17.1537 4 17.3232 4 17.5001C4 17.6769 4.07024 17.8464 4.19526 17.9715C4.32029 18.0965 4.48986 18.1667 4.66667 18.1667H6.49067C6.63376 18.6932 6.94612 19.158 7.37955 19.4893C7.81299 19.8207 8.34341 20.0002 8.889 20.0002C9.43459 20.0002 9.96501 19.8207 10.3984 19.4893C10.8319 19.158 11.1442 18.6932 11.2873 18.1667H19.3333C19.5101 18.1667 19.6797 18.0965 19.8047 17.9715C19.9298 17.8464 20 17.6769 20 17.5001C20 17.3232 19.9298 17.1537 19.8047 17.0286C19.6797 16.9036 19.5101 16.8334 19.3333 16.8334ZM8.88867 18.6667C8.65792 18.6667 8.43236 18.5983 8.2405 18.4701C8.04864 18.3419 7.89911 18.1597 7.81081 17.9465C7.72251 17.7333 7.6994 17.4988 7.74442 17.2724C7.78943 17.0461 7.90055 16.8383 8.06371 16.6751C8.22687 16.5119 8.43475 16.4008 8.66106 16.3558C8.88737 16.3108 9.12195 16.3339 9.33513 16.4222C9.54831 16.5105 9.73052 16.66 9.85871 16.8519C9.98691 17.0437 10.0553 17.2693 10.0553 17.5001C10.0548 17.8093 9.93172 18.1057 9.71304 18.3244C9.49436 18.5431 9.19792 18.6662 8.88867 18.6667Z" fill="#4054B2" stroke="#4054B2" stroke-width="0.25"/>
</svg>
