<svg width="24" height="24" viewBox="0 0 24 24" fill="none" xmlns="http://www.w3.org/2000/svg">
<path d="M9 22H15C20 22 22 20 22 15V9C22 4 20 2 15 2H9C4 2 2 4 2 9V15C2 20 4 22 9 22Z" stroke="#0DC0FA" stroke-width="1.5" stroke-linecap="round" stroke-linejoin="round"/>
<path d="M15.5698 18.5V14.6" stroke="#0DC0FA" stroke-width="1.5" stroke-miterlimit="10" stroke-linecap="round" stroke-linejoin="round"/>
<path d="M15.5698 7.45V5.5" stroke="#0DC0FA" stroke-width="1.5" stroke-miterlimit="10" stroke-linecap="round" stroke-linejoin="round"/>
<path d="M15.5702 12.65C17.0062 12.65 18.1702 11.4859 18.1702 10.05C18.1702 8.61406 17.0062 7.45 15.5702 7.45C14.1343 7.45 12.9702 8.61406 12.9702 10.05C12.9702 11.4859 14.1343 12.65 15.5702 12.65Z" stroke="#0DC0FA" stroke-width="1.5" stroke-miterlimit="10" stroke-linecap="round" stroke-linejoin="round"/>
<path d="M8.43018 18.5V16.55" stroke="#0DC0FA" stroke-width="1.5" stroke-miterlimit="10" stroke-linecap="round" stroke-linejoin="round"/>
<path d="M8.43018 9.4V5.5" stroke="#0DC0FA" stroke-width="1.5" stroke-miterlimit="10" stroke-linecap="round" stroke-linejoin="round"/>
<path d="M8.43008 16.55C9.86602 16.55 11.0301 15.3859 11.0301 13.95C11.0301 12.5141 9.86602 11.35 8.43008 11.35C6.99414 11.35 5.83008 12.5141 5.83008 13.95C5.83008 15.3859 6.99414 16.55 8.43008 16.55Z" stroke="#0DC0FA" stroke-width="1.5" stroke-miterlimit="10" stroke-linecap="round" stroke-linejoin="round"/>
</svg>
