<svg width="32" height="32" viewBox="0 0 32 32" fill="none" xmlns="http://www.w3.org/2000/svg">
<circle cx="16" cy="16" r="16" fill="#00EF8B"/>
<path d="M22.3975 13.5417H18.4585V17.4808H22.3975V13.5417Z" fill="white"/>
<path d="M14.5194 18.9614C14.5194 19.7716 13.8489 20.4421 13.0387 20.4421C12.2286 20.4421 11.5581 19.7716 11.5581 18.9614C11.5581 18.1513 12.2286 17.4808 13.0387 17.4808H14.5194V13.5417H13.0387C10.0495 13.5417 7.61905 15.9722 7.61905 18.9614C7.61905 21.9506 10.0495 24.3811 13.0387 24.3811C16.0279 24.3811 18.4584 21.9506 18.4584 18.9614V17.4808H14.5194V18.9614Z" fill="white"/>
<path d="M18.4584 13.5417H14.5193V17.4808H18.4584V13.5417Z" fill="#00EF8B"/>
<path d="M19.939 11.5582H24.3809V7.61914H19.939C16.9498 7.61914 14.5193 10.0496 14.5193 13.0388V13.5417H18.4584V13.0388C18.4584 12.2287 19.1289 11.5582 19.939 11.5582Z" fill="white"/>
</svg>
