<svg width="58" height="24" viewBox="0 0 58 24" fill="none" xmlns="http://www.w3.org/2000/svg">
<rect x="0.5" y="0.5" width="57" height="23" rx="3.5" fill="#0BB63B" fill-opacity="0.3"/>
<rect x="0.5" y="0.5" width="57" height="23" rx="3.5" stroke="#0BB63B"/>
<path d="M9.83216 10.504H8.60816V16H7.22816V10.504H6.44816V9.388H7.22816V8.92C7.22816 8.16 7.42816 7.608 7.82816 7.264C8.23616 6.912 8.87216 6.736 9.73616 6.736V7.876C9.32016 7.876 9.02816 7.956 8.86016 8.116C8.69216 8.268 8.60816 8.536 8.60816 8.92V9.388H9.83216V10.504ZM13.9125 16.108C13.2885 16.108 12.7245 15.968 12.2205 15.688C11.7165 15.4 11.3205 15 11.0325 14.488C10.7445 13.968 10.6005 13.368 10.6005 12.688C10.6005 12.016 10.7485 11.42 11.0445 10.9C11.3405 10.38 11.7445 9.98 12.2565 9.7C12.7685 9.42 13.3405 9.28 13.9725 9.28C14.6045 9.28 15.1765 9.42 15.6885 9.7C16.2005 9.98 16.6045 10.38 16.9005 10.9C17.1965 11.42 17.3445 12.016 17.3445 12.688C17.3445 13.36 17.1925 13.956 16.8885 14.476C16.5845 14.996 16.1685 15.4 15.6405 15.688C15.1205 15.968 14.5445 16.108 13.9125 16.108ZM13.9125 14.92C14.2645 14.92 14.5925 14.836 14.8965 14.668C15.2085 14.5 15.4605 14.248 15.6525 13.912C15.8445 13.576 15.9405 13.168 15.9405 12.688C15.9405 12.208 15.8485 11.804 15.6645 11.476C15.4805 11.14 15.2365 10.888 14.9325 10.72C14.6285 10.552 14.3005 10.468 13.9485 10.468C13.5965 10.468 13.2685 10.552 12.9645 10.72C12.6685 10.888 12.4325 11.14 12.2565 11.476C12.0805 11.804 11.9925 12.208 11.9925 12.688C11.9925 13.4 12.1725 13.952 12.5325 14.344C12.9005 14.728 13.3605 14.92 13.9125 14.92ZM20.0649 10.348C20.2649 10.012 20.5289 9.752 20.8569 9.568C21.1929 9.376 21.5889 9.28 22.0449 9.28V10.696H21.6969C21.1609 10.696 20.7529 10.832 20.4729 11.104C20.2009 11.376 20.0649 11.848 20.0649 12.52V16H18.6969V9.388H20.0649V10.348ZM25.9183 12.7L28.9663 16H27.1183L24.6703 13.156V16H23.3023V7.12H24.6703V12.28L27.0703 9.388H28.9663L25.9183 12.7ZM31.3149 7.66V16H29.9469V7.66H31.3149ZM35.8349 7.66C36.7229 7.66 37.4989 7.832 38.1629 8.176C38.8349 8.512 39.3509 9 39.7109 9.64C40.0789 10.272 40.2629 11.012 40.2629 11.86C40.2629 12.708 40.0789 13.444 39.7109 14.068C39.3509 14.692 38.8349 15.172 38.1629 15.508C37.4989 15.836 36.7229 16 35.8349 16H33.1109V7.66H35.8349ZM35.8349 14.884C36.8109 14.884 37.5589 14.62 38.0789 14.092C38.5989 13.564 38.8589 12.82 38.8589 11.86C38.8589 10.892 38.5989 10.136 38.0789 9.592C37.5589 9.048 36.8109 8.776 35.8349 8.776H34.4789V14.884H35.8349ZM41.2588 8.5V7.252H43.7548V16H42.3748V8.5H41.2588ZM46.3901 14.14C47.1581 13.476 47.7621 12.932 48.2021 12.508C48.6501 12.076 49.0221 11.628 49.3181 11.164C49.6141 10.7 49.7621 10.236 49.7621 9.772C49.7621 9.292 49.6461 8.916 49.4141 8.644C49.1901 8.372 48.8341 8.236 48.3461 8.236C47.8741 8.236 47.5061 8.388 47.2421 8.692C46.9861 8.988 46.8501 9.388 46.8341 9.892H45.5141C45.5381 8.98 45.8101 8.284 46.3301 7.804C46.8581 7.316 47.5261 7.072 48.3341 7.072C49.2061 7.072 49.8861 7.312 50.3741 7.792C50.8701 8.272 51.1181 8.912 51.1181 9.712C51.1181 10.288 50.9701 10.844 50.6741 11.38C50.3861 11.908 50.0381 12.384 49.6301 12.808C49.2301 13.224 48.7181 13.708 48.0941 14.26L47.5541 14.74H51.3581V15.88H45.5261V14.884L46.3901 14.14Z" fill="#0BB63B"/>
</svg>
