<svg width="48" height="48" viewBox="0 0 48 48" fill="none" xmlns="http://www.w3.org/2000/svg">
<circle cx="24" cy="24" r="24" fill="#041427"/>
<path d="M18.1092 25.9782C18.9638 25.9782 19.7499 25.6903 20.3805 25.2059L15.1708 19.9961C14.6818 20.6222 14.3984 21.4128 14.3984 22.2674C14.3984 24.3101 16.0619 25.9782 18.1092 25.9782Z" fill="#E8E7E6"/>
<path d="M33.5973 22.2635C33.5973 21.4089 33.3094 20.6228 32.825 19.9922L27.6152 25.1974C28.2413 25.6864 29.0319 25.9697 29.8865 25.9697C31.9339 25.9788 33.5973 24.3108 33.5973 22.2635Z" fill="#E8E7E6"/>
<path d="M36.2202 16.5918L33.9169 18.8951C34.6801 19.8091 35.1371 20.979 35.1371 22.2586C35.1371 25.1559 32.779 27.514 29.8816 27.514C28.6066 27.514 27.4321 27.0525 26.5181 26.2938L23.9955 28.8165L21.4729 26.2938C20.5589 27.057 19.389 27.514 18.1094 27.514C15.212 27.514 12.8539 25.1559 12.8539 22.2586C12.8539 20.9835 13.3155 19.8091 14.0741 18.8951L12.8951 17.716L11.7754 16.5964C10.4684 18.758 9.71436 21.2897 9.71436 23.9997C9.71436 31.8875 16.1077 38.2854 24.0001 38.2854C31.8924 38.2854 38.2858 31.892 38.2858 23.9997C38.2812 21.2852 37.5272 18.758 36.2202 16.5918Z" fill="#E8E7E6"/>
<path d="M34.3283 14.1376C31.7326 11.4139 28.0583 9.71387 23.9956 9.71387C19.9329 9.71387 16.2587 11.4139 13.6629 14.1376C13.311 14.5123 12.9774 14.9008 12.6621 15.3075L23.9956 26.6502L35.3291 15.3075C35.023 14.8962 34.6848 14.5123 34.3283 14.1376ZM23.9956 11.583C27.3408 11.583 30.4438 12.8717 32.7791 15.2207L23.9956 24.0042L15.2122 15.2207C17.5474 12.8671 20.655 11.583 23.9956 11.583Z" fill="#E8E7E6"/>
</svg>
