<svg width="61" height="24" viewBox="0 0 61 24" fill="none" xmlns="http://www.w3.org/2000/svg">
<rect x="0.5" y="0.5" width="60" height="23" rx="3.5" fill="#14493D"/>
<rect x="0.5" y="0.5" width="60" height="23" rx="3.5" stroke="#0BB63B"/>
<path d="M11.245 7.11503L8.75 8.05503C8.175 8.27003 7.705 8.95003 7.705 9.56003V13.275C7.705 13.865 8.095 14.64 8.57 14.995L10.72 16.6C11.425 17.13 12.585 17.13 13.29 16.6L15.44 14.995C15.915 14.64 16.305 13.865 16.305 13.275V9.56003C16.305 8.94503 15.835 8.26503 15.26 8.05003L12.765 7.11503C12.34 6.96003 11.66 6.96003 11.245 7.11503Z" stroke="#0BB63B" stroke-linecap="round" stroke-linejoin="round"/>
<path d="M10.525 11.935L11.33 12.74L13.48 10.59" stroke="#0BB63B" stroke-linecap="round" stroke-linejoin="round"/>
<path d="M29.0766 10.06C28.8606 9.644 28.5606 9.332 28.1766 9.124C27.7926 8.908 27.3486 8.8 26.8446 8.8C26.2926 8.8 25.8006 8.924 25.3686 9.172C24.9366 9.42 24.5966 9.772 24.3486 10.228C24.1086 10.684 23.9886 11.212 23.9886 11.812C23.9886 12.412 24.1086 12.944 24.3486 13.408C24.5966 13.864 24.9366 14.216 25.3686 14.464C25.8006 14.712 26.2926 14.836 26.8446 14.836C27.5886 14.836 28.1926 14.628 28.6566 14.212C29.1206 13.796 29.4046 13.232 29.5086 12.52H26.3766V11.428H30.9726V12.496C30.8846 13.144 30.6526 13.74 30.2766 14.284C29.9086 14.828 29.4246 15.264 28.8246 15.592C28.2326 15.912 27.5726 16.072 26.8446 16.072C26.0606 16.072 25.3446 15.892 24.6966 15.532C24.0486 15.164 23.5326 14.656 23.1486 14.008C22.7726 13.36 22.5846 12.628 22.5846 11.812C22.5846 10.996 22.7726 10.264 23.1486 9.616C23.5326 8.968 24.0486 8.464 24.6966 8.104C25.3526 7.736 26.0686 7.552 26.8446 7.552C27.7326 7.552 28.5206 7.772 29.2086 8.212C29.9046 8.644 30.4086 9.26 30.7206 10.06H29.0766ZM35.1899 16.108C34.5659 16.108 34.0019 15.968 33.4979 15.688C32.9939 15.4 32.5979 15 32.3099 14.488C32.0219 13.968 31.8779 13.368 31.8779 12.688C31.8779 12.016 32.0259 11.42 32.3219 10.9C32.6179 10.38 33.0219 9.98 33.5339 9.7C34.0459 9.42 34.6179 9.28 35.2499 9.28C35.8819 9.28 36.4539 9.42 36.9659 9.7C37.4779 9.98 37.8819 10.38 38.1779 10.9C38.4739 11.42 38.6219 12.016 38.6219 12.688C38.6219 13.36 38.4699 13.956 38.1659 14.476C37.8619 14.996 37.4459 15.4 36.9179 15.688C36.3979 15.968 35.8219 16.108 35.1899 16.108ZM35.1899 14.92C35.5419 14.92 35.8699 14.836 36.1739 14.668C36.4859 14.5 36.7379 14.248 36.9299 13.912C37.1219 13.576 37.2179 13.168 37.2179 12.688C37.2179 12.208 37.1259 11.804 36.9419 11.476C36.7579 11.14 36.5139 10.888 36.2099 10.72C35.9059 10.552 35.5779 10.468 35.2259 10.468C34.8739 10.468 34.5459 10.552 34.2419 10.72C33.9459 10.888 33.7099 11.14 33.5339 11.476C33.3579 11.804 33.2699 12.208 33.2699 12.688C33.2699 13.4 33.4499 13.952 33.8099 14.344C34.1779 14.728 34.6379 14.92 35.1899 14.92ZM42.8422 16.108C42.2182 16.108 41.6542 15.968 41.1502 15.688C40.6462 15.4 40.2502 15 39.9622 14.488C39.6742 13.968 39.5302 13.368 39.5302 12.688C39.5302 12.016 39.6782 11.42 39.9742 10.9C40.2702 10.38 40.6742 9.98 41.1862 9.7C41.6982 9.42 42.2702 9.28 42.9022 9.28C43.5342 9.28 44.1062 9.42 44.6182 9.7C45.1302 9.98 45.5342 10.38 45.8302 10.9C46.1262 11.42 46.2742 12.016 46.2742 12.688C46.2742 13.36 46.1222 13.956 45.8182 14.476C45.5142 14.996 45.0982 15.4 44.5702 15.688C44.0502 15.968 43.4742 16.108 42.8422 16.108ZM42.8422 14.92C43.1942 14.92 43.5222 14.836 43.8262 14.668C44.1382 14.5 44.3902 14.248 44.5822 13.912C44.7742 13.576 44.8702 13.168 44.8702 12.688C44.8702 12.208 44.7782 11.804 44.5942 11.476C44.4102 11.14 44.1662 10.888 43.8622 10.72C43.5582 10.552 43.2302 10.468 42.8782 10.468C42.5262 10.468 42.1982 10.552 41.8942 10.72C41.5982 10.888 41.3622 11.14 41.1862 11.476C41.0102 11.804 40.9222 12.208 40.9222 12.688C40.9222 13.4 41.1022 13.952 41.4622 14.344C41.8302 14.728 42.2902 14.92 42.8422 14.92ZM47.1706 12.664C47.1706 12 47.3066 11.412 47.5786 10.9C47.8586 10.388 48.2346 9.992 48.7066 9.712C49.1866 9.424 49.7186 9.28 50.3026 9.28C50.7346 9.28 51.1586 9.376 51.5746 9.568C51.9986 9.752 52.3346 10 52.5826 10.312V7.12H53.9626V16H52.5826V15.004C52.3586 15.324 52.0466 15.588 51.6466 15.796C51.2546 16.004 50.8026 16.108 50.2906 16.108C49.7146 16.108 49.1866 15.964 48.7066 15.676C48.2346 15.38 47.8586 14.972 47.5786 14.452C47.3066 13.924 47.1706 13.328 47.1706 12.664ZM52.5826 12.688C52.5826 12.232 52.4866 11.836 52.2946 11.5C52.1106 11.164 51.8666 10.908 51.5626 10.732C51.2586 10.556 50.9306 10.468 50.5786 10.468C50.2266 10.468 49.8986 10.556 49.5946 10.732C49.2906 10.9 49.0426 11.152 48.8506 11.488C48.6666 11.816 48.5746 12.208 48.5746 12.664C48.5746 13.12 48.6666 13.52 48.8506 13.864C49.0426 14.208 49.2906 14.472 49.5946 14.656C49.9066 14.832 50.2346 14.92 50.5786 14.92C50.9306 14.92 51.2586 14.832 51.5626 14.656C51.8666 14.48 52.1106 14.224 52.2946 13.888C52.4866 13.544 52.5826 13.144 52.5826 12.688Z" fill="#0BB63B"/>
</svg>
