<svg width="32" height="32" viewBox="0 0 32 32" fill="none" xmlns="http://www.w3.org/2000/svg">
<circle cx="16" cy="16" r="16" fill="#1B295E"/>
<g clip-path="url(#clip0_913_89325)">
<path d="M20.3563 9C19.5293 8.99936 18.7358 9.3269 18.15 9.91073C17.5642 10.4946 17.234 11.287 17.2319 12.114V15.5667C16.9101 15.5884 16.5811 15.6021 16.24 15.6021C15.8989 15.6021 15.5715 15.6158 15.2481 15.6351V12.114C15.235 11.2941 14.9 10.5123 14.3156 9.93716C13.7311 9.36202 12.944 9.03968 12.1241 9.03968C11.3041 9.03968 10.517 9.36202 9.93253 9.93716C9.34808 10.5123 9.01316 11.2941 9 12.114V20.366C9.01316 21.1859 9.34808 21.9677 9.93253 22.5428C10.517 23.118 11.3041 23.4403 12.1241 23.4403C12.944 23.4403 13.7311 23.118 14.3156 22.5428C14.9 21.9677 15.235 21.1859 15.2481 20.366V16.9133C15.5699 16.8916 15.8989 16.8779 16.24 16.8779C16.5811 16.8779 16.9085 16.8643 17.2319 16.8449V20.366C17.245 21.1859 17.58 21.9677 18.1644 22.5428C18.7489 23.118 19.536 23.4403 20.3559 23.4403C21.1759 23.4403 21.963 23.118 22.5475 22.5428C23.1319 21.9677 23.4668 21.1859 23.48 20.366V12.114C23.4779 11.2871 23.1478 10.4948 22.5622 9.91101C21.9765 9.32721 21.1832 8.99957 20.3563 9ZM12.1237 10.2758C12.6118 10.2756 13.08 10.469 13.4257 10.8137C13.7713 11.1583 13.9662 11.6259 13.9674 12.114V15.7702C13.0534 15.9027 12.1608 16.155 11.3128 16.5208C10.9453 16.682 10.5994 16.8885 10.2831 17.1353V12.114C10.2844 11.6265 10.4788 11.1593 10.8237 10.8148C11.1687 10.4703 11.6361 10.2765 12.1237 10.2758ZM13.9674 20.366C13.9674 20.855 13.7732 21.324 13.4274 21.6698C13.0816 22.0155 12.6127 22.2098 12.1237 22.2098C11.6347 22.2098 11.1657 22.0155 10.8199 21.6698C10.4741 21.324 10.2799 20.855 10.2799 20.366V19.5382C10.2799 18.807 10.8591 18.1144 11.83 17.6832C12.5142 17.388 13.232 17.1781 13.9674 17.0581V20.366ZM20.3563 22.2042C19.8682 22.2044 19.4 22.011 19.0543 21.6663C18.7087 21.3217 18.5138 20.8541 18.5126 20.366V16.7098C19.4266 16.5773 20.3192 16.325 21.1672 15.9592C21.5347 15.798 21.8806 15.5915 22.1969 15.3447V20.366C22.1956 20.8535 22.0012 21.3207 21.6563 21.6652C21.3113 22.0097 20.8439 22.2035 20.3563 22.2042ZM20.65 14.792C19.9658 15.0872 19.2479 15.2971 18.5126 15.4171V12.114C18.5126 11.625 18.7068 11.156 19.0526 10.8103C19.3984 10.4645 19.8673 10.2702 20.3563 10.2702C20.8453 10.2702 21.3143 10.4645 21.6601 10.8103C22.0059 11.156 22.2001 11.625 22.2001 12.114V12.9418C22.2001 13.6698 21.6209 14.3624 20.65 14.792Z" fill="url(#paint0_linear_913_89325)"/>
</g>
<defs>
<linearGradient id="paint0_linear_913_89325" x1="9.91707" y1="22.3645" x2="22.4803" y2="9.76693" gradientUnits="userSpaceOnUse">
<stop stop-color="#00AEE9"/>
<stop offset="1" stop-color="#69FABD"/>
</linearGradient>
<clipPath id="clip0_913_89325">
<rect width="14.48" height="14.4406" fill="white" transform="translate(9 9)"/>
</clipPath>
</defs>
</svg>
