<svg width="75" height="24" viewBox="0 0 75 24" fill="none" xmlns="http://www.w3.org/2000/svg">
<rect x="0.5" y="0.5" width="74" height="23" rx="3.5" fill="#2EC589" fill-opacity="0.3"/>
<rect x="0.5" y="0.5" width="74" height="23" rx="3.5" stroke="#2EC589"/>
<g clip-path="url(#clip0_274_2216)">
<path d="M16.5 9H13.5C13.2235 9 13 9.2235 13 9.5C13 9.7765 13.2235 10 13.5 10H16.293L13.012 13.281C12.73 13.563 12.271 13.563 11.9885 13.281L10.719 12.0115C10.047 11.3395 8.9535 11.3395 8.2815 12.0115L6.1465 14.1465C5.951 14.342 5.951 14.658 6.1465 14.8535C6.244 14.951 6.372 15 6.5 15C6.628 15 6.756 14.951 6.8535 14.8535L8.9885 12.7185C9.262 12.445 9.7385 12.445 10.012 12.7185L11.2815 13.988C11.9535 14.66 13.047 14.66 13.719 13.988L17.0005 10.707V13.5C17.0005 13.7765 17.224 14 17.5005 14C17.777 14 18.0005 13.7765 18.0005 13.5V10.5C18.0005 9.673 17.327 9 16.5 9Z" fill="#2EC589"/>
</g>
<path d="M29.8393 7.528V16H28.4593V12.196H24.4753V16H23.1073V7.528H24.4753V11.08H28.4593V7.528H29.8393ZM37.6419 12.376C37.6419 12.6 37.6259 12.796 37.5939 12.964H32.5059C32.5299 13.644 32.7179 14.148 33.0699 14.476C33.4219 14.804 33.8579 14.968 34.3779 14.968C34.8339 14.968 35.2179 14.852 35.5299 14.62C35.8499 14.388 36.0459 14.08 36.1179 13.696H37.5819C37.4939 14.16 37.3099 14.572 37.0299 14.932C36.7499 15.292 36.3859 15.576 35.9379 15.784C35.4899 15.984 34.9899 16.084 34.4379 16.084C33.7979 16.084 33.2299 15.948 32.7339 15.676C32.2459 15.404 31.8619 15.012 31.5819 14.5C31.3019 13.988 31.1619 13.384 31.1619 12.688C31.1619 12 31.3019 11.4 31.5819 10.888C31.8619 10.376 32.2459 9.984 32.7339 9.712C33.2299 9.44 33.7979 9.304 34.4379 9.304C35.0859 9.304 35.6499 9.44 36.1299 9.712C36.6179 9.976 36.9899 10.344 37.2459 10.816C37.5099 11.28 37.6419 11.8 37.6419 12.376ZM36.2619 12.34C36.2779 11.908 36.2019 11.548 36.0339 11.26C35.8739 10.964 35.6499 10.748 35.3619 10.612C35.0819 10.468 34.7739 10.396 34.4379 10.396C33.9019 10.396 33.4539 10.56 33.0939 10.888C32.7339 11.216 32.5379 11.7 32.5059 12.34H36.2619ZM41.6148 9.304C42.2148 9.304 42.7268 9.452 43.1508 9.748C43.5748 10.044 43.8748 10.436 44.0508 10.924V9.388H45.4188V16H44.0508V14.464C43.8748 14.952 43.5748 15.344 43.1508 15.64C42.7268 15.936 42.2148 16.084 41.6148 16.084C41.0388 16.084 40.5228 15.948 40.0668 15.676C39.6188 15.404 39.2668 15.012 39.0108 14.5C38.7548 13.988 38.6268 13.384 38.6268 12.688C38.6268 12 38.7548 11.4 39.0108 10.888C39.2668 10.376 39.6188 9.984 40.0668 9.712C40.5228 9.44 41.0388 9.304 41.6148 9.304ZM42.0348 10.504C41.4268 10.504 40.9388 10.7 40.5708 11.092C40.2108 11.476 40.0308 12.008 40.0308 12.688C40.0308 13.368 40.2108 13.904 40.5708 14.296C40.9388 14.68 41.4268 14.872 42.0348 14.872C42.4188 14.872 42.7628 14.784 43.0668 14.608C43.3708 14.424 43.6108 14.168 43.7868 13.84C43.9628 13.512 44.0508 13.128 44.0508 12.688C44.0508 12.256 43.9628 11.876 43.7868 11.548C43.6108 11.212 43.3708 10.956 43.0668 10.78C42.7628 10.596 42.4188 10.504 42.0348 10.504ZM48.4284 7.12V16H47.0604V7.12H48.4284ZM53.4079 14.812V16H52.5679C51.8639 16 51.3279 15.832 50.9599 15.496C50.5999 15.152 50.4199 14.584 50.4199 13.792V10.552H49.4719V9.388H50.4199V7.744H51.7999V9.388H53.3959V10.552H51.7999V13.816C51.7999 14.192 51.8679 14.452 52.0039 14.596C52.1479 14.74 52.3959 14.812 52.7479 14.812H53.4079ZM58.3853 9.28C59.1533 9.28 59.7693 9.528 60.2333 10.024C60.6973 10.52 60.9293 11.228 60.9293 12.148V16H59.5613V12.292C59.5613 11.7 59.4093 11.244 59.1053 10.924C58.8013 10.596 58.3853 10.432 57.8573 10.432C57.3133 10.432 56.8773 10.608 56.5493 10.96C56.2213 11.304 56.0573 11.812 56.0573 12.484V16H54.6893V7.12H56.0573V10.84C56.2333 10.344 56.5293 9.96 56.9453 9.688C57.3613 9.416 57.8413 9.28 58.3853 9.28ZM63.3092 9.388L65.2892 14.248L67.1252 9.388H68.6492L64.6532 19.144H63.1292L64.5572 15.844L61.7732 9.388H63.3092Z" fill="#2EC589"/>
<defs>
<clipPath id="clip0_274_2216">
<rect width="12" height="12" fill="white" transform="translate(6 6)"/>
</clipPath>
</defs>
</svg>
