<svg width="21" height="19" viewBox="0 0 21 19" fill="none" xmlns="http://www.w3.org/2000/svg">
<path d="M15.75 6.57211e-09C13.5 6.57211e-09 12 1.62 11.25 2.8575C10.5 1.62 9 6.57211e-09 6.75 6.57211e-09C5.36666 -6.9162e-05 4.0392 0.545842 3.05613 1.51908C2.07306 2.49232 1.51383 3.81423 1.5 5.1975C1.50085 6.04081 1.61179 6.88041 1.83 7.695C1.887 7.88092 2.01398 8.03744 2.18416 8.13153C2.35434 8.22563 2.55441 8.24994 2.74218 8.19935C2.92994 8.14876 3.09072 8.02722 3.19059 7.86037C3.29046 7.69351 3.32162 7.49439 3.2775 7.305C3.09359 6.61759 3.0003 5.90909 3 5.1975C3.0138 4.21207 3.41497 3.27167 4.11674 2.57972C4.81851 1.88778 5.76447 1.4999 6.75 1.5C9.3 1.5 10.5 4.725 10.545 4.7625C10.5976 4.90729 10.6934 5.03239 10.8195 5.12079C10.9457 5.20919 11.096 5.25662 11.25 5.25662C11.404 5.25662 11.5543 5.20919 11.6805 5.12079C11.8066 5.03239 11.9024 4.90729 11.955 4.7625C11.955 4.7625 13.185 1.5 15.75 1.5C16.7355 1.4999 17.6815 1.88778 18.3833 2.57972C19.085 3.27167 19.4862 4.21207 19.5 5.1975C19.4733 6.80445 19.0204 8.37549 18.1875 9.75H16.1775L14.145 6.3675C14.0786 6.25554 13.9842 6.16279 13.8712 6.09835C13.7581 6.03392 13.6302 6.00002 13.5 6C13.3691 6.00079 13.2407 6.03582 13.1276 6.10161C13.0144 6.16739 12.9204 6.26165 12.855 6.375L10.455 10.575L8.13 7.0875C8.06136 6.98327 7.9678 6.89782 7.85779 6.83888C7.74778 6.77995 7.6248 6.7494 7.5 6.75C7.37979 6.74643 7.26048 6.77182 7.15214 6.82404C7.0438 6.87625 6.94961 6.95375 6.8775 7.05L4.875 9.75H0.75C0.551088 9.75 0.360322 9.82902 0.21967 9.96967C0.0790176 10.1103 0 10.3011 0 10.5C0 10.6989 0.0790176 10.8897 0.21967 11.0303C0.360322 11.171 0.551088 11.25 0.75 11.25H5.25C5.36643 11.25 5.48127 11.2229 5.58541 11.1708C5.68955 11.1187 5.78014 11.0431 5.85 10.95L7.5 8.7975L9.915 12.4125C9.97933 12.5106 10.0658 12.5922 10.1674 12.6508C10.269 12.7094 10.3829 12.7434 10.5 12.75C10.627 12.7454 10.7508 12.7085 10.8597 12.6429C10.9686 12.5773 11.059 12.4851 11.1225 12.375L13.5 8.25L15.09 10.905C15.1604 11.015 15.2584 11.1047 15.3742 11.1652C15.4899 11.2257 15.6195 11.2549 15.75 11.25H17.175C15.5133 13.2915 13.5083 15.0275 11.25 16.38C9.82246 15.5202 8.48783 14.5149 7.2675 13.38C7.12229 13.2437 6.92891 13.1708 6.72989 13.1771C6.53086 13.1834 6.3425 13.2685 6.20625 13.4138C6.06999 13.559 5.997 13.7523 6.00333 13.9514C6.00966 14.1504 6.09479 14.3387 6.24 14.475C7.65198 15.8014 9.21525 16.9568 10.8975 17.9175C11.0115 17.9833 11.1408 18.018 11.2725 18.018C11.4042 18.018 11.5335 17.9833 11.6475 17.9175C12 17.7 21 12.75 21 5.1975C20.9862 3.81423 20.4269 2.49232 19.4439 1.51908C18.4608 0.545842 17.1333 -6.9162e-05 15.75 6.57211e-09Z" fill="#2EC589"/>
</svg>
