<svg width="32" height="32" viewBox="0 0 32 32" fill="none" xmlns="http://www.w3.org/2000/svg">
<path d="M20.1802 14.8577H11.9971V16.896H20.1802V14.8577Z" fill="#0C0C0C"/>
<path d="M16 1.65829e-07C12.8355 1.65829e-07 9.74207 0.938384 7.11088 2.69649C4.4797 4.45459 2.42894 6.95345 1.21793 9.87706C0.00693255 12.8007 -0.309921 16.0177 0.307443 19.1214C0.924806 22.2251 2.44866 25.0761 4.6863 27.3137C6.92394 29.5513 9.77486 31.0752 12.8786 31.6926C15.9823 32.3099 19.1993 31.9931 22.1229 30.7821C25.0466 29.5711 27.5454 27.5203 29.3035 24.8891C31.0616 22.2579 32 19.1645 32 16C32.0003 13.8988 31.5867 11.8181 30.7827 9.87671C29.9787 7.93536 28.8002 6.17141 27.3144 4.68562C25.8286 3.19982 24.0646 2.02128 22.1233 1.21731C20.1819 0.413343 18.1012 -0.000302366 16 1.65829e-07ZM21.949 22.3268H20.0927V18.3769H11.9096V22.3268H10.051V9.51662H11.9096V13.3767H20.0927V9.51662H21.949V22.3268Z" fill="#0C0C0C"/>
</svg>
