<svg width="65" height="24" viewBox="0 0 65 24" fill="none" xmlns="http://www.w3.org/2000/svg">
<rect x="0.700012" y="0.5" width="39" height="23" rx="3.5" fill="#BD6E20" fill-opacity="0.2"/>
<rect x="0.700012" y="0.5" width="39" height="23" rx="3.5" stroke="#BD6E20"/>
<path d="M14.0842 7.528V16H12.7042V12.196H8.72023V16H7.35223V7.528H8.72023V11.08H12.7042V7.528H14.0842ZM15.5509 7.468C15.5509 7.236 15.6309 7.044 15.7909 6.892C15.9509 6.74 16.1629 6.664 16.4269 6.664C16.6909 6.664 16.9029 6.74 17.0629 6.892C17.2309 7.044 17.3149 7.236 17.3149 7.468C17.3149 7.7 17.2309 7.888 17.0629 8.032C16.9029 8.176 16.6909 8.248 16.4269 8.248C16.1629 8.248 15.9509 8.176 15.7909 8.032C15.6309 7.888 15.5509 7.7 15.5509 7.468ZM17.1109 9.388V16H15.7429V9.388H17.1109ZM21.4183 9.304C22.0183 9.304 22.5303 9.452 22.9543 9.748C23.3783 10.044 23.6783 10.436 23.8543 10.924V9.388H25.2223V16.072C25.2223 16.688 25.0943 17.232 24.8383 17.704C24.5903 18.184 24.2303 18.56 23.7583 18.832C23.2863 19.104 22.7263 19.24 22.0783 19.24C21.1503 19.24 20.3983 19.02 19.8223 18.58C19.2543 18.14 18.8983 17.544 18.7543 16.792H20.1103C20.2223 17.184 20.4383 17.488 20.7583 17.704C21.0783 17.928 21.4863 18.04 21.9823 18.04C22.5263 18.04 22.9743 17.872 23.3263 17.536C23.6783 17.2 23.8543 16.712 23.8543 16.072V14.464C23.6783 14.952 23.3783 15.344 22.9543 15.64C22.5303 15.936 22.0183 16.084 21.4183 16.084C20.8423 16.084 20.3263 15.948 19.8703 15.676C19.4223 15.404 19.0703 15.012 18.8143 14.5C18.5583 13.988 18.4303 13.384 18.4303 12.688C18.4303 12 18.5583 11.4 18.8143 10.888C19.0703 10.376 19.4223 9.984 19.8703 9.712C20.3263 9.44 20.8423 9.304 21.4183 9.304ZM21.8383 10.504C21.2303 10.504 20.7423 10.7 20.3743 11.092C20.0143 11.476 19.8343 12.008 19.8343 12.688C19.8343 13.368 20.0143 13.904 20.3743 14.296C20.7423 14.68 21.2303 14.872 21.8383 14.872C22.2223 14.872 22.5663 14.784 22.8703 14.608C23.1743 14.424 23.4143 14.168 23.5903 13.84C23.7663 13.512 23.8543 13.128 23.8543 12.688C23.8543 12.256 23.7663 11.876 23.5903 11.548C23.4143 11.212 23.1743 10.956 22.8703 10.78C22.5663 10.596 22.2223 10.504 21.8383 10.504ZM30.5599 9.28C31.3279 9.28 31.9439 9.528 32.4079 10.024C32.872 10.52 33.104 11.228 33.104 12.148V16H31.7359V12.292C31.7359 11.7 31.5839 11.244 31.2799 10.924C30.9759 10.596 30.5599 10.432 30.0319 10.432C29.4879 10.432 29.0519 10.608 28.7239 10.96C28.3959 11.304 28.2319 11.812 28.2319 12.484V16H26.8639V7.12H28.2319V10.84C28.4079 10.344 28.7039 9.96 29.1199 9.688C29.5359 9.416 30.0159 9.28 30.5599 9.28Z" fill="#BD6E20"/>
</svg>
