<svg width="32" height="32" viewBox="0 0 32 32" fill="none" xmlns="http://www.w3.org/2000/svg">
<circle cx="16" cy="16" r="16" fill="#19A1A1"/>
<path d="M14.1948 19.1202C13.167 19.5251 12.0374 19.8194 10.8187 19.9326L10.8825 20.6193C12.1095 20.5053 13.2493 20.2186 14.2912 19.8228C14.2547 19.5946 14.2223 19.3602 14.1948 19.1202Z" fill="black"/>
<path d="M15.3827 19.3536C18.2402 17.9795 20.2128 15.859 21.0237 14.6264L20.4476 14.2473C19.7058 15.3748 17.9027 17.3172 15.2994 18.6256C15.3216 18.8744 15.3497 19.1174 15.3827 19.3536Z" fill="black"/>
<path d="M17.9403 18.0796C18.8569 18.8075 19.725 19.6961 20.4623 20.7735L21.0315 20.384C20.2825 19.2896 19.4076 18.3807 18.483 17.6304C18.3097 17.7805 18.1287 17.9306 17.9403 18.0796Z" fill="black"/>
<path d="M16.9699 17.3774C17.1672 17.2284 17.3563 17.0778 17.537 16.9268C15.0039 15.2015 12.2983 14.5408 10.8649 14.4341L10.8137 15.1218C12.1275 15.2197 14.6115 15.824 16.9699 17.3774Z" fill="black"/>
<path d="M15.1717 15.3673C15.3481 14.2303 15.6831 13.0577 16.2384 11.9035L15.6169 11.6045C15.0558 12.7709 14.7076 13.9531 14.5155 15.1022C14.7312 15.1838 14.9503 15.2721 15.1717 15.3673Z" fill="black"/>
<path d="M15.0408 16.5667C14.8146 16.4628 14.5906 16.3669 14.37 16.2785C14.1186 19.3676 14.9037 22.0771 15.5316 23.3839L16.1532 23.0852C15.5787 21.8896 14.8575 19.4098 15.0408 16.5667Z" fill="black"/>
<path fill-rule="evenodd" clip-rule="evenodd" d="M11.1264 9.54225C11.4106 9.41809 11.6092 9.13453 11.6092 8.8046C11.6092 8.36023 11.249 8 10.8046 8C10.3602 8 10 8.36023 10 8.8046C10 9.11643 10.1774 9.38684 10.4368 9.52039V13.8819C10.1774 14.0155 10 14.2859 10 14.5977C10 14.9095 10.1774 15.1799 10.4368 15.3135V19.675C10.1774 19.8086 10 20.079 10 20.3908C10 20.8352 10.3602 21.1954 10.8046 21.1954C10.9734 21.1954 11.13 21.1435 11.2593 21.0547L14.9656 23.1862C14.9655 23.1893 14.9655 23.1923 14.9655 23.1954C14.9655 23.6398 15.3257 24 15.7701 24C16.2087 24 16.5653 23.6491 16.5745 23.2127L20.3023 21.0688C20.4273 21.1489 20.5761 21.1954 20.7356 21.1954C21.18 21.1954 21.5402 20.8352 21.5402 20.3908C21.5402 20.0978 21.3836 19.8413 21.1494 19.7006V15.3339C21.3836 15.1932 21.5402 14.9367 21.5402 14.6437C21.5402 14.1993 21.18 13.8391 20.7356 13.8391C20.5883 13.8391 20.4503 13.8787 20.3315 13.9478L16.5738 11.7866C16.5744 11.7735 16.5747 11.7604 16.5747 11.7471C16.5747 11.3028 16.2145 10.9425 15.7701 10.9425C15.3257 10.9425 14.9655 11.3028 14.9655 11.7471C14.9655 11.769 14.9664 11.7907 14.9681 11.8121L11.2682 13.94C11.224 13.9088 11.1766 13.882 11.1264 13.8601V9.54225ZM11.6092 14.5977C11.6092 14.9276 11.4106 15.2112 11.1264 15.3353V19.6532C11.4106 19.7773 11.6092 20.0609 11.6092 20.3908C11.6092 20.4137 11.6082 20.4363 11.6064 20.4587L15.2695 22.5655C15.4069 22.4561 15.5809 22.3908 15.7701 22.3908C15.9681 22.3908 16.1495 22.4623 16.2896 22.581L19.9363 20.4837C19.9328 20.4532 19.931 20.4222 19.931 20.3908C19.931 20.0433 20.1513 19.7473 20.4598 19.6347V15.3997C20.1513 15.2872 19.931 14.9911 19.931 14.6437C19.931 14.6011 19.9343 14.5593 19.9407 14.5186L16.2478 12.3947C16.1142 12.4934 15.949 12.5517 15.7701 12.5517C15.6003 12.5517 15.4428 12.4991 15.313 12.4093L11.6072 14.5406C11.6085 14.5595 11.6092 14.5785 11.6092 14.5977Z" fill="black"/>
</svg>
