<svg width="36" height="36" viewBox="0 0 36 36" fill="none" xmlns="http://www.w3.org/2000/svg">
<path d="M25.7143 16.7144H23.2656C22.694 17.3365 22.0929 17.9359 21.434 18.4847L20.473 19.2858H25.7143C26.4237 19.2858 27 19.8621 27 20.5715V28.2858C27 28.9952 26.4237 29.5715 25.7143 29.5715H10.2857C9.57633 29.5715 9.00002 28.9952 9.00002 28.2858V20.5715C9.00002 19.8621 9.57633 19.2858 10.2857 19.2858H15.527L14.566 18.4847C13.9071 17.9359 13.306 17.3365 12.7344 16.7144H10.2857C8.15878 16.7144 6.42859 18.4445 6.42859 20.5715V28.2858C6.42859 30.4127 8.15878 32.1429 10.2857 32.1429H16.7143V33.4286H15.4286C14.7179 33.4286 14.1429 34.0037 14.1429 34.7144C14.1429 35.425 14.7179 36.0001 15.4286 36.0001H20.5714C21.2821 36.0001 21.8572 35.425 21.8572 34.7144C21.8572 34.0037 21.2821 33.4286 20.5714 33.4286H19.2857V32.1429H25.7143C27.8413 32.1429 29.5714 30.4127 29.5714 28.2858V20.5715C29.5714 18.4445 27.8413 16.7144 25.7143 16.7144Z" fill="#696969"/>
<path d="M15.3884 17.4978L17.1763 18.9881C17.4149 19.1865 17.7074 19.2857 18 19.2857C18.2926 19.2857 18.5851 19.1865 18.8237 18.9881L20.6104 17.4978C24.6709 14.114 27 9.14314 27 3.85714C27 3.51563 26.8644 3.18917 26.6233 2.9481L24.0519 0.376674C23.8108 0.135603 23.4844 0 23.1429 0H12.8571C12.5156 0 12.1892 0.135603 11.9481 0.376674L9.37667 2.9481C9.1356 3.18917 9 3.51563 9 3.85714C9 9.14314 11.3291 14.114 15.3884 17.4978ZM13.3895 2.57143H22.6105L24.4198 4.38072C24.2716 8.70494 22.3029 12.7404 18.9643 15.5215L18 16.3263L17.0345 15.5215C13.6971 12.7404 11.7284 8.70494 11.5802 4.38072L13.3895 2.57143Z" fill="#696969"/>
<path d="M18 14.143C18.7101 14.143 19.2857 13.5673 19.2857 12.8572C19.2857 12.1472 18.7101 11.5715 18 11.5715C17.2899 11.5715 16.7143 12.1472 16.7143 12.8572C16.7143 13.5673 17.2899 14.143 18 14.143Z" fill="#696969"/>
<path d="M18 10.2857C18.7107 10.2857 19.2857 9.71069 19.2857 9.00003V5.14289C19.2857 4.43223 18.7107 3.85718 18 3.85718C17.2894 3.85718 16.7143 4.43223 16.7143 5.14289V9.00003C16.7143 9.71069 17.2894 10.2857 18 10.2857Z" fill="#696969"/>
<path d="M8.62333 9.37657L6.0519 6.80514C5.54966 6.30291 4.73605 6.30291 4.23382 6.80514C3.73158 7.30737 3.73158 8.12099 4.23382 8.62322L4.61049 8.9999H1.28571C0.575056 8.9999 0 9.57495 0 10.2856C0 10.9963 0.575056 11.5713 1.28571 11.5713H4.61049L4.23382 11.948C3.73158 12.4502 3.73158 13.2638 4.23382 13.7661C4.48493 14.0172 4.8139 14.1428 5.14286 14.1428C5.47182 14.1428 5.80078 14.0172 6.0519 13.7661L8.62333 11.1946C9.12556 10.6924 9.12556 9.8788 8.62333 9.37657Z" fill="#696969"/>
<path d="M34.7143 8.9999H31.3895L31.7662 8.62322C32.2684 8.12099 32.2684 7.30737 31.7662 6.80514C31.264 6.30291 30.4503 6.30291 29.9481 6.80514L27.3767 9.37657C26.8744 9.8788 26.8744 10.6924 27.3767 11.1946L29.9481 13.7661C30.1992 14.0172 30.5282 14.1428 30.8571 14.1428C31.1861 14.1428 31.5151 14.0172 31.7662 13.7661C32.2684 13.2638 32.2684 12.4502 31.7662 11.948L31.3895 11.5713H34.7143C35.4249 11.5713 36 10.9963 36 10.2856C36 9.57495 35.4249 8.9999 34.7143 8.9999Z" fill="#696969"/>
</svg>
