<svg width="36" height="24" viewBox="0 0 36 24" fill="none" xmlns="http://www.w3.org/2000/svg">
<rect x="0.700012" y="0.5" width="34" height="23" rx="3.5" fill="#17A2B8" fill-opacity="0.2"/>
<rect x="0.700012" y="0.5" width="34" height="23" rx="3.5" stroke="#17A2B8"/>
<path d="M8.52297 7.528V16H7.15497V7.528H8.52297ZM13.8744 9.28C14.6424 9.28 15.2584 9.528 15.7224 10.024C16.1864 10.52 16.4184 11.228 16.4184 12.148V16H15.0504V12.292C15.0504 11.7 14.8984 11.244 14.5944 10.924C14.2904 10.596 13.8744 10.432 13.3464 10.432C12.8024 10.432 12.3664 10.608 12.0384 10.96C11.7104 11.304 11.5464 11.812 11.5464 12.484V16H10.1784V9.388H11.5464V10.84C11.7224 10.344 12.0184 9.96 12.4344 9.688C12.8504 9.416 13.3304 9.28 13.8744 9.28ZM21.1022 8.02C20.5662 7.996 20.1902 8.084 19.9742 8.284C19.7582 8.476 19.6502 8.808 19.6502 9.28V9.388H21.1022V10.564H19.6502V16H18.2702V10.564H17.3702V9.388H18.2702V9.172C18.2702 8.364 18.5062 7.76 18.9782 7.36C19.4502 6.952 20.1582 6.772 21.1022 6.82V8.02ZM25.2258 9.304C25.8658 9.304 26.4418 9.44 26.9538 9.712C27.4658 9.984 27.8658 10.376 28.1538 10.888C28.4418 11.4 28.5858 12 28.5858 12.688C28.5858 13.384 28.4418 13.988 28.1538 14.5C27.8658 15.012 27.4658 15.404 26.9538 15.676C26.4418 15.948 25.8658 16.084 25.2258 16.084C24.5858 16.084 24.0098 15.948 23.4978 15.676C22.9938 15.404 22.5938 15.012 22.2978 14.5C22.0098 13.98 21.8658 13.376 21.8658 12.688C21.8658 12 22.0098 11.4 22.2978 10.888C22.5938 10.376 22.9938 9.984 23.4978 9.712C24.0098 9.44 24.5858 9.304 25.2258 9.304ZM25.2258 10.492C24.8738 10.492 24.5498 10.572 24.2538 10.732C23.9578 10.892 23.7178 11.14 23.5338 11.476C23.3578 11.804 23.2698 12.208 23.2698 12.688C23.2698 13.176 23.3578 13.584 23.5338 13.912C23.7178 14.24 23.9578 14.484 24.2538 14.644C24.5498 14.804 24.8738 14.884 25.2258 14.884C25.5778 14.884 25.9018 14.804 26.1978 14.644C26.4938 14.484 26.7298 14.24 26.9058 13.912C27.0898 13.584 27.1818 13.176 27.1818 12.688C27.1818 12.208 27.0898 11.804 26.9058 11.476C26.7298 11.14 26.4938 10.892 26.1978 10.732C25.9018 10.572 25.5778 10.492 25.2258 10.492Z" fill="#17A2B8"/>
</svg>
