<svg width="36" height="36" viewBox="0 0 36 36" fill="none" xmlns="http://www.w3.org/2000/svg">
<path d="M25.7143 16.7142H23.2656C22.694 17.3364 22.0929 17.9358 21.434 18.4846L20.473 19.2857H25.7143C26.4237 19.2857 27 19.862 27 20.5714V28.2857C27 28.9951 26.4237 29.5714 25.7143 29.5714H10.2857C9.57631 29.5714 9 28.9951 9 28.2857V20.5714C9 19.862 9.57631 19.2857 10.2857 19.2857H15.527L14.566 18.4846C13.9071 17.9358 13.306 17.3364 12.7344 16.7142H10.2857C8.15876 16.7142 6.42857 18.4444 6.42857 20.5714V28.2857C6.42857 30.4126 8.15876 32.1428 10.2857 32.1428H16.7143V33.4285H15.4286C14.7179 33.4285 14.1429 34.0036 14.1429 34.7142C14.1429 35.4249 14.7179 35.9999 15.4286 35.9999H20.5714C21.2821 35.9999 21.8571 35.4249 21.8571 34.7142C21.8571 34.0036 21.2821 33.4285 20.5714 33.4285H19.2857V32.1428H25.7143C27.8412 32.1428 29.5714 30.4126 29.5714 28.2857V20.5714C29.5714 18.4444 27.8412 16.7142 25.7143 16.7142Z" fill="url(#paint0_linear_1660_5464)"/>
<path d="M15.3884 17.4978L17.1763 18.9881C17.4149 19.1865 17.7074 19.2857 18 19.2857C18.2926 19.2857 18.5851 19.1865 18.8237 18.9881L20.6104 17.4978C24.6709 14.114 27 9.14314 27 3.85714C27 3.51563 26.8644 3.18917 26.6233 2.9481L24.0519 0.376674C23.8108 0.135603 23.4844 0 23.1429 0H12.8571C12.5156 0 12.1892 0.135603 11.9481 0.376674L9.37667 2.9481C9.1356 3.18917 9 3.51563 9 3.85714C9 9.14314 11.3291 14.114 15.3884 17.4978ZM13.3895 2.57143H22.6105L24.4198 4.38072C24.2716 8.70494 22.3029 12.7404 18.9643 15.5215L18 16.3263L17.0345 15.5215C13.6971 12.7404 11.7284 8.70494 11.5802 4.38072L13.3895 2.57143Z" fill="url(#paint1_linear_1660_5464)"/>
<path d="M18 14.1428C18.7101 14.1428 19.2857 13.5672 19.2857 12.8571C19.2857 12.147 18.7101 11.5714 18 11.5714C17.2899 11.5714 16.7143 12.147 16.7143 12.8571C16.7143 13.5672 17.2899 14.1428 18 14.1428Z" fill="url(#paint2_linear_1660_5464)"/>
<path d="M18 10.2857C18.7107 10.2857 19.2857 9.71069 19.2857 9.00003V5.14289C19.2857 4.43223 18.7107 3.85718 18 3.85718C17.2893 3.85718 16.7143 4.43223 16.7143 5.14289V9.00003C16.7143 9.71069 17.2893 10.2857 18 10.2857Z" fill="url(#paint3_linear_1660_5464)"/>
<path d="M8.62333 9.37669L6.0519 6.80526C5.54966 6.30303 4.73605 6.30303 4.23382 6.80526C3.73158 7.3075 3.73158 8.12111 4.23382 8.62334L4.61049 9.00002H1.28571C0.575056 9.00002 0 9.57507 0 10.2857C0 10.9964 0.575056 11.5714 1.28571 11.5714H4.61049L4.23382 11.9481C3.73158 12.4504 3.73158 13.264 4.23382 13.7662C4.48493 14.0173 4.8139 14.1429 5.14286 14.1429C5.47182 14.1429 5.80078 14.0173 6.0519 13.7662L8.62333 11.1948C9.12556 10.6925 9.12556 9.87892 8.62333 9.37669Z" fill="url(#paint4_linear_1660_5464)"/>
<path d="M34.7143 9.00002H31.3895L31.7662 8.62334C32.2684 8.12111 32.2684 7.3075 31.7662 6.80526C31.264 6.30303 30.4503 6.30303 29.9481 6.80526L27.3767 9.37669C26.8744 9.87892 26.8744 10.6925 27.3767 11.1948L29.9481 13.7662C30.1992 14.0173 30.5282 14.1429 30.8571 14.1429C31.1861 14.1429 31.5151 14.0173 31.7662 13.7662C32.2684 13.264 32.2684 12.4504 31.7662 11.9481L31.3895 11.5714H34.7143C35.4249 11.5714 36 10.9964 36 10.2857C36 9.57507 35.4249 9.00002 34.7143 9.00002Z" fill="url(#paint5_linear_1660_5464)"/>
<defs>
<linearGradient id="paint0_linear_1660_5464" x1="6.42857" y1="14.3426" x2="22.2539" y2="38.1745" gradientUnits="userSpaceOnUse">
<stop offset="0.298406" stop-color="#2EC589"/>
<stop offset="1" stop-color="#158C36"/>
</linearGradient>
<linearGradient id="paint1_linear_1660_5464" x1="9" y1="-2.37159" x2="25.9579" y2="17.4908" gradientUnits="userSpaceOnUse">
<stop offset="0.298406" stop-color="#2EC589"/>
<stop offset="1" stop-color="#158C36"/>
</linearGradient>
<linearGradient id="paint2_linear_1660_5464" x1="16.7143" y1="11.2552" x2="18.9459" y2="14.0557" gradientUnits="userSpaceOnUse">
<stop offset="0.298406" stop-color="#2EC589"/>
<stop offset="1" stop-color="#158C36"/>
</linearGradient>
<linearGradient id="paint3_linear_1660_5464" x1="16.7143" y1="3.06665" x2="21.3038" y2="5.37049" gradientUnits="userSpaceOnUse">
<stop offset="0.298406" stop-color="#2EC589"/>
<stop offset="1" stop-color="#158C36"/>
</linearGradient>
<linearGradient id="paint4_linear_1660_5464" x1="7.49867e-08" y1="5.47995" x2="6.39754" y2="14.8466" gradientUnits="userSpaceOnUse">
<stop offset="0.298406" stop-color="#2EC589"/>
<stop offset="1" stop-color="#158C36"/>
</linearGradient>
<linearGradient id="paint5_linear_1660_5464" x1="27" y1="5.47995" x2="33.3975" y2="14.8466" gradientUnits="userSpaceOnUse">
<stop offset="0.298406" stop-color="#2EC589"/>
<stop offset="1" stop-color="#158C36"/>
</linearGradient>
</defs>
</svg>
