<svg width="32" height="32" viewBox="0 0 32 32" fill="none" xmlns="http://www.w3.org/2000/svg">
<g id="Kusama Icon">
<circle id="Base" cx="16" cy="16" r="16" fill="black"/>
<path id="Vector" d="M24.3009 10.2186C23.9165 9.87679 23.4894 9.62045 22.9768 9.53501C22.3362 9.44957 21.6955 9.87679 21.2684 10.1758C20.8412 10.4749 19.987 11.2439 19.6453 11.543C19.3036 11.842 18.4494 12.0129 17.0399 12.8673C15.6304 13.7218 10.1632 17.225 10.1632 17.225H11.5727L5.20866 20.5146H5.84934L4.95239 21.1982C5.46494 21.3264 5.97748 21.2409 6.44731 20.9846V21.1982C6.44731 21.1982 14.0073 18.2076 15.4595 18.9766L14.5626 19.233C14.648 19.233 16.0575 19.3184 16.0575 19.3184C16.1429 19.9165 16.4846 20.4719 16.9972 20.771C17.8514 21.3264 17.8941 21.6681 17.8941 21.6681C17.8941 21.6681 17.467 21.839 17.467 22.0954C18.2785 21.839 19.1328 21.839 19.9016 22.0954C19.9016 22.0954 19.8589 21.839 19.2609 21.6681C18.6629 21.4118 18.1504 21.0273 17.766 20.4719C17.4243 20.002 17.2961 19.4039 17.5097 18.8485C17.7233 18.2931 18.4494 17.994 19.9443 17.225C21.6955 16.3278 22.1226 15.6443 22.3362 15.0889C22.5497 14.5335 22.9768 13.5082 23.1477 12.9955C23.3185 12.5256 23.6175 12.1411 24.0019 11.7993C24.4717 11.543 24.9843 11.3293 25.4541 11.1585C25.5395 11.2012 24.5999 10.4322 24.3009 10.2186Z" fill="white"/>
</g>
</svg>
