<svg width="36" height="36" viewBox="0 0 36 36" fill="none" xmlns="http://www.w3.org/2000/svg">
<g clip-path="url(#clip0_1702_69934)">
<path d="M0.0078125 35.9949H10.8036V31.1968H0.0078125V35.9949ZM1.20734 32.3963H9.60405V34.7954H1.20734V32.3963Z" fill="#AAABB8"/>
<path d="M12.6028 35.9949H23.3986V31.1968H12.6028V35.9949ZM13.8023 32.3963H22.199V34.7954H13.8023V32.3963Z" fill="#AAABB8"/>
<path d="M25.198 35.9949H35.9938V31.1968H25.198V35.9949ZM26.3975 32.3963H34.7942V34.7954H26.3975V32.3963Z" fill="#AAABB8"/>
<path d="M3.00666 32.9961H1.80713V34.1956H3.00666V32.9961Z" fill="#AAABB8"/>
<path d="M28.1968 32.9961H26.9973V34.1956H28.1968V32.9961Z" fill="#AAABB8"/>
<path d="M15.6016 32.9961H14.4021V34.1956H15.6016V32.9961Z" fill="#AAABB8"/>
<path d="M31.1956 22.2004H18.6005V19.2016H30.5958C33.5769 19.2051 35.9965 16.7912 36 13.81C36.0027 11.4865 34.5182 9.42192 32.3147 8.68474C31.8089 5.74949 29.0193 3.78001 26.0841 4.28591C25.6229 4.36538 25.1739 4.5046 24.7487 4.69997C23.3655 0.97348 19.2233 -0.926051 15.4968 0.457158C13.5323 1.18632 11.9831 2.73552 11.254 4.69997C8.54769 3.45598 5.34532 4.64149 4.10133 7.34778C3.90566 7.77354 3.76621 8.22299 3.68674 8.68481C0.8596 9.63064 -0.665527 12.6893 0.280377 15.5164C1.01756 17.72 3.08218 19.2045 5.40567 19.2017H17.401V22.2005H4.20614V25.7991H0.00778381V30.5972H10.8036V25.7991H5.40567V23.4H17.401V25.7991H12.6029V30.5972H23.3986V25.7991H18.6005V23.4H29.996V25.7991H25.1979V30.5972H35.9937V25.7991H31.1956V22.2004ZM9.60403 26.9986V29.3976H1.20731V26.9986H9.60403ZM22.1991 26.9986V29.3976H13.8024V26.9986H22.1991ZM5.40567 18.0021C3.0881 17.9995 1.20994 16.1213 1.20731 13.8037C1.20619 11.8801 2.51255 10.2018 4.37767 9.73073C4.62365 9.66843 4.80381 9.45798 4.8275 9.20533C5.02272 7.047 6.83708 5.39697 9.00426 5.40702C9.81192 5.40507 10.6024 5.6398 11.278 6.08236C11.5548 6.26423 11.9267 6.18731 12.1086 5.91045C12.1455 5.85429 12.1727 5.79237 12.189 5.72729C13.0074 2.51758 16.2728 0.578985 19.4825 1.39736C21.6094 1.93963 23.2702 3.60045 23.8125 5.72729C23.8932 6.04854 24.2191 6.24354 24.5404 6.1628C24.6055 6.14645 24.6674 6.11924 24.7235 6.08236C25.3991 5.6398 26.1896 5.40507 26.9972 5.40702C29.1644 5.39697 30.9788 7.047 31.174 9.20533C31.1977 9.45798 31.3778 9.66843 31.6238 9.73073C33.8733 10.2931 35.241 12.5725 34.6786 14.8219C34.2105 16.6944 32.526 18.0066 30.5958 18.0021H5.40567ZM34.7942 26.9986V29.3976H26.3974V26.9986H34.7942Z" fill="#AAABB8"/>
<path d="M3.00666 27.5981H1.80713V28.7977H3.00666V27.5981Z" fill="#AAABB8"/>
<path d="M15.6016 27.5981H14.4021V28.7977H15.6016V27.5981Z" fill="#AAABB8"/>
<path d="M28.1968 27.5981H26.9973V28.7977H28.1968V27.5981Z" fill="#AAABB8"/>
<path d="M18.6004 16.2026H17.4009V17.4022H18.6004V16.2026Z" fill="#AAABB8"/>
<path d="M20.9996 16.2026H19.8V17.4022H20.9996V16.2026Z" fill="#AAABB8"/>
<path d="M23.3985 16.2026H22.199V17.4022H23.3985V16.2026Z" fill="#AAABB8"/>
<path d="M25.7977 16.2026H24.5981V17.4022H25.7977V16.2026Z" fill="#AAABB8"/>
<path d="M28.1968 16.2026H26.9973V17.4022H28.1968V16.2026Z" fill="#AAABB8"/>
<path d="M30.5958 16.2026H29.3962V17.4022H30.5958V16.2026Z" fill="#AAABB8"/>
<path d="M16.2015 16.2026H15.002V17.4022H16.2015V16.2026Z" fill="#AAABB8"/>
<path d="M13.8023 16.2026H12.6028V17.4022H13.8023V16.2026Z" fill="#AAABB8"/>
<path d="M11.4034 16.2026H10.2039V17.4022H11.4034V16.2026Z" fill="#AAABB8"/>
<path d="M9.00422 16.2026H7.80469V17.4022H9.00422V16.2026Z" fill="#AAABB8"/>
<path d="M6.60529 16.2026H5.40576V17.4022H6.60529V16.2026Z" fill="#AAABB8"/>
</g>
<defs>
<clipPath id="clip0_1702_69934">
<rect width="36" height="36" fill="white"/>
</clipPath>
</defs>
</svg>
