<svg width="26" height="36" viewBox="0 0 26 36" fill="none" xmlns="http://www.w3.org/2000/svg">
<path fill-rule="evenodd" clip-rule="evenodd" d="M21.7969 14.4844H23.9062C24.6829 14.4844 25.3125 15.114 25.3125 15.8906V34.5938C25.3125 35.3704 24.6829 36 23.9062 36H1.40625C0.629578 36 0 35.3704 0 34.5938V15.8906C0 15.114 0.629578 14.4844 1.40625 14.4844H3.51562V9.14062C3.51562 4.10041 7.61604 0 12.6562 0C17.6965 0 21.7969 4.10041 21.7969 9.14062V14.4844ZM12.6562 2.8125C9.16692 2.8125 6.32812 5.6513 6.32812 9.14062V14.4844H18.9844V9.14062C18.9844 5.6513 16.1456 2.8125 12.6562 2.8125ZM2.8125 17.2969V33.1875H22.5V17.2969H2.8125ZM11.4829 26.3494L16.2724 21.5778C16.7318 21.12 17.477 21.1198 17.9365 21.5778C18.3961 22.0357 18.3961 22.7779 17.9367 23.2359L12.3151 28.8365C11.8557 29.2942 11.1103 29.294 10.6508 28.8365L7.44633 25.6439C6.98664 25.1859 6.98664 24.4436 7.44633 23.9858C7.90579 23.5278 8.65095 23.5278 9.11064 23.9858L11.4829 26.3494Z" fill="#2EC589"/>
</svg>
