<svg width="51" height="24" viewBox="0 0 51 24" fill="none" xmlns="http://www.w3.org/2000/svg">
<rect x="0.5" y="0.5" width="50" height="23" rx="3.5" fill="#CEB940" fill-opacity="0.2"/>
<rect x="0.5" y="0.5" width="50" height="23" rx="3.5" stroke="#CEB940"/>
<g clip-path="url(#clip0_916_1511)">
<path d="M16.5 15H13.5C13.2235 15 13 14.7765 13 14.5C13 14.2235 13.2235 14 13.5 14H16.293L13.012 10.719C12.73 10.437 12.271 10.437 11.9885 10.719L10.719 11.9885C10.047 12.6605 8.9535 12.6605 8.2815 11.9885L6.1465 9.8535C5.951 9.658 5.951 9.342 6.1465 9.1465C6.244 9.049 6.372 9 6.5 9C6.628 9 6.756 9.049 6.8535 9.1465L8.9885 11.2815C9.262 11.555 9.7385 11.555 10.012 11.2815L11.2815 10.012C11.9535 9.34 13.047 9.34 13.719 10.012L17.0005 13.293V10.5C17.0005 10.2235 17.224 10 17.5005 10C17.777 10 18.0005 10.2235 18.0005 10.5V13.5C18.0005 14.327 17.327 15 16.5 15Z" fill="#CEB940"/>
</g>
<path d="M24.3246 14.896H27.1446V16H22.9566V7.66H24.3246V14.896ZM31.1567 16.108C30.5327 16.108 29.9687 15.968 29.4647 15.688C28.9607 15.4 28.5647 15 28.2767 14.488C27.9887 13.968 27.8447 13.368 27.8447 12.688C27.8447 12.016 27.9927 11.42 28.2887 10.9C28.5847 10.38 28.9887 9.98 29.5007 9.7C30.0127 9.42 30.5847 9.28 31.2167 9.28C31.8487 9.28 32.4207 9.42 32.9327 9.7C33.4447 9.98 33.8487 10.38 34.1447 10.9C34.4407 11.42 34.5887 12.016 34.5887 12.688C34.5887 13.36 34.4367 13.956 34.1327 14.476C33.8287 14.996 33.4127 15.4 32.8847 15.688C32.3647 15.968 31.7887 16.108 31.1567 16.108ZM31.1567 14.92C31.5087 14.92 31.8367 14.836 32.1407 14.668C32.4527 14.5 32.7047 14.248 32.8967 13.912C33.0887 13.576 33.1847 13.168 33.1847 12.688C33.1847 12.208 33.0927 11.804 32.9087 11.476C32.7247 11.14 32.4807 10.888 32.1767 10.72C31.8727 10.552 31.5447 10.468 31.1927 10.468C30.8407 10.468 30.5127 10.552 30.2087 10.72C29.9127 10.888 29.6767 11.14 29.5007 11.476C29.3247 11.804 29.2367 12.208 29.2367 12.688C29.2367 13.4 29.4167 13.952 29.7767 14.344C30.1447 14.728 30.6047 14.92 31.1567 14.92ZM44.821 9.388L42.769 16H41.329L39.997 11.116L38.665 16H37.225L35.161 9.388H36.553L37.933 14.704L39.337 9.388H40.765L42.109 14.68L43.477 9.388H44.821Z" fill="#CEB940"/>
<defs>
<clipPath id="clip0_916_1511">
<rect width="12" height="12" fill="white" transform="matrix(1 0 0 -1 6 18)"/>
</clipPath>
</defs>
</svg>
