<svg width="111" height="24" viewBox="0 0 111 24" fill="none" xmlns="http://www.w3.org/2000/svg">
<rect x="0.5" y="0.5" width="110" height="23" rx="3.5" fill="#4F4A3F"/>
<rect x="0.5" y="0.5" width="110" height="23" rx="3.5" stroke="#CEB940"/>
<g clip-path="url(#clip0_274_2095)">
<path d="M14.5 11C12.57 11 11 12.5705 11 14.5C11 16.4295 12.57 18 14.5 18C16.43 18 18 16.4295 18 14.5C18 12.5705 16.43 11 14.5 11ZM14.5 17C13.1215 17 12 15.8785 12 14.5C12 13.1215 13.1215 12 14.5 12C15.8785 12 17 13.1215 17 14.5C17 15.8785 15.8785 17 14.5 17ZM14 14V13C14 12.7235 14.224 12.5 14.5 12.5C14.776 12.5 15 12.7235 15 13V14C15 14.2765 14.776 14.5 14.5 14.5C14.224 14.5 14 14.2765 14 14ZM15.25 15.75C15.25 16.164 14.914 16.5 14.5 16.5C14.086 16.5 13.75 16.164 13.75 15.75C13.75 15.336 14.086 15 14.5 15C14.914 15 15.25 15.336 15.25 15.75ZM11.1975 17.7235C11.11 17.899 10.9335 18 10.7495 18C10.6745 18 10.598 17.983 10.5265 17.9475C9.7705 17.5695 6 15.5115 6 12.097V9.4365C6 8.3565 6.6885 7.403 7.713 7.063L10.8425 6.0255C10.945 5.9915 11.055 5.9915 11.1575 6.0255L14.287 7.063C15.3115 7.403 16 8.3565 16 9.436V9.5C16 9.7765 15.776 10 15.5 10C15.224 10 15 9.7765 15 9.5V9.436C15 8.7885 14.587 8.2165 13.972 8.012L11 7.0265L8.028 8.012C7.413 8.216 7 8.7885 7 9.436V12.0965C7 14.9225 10.31 16.721 10.9735 17.0525C11.2205 17.176 11.3205 17.4765 11.197 17.7235H11.1975Z" fill="#CEB940"/>
</g>
<path d="M32.0219 7.66V16H30.6539V10.288L28.1099 16H27.1619L24.6059 10.288V16H23.2379V7.66H24.7139L27.6419 14.2L30.5579 7.66H32.0219ZM36.6879 16.108C36.0639 16.108 35.4999 15.968 34.9959 15.688C34.4919 15.4 34.0959 15 33.8079 14.488C33.5199 13.968 33.3759 13.368 33.3759 12.688C33.3759 12.016 33.5239 11.42 33.8199 10.9C34.1159 10.38 34.5199 9.98 35.0319 9.7C35.5439 9.42 36.1159 9.28 36.7479 9.28C37.3799 9.28 37.9519 9.42 38.4639 9.7C38.9759 9.98 39.3799 10.38 39.6759 10.9C39.9719 11.42 40.1199 12.016 40.1199 12.688C40.1199 13.36 39.9679 13.956 39.6639 14.476C39.3599 14.996 38.9439 15.4 38.4159 15.688C37.8959 15.968 37.3199 16.108 36.6879 16.108ZM36.6879 14.92C37.0399 14.92 37.3679 14.836 37.6719 14.668C37.9839 14.5 38.2359 14.248 38.4279 13.912C38.6199 13.576 38.7159 13.168 38.7159 12.688C38.7159 12.208 38.6239 11.804 38.4399 11.476C38.2559 11.14 38.0119 10.888 37.7079 10.72C37.4039 10.552 37.0759 10.468 36.7239 10.468C36.3719 10.468 36.0439 10.552 35.7399 10.72C35.4439 10.888 35.2079 11.14 35.0319 11.476C34.8559 11.804 34.7679 12.208 34.7679 12.688C34.7679 13.4 34.9479 13.952 35.3079 14.344C35.6759 14.728 36.1359 14.92 36.6879 14.92ZM41.0163 12.664C41.0163 12 41.1523 11.412 41.4243 10.9C41.7043 10.388 42.0803 9.992 42.5523 9.712C43.0323 9.424 43.5643 9.28 44.1483 9.28C44.5803 9.28 45.0043 9.376 45.4203 9.568C45.8443 9.752 46.1803 10 46.4283 10.312V7.12H47.8083V16H46.4283V15.004C46.2043 15.324 45.8923 15.588 45.4923 15.796C45.1003 16.004 44.6483 16.108 44.1363 16.108C43.5603 16.108 43.0323 15.964 42.5523 15.676C42.0803 15.38 41.7043 14.972 41.4243 14.452C41.1523 13.924 41.0163 13.328 41.0163 12.664ZM46.4283 12.688C46.4283 12.232 46.3323 11.836 46.1403 11.5C45.9563 11.164 45.7123 10.908 45.4083 10.732C45.1043 10.556 44.7763 10.468 44.4243 10.468C44.0723 10.468 43.7443 10.556 43.4403 10.732C43.1363 10.9 42.8883 11.152 42.6963 11.488C42.5123 11.816 42.4203 12.208 42.4203 12.664C42.4203 13.12 42.5123 13.52 42.6963 13.864C42.8883 14.208 43.1363 14.472 43.4403 14.656C43.7523 14.832 44.0803 14.92 44.4243 14.92C44.7763 14.92 45.1043 14.832 45.4083 14.656C45.7123 14.48 45.9563 14.224 46.1403 13.888C46.3323 13.544 46.4283 13.144 46.4283 12.688ZM55.6651 12.532C55.6651 12.78 55.6491 13.004 55.6171 13.204H50.5651C50.6051 13.732 50.8011 14.156 51.1531 14.476C51.5051 14.796 51.9371 14.956 52.4491 14.956C53.1851 14.956 53.7051 14.648 54.0091 14.032H55.4851C55.2851 14.64 54.9211 15.14 54.3931 15.532C53.8731 15.916 53.2251 16.108 52.4491 16.108C51.8171 16.108 51.2491 15.968 50.7451 15.688C50.2491 15.4 49.8571 15 49.5691 14.488C49.2891 13.968 49.1491 13.368 49.1491 12.688C49.1491 12.008 49.2851 11.412 49.5571 10.9C49.8371 10.38 50.2251 9.98 50.7211 9.7C51.2251 9.42 51.8011 9.28 52.4491 9.28C53.0731 9.28 53.6291 9.416 54.1171 9.688C54.6051 9.96 54.9851 10.344 55.2571 10.84C55.5291 11.328 55.6651 11.892 55.6651 12.532ZM54.2371 12.1C54.2291 11.596 54.0491 11.192 53.6971 10.888C53.3451 10.584 52.9091 10.432 52.3891 10.432C51.9171 10.432 51.5131 10.584 51.1771 10.888C50.8411 11.184 50.6411 11.588 50.5771 12.1H54.2371ZM58.3793 10.348C58.5793 10.012 58.8433 9.752 59.1713 9.568C59.5073 9.376 59.9033 9.28 60.3593 9.28V10.696H60.0113C59.4753 10.696 59.0673 10.832 58.7873 11.104C58.5153 11.376 58.3793 11.848 58.3793 12.52V16H57.0113V9.388H58.3793V10.348ZM61.1608 12.664C61.1608 12 61.2968 11.412 61.5688 10.9C61.8488 10.388 62.2248 9.992 62.6968 9.712C63.1768 9.424 63.7048 9.28 64.2808 9.28C64.8008 9.28 65.2528 9.384 65.6368 9.592C66.0288 9.792 66.3408 10.044 66.5728 10.348V9.388H67.9528V16H66.5728V15.016C66.3408 15.328 66.0248 15.588 65.6248 15.796C65.2248 16.004 64.7688 16.108 64.2568 16.108C63.6888 16.108 63.1688 15.964 62.6968 15.676C62.2248 15.38 61.8488 14.972 61.5688 14.452C61.2968 13.924 61.1608 13.328 61.1608 12.664ZM66.5728 12.688C66.5728 12.232 66.4768 11.836 66.2848 11.5C66.1008 11.164 65.8568 10.908 65.5528 10.732C65.2488 10.556 64.9208 10.468 64.5688 10.468C64.2168 10.468 63.8888 10.556 63.5848 10.732C63.2808 10.9 63.0328 11.152 62.8408 11.488C62.6568 11.816 62.5648 12.208 62.5648 12.664C62.5648 13.12 62.6568 13.52 62.8408 13.864C63.0328 14.208 63.2808 14.472 63.5848 14.656C63.8968 14.832 64.2248 14.92 64.5688 14.92C64.9208 14.92 65.2488 14.832 65.5528 14.656C65.8568 14.48 66.1008 14.224 66.2848 13.888C66.4768 13.544 66.5728 13.144 66.5728 12.688ZM71.3456 10.504V14.164C71.3456 14.412 71.4016 14.592 71.5136 14.704C71.6336 14.808 71.8336 14.86 72.1136 14.86H72.9536V16H71.8736C71.2576 16 70.7856 15.856 70.4576 15.568C70.1296 15.28 69.9656 14.812 69.9656 14.164V10.504H69.1856V9.388H69.9656V7.744H71.3456V9.388H72.9536V10.504H71.3456ZM80.2745 12.532C80.2745 12.78 80.2585 13.004 80.2265 13.204H75.1745C75.2145 13.732 75.4105 14.156 75.7625 14.476C76.1145 14.796 76.5465 14.956 77.0585 14.956C77.7945 14.956 78.3145 14.648 78.6185 14.032H80.0945C79.8945 14.64 79.5305 15.14 79.0025 15.532C78.4825 15.916 77.8345 16.108 77.0585 16.108C76.4265 16.108 75.8585 15.968 75.3545 15.688C74.8585 15.4 74.4665 15 74.1785 14.488C73.8985 13.968 73.7585 13.368 73.7585 12.688C73.7585 12.008 73.8945 11.412 74.1665 10.9C74.4465 10.38 74.8345 9.98 75.3305 9.7C75.8345 9.42 76.4105 9.28 77.0585 9.28C77.6825 9.28 78.2385 9.416 78.7265 9.688C79.2145 9.96 79.5945 10.344 79.8665 10.84C80.1385 11.328 80.2745 11.892 80.2745 12.532ZM78.8465 12.1C78.8385 11.596 78.6585 11.192 78.3065 10.888C77.9545 10.584 77.5185 10.432 76.9985 10.432C76.5265 10.432 76.1225 10.584 75.7865 10.888C75.4505 11.184 75.2505 11.588 75.1865 12.1H78.8465ZM86.1059 10.348C86.3059 10.012 86.5699 9.752 86.8979 9.568C87.2339 9.376 87.6299 9.28 88.0859 9.28V10.696H87.7379C87.2019 10.696 86.7939 10.832 86.5139 11.104C86.2419 11.376 86.1059 11.848 86.1059 12.52V16H84.7379V9.388H86.1059V10.348ZM90.0394 8.512C89.7914 8.512 89.5834 8.428 89.4154 8.26C89.2474 8.092 89.1634 7.884 89.1634 7.636C89.1634 7.388 89.2474 7.18 89.4154 7.012C89.5834 6.844 89.7914 6.76 90.0394 6.76C90.2794 6.76 90.4834 6.844 90.6514 7.012C90.8194 7.18 90.9034 7.388 90.9034 7.636C90.9034 7.884 90.8194 8.092 90.6514 8.26C90.4834 8.428 90.2794 8.512 90.0394 8.512ZM90.7114 9.388V16H89.3434V9.388H90.7114ZM94.9074 16.108C94.3874 16.108 93.9194 16.016 93.5034 15.832C93.0954 15.64 92.7714 15.384 92.5314 15.064C92.2914 14.736 92.1634 14.372 92.1474 13.972H93.5634C93.5874 14.252 93.7194 14.488 93.9594 14.68C94.2074 14.864 94.5154 14.956 94.8834 14.956C95.2674 14.956 95.5634 14.884 95.7714 14.74C95.9874 14.588 96.0954 14.396 96.0954 14.164C96.0954 13.916 95.9754 13.732 95.7354 13.612C95.5034 13.492 95.1314 13.36 94.6194 13.216C94.1234 13.08 93.7194 12.948 93.4074 12.82C93.0954 12.692 92.8234 12.496 92.5914 12.232C92.3674 11.968 92.2554 11.62 92.2554 11.188C92.2554 10.836 92.3594 10.516 92.5674 10.228C92.7754 9.932 93.0714 9.7 93.4554 9.532C93.8474 9.364 94.2954 9.28 94.7994 9.28C95.5514 9.28 96.1554 9.472 96.6114 9.856C97.0754 10.232 97.3234 10.748 97.3554 11.404H95.9874C95.9634 11.108 95.8434 10.872 95.6274 10.696C95.4114 10.52 95.1194 10.432 94.7514 10.432C94.3914 10.432 94.1154 10.5 93.9234 10.636C93.7314 10.772 93.6354 10.952 93.6354 11.176C93.6354 11.352 93.6994 11.5 93.8274 11.62C93.9554 11.74 94.1114 11.836 94.2954 11.908C94.4794 11.972 94.7514 12.056 95.1114 12.16C95.5914 12.288 95.9834 12.42 96.2874 12.556C96.5994 12.684 96.8674 12.876 97.0914 13.132C97.3154 13.388 97.4314 13.728 97.4394 14.152C97.4394 14.528 97.3354 14.864 97.1274 15.16C96.9194 15.456 96.6234 15.688 96.2394 15.856C95.8634 16.024 95.4194 16.108 94.9074 16.108ZM101.534 12.7L104.582 16H102.734L100.286 13.156V16H98.9176V7.12H100.286V12.28L102.686 9.388H104.582L101.534 12.7Z" fill="#CEB940"/>
<defs>
<clipPath id="clip0_274_2095">
<rect width="12" height="12" fill="white" transform="translate(6 6)"/>
</clipPath>
</defs>
</svg>
