<svg width="14" height="14" viewBox="0 0 14 14" fill="none" xmlns="http://www.w3.org/2000/svg">
<path d="M12.3441 1.21515H1.65594C0.890312 1.21515 0.264687 1.83859 0.264687 2.6064V9.28046C0.264687 10.0483 0.890312 10.6717 1.65594 10.6717H5.26531L4.85187 11.6911H4.19562C3.89375 11.6911 3.64875 11.9361 3.64875 12.238C3.64875 12.542 3.89375 12.7848 4.19562 12.7848H4.40781H5.58687H8.41312H9.59219H9.80437C10.1062 12.7848 10.3512 12.542 10.3512 12.238C10.3512 11.9361 10.1062 11.6911 9.80437 11.6911H9.14812L8.73469 10.6717H12.3441C13.1097 10.6717 13.7353 10.0483 13.7353 9.28046V2.6064C13.7353 1.83859 13.1097 1.21515 12.3441 1.21515ZM7.96906 11.6911H6.03094L6.44656 10.6717H7.55344L7.96906 11.6911ZM12.6416 9.28046C12.6416 9.44452 12.5081 9.57796 12.3441 9.57796H8.29062H7.10937H6.89062H5.70937H1.65594C1.49187 9.57796 1.35844 9.44452 1.35844 9.28046V2.6064C1.35844 2.44234 1.49187 2.3089 1.65594 2.3089H12.3441C12.5081 2.3089 12.6416 2.44234 12.6416 2.6064V9.28046Z" fill="#AAABB8"/>
</svg>
