<svg width="236" height="233" viewBox="0 0 236 233" fill="none" xmlns="http://www.w3.org/2000/svg">
<g style="mix-blend-mode:luminosity" opacity="0.4" clip-path="url(#clip0_961_19)">
<path d="M139.79 169.556L94.7046 154.112L94.6933 154.1L85.5107 107.28L130.607 122.736L139.79 169.556Z" fill="url(#paint0_linear_961_19)"/>
<path d="M139.79 169.556L103.876 200.92L58.7567 185.476L94.6932 154.1L94.7045 154.112L139.79 169.556Z" fill="url(#paint1_linear_961_19)"/>
<path d="M94.6933 154.1L58.7568 185.476L49.5969 138.656L85.5107 107.28L94.6933 154.1Z" fill="url(#paint2_linear_961_19)"/>
<path d="M71.4876 94.2871H47.6584L47.647 94.2758L35.7438 73.6232H59.573L71.4876 94.2871Z" stroke="url(#paint3_linear_961_19)" stroke-linejoin="round"/>
<path d="M71.4875 94.2871L59.5616 114.951L35.7211 114.94L47.647 94.2758L47.6583 94.2871H71.4875Z" stroke="url(#paint4_linear_961_19)" stroke-linejoin="round"/>
<path d="M47.6471 94.2758L35.7211 114.94L23.8179 94.2758L35.7438 73.6232L47.6471 94.2758Z" stroke="url(#paint5_linear_961_19)" stroke-linejoin="round"/>
<path d="M70.9094 15.6483L65.7967 38.9336L65.7853 38.9449L43.0671 46.1506L48.1912 22.854L70.9094 15.6483Z" fill="url(#paint6_linear_961_19)"/>
<path d="M70.9093 15.6483L88.5035 31.7278L83.3908 55.0471L65.7853 38.9449L65.7966 38.9336L70.9093 15.6483Z" fill="url(#paint7_linear_961_19)"/>
<path d="M65.7853 38.9449L83.3908 55.0472L60.6613 62.2415L43.0671 46.1507L65.7853 38.9449Z" fill="url(#paint8_linear_961_19)"/>
<path d="M36.5713 162.929L23.8178 183.071H23.8065L0 182.083L12.7648 161.941L36.5713 162.929Z" fill="url(#paint9_linear_961_19)"/>
<path d="M36.5713 162.929L47.6244 184.058L34.8595 204.223L23.8065 183.071H23.8179L36.5713 162.929Z" fill="url(#paint10_linear_961_19)"/>
<path d="M23.8065 183.071L34.8595 204.223L11.053 203.224L0 182.083L23.8065 183.071Z" fill="url(#paint11_linear_961_19)"/>
<path d="M164.616 1.1007L151.863 21.2427H151.852L128.045 20.2554L140.799 0.113464L164.616 1.1007Z" fill="url(#paint12_linear_961_19)"/>
<path d="M164.616 1.10071L175.669 22.2299L162.905 42.3946L151.852 21.2427H151.863L164.616 1.10071Z" fill="url(#paint13_linear_961_19)"/>
<path d="M151.852 21.2427L162.905 42.3946L139.098 41.396L128.045 20.2554L151.852 21.2427Z" fill="url(#paint14_linear_961_19)"/>
<path d="M36.5713 162.929L23.8178 183.071H23.8065L0 182.083L12.7648 161.941L36.5713 162.929Z" fill="url(#paint15_linear_961_19)"/>
<path d="M36.5713 162.929L47.6244 184.058L34.8595 204.223L23.8065 183.071H23.8179L36.5713 162.929Z" fill="url(#paint16_linear_961_19)"/>
<path d="M23.8065 183.071L34.8595 204.223L11.053 203.224L0 182.083L23.8065 183.071Z" fill="url(#paint17_linear_961_19)"/>
<path d="M187.38 195.065L168.244 209.295H168.233L146.365 199.82L165.501 185.601L187.38 195.065Z" stroke="url(#paint18_linear_961_19)" stroke-linejoin="round"/>
<path d="M187.38 195.065L190.112 218.759L170.976 233L168.233 209.295H168.244L187.38 195.065Z" stroke="url(#paint19_linear_961_19)" stroke-linejoin="round"/>
<path d="M168.233 209.295L170.976 233L149.108 223.513L146.365 199.82L168.233 209.295Z" stroke="url(#paint20_linear_961_19)" stroke-linejoin="round"/>
<path d="M278.457 161.93L242.532 193.306L233.372 146.486L269.286 115.121L278.457 161.93Z" fill="url(#paint21_linear_961_19)"/>
<path d="M209.996 93.8446L192.515 122.293H192.504L159.152 121.362L176.633 92.9141L209.996 93.8446Z" fill="url(#paint22_linear_961_19)"/>
<path d="M209.996 93.8445L225.867 123.223L208.375 151.683L192.504 122.293H192.515L209.996 93.8445Z" fill="url(#paint23_linear_961_19)"/>
<path d="M192.504 122.293L208.375 151.683L175.023 150.741L159.152 121.362L192.504 122.293Z" fill="url(#paint24_linear_961_19)"/>
<path d="M100.01 51.5521L124.009 74.7465V74.7579L115.938 107.167L91.9385 83.9721L100.01 51.5521Z" stroke="url(#paint25_linear_961_19)" stroke-linejoin="round"/>
<path d="M100.01 51.5521L132.081 42.3492L156.091 65.555L124.009 74.7579V74.7465L100.01 51.5521Z" stroke="url(#paint26_linear_961_19)" stroke-linejoin="round"/>
<path d="M124.009 74.7579L156.091 65.555L148.009 97.9637L115.938 107.167L124.009 74.7579Z" stroke="url(#paint27_linear_961_19)" stroke-linejoin="round"/>
<path d="M253.596 11.6767L227.862 32.9307H227.851L196.596 21.254L222.33 0L253.596 11.6767Z" fill="url(#paint28_linear_961_19)"/>
<path d="M253.596 11.6766L259.117 44.6187L233.372 65.8841L227.851 32.9307H227.862L253.596 11.6766Z" fill="url(#paint29_linear_961_19)"/>
<path d="M227.851 32.9307L233.372 65.8841L202.117 54.1847L196.596 21.254L227.851 32.9307Z" fill="url(#paint30_linear_961_19)"/>
<path d="M209.301 122.47L209.042 123.025L242.466 138.676L242.725 138.121L209.301 122.47Z" fill="url(#paint31_linear_961_19)"/>
<path d="M163.193 42.2898L162.612 42.4832L184.282 107.691L184.863 107.497L163.193 42.2898Z" fill="url(#paint32_linear_961_19)"/>
<path d="M178.872 134.925L169.325 187.306L169.927 187.416L179.475 135.035L178.872 134.925Z" fill="url(#paint33_linear_961_19)"/>
<path d="M147.114 204.257L121.3 185.291L121.559 184.966L147.374 203.931L147.114 204.257Z" fill="url(#paint34_linear_961_19)"/>
<path d="M173.658 74.4518L152.168 80.6605L152.338 81.2493L173.827 75.0405L173.658 74.4518Z" fill="url(#paint35_linear_961_19)"/>
<path d="M95.1353 70.6274L76.963 57.2713L77.3258 56.772L95.4981 70.1281L95.1353 70.6274Z" fill="url(#paint36_linear_961_19)"/>
<path d="M24.0899 162.531L23.5458 162.259L53.5533 104.046L68.0299 122.577L67.5425 122.951L53.6553 105.181L24.0899 162.531Z" fill="url(#paint37_linear_961_19)"/>
</g>
<defs>
<linearGradient id="paint0_linear_961_19" x1="85.5107" y1="138.418" x2="139.79" y2="138.418" gradientUnits="userSpaceOnUse">
<stop stop-color="#62AADB"/>
<stop offset="1" stop-color="#80E7FF"/>
</linearGradient>
<linearGradient id="paint1_linear_961_19" x1="58.7567" y1="177.51" x2="139.79" y2="177.51" gradientUnits="userSpaceOnUse">
<stop stop-color="#0097D9"/>
<stop offset="1" stop-color="#80E7FF"/>
</linearGradient>
<linearGradient id="paint2_linear_961_19" x1="49.5969" y1="146.384" x2="94.6933" y2="146.384" gradientUnits="userSpaceOnUse">
<stop stop-color="#6774FF"/>
<stop offset="1" stop-color="#49A2D0"/>
</linearGradient>
<linearGradient id="paint3_linear_961_19" x1="35.7438" y1="83.9495" x2="71.4876" y2="83.9495" gradientUnits="userSpaceOnUse">
<stop stop-color="#62AADB"/>
<stop offset="1" stop-color="#80E7FF"/>
</linearGradient>
<linearGradient id="paint4_linear_961_19" x1="35.7211" y1="104.613" x2="71.4875" y2="104.613" gradientUnits="userSpaceOnUse">
<stop stop-color="#0097D9"/>
<stop offset="1" stop-color="#80E7FF"/>
</linearGradient>
<linearGradient id="paint5_linear_961_19" x1="23.8179" y1="94.2758" x2="47.6471" y2="94.2758" gradientUnits="userSpaceOnUse">
<stop stop-color="#6774FF"/>
<stop offset="1" stop-color="#49A2D0"/>
</linearGradient>
<linearGradient id="paint6_linear_961_19" x1="43.0671" y1="30.8995" x2="70.9094" y2="30.8995" gradientUnits="userSpaceOnUse">
<stop stop-color="#62AADB"/>
<stop offset="1" stop-color="#80E7FF"/>
</linearGradient>
<linearGradient id="paint7_linear_961_19" x1="65.7853" y1="35.3477" x2="88.5035" y2="35.3477" gradientUnits="userSpaceOnUse">
<stop stop-color="#0097D9"/>
<stop offset="1" stop-color="#80E7FF"/>
</linearGradient>
<linearGradient id="paint8_linear_961_19" x1="43.0671" y1="50.5876" x2="83.3908" y2="50.5876" gradientUnits="userSpaceOnUse">
<stop stop-color="#6774FF"/>
<stop offset="1" stop-color="#49A2D0"/>
</linearGradient>
<linearGradient id="paint9_linear_961_19" x1="0" y1="172.506" x2="36.5713" y2="172.506" gradientUnits="userSpaceOnUse">
<stop stop-color="#62AADB"/>
<stop offset="1" stop-color="#80E7FF"/>
</linearGradient>
<linearGradient id="paint10_linear_961_19" x1="23.8065" y1="183.57" x2="47.6244" y2="183.57" gradientUnits="userSpaceOnUse">
<stop stop-color="#0097D9"/>
<stop offset="1" stop-color="#80E7FF"/>
</linearGradient>
<linearGradient id="paint11_linear_961_19" x1="0" y1="193.147" x2="34.8595" y2="193.147" gradientUnits="userSpaceOnUse">
<stop stop-color="#6774FF"/>
<stop offset="1" stop-color="#49A2D0"/>
</linearGradient>
<linearGradient id="paint12_linear_961_19" x1="128.045" y1="10.6781" x2="164.616" y2="10.6781" gradientUnits="userSpaceOnUse">
<stop stop-color="#62AADB"/>
<stop offset="1" stop-color="#80E7FF"/>
</linearGradient>
<linearGradient id="paint13_linear_961_19" x1="151.852" y1="21.742" x2="175.669" y2="21.742" gradientUnits="userSpaceOnUse">
<stop stop-color="#0097D9"/>
<stop offset="1" stop-color="#80E7FF"/>
</linearGradient>
<linearGradient id="paint14_linear_961_19" x1="128.045" y1="31.3193" x2="162.905" y2="31.3193" gradientUnits="userSpaceOnUse">
<stop stop-color="#6774FF"/>
<stop offset="1" stop-color="#49A2D0"/>
</linearGradient>
<linearGradient id="paint15_linear_961_19" x1="0" y1="172.506" x2="36.5713" y2="172.506" gradientUnits="userSpaceOnUse">
<stop stop-color="#62AADB"/>
<stop offset="1" stop-color="#80E7FF"/>
</linearGradient>
<linearGradient id="paint16_linear_961_19" x1="23.8065" y1="183.57" x2="47.6244" y2="183.57" gradientUnits="userSpaceOnUse">
<stop stop-color="#0097D9"/>
<stop offset="1" stop-color="#80E7FF"/>
</linearGradient>
<linearGradient id="paint17_linear_961_19" x1="0" y1="193.147" x2="34.8595" y2="193.147" gradientUnits="userSpaceOnUse">
<stop stop-color="#6774FF"/>
<stop offset="1" stop-color="#49A2D0"/>
</linearGradient>
<linearGradient id="paint18_linear_961_19" x1="146.365" y1="197.448" x2="187.38" y2="197.448" gradientUnits="userSpaceOnUse">
<stop stop-color="#62AADB"/>
<stop offset="1" stop-color="#80E7FF"/>
</linearGradient>
<linearGradient id="paint19_linear_961_19" x1="168.233" y1="214.038" x2="190.112" y2="214.038" gradientUnits="userSpaceOnUse">
<stop stop-color="#0097D9"/>
<stop offset="1" stop-color="#80E7FF"/>
</linearGradient>
<linearGradient id="paint20_linear_961_19" x1="146.365" y1="216.41" x2="170.976" y2="216.41" gradientUnits="userSpaceOnUse">
<stop stop-color="#6774FF"/>
<stop offset="1" stop-color="#49A2D0"/>
</linearGradient>
<linearGradient id="paint21_linear_961_19" x1="233.372" y1="154.214" x2="278.457" y2="154.214" gradientUnits="userSpaceOnUse">
<stop stop-color="#6774FF"/>
<stop offset="1" stop-color="#49A2D0"/>
</linearGradient>
<linearGradient id="paint22_linear_961_19" x1="159.152" y1="107.609" x2="209.996" y2="107.609" gradientUnits="userSpaceOnUse">
<stop stop-color="#62AADB"/>
<stop offset="1" stop-color="#80E7FF"/>
</linearGradient>
<linearGradient id="paint23_linear_961_19" x1="192.504" y1="122.77" x2="225.867" y2="122.77" gradientUnits="userSpaceOnUse">
<stop stop-color="#0097D9"/>
<stop offset="1" stop-color="#80E7FF"/>
</linearGradient>
<linearGradient id="paint24_linear_961_19" x1="159.152" y1="136.523" x2="208.375" y2="136.523" gradientUnits="userSpaceOnUse">
<stop stop-color="#6774FF"/>
<stop offset="1" stop-color="#49A2D0"/>
</linearGradient>
<linearGradient id="paint25_linear_961_19" x1="91.9385" y1="79.3537" x2="124.009" y2="79.3537" gradientUnits="userSpaceOnUse">
<stop stop-color="#62AADB"/>
<stop offset="1" stop-color="#80E7FF"/>
</linearGradient>
<linearGradient id="paint26_linear_961_19" x1="100.01" y1="58.5535" x2="156.091" y2="58.5535" gradientUnits="userSpaceOnUse">
<stop stop-color="#0097D9"/>
<stop offset="1" stop-color="#80E7FF"/>
</linearGradient>
<linearGradient id="paint27_linear_961_19" x1="115.938" y1="86.3551" x2="156.091" y2="86.3551" gradientUnits="userSpaceOnUse">
<stop stop-color="#6774FF"/>
<stop offset="1" stop-color="#49A2D0"/>
</linearGradient>
<linearGradient id="paint28_linear_961_19" x1="196.596" y1="16.4653" x2="253.596" y2="16.4653" gradientUnits="userSpaceOnUse">
<stop stop-color="#62AADB"/>
<stop offset="1" stop-color="#80E7FF"/>
</linearGradient>
<linearGradient id="paint29_linear_961_19" x1="227.851" y1="38.786" x2="259.117" y2="38.786" gradientUnits="userSpaceOnUse">
<stop stop-color="#0097D9"/>
<stop offset="1" stop-color="#80E7FF"/>
</linearGradient>
<linearGradient id="paint30_linear_961_19" x1="196.596" y1="43.5634" x2="233.372" y2="43.5634" gradientUnits="userSpaceOnUse">
<stop stop-color="#6774FF"/>
<stop offset="1" stop-color="#49A2D0"/>
</linearGradient>
<linearGradient id="paint31_linear_961_19" x1="209.036" y1="130.588" x2="242.716" y2="130.588" gradientUnits="userSpaceOnUse">
<stop stop-color="#B7EEFF" stop-opacity="0.2"/>
<stop offset="1" stop-color="white"/>
</linearGradient>
<linearGradient id="paint32_linear_961_19" x1="162.601" y1="75.0008" x2="184.854" y2="75.0007" gradientUnits="userSpaceOnUse">
<stop stop-color="#B7EEFF" stop-opacity="0.2"/>
<stop offset="1" stop-color="white"/>
</linearGradient>
<linearGradient id="paint33_linear_961_19" x1="168.635" y1="161.056" x2="180.113" y2="160.761" gradientUnits="userSpaceOnUse">
<stop stop-color="#B7EEFF" stop-opacity="0.2"/>
<stop offset="1" stop-color="white"/>
</linearGradient>
<linearGradient id="paint34_linear_961_19" x1="121.3" y1="194.615" x2="147.374" y2="194.615" gradientUnits="userSpaceOnUse">
<stop stop-color="#B7EEFF" stop-opacity="0.2"/>
<stop offset="1" stop-color="white"/>
</linearGradient>
<linearGradient id="paint35_linear_961_19" x1="152.16" y1="77.8554" x2="173.813" y2="77.8554" gradientUnits="userSpaceOnUse">
<stop stop-color="#B7EEFF" stop-opacity="0.2"/>
<stop offset="1" stop-color="white"/>
</linearGradient>
<linearGradient id="paint36_linear_961_19" x1="76.963" y1="63.694" x2="95.4981" y2="63.694" gradientUnits="userSpaceOnUse">
<stop stop-color="#B7EEFF" stop-opacity="0.2"/>
<stop offset="1" stop-color="white"/>
</linearGradient>
<linearGradient id="paint37_linear_961_19" x1="23.5458" y1="133.289" x2="68.0299" y2="133.289" gradientUnits="userSpaceOnUse">
<stop stop-color="#B7EEFF" stop-opacity="0.2"/>
<stop offset="1" stop-color="white"/>
</linearGradient>
<clipPath id="clip0_961_19">
<rect width="236" height="233" fill="white"/>
</clipPath>
</defs>
</svg>
