<svg width="226" height="113" viewBox="0 0 226 113" fill="none" xmlns="http://www.w3.org/2000/svg">
<path d="M81.9226 112.947H54.6151L54.6021 112.933L40.9613 88.2617H68.2688L81.9226 112.947Z" stroke="url(#paint0_linear_2080_19189)" stroke-linejoin="round"/>
<path d="M81.9226 112.947L68.2558 137.632L40.9353 137.618L54.6021 112.933L54.615 112.947H81.9226Z" stroke="url(#paint1_linear_2080_19189)" stroke-linejoin="round"/>
<path d="M54.6021 112.933L40.9353 137.618L27.2946 112.933L40.9613 88.2617L54.6021 112.933Z" stroke="url(#paint2_linear_2080_19189)" stroke-linejoin="round"/>
<path d="M81.2599 19.0063L75.4009 46.8226L75.3879 46.8361L49.3535 55.444L55.2255 27.6142L81.2599 19.0063Z" fill="url(#paint3_linear_2080_19189)"/>
<path d="M81.26 19.0063L101.422 38.2147L95.5633 66.0716L75.3879 46.8361L75.4009 46.8226L81.26 19.0063Z" fill="url(#paint4_linear_2080_19189)"/>
<path d="M75.3879 46.8359L95.5632 66.0714L69.5159 74.6657L49.3535 55.4438L75.3879 46.8359Z" fill="url(#paint5_linear_2080_19189)"/>
<path d="M188.645 1.62759L174.03 25.6889H174.017L146.736 24.5096L161.351 0.448242L188.645 1.62759Z" fill="url(#paint6_linear_2080_19189)"/>
<path d="M188.645 1.62793L201.312 26.8686L186.684 50.957L174.017 25.6892H174.03L188.645 1.62793Z" fill="url(#paint7_linear_2080_19189)"/>
<path d="M174.017 25.6891L186.684 50.9569L159.402 49.764L146.736 24.5098L174.017 25.6891Z" fill="url(#paint8_linear_2080_19189)"/>
<path d="M240.649 112.418L220.617 146.402H220.604L182.384 145.291L202.416 111.307L240.649 112.418Z" fill="url(#paint9_linear_2080_19189)"/>
<path d="M240.649 112.418L258.837 147.514L238.791 181.511L220.604 146.402H220.617L240.649 112.418Z" fill="url(#paint10_linear_2080_19189)"/>
<path d="M114.608 61.896L142.111 89.6038V89.6173L132.861 128.332L105.359 100.625L114.608 61.896Z" stroke="url(#paint11_linear_2080_19189)" stroke-linejoin="round"/>
<path d="M114.608 61.896L151.361 50.9023L178.876 78.6237L142.111 89.6173V89.6038L114.608 61.896Z" stroke="url(#paint12_linear_2080_19189)" stroke-linejoin="round"/>
<path d="M142.111 89.6174L178.876 78.6238L169.613 117.339L132.861 128.332L142.111 89.6174Z" stroke="url(#paint13_linear_2080_19189)" stroke-linejoin="round"/>
<path d="M290.613 14.2615L261.123 39.6513H261.11L225.293 25.7025L254.783 0.312744L290.613 14.2615Z" fill="url(#paint14_linear_2080_19189)"/>
<path d="M261.11 39.6509L267.437 79.0166L231.62 65.0407L225.293 25.7021L261.11 39.6509Z" fill="url(#paint15_linear_2080_19189)"/>
<path d="M187.014 50.8314L186.348 51.0625L211.182 128.959L211.848 128.728L187.014 50.8314Z" fill="url(#paint16_linear_2080_19189)"/>
<path d="M199.006 89.2521L174.38 96.6689L174.574 97.3722L199.201 89.9554L199.006 89.2521Z" fill="url(#paint17_linear_2080_19189)"/>
<path d="M109.022 84.6831L88.1973 68.728L88.613 68.1316L109.438 84.0866L109.022 84.6831Z" fill="url(#paint18_linear_2080_19189)"/>
<defs>
<linearGradient id="paint0_linear_2080_19189" x1="40.9613" y1="100.597" x2="81.9226" y2="100.597" gradientUnits="userSpaceOnUse">
<stop stop-color="#62AADB"/>
<stop offset="1" stop-color="#80E7FF"/>
</linearGradient>
<linearGradient id="paint1_linear_2080_19189" x1="40.9353" y1="125.282" x2="81.9226" y2="125.282" gradientUnits="userSpaceOnUse">
<stop stop-color="#0097D9"/>
<stop offset="1" stop-color="#80E7FF"/>
</linearGradient>
<linearGradient id="paint2_linear_2080_19189" x1="27.2946" y1="112.933" x2="54.6021" y2="112.933" gradientUnits="userSpaceOnUse">
<stop stop-color="#6774FF"/>
<stop offset="1" stop-color="#49A2D0"/>
</linearGradient>
<linearGradient id="paint3_linear_2080_19189" x1="49.3535" y1="37.2252" x2="81.2599" y2="37.2252" gradientUnits="userSpaceOnUse">
<stop stop-color="#62AADB"/>
<stop offset="1" stop-color="#80E7FF"/>
</linearGradient>
<linearGradient id="paint4_linear_2080_19189" x1="75.3879" y1="42.539" x2="101.422" y2="42.539" gradientUnits="userSpaceOnUse">
<stop stop-color="#0097D9"/>
<stop offset="1" stop-color="#80E7FF"/>
</linearGradient>
<linearGradient id="paint5_linear_2080_19189" x1="49.3535" y1="60.7441" x2="95.5632" y2="60.7441" gradientUnits="userSpaceOnUse">
<stop stop-color="#6774FF"/>
<stop offset="1" stop-color="#49A2D0"/>
</linearGradient>
<linearGradient id="paint6_linear_2080_19189" x1="146.736" y1="13.0686" x2="188.645" y2="13.0686" gradientUnits="userSpaceOnUse">
<stop stop-color="#62AADB"/>
<stop offset="1" stop-color="#80E7FF"/>
</linearGradient>
<linearGradient id="paint7_linear_2080_19189" x1="174.017" y1="26.2857" x2="201.312" y2="26.2857" gradientUnits="userSpaceOnUse">
<stop stop-color="#0097D9"/>
<stop offset="1" stop-color="#80E7FF"/>
</linearGradient>
<linearGradient id="paint8_linear_2080_19189" x1="146.736" y1="37.7265" x2="186.684" y2="37.7265" gradientUnits="userSpaceOnUse">
<stop stop-color="#6774FF"/>
<stop offset="1" stop-color="#49A2D0"/>
</linearGradient>
<linearGradient id="paint9_linear_2080_19189" x1="182.384" y1="128.861" x2="240.649" y2="128.861" gradientUnits="userSpaceOnUse">
<stop stop-color="#62AADB"/>
<stop offset="1" stop-color="#80E7FF"/>
</linearGradient>
<linearGradient id="paint10_linear_2080_19189" x1="220.604" y1="146.971" x2="258.837" y2="146.971" gradientUnits="userSpaceOnUse">
<stop stop-color="#0097D9"/>
<stop offset="1" stop-color="#80E7FF"/>
</linearGradient>
<linearGradient id="paint11_linear_2080_19189" x1="105.359" y1="95.1074" x2="142.111" y2="95.1074" gradientUnits="userSpaceOnUse">
<stop stop-color="#62AADB"/>
<stop offset="1" stop-color="#80E7FF"/>
</linearGradient>
<linearGradient id="paint12_linear_2080_19189" x1="114.608" y1="70.2598" x2="178.876" y2="70.2598" gradientUnits="userSpaceOnUse">
<stop stop-color="#0097D9"/>
<stop offset="1" stop-color="#80E7FF"/>
</linearGradient>
<linearGradient id="paint13_linear_2080_19189" x1="132.861" y1="103.471" x2="178.876" y2="103.471" gradientUnits="userSpaceOnUse">
<stop stop-color="#6774FF"/>
<stop offset="1" stop-color="#49A2D0"/>
</linearGradient>
<linearGradient id="paint14_linear_2080_19189" x1="225.293" y1="19.982" x2="290.613" y2="19.982" gradientUnits="userSpaceOnUse">
<stop stop-color="#62AADB"/>
<stop offset="1" stop-color="#80E7FF"/>
</linearGradient>
<linearGradient id="paint15_linear_2080_19189" x1="225.293" y1="52.3526" x2="267.437" y2="52.3526" gradientUnits="userSpaceOnUse">
<stop stop-color="#6774FF"/>
<stop offset="1" stop-color="#49A2D0"/>
</linearGradient>
<linearGradient id="paint16_linear_2080_19189" x1="186.336" y1="89.9076" x2="211.837" y2="89.9075" gradientUnits="userSpaceOnUse">
<stop stop-color="#B7EEFF" stop-opacity="0.2"/>
<stop offset="1" stop-color="white"/>
</linearGradient>
<linearGradient id="paint17_linear_2080_19189" x1="174.371" y1="93.318" x2="199.184" y2="93.3179" gradientUnits="userSpaceOnUse">
<stop stop-color="#B7EEFF" stop-opacity="0.2"/>
<stop offset="1" stop-color="white"/>
</linearGradient>
<linearGradient id="paint18_linear_2080_19189" x1="88.1973" y1="76.4006" x2="109.438" y2="76.4006" gradientUnits="userSpaceOnUse">
<stop stop-color="#B7EEFF" stop-opacity="0.2"/>
<stop offset="1" stop-color="white"/>
</linearGradient>
</defs>
</svg>
