<svg width="58" height="24" viewBox="0 0 58 24" fill="none" xmlns="http://www.w3.org/2000/svg">
<rect x="0.700012" y="0.5" width="56" height="23" rx="3.5" fill="#6C757D" fill-opacity="0.2"/>
<rect x="0.700012" y="0.5" width="56" height="23" rx="3.5" stroke="#6C757D"/>
<path d="M14.0968 16H12.7288L8.61281 9.748V16H7.24481V7.54H8.61281L12.7288 13.816V7.54H14.0968V16ZM18.7766 9.304C19.4166 9.304 19.9926 9.44 20.5046 9.712C21.0166 9.984 21.4166 10.376 21.7046 10.888C21.9926 11.4 22.1366 12 22.1366 12.688C22.1366 13.384 21.9926 13.988 21.7046 14.5C21.4166 15.012 21.0166 15.404 20.5046 15.676C19.9926 15.948 19.4166 16.084 18.7766 16.084C18.1366 16.084 17.5606 15.948 17.0486 15.676C16.5446 15.404 16.1446 15.012 15.8486 14.5C15.5606 13.98 15.4166 13.376 15.4166 12.688C15.4166 12 15.5606 11.4 15.8486 10.888C16.1446 10.376 16.5446 9.984 17.0486 9.712C17.5606 9.44 18.1366 9.304 18.7766 9.304ZM18.7766 10.492C18.4246 10.492 18.1006 10.572 17.8046 10.732C17.5086 10.892 17.2686 11.14 17.0846 11.476C16.9086 11.804 16.8206 12.208 16.8206 12.688C16.8206 13.176 16.9086 13.584 17.0846 13.912C17.2686 14.24 17.5086 14.484 17.8046 14.644C18.1006 14.804 18.4246 14.884 18.7766 14.884C19.1286 14.884 19.4526 14.804 19.7486 14.644C20.0446 14.484 20.2806 14.24 20.4566 13.912C20.6406 13.584 20.7326 13.176 20.7326 12.688C20.7326 12.208 20.6406 11.804 20.4566 11.476C20.2806 11.14 20.0446 10.892 19.7486 10.732C19.4526 10.572 19.1286 10.492 18.7766 10.492ZM24.8198 10.684C25.0438 10.252 25.3638 9.912 25.7798 9.664C26.1958 9.408 26.6758 9.28 27.2198 9.28V10.768H26.8118C26.2118 10.768 25.7278 10.916 25.3598 11.212C24.9998 11.5 24.8198 11.98 24.8198 12.652V16H23.4518V9.388H24.8198V10.684ZM36.5128 9.28C37.2968 9.28 37.9208 9.528 38.3848 10.024C38.8568 10.52 39.0928 11.228 39.0928 12.148V16H37.7248V12.292C37.7248 11.716 37.5808 11.272 37.2928 10.96C37.0048 10.64 36.6088 10.48 36.1048 10.48C35.5688 10.48 35.1408 10.652 34.8208 10.996C34.5088 11.332 34.3528 11.828 34.3528 12.484V16H32.9848V12.292C32.9848 11.716 32.8408 11.272 32.5528 10.96C32.2648 10.64 31.8688 10.48 31.3648 10.48C30.8288 10.48 30.4008 10.652 30.0808 10.996C29.7688 11.332 29.6128 11.828 29.6128 12.484V16H28.2448V9.388H29.6128V10.768C29.7808 10.288 30.0608 9.92 30.4528 9.664C30.8448 9.408 31.3048 9.28 31.8328 9.28C32.3848 9.28 32.8608 9.416 33.2608 9.688C33.6688 9.96 33.9648 10.352 34.1488 10.864C34.3408 10.368 34.6488 9.98 35.0728 9.7C35.4968 9.42 35.9768 9.28 36.5128 9.28ZM43.3421 9.304C43.9421 9.304 44.4541 9.452 44.8781 9.748C45.3021 10.044 45.6021 10.436 45.7781 10.924V9.388H47.1461V16H45.7781V14.464C45.6021 14.952 45.3021 15.344 44.8781 15.64C44.4541 15.936 43.9421 16.084 43.3421 16.084C42.7661 16.084 42.2501 15.948 41.7941 15.676C41.3461 15.404 40.9941 15.012 40.7381 14.5C40.4821 13.988 40.3541 13.384 40.3541 12.688C40.3541 12 40.4821 11.4 40.7381 10.888C40.9941 10.376 41.3461 9.984 41.7941 9.712C42.2501 9.44 42.7661 9.304 43.3421 9.304ZM43.7621 10.504C43.1541 10.504 42.6661 10.7 42.2981 11.092C41.9381 11.476 41.7581 12.008 41.7581 12.688C41.7581 13.368 41.9381 13.904 42.2981 14.296C42.6661 14.68 43.1541 14.872 43.7621 14.872C44.1461 14.872 44.4901 14.784 44.7941 14.608C45.0981 14.424 45.3381 14.168 45.5141 13.84C45.6901 13.512 45.7781 13.128 45.7781 12.688C45.7781 12.256 45.6901 11.876 45.5141 11.548C45.3381 11.212 45.0981 10.956 44.7941 10.78C44.4901 10.596 44.1461 10.504 43.7621 10.504ZM50.1558 7.12V16H48.7878V7.12H50.1558Z" fill="#6C757D"/>
</svg>
