<svg width="32" height="32" viewBox="0 0 32 32" fill="none" xmlns="http://www.w3.org/2000/svg">
<g clip-path="url(#clip0_913_89189)">
<path d="M20.1258 15.9571C20.1258 18.2357 18.2787 20.0829 16.0001 20.0829C13.7215 20.0829 11.8743 18.2357 11.8743 15.9571C11.8743 13.6785 13.7215 11.8313 16.0001 11.8313C18.2787 11.8313 20.1258 13.6785 20.1258 15.9571Z" fill="#FF8F8F"/>
<path fill-rule="evenodd" clip-rule="evenodd" d="M0.927174 13.8345C-0.251766 15.0134 -0.251766 16.9249 0.927174 18.1038L13.8774 31.0541C15.0564 32.2331 16.9678 32.2331 18.1468 31.0541L31.097 18.1038C32.276 16.9249 32.276 15.0134 31.097 13.8345L18.1468 0.884207C16.9678 -0.294736 15.0564 -0.294736 13.8774 0.884207L0.927174 13.8345ZM11.8743 21.2899C13.0146 22.1734 14.4459 22.6993 16.0001 22.6993C19.7236 22.6993 22.7422 19.6807 22.7422 15.9571C22.7422 12.2335 19.7236 9.21495 16.0001 9.21495C12.2765 9.21495 9.25792 12.2335 9.25792 15.9571C9.25792 16.0281 9.25902 16.0989 9.2612 16.1693C9.25902 16.1989 9.25792 16.2288 9.25792 16.259V26.425L11.8743 29.0399V21.2899Z" fill="#FF8F8F"/>
<path d="M20.1258 15.9571C20.1258 18.2357 18.2787 20.0829 16.0001 20.0829C13.7215 20.0829 11.8743 18.2357 11.8743 15.9571C11.8743 13.6785 13.7215 11.8313 16.0001 11.8313C18.2787 11.8313 20.1258 13.6785 20.1258 15.9571Z" fill="#FF7D7D"/>
<path fill-rule="evenodd" clip-rule="evenodd" d="M0.884207 18.1038C-0.294736 16.9249 -0.294736 15.0134 0.884207 13.8345L8.39859 6.32009C10.8781 5.84243 13.4387 5.59229 16.0577 5.59229C18.5998 5.59229 21.0868 5.82796 23.4983 6.27859L31.0541 13.8345C32.2331 15.0134 32.2331 16.9249 31.0541 18.1038L18.1038 31.0541C16.9249 32.2331 15.0134 32.2331 13.8345 31.0541L0.884207 18.1038ZM11.8742 21.2899C13.0145 22.1734 14.4458 22.6993 16 22.6993C19.7236 22.6993 22.7421 19.6807 22.7421 15.9571C22.7421 12.2335 19.7236 9.21493 16 9.21493C12.2764 9.21493 9.25786 12.2335 9.25786 15.9571C9.25786 16.0281 9.25897 16.0988 9.26114 16.1693C9.25897 16.1989 9.25786 16.2288 9.25786 16.259V26.4249L11.8742 29.0399V21.2899Z" fill="#FF7D7D"/>
<path d="M20.1258 15.9571C20.1258 18.2357 18.2787 20.0829 16.0001 20.0829C13.7215 20.0829 11.8743 18.2357 11.8743 15.9571C11.8743 13.6785 13.7215 11.8313 16.0001 11.8313C18.2787 11.8313 20.1258 13.6785 20.1258 15.9571Z" fill="#FF5C5C"/>
<path d="M11.8742 21.2899C13.0145 22.1735 14.4458 22.6993 16 22.6993C19.7236 22.6993 22.7421 19.6807 22.7421 15.9571C22.7421 13.9407 21.857 12.131 20.4538 10.8955C24.2816 11.3721 27.9187 12.4629 31.2632 14.0662C32.2284 15.2519 32.1586 16.9994 31.0541 18.1039L18.1038 31.0542C16.9249 32.2331 15.0134 32.2331 13.8345 31.0542L0.884206 18.1039C-0.178552 17.0411 -0.283285 15.3831 0.570004 14.203C3.95282 12.5441 7.64069 11.4116 11.5268 10.9126C10.135 12.1476 9.25786 13.95 9.25786 15.9571C9.25786 16.0281 9.25897 16.0989 9.26114 16.1694C9.25897 16.199 9.25786 16.2289 9.25786 16.259V26.425L11.8742 29.04V21.2899Z" fill="#FF5C5C"/>
<path d="M20.1258 15.9572C20.1258 18.2358 18.2787 20.0829 16.0001 20.0829C13.7215 20.0829 11.8743 18.2358 11.8743 15.9572C11.8743 15.956 11.8743 15.9548 11.8743 15.9536C13.2662 15.757 14.6886 15.6553 16.1348 15.6553C17.4877 15.6553 18.8198 15.7443 20.1256 15.9167C20.1258 15.9302 20.1258 15.9437 20.1258 15.9572Z" fill="#DD3C3C"/>
<path d="M9.25798 16.4419C6.70301 17.0371 4.27266 17.9568 2.0127 19.1551L9.25798 26.4004V16.4419Z" fill="#DD3C3C"/>
<path d="M11.8743 29.0168L13.9115 31.0542C15.0905 32.2331 17.0019 32.2331 18.1809 31.0542L30.1408 19.0941C27.8306 17.8819 25.3439 16.9602 22.7293 16.3777C22.5122 19.9054 19.5824 22.6994 16.0001 22.6994C14.4459 22.6994 13.0146 22.1735 11.8743 21.2899V29.0168Z" fill="#DD3C3C"/>
<path d="M11.8743 21.2899C13.0146 22.1734 14.4459 22.6993 16.0001 22.6993C17.7809 22.6993 19.4004 22.0088 20.6056 20.8811C22.675 21.252 24.6566 21.8761 26.5174 22.72L18.1832 31.0541C17.0042 32.2331 15.0928 32.2331 13.9139 31.0541L11.8743 29.0145V21.2899Z" fill="#C1365B"/>
<path d="M9.2579 26.3983V21.4375C8.00802 21.7921 6.79776 22.2409 5.63525 22.7757L9.2579 26.3983Z" fill="#C1365B"/>
<path d="M9.46786 26.6346C9.46498 26.6356 9.46211 26.6366 9.45923 26.6377L13.8756 31.0541C15.0545 32.233 16.9659 32.233 18.1449 31.0541L22.6066 26.5922C20.5652 25.895 18.3762 25.5168 16.0988 25.5168C14.6498 25.5168 13.2365 25.67 11.8743 25.9608V29.0399L9.46786 26.6346Z" fill="#FF2463"/>
</g>
<defs>
<clipPath id="clip0_913_89189">
<rect width="32" height="32" fill="white"/>
</clipPath>
</defs>
</svg>
