<svg width="32" height="32" viewBox="0 0 32 32" fill="none" xmlns="http://www.w3.org/2000/svg">
<rect width="32" height="32" rx="16" fill="#E6007A"/>
<path d="M16.0007 10.1952C17.9042 10.1952 19.4473 9.25604 19.4473 8.09758C19.4473 6.93912 17.9042 6 16.0007 6C14.0973 6 12.5542 6.93912 12.5542 8.09758C12.5542 9.25604 14.0973 10.1952 16.0007 10.1952Z" fill="white"/>
<path d="M16.0007 25.9999C17.9042 25.9999 19.4473 25.0608 19.4473 23.9024C19.4473 22.7439 17.9042 21.8048 16.0007 21.8048C14.0973 21.8048 12.5542 22.7439 12.5542 23.9024C12.5542 25.0608 14.0973 25.9999 16.0007 25.9999Z" fill="white"/>
<path d="M11.1974 13.0989C12.1491 11.3739 12.143 9.50568 11.1836 8.92606C10.2242 8.34643 8.675 9.27491 7.72327 10.9999C6.77153 12.7248 6.77771 14.593 7.73707 15.1727C8.69642 15.7523 10.2457 14.8238 11.1974 13.0989Z" fill="white"/>
<path d="M24.2751 21.0003C25.2269 19.2754 25.2212 17.4074 24.2625 16.8282C23.3038 16.249 21.7551 17.1778 20.8033 18.9027C19.8516 20.6277 19.8573 22.4956 20.816 23.0748C21.7747 23.6541 23.3234 22.7253 24.2751 21.0003Z" fill="white"/>
<path d="M11.1846 23.0742C12.1439 22.4945 12.1501 20.6263 11.1984 18.9014C10.2466 17.1764 8.6974 16.2479 7.73804 16.8275C6.77869 17.4072 6.77251 19.2754 7.72425 21.0004C8.67598 22.7253 10.2252 23.6538 11.1846 23.0742Z" fill="white"/>
<path d="M24.264 15.1732C25.2227 14.594 25.2283 12.7261 24.2766 11.0011C23.3249 9.27614 21.7761 8.34735 20.8174 8.92658C19.8587 9.50581 19.8531 11.3737 20.8048 13.0987C21.7565 14.8236 23.3053 15.7524 24.264 15.1732Z" fill="white"/>
</svg>
