<svg width="27" height="27" viewBox="0 0 27 27" fill="none" xmlns="http://www.w3.org/2000/svg">
<path d="M23.1952 5.67434L15.2339 1.08462C14.6637 0.758499 14.0179 0.586914 13.3606 0.586914C12.7034 0.586914 12.0577 0.758499 11.4874 1.08462L3.52609 5.67434C2.95642 6.00259 2.48339 6.47473 2.15456 7.04332C1.82573 7.61184 1.65269 8.25679 1.65283 8.9133V18.0834C1.65269 18.7398 1.82573 19.3848 2.15456 19.9534C2.48339 20.522 2.95642 20.9941 3.52609 21.3223L11.4874 25.912C12.0569 26.2403 12.703 26.413 13.3606 26.413C14.0183 26.413 14.6644 26.2403 15.2339 25.912L23.1952 21.3223C23.7649 20.9941 24.2379 20.522 24.5667 19.9534C24.8956 19.3848 25.0687 18.7398 25.0685 18.0834V8.9133C25.0687 8.25679 24.8956 7.61184 24.5667 7.04332C24.2379 6.47473 23.7649 6.00259 23.1952 5.67434ZM12.424 2.70644C12.7084 2.54121 13.0316 2.45415 13.3606 2.45415C13.6897 2.45415 14.0129 2.54121 14.2973 2.70644L22.2586 7.29148H22.2726L13.3606 12.5402L9.39404 10.2033L13.3606 7.91777L15.5102 9.15636L17.3553 8.06732L14.2973 6.30064C14.0125 6.13653 13.6895 6.05013 13.3606 6.05013C13.0318 6.05013 12.7088 6.13653 12.424 6.30064L7.5817 9.09092C7.56972 9.09714 7.55869 9.105 7.54889 9.11428L4.46271 7.29148L12.424 2.70644ZM4.46271 19.7052C4.17754 19.5409 3.9408 19.3044 3.77636 19.0197C3.61193 18.735 3.5256 18.412 3.52609 18.0834V8.9133L12.4381 14.1714V18.5461L8.5183 16.2886V14.0312L6.64503 12.9234V16.2886C6.64538 16.6165 6.73208 16.9385 6.89648 17.2223C7.06089 17.5062 7.2972 17.7418 7.5817 17.9058L12.424 20.696H12.4381V24.2902H12.424L4.46271 19.7052ZM23.1952 18.0834C23.1957 18.412 23.1094 18.735 22.9449 19.0197C22.7805 19.3044 22.5438 19.5409 22.2586 19.7052L14.3113 24.2809V14.1527L18.203 11.8695V16.2909L16.1846 17.4594V19.614L19.1396 17.9128C19.4241 17.7489 19.6604 17.5132 19.8248 17.2293C19.9892 16.9455 20.0759 16.6235 20.0762 16.2956V10.7642L23.1952 8.92733V18.0834Z" fill="#7E4DE7"/>
</svg>
