<svg width="36" height="36" viewBox="0 0 36 36" fill="none" xmlns="http://www.w3.org/2000/svg">
<path fill-rule="evenodd" clip-rule="evenodd" d="M0.0546875 1.75781C0.0546875 0.817192 0.817192 0.0546875 1.75781 0.0546875H26.0584C26.9991 0.0546875 27.7616 0.817192 27.7616 1.75781V16.0606C27.7616 16.6129 27.3139 17.0606 26.7616 17.0606C26.2093 17.0606 25.7616 16.6129 25.7616 16.0606V2.05469H2.05469V33.9452L26.0489 33.9453C26.6012 33.9453 27.0489 34.393 27.0489 34.9453C27.0489 35.4976 26.6012 35.9453 26.0489 35.9453L1.75781 35.9452C0.817192 35.9452 0.0546875 35.1827 0.0546875 34.242V1.75781ZM5.01045 16.0914C5.01045 15.5391 5.45817 15.0914 6.01045 15.0914H14.1512C14.7035 15.0914 15.1512 15.5391 15.1512 16.0914C15.1512 16.6437 14.7035 17.0914 14.1512 17.0914H6.01045C5.45817 17.0914 5.01045 16.6437 5.01045 16.0914ZM6.01045 10.8723C5.45817 10.8723 5.01045 11.32 5.01045 11.8723C5.01045 12.4246 5.45817 12.8723 6.01045 12.8723H14.1512C14.7035 12.8723 15.1512 12.4246 15.1512 11.8723C15.1512 11.32 14.7035 10.8723 14.1512 10.8723H6.01045ZM5.01045 7.65332C5.01045 7.10104 5.45817 6.65332 6.01045 6.65332H21.7393C22.2916 6.65332 22.7393 7.10104 22.7393 7.65332C22.7393 8.20561 22.2916 8.65332 21.7393 8.65332H6.01045C5.45817 8.65332 5.01045 8.20561 5.01045 7.65332ZM6.01045 19.2817C5.45817 19.2817 5.01045 19.7295 5.01045 20.2817C5.01045 20.834 5.45817 21.2817 6.01045 21.2817H14.1512C14.7035 21.2817 15.1512 20.834 15.1512 20.2817C15.1512 19.7295 14.7035 19.2817 14.1512 19.2817H6.01045ZM5.01045 23.7975C5.01045 23.2453 5.45817 22.7975 6.01045 22.7975H14.1512C14.7035 22.7975 15.1512 23.2453 15.1512 23.7975C15.1512 24.3498 14.7035 24.7975 14.1512 24.7975H6.01045C5.45817 24.7975 5.01045 24.3498 5.01045 23.7975ZM6.01045 27.0166C5.45817 27.0166 5.01045 27.4643 5.01045 28.0166C5.01045 28.5689 5.45817 29.0166 6.01045 29.0166H14.1512C14.7035 29.0166 15.1512 28.5689 15.1512 28.0166C15.1512 27.4643 14.7035 27.0166 14.1512 27.0166H6.01045Z" fill="url(#paint0_linear_1660_302)"/>
<path fill-rule="evenodd" clip-rule="evenodd" d="M34.9078 18.5516L34.945 23.4523C34.9762 27.5748 32.7964 31.4064 29.2132 33.5276L26.8183 34.9452L24.4022 33.5631C20.7871 31.4951 18.5494 27.6961 18.5181 23.5736L18.4809 18.6729C20.2502 18.6599 21.7671 17.6159 22.4513 16.123L30.8991 16.0607C31.6058 17.5433 33.1384 18.5647 34.9078 18.5516ZM30.3678 23.6516C30.6516 23.3498 30.6371 22.8752 30.3353 22.5914C30.0336 22.3076 29.5589 22.3222 29.2752 22.6239L26.0463 26.0571L24.7781 24.4993C24.5166 24.178 24.0442 24.1296 23.723 24.3911C23.4018 24.6526 23.3534 25.125 23.6149 25.4463L25.424 27.6686C25.5605 27.8363 25.7628 27.9369 25.9788 27.9446C26.1949 27.9523 26.4038 27.8664 26.552 27.7089L30.3678 23.6516Z" fill="url(#paint1_linear_1660_302)"/>
<defs>
<linearGradient id="paint0_linear_1660_302" x1="0.409903" y1="0.393744" x2="36.2275" y2="23.9539" gradientUnits="userSpaceOnUse">
<stop stop-color="white"/>
<stop offset="1" stop-color="#999999"/>
</linearGradient>
<linearGradient id="paint1_linear_1660_302" x1="18.6919" y1="16.2391" x2="38.3414" y2="30.8362" gradientUnits="userSpaceOnUse">
<stop stop-color="#0BB63B"/>
<stop offset="1" stop-color="#0BB63B" stop-opacity="0.5"/>
</linearGradient>
</defs>
</svg>
