<?xml version="1.0" encoding="UTF-8"?>
<svg id="Layer_1" data-name="Layer 1" xmlns="http://www.w3.org/2000/svg" viewBox="0 0 100 100">
  <defs>
    <style>
      .cls-1 {
        fill: #2a7de1;
        fill-rule: evenodd;
        stroke-width: 0px;
      }
    </style>
  </defs>
  <path class="cls-1" d="m51.7599477739,3.3147391036c-1.0924689103-.6270590769-2.4277057361-.6270590769-3.5201773044,0L10.4484789744,25.1403371132c-1.092471153.6270653898-1.7600893167,1.7901621882-1.7600893167,3.0442371482v43.6310072243c0,1.2642740193.6676181637,2.4170574608,1.7600893167,3.0441786704l15.3046581441,8.8393283377v-44.2477034375c0-1.21365617.6271757002-2.3464322307,1.6690320773-2.9835850405l10.4492699303-6.4425041946,10.2773000202-6.3312368957c1.1329435199-.6978580791,2.5592090107-.6978580791,3.6921498726,0l10.2773026783,6.3312368957,10.4494932092,6.4425041946c1.0418563771.6371528098,1.6689722705,1.7699288705,1.6689722705,2.9835850405v20.9656564229c0,1.2241423022-.6271158934,2.3568572271-1.6689722705,2.994015353l-10.4494932092,6.4323024771-10.2773026783,6.3314016967c-.9912943475.6064944957-1.972501275-.3946666509-1.972501275-1.5474554086v-8.3036238731c0-1.1327202411,1.0013844255-2.0023276094,1.972501275-2.5893117857l8.6082134523-5.2995822361c1.0318194607-.6471897262,1.669089226-1.7799046511,1.669089226-2.9934518397v-8.5158504302c0-1.2238020677-.6372697654-2.3565223088-1.669089226-2.9937309383l-8.6082134523-5.2996380558c-1.1329408618-.6978022593-2.5592063526-.6978022593-3.6921498726,0l-8.608269272,5.2996380558c-1.031763641.6372086295-1.6690307482,1.7699288705-1.6690307482,2.9937309383v6.1795029614s-.010090078,0-.010090078.0101485558v25.992317465h.010090078v11.105327017c0,.1616538951-.010090078.3132815062-.0303233957.4648984849l10.3986547391,6.0075303932c1.0924715683.6271265257,2.4277083941.6271265257,3.5201773044,0l37.7912629207-21.8254501538c1.0925832078-.6271212095,1.7603996477-1.7799046511,1.7603996477-3.0441786704V28.1845742613c0-1.2540749599-.66781644-2.4171717583-1.7603996477-3.0442371482L51.7599477739,3.3147391036Z"/>
</svg>