<svg width="20" height="22" viewBox="0 0 20 22" fill="none" xmlns="http://www.w3.org/2000/svg">
<path d="M20 11.0127C19.9999 13.6125 18.9995 16.2124 17.0996 18.1123C15.1996 20.0121 12.6999 21.0127 10 21.0127C7.30009 21.0127 4.80037 20.0121 2.90039 18.1123L1 20.0127V15.0127H6L4.2998 16.7119C5.8998 18.2119 7.9 19.0127 10 19.0127C12.1 19.0127 14.1002 18.2119 15.7002 16.7119C17.1999 15.212 17.9999 13.1124 18 11.0127H20ZM2.90039 3.91207C6.80032 0.0124633 13.1997 0.0124635 17.0996 3.91207L19 2.01266V7.01266H14L15.7002 5.31246C14.1002 3.81246 12 3.01266 10 3.01266C7.9 3.01266 5.8998 3.81246 4.2998 5.31246C2.99992 6.61244 2.19999 8.31236 2 10.1123V11.0127H0V9.91207C0.30003 7.61215 1.30043 5.51203 2.90039 3.91207Z" fill="#09122D"/>
</svg>
