<svg width="116" height="24" viewBox="0 0 116 24" fill="none" xmlns="http://www.w3.org/2000/svg">
<path d="M0.5 4C0.5 2.067 2.067 0.5 4 0.5H112C113.933 0.5 115.5 2.067 115.5 4V20C115.5 21.933 113.933 23.5 112 23.5H4C2.06701 23.5 0.5 21.933 0.5 20V4Z" fill="#DE4841" fill-opacity="0.2"/>
<path d="M0.5 4C0.5 2.067 2.067 0.5 4 0.5H112C113.933 0.5 115.5 2.067 115.5 4V20C115.5 21.933 113.933 23.5 112 23.5H4C2.06701 23.5 0.5 21.933 0.5 20V4Z" stroke="#DE4841"/>
<g clip-path="url(#clip0_916_1494)">
<path d="M14.5 11C12.57 11 11 12.5705 11 14.5C11 16.4295 12.57 18 14.5 18C16.43 18 18 16.4295 18 14.5C18 12.5705 16.43 11 14.5 11ZM14.5 17C13.1215 17 12 15.8785 12 14.5C12 13.1215 13.1215 12 14.5 12C15.8785 12 17 13.1215 17 14.5C17 15.8785 15.8785 17 14.5 17ZM14 14V13C14 12.7235 14.224 12.5 14.5 12.5C14.776 12.5 15 12.7235 15 13V14C15 14.2765 14.776 14.5 14.5 14.5C14.224 14.5 14 14.2765 14 14ZM15.25 15.75C15.25 16.164 14.914 16.5 14.5 16.5C14.086 16.5 13.75 16.164 13.75 15.75C13.75 15.336 14.086 15 14.5 15C14.914 15 15.25 15.336 15.25 15.75ZM11.1975 17.7235C11.11 17.899 10.9335 18 10.7495 18C10.6745 18 10.598 17.983 10.5265 17.9475C9.7705 17.5695 6 15.5115 6 12.097V9.4365C6 8.3565 6.6885 7.403 7.713 7.063L10.8425 6.0255C10.945 5.9915 11.055 5.9915 11.1575 6.0255L14.287 7.063C15.3115 7.403 16 8.3565 16 9.436V9.5C16 9.7765 15.776 10 15.5 10C15.224 10 15 9.7765 15 9.5V9.436C15 8.7885 14.587 8.2165 13.972 8.012L11 7.0265L8.028 8.012C7.413 8.216 7 8.7885 7 9.436V12.0965C7 14.9225 10.31 16.721 10.9735 17.0525C11.2205 17.176 11.3205 17.4765 11.197 17.7235H11.1975Z" fill="#DE4841"/>
</g>
<path d="M29.7164 16L27.7964 12.664H26.7524V16H25.3844V7.66H28.2644C28.9044 7.66 29.4444 7.772 29.8844 7.996C30.3324 8.22 30.6644 8.52 30.8804 8.896C31.1044 9.272 31.2164 9.692 31.2164 10.156C31.2164 10.7 31.0564 11.196 30.7364 11.644C30.4244 12.084 29.9404 12.384 29.2844 12.544L31.3484 16H29.7164ZM26.7524 11.572H28.2644C28.7764 11.572 29.1604 11.444 29.4164 11.188C29.6804 10.932 29.8124 10.588 29.8124 10.156C29.8124 9.724 29.6844 9.388 29.4284 9.148C29.1724 8.9 28.7844 8.776 28.2644 8.776H26.7524V11.572ZM39.0264 12.532C39.0264 12.78 39.0104 13.004 38.9784 13.204H33.9264C33.9664 13.732 34.1624 14.156 34.5144 14.476C34.8664 14.796 35.2984 14.956 35.8104 14.956C36.5464 14.956 37.0664 14.648 37.3704 14.032H38.8464C38.6464 14.64 38.2824 15.14 37.7544 15.532C37.2344 15.916 36.5864 16.108 35.8104 16.108C35.1784 16.108 34.6104 15.968 34.1064 15.688C33.6104 15.4 33.2184 15 32.9304 14.488C32.6504 13.968 32.5104 13.368 32.5104 12.688C32.5104 12.008 32.6464 11.412 32.9184 10.9C33.1984 10.38 33.5864 9.98 34.0824 9.7C34.5864 9.42 35.1624 9.28 35.8104 9.28C36.4344 9.28 36.9904 9.416 37.4784 9.688C37.9664 9.96 38.3464 10.344 38.6184 10.84C38.8904 11.328 39.0264 11.892 39.0264 12.532ZM37.5984 12.1C37.5904 11.596 37.4104 11.192 37.0584 10.888C36.7064 10.584 36.2704 10.432 35.7504 10.432C35.2784 10.432 34.8744 10.584 34.5384 10.888C34.2024 11.184 34.0024 11.588 33.9384 12.1H37.5984ZM42.7727 16.108C42.2527 16.108 41.7847 16.016 41.3687 15.832C40.9607 15.64 40.6367 15.384 40.3967 15.064C40.1567 14.736 40.0287 14.372 40.0127 13.972H41.4287C41.4527 14.252 41.5847 14.488 41.8247 14.68C42.0727 14.864 42.3807 14.956 42.7487 14.956C43.1327 14.956 43.4287 14.884 43.6367 14.74C43.8527 14.588 43.9607 14.396 43.9607 14.164C43.9607 13.916 43.8407 13.732 43.6007 13.612C43.3687 13.492 42.9967 13.36 42.4847 13.216C41.9887 13.08 41.5847 12.948 41.2727 12.82C40.9607 12.692 40.6887 12.496 40.4567 12.232C40.2327 11.968 40.1207 11.62 40.1207 11.188C40.1207 10.836 40.2247 10.516 40.4327 10.228C40.6407 9.932 40.9367 9.7 41.3207 9.532C41.7127 9.364 42.1607 9.28 42.6647 9.28C43.4167 9.28 44.0207 9.472 44.4767 9.856C44.9407 10.232 45.1887 10.748 45.2207 11.404H43.8527C43.8287 11.108 43.7087 10.872 43.4927 10.696C43.2767 10.52 42.9847 10.432 42.6167 10.432C42.2567 10.432 41.9807 10.5 41.7887 10.636C41.5967 10.772 41.5007 10.952 41.5007 11.176C41.5007 11.352 41.5647 11.5 41.6927 11.62C41.8207 11.74 41.9767 11.836 42.1607 11.908C42.3447 11.972 42.6167 12.056 42.9767 12.16C43.4567 12.288 43.8487 12.42 44.1527 12.556C44.4647 12.684 44.7327 12.876 44.9567 13.132C45.1807 13.388 45.2967 13.728 45.3047 14.152C45.3047 14.528 45.2007 14.864 44.9927 15.16C44.7847 15.456 44.4887 15.688 44.1047 15.856C43.7287 16.024 43.2847 16.108 42.7727 16.108ZM48.3788 10.504V14.164C48.3788 14.412 48.4348 14.592 48.5468 14.704C48.6668 14.808 48.8668 14.86 49.1468 14.86H49.9868V16H48.9068C48.2908 16 47.8188 15.856 47.4908 15.568C47.1628 15.28 46.9988 14.812 46.9988 14.164V10.504H46.2188V9.388H46.9988V7.744H48.3788V9.388H49.9868V10.504H48.3788ZM52.6157 10.348C52.8157 10.012 53.0797 9.752 53.4077 9.568C53.7437 9.376 54.1397 9.28 54.5957 9.28V10.696H54.2477C53.7117 10.696 53.3037 10.832 53.0237 11.104C52.7517 11.376 52.6157 11.848 52.6157 12.52V16H51.2477V9.388H52.6157V10.348ZM56.5491 8.512C56.3011 8.512 56.0931 8.428 55.9251 8.26C55.7571 8.092 55.6731 7.884 55.6731 7.636C55.6731 7.388 55.7571 7.18 55.9251 7.012C56.0931 6.844 56.3011 6.76 56.5491 6.76C56.7891 6.76 56.9931 6.844 57.1611 7.012C57.3291 7.18 57.4131 7.388 57.4131 7.636C57.4131 7.884 57.3291 8.092 57.1611 8.26C56.9931 8.428 56.7891 8.512 56.5491 8.512ZM57.2211 9.388V16H55.8531V9.388H57.2211ZM58.5612 12.688C58.5612 12.008 58.6972 11.412 58.9692 10.9C59.2492 10.38 59.6332 9.98 60.1212 9.7C60.6092 9.42 61.1692 9.28 61.8012 9.28C62.6012 9.28 63.2612 9.472 63.7812 9.856C64.3092 10.232 64.6652 10.772 64.8492 11.476H63.3732C63.2532 11.148 63.0612 10.892 62.7972 10.708C62.5332 10.524 62.2012 10.432 61.8012 10.432C61.2412 10.432 60.7932 10.632 60.4572 11.032C60.1292 11.424 59.9652 11.976 59.9652 12.688C59.9652 13.4 60.1292 13.956 60.4572 14.356C60.7932 14.756 61.2412 14.956 61.8012 14.956C62.5932 14.956 63.1172 14.608 63.3732 13.912H64.8492C64.6572 14.584 64.2972 15.12 63.7692 15.52C63.2412 15.912 62.5852 16.108 61.8012 16.108C61.1692 16.108 60.6092 15.968 60.1212 15.688C59.6332 15.4 59.2492 15 58.9692 14.488C58.6972 13.968 58.5612 13.368 58.5612 12.688ZM67.8085 10.504V14.164C67.8085 14.412 67.8645 14.592 67.9765 14.704C68.0965 14.808 68.2965 14.86 68.5765 14.86H69.4165V16H68.3365C67.7205 16 67.2485 15.856 66.9205 15.568C66.5925 15.28 66.4285 14.812 66.4285 14.164V10.504H65.6485V9.388H66.4285V7.744H67.8085V9.388H69.4165V10.504H67.8085ZM76.7373 12.532C76.7373 12.78 76.7213 13.004 76.6893 13.204H71.6373C71.6773 13.732 71.8733 14.156 72.2253 14.476C72.5773 14.796 73.0093 14.956 73.5213 14.956C74.2573 14.956 74.7773 14.648 75.0813 14.032H76.5573C76.3573 14.64 75.9933 15.14 75.4653 15.532C74.9453 15.916 74.2973 16.108 73.5213 16.108C72.8893 16.108 72.3213 15.968 71.8173 15.688C71.3213 15.4 70.9293 15 70.6413 14.488C70.3613 13.968 70.2213 13.368 70.2213 12.688C70.2213 12.008 70.3573 11.412 70.6293 10.9C70.9093 10.38 71.2973 9.98 71.7933 9.7C72.2973 9.42 72.8733 9.28 73.5213 9.28C74.1453 9.28 74.7013 9.416 75.1893 9.688C75.6773 9.96 76.0573 10.344 76.3293 10.84C76.6013 11.328 76.7373 11.892 76.7373 12.532ZM75.3093 12.1C75.3013 11.596 75.1213 11.192 74.7693 10.888C74.4173 10.584 73.9813 10.432 73.4613 10.432C72.9893 10.432 72.5853 10.584 72.2493 10.888C71.9133 11.184 71.7133 11.588 71.6493 12.1H75.3093ZM77.6276 12.664C77.6276 12 77.7636 11.412 78.0356 10.9C78.3156 10.388 78.6916 9.992 79.1636 9.712C79.6436 9.424 80.1756 9.28 80.7596 9.28C81.1916 9.28 81.6156 9.376 82.0316 9.568C82.4556 9.752 82.7916 10 83.0396 10.312V7.12H84.4196V16H83.0396V15.004C82.8156 15.324 82.5036 15.588 82.1036 15.796C81.7116 16.004 81.2596 16.108 80.7476 16.108C80.1716 16.108 79.6436 15.964 79.1636 15.676C78.6916 15.38 78.3156 14.972 78.0356 14.452C77.7636 13.924 77.6276 13.328 77.6276 12.664ZM83.0396 12.688C83.0396 12.232 82.9436 11.836 82.7516 11.5C82.5676 11.164 82.3236 10.908 82.0196 10.732C81.7156 10.556 81.3876 10.468 81.0356 10.468C80.6836 10.468 80.3556 10.556 80.0516 10.732C79.7476 10.9 79.4996 11.152 79.3076 11.488C79.1236 11.816 79.0316 12.208 79.0316 12.664C79.0316 13.12 79.1236 13.52 79.3076 13.864C79.4996 14.208 79.7476 14.472 80.0516 14.656C80.3636 14.832 80.6916 14.92 81.0356 14.92C81.3876 14.92 81.7156 14.832 82.0196 14.656C82.3236 14.48 82.5676 14.224 82.7516 13.888C82.9436 13.544 83.0396 13.144 83.0396 12.688ZM94.7936 8.428H90.7736V10.816C90.9416 10.592 91.1896 10.404 91.5176 10.252C91.8536 10.1 92.2096 10.024 92.5856 10.024C93.2576 10.024 93.8016 10.168 94.2176 10.456C94.6416 10.744 94.9416 11.108 95.1176 11.548C95.3016 11.988 95.3936 12.452 95.3936 12.94C95.3936 13.532 95.2776 14.06 95.0456 14.524C94.8216 14.98 94.4816 15.34 94.0256 15.604C93.5776 15.868 93.0256 16 92.3696 16C91.4976 16 90.7976 15.784 90.2696 15.352C89.7416 14.92 89.4256 14.348 89.3216 13.636H90.6536C90.7416 14.012 90.9376 14.312 91.2416 14.536C91.5456 14.752 91.9256 14.86 92.3816 14.86C92.9496 14.86 93.3736 14.688 93.6536 14.344C93.9416 14 94.0856 13.544 94.0856 12.976C94.0856 12.4 93.9416 11.96 93.6536 11.656C93.3656 11.344 92.9416 11.188 92.3816 11.188C91.9896 11.188 91.6576 11.288 91.3856 11.488C91.1216 11.68 90.9296 11.944 90.8096 12.28H89.5136V7.228H94.7936V8.428ZM101.483 7.66V16H100.115V7.66H101.483ZM109.111 10.144C109.111 10.568 109.011 10.968 108.811 11.344C108.611 11.72 108.291 12.028 107.851 12.268C107.411 12.5 106.847 12.616 106.159 12.616H104.647V16H103.279V7.66H106.159C106.799 7.66 107.339 7.772 107.779 7.996C108.227 8.212 108.559 8.508 108.775 8.884C108.999 9.26 109.111 9.68 109.111 10.144ZM106.159 11.5C106.679 11.5 107.067 11.384 107.323 11.152C107.579 10.912 107.707 10.576 107.707 10.144C107.707 9.232 107.191 8.776 106.159 8.776H104.647V11.5H106.159Z" fill="#DE4841"/>
<defs>
<clipPath id="clip0_916_1494">
<rect width="12" height="12" fill="white" transform="translate(6 6)"/>
</clipPath>
</defs>
</svg>
