<svg width="67" height="20" viewBox="0 0 67 20" fill="none" xmlns="http://www.w3.org/2000/svg">
<path d="M0 4C0 1.79086 1.79086 0 4 0H63C65.2091 0 67 1.79086 67 4V16C67 18.2091 65.2091 20 63 20H4C1.79086 20 0 18.2091 0 16V4Z" fill="#405CCE"/>
<path d="M14.216 14.5L11.892 10.51H10.352V14.5H9.078V4.742H12.228C12.9653 4.742 13.586 4.868 14.09 5.12C14.6033 5.372 14.986 5.71267 15.238 6.142C15.49 6.57133 15.616 7.06133 15.616 7.612C15.616 8.284 15.42 8.87667 15.028 9.39C14.6453 9.90333 14.0667 10.244 13.292 10.412L15.742 14.5H14.216ZM10.352 9.488H12.228C12.9187 9.488 13.4367 9.32 13.782 8.984C14.1273 8.63867 14.3 8.18133 14.3 7.612C14.3 7.03333 14.1273 6.58533 13.782 6.268C13.446 5.95067 12.928 5.792 12.228 5.792H10.352V9.488ZM20.9416 14.626C20.2229 14.626 19.5696 14.4627 18.9816 14.136C18.4029 13.8093 17.9456 13.3473 17.6096 12.75C17.2829 12.1433 17.1196 11.4433 17.1196 10.65C17.1196 9.866 17.2876 9.17533 17.6236 8.578C17.9689 7.97133 18.4356 7.50933 19.0236 7.192C19.6116 6.86533 20.2696 6.702 20.9976 6.702C21.7256 6.702 22.3836 6.86533 22.9716 7.192C23.5596 7.50933 24.0216 7.96667 24.3576 8.564C24.7029 9.16133 24.8756 9.85667 24.8756 10.65C24.8756 11.4433 24.6982 12.1433 24.3436 12.75C23.9982 13.3473 23.5269 13.8093 22.9296 14.136C22.3322 14.4627 21.6696 14.626 20.9416 14.626ZM20.9416 13.506C21.3989 13.506 21.8282 13.3987 22.2296 13.184C22.6309 12.9693 22.9529 12.6473 23.1956 12.218C23.4476 11.7887 23.5736 11.266 23.5736 10.65C23.5736 10.034 23.4522 9.51133 23.2096 9.082C22.9669 8.65267 22.6496 8.33533 22.2576 8.13C21.8656 7.91533 21.4409 7.808 20.9836 7.808C20.5169 7.808 20.0876 7.91533 19.6956 8.13C19.3129 8.33533 19.0049 8.65267 18.7716 9.082C18.5382 9.51133 18.4216 10.034 18.4216 10.65C18.4216 11.2753 18.5336 11.8027 18.7576 12.232C18.9909 12.6613 19.2989 12.9833 19.6816 13.198C20.0642 13.4033 20.4842 13.506 20.9416 13.506ZM27.8247 4.14V14.5H26.5507V4.14H27.8247ZM31.27 4.14V14.5H29.996V4.14H31.27ZM40.2453 6.828V14.5H38.9713V13.366C38.7286 13.758 38.3879 14.066 37.9493 14.29C37.5199 14.5047 37.0439 14.612 36.5213 14.612C35.9239 14.612 35.3873 14.4907 34.9113 14.248C34.4353 13.996 34.0573 13.6227 33.7773 13.128C33.5066 12.6333 33.3713 12.0313 33.3713 11.322V6.828H34.6313V11.154C34.6313 11.91 34.8226 12.4933 35.2053 12.904C35.5879 13.3053 36.1106 13.506 36.7733 13.506C37.4546 13.506 37.9913 13.296 38.3833 12.876C38.7753 12.456 38.9713 11.8447 38.9713 11.042V6.828H40.2453ZM43.6704 8.242C43.9224 7.80333 44.2957 7.43933 44.7904 7.15C45.2944 6.85133 45.8777 6.702 46.5404 6.702C47.2217 6.702 47.8377 6.86533 48.3884 7.192C48.9484 7.51867 49.387 7.98067 49.7044 8.578C50.0217 9.166 50.1804 9.852 50.1804 10.636C50.1804 11.4107 50.0217 12.1013 49.7044 12.708C49.387 13.3147 48.9484 13.786 48.3884 14.122C47.8377 14.458 47.2217 14.626 46.5404 14.626C45.887 14.626 45.3084 14.4813 44.8044 14.192C44.3097 13.8933 43.9317 13.5247 43.6704 13.086V18.14H42.3964V6.828H43.6704V8.242ZM48.8784 10.636C48.8784 10.0573 48.7617 9.55333 48.5284 9.124C48.295 8.69467 47.9777 8.368 47.5764 8.144C47.1844 7.92 46.7504 7.808 46.2744 7.808C45.8077 7.808 45.3737 7.92467 44.9724 8.158C44.5804 8.382 44.263 8.71333 44.0204 9.152C43.787 9.58133 43.6704 10.0807 43.6704 10.65C43.6704 11.2287 43.787 11.7373 44.0204 12.176C44.263 12.6053 44.5804 12.9367 44.9724 13.17C45.3737 13.394 45.8077 13.506 46.2744 13.506C46.7504 13.506 47.1844 13.394 47.5764 13.17C47.9777 12.9367 48.295 12.6053 48.5284 12.176C48.7617 11.7373 48.8784 11.224 48.8784 10.636ZM54.5733 14.626C53.9853 14.626 53.458 14.528 52.9913 14.332C52.5246 14.1267 52.156 13.8467 51.8853 13.492C51.6146 13.128 51.4653 12.7127 51.4373 12.246H52.7533C52.7906 12.6287 52.968 12.9413 53.2853 13.184C53.612 13.4267 54.0366 13.548 54.5593 13.548C55.0446 13.548 55.4273 13.4407 55.7073 13.226C55.9873 13.0113 56.1273 12.7407 56.1273 12.414C56.1273 12.078 55.978 11.8307 55.6793 11.672C55.3806 11.504 54.9186 11.3407 54.2933 11.182C53.724 11.0327 53.2573 10.8833 52.8933 10.734C52.5386 10.5753 52.2306 10.3467 51.9693 10.048C51.7173 9.74 51.5913 9.33867 51.5913 8.844C51.5913 8.452 51.708 8.09267 51.9413 7.766C52.1746 7.43933 52.506 7.18267 52.9353 6.996C53.3646 6.8 53.8546 6.702 54.4053 6.702C55.2546 6.702 55.9406 6.91667 56.4633 7.346C56.986 7.77533 57.266 8.36333 57.3033 9.11H56.0293C56.0013 8.70867 55.838 8.38667 55.5393 8.144C55.25 7.90133 54.858 7.78 54.3633 7.78C53.906 7.78 53.542 7.878 53.2713 8.074C53.0006 8.27 52.8653 8.52667 52.8653 8.844C52.8653 9.096 52.9446 9.306 53.1033 9.474C53.2713 9.63267 53.4766 9.76333 53.7193 9.866C53.9713 9.95933 54.3166 10.0667 54.7553 10.188C55.306 10.3373 55.754 10.4867 56.0993 10.636C56.4446 10.776 56.7386 10.9907 56.9813 11.28C57.2333 11.5693 57.364 11.9473 57.3733 12.414C57.3733 12.834 57.2566 13.212 57.0233 13.548C56.79 13.884 56.4586 14.15 56.0293 14.346C55.6093 14.5327 55.124 14.626 54.5733 14.626Z" fill="white"/>
</svg>
