<svg width="139" height="248" viewBox="0 0 139 248" fill="none" xmlns="http://www.w3.org/2000/svg">
<g opacity="0.7" clip-path="url(#clip0_1702_82)">
<path d="M69.1679 176.323H36.4121V193.577L139.648 247.954V139.192L69.1679 176.323Z" fill="#3D37AF"/>
<path d="M242.884 176.323L139.648 230.701L36.4121 176.323L139.648 121.938L242.884 176.323Z" fill="#403BAD"/>
<path d="M50.2644 104.342H6.06873V127.621L145.36 201V54.2524L50.2644 104.342Z" fill="#4845AB"/>
<path d="M284.651 104.342L145.36 177.721L6.06873 104.342L145.36 30.9729L284.651 104.342Z" fill="#4B49A9"/>
<path d="M69.1679 54.385H36.4121V71.6385L139.648 126.016V17.2534L69.1679 54.385Z" fill="#504FA9"/>
<path d="M242.884 54.385L139.648 108.762L36.4121 54.385L139.648 0L242.884 54.385Z" fill="#5352AB"/>
</g>
<defs>
<clipPath id="clip0_1702_82">
<rect width="139" height="248" fill="white"/>
</clipPath>
</defs>
</svg>
