<svg width="335" height="561" viewBox="0 0 335 561" fill="none" xmlns="http://www.w3.org/2000/svg">
<path d="M0 16C0 7.16346 7.16344 0 16 0H319C327.837 0 335 7.16344 335 16V545C335 553.837 327.837 561 319 561H16C7.16345 561 0 553.837 0 545V16Z" fill="url(#paint0_linear_446_433)"/>
<g opacity="0.5" clip-path="url(#clip0_446_433)">
<path d="M264.168 470.323H231.412V487.577L334.648 541.954V433.192L264.168 470.323Z" fill="#7D499B"/>
<path d="M437.884 470.323H405.129L334.648 433.192V541.954L437.884 487.577V470.323Z" fill="#703C84"/>
<path d="M437.884 470.323L334.648 524.701L231.412 470.323L334.648 415.938L437.884 470.323Z" fill="#8854A7"/>
<path d="M233.824 409.35H201.068V426.604L304.304 480.989V372.227L233.824 409.35Z" fill="#9F6BC9"/>
<path d="M407.541 409.35H374.785L304.305 372.227V480.989L407.541 426.604V409.35Z" fill="#8552A0"/>
<path d="M407.54 409.35L304.304 463.735L201.068 409.35L304.304 354.973L407.54 409.35Z" fill="#AC78D7"/>
<path d="M264.168 348.385H231.412V365.638L334.648 420.016V311.253L264.168 348.385Z" fill="#BB87ED"/>
<path d="M437.884 348.385H405.129L334.648 311.253V420.016L437.884 365.638V348.385Z" fill="#A975D4"/>
<path d="M437.884 348.385L334.648 402.762L231.412 348.385L334.648 294L437.884 348.385Z" fill="#CA96FD"/>
</g>
<defs>
<linearGradient id="paint0_linear_446_433" x1="146" y1="316" x2="326.5" y2="587.5" gradientUnits="userSpaceOnUse">
<stop stop-color="#48138C"/>
<stop offset="1" stop-color="#562360"/>
</linearGradient>
<clipPath id="clip0_446_433">
<rect width="140" height="248" fill="white" transform="translate(195 294)"/>
</clipPath>
</defs>
</svg>
