<svg width="80" height="24" viewBox="0 0 80 24" fill="none" xmlns="http://www.w3.org/2000/svg">
<rect x="0.5" y="0.5" width="79" height="23" rx="3.5" fill="#2EC589" fill-opacity="0.3"/>
<rect x="0.5" y="0.5" width="79" height="23" rx="3.5" stroke="#2EC589"/>
<path d="M16.5001 9H13.5001C13.2236 9 13.0001 9.2235 13.0001 9.5C13.0001 9.7765 13.2236 10 13.5001 10H16.2931L13.0121 13.281C12.7301 13.563 12.2711 13.563 11.9886 13.281L10.7191 12.0115C10.0471 11.3395 8.95363 11.3395 8.28163 12.0115L6.14663 14.1465C5.95112 14.342 5.95112 14.658 6.14663 14.8535C6.24413 14.951 6.37213 15 6.50013 15C6.62813 15 6.75613 14.951 6.85363 14.8535L8.98863 12.7185C9.26213 12.445 9.73863 12.445 10.0121 12.7185L11.2816 13.988C11.9536 14.66 13.0471 14.66 13.7191 13.988L17.0006 10.707V13.5C17.0006 13.7765 17.2241 14 17.5006 14C17.7771 14 18.0006 13.7765 18.0006 13.5V10.5C18.0006 9.673 17.3271 9 16.5001 9Z" fill="#2EC589"/>
<path d="M27.7073 16L25.7873 12.664H24.7433V16H23.3753V7.66H26.2553C26.8953 7.66 27.4353 7.772 27.8753 7.996C28.3233 8.22 28.6553 8.52 28.8713 8.896C29.0953 9.272 29.2073 9.692 29.2073 10.156C29.2073 10.7 29.0473 11.196 28.7273 11.644C28.4153 12.084 27.9313 12.384 27.2753 12.544L29.3393 16H27.7073ZM24.7433 11.572H26.2553C26.7673 11.572 27.1513 11.444 27.4073 11.188C27.6713 10.932 27.8033 10.588 27.8033 10.156C27.8033 9.724 27.6753 9.388 27.4193 9.148C27.1633 8.9 26.7753 8.776 26.2553 8.776H24.7433V11.572ZM36.9454 9.388V16H35.5774V15.22C35.3614 15.492 35.0774 15.708 34.7254 15.868C34.3814 16.02 34.0134 16.096 33.6214 16.096C33.1014 16.096 32.6334 15.988 32.2174 15.772C31.8094 15.556 31.4854 15.236 31.2454 14.812C31.0134 14.388 30.8974 13.876 30.8974 13.276V9.388H32.2534V13.072C32.2534 13.664 32.4014 14.12 32.6974 14.44C32.9934 14.752 33.3974 14.908 33.9094 14.908C34.4214 14.908 34.8254 14.752 35.1214 14.44C35.4254 14.12 35.5774 13.664 35.5774 13.072V9.388H36.9454ZM42.0863 9.28C42.6063 9.28 43.0703 9.388 43.4783 9.604C43.8943 9.82 44.2183 10.14 44.4503 10.564C44.6823 10.988 44.7983 11.5 44.7983 12.1V16H43.4423V12.304C43.4423 11.712 43.2943 11.26 42.9983 10.948C42.7023 10.628 42.2983 10.468 41.7863 10.468C41.2743 10.468 40.8663 10.628 40.5623 10.948C40.2663 11.26 40.1183 11.712 40.1183 12.304V16H38.7503V9.388H40.1183V10.144C40.3423 9.872 40.6263 9.66 40.9703 9.508C41.3223 9.356 41.6943 9.28 42.0863 9.28ZM49.8793 9.28C50.3993 9.28 50.8633 9.388 51.2713 9.604C51.6873 9.82 52.0113 10.14 52.2433 10.564C52.4753 10.988 52.5913 11.5 52.5913 12.1V16H51.2353V12.304C51.2353 11.712 51.0873 11.26 50.7913 10.948C50.4953 10.628 50.0913 10.468 49.5793 10.468C49.0673 10.468 48.6593 10.628 48.3553 10.948C48.0593 11.26 47.9113 11.712 47.9113 12.304V16H46.5433V9.388H47.9113V10.144C48.1353 9.872 48.4193 9.66 48.7633 9.508C49.1153 9.356 49.4873 9.28 49.8793 9.28ZM55.0323 8.512C54.7843 8.512 54.5763 8.428 54.4083 8.26C54.2403 8.092 54.1563 7.884 54.1563 7.636C54.1563 7.388 54.2403 7.18 54.4083 7.012C54.5763 6.844 54.7843 6.76 55.0323 6.76C55.2723 6.76 55.4763 6.844 55.6443 7.012C55.8123 7.18 55.8963 7.388 55.8963 7.636C55.8963 7.884 55.8123 8.092 55.6443 8.26C55.4763 8.428 55.2723 8.512 55.0323 8.512ZM55.7043 9.388V16H54.3363V9.388H55.7043ZM60.8363 9.28C61.3563 9.28 61.8203 9.388 62.2283 9.604C62.6443 9.82 62.9683 10.14 63.2003 10.564C63.4323 10.988 63.5483 11.5 63.5483 12.1V16H62.1923V12.304C62.1923 11.712 62.0443 11.26 61.7483 10.948C61.4523 10.628 61.0483 10.468 60.5363 10.468C60.0243 10.468 59.6163 10.628 59.3123 10.948C59.0163 11.26 58.8683 11.712 58.8683 12.304V16H57.5003V9.388H58.8683V10.144C59.0923 9.872 59.3763 9.66 59.7203 9.508C60.0723 9.356 60.4443 9.28 60.8363 9.28ZM67.9573 9.28C68.4693 9.28 68.9213 9.384 69.3133 9.592C69.7133 9.792 70.0253 10.044 70.2493 10.348V9.388H71.6293V16.108C71.6293 16.716 71.5013 17.256 71.2453 17.728C70.9893 18.208 70.6173 18.584 70.1293 18.856C69.6493 19.128 69.0733 19.264 68.4013 19.264C67.5053 19.264 66.7613 19.052 66.1693 18.628C65.5773 18.212 65.2413 17.644 65.1613 16.924H66.5173C66.6213 17.268 66.8413 17.544 67.1773 17.752C67.5213 17.968 67.9293 18.076 68.4013 18.076C68.9533 18.076 69.3973 17.908 69.7333 17.572C70.0773 17.236 70.2493 16.748 70.2493 16.108V15.004C70.0173 15.316 69.7013 15.58 69.3013 15.796C68.9093 16.004 68.4613 16.108 67.9573 16.108C67.3813 16.108 66.8533 15.964 66.3733 15.676C65.9013 15.38 65.5253 14.972 65.2453 14.452C64.9733 13.924 64.8373 13.328 64.8373 12.664C64.8373 12 64.9733 11.412 65.2453 10.9C65.5253 10.388 65.9013 9.992 66.3733 9.712C66.8533 9.424 67.3813 9.28 67.9573 9.28ZM70.2493 12.688C70.2493 12.232 70.1533 11.836 69.9613 11.5C69.7773 11.164 69.5333 10.908 69.2293 10.732C68.9253 10.556 68.5973 10.468 68.2453 10.468C67.8933 10.468 67.5653 10.556 67.2613 10.732C66.9573 10.9 66.7093 11.152 66.5173 11.488C66.3333 11.816 66.2413 12.208 66.2413 12.664C66.2413 13.12 66.3333 13.52 66.5173 13.864C66.7093 14.208 66.9573 14.472 67.2613 14.656C67.5733 14.832 67.9013 14.92 68.2453 14.92C68.5973 14.92 68.9253 14.832 69.2293 14.656C69.5333 14.48 69.7773 14.224 69.9613 13.888C70.1533 13.544 70.2493 13.144 70.2493 12.688Z" fill="#2EC589"/>
</svg>
