<svg width="80" height="24" viewBox="0 0 80 24" fill="none" xmlns="http://www.w3.org/2000/svg">
<rect x="0.5" y="0.5" width="79" height="23" rx="3.5" fill="#2EC589" fill-opacity="0.3"/>
<rect x="0.5" y="0.5" width="79" height="23" rx="3.5" stroke="#2EC589"/>
<path d="M16.5001 9H13.5001C13.2236 9 13.0001 9.2235 13.0001 9.5C13.0001 9.7765 13.2236 10 13.5001 10H16.2931L13.0121 13.281C12.7301 13.563 12.2711 13.563 11.9886 13.281L10.7191 12.0115C10.0471 11.3395 8.95363 11.3395 8.28163 12.0115L6.14663 14.1465C5.95112 14.342 5.95112 14.658 6.14663 14.8535C6.24413 14.951 6.37213 15 6.50013 15C6.62813 15 6.75613 14.951 6.85363 14.8535L8.98863 12.7185C9.26213 12.445 9.73863 12.445 10.0121 12.7185L11.2816 13.988C11.9536 14.66 13.0471 14.66 13.7191 13.988L17.0006 10.707V13.5C17.0006 13.7765 17.2241 14 17.5006 14C17.7771 14 18.0006 13.7765 18.0006 13.5V10.5C18.0006 9.673 17.3271 9 16.5001 9Z" fill="#2EC589"/>
<path d="M27.7072 16L25.7872 12.664H24.7432V16H23.3752V7.66H26.2552C26.8952 7.66 27.4352 7.772 27.8752 7.996C28.3232 8.22 28.6552 8.52 28.8712 8.896C29.0952 9.272 29.2072 9.692 29.2072 10.156C29.2072 10.7 29.0472 11.196 28.7272 11.644C28.4152 12.084 27.9312 12.384 27.2752 12.544L29.3392 16H27.7072ZM24.7432 11.572H26.2552C26.7672 11.572 27.1512 11.444 27.4072 11.188C27.6712 10.932 27.8032 10.588 27.8032 10.156C27.8032 9.724 27.6752 9.388 27.4192 9.148C27.1632 8.9 26.7752 8.776 26.2552 8.776H24.7432V11.572ZM36.9453 9.388V16H35.5773V15.22C35.3613 15.492 35.0773 15.708 34.7253 15.868C34.3813 16.02 34.0133 16.096 33.6213 16.096C33.1013 16.096 32.6333 15.988 32.2173 15.772C31.8093 15.556 31.4853 15.236 31.2453 14.812C31.0133 14.388 30.8973 13.876 30.8973 13.276V9.388H32.2533V13.072C32.2533 13.664 32.4013 14.12 32.6973 14.44C32.9933 14.752 33.3973 14.908 33.9093 14.908C34.4213 14.908 34.8253 14.752 35.1213 14.44C35.4253 14.12 35.5773 13.664 35.5773 13.072V9.388H36.9453ZM42.0862 9.28C42.6062 9.28 43.0702 9.388 43.4782 9.604C43.8942 9.82 44.2182 10.14 44.4502 10.564C44.6822 10.988 44.7982 11.5 44.7982 12.1V16H43.4422V12.304C43.4422 11.712 43.2942 11.26 42.9982 10.948C42.7022 10.628 42.2982 10.468 41.7862 10.468C41.2742 10.468 40.8662 10.628 40.5622 10.948C40.2662 11.26 40.1182 11.712 40.1182 12.304V16H38.7502V9.388H40.1182V10.144C40.3422 9.872 40.6262 9.66 40.9702 9.508C41.3222 9.356 41.6942 9.28 42.0862 9.28ZM49.8792 9.28C50.3992 9.28 50.8632 9.388 51.2712 9.604C51.6872 9.82 52.0112 10.14 52.2432 10.564C52.4752 10.988 52.5912 11.5 52.5912 12.1V16H51.2352V12.304C51.2352 11.712 51.0872 11.26 50.7912 10.948C50.4952 10.628 50.0912 10.468 49.5792 10.468C49.0672 10.468 48.6592 10.628 48.3552 10.948C48.0592 11.26 47.9112 11.712 47.9112 12.304V16H46.5432V9.388H47.9112V10.144C48.1352 9.872 48.4192 9.66 48.7632 9.508C49.1152 9.356 49.4872 9.28 49.8792 9.28ZM55.0322 8.512C54.7842 8.512 54.5762 8.428 54.4082 8.26C54.2402 8.092 54.1562 7.884 54.1562 7.636C54.1562 7.388 54.2402 7.18 54.4082 7.012C54.5762 6.844 54.7842 6.76 55.0322 6.76C55.2722 6.76 55.4762 6.844 55.6442 7.012C55.8122 7.18 55.8962 7.388 55.8962 7.636C55.8962 7.884 55.8122 8.092 55.6442 8.26C55.4762 8.428 55.2722 8.512 55.0322 8.512ZM55.7042 9.388V16H54.3362V9.388H55.7042ZM60.8362 9.28C61.3562 9.28 61.8202 9.388 62.2282 9.604C62.6442 9.82 62.9682 10.14 63.2002 10.564C63.4322 10.988 63.5482 11.5 63.5482 12.1V16H62.1922V12.304C62.1922 11.712 62.0442 11.26 61.7482 10.948C61.4522 10.628 61.0482 10.468 60.5362 10.468C60.0242 10.468 59.6162 10.628 59.3122 10.948C59.0162 11.26 58.8682 11.712 58.8682 12.304V16H57.5002V9.388H58.8682V10.144C59.0922 9.872 59.3762 9.66 59.7202 9.508C60.0722 9.356 60.4442 9.28 60.8362 9.28ZM67.9572 9.28C68.4692 9.28 68.9212 9.384 69.3132 9.592C69.7132 9.792 70.0252 10.044 70.2492 10.348V9.388H71.6292V16.108C71.6292 16.716 71.5012 17.256 71.2452 17.728C70.9892 18.208 70.6172 18.584 70.1292 18.856C69.6492 19.128 69.0732 19.264 68.4012 19.264C67.5052 19.264 66.7612 19.052 66.1692 18.628C65.5772 18.212 65.2412 17.644 65.1612 16.924H66.5172C66.6212 17.268 66.8412 17.544 67.1772 17.752C67.5212 17.968 67.9292 18.076 68.4012 18.076C68.9532 18.076 69.3972 17.908 69.7332 17.572C70.0772 17.236 70.2492 16.748 70.2492 16.108V15.004C70.0172 15.316 69.7012 15.58 69.3012 15.796C68.9092 16.004 68.4612 16.108 67.9572 16.108C67.3812 16.108 66.8532 15.964 66.3732 15.676C65.9012 15.38 65.5252 14.972 65.2452 14.452C64.9732 13.924 64.8372 13.328 64.8372 12.664C64.8372 12 64.9732 11.412 65.2452 10.9C65.5252 10.388 65.9012 9.992 66.3732 9.712C66.8532 9.424 67.3812 9.28 67.9572 9.28ZM70.2492 12.688C70.2492 12.232 70.1532 11.836 69.9612 11.5C69.7772 11.164 69.5332 10.908 69.2292 10.732C68.9252 10.556 68.5972 10.468 68.2452 10.468C67.8932 10.468 67.5652 10.556 67.2612 10.732C66.9572 10.9 66.7092 11.152 66.5172 11.488C66.3332 11.816 66.2412 12.208 66.2412 12.664C66.2412 13.12 66.3332 13.52 66.5172 13.864C66.7092 14.208 66.9572 14.472 67.2612 14.656C67.5732 14.832 67.9012 14.92 68.2452 14.92C68.5972 14.92 68.9252 14.832 69.2292 14.656C69.5332 14.48 69.7772 14.224 69.9612 13.888C70.1532 13.544 70.2492 13.144 70.2492 12.688Z" fill="#2EC589"/>
</svg>
