<svg width="79" height="24" viewBox="0 0 79 24" fill="none" xmlns="http://www.w3.org/2000/svg">
<rect x="0.5" y="0.5" width="78" height="23" rx="3.5" fill="#0BB63B" fill-opacity="0.3"/>
<rect x="0.5" y="0.5" width="78" height="23" rx="3.5" stroke="#0BB63B"/>
<path d="M11.2451 7.11503L8.75008 8.05503C8.17508 8.27003 7.70508 8.95003 7.70508 9.56003V13.275C7.70508 13.865 8.09508 14.64 8.57008 14.995L10.7201 16.6C11.4251 17.13 12.5851 17.13 13.2901 16.6L15.4401 14.995C15.9151 14.64 16.3051 13.865 16.3051 13.275V9.56003C16.3051 8.94503 15.8351 8.26503 15.2601 8.05003L12.7651 7.11503C12.3401 6.96003 11.6601 6.96003 11.2451 7.11503Z" stroke="#0BB63A" stroke-linecap="round" stroke-linejoin="round"/>
<path d="M10.5249 11.935L11.3299 12.74L13.4799 10.59" stroke="#0BB63A" stroke-linecap="round" stroke-linejoin="round"/>
<path d="M28.9044 13.684C28.9044 14.116 28.7964 14.516 28.5804 14.884C28.3644 15.244 28.0444 15.536 27.6204 15.76C27.1964 15.976 26.6804 16.084 26.0724 16.084C25.4724 16.084 24.9364 15.984 24.4644 15.784C23.9924 15.576 23.6124 15.28 23.3244 14.896C23.0444 14.512 22.8844 14.064 22.8444 13.552H24.6444C24.6844 13.896 24.8204 14.184 25.0524 14.416C25.2924 14.64 25.6084 14.752 26.0004 14.752C26.3524 14.752 26.6204 14.66 26.8044 14.476C26.9964 14.284 27.0924 14.04 27.0924 13.744C27.0924 13.48 27.0164 13.264 26.8644 13.096C26.7124 12.92 26.5204 12.78 26.2884 12.676C26.0564 12.572 25.7364 12.452 25.3284 12.316C24.8004 12.14 24.3684 11.968 24.0324 11.8C23.6964 11.624 23.4084 11.372 23.1684 11.044C22.9364 10.716 22.8204 10.288 22.8204 9.76C22.8204 9.032 23.0804 8.46 23.6004 8.044C24.1284 7.62 24.8244 7.408 25.6884 7.408C26.5844 7.408 27.2964 7.624 27.8244 8.056C28.3604 8.488 28.6644 9.064 28.7364 9.784H26.9124C26.8644 9.48 26.7364 9.232 26.5284 9.04C26.3204 8.84 26.0364 8.74 25.6764 8.74C25.3644 8.74 25.1124 8.824 24.9204 8.992C24.7284 9.152 24.6324 9.388 24.6324 9.7C24.6324 9.948 24.7044 10.156 24.8484 10.324C25.0004 10.484 25.1884 10.616 25.4124 10.72C25.6444 10.824 25.9564 10.94 26.3484 11.068C26.8924 11.26 27.3324 11.44 27.6684 11.608C28.0124 11.776 28.3044 12.028 28.5444 12.364C28.7844 12.7 28.9044 13.14 28.9044 13.684ZM36.4028 12.424C36.4028 12.592 36.3828 12.784 36.3428 13H31.4708C31.4948 13.592 31.6548 14.028 31.9508 14.308C32.2468 14.588 32.6148 14.728 33.0548 14.728C33.4468 14.728 33.7708 14.632 34.0268 14.44C34.2908 14.248 34.4588 13.988 34.5308 13.66H36.3188C36.2308 14.124 36.0428 14.54 35.7548 14.908C35.4668 15.276 35.0948 15.564 34.6388 15.772C34.1908 15.98 33.6908 16.084 33.1388 16.084C32.4908 16.084 31.9148 15.948 31.4108 15.676C30.9068 15.396 30.5148 15 30.2348 14.488C29.9548 13.976 29.8148 13.372 29.8148 12.676C29.8148 11.98 29.9548 11.376 30.2348 10.864C30.5148 10.344 30.9068 9.948 31.4108 9.676C31.9148 9.404 32.4908 9.268 33.1388 9.268C33.7948 9.268 34.3668 9.404 34.8548 9.676C35.3508 9.948 35.7308 10.324 35.9948 10.804C36.2668 11.276 36.4028 11.816 36.4028 12.424ZM34.6988 12.256C34.7228 11.712 34.5788 11.3 34.2668 11.02C33.9628 10.74 33.5868 10.6 33.1388 10.6C32.6828 10.6 32.2988 10.74 31.9868 11.02C31.6748 11.3 31.5028 11.712 31.4708 12.256H34.6988ZM40.5919 9.268C41.4479 9.268 42.1599 9.5 42.7279 9.964C43.3039 10.428 43.6639 11.06 43.8079 11.86H42.0199C41.9479 11.508 41.7839 11.232 41.5279 11.032C41.2719 10.824 40.9479 10.72 40.5559 10.72C40.1079 10.72 39.7319 10.888 39.4279 11.224C39.1319 11.552 38.9839 12.036 38.9839 12.676C38.9839 13.316 39.1319 13.804 39.4279 14.14C39.7319 14.468 40.1079 14.632 40.5559 14.632C40.9479 14.632 41.2719 14.532 41.5279 14.332C41.7839 14.124 41.9479 13.844 42.0199 13.492H43.8079C43.6639 14.292 43.3039 14.924 42.7279 15.388C42.1599 15.852 41.4479 16.084 40.5919 16.084C39.9439 16.084 39.3679 15.948 38.8639 15.676C38.3599 15.396 37.9679 15 37.6879 14.488C37.4079 13.976 37.2679 13.372 37.2679 12.676C37.2679 11.98 37.4079 11.376 37.6879 10.864C37.9679 10.344 38.3599 9.948 38.8639 9.676C39.3679 9.404 39.9439 9.268 40.5919 9.268ZM51.3702 9.352V16H49.6782V14.656C49.5022 15.104 49.2102 15.456 48.8022 15.712C48.4022 15.96 47.9382 16.084 47.4102 16.084C46.6422 16.084 46.0302 15.832 45.5742 15.328C45.1182 14.824 44.8902 14.12 44.8902 13.216V9.352H46.5702V13.024C46.5702 13.552 46.7062 13.964 46.9782 14.26C47.2502 14.548 47.6182 14.692 48.0822 14.692C48.5702 14.692 48.9582 14.536 49.2462 14.224C49.5342 13.912 49.6782 13.464 49.6782 12.88V9.352H51.3702ZM54.6006 10.624C54.8486 10.2 55.1766 9.868 55.5846 9.628C55.9926 9.38 56.4486 9.256 56.9526 9.256V11.068H56.4606C55.2206 11.068 54.6006 11.644 54.6006 12.796V16H52.9086V9.352H54.6006V10.624ZM64.1411 12.424C64.1411 12.592 64.1211 12.784 64.0811 13H59.2091C59.2331 13.592 59.3931 14.028 59.6891 14.308C59.9851 14.588 60.3531 14.728 60.7931 14.728C61.1851 14.728 61.5091 14.632 61.7651 14.44C62.0291 14.248 62.1971 13.988 62.2691 13.66H64.0571C63.9691 14.124 63.7811 14.54 63.4931 14.908C63.2051 15.276 62.8331 15.564 62.3771 15.772C61.9291 15.98 61.4291 16.084 60.8771 16.084C60.2291 16.084 59.6531 15.948 59.1491 15.676C58.6451 15.396 58.2531 15 57.9731 14.488C57.6931 13.976 57.5531 13.372 57.5531 12.676C57.5531 11.98 57.6931 11.376 57.9731 10.864C58.2531 10.344 58.6451 9.948 59.1491 9.676C59.6531 9.404 60.2291 9.268 60.8771 9.268C61.5331 9.268 62.1051 9.404 62.5931 9.676C63.0891 9.948 63.4691 10.324 63.7331 10.804C64.0051 11.276 64.1411 11.816 64.1411 12.424ZM62.4371 12.256C62.4611 11.712 62.3171 11.3 62.0051 11.02C61.7011 10.74 61.3251 10.6 60.8771 10.6C60.4211 10.6 60.0371 10.74 59.7251 11.02C59.4131 11.3 59.2411 11.712 59.2091 12.256H62.4371ZM67.9462 9.268C68.5062 9.268 68.9822 9.4 69.3742 9.664C69.7742 9.928 70.0622 10.284 70.2382 10.732V7.12H71.9182V16H70.2382V14.608C70.0622 15.056 69.7742 15.416 69.3742 15.688C68.9822 15.952 68.5062 16.084 67.9462 16.084C67.3862 16.084 66.8822 15.948 66.4342 15.676C65.9862 15.404 65.6342 15.012 65.3782 14.5C65.1302 13.98 65.0062 13.372 65.0062 12.676C65.0062 11.98 65.1302 11.376 65.3782 10.864C65.6342 10.344 65.9862 9.948 66.4342 9.676C66.8822 9.404 67.3862 9.268 67.9462 9.268ZM68.4742 10.744C67.9462 10.744 67.5222 10.916 67.2022 11.26C66.8822 11.604 66.7222 12.076 66.7222 12.676C66.7222 13.276 66.8822 13.748 67.2022 14.092C67.5222 14.428 67.9462 14.596 68.4742 14.596C68.9862 14.596 69.4062 14.424 69.7342 14.08C70.0702 13.728 70.2382 13.26 70.2382 12.676C70.2382 12.084 70.0702 11.616 69.7342 11.272C69.4062 10.92 68.9862 10.744 68.4742 10.744Z" fill="#0BB63A"/>
</svg>
