<svg width="62" height="24" viewBox="0 0 62 24" fill="none" xmlns="http://www.w3.org/2000/svg">
<rect x="0.5" y="0.5" width="61" height="23" rx="3.5" fill="#0BB63B" fill-opacity="0.3"/>
<rect x="0.5" y="0.5" width="61" height="23" rx="3.5" stroke="#0BB63B"/>
<path d="M9.75738 16.084C9.19738 16.084 8.69338 15.988 8.24538 15.796C7.79738 15.596 7.44538 15.316 7.18938 14.956C6.93338 14.596 6.80538 14.176 6.80538 13.696H8.26938C8.30138 14.056 8.44138 14.352 8.68938 14.584C8.94538 14.816 9.30138 14.932 9.75738 14.932C10.2294 14.932 10.5974 14.82 10.8614 14.596C11.1254 14.364 11.2574 14.068 11.2574 13.708C11.2574 13.428 11.1734 13.2 11.0054 13.024C10.8454 12.848 10.6414 12.712 10.3934 12.616C10.1534 12.52 9.81738 12.416 9.38538 12.304C8.84138 12.16 8.39738 12.016 8.05338 11.872C7.71738 11.72 7.42938 11.488 7.18938 11.176C6.94938 10.864 6.82938 10.448 6.82938 9.928C6.82938 9.448 6.94938 9.028 7.18938 8.668C7.42938 8.308 7.76538 8.032 8.19738 7.84C8.62938 7.648 9.12938 7.552 9.69738 7.552C10.5054 7.552 11.1654 7.756 11.6774 8.164C12.1974 8.564 12.4854 9.116 12.5414 9.82H11.0294C11.0054 9.516 10.8614 9.256 10.5974 9.04C10.3334 8.824 9.98538 8.716 9.55338 8.716C9.16138 8.716 8.84138 8.816 8.59338 9.016C8.34538 9.216 8.22138 9.504 8.22138 9.88C8.22138 10.136 8.29738 10.348 8.44938 10.516C8.60938 10.676 8.80938 10.804 9.04938 10.9C9.28938 10.996 9.61738 11.1 10.0334 11.212C10.5854 11.364 11.0334 11.516 11.3774 11.668C11.7294 11.82 12.0254 12.056 12.2654 12.376C12.5134 12.688 12.6374 13.108 12.6374 13.636C12.6374 14.06 12.5214 14.46 12.2894 14.836C12.0654 15.212 11.7334 15.516 11.2934 15.748C10.8614 15.972 10.3494 16.084 9.75738 16.084ZM20.3116 12.532C20.3116 12.78 20.2956 13.004 20.2636 13.204H15.2116C15.2516 13.732 15.4476 14.156 15.7996 14.476C16.1516 14.796 16.5836 14.956 17.0956 14.956C17.8316 14.956 18.3516 14.648 18.6556 14.032H20.1316C19.9316 14.64 19.5676 15.14 19.0396 15.532C18.5196 15.916 17.8716 16.108 17.0956 16.108C16.4636 16.108 15.8956 15.968 15.3916 15.688C14.8956 15.4 14.5036 15 14.2156 14.488C13.9356 13.968 13.7956 13.368 13.7956 12.688C13.7956 12.008 13.9316 11.412 14.2036 10.9C14.4836 10.38 14.8716 9.98 15.3676 9.7C15.8716 9.42 16.4476 9.28 17.0956 9.28C17.7196 9.28 18.2756 9.416 18.7636 9.688C19.2516 9.96 19.6316 10.344 19.9036 10.84C20.1756 11.328 20.3116 11.892 20.3116 12.532ZM18.8836 12.1C18.8756 11.596 18.6956 11.192 18.3436 10.888C17.9916 10.584 17.5556 10.432 17.0356 10.432C16.5636 10.432 16.1596 10.584 15.8236 10.888C15.4876 11.184 15.2876 11.588 15.2236 12.1H18.8836ZM21.2018 12.688C21.2018 12.008 21.3378 11.412 21.6098 10.9C21.8898 10.38 22.2738 9.98 22.7618 9.7C23.2498 9.42 23.8098 9.28 24.4418 9.28C25.2418 9.28 25.9018 9.472 26.4218 9.856C26.9498 10.232 27.3058 10.772 27.4898 11.476H26.0138C25.8938 11.148 25.7018 10.892 25.4378 10.708C25.1738 10.524 24.8418 10.432 24.4418 10.432C23.8818 10.432 23.4338 10.632 23.0978 11.032C22.7698 11.424 22.6058 11.976 22.6058 12.688C22.6058 13.4 22.7698 13.956 23.0978 14.356C23.4338 14.756 23.8818 14.956 24.4418 14.956C25.2338 14.956 25.7578 14.608 26.0138 13.912H27.4898C27.2978 14.584 26.9378 15.12 26.4098 15.52C25.8818 15.912 25.2258 16.108 24.4418 16.108C23.8098 16.108 23.2498 15.968 22.7618 15.688C22.2738 15.4 21.8898 15 21.6098 14.488C21.3378 13.968 21.2018 13.368 21.2018 12.688ZM34.8411 9.388V16H33.4731V15.22C33.2571 15.492 32.9731 15.708 32.6211 15.868C32.2771 16.02 31.9091 16.096 31.5171 16.096C30.9971 16.096 30.5291 15.988 30.1131 15.772C29.7051 15.556 29.3811 15.236 29.1411 14.812C28.9091 14.388 28.7931 13.876 28.7931 13.276V9.388H30.1491V13.072C30.1491 13.664 30.2971 14.12 30.5931 14.44C30.8891 14.752 31.2931 14.908 31.8051 14.908C32.3171 14.908 32.7211 14.752 33.0171 14.44C33.3211 14.12 33.4731 13.664 33.4731 13.072V9.388H34.8411ZM38.0141 10.348C38.2141 10.012 38.4781 9.752 38.8061 9.568C39.1421 9.376 39.5381 9.28 39.9941 9.28V10.696H39.6461C39.1101 10.696 38.7021 10.832 38.4221 11.104C38.1501 11.376 38.0141 11.848 38.0141 12.52V16H36.6461V9.388H38.0141V10.348ZM47.3116 12.532C47.3116 12.78 47.2956 13.004 47.2636 13.204H42.2116C42.2516 13.732 42.4476 14.156 42.7996 14.476C43.1516 14.796 43.5836 14.956 44.0956 14.956C44.8316 14.956 45.3516 14.648 45.6556 14.032H47.1316C46.9316 14.64 46.5676 15.14 46.0396 15.532C45.5196 15.916 44.8716 16.108 44.0956 16.108C43.4636 16.108 42.8956 15.968 42.3916 15.688C41.8956 15.4 41.5036 15 41.2156 14.488C40.9356 13.968 40.7956 13.368 40.7956 12.688C40.7956 12.008 40.9316 11.412 41.2036 10.9C41.4836 10.38 41.8716 9.98 42.3676 9.7C42.8716 9.42 43.4476 9.28 44.0956 9.28C44.7196 9.28 45.2756 9.416 45.7636 9.688C46.2516 9.96 46.6316 10.344 46.9036 10.84C47.1756 11.328 47.3116 11.892 47.3116 12.532ZM45.8836 12.1C45.8756 11.596 45.6956 11.192 45.3436 10.888C44.9916 10.584 44.5556 10.432 44.0356 10.432C43.5636 10.432 43.1596 10.584 42.8236 10.888C42.4876 11.184 42.2876 11.588 42.2236 12.1H45.8836ZM48.2018 12.664C48.2018 12 48.3378 11.412 48.6098 10.9C48.8898 10.388 49.2658 9.992 49.7378 9.712C50.2178 9.424 50.7498 9.28 51.3338 9.28C51.7658 9.28 52.1898 9.376 52.6058 9.568C53.0298 9.752 53.3658 10 53.6138 10.312V7.12H54.9938V16H53.6138V15.004C53.3898 15.324 53.0778 15.588 52.6778 15.796C52.2858 16.004 51.8338 16.108 51.3218 16.108C50.7458 16.108 50.2178 15.964 49.7378 15.676C49.2658 15.38 48.8898 14.972 48.6098 14.452C48.3378 13.924 48.2018 13.328 48.2018 12.664ZM53.6138 12.688C53.6138 12.232 53.5178 11.836 53.3258 11.5C53.1418 11.164 52.8978 10.908 52.5938 10.732C52.2898 10.556 51.9618 10.468 51.6098 10.468C51.2578 10.468 50.9298 10.556 50.6258 10.732C50.3218 10.9 50.0738 11.152 49.8818 11.488C49.6978 11.816 49.6058 12.208 49.6058 12.664C49.6058 13.12 49.6978 13.52 49.8818 13.864C50.0738 14.208 50.3218 14.472 50.6258 14.656C50.9378 14.832 51.2658 14.92 51.6098 14.92C51.9618 14.92 52.2898 14.832 52.5938 14.656C52.8978 14.48 53.1418 14.224 53.3258 13.888C53.5178 13.544 53.6138 13.144 53.6138 12.688Z" fill="#0BB63B"/>
</svg>
