<svg width="12" height="12" viewBox="0 0 12 12" fill="none" xmlns="http://www.w3.org/2000/svg">
<path d="M8.5 5C6.57 5 5 6.5705 5 8.5C5 10.4295 6.57 12 8.5 12C10.43 12 12 10.4295 12 8.5C12 6.5705 10.43 5 8.5 5ZM8.5 11C7.1215 11 6 9.8785 6 8.5C6 7.1215 7.1215 6 8.5 6C9.8785 6 11 7.1215 11 8.5C11 9.8785 9.8785 11 8.5 11ZM8 8V7C8 6.7235 8.224 6.5 8.5 6.5C8.776 6.5 9 6.7235 9 7V8C9 8.2765 8.776 8.5 8.5 8.5C8.224 8.5 8 8.2765 8 8ZM9.25 9.75C9.25 10.164 8.914 10.5 8.5 10.5C8.086 10.5 7.75 10.164 7.75 9.75C7.75 9.336 8.086 9 8.5 9C8.914 9 9.25 9.336 9.25 9.75ZM5.1975 11.7235C5.11 11.899 4.9335 12 4.7495 12C4.6745 12 4.598 11.983 4.5265 11.9475C3.7705 11.5695 0 9.5115 0 6.097V3.4365C0 2.3565 0.6885 1.403 1.713 1.063L4.8425 0.0255C4.945 -0.0085 5.055 -0.0085 5.1575 0.0255L8.287 1.063C9.3115 1.403 10 2.3565 10 3.436V3.5C10 3.7765 9.776 4 9.5 4C9.224 4 9 3.7765 9 3.5V3.436C9 2.7885 8.587 2.2165 7.972 2.012L5 1.0265L2.028 2.012C1.413 2.216 1 2.7885 1 3.436V6.0965C1 8.9225 4.31 10.721 4.9735 11.0525C5.2205 11.176 5.3205 11.4765 5.197 11.7235H5.1975Z" fill="#DE4841"/>
</svg>
