<?xml version="1.0" encoding="UTF-8"?>
<svg id="Layer_1" data-name="Layer 1" xmlns="http://www.w3.org/2000/svg" viewBox="0 0 100 100">
  <defs>
    <style>
      .cls-1 {
        fill: #0c0c4f;
      }

      .cls-1, .cls-2, .cls-3 {
        fill-rule: evenodd;
        stroke-width: 0px;
      }

      .cls-2 {
        fill: #fafafa;
      }

      .cls-3 {
        fill: #ec796b;
      }
    </style>
  </defs>
  <path class="cls-1" d="m4.0075385939,50.0001376235c0,25.4008971649,20.5909522659,45.991563201,45.9917872469,45.991563201,25.4007239383,0,45.9931355653-20.5906660361,45.9931355653-45.991563201,0-25.4008372018-20.592411627-45.991838448-45.9931355653-45.991838448C24.5984908598,4.0082991755,4.0075385939,24.5993004217,4.0075385939,50.0001376235Z"/>
  <path class="cls-2" d="m29.7133786806,39.1649484166l1.1353158884-3.5075383906c.2307777774-.7134070115.7938085732-1.2685204644,1.509833971-1.4874211168l3.5247144721-1.0839075701c.4878704486-.1490392619.4918280096-.8373550698.0079173429-.9942539325l-3.5088775653-1.1353736306c-.7120678368-.2307200352-1.2672390318-.7938085731-1.4874211169-1.5097762288l-1.0826283584-3.5247144721c-.1489792988-.4865890161-.8372951068-.4918857518-.9942517116-.0065781683l-1.1353158884,3.5075383906c-.2307777773.7120700577-.7938085731,1.2671812897-1.5098361919,1.4874211168l-3.5247122513,1.0825706162c-.4878693382.1503184735-.4931671843.837352849-.007917343.9942517116l3.5088775653,1.1353158884c.7120678368.2307777773,1.2672390319.7951477478,1.4874211168,1.5111731457l1.0826283584,3.5233752974c.1489792988.4879281908.8372951068.4931671843.9942517116.007917343Z"/>
  <path class="cls-3" d="m85.4246629685,37.1235220529c-1.4525448325-1.6248741857-3.7207292286-2.5397747995-5.9254593967-2.9149347088-2.2221949605-.3603135032-4.5526742992-.3268940988-6.7463401748.0628768061-4.4391487066.7508994614-8.4719345113,2.5889689268-11.9893712463,4.8565159379-1.8265987567,1.1128430712-3.384292122,2.4005739189-4.9981020153,3.7119435319-.7775652502.6632801257-1.4864883583,1.3695293262-2.2248155677,2.0657047349l-2.0173834031,2.0072518691c-2.1920357691,2.2913567822-4.3526908773,4.3783106441-6.4431981049,6.1081512526-2.0989464711,1.7219254865-4.0613104479,3.0296839916-5.9952075237,3.9428945358-1.9326733855.9179853794-4.0006478328,1.4578437891-6.6961000254,1.5443016183-2.6717556851.0941952831-5.8327787357-.3880275349-9.2139838713-1.1839281521-3.3993683865-.7924094354-6.9690840144-1.9219044666-10.9581473197-2.8938032871,1.391883883,3.8614469522,3.4878610728,7.2737440377,6.1788871043,10.3928484772,2.7225810294,3.0651954401,6.1222992003,5.8590958505,10.4896077358,7.6964657469,4.304256282,1.8781225594,9.7133228077,2.5522893093,14.770981453,1.5352183273,5.0710526132-.9763227608,9.5211456862-3.3231031646,13.11822223-6.0366619764,3.6063375032-2.7415015913,6.5239483405-5.8643326232,8.9836724732-9.1113449029.6788261007-.8969716629,1.0380358397-1.3990444701,1.5293996909-2.1001679405l1.358234065-2.0117335516c.9437161888-1.2443620193,1.8030221753-2.6611644345,2.7374241042-3.8940535242,1.8315512601-2.5820976058,3.6369008899-5.1611704091,5.7350878291-7.5373549141,1.0560824958-1.205177279,2.1697961415-2.3579579598,3.4843726671-3.465795227.6561200938-.5407312051,1.364057143-1.0699361803,2.1488357256-1.546626852.7964247386-.5141853425,1.6376840691-.9166484255,2.6733835708-1.2277678014Z"/>
  <path class="cls-2" d="m85.4246629685,37.1233488263c-1.5608336523-3.9389969378-4.4630184408-7.2548223653-8.3578226135-9.7015633881-3.8721026076-2.4199042283-9.2491488666-3.6548320616-14.5772919302-2.6021274841-2.6326886501.5091195755-5.1830635836,1.4892821921-7.4210310461,2.7945377953-2.2279602964,1.300132094-4.2243832835,2.8651009756-5.9527092699,4.5440596082-.8627971683.8423031316-1.645950086,1.7209327649-2.4239817154,2.6045704231l-2.0165661289,2.5710399759-3.1146227571,4.1386250231c-3.9706663096,5.3248828505-8.2465112119,11.5653081415-15.2634535102,13.4144396785-6.8885680788,1.8152457533-9.8762757172.2076053913-14.0806296776-.456607493.7687734461,1.9847812727,1.7209921728,3.9122156647,3.0119843439,5.6078240364,1.2668892474,1.729956093,2.7632759501,3.3547725365,4.6237005275,4.7473543227.9401683752.6689299772,1.9327910908,1.3291275581,3.0352727696,1.8891868519,1.0974148015.5408489104,2.2808765743,1.0170754237,3.544098082,1.3756988574,2.5127048153.6887222242,5.3415925528.9297470199,8.0805912421.5594774301,2.740277901-.365610239,5.3595215036-1.2342260436,7.6490172105-2.3875330667,2.3063786358-1.1422427307,4.3154915801-2.5336607896,6.1094926482-4.0019292653,3.5661622622-2.9616814555,6.3400350151-6.2339048649,8.6831465688-9.541577539,1.1785714533-1.6537497237,2.2483921492-3.3387068818,3.2378135043-5.0241259773l1.1645401004-2.0065545211c.3560072682-.586549635.716145324-1.176710378,1.0821064578-1.7262916846,1.4752508393-2.2082213499,2.9184858536-3.9788146214,4.6714411061-5.3078244743,1.728499213-1.3632976111,4.1358289684-2.3706501379,7.3523933458-2.6046303861,3.2031726304-.2368318242,6.9012002939.2006208068,10.9625107418,1.1139512771Z"/>
  <path class="cls-3" d="m68.0948095962,69.8516636178c0,2.8928705286,2.3467848455,5.2396509324,5.2396509324,5.2396509324,2.8934523922,0,5.236746056-2.3467804038,5.236746056-5.2396509324s-2.3432936637-5.2396509324-5.236746056-5.2396509324c-2.8928660869,0-5.2396509324,2.3467804038-5.2396509324,5.2396509324Z"/>
</svg>