<svg width="80" height="24" viewBox="0 0 80 24" fill="none" xmlns="http://www.w3.org/2000/svg">
<rect x="0.5" y="0.5" width="79" height="23" rx="3.5" fill="#FF4848" fill-opacity="0.3"/>
<rect x="0.5" y="0.5" width="79" height="23" rx="3.5" stroke="#FF4848"/>
<path d="M16.5001 15H13.5001C13.2236 15 13.0001 14.7765 13.0001 14.5C13.0001 14.2235 13.2236 14 13.5001 14H16.2931L13.0121 10.719C12.7301 10.437 12.2711 10.437 11.9886 10.719L10.7191 11.9885C10.0471 12.6605 8.95363 12.6605 8.28163 11.9885L6.14663 9.8535C5.95112 9.658 5.95112 9.342 6.14663 9.1465C6.24413 9.049 6.37213 9 6.50013 9C6.62813 9 6.75613 9.049 6.85363 9.1465L8.98863 11.2815C9.26213 11.555 9.73863 11.555 10.0121 11.2815L11.2816 10.012C11.9536 9.34 13.0471 9.34 13.7191 10.012L17.0006 13.293V10.5C17.0006 10.2235 17.2241 10 17.5006 10C17.7771 10 18.0006 10.2235 18.0006 10.5V13.5C18.0006 14.327 17.3271 15 16.5001 15Z" fill="#FF4848"/>
<path d="M26.0666 16.084C25.5066 16.084 25.0026 15.988 24.5546 15.796C24.1066 15.596 23.7546 15.316 23.4986 14.956C23.2426 14.596 23.1146 14.176 23.1146 13.696H24.5786C24.6106 14.056 24.7506 14.352 24.9986 14.584C25.2546 14.816 25.6106 14.932 26.0666 14.932C26.5386 14.932 26.9066 14.82 27.1706 14.596C27.4346 14.364 27.5666 14.068 27.5666 13.708C27.5666 13.428 27.4826 13.2 27.3146 13.024C27.1546 12.848 26.9506 12.712 26.7026 12.616C26.4626 12.52 26.1266 12.416 25.6946 12.304C25.1506 12.16 24.7066 12.016 24.3626 11.872C24.0266 11.72 23.7386 11.488 23.4986 11.176C23.2586 10.864 23.1386 10.448 23.1386 9.928C23.1386 9.448 23.2586 9.028 23.4986 8.668C23.7386 8.308 24.0746 8.032 24.5066 7.84C24.9386 7.648 25.4386 7.552 26.0066 7.552C26.8146 7.552 27.4746 7.756 27.9866 8.164C28.5066 8.564 28.7946 9.116 28.8506 9.82H27.3386C27.3146 9.516 27.1706 9.256 26.9066 9.04C26.6426 8.824 26.2946 8.716 25.8626 8.716C25.4706 8.716 25.1506 8.816 24.9026 9.016C24.6546 9.216 24.5306 9.504 24.5306 9.88C24.5306 10.136 24.6066 10.348 24.7586 10.516C24.9186 10.676 25.1186 10.804 25.3586 10.9C25.5986 10.996 25.9266 11.1 26.3426 11.212C26.8946 11.364 27.3426 11.516 27.6866 11.668C28.0386 11.82 28.3346 12.056 28.5746 12.376C28.8226 12.688 28.9466 13.108 28.9466 13.636C28.9466 14.06 28.8306 14.46 28.5986 14.836C28.3746 15.212 28.0426 15.516 27.6026 15.748C27.1706 15.972 26.6586 16.084 26.0666 16.084ZM32.1568 10.504V14.164C32.1568 14.412 32.2128 14.592 32.3248 14.704C32.4448 14.808 32.6448 14.86 32.9248 14.86H33.7648V16H32.6848C32.0688 16 31.5968 15.856 31.2688 15.568C30.9408 15.28 30.7768 14.812 30.7768 14.164V10.504H29.9968V9.388H30.7768V7.744H32.1568V9.388H33.7648V10.504H32.1568ZM37.8936 16.108C37.2696 16.108 36.7056 15.968 36.2016 15.688C35.6976 15.4 35.3016 15 35.0136 14.488C34.7256 13.968 34.5816 13.368 34.5816 12.688C34.5816 12.016 34.7296 11.42 35.0256 10.9C35.3216 10.38 35.7256 9.98 36.2376 9.7C36.7496 9.42 37.3216 9.28 37.9536 9.28C38.5856 9.28 39.1576 9.42 39.6696 9.7C40.1816 9.98 40.5856 10.38 40.8816 10.9C41.1776 11.42 41.3256 12.016 41.3256 12.688C41.3256 13.36 41.1736 13.956 40.8696 14.476C40.5656 14.996 40.1496 15.4 39.6216 15.688C39.1016 15.968 38.5256 16.108 37.8936 16.108ZM37.8936 14.92C38.2456 14.92 38.5736 14.836 38.8776 14.668C39.1896 14.5 39.4416 14.248 39.6336 13.912C39.8256 13.576 39.9216 13.168 39.9216 12.688C39.9216 12.208 39.8296 11.804 39.6456 11.476C39.4616 11.14 39.2176 10.888 38.9136 10.72C38.6096 10.552 38.2816 10.468 37.9296 10.468C37.5776 10.468 37.2496 10.552 36.9456 10.72C36.6496 10.888 36.4136 11.14 36.2376 11.476C36.0616 11.804 35.9736 12.208 35.9736 12.688C35.9736 13.4 36.1536 13.952 36.5136 14.344C36.8816 14.728 37.3416 14.92 37.8936 14.92ZM44.046 10.36C44.278 10.056 44.594 9.8 44.994 9.592C45.394 9.384 45.846 9.28 46.35 9.28C46.926 9.28 47.45 9.424 47.922 9.712C48.402 9.992 48.778 10.388 49.05 10.9C49.322 11.412 49.458 12 49.458 12.664C49.458 13.328 49.322 13.924 49.05 14.452C48.778 14.972 48.402 15.38 47.922 15.676C47.45 15.964 46.926 16.108 46.35 16.108C45.846 16.108 45.398 16.008 45.006 15.808C44.614 15.6 44.294 15.344 44.046 15.04V19.144H42.678V9.388H44.046V10.36ZM48.066 12.664C48.066 12.208 47.97 11.816 47.778 11.488C47.594 11.152 47.346 10.9 47.034 10.732C46.73 10.556 46.402 10.468 46.05 10.468C45.706 10.468 45.378 10.556 45.066 10.732C44.762 10.908 44.514 11.164 44.322 11.5C44.138 11.836 44.046 12.232 44.046 12.688C44.046 13.144 44.138 13.544 44.322 13.888C44.514 14.224 44.762 14.48 45.066 14.656C45.378 14.832 45.706 14.92 46.05 14.92C46.402 14.92 46.73 14.832 47.034 14.656C47.346 14.472 47.594 14.208 47.778 13.864C47.97 13.52 48.066 13.12 48.066 12.664ZM52.1788 10.36C52.4108 10.056 52.7268 9.8 53.1268 9.592C53.5268 9.384 53.9788 9.28 54.4828 9.28C55.0588 9.28 55.5828 9.424 56.0548 9.712C56.5348 9.992 56.9108 10.388 57.1828 10.9C57.4548 11.412 57.5908 12 57.5908 12.664C57.5908 13.328 57.4548 13.924 57.1828 14.452C56.9108 14.972 56.5348 15.38 56.0548 15.676C55.5828 15.964 55.0588 16.108 54.4828 16.108C53.9788 16.108 53.5308 16.008 53.1388 15.808C52.7468 15.6 52.4268 15.344 52.1788 15.04V19.144H50.8108V9.388H52.1788V10.36ZM56.1988 12.664C56.1988 12.208 56.1028 11.816 55.9108 11.488C55.7268 11.152 55.4788 10.9 55.1668 10.732C54.8628 10.556 54.5348 10.468 54.1828 10.468C53.8388 10.468 53.5108 10.556 53.1988 10.732C52.8948 10.908 52.6468 11.164 52.4548 11.5C52.2708 11.836 52.1788 12.232 52.1788 12.688C52.1788 13.144 52.2708 13.544 52.4548 13.888C52.6468 14.224 52.8948 14.48 53.1988 14.656C53.5108 14.832 53.8388 14.92 54.1828 14.92C54.5348 14.92 54.8628 14.832 55.1668 14.656C55.4788 14.472 55.7268 14.208 55.9108 13.864C56.1028 13.52 56.1988 13.12 56.1988 12.664ZM65.0036 12.532C65.0036 12.78 64.9876 13.004 64.9556 13.204H59.9036C59.9436 13.732 60.1396 14.156 60.4916 14.476C60.8436 14.796 61.2756 14.956 61.7876 14.956C62.5236 14.956 63.0436 14.648 63.3476 14.032H64.8236C64.6236 14.64 64.2596 15.14 63.7316 15.532C63.2116 15.916 62.5636 16.108 61.7876 16.108C61.1556 16.108 60.5876 15.968 60.0836 15.688C59.5876 15.4 59.1956 15 58.9076 14.488C58.6276 13.968 58.4876 13.368 58.4876 12.688C58.4876 12.008 58.6236 11.412 58.8956 10.9C59.1756 10.38 59.5636 9.98 60.0596 9.7C60.5636 9.42 61.1396 9.28 61.7876 9.28C62.4116 9.28 62.9676 9.416 63.4556 9.688C63.9436 9.96 64.3236 10.344 64.5956 10.84C64.8676 11.328 65.0036 11.892 65.0036 12.532ZM63.5756 12.1C63.5676 11.596 63.3876 11.192 63.0356 10.888C62.6836 10.584 62.2476 10.432 61.7276 10.432C61.2556 10.432 60.8516 10.584 60.5156 10.888C60.1796 11.184 59.9796 11.588 59.9156 12.1H63.5756ZM65.8938 12.664C65.8938 12 66.0298 11.412 66.3018 10.9C66.5818 10.388 66.9578 9.992 67.4298 9.712C67.9098 9.424 68.4418 9.28 69.0258 9.28C69.4578 9.28 69.8818 9.376 70.2978 9.568C70.7218 9.752 71.0578 10 71.3058 10.312V7.12H72.6858V16H71.3058V15.004C71.0818 15.324 70.7698 15.588 70.3698 15.796C69.9778 16.004 69.5258 16.108 69.0138 16.108C68.4378 16.108 67.9098 15.964 67.4298 15.676C66.9578 15.38 66.5818 14.972 66.3018 14.452C66.0298 13.924 65.8938 13.328 65.8938 12.664ZM71.3058 12.688C71.3058 12.232 71.2098 11.836 71.0178 11.5C70.8338 11.164 70.5898 10.908 70.2858 10.732C69.9818 10.556 69.6538 10.468 69.3018 10.468C68.9498 10.468 68.6218 10.556 68.3178 10.732C68.0138 10.9 67.7658 11.152 67.5738 11.488C67.3898 11.816 67.2978 12.208 67.2978 12.664C67.2978 13.12 67.3898 13.52 67.5738 13.864C67.7658 14.208 68.0138 14.472 68.3178 14.656C68.6298 14.832 68.9578 14.92 69.3018 14.92C69.6538 14.92 69.9818 14.832 70.2858 14.656C70.5898 14.48 70.8338 14.224 71.0178 13.888C71.2098 13.544 71.3058 13.144 71.3058 12.688Z" fill="#FF4848"/>
</svg>
