<svg width="59" height="18" viewBox="0 0 59 18" fill="none" xmlns="http://www.w3.org/2000/svg">
<path d="M10.9253 7.376C10.766 5.34994 9.06631 3.75 7 3.75C5.2325 3.75 3.71525 4.898 3.22525 6.57231C1.82919 7.05706 0.875 8.38006 0.875 9.875C0.875 11.8048 2.44519 13.375 4.375 13.375H10.0625C11.7508 13.375 13.125 12.0008 13.125 10.3125C13.125 8.93481 12.2194 7.75225 10.9253 7.376ZM10.0625 12.5H4.375C2.92731 12.5 1.75 11.3227 1.75 9.875C1.75 8.6885 2.55194 7.64638 3.69994 7.341C3.85744 7.299 3.97906 7.173 4.0145 7.01419C4.32556 5.62994 5.58075 4.625 7 4.625C8.63013 4.625 10.0608 5.92394 10.0608 7.71244C10.0533 7.93119 10.2095 8.12194 10.4256 8.15825C11.4826 8.335 12.25 9.24106 12.25 10.3125C12.25 11.5187 11.2687 12.5 10.0625 12.5Z" fill="#0BB63B"/>
<path d="M4.50319 8.25317C4.67426 8.08211 4.95076 8.08211 5.12182 8.25317L5.99682 9.12817C6.12194 9.2533 6.15957 9.44142 6.09176 9.60505C6.02438 9.76867 5.86426 9.87499 5.68751 9.87499H5.31213C5.50769 10.6279 6.18669 11.1875 7.00001 11.1875C7.24326 11.1875 7.47863 11.1385 7.69957 11.0422C7.92051 10.9442 8.17863 11.047 8.27532 11.268C8.37244 11.4894 8.27094 11.7475 8.04957 11.8437C7.71794 11.989 7.36444 12.0625 7.00001 12.0625C5.70194 12.0625 4.62394 11.1144 4.41438 9.87499H3.93751C3.76076 9.87499 3.60063 9.76867 3.53326 9.60505C3.46544 9.44142 3.50307 9.2533 3.62819 9.12817L4.50319 8.25317Z" fill="#0BB63B"/>
<path d="M7.90825 9.26994C7.97563 9.10675 8.13575 9 8.3125 9H8.68788C8.49232 8.2475 7.81332 7.6875 7 7.6875C6.75588 7.6875 6.52007 7.7365 6.29913 7.83319C6.07688 7.92944 5.81963 7.82881 5.72294 7.60787C5.62582 7.3865 5.72688 7.12838 5.94825 7.03169C6.28032 6.88644 6.63469 6.8125 7 6.8125C8.29806 6.8125 9.37607 7.76056 9.58563 9H10.0625C10.2393 9 10.3994 9.10675 10.4668 9.26994C10.5346 9.43356 10.4969 9.62169 10.3718 9.74681L9.49682 10.6218C9.4115 10.7071 9.2995 10.75 9.1875 10.75C9.0755 10.75 8.9635 10.7071 8.87819 10.6218L8.00319 9.74681C7.87806 9.62169 7.84044 9.43356 7.90825 9.26994Z" fill="#0BB63B"/>
<path d="M17.771 13.084C17.211 13.084 16.707 12.988 16.259 12.796C15.811 12.596 15.459 12.316 15.203 11.956C14.947 11.596 14.819 11.176 14.819 10.696H16.283C16.315 11.056 16.455 11.352 16.703 11.584C16.959 11.816 17.315 11.932 17.771 11.932C18.243 11.932 18.611 11.82 18.875 11.596C19.139 11.364 19.271 11.068 19.271 10.708C19.271 10.428 19.187 10.2 19.019 10.024C18.859 9.848 18.655 9.712 18.407 9.616C18.167 9.52 17.831 9.416 17.399 9.304C16.855 9.16 16.411 9.016 16.067 8.872C15.731 8.72 15.443 8.488 15.203 8.176C14.963 7.864 14.843 7.448 14.843 6.928C14.843 6.448 14.963 6.028 15.203 5.668C15.443 5.308 15.779 5.032 16.211 4.84C16.643 4.648 17.143 4.552 17.711 4.552C18.519 4.552 19.179 4.756 19.691 5.164C20.211 5.564 20.499 6.116 20.555 6.82H19.043C19.019 6.516 18.875 6.256 18.611 6.04C18.347 5.824 17.999 5.716 17.567 5.716C17.175 5.716 16.855 5.816 16.607 6.016C16.359 6.216 16.235 6.504 16.235 6.88C16.235 7.136 16.311 7.348 16.463 7.516C16.623 7.676 16.823 7.804 17.063 7.9C17.303 7.996 17.631 8.1 18.047 8.212C18.599 8.364 19.047 8.516 19.391 8.668C19.743 8.82 20.039 9.056 20.279 9.376C20.527 9.688 20.651 10.108 20.651 10.636C20.651 11.06 20.535 11.46 20.303 11.836C20.079 12.212 19.747 12.516 19.307 12.748C18.875 12.972 18.363 13.084 17.771 13.084ZM28.2172 6.388L24.1612 16.108H22.7452L24.0892 12.892L21.4852 6.388H23.0092L24.8692 11.428L26.8012 6.388H28.2172ZM32.5856 6.28C33.1056 6.28 33.5696 6.388 33.9776 6.604C34.3936 6.82 34.7176 7.14 34.9496 7.564C35.1816 7.988 35.2976 8.5 35.2976 9.1V13H33.9416V9.304C33.9416 8.712 33.7936 8.26 33.4976 7.948C33.2016 7.628 32.7976 7.468 32.2856 7.468C31.7736 7.468 31.3656 7.628 31.0616 7.948C30.7656 8.26 30.6176 8.712 30.6176 9.304V13H29.2496V6.388H30.6176V7.144C30.8416 6.872 31.1256 6.66 31.4696 6.508C31.8216 6.356 32.1936 6.28 32.5856 6.28ZM36.5866 9.688C36.5866 9.008 36.7226 8.412 36.9946 7.9C37.2746 7.38 37.6586 6.98 38.1466 6.7C38.6346 6.42 39.1946 6.28 39.8266 6.28C40.6266 6.28 41.2866 6.472 41.8066 6.856C42.3346 7.232 42.6906 7.772 42.8746 8.476H41.3986C41.2786 8.148 41.0866 7.892 40.8226 7.708C40.5586 7.524 40.2266 7.432 39.8266 7.432C39.2666 7.432 38.8186 7.632 38.4826 8.032C38.1546 8.424 37.9906 8.976 37.9906 9.688C37.9906 10.4 38.1546 10.956 38.4826 11.356C38.8186 11.756 39.2666 11.956 39.8266 11.956C40.6186 11.956 41.1426 11.608 41.3986 10.912H42.8746C42.6826 11.584 42.3226 12.12 41.7946 12.52C41.2666 12.912 40.6106 13.108 39.8266 13.108C39.1946 13.108 38.6346 12.968 38.1466 12.688C37.6586 12.4 37.2746 12 36.9946 11.488C36.7226 10.968 36.5866 10.368 36.5866 9.688ZM50.2979 9.532C50.2979 9.78 50.2819 10.004 50.2499 10.204H45.1979C45.2379 10.732 45.4339 11.156 45.7859 11.476C46.1379 11.796 46.5699 11.956 47.0819 11.956C47.8179 11.956 48.3379 11.648 48.6419 11.032H50.1179C49.9179 11.64 49.5539 12.14 49.0259 12.532C48.5059 12.916 47.8579 13.108 47.0819 13.108C46.4499 13.108 45.8819 12.968 45.3779 12.688C44.8819 12.4 44.4899 12 44.2019 11.488C43.9219 10.968 43.7819 10.368 43.7819 9.688C43.7819 9.008 43.9179 8.412 44.1899 7.9C44.4699 7.38 44.8579 6.98 45.3539 6.7C45.8579 6.42 46.4339 6.28 47.0819 6.28C47.7059 6.28 48.2619 6.416 48.7499 6.688C49.2379 6.96 49.6179 7.344 49.8899 7.84C50.1619 8.328 50.2979 8.892 50.2979 9.532ZM48.8699 9.1C48.8619 8.596 48.6819 8.192 48.3299 7.888C47.9779 7.584 47.5419 7.432 47.0219 7.432C46.5499 7.432 46.1459 7.584 45.8099 7.888C45.4739 8.184 45.2739 8.588 45.2099 9.1H48.8699ZM51.1881 9.664C51.1881 9 51.3241 8.412 51.5961 7.9C51.8761 7.388 52.2521 6.992 52.7241 6.712C53.2041 6.424 53.7361 6.28 54.3201 6.28C54.7521 6.28 55.1761 6.376 55.5921 6.568C56.0161 6.752 56.3521 7 56.6001 7.312V4.12H57.9801V13H56.6001V12.004C56.3761 12.324 56.0641 12.588 55.6641 12.796C55.2721 13.004 54.8201 13.108 54.3081 13.108C53.7321 13.108 53.2041 12.964 52.7241 12.676C52.2521 12.38 51.8761 11.972 51.5961 11.452C51.3241 10.924 51.1881 10.328 51.1881 9.664ZM56.6001 9.688C56.6001 9.232 56.5041 8.836 56.3121 8.5C56.1281 8.164 55.8841 7.908 55.5801 7.732C55.2761 7.556 54.9481 7.468 54.5961 7.468C54.2441 7.468 53.9161 7.556 53.6121 7.732C53.3081 7.9 53.0601 8.152 52.8681 8.488C52.6841 8.816 52.5921 9.208 52.5921 9.664C52.5921 10.12 52.6841 10.52 52.8681 10.864C53.0601 11.208 53.3081 11.472 53.6121 11.656C53.9241 11.832 54.2521 11.92 54.5961 11.92C54.9481 11.92 55.2761 11.832 55.5801 11.656C55.8841 11.48 56.1281 11.224 56.3121 10.888C56.5041 10.544 56.6001 10.144 56.6001 9.688Z" fill="#0BB63B"/>
</svg>
