<svg width="24" height="10" viewBox="0 0 24 10" fill="none" xmlns="http://www.w3.org/2000/svg">
<path d="M23.9355 0.740514C23.8252 0.478043 23.5778 0.283898 23.2003 0.163736C21.5438 -0.364506 17.3358 0.495949 14.184 2.43975C14.0275 2.53635 13.8691 2.63813 13.7099 2.74463C13.6594 2.61175 13.6104 2.47933 13.5623 2.3488C13.1519 1.24001 12.7975 0.282485 11.9897 0.282485H11.9878C11.1787 0.283898 10.8257 1.24284 10.4176 2.35257C10.3714 2.47792 10.3247 2.60515 10.2766 2.73238C10.1211 2.62965 9.96702 2.53164 9.81479 2.43881C6.64125 0.500661 2.43327 -0.35838 0.791364 0.168448C0.41906 0.288139 0.17447 0.480399 0.0646638 0.740514C-0.263341 1.51756 0.731984 2.66452 1.35453 3.27947C2.96628 4.87032 6.36226 7.0323 8.61305 6.06205C9.58811 5.64172 10.1673 4.72943 10.5891 3.77991C10.9039 4.01175 11.2083 4.25255 11.4982 4.49758C9.87418 6.01304 8.68327 7.74762 9.23419 8.85452C9.65032 9.69141 10.9515 9.98923 12.0354 9.98923H12.0472C13.1259 9.98687 14.4252 9.68765 14.8362 8.85311C15.3815 7.74573 14.1708 6.01021 12.5274 4.49476C12.8064 4.25585 13.0991 4.02118 13.4026 3.79499C13.8281 4.74262 14.412 5.64926 15.3899 6.06299C17.6657 7.02476 21.057 4.85713 22.6602 3.26392C23.2757 2.65227 24.2607 1.51097 23.936 0.740986L23.9355 0.740514ZM8.34207 5.4372C6.50317 6.23122 3.42954 4.37035 1.83476 2.79552C0.859227 1.83234 0.617465 1.18535 0.693811 1.00393C0.704179 0.979425 0.756961 0.894134 1.00061 0.81591C1.2353 0.740514 1.56472 0.702345 1.96624 0.702345C3.72833 0.702345 6.87453 1.44075 9.45899 3.01888C9.64844 3.13433 9.836 3.25497 10.0207 3.3789C9.64184 4.26763 9.15172 5.08756 8.34254 5.43673L8.34207 5.4372ZM14.2235 8.55294C14.0053 8.99542 13.1099 9.30595 12.0463 9.30831H12.035C10.9671 9.30831 10.0679 8.99777 9.8459 8.552C9.51035 7.87767 10.4807 6.38672 12.0147 4.95373C13.5685 6.38766 14.5558 7.87862 14.2235 8.55341V8.55294ZM12.0114 4.03814C11.6353 3.71818 11.2456 3.4133 10.8549 3.13198C10.9261 2.94679 10.9934 2.76395 11.0585 2.58724C11.3521 1.78946 11.6556 0.963875 11.9892 0.963403C12.3215 0.963403 12.6405 1.8248 12.9219 2.58489C12.9893 2.76772 13.0595 2.95668 13.1335 3.148C12.7541 3.42508 12.3757 3.72478 12.0109 4.03814H12.0114ZM22.1781 2.78186C20.5918 4.35857 17.5196 6.22462 15.6562 5.43626C14.8442 5.09274 14.3508 4.27752 13.9691 3.39068C14.158 3.26251 14.3498 3.13763 14.5435 3.01841C17.7421 1.04634 21.6842 0.394165 22.993 0.811669C23.2427 0.891306 23.2965 0.978954 23.3068 1.00393C23.3822 1.18299 23.1423 1.82386 22.1786 2.78139L22.1781 2.78186ZM16.1454 9.25412H16.4446V9.95671H16.6313V9.25412H16.9329V9.10427H16.1454V9.25412ZM17.9174 9.10427L17.5634 9.65089L17.202 9.10427H17.0502V9.95671H17.2288V9.42942L17.5201 9.86436H17.6021L17.8914 9.41858L17.8933 9.95671H18.0719L18.0677 9.10427H17.9178H17.9174Z" fill="#AAABB8"/>
</svg>
