<svg width="107" height="20" viewBox="0 0 107 20" fill="none" xmlns="http://www.w3.org/2000/svg">
<path d="M23.9355 5.74051C23.8252 5.47804 23.5778 5.2839 23.2003 5.16374C21.5438 4.63549 17.3358 5.49595 14.184 7.43975C14.0275 7.53635 13.8691 7.63813 13.7099 7.74463C13.6594 7.61175 13.6104 7.47933 13.5623 7.3488C13.1519 6.24001 12.7975 5.28248 11.9897 5.28248H11.9878C11.1787 5.2839 10.8257 6.24284 10.4176 7.35257C10.3714 7.47792 10.3247 7.60515 10.2766 7.73238C10.1211 7.62965 9.96702 7.53164 9.81479 7.43881C6.64125 5.50066 2.43327 4.64162 0.791364 5.16845C0.41906 5.28814 0.17447 5.4804 0.0646638 5.74051C-0.263341 6.51756 0.731984 7.66452 1.35453 8.27947C2.96628 9.87032 6.36226 12.0323 8.61305 11.062C9.58811 10.6417 10.1673 9.72943 10.5891 8.77991C10.9039 9.01175 11.2083 9.25255 11.4982 9.49758C9.87418 11.013 8.68327 12.7476 9.23419 13.8545C9.65032 14.6914 10.9515 14.9892 12.0354 14.9892H12.0472C13.1259 14.9869 14.4252 14.6876 14.8362 13.8531C15.3815 12.7457 14.1708 11.0102 12.5274 9.49476C12.8064 9.25585 13.0991 9.02118 13.4026 8.79499C13.8281 9.74262 14.412 10.6493 15.3899 11.063C17.6657 12.0248 21.057 9.85713 22.6602 8.26392C23.2757 7.65227 24.2607 6.51097 23.936 5.74099L23.9355 5.74051ZM8.34207 10.4372C6.50317 11.2312 3.42954 9.37035 1.83476 7.79552C0.859227 6.83234 0.617465 6.18535 0.693811 6.00393C0.704179 5.97943 0.756961 5.89413 1.00061 5.81591C1.2353 5.74051 1.56472 5.70235 1.96624 5.70235C3.72833 5.70235 6.87453 6.44075 9.45899 8.01888C9.64844 8.13433 9.836 8.25497 10.0207 8.3789C9.64184 9.26763 9.15172 10.0876 8.34254 10.4367L8.34207 10.4372ZM14.2235 13.5529C14.0053 13.9954 13.1099 14.306 12.0463 14.3083H12.035C10.9671 14.3083 10.0679 13.9978 9.8459 13.552C9.51035 12.8777 10.4807 11.3867 12.0147 9.95373C13.5685 11.3877 14.5558 12.8786 14.2235 13.5534V13.5529ZM12.0114 9.03814C11.6353 8.71818 11.2456 8.4133 10.8549 8.13198C10.9261 7.94679 10.9934 7.76395 11.0585 7.58724C11.3521 6.78946 11.6556 5.96387 11.9892 5.9634C12.3215 5.9634 12.6405 6.8248 12.9219 7.58489C12.9893 7.76772 13.0595 7.95668 13.1335 8.148C12.7541 8.42508 12.3757 8.72478 12.0109 9.03814H12.0114ZM22.1781 7.78186C20.5918 9.35857 17.5196 11.2246 15.6562 10.4363C14.8442 10.0927 14.3508 9.27752 13.9691 8.39068C14.158 8.26251 14.3498 8.13763 14.5435 8.01841C17.7421 6.04634 21.6842 5.39416 22.993 5.81167C23.2427 5.89131 23.2965 5.97895 23.3068 6.00393C23.3822 6.18299 23.1423 6.82386 22.1786 7.78139L22.1781 7.78186ZM16.1454 14.2541H16.4446V14.9567H16.6313V14.2541H16.9329V14.1043H16.1454V14.2541ZM17.9174 14.1043L17.5634 14.6509L17.202 14.1043H17.0502V14.9567H17.2288V14.4294L17.5201 14.8644H17.6021L17.8914 14.4186L17.8933 14.9567H18.0719L18.0677 14.1043H17.9178H17.9174Z" fill="white"/>
<path d="M36.084 5.242V6.278H33.424V15H32.15V6.278H29.476V5.242H36.084ZM38.9262 8.574C39.1502 8.13533 39.4676 7.79467 39.8782 7.552C40.2982 7.30933 40.8069 7.188 41.4042 7.188V8.504H41.0682C39.6402 8.504 38.9262 9.27867 38.9262 10.828V15H37.6522V7.328H38.9262V8.574ZM42.3989 11.136C42.3989 10.352 42.5575 9.666 42.8749 9.078C43.1922 8.48067 43.6262 8.01867 44.1769 7.692C44.7369 7.36533 45.3575 7.202 46.0389 7.202C46.7109 7.202 47.2942 7.34667 47.7889 7.636C48.2835 7.92533 48.6522 8.28933 48.8949 8.728V7.328H50.1829V15H48.8949V13.572C48.6429 14.02 48.2649 14.3933 47.7609 14.692C47.2662 14.9813 46.6875 15.126 46.0249 15.126C45.3435 15.126 44.7275 14.958 44.1769 14.622C43.6262 14.286 43.1922 13.8147 42.8749 13.208C42.5575 12.6013 42.3989 11.9107 42.3989 11.136ZM48.8949 11.15C48.8949 10.5713 48.7782 10.0673 48.5449 9.638C48.3115 9.20867 47.9942 8.882 47.5929 8.658C47.2009 8.42467 46.7669 8.308 46.2909 8.308C45.8149 8.308 45.3809 8.42 44.9889 8.644C44.5969 8.868 44.2842 9.19467 44.0509 9.624C43.8175 10.0533 43.7009 10.5573 43.7009 11.136C43.7009 11.724 43.8175 12.2373 44.0509 12.676C44.2842 13.1053 44.5969 13.4367 44.9889 13.67C45.3809 13.894 45.8149 14.006 46.2909 14.006C46.7669 14.006 47.2009 13.894 47.5929 13.67C47.9942 13.4367 48.3115 13.1053 48.5449 12.676C48.7782 12.2373 48.8949 11.7287 48.8949 11.15ZM51.8598 11.15C51.8598 10.3567 52.0185 9.666 52.3358 9.078C52.6531 8.48067 53.0918 8.01867 53.6518 7.692C54.2211 7.36533 54.8698 7.202 55.5978 7.202C56.5405 7.202 57.3151 7.43067 57.9218 7.888C58.5378 8.34533 58.9438 8.98 59.1398 9.792H57.7678C57.6371 9.32533 57.3805 8.95667 56.9978 8.686C56.6245 8.41533 56.1578 8.28 55.5978 8.28C54.8698 8.28 54.2818 8.532 53.8338 9.036C53.3858 9.53067 53.1618 10.2353 53.1618 11.15C53.1618 12.074 53.3858 12.788 53.8338 13.292C54.2818 13.796 54.8698 14.048 55.5978 14.048C56.1578 14.048 56.6245 13.9173 56.9978 13.656C57.3711 13.3947 57.6278 13.0213 57.7678 12.536H59.1398C58.9345 13.32 58.5238 13.95 57.9078 14.426C57.2918 14.8927 56.5218 15.126 55.5978 15.126C54.8698 15.126 54.2211 14.9627 53.6518 14.636C53.0918 14.3093 52.6531 13.8473 52.3358 13.25C52.0185 12.6527 51.8598 11.9527 51.8598 11.15ZM67.8397 10.87C67.8397 11.1127 67.8257 11.3693 67.7977 11.64H61.6657C61.7124 12.396 61.9691 12.9887 62.4357 13.418C62.9117 13.838 63.4857 14.048 64.1577 14.048C64.7084 14.048 65.1657 13.922 65.5297 13.67C65.9031 13.4087 66.1644 13.0633 66.3137 12.634H67.6857C67.4804 13.3713 67.0697 13.9733 66.4537 14.44C65.8377 14.8973 65.0724 15.126 64.1577 15.126C63.4297 15.126 62.7764 14.9627 62.1977 14.636C61.6284 14.3093 61.1804 13.8473 60.8537 13.25C60.5271 12.6433 60.3637 11.9433 60.3637 11.15C60.3637 10.3567 60.5224 9.66133 60.8397 9.064C61.1571 8.46667 61.6004 8.00933 62.1697 7.692C62.7484 7.36533 63.4111 7.202 64.1577 7.202C64.8857 7.202 65.5297 7.36067 66.0897 7.678C66.6497 7.99533 67.0791 8.434 67.3777 8.994C67.6857 9.54467 67.8397 10.17 67.8397 10.87ZM66.5237 10.604C66.5237 10.1187 66.4164 9.70333 66.2017 9.358C65.9871 9.00333 65.6931 8.73733 65.3197 8.56C64.9557 8.37333 64.5497 8.28 64.1017 8.28C63.4577 8.28 62.9071 8.48533 62.4497 8.896C62.0017 9.30667 61.7451 9.876 61.6797 10.604H66.5237ZM77.0394 5.242V15H75.7654V10.576H70.7954V15H69.5214V5.242H70.7954V9.526H75.7654V5.242H77.0394ZM78.7387 11.136C78.7387 10.352 78.8974 9.666 79.2147 9.078C79.5321 8.48067 79.9661 8.01867 80.5167 7.692C81.0767 7.36533 81.6974 7.202 82.3787 7.202C83.0507 7.202 83.6341 7.34667 84.1287 7.636C84.6234 7.92533 84.9921 8.28933 85.2347 8.728V7.328H86.5227V15H85.2347V13.572C84.9827 14.02 84.6047 14.3933 84.1007 14.692C83.6061 14.9813 83.0274 15.126 82.3647 15.126C81.6834 15.126 81.0674 14.958 80.5167 14.622C79.9661 14.286 79.5321 13.8147 79.2147 13.208C78.8974 12.6013 78.7387 11.9107 78.7387 11.136ZM85.2347 11.15C85.2347 10.5713 85.1181 10.0673 84.8847 9.638C84.6514 9.20867 84.3341 8.882 83.9327 8.658C83.5407 8.42467 83.1067 8.308 82.6307 8.308C82.1547 8.308 81.7207 8.42 81.3287 8.644C80.9367 8.868 80.6241 9.19467 80.3907 9.624C80.1574 10.0533 80.0407 10.5573 80.0407 11.136C80.0407 11.724 80.1574 12.2373 80.3907 12.676C80.6241 13.1053 80.9367 13.4367 81.3287 13.67C81.7207 13.894 82.1547 14.006 82.6307 14.006C83.1067 14.006 83.5407 13.894 83.9327 13.67C84.3341 13.4367 84.6514 13.1053 84.8847 12.676C85.1181 12.2373 85.2347 11.7287 85.2347 11.15ZM98.8957 7.328L96.5017 15H95.1857L93.3377 8.91L91.4897 15H90.1737L87.7657 7.328H89.0677L90.8317 13.768L92.7357 7.328H94.0377L95.8997 13.782L97.6357 7.328H98.8957ZM104.444 15L101.434 11.612V15H100.16V4.64H101.434V10.73L104.388 7.328H106.166L102.554 11.15L106.18 15H104.444Z" fill="white"/>
</svg>
