<svg width="98" height="24" viewBox="0 0 98 24" fill="none" xmlns="http://www.w3.org/2000/svg">
<rect x="0.5" y="0.5" width="97" height="23" rx="3.5" fill="#0BB63B" fill-opacity="0.3"/>
<rect x="0.5" y="0.5" width="97" height="23" rx="3.5" stroke="#0BB63B"/>
<path d="M8.86909 13.432C8.98909 14.064 9.35709 14.38 9.97309 14.38C10.3971 14.38 10.6971 14.192 10.8731 13.816C11.0491 13.44 11.1371 12.828 11.1371 11.98C10.9611 12.228 10.7211 12.42 10.4171 12.556C10.1131 12.692 9.77309 12.76 9.39709 12.76C8.88509 12.76 8.42909 12.656 8.02909 12.448C7.62909 12.232 7.31309 11.916 7.08109 11.5C6.85709 11.076 6.74509 10.564 6.74509 9.964C6.74509 9.372 6.86509 8.856 7.10509 8.416C7.35309 7.976 7.70109 7.636 8.14909 7.396C8.60509 7.156 9.14109 7.036 9.75709 7.036C10.9411 7.036 11.7691 7.404 12.2411 8.14C12.7131 8.876 12.9491 9.96 12.9491 11.392C12.9491 12.432 12.8531 13.292 12.6611 13.972C12.4771 14.644 12.1611 15.156 11.7131 15.508C11.2731 15.86 10.6691 16.036 9.90109 16.036C9.29309 16.036 8.77309 15.916 8.34109 15.676C7.91709 15.436 7.58909 15.12 7.35709 14.728C7.13309 14.336 7.00509 13.904 6.97309 13.432H8.86909ZM9.86509 11.14C10.2011 11.14 10.4691 11.04 10.6691 10.84C10.8691 10.632 10.9691 10.352 10.9691 10C10.9691 9.616 10.8651 9.32 10.6571 9.112C10.4491 8.904 10.1691 8.8 9.81709 8.8C9.46509 8.8 9.18509 8.908 8.97709 9.124C8.77709 9.332 8.67709 9.62 8.67709 9.988C8.67709 10.332 8.77709 10.612 8.97709 10.828C9.18509 11.036 9.48109 11.14 9.86509 11.14ZM16.2519 13.432C16.3719 14.064 16.7399 14.38 17.3559 14.38C17.7799 14.38 18.0799 14.192 18.2559 13.816C18.4319 13.44 18.5199 12.828 18.5199 11.98C18.3439 12.228 18.1039 12.42 17.7999 12.556C17.4959 12.692 17.1559 12.76 16.7799 12.76C16.2679 12.76 15.8119 12.656 15.4119 12.448C15.0119 12.232 14.6959 11.916 14.4639 11.5C14.2399 11.076 14.1279 10.564 14.1279 9.964C14.1279 9.372 14.2479 8.856 14.4879 8.416C14.7359 7.976 15.0839 7.636 15.5319 7.396C15.9879 7.156 16.5239 7.036 17.1399 7.036C18.3239 7.036 19.1519 7.404 19.6239 8.14C20.0959 8.876 20.3319 9.96 20.3319 11.392C20.3319 12.432 20.2359 13.292 20.0439 13.972C19.8599 14.644 19.5439 15.156 19.0959 15.508C18.6559 15.86 18.0519 16.036 17.2839 16.036C16.6759 16.036 16.1559 15.916 15.7239 15.676C15.2999 15.436 14.9719 15.12 14.7399 14.728C14.5159 14.336 14.3879 13.904 14.3559 13.432H16.2519ZM17.2479 11.14C17.5839 11.14 17.8519 11.04 18.0519 10.84C18.2519 10.632 18.3519 10.352 18.3519 10C18.3519 9.616 18.2479 9.32 18.0399 9.112C17.8319 8.904 17.5519 8.8 17.1999 8.8C16.8479 8.8 16.5679 8.908 16.3599 9.124C16.1599 9.332 16.0599 9.62 16.0599 9.988C16.0599 10.332 16.1599 10.612 16.3599 10.828C16.5679 11.036 16.8639 11.14 17.2479 11.14ZM22.5907 16.096C22.2307 16.096 21.9347 15.992 21.7027 15.784C21.4787 15.568 21.3667 15.304 21.3667 14.992C21.3667 14.672 21.4787 14.404 21.7027 14.188C21.9347 13.972 22.2307 13.864 22.5907 13.864C22.9427 13.864 23.2307 13.972 23.4547 14.188C23.6867 14.404 23.8027 14.672 23.8027 14.992C23.8027 15.304 23.6867 15.568 23.4547 15.784C23.2307 15.992 22.9427 16.096 22.5907 16.096ZM27.0214 13.432C27.1414 14.064 27.5094 14.38 28.1254 14.38C28.5494 14.38 28.8494 14.192 29.0254 13.816C29.2014 13.44 29.2894 12.828 29.2894 11.98C29.1134 12.228 28.8734 12.42 28.5694 12.556C28.2654 12.692 27.9254 12.76 27.5494 12.76C27.0374 12.76 26.5814 12.656 26.1814 12.448C25.7814 12.232 25.4654 11.916 25.2334 11.5C25.0094 11.076 24.8974 10.564 24.8974 9.964C24.8974 9.372 25.0174 8.856 25.2574 8.416C25.5054 7.976 25.8534 7.636 26.3014 7.396C26.7574 7.156 27.2934 7.036 27.9094 7.036C29.0934 7.036 29.9214 7.404 30.3934 8.14C30.8654 8.876 31.1014 9.96 31.1014 11.392C31.1014 12.432 31.0054 13.292 30.8134 13.972C30.6294 14.644 30.3134 15.156 29.8654 15.508C29.4254 15.86 28.8214 16.036 28.0534 16.036C27.4454 16.036 26.9254 15.916 26.4934 15.676C26.0694 15.436 25.7414 15.12 25.5094 14.728C25.2854 14.336 25.1574 13.904 25.1254 13.432H27.0214ZM28.0174 11.14C28.3534 11.14 28.6214 11.04 28.8214 10.84C29.0214 10.632 29.1214 10.352 29.1214 10C29.1214 9.616 29.0174 9.32 28.8094 9.112C28.6014 8.904 28.3214 8.8 27.9694 8.8C27.6174 8.8 27.3374 8.908 27.1294 9.124C26.9294 9.332 26.8294 9.62 26.8294 9.988C26.8294 10.332 26.9294 10.612 27.1294 10.828C27.3374 11.036 27.6334 11.14 28.0174 11.14ZM34.4043 13.432C34.5243 14.064 34.8923 14.38 35.5083 14.38C35.9323 14.38 36.2323 14.192 36.4083 13.816C36.5843 13.44 36.6723 12.828 36.6723 11.98C36.4963 12.228 36.2563 12.42 35.9523 12.556C35.6483 12.692 35.3083 12.76 34.9323 12.76C34.4203 12.76 33.9643 12.656 33.5643 12.448C33.1643 12.232 32.8483 11.916 32.6163 11.5C32.3923 11.076 32.2803 10.564 32.2803 9.964C32.2803 9.372 32.4003 8.856 32.6403 8.416C32.8883 7.976 33.2363 7.636 33.6843 7.396C34.1403 7.156 34.6763 7.036 35.2923 7.036C36.4763 7.036 37.3043 7.404 37.7763 8.14C38.2483 8.876 38.4843 9.96 38.4843 11.392C38.4843 12.432 38.3883 13.292 38.1963 13.972C38.0123 14.644 37.6963 15.156 37.2483 15.508C36.8083 15.86 36.2043 16.036 35.4363 16.036C34.8283 16.036 34.3083 15.916 33.8763 15.676C33.4523 15.436 33.1243 15.12 32.8923 14.728C32.6683 14.336 32.5403 13.904 32.5083 13.432H34.4043ZM35.4003 11.14C35.7363 11.14 36.0043 11.04 36.2043 10.84C36.4043 10.632 36.5043 10.352 36.5043 10C36.5043 9.616 36.4003 9.32 36.1923 9.112C35.9843 8.904 35.7043 8.8 35.3523 8.8C35.0003 8.8 34.7203 8.908 34.5123 9.124C34.3123 9.332 34.2123 9.62 34.2123 9.988C34.2123 10.332 34.3123 10.612 34.5123 10.828C34.7203 11.036 35.0163 11.14 35.4003 11.14ZM39.4111 9.448C39.4111 8.8 39.5951 8.3 39.9631 7.948C40.3391 7.596 40.8231 7.42 41.4151 7.42C42.0071 7.42 42.4871 7.596 42.8551 7.948C43.2231 8.3 43.4071 8.8 43.4071 9.448C43.4071 10.096 43.2231 10.596 42.8551 10.948C42.4871 11.3 42.0071 11.476 41.4151 11.476C40.8231 11.476 40.3391 11.3 39.9631 10.948C39.5951 10.596 39.4111 10.096 39.4111 9.448ZM47.5591 7.552L42.9391 16H40.9591L45.5791 7.552H47.5591ZM41.4031 8.62C41.0191 8.62 40.8271 8.896 40.8271 9.448C40.8271 9.992 41.0191 10.264 41.4031 10.264C41.5871 10.264 41.7311 10.196 41.8351 10.06C41.9391 9.924 41.9911 9.72 41.9911 9.448C41.9911 8.896 41.7951 8.62 41.4031 8.62ZM45.1231 14.104C45.1231 13.456 45.3071 12.956 45.6751 12.604C46.0431 12.252 46.5231 12.076 47.1151 12.076C47.7071 12.076 48.1871 12.252 48.5551 12.604C48.9231 12.956 49.1071 13.456 49.1071 14.104C49.1071 14.752 48.9231 15.252 48.5551 15.604C48.1871 15.956 47.7071 16.132 47.1151 16.132C46.5231 16.132 46.0431 15.956 45.6751 15.604C45.3071 15.252 45.1231 14.752 45.1231 14.104ZM47.1031 13.276C46.9191 13.276 46.7751 13.344 46.6711 13.48C46.5751 13.616 46.5271 13.824 46.5271 14.104C46.5271 14.648 46.7191 14.92 47.1031 14.92C47.2871 14.92 47.4311 14.852 47.5351 14.716C47.6391 14.58 47.6911 14.376 47.6911 14.104C47.6911 13.832 47.6391 13.628 47.5351 13.492C47.4311 13.348 47.2871 13.276 47.1031 13.276ZM54.3017 7.54V12.664C54.3017 13.568 54.4977 14.232 54.8897 14.656C55.2897 15.08 55.8337 15.292 56.5217 15.292C57.2097 15.292 57.7457 15.08 58.1297 14.656C58.5217 14.232 58.7177 13.568 58.7177 12.664V7.54H59.5577V12.664C59.5577 13.808 59.2817 14.664 58.7297 15.232C58.1777 15.8 57.4377 16.084 56.5097 16.084C55.5817 16.084 54.8417 15.8 54.2897 15.232C53.7377 14.664 53.4617 13.808 53.4617 12.664V7.54H54.3017ZM62.1898 12.472V16H61.3378V7.54H63.8698C64.8218 7.54 65.5298 7.76 65.9938 8.2C66.4658 8.64 66.7018 9.244 66.7018 10.012C66.7018 10.796 66.4578 11.404 65.9698 11.836C65.4898 12.26 64.7898 12.472 63.8698 12.472H62.1898ZM63.7978 11.752C64.5258 11.752 65.0498 11.604 65.3698 11.308C65.6898 11.004 65.8498 10.572 65.8498 10.012C65.8498 9.436 65.6898 9 65.3698 8.704C65.0498 8.4 64.5258 8.248 63.7978 8.248H62.1898V11.752H63.7978ZM72.9852 7.54V8.224H70.5732V16H69.7332V8.224H67.3332V7.54H72.9852ZM74.9632 7.54V16H74.1112V7.54H74.9632ZM84.9791 7.72V16H84.1391V9.064L81.2711 16H80.5151L77.6351 9.088V16H76.7831V7.72H77.7791L80.8991 14.956L83.9951 7.72H84.9791ZM87.6663 8.224V11.416H90.9663V12.076H87.6663V15.304H91.3263V16H86.8143V7.54H91.3263V8.224H87.6663Z" fill="#0BB63B"/>
</svg>
