<svg width="65" height="24" viewBox="0 0 65 24" fill="none" xmlns="http://www.w3.org/2000/svg">
<rect x="0.900024" y="0.5" width="63" height="23" rx="3.5" fill="#EBBC46" fill-opacity="0.2"/>
<rect x="0.900024" y="0.5" width="63" height="23" rx="3.5" stroke="#EBBC46"/>
<path d="M18.1338 7.528L16.0218 16H14.3418L12.5538 9.448L10.7658 16H9.08576L6.97376 7.528H8.47376L9.93776 14.416L11.7978 7.528H13.3098L15.1698 14.416L16.6338 7.528H18.1338ZM22.0109 9.304C22.6109 9.304 23.1229 9.452 23.5469 9.748C23.9709 10.044 24.2709 10.436 24.4469 10.924V9.388H25.8149V16H24.4469V14.464C24.2709 14.952 23.9709 15.344 23.5469 15.64C23.1229 15.936 22.6109 16.084 22.0109 16.084C21.4349 16.084 20.9189 15.948 20.4629 15.676C20.0149 15.404 19.6629 15.012 19.4069 14.5C19.1509 13.988 19.0229 13.384 19.0229 12.688C19.0229 12 19.1509 11.4 19.4069 10.888C19.6629 10.376 20.0149 9.984 20.4629 9.712C20.9189 9.44 21.4349 9.304 22.0109 9.304ZM22.4309 10.504C21.8229 10.504 21.3349 10.7 20.9669 11.092C20.6069 11.476 20.4269 12.008 20.4269 12.688C20.4269 13.368 20.6069 13.904 20.9669 14.296C21.3349 14.68 21.8229 14.872 22.4309 14.872C22.8149 14.872 23.1589 14.784 23.4629 14.608C23.7669 14.424 24.0069 14.168 24.1829 13.84C24.3589 13.512 24.4469 13.128 24.4469 12.688C24.4469 12.256 24.3589 11.876 24.1829 11.548C24.0069 11.212 23.7669 10.956 23.4629 10.78C23.1589 10.596 22.8149 10.504 22.4309 10.504ZM28.8245 10.684C29.0485 10.252 29.3685 9.912 29.7845 9.664C30.2005 9.408 30.6805 9.28 31.2245 9.28V10.768H30.8165C30.2165 10.768 29.7325 10.916 29.3645 11.212C29.0045 11.5 28.8245 11.98 28.8245 12.652V16H27.4565V9.388H28.8245V10.684ZM35.9455 9.28C36.7135 9.28 37.3295 9.528 37.7935 10.024C38.2575 10.52 38.4895 11.228 38.4895 12.148V16H37.1215V12.292C37.1215 11.7 36.9695 11.244 36.6655 10.924C36.3615 10.596 35.9455 10.432 35.4175 10.432C34.8735 10.432 34.4375 10.608 34.1095 10.96C33.7815 11.304 33.6175 11.812 33.6175 12.484V16H32.2495V9.388H33.6175V10.84C33.7935 10.344 34.0895 9.96 34.5055 9.688C34.9215 9.416 35.4015 9.28 35.9455 9.28ZM39.8974 7.468C39.8974 7.236 39.9774 7.044 40.1374 6.892C40.2974 6.74 40.5094 6.664 40.7734 6.664C41.0374 6.664 41.2494 6.74 41.4094 6.892C41.5774 7.044 41.6614 7.236 41.6614 7.468C41.6614 7.7 41.5774 7.888 41.4094 8.032C41.2494 8.176 41.0374 8.248 40.7734 8.248C40.5094 8.248 40.2974 8.176 40.1374 8.032C39.9774 7.888 39.8974 7.7 39.8974 7.468ZM41.4574 9.388V16H40.0894V9.388H41.4574ZM46.8088 9.28C47.5768 9.28 48.1928 9.528 48.6568 10.024C49.1208 10.52 49.3528 11.228 49.3528 12.148V16H47.9848V12.292C47.9848 11.7 47.8328 11.244 47.5288 10.924C47.2248 10.596 46.8088 10.432 46.2808 10.432C45.7368 10.432 45.3008 10.608 44.9728 10.96C44.6448 11.304 44.4808 11.812 44.4808 12.484V16H43.1128V9.388H44.4808V10.84C44.6568 10.344 44.9528 9.96 45.3688 9.688C45.7848 9.416 46.2648 9.28 46.8088 9.28ZM53.6046 9.304C54.2046 9.304 54.7166 9.452 55.1406 9.748C55.5646 10.044 55.8646 10.436 56.0406 10.924V9.388H57.4086V16.072C57.4086 16.688 57.2806 17.232 57.0246 17.704C56.7766 18.184 56.4166 18.56 55.9446 18.832C55.4726 19.104 54.9126 19.24 54.2646 19.24C53.3366 19.24 52.5846 19.02 52.0086 18.58C51.4406 18.14 51.0846 17.544 50.9406 16.792H52.2966C52.4086 17.184 52.6246 17.488 52.9446 17.704C53.2646 17.928 53.6726 18.04 54.1686 18.04C54.7126 18.04 55.1606 17.872 55.5126 17.536C55.8646 17.2 56.0406 16.712 56.0406 16.072V14.464C55.8646 14.952 55.5646 15.344 55.1406 15.64C54.7166 15.936 54.2046 16.084 53.6046 16.084C53.0286 16.084 52.5126 15.948 52.0566 15.676C51.6086 15.404 51.2566 15.012 51.0006 14.5C50.7446 13.988 50.6166 13.384 50.6166 12.688C50.6166 12 50.7446 11.4 51.0006 10.888C51.2566 10.376 51.6086 9.984 52.0566 9.712C52.5126 9.44 53.0286 9.304 53.6046 9.304ZM54.0246 10.504C53.4166 10.504 52.9286 10.7 52.5606 11.092C52.2006 11.476 52.0206 12.008 52.0206 12.688C52.0206 13.368 52.2006 13.904 52.5606 14.296C52.9286 14.68 53.4166 14.872 54.0246 14.872C54.4086 14.872 54.7526 14.784 55.0566 14.608C55.3606 14.424 55.6006 14.168 55.7766 13.84C55.9526 13.512 56.0406 13.128 56.0406 12.688C56.0406 12.256 55.9526 11.876 55.7766 11.548C55.6006 11.212 55.3606 10.956 55.0566 10.78C54.7526 10.596 54.4086 10.504 54.0246 10.504Z" fill="#CEB940"/>
</svg>
