<?xml version="1.0" encoding="UTF-8"?>
<svg id="Layer_1" data-name="Layer 1" xmlns="http://www.w3.org/2000/svg" xmlns:xlink="http://www.w3.org/1999/xlink" viewBox="0 0 100 100">
  <defs>
    <style>
      .cls-1, .cls-2, .cls-3 {
        stroke-width: 0px;
      }

      .cls-1, .cls-4 {
        fill: url(#linear-gradient);
      }

      .cls-2 {
        fill: #22143d;
      }

      .cls-3 {
        fill: url(#linear-gradient-2);
      }

      .cls-5 {
        clip-path: url(#clippath);
      }
    </style>
    <linearGradient id="linear-gradient" x1="33.2984892537" y1="38.2494468397" x2="66.7015107463" y2="38.2494468397" gradientUnits="userSpaceOnUse">
      <stop offset="0" stop-color="#a726c1"/>
      <stop offset=".125" stop-color="#a726c1"/>
      <stop offset=".140625" stop-color="#a627c2"/>
      <stop offset=".15625" stop-color="#a527c2"/>
      <stop offset=".171875" stop-color="#a427c3"/>
      <stop offset=".1875" stop-color="#a328c4"/>
      <stop offset=".203125" stop-color="#a328c4"/>
      <stop offset=".21875" stop-color="#a229c5"/>
      <stop offset=".234375" stop-color="#a129c6"/>
      <stop offset=".25" stop-color="#a02ac7"/>
      <stop offset=".265625" stop-color="#9f2ac7"/>
      <stop offset=".28125" stop-color="#9e2bc8"/>
      <stop offset=".296875" stop-color="#9d2bc9"/>
      <stop offset=".3125" stop-color="#9c2cc9"/>
      <stop offset=".328125" stop-color="#9c2cca"/>
      <stop offset=".34375" stop-color="#9b2dcb"/>
      <stop offset=".359375" stop-color="#9a2dcb"/>
      <stop offset=".375" stop-color="#992ecc"/>
      <stop offset=".390625" stop-color="#982ecd"/>
      <stop offset=".3933589935" stop-color="#972ecd"/>
      <stop offset=".40625" stop-color="#972fce"/>
      <stop offset=".421875" stop-color="#962fce"/>
      <stop offset=".4375" stop-color="#962fcf"/>
      <stop offset=".453125" stop-color="#9530cf"/>
      <stop offset=".46875" stop-color="#9430d0"/>
      <stop offset=".484375" stop-color="#9331d1"/>
      <stop offset=".5" stop-color="#9231d1"/>
      <stop offset=".515625" stop-color="#9132d2"/>
      <stop offset=".53125" stop-color="#9032d3"/>
      <stop offset=".546875" stop-color="#8f33d3"/>
      <stop offset=".5625" stop-color="#8f33d4"/>
      <stop offset=".578125" stop-color="#8e34d5"/>
      <stop offset=".59375" stop-color="#8d34d5"/>
      <stop offset=".6066410065" stop-color="#8c34d6"/>
      <stop offset=".609375" stop-color="#8c35d6"/>
      <stop offset=".625" stop-color="#8b35d7"/>
      <stop offset=".640625" stop-color="#8a35d7"/>
      <stop offset=".65625" stop-color="#8936d8"/>
      <stop offset=".671875" stop-color="#8936d9"/>
      <stop offset=".6875" stop-color="#8837d9"/>
      <stop offset=".703125" stop-color="#8737da"/>
      <stop offset=".71875" stop-color="#8638db"/>
      <stop offset=".734375" stop-color="#8538db"/>
      <stop offset=".75" stop-color="#8439dc"/>
      <stop offset=".765625" stop-color="#8339dd"/>
      <stop offset=".78125" stop-color="#823add"/>
      <stop offset=".796875" stop-color="#823ade"/>
      <stop offset=".8125" stop-color="#813bdf"/>
      <stop offset=".828125" stop-color="#803bdf"/>
      <stop offset=".84375" stop-color="#7f3ce0"/>
      <stop offset=".859375" stop-color="#7e3ce1"/>
      <stop offset=".875" stop-color="#7d3de2"/>
      <stop offset=".890625" stop-color="#7d3ee2"/>
      <stop offset=".90625" stop-color="#7c3ee3"/>
      <stop offset=".9375" stop-color="#7b3fe4"/>
      <stop offset="1" stop-color="#7b3fe4"/>
    </linearGradient>
    <clipPath id="clippath">
      <path class="cls-1" d="m58.0991291879,44.2921986475l7.9226788077-4.5740931357c.4192824147-.2422646699.6797027508-.6933195004.6797027508-1.1772814756v-9.1498883652c0-.4833946107-.2604203361-.9350168057-.6797027508-1.1772814756l-7.9226788077-4.5740931357c-.4192824147-.2422646699-.9401230868-.2416973054-1.3594055015,0l-7.9226788077,4.5740931357c-.4192824147.2422646699-.6797027508.6933195004-.6797027508,1.1772814756v16.3491773505l-5.5556338359,3.2067445303-5.5556338359-3.2067445303v-6.4151911543l5.5556338359-3.2067445303,3.6646077355,2.1145677396v-4.3028928729l-2.9849049848-1.7230861887c-.2059533377-.1185791944-.4414096328-.1815566613-.6797027508-.1815566613-.2388604825,0-.4737494131.0629774669-.6797027508.1815566613l-7.9238135368,4.5746605003c-.4187150501.2422646699-.6797027508.6933195004-.6797027508,1.1772814756v9.148753636c0,.4839619753.2609877006.9355841703.6797027508,1.1778488402l7.9232461722,4.5746605003c.4187150501.2411299408.9395557223.2411299408,1.3594055015,0l7.9226788077-4.5740931357c.4187150501-.2422646699.6797027508-.6938868649.6797027508-1.1778488402v-16.3491773505l.0998561637-.0573038212,5.4557776722-3.1494407091,5.5556338359,3.2078792594v6.4146237897l-5.5556338359,3.2078792594-3.6595014544-2.1122982814v4.3028928729l2.9797987037,1.721384095c.4187150501.2411299408.9401230868.2411299408,1.3594055015,0l.0005673646-.0022694583Z"/>
    </clipPath>
    <linearGradient id="linear-gradient-2" y1="38.2491986489" y2="38.2491986489" xlink:href="#linear-gradient"/>
  </defs>
  <g>
    <path class="cls-4" d="m58.0991291879,44.2921986475l7.9226788077-4.5740931357c.4192824147-.2422646699.6797027508-.6933195004.6797027508-1.1772814756v-9.1498883652c0-.4833946107-.2604203361-.9350168057-.6797027508-1.1772814756l-7.9226788077-4.5740931357c-.4192824147-.2422646699-.9401230868-.2416973054-1.3594055015,0l-7.9226788077,4.5740931357c-.4192824147.2422646699-.6797027508.6933195004-.6797027508,1.1772814756v16.3491773505l-5.5556338359,3.2067445303-5.5556338359-3.2067445303v-6.4151911543l5.5556338359-3.2067445303,3.6646077355,2.1145677396v-4.3028928729l-2.9849049848-1.7230861887c-.2059533377-.1185791944-.4414096328-.1815566613-.6797027508-.1815566613-.2388604825,0-.4737494131.0629774669-.6797027508.1815566613l-7.9238135368,4.5746605003c-.4187150501.2422646699-.6797027508.6933195004-.6797027508,1.1772814756v9.148753636c0,.4839619753.2609877006.9355841703.6797027508,1.1778488402l7.9232461722,4.5746605003c.4187150501.2411299408.9395557223.2411299408,1.3594055015,0l7.9226788077-4.5740931357c.4187150501-.2422646699.6797027508-.6938868649.6797027508-1.1778488402v-16.3491773505l.0998561637-.0573038212,5.4557776722-3.1494407091,5.5556338359,3.2078792594v6.4146237897l-5.5556338359,3.2078792594-3.6595014544-2.1122982814v4.3028928729l2.9797987037,1.721384095c.4187150501.2411299408.9401230868.2411299408,1.3594055015,0l.0005673646-.0022694583Z"/>
    <g class="cls-5">
      <path class="cls-3" d="m33.2984892537,23.3972963897v29.7038045185h33.4030214926v-29.7038045185h-33.4030214926Z"/>
    </g>
  </g>
  <g>
    <path class="cls-2" d="m2.056361241,76.3961234655v-10.2893920265h1.5309089498l.1458022712.8305444198h.0729001424c.4374028408-.5688838095,1.180726064-.9763452012,2.2156538297-.9763452012,1.894108583,0,3.4106997064,1.5452295074,3.4106997064,3.8324814074,0,2.2872514034-1.5152880582,3.8324811591-3.4106997064,3.8324811591-1.0206079529,0-1.7339904718-.4230830281-2.112812983-.9034453071h-.0729001424v3.6723744696h-1.7782509888l-.0013010788.0013010788Zm5.5964128318-6.601409825c0-1.3408476514-.860485869-2.1857121322-1.9097314609-2.1857121322-1.0492475783,0-1.9097334473.8448644808-1.9097334473,2.1857121322,0,1.340848148.860485869,2.1857121322,1.9097334473,2.1857121322,1.0492455919,0,1.9097314609-.8448639842,1.9097314609-2.1857121322Z"/>
    <path class="cls-2" d="m10.3344683824,69.793412065c0-2.2299731458,1.6025080133-3.8324814074,3.7452597142-3.8324814074,2.1427556736,0,3.745263687,1.6025082616,3.745263687,3.8324814074s-1.6025080133,3.8324811591-3.745263687,3.8324811591c-2.1427517009,0-3.7452597142-1.6181298981-3.7452597142-3.8324811591Zm5.6979506133,0c0-1.3122085225-.8748017089-2.1857121322-1.9526908991-2.1857121322-1.0778852174,0-1.9670087254.8748056817-1.9670087254,2.1857121322,0,1.3109059539.889123508,2.1713918229,1.9670087254,2.1713918229,1.0778891901,0,1.9526908991-.8591837969,1.9526908991-2.1713918229Z"/>
    <path class="cls-2" d="m19.1124639171,73.4813940181v-10.202155063h1.7782509888v10.202155063h-1.7782509888Z"/>
    <path class="cls-2" d="m27.4934138916,66.106731439h1.8941125557l-3.2063190919,8.9628517729c-.3202441678.8891374127-.7576450223,1.3265402535-1.9097334473,1.3265402535h-1.7196686727v-1.646782435h1.4580107937c.2629609442,0,.4074581638-.1314804721.4959831705-.3501818925l.1744399102-.480362279-3.001936491-7.81206542h1.894108583l1.9097334473,5.1160503045h.2916005696l1.7196686727-5.1160503045Z"/>
    <path class="cls-2" d="m29.7259896916,73.8458967166h1.8068906142c.0729001424.4803612858.5532624214,1.1364655471,1.6910330201,1.1364655471,1.0635634183,0,1.7639291897-.670424074,1.7639291897-1.6910300405v-1.0349257792h-.0729001424c-.3931403375.4230830281-1.1221457344.8019045461-2.0555337321.8019045461-1.894108583,0-3.3521193767-1.4580088074-3.3521193767-3.5565009844,0-2.0984916805,1.4580107937-3.540879348,3.3521193767-3.540879348.9763454495,0,1.6910290473.3931418273,2.1427517009.9477060724h.0729041152l.1458002848-.801905291h1.5452287625v7.1846007841c0,1.9527038105-1.3122105089,3.2505925203-3.5421801785,3.2505925203-2.4916354941,0-3.4536591446-1.6324626223-3.4979236343-2.6960280269Zm5.261852824-4.342784639c0-1.1507858564-.8162233656-1.9526908991-1.8511511312-1.9526908991s-1.8368293321.8019050427-1.8368293321,1.9526908991c0,1.1507853598.8162233656,1.9670107118,1.8368293321,1.9670107118s1.8511511312-.8019055393,1.8511511312-1.9670107118Z"/>
    <path class="cls-2" d="m38.0027977405,69.793412065c0-2.2299731458,1.6025080133-3.8324814074,3.7452597142-3.8324814074s3.7452597142,1.6025082616,3.7452597142,3.8324814074-1.6025080133,3.8324811591-3.7452597142,3.8324811591-3.7452597142-1.6181298981-3.7452597142-3.8324811591Zm5.6979506133,0c0-1.3122085225-.8748056817-2.1857121322-1.9526908991-2.1857121322s-1.9670087254.8748056817-1.9670087254,2.1857121322c0,1.3109059539.889123508,2.1713918229,1.9670087254,2.1713918229s1.9526908991-.8591837969,1.9526908991-2.1713918229Z"/>
    <path class="cls-2" d="m46.7313244702,73.4813940181v-7.3746625791h1.5296078709l.1458002848.6990634511h.0729001424c.2916005696-.334561001,1.0206099393-.8448642325,2.1271347821-.8448642325,1.6910290473,0,2.9147185223,1.2236862471,2.9147185223,3.089157191v4.4300040975h-1.7782549616v-4.196983361c0-.9477058241-.670419108-1.6324492142-1.588190187-1.6324492142-.9177631335,0-1.6467645576.714684591-1.6467645576,1.6324492142v4.196983361h-1.7782549616l.0013030652.001302072Z"/>
    <path class="cls-2" d="m62.0694508693,73.4149764265h-5.2075650613v-.6810988796l4.1149687144-5.6616316431h-4.0440231698v-.7520461622h5.0656739721v.6810986313l-4.1149687144,5.6616445546h4.185914259v.7520334991Z"/>
    <path class="cls-2" d="m64.4228343222,73.4149764265h-.794615525v-9.9326822688h.794615525v6.11569239l3.5190070706-3.2777868061h1.0500321984l-3.7318516499,3.4764406874,3.873742739,3.6183359976h-1.0500242529l-3.6609061053-3.4196821163v3.4196821163Z"/>
    <path class="cls-2" d="m76.6492807135,73.4149764265h-6.2433986161v-9.9326822688h6.2433986161v.8087993949h-5.3920282445v3.70347373h5.1082381207v.8088042367h-5.1082381207v3.8028006706h5.3920282445v.8088042367Z"/>
    <path class="cls-2" d="m82.6924681265,73.4149764265h-1.3763864708l-3.5899526152-9.9326822688h.9081331637l3.2210262487,9.0387537078h.2979808219l3.2352169467-9.0387537078h.8939424657l-3.5899605607,9.9326822688Z"/>
    <path class="cls-2" d="m88.5785328893,73.4149764265h-.8513703716v-9.9326822688h1.6317951986l3.3345438873,8.9819948885h.2837901239l3.3345518329-8.9819948885h1.6317951986v9.9326822688h-.8513703716v-8.8400917569h-.2837980694l-3.2919717933,8.8400917569h-1.3763864708l-3.2777890408-8.8400917569h-.2837901239v8.8400917569Z"/>
  </g>
</svg>