<?xml version="1.0" encoding="UTF-8"?>
<svg version="1.1" xmlns="http://www.w3.org/2000/svg" width="454" height="111">
<path d="M0 0 C149.82 0 299.64 0 454 0 C454 36.63 454 73.26 454 111 C304.18 111 154.36 111 0 111 C0 74.37 0 37.74 0 0 Z " fill="#273690" transform="translate(0,0)"/>
<path d="M0 0 C5.07375 -0.12375 10.1475 -0.2475 15.375 -0.375 C16.95458496 -0.42962402 18.53416992 -0.48424805 20.16162109 -0.54052734 C28.73172401 -0.64130109 35.31869739 0.08783009 42 6 C47.95258087 13.07723431 49.50557808 21.04475239 49.31640625 30.125 C48.47506978 37.76973631 45.64068599 44.74390624 40 50 C34.1714185 53.54286326 29.21898082 55.1275938 22.36328125 55.09765625 C20.60818237 55.09390991 20.60818237 55.09390991 18.81762695 55.09008789 C16.58758911 55.07643188 16.58758911 55.07643188 14.3125 55.0625 C9.589375 55.041875 4.86625 55.02125 0 55 C0 36.85 0 18.7 0 0 Z " fill="#FAFAFC" transform="translate(29,28)"/>
<path d="M0 0 C4.57875 -0.061875 9.1575 -0.12375 13.875 -0.1875 C16.0094458 -0.22846802 16.0094458 -0.22846802 18.18701172 -0.27026367 C34.20812806 -0.37441325 34.20812806 -0.37441325 40.7109375 4.20483398 C43.53359694 7.03967687 44.33334677 9.71024648 44.5 13.5625 C44.27924717 17.4256745 43.38335653 19.88330301 41 23 C40.34 23.99 39.68 24.98 39 26 C39.94875 26.721875 40.8975 27.44375 41.875 28.1875 C45.85067557 31.53494382 46.84077009 34.24847098 47.3125 39.4375 C46.82734415 44.96827675 45.1401055 47.88523017 41.1875 51.75 C35.70499347 55.62000461 31.04919195 56.24839354 24.4140625 56.1953125 C23.12967285 56.19031738 21.8452832 56.18532227 20.52197266 56.18017578 C18.90597168 56.16196777 17.2899707 56.14375977 15.625 56.125 C10.46875 56.08375 5.3125 56.0425 0 56 C0 37.52 0 19.04 0 0 Z " fill="#F6F6F9" transform="translate(139,27)"/>
<path d="M0 0 C149.82 0 299.64 0 454 0 C454 36.63 454 73.26 454 111 C304.18 111 154.36 111 0 111 C0 74.37 0 37.74 0 0 Z M2 2 C2 37.31 2 72.62 2 109 C150.17 109 298.34 109 451 109 C451 73.69 451 38.38 451 2 C302.83 2 154.66 2 2 2 Z " fill="#FDFDFE" transform="translate(0,0)"/>
<path d="M0 0 C5.65125 -0.0825 11.3025 -0.165 17.125 -0.25 C18.89762207 -0.28641602 20.67024414 -0.32283203 22.49658203 -0.36035156 C23.9169799 -0.37204468 25.33739128 -0.38223503 26.7578125 -0.390625 C27.48282959 -0.41108887 28.20784668 -0.43155273 28.95483398 -0.45263672 C34.13663766 -0.45616536 37.00586401 0.74562986 41 4 C43.38713778 6.9441366 43.96192889 8.65101478 44.375 12.4375 C43.9657902 16.32499306 43.0709101 18.70188392 41 22 C40.01 22.66 39.02 23.32 38 24 C38.94875 24.7425 39.8975 25.485 40.875 26.25 C44.2610376 28.89994247 45.77651025 31.27964865 46.3359375 35.5859375 C46.41944775 41.54856963 46.30771383 45.47137776 42 50 C36.00668708 54.31073551 31.07493288 55.12735628 23.828125 55.09765625 C22.5793457 55.09515869 21.33056641 55.09266113 20.04394531 55.09008789 C18.46194336 55.08098389 16.87994141 55.07187988 15.25 55.0625 C7.70125 55.0315625 7.70125 55.0315625 0 55 C0 36.85 0 18.7 0 0 Z " fill="#FBFBFC" transform="translate(221,28)"/>
<path d="M0 0 C3.96 0 7.92 0 12 0 C14.62524079 2.81275799 16.19451474 4.81331076 17.95117188 8.08886719 C19.73548206 11.34016609 21.68942646 14.48987971 23.61132812 17.66113281 C25.65657661 21.04834708 27.66494885 24.45689581 29.66894531 27.86865234 C30.994394 29.99102341 32.49864783 31.9981971 34 34 C34.33 22.78 34.66 11.56 35 0 C38.63 0 42.26 0 46 0 C46 18.15 46 36.3 46 55 C42.04 55 38.08 55 34 55 C31.11651371 51.99228188 29.70847366 50.07568381 27.875 46.5 C26.88848082 44.76406143 25.90149299 43.02838912 24.9140625 41.29296875 C24.43356445 40.4117334 23.95306641 39.53049805 23.45800781 38.62255859 C21.21330464 34.5849495 18.72796296 30.70932987 16.25 26.8125 C14.14625 23.4403125 14.14625 23.4403125 12 20 C11.67 31.22 11.34 42.44 11 54 C7.37 54 3.74 54 0 54 C0 36.18 0 18.36 0 0 Z " fill="#FDFDFE" transform="translate(325,28)"/>
<path d="M0 0 C4.62 0 9.24 0 14 0 C16.6903328 7.18891583 19.37784687 14.37887657 22.06274414 21.56982422 C22.97668123 24.01640347 23.8913905 26.46269441 24.80688477 28.90869141 C26.12198317 32.42274839 27.43430925 35.93782982 28.74609375 39.453125 C29.36175453 41.0955014 29.36175453 41.0955014 29.98985291 42.77105713 C30.37017166 43.79181335 30.75049042 44.81256958 31.14233398 45.86425781 C31.47764633 46.76138489 31.81295868 47.65851196 32.15843201 48.58282471 C33 51 33 51 34 55 C29.71 55 25.42 55 21 55 C17 44.25 17 44.25 17 42 C10.07 42 3.14 42 -4 42 C-4.33 43.98 -4.66 45.96 -5 48 C-5.86173773 50.42000959 -6.92410684 52.66110182 -8 55 C-11.96 55 -15.92 55 -20 55 C-19.27415926 51.37079632 -18.52998753 48.45825852 -17.25 45.05786133 C-16.89292969 44.10369827 -16.53585937 43.14953522 -16.16796875 42.16645813 C-15.78253906 41.14859726 -15.39710938 40.13073639 -15 39.08203125 C-14.60425781 38.02843918 -14.20851563 36.97484711 -13.80078125 35.889328 C-12.96532952 33.66716352 -12.1280474 31.44568645 -11.2890625 29.22485352 C-10.00134403 25.81605785 -8.71892847 22.40530518 -7.4375 18.99414062 C-6.62530692 16.83582198 -5.81281714 14.67761495 -5 12.51953125 C-4.61457031 11.49559769 -4.22914063 10.47166412 -3.83203125 9.41670227 C-3.47496094 8.4719957 -3.11789062 7.52728912 -2.75 6.55395508 C-2.43546875 5.72076248 -2.1209375 4.88756989 -1.796875 4.02912903 C-1 2 -1 2 0 0 Z " fill="#F8F9FB" transform="translate(288,28)"/>
<path d="M0 0 C3.96 0 7.92 0 12 0 C12.33 6.93 12.66 13.86 13 21 C18.46418195 15.587116 18.46418195 15.587116 23.5625 9.9375 C24.15160156 9.27621094 24.74070312 8.61492188 25.34765625 7.93359375 C27.0028867 6.06942785 27.0028867 6.06942785 28.24609375 4.16015625 C29.7596921 2.15617089 30.73879792 1.14330442 33 0 C38.05391408 -0.5000715 42.94093553 -0.34756931 48 0 C45.06000744 3.61199086 42.03744471 6.9995094 38.671875 10.21875 C38.08043701 10.78891846 37.48899902 11.35908691 36.87963867 11.9465332 C35.67391925 13.10171057 34.45793469 14.24627346 33.23168945 15.37963867 C31.31829287 17.16533264 31.31829287 17.16533264 29 20 C29.29746304 23.26960764 30.81941515 25.503332 32.66015625 28.16015625 C33.20325439 28.94922363 33.74635254 29.73829102 34.3059082 30.55126953 C34.8855835 31.37997559 35.46525879 32.20868164 36.0625 33.0625 C36.64797607 33.90925293 37.23345215 34.75600586 37.83666992 35.62841797 C41.70610608 41.20582037 45.64737513 46.72328625 49.70703125 52.1640625 C51 54 51 54 51 55 C45.8152278 55.66834954 41.17118137 55.92060706 36 55 C32.25152103 51.95546074 30.3053626 48.19202696 28 44 C26.54021239 41.74184034 25.01796543 39.53268944 23.5 37.3125 C22.33097363 35.54322355 21.16341552 33.77297099 20 32 C17.10693729 33.29689018 15.02687666 34.54469516 13 37 C12.5005539 39.01792826 12.5005539 39.01792826 12.48828125 41.23046875 C12.45283203 42.03291016 12.41738281 42.83535156 12.38085938 43.66210938 C12.34702148 44.91217773 12.34702148 44.91217773 12.3125 46.1875 C12.27833984 47.03248047 12.24417969 47.87746094 12.20898438 48.74804688 C12.12658529 50.83156649 12.06161355 52.91576216 12 55 C8.04 55 4.08 55 0 55 C0 36.85 0 18.7 0 0 Z " fill="#FBFBFC" transform="translate(380,28)"/>
<path d="M0 0 C4.92304888 2.67982477 8.43220891 6.41757359 10.421875 11.6875 C10.9921875 13.890625 10.9921875 13.890625 11.5546875 17.390625 C7.49971826 17.73491484 3.59711875 17.93033545 -0.4453125 17.390625 C-3.0078125 14.515625 -3.0078125 14.515625 -4.4453125 11.390625 C-8.91603294 8.41014471 -13.2054977 8.79134999 -18.4453125 9.390625 C-22.3665246 11.35123105 -23.26960953 13.04527779 -25.2578125 16.953125 C-27.28263208 23.15485811 -27.57143251 30.16728543 -25.2578125 36.328125 C-22.96787741 40.19732567 -20.44462453 42.39096898 -16.4453125 44.390625 C-12.38522048 44.78101846 -9.92212239 44.6106911 -6.1953125 42.890625 C-2.59665304 39.6191164 -1.83139602 37.0109034 -0.4453125 32.390625 C3.5146875 32.390625 7.4746875 32.390625 11.5546875 32.390625 C11.14010266 40.12954207 8.75900326 45.27063334 3.1796875 50.703125 C-4.28454113 55.50155769 -10.57414243 56.48765436 -19.4453125 55.390625 C-27.67099021 52.9263443 -33.02796176 47.79736206 -37.5390625 40.66015625 C-40.95045929 33.50569909 -40.62909252 23.16587323 -38.75390625 15.6015625 C-35.62022144 7.97058108 -30.78086781 2.52115305 -23.27734375 -0.8828125 C-15.36855411 -4.01934741 -7.80537783 -3.13984037 0 0 Z " fill="#F9F9FB" transform="translate(121.4453125,28.609375)"/>
<path d="M0 0 C14 0 14 0 20 3 C24.80301673 8.13425926 24.28235955 14.16421345 24.21484375 20.86328125 C23.95693101 24.62880731 23.25907359 26.96193552 21 30 C16 34 16 34 0 34 C0 22.78 0 11.56 0 0 Z " fill="#23338E" transform="translate(41,38)"/>
<path d="M0 0 C2.56314499 -0.08132187 5.12368418 -0.14064175 7.6875 -0.1875 C8.40873047 -0.21263672 9.12996094 -0.23777344 9.87304688 -0.26367188 C14.48087064 -0.32679275 17.31351222 0.20165268 21 3 C22 4 22 4 22.3125 7.3125 C22 11 22 11 20.55859375 13.21484375 C16.73310709 15.88392376 13.29279573 15.43455108 8.75 15.25 C7.90953125 15.23195313 7.0690625 15.21390625 6.203125 15.1953125 C4.13492605 15.14830798 2.06731559 15.07656724 0 15 C0 10.05 0 5.1 0 0 Z " fill="#283790" transform="translate(233,58)"/>
<path d="M0 0 C2.58361518 -0.05407567 5.16609255 -0.093707 7.75 -0.125 C8.84441406 -0.15013672 8.84441406 -0.15013672 9.9609375 -0.17578125 C16.90003453 -0.23886395 16.90003453 -0.23886395 20 2 C21.55460305 5.10920609 21.72720693 8.63083028 21 12 C19.22446413 14.10050132 17.8171921 14.90152187 15.07739258 15.23168945 C12.79380404 15.29568194 10.53320979 15.26133514 8.25 15.1875 C7.45722656 15.17396484 6.66445312 15.16042969 5.84765625 15.14648438 C3.89814436 15.11125223 1.94898374 15.05744821 0 15 C0 10.05 0 5.1 0 0 Z " fill="#24348E" transform="translate(152,58)"/>
<path d="M0 0 C2.41696872 -0.05411124 4.83271787 -0.09372278 7.25 -0.125 C7.93191406 -0.14175781 8.61382812 -0.15851562 9.31640625 -0.17578125 C16.07673 -0.24141546 16.07673 -0.24141546 19 2 C19.9375 5.4375 19.9375 5.4375 20 9 C18.49597949 11.14860073 17.32895015 11.83552492 15 13 C12.44842345 13.0716735 9.92527029 13.09308442 7.375 13.0625 C6.66859375 13.05798828 5.9621875 13.05347656 5.234375 13.04882812 C3.48954725 13.03703875 1.744763 13.01910324 0 13 C0 8.71 0 4.42 0 0 Z " fill="#293891" transform="translate(233,37)"/>
<path d="M0 0 C2.22855574 -0.0814222 4.45797655 -0.13938079 6.6875 -0.1875 C8.54955078 -0.23970703 8.54955078 -0.23970703 10.44921875 -0.29296875 C14.23088802 0.01905017 16.0813064 0.60699981 19 3 C19.625 6.5 19.625 6.5 19 10 C15.01614621 13.26631164 11.718979 13.3285695 6.6875 13.1875 C5.43324219 13.16042969 4.17898437 13.13335937 2.88671875 13.10546875 C1.93410156 13.07066406 0.98148438 13.03585938 0 13 C0 8.71 0 4.42 0 0 Z " fill="#23338E" transform="translate(152,37)"/>
<path d="M0 0 C3.13677627 1.56838814 3.53744438 4.66680859 4.625 7.8125 C4.85445313 8.44220703 5.08390625 9.07191406 5.3203125 9.72070312 C6.49367159 13.0487127 7 15.42142872 7 19 C2.71 19 -1.58 19 -6 19 C-5.13832722 14.69163608 -3.94423127 10.78564022 -2.4375 6.6875 C-2.20353516 6.04232422 -1.96957031 5.39714844 -1.72851562 4.73242188 C-1.15552993 3.15378781 -0.57820536 1.57672974 0 0 Z " fill="#273791" transform="translate(294,42)"/>
</svg>
