<svg width="24" height="24" viewBox="0 0 24 24" fill="none" xmlns="http://www.w3.org/2000/svg">
<path d="M18.71 3.29C18.6168 3.19676 18.5061 3.1228 18.3842 3.07234C18.2624 3.02188 18.1319 2.99591 18 2.99591C17.7337 2.99591 17.4783 3.1017 17.29 3.29C17.1017 3.47831 16.9959 3.7337 16.9959 4C16.9959 4.2663 17.1017 4.5217 17.29 4.71L18.59 6H3C2.73478 6 2.48043 6.10536 2.29289 6.2929C2.10536 6.48043 2 6.73479 2 7C2 7.26522 2.10536 7.51957 2.29289 7.70711C2.48043 7.89465 2.73478 8 3 8H18.59L17.29 9.29C17.1963 9.38297 17.1219 9.49357 17.0711 9.61543C17.0203 9.73728 16.9942 9.86799 16.9942 10C16.9942 10.132 17.0203 10.2627 17.0711 10.3846C17.1219 10.5064 17.1963 10.617 17.29 10.71C17.383 10.8037 17.4936 10.8781 17.6154 10.9289C17.7373 10.9797 17.868 11.0058 18 11.0058C18.132 11.0058 18.2627 10.9797 18.3846 10.9289C18.5064 10.8781 18.617 10.8037 18.71 10.71L21.71 7.71C21.8037 7.61704 21.8781 7.50644 21.9289 7.38458C21.9797 7.26272 22.0058 7.13201 22.0058 7C22.0058 6.86799 21.9797 6.73728 21.9289 6.61543C21.8781 6.49357 21.8037 6.38297 21.71 6.29L18.71 3.29Z" fill="#AAABB8"/>
<path d="M21 16H5.41L6.71 14.71C6.8983 14.5217 7.00409 14.2663 7.00409 14C7.00409 13.7337 6.8983 13.4783 6.71 13.29C6.5217 13.1017 6.2663 12.9959 6 12.9959C5.7337 12.9959 5.4783 13.1017 5.29 13.29L2.29 16.29C2.19627 16.383 2.12188 16.4936 2.07111 16.6154C2.02034 16.7373 1.9942 16.868 1.9942 17C1.9942 17.132 2.02034 17.2627 2.07111 17.3846C2.12188 17.5064 2.19627 17.617 2.29 17.71L5.29 20.71C5.38296 20.8037 5.49356 20.8781 5.61542 20.9289C5.73728 20.9797 5.86799 21.0058 6 21.0058C6.13201 21.0058 6.26272 20.9797 6.38458 20.9289C6.50644 20.8781 6.61704 20.8037 6.71 20.71C6.80373 20.617 6.87812 20.5064 6.92889 20.3846C6.97966 20.2627 7.0058 20.132 7.0058 20C7.0058 19.868 6.97966 19.7373 6.92889 19.6154C6.87812 19.4936 6.80373 19.383 6.71 19.29L5.41 18H21C21.2652 18 21.5196 17.8946 21.7071 17.7071C21.8946 17.5196 22 17.2652 22 17C22 16.7348 21.8946 16.4804 21.7071 16.2929C21.5196 16.1054 21.2652 16 21 16Z" fill="#AAABB8"/>
</svg>
