<svg width="24" height="24" viewBox="0 0 24 24" fill="none" xmlns="http://www.w3.org/2000/svg">
<g clip-path="url(#clip0_1326_331)">
<path d="M23.7253 7.65253L20.0319 3.95911C19.6657 3.5929 19.0723 3.5929 18.7061 3.95911C18.34 4.32532 18.34 4.91876 18.7061 5.28497L22.125 8.70374V17.5312C22.125 18.0309 21.7185 18.4374 21.2188 18.4374C20.7191 18.4374 20.3126 18.0309 20.3126 17.5312V13.8437C20.3124 12.3102 19.0649 11.0625 17.5312 11.0625H16.6251V2.8125C16.6251 1.2616 15.3633 0 13.8126 0H4.65619C3.10547 0 1.84369 1.2616 1.84369 2.8125V22.125H0.9375C0.419678 22.125 0 22.5447 0 23.0625C0 23.5803 0.419678 24 0.9375 24H17.5312C18.0491 24 18.4688 23.5803 18.4688 23.0625C18.4688 22.5447 18.0491 22.125 17.5312 22.125H16.6251V12.9375H17.5312C18.0309 12.9375 18.4374 13.344 18.4374 13.8437V17.5312C18.4374 19.0649 19.6851 20.3124 21.2186 20.3124C22.7523 20.3124 24 19.0649 24 17.5312V8.31555C24 8.06689 23.9013 7.82831 23.7253 7.65253ZM4.65619 1.875H13.8124C14.3295 1.875 14.7499 2.29559 14.7499 2.8125V7.37494H3.71869V2.8125C3.71869 2.29559 4.13928 1.875 4.65619 1.875ZM3.71869 22.125V9.24994H14.7499V22.125H3.71869Z" fill="#AAABB8"/>
</g>
<defs>
<clipPath id="clip0_1326_331">
<rect width="24" height="24" fill="white"/>
</clipPath>
</defs>
</svg>
