<svg width="24" height="24" viewBox="0 0 24 24" fill="none" xmlns="http://www.w3.org/2000/svg">
<g clip-path="url(#clip0_1326_337)">
<path d="M23.9753 15.5649C23.579 13.3332 22.0981 11.5413 20.1452 10.7102C21.0119 9.98346 21.5654 8.883 21.5654 7.65363C21.5654 5.47009 19.82 3.6936 17.6746 3.6936C15.5292 3.6936 13.7838 5.46991 13.7838 7.65363C13.7838 8.88373 14.3379 9.98456 15.2054 10.7115C14.8817 10.8496 14.568 11.0143 14.2685 11.2064C13.5135 11.6906 12.869 12.3281 12.3722 13.0748C11.8667 12.739 11.323 12.4596 10.7499 12.2452C11.9817 11.3547 12.787 9.89063 12.787 8.23847C12.787 5.53088 10.6243 3.32812 7.96598 3.32812C5.30765 3.32812 3.14499 5.53088 3.14499 8.23847C3.14499 9.89063 3.95029 11.3547 5.18204 12.2452C2.5607 13.2259 0.550206 15.5581 0.0287217 18.4944C-0.0675917 19.0373 0.0803575 19.591 0.4343 20.0136C0.784948 20.432 1.29654 20.6719 1.83799 20.6719H14.094C14.6354 20.6719 15.147 20.432 15.4977 20.0136C15.8518 19.591 15.9996 19.0373 15.9032 18.4944C15.839 18.1322 15.7518 17.7794 15.644 17.4371H22.4181C22.8843 17.4371 23.3249 17.2306 23.6266 16.8706C23.931 16.5075 24.058 16.0314 23.9753 15.5649ZM15.19 7.65363C15.19 6.24536 16.3046 5.09985 17.6746 5.09985C19.0446 5.09985 20.1592 6.24536 20.1592 7.65363C20.1592 9.06171 19.0446 10.2072 17.6746 10.2072C16.3046 10.2072 15.19 9.06171 15.19 7.65363ZM4.55124 8.23847C4.55124 6.30634 6.08311 4.73438 7.96598 4.73438C9.84885 4.73438 11.3809 6.30634 11.3809 8.23847C11.3809 10.1706 9.84885 11.7426 7.96598 11.7426C6.08311 11.7426 4.55124 10.1706 4.55124 8.23847ZM14.4199 19.1104C14.3712 19.1684 14.2643 19.2656 14.094 19.2656H1.83799C1.6677 19.2656 1.56077 19.1684 1.51206 19.1104C1.46152 19.0499 1.38132 18.9214 1.41337 18.7401C1.98868 15.5004 4.74442 13.1488 7.96598 13.1488C11.1875 13.1488 13.9435 15.5004 14.5186 18.7401C14.5508 18.9214 14.4706 19.0499 14.4199 19.1104ZM22.5489 15.9673C22.5289 15.9912 22.4855 16.0309 22.4183 16.0309H15.0529C14.6369 15.2514 14.1026 14.5521 13.4758 13.9556C14.3917 12.4986 15.9571 11.6135 17.6746 11.6135C20.0914 11.6135 22.1587 13.3786 22.5906 15.8108C22.6042 15.8875 22.5703 15.9419 22.5489 15.9673Z" fill="#AAABB8"/>
</g>
<defs>
<clipPath id="clip0_1326_337">
<rect width="24" height="24" fill="white"/>
</clipPath>
</defs>
</svg>
