<svg width="32" height="32" viewBox="0 0 32 32" fill="none" xmlns="http://www.w3.org/2000/svg">
  <rect width="32" height="32" rx="10" fill="url(#paint0_linear)"/>
  <circle cx="16" cy="16" r="9" stroke="white" stroke-width="2" opacity="0.65"/>
  <path d="M16 11c2.761 0 5 2.239 5 5s-2.239 5-5 5c-1.1 0-2-.4-2.8-1.04l1.8-1.9c.28.18.62.28.98.28 1.02 0 1.86-.84 1.86-1.86 0-1.02-.84-1.86-1.86-1.86-.94 0-1.72.7-1.84 1.6H12c.16-2.52 2.28-4.42 4-4.42z" fill="white"/>
  <defs>
    <linearGradient id="paint0_linear" x1="5" y1="5" x2="27" y2="27" gradientUnits="userSpaceOnUse">
      <stop stop-color="#0F172A"/>
      <stop offset="1" stop-color="#1F2937"/>
    </linearGradient>
  </defs>
</svg>
