<svg width="16" height="16" viewBox="0 0 16 16" fill="none" xmlns="http://www.w3.org/2000/svg">
<g clip-path="url(#clip0_2134_2160)">
<path d="M14.6293 7.58454L12.962 7.03187C12.5573 6.89787 12.11 6.89787 11.7033 7.03187L10.0367 7.58454C9.21733 7.85587 8.666 8.61921 8.666 9.48321V11.6219C8.70333 13.3099 9.83467 14.7339 12.0307 15.8532C12.204 15.9419 12.4073 15.9499 12.5867 15.8759C14.8127 14.9592 15.9607 13.5279 15.9993 11.6072V9.48254C15.9993 8.61854 15.4487 7.85587 14.6287 7.58387L14.6293 7.58454ZM8.64733 15.4279C8.70333 15.2145 8.58533 14.9925 8.44467 14.8365C8.42133 14.8159 6.86133 13.3945 5.84867 11.3332H6.66667C7.03467 11.3332 7.33333 11.0345 7.33333 10.6665C7.33333 10.2985 7.03467 9.99987 6.66667 9.99987H5.31333C5.11933 9.36521 5 8.69321 5 7.99987C5 7.30654 5.12 6.63521 5.31467 5.99987H11.1627C11.1627 5.99987 11.164 5.99987 11.1647 5.99987H11.1667H14.356C14.3753 6.06054 14.398 6.11987 14.4153 6.18121C14.5147 6.53854 14.8933 6.74187 15.238 6.64121C15.5927 6.54121 15.7987 6.17254 15.698 5.81854C14.734 2.40521 11.5873 0.0192052 8.03933 0.00120522C3.61933 -0.0214614 -0.0026652 3.57387 1.47154e-06 7.99987C1.47154e-06 12.4105 3.58867 15.9999 7.99933 15.9999C8.31867 16.0012 8.61733 15.7459 8.64733 15.4279ZM3.93533 9.99987H1.64067C1.44133 9.36787 1.33333 8.69654 1.33333 7.99987C1.33333 7.30321 1.44133 6.63187 1.64067 5.99987H3.93533C3.77133 6.63721 3.66667 7.30521 3.66667 7.99987C3.66667 8.69454 3.77133 9.36254 3.93533 9.99987ZM8.00133 1.60854C8.544 2.18254 9.47133 3.27521 10.154 4.66654H5.852C6.53533 3.27787 7.46 2.18321 8.00133 1.60854ZM13.774 4.66654H11.6167C11.09 3.41254 10.3627 2.34721 9.736 1.56854C11.432 2.02921 12.8927 3.14587 13.7747 4.66654H13.774ZM6.25933 1.57187C5.63267 2.34987 4.91 3.41654 4.38533 4.66654H2.23533C3.10733 3.16454 4.546 2.03654 6.25933 1.57187ZM2.23533 11.3332H4.38533C4.91 12.5832 5.632 13.6499 6.25933 14.4279C4.546 13.9632 3.10733 12.8352 2.23533 11.3332Z" fill="white"/>
</g>
<defs>
<clipPath id="clip0_2134_2160">
<rect width="16" height="16" fill="white"/>
</clipPath>
</defs>
</svg>
