<svg width="16" height="16" viewBox="0 0 16 16" fill="none" xmlns="http://www.w3.org/2000/svg">
<g clip-path="url(#clip0_2134_1865)">
<path d="M12.6667 0.666626H3.33333C1.49533 0.666626 0 2.16196 0 3.99996V9.33329C0 11.1713 1.49533 12.6666 3.33333 12.6666H7.33333V14H4.66667C4.29867 14 4 14.2986 4 14.6666C4 15.0346 4.29867 15.3333 4.66667 15.3333H11.3333C11.7013 15.3333 12 15.0346 12 14.6666C12 14.2986 11.7013 14 11.3333 14H8.66667V12.6666H12.6667C14.5047 12.6666 16 11.1713 16 9.33329V3.99996C16 2.16196 14.5047 0.666626 12.6667 0.666626ZM13.3333 7.31863C13.3333 7.68663 13.0347 7.98529 12.6667 7.98529C12.2987 7.98529 12 7.68663 12 7.31863V6.27663L9.664 8.61263C9.07667 9.20063 8.052 9.20063 7.46467 8.61263L6.22333 7.37129C6.13667 7.28463 5.996 7.28463 5.90933 7.37129L3.80667 9.47396C3.67667 9.60396 3.506 9.66929 3.33533 9.66929C3.16467 9.66929 2.994 9.60396 2.864 9.47396C2.60333 9.21329 2.60333 8.79196 2.864 8.53129L4.96667 6.42863C5.57267 5.82196 6.56 5.82196 7.166 6.42863L8.40733 7.66996C8.52067 7.78329 8.608 7.78329 8.72133 7.66996L11.0573 5.33396H10C9.632 5.33396 9.33333 5.03529 9.33333 4.66729C9.33333 4.29929 9.632 4.00063 10 4.00063H12.3333C12.8847 4.00063 13.3333 4.44929 13.3333 5.00063V7.31929V7.31863Z" fill="white"/>
</g>
<defs>
<clipPath id="clip0_2134_1865">
<rect width="16" height="16" fill="white"/>
</clipPath>
</defs>
</svg>
