<svg width="82" height="56" viewBox="0 0 82 56" fill="none" xmlns="http://www.w3.org/2000/svg">
<path d="M37.9165 6.5072C37.9165 10.1011 35.0034 13.0144 31.4097 13.0144C27.8159 13.0144 24.9016 10.1011 24.9016 6.5072C24.9016 2.91328 27.8147 0 31.4097 0C35.0022 0 37.9165 2.91328 37.9165 6.5072Z" fill="#080E12"/>
<path fill-rule="evenodd" clip-rule="evenodd" d="M49.8934 12.9918C53.2376 12.7147 55.865 9.91735 55.865 6.5072C55.865 2.91328 52.9468 0 49.3468 0C45.7468 0 42.8286 2.91328 42.8286 6.5072C42.8286 6.50787 42.8286 6.50854 42.8286 6.50921L42.8269 6.50781C42.8269 6.50781 42.2619 11.1203 39.5678 13.8287C37.1096 16.2999 31.5227 17.7212 30.5631 17.9512C27.3675 18.3703 24.9016 21.0988 24.9016 24.4025C24.9016 27.9965 27.8209 30.9097 31.4209 30.9097C32.7931 30.9097 34.0662 30.4865 35.1164 29.7636C38.8491 27.7799 42.1775 28.112 45.905 29.9296C46.9039 30.5508 48.0834 30.9097 49.347 30.9097C52.947 30.9097 55.8652 27.9965 55.8652 24.4025C55.8652 20.8086 52.947 17.8953 49.347 17.8953C46.7414 17.8953 44.493 19.4215 43.4496 21.6272C42.9415 22.3286 41.9902 23.3012 40.6228 23.3012C39.4192 23.3012 38.667 23.0632 38.2393 22.8552C38.7797 21.618 40.0462 19.0596 42.013 17.0823C44.1628 14.9211 48.3067 13.4842 49.8934 12.9918Z" fill="url(#paint0_linear_73_16856)"/>
<path d="M12.4021 53.1668V55.8163H0.166656V53.7226L7.94344 44.3162H0.325896V41.6667H12.1886V43.7593L4.38591 53.1644H12.4021V53.1668ZM29.6366 48.8216C29.6366 49.0512 29.6189 49.3774 29.5835 49.8013H18.4627C18.6573 50.8435 19.1622 51.6736 19.9749 52.2919C20.8064 52.8924 21.8327 53.1927 23.0535 53.1927C24.6105 53.1927 25.8927 52.6805 26.9024 51.656L28.68 53.6955C28.043 54.455 27.2385 55.0285 26.2654 55.4171C25.2923 55.8057 24.1953 56 22.9745 56C21.4175 56 20.0468 55.6915 18.8602 55.0721C17.6747 54.4539 16.7547 53.5978 16.1 52.5027C15.4631 51.3899 15.1446 50.1358 15.1446 48.7403C15.1446 47.3626 15.4536 46.1262 16.0741 45.031C16.711 43.9182 17.5863 43.0527 18.7021 42.4345C19.8168 41.8163 21.073 41.5066 22.4708 41.5066C23.8509 41.5066 25.08 41.8151 26.1593 42.4345C27.2562 43.0351 28.1055 43.8923 28.7071 45.0039C29.3275 46.1014 29.6366 47.3732 29.6366 48.8216ZM22.4708 44.1585C21.4092 44.1585 20.5068 44.4764 19.7637 45.1123C19.0383 45.7305 18.596 46.5607 18.4367 47.6028H26.4777C26.3362 46.5783 25.9021 45.7482 25.1779 45.1123C24.4536 44.4752 23.5501 44.1585 22.4708 44.1585ZM47.2083 48.8216C47.2083 49.0512 47.1907 49.3774 47.1553 49.8013H36.0345C36.2291 50.8435 36.7339 51.6736 37.5478 52.2919C38.3794 52.8924 39.4056 53.1927 40.6265 53.1927C42.1835 53.1927 43.4656 52.6805 44.4741 51.656L46.2517 53.6955C45.6148 54.455 44.8103 55.0285 43.8372 55.4171C42.8641 55.8057 41.7671 56 40.5462 56C38.9892 56 37.6186 55.6915 36.432 55.0721C35.2465 54.4539 34.3265 53.5978 33.6718 52.5027C33.0349 51.3899 32.7164 50.1358 32.7164 48.7403C32.7164 47.3626 33.0254 46.1262 33.6459 45.031C34.2828 43.9182 35.1592 43.0527 36.2739 42.4345C37.3886 41.8163 38.6448 41.5066 40.0426 41.5066C41.4226 41.5066 42.6517 41.8151 43.731 42.4345C44.828 43.0351 45.6773 43.8923 46.2789 45.0039C46.8981 46.1014 47.2083 47.3732 47.2083 48.8216ZM40.0426 44.1585C38.981 44.1585 38.0786 44.4764 37.3355 45.1123C36.6101 45.7305 36.1677 46.5607 36.0085 47.6028H44.0507C43.9091 46.5783 43.4751 45.7482 42.7496 45.1123C42.0242 44.4752 41.1219 44.1585 40.0426 44.1585ZM64.4675 41.6679L58.3893 55.8163H54.9663L48.8892 41.6679H52.3394L56.745 52.16L61.2839 41.6679H64.4675ZM80.5366 48.8216C80.5366 49.0512 80.5189 49.3774 80.4835 49.8013H69.3639C69.5585 50.8435 70.0622 51.6736 70.8761 52.2919C71.7076 52.8924 72.7338 53.1927 73.9547 53.1927C75.5117 53.1927 76.795 52.6805 77.8024 51.656L79.5811 53.6955C78.9442 54.455 78.1386 55.0285 77.1654 55.4171C76.1923 55.8057 75.0953 56 73.8745 56C72.3175 56 70.9456 55.6915 69.7602 55.0721C68.5747 54.4539 67.6547 53.5978 67 52.5027C66.3631 51.3899 66.0446 50.1358 66.0446 48.7403C66.0446 47.3626 66.3536 46.1262 66.9741 45.031C67.6111 43.9182 68.4863 43.0527 69.601 42.4345C70.7156 41.8163 71.9719 41.5066 73.3696 41.5066C74.7497 41.5066 75.9788 41.8151 77.0593 42.4345C78.1562 43.0351 79.0055 43.8923 79.6071 45.0039C80.2264 46.1014 80.5366 47.3732 80.5366 48.8216ZM73.3708 44.1585C72.3092 44.1585 71.4068 44.4764 70.6637 45.1123C69.9383 45.7305 69.496 46.5607 69.3367 47.6028H77.3789C77.2374 46.5783 76.8033 45.7482 76.0779 45.1123C75.3524 44.4752 74.4501 44.1585 73.3708 44.1585Z" fill="#080E12"/>
<defs>
<linearGradient id="paint0_linear_73_16856" x1="24.9016" y1="3.63643" x2="56.2307" y2="4.06298" gradientUnits="userSpaceOnUse">
<stop stop-color="#32B8B2"/>
<stop offset="1" stop-color="#088DB2"/>
</linearGradient>
</defs>
</svg>
