<svg width="24" height="24" viewBox="-2 0 24 24" fill="none" xmlns="http://www.w3.org/2000/svg">
<path d="M15.7634 12.7297V12.7298C15.78 14.5227 16.5677 15.7202 17.3553 16.4697C17.7486 16.8438 18.1417 17.1064 18.4389 17.2764C18.5875 17.3614 18.7123 17.4235 18.8014 17.4649C18.8263 17.4764 18.8491 17.4867 18.869 17.4954C18.7576 17.8488 18.2843 19.2553 17.2943 20.7021L17.3716 20.755L17.2943 20.7021C16.8079 21.4129 16.3188 22.1124 15.7558 22.6387C15.1947 23.1633 14.567 23.5094 13.804 23.5237C13.0627 23.5372 12.5694 23.3238 12.0394 23.0945C12.0278 23.0895 12.0162 23.0845 12.0046 23.0795C11.4584 22.8434 10.8727 22.5985 9.96125 22.5985C9.0513 22.5985 8.45268 22.828 7.90173 23.0609C7.86317 23.0772 7.82489 23.0935 7.78679 23.1097C7.28206 23.3246 6.80921 23.5259 6.14132 23.5522C5.41106 23.5799 4.75965 23.215 4.16249 22.6552C3.5652 22.0954 3.03397 21.3518 2.54398 20.6443C1.55159 19.2095 0.674507 17.1791 0.301203 15.0652C-0.0722315 12.9506 0.0603568 10.7643 1.07174 9.00805C2.07597 7.26478 3.86917 6.1638 5.81193 6.13544L5.81235 6.13544C6.54434 6.12148 7.26017 6.36784 7.91796 6.62435C8.00481 6.65822 8.09086 6.69235 8.17583 6.72605C8.40996 6.8189 8.63587 6.9085 8.84763 6.98042C9.13614 7.07841 9.40917 7.14758 9.65487 7.14758C9.90233 7.14758 10.1959 7.06404 10.5159 6.94937C10.6926 6.88603 10.8847 6.81026 11.0857 6.73101C11.2465 6.66761 11.413 6.60198 11.5817 6.5387C12.3526 6.24957 13.2203 5.98954 14.1046 6.0791L14.1045 6.07926L14.1101 6.0795C14.8489 6.11032 16.8957 6.37481 18.241 8.26906C17.7885 8.55785 15.7389 9.99753 15.7634 12.7297ZM12.8537 4.01306L12.8537 4.01307C12.0694 4.96272 10.798 5.69676 9.5541 5.63345C9.41525 4.35534 10.0484 3.02269 10.7771 2.18035L10.7775 2.17992C11.5825 1.23777 12.927 0.530098 14.0531 0.452033C14.1666 1.75612 13.6371 3.06481 12.8537 4.01306Z" fill="#080E12" stroke="#080E12" stroke-width="0.1875"/>
</svg>
