<svg width="24" height="24" viewBox="0 0 24 24" fill="none" xmlns="http://www.w3.org/2000/svg">
    <g clip-path="url(#clip0_662_26346)">
        <mask id="path-1-inside-1_662_26346" fill="white">
            <path
                d="M12 0.5C5.37 0.5 0 5.78 0 12.292C0 17.503 3.438 21.922 8.205 23.48C8.805 23.591 9.025 23.226 9.025 22.913C9.025 22.633 9.015 21.891 9.01 20.908C5.672 21.619 4.968 19.326 4.968 19.326C4.422 17.965 3.633 17.601 3.633 17.601C2.546 16.87 3.717 16.885 3.717 16.885C4.922 16.967 5.555 18.1 5.555 18.1C6.625 19.903 8.364 19.382 9.05 19.081C9.158 18.318 9.467 17.799 9.81 17.504C7.145 17.209 4.344 16.195 4.344 11.677C4.344 10.39 4.809 9.338 5.579 8.513C5.444 8.215 5.039 7.016 5.684 5.392C5.684 5.392 6.689 5.076 8.984 6.601C9.944 6.339 10.964 6.209 11.984 6.203C13.004 6.209 14.024 6.339 14.984 6.601C17.264 5.076 18.269 5.392 18.269 5.392C18.914 7.016 18.509 8.215 18.389 8.513C19.154 9.338 19.619 10.39 19.619 11.677C19.619 16.207 16.814 17.204 14.144 17.494C14.564 17.848 14.954 18.571 14.954 19.676C14.954 21.254 14.939 22.522 14.939 22.905C14.939 23.214 15.149 23.583 15.764 23.465C20.565 21.917 24 17.495 24 12.292C24 5.78 18.627 0.5 12 0.5Z" />
        </mask>
        <path
            d="M12 0.5C5.37 0.5 0 5.78 0 12.292C0 17.503 3.438 21.922 8.205 23.48C8.805 23.591 9.025 23.226 9.025 22.913C9.025 22.633 9.015 21.891 9.01 20.908C5.672 21.619 4.968 19.326 4.968 19.326C4.422 17.965 3.633 17.601 3.633 17.601C2.546 16.87 3.717 16.885 3.717 16.885C4.922 16.967 5.555 18.1 5.555 18.1C6.625 19.903 8.364 19.382 9.05 19.081C9.158 18.318 9.467 17.799 9.81 17.504C7.145 17.209 4.344 16.195 4.344 11.677C4.344 10.39 4.809 9.338 5.579 8.513C5.444 8.215 5.039 7.016 5.684 5.392C5.684 5.392 6.689 5.076 8.984 6.601C9.944 6.339 10.964 6.209 11.984 6.203C13.004 6.209 14.024 6.339 14.984 6.601C17.264 5.076 18.269 5.392 18.269 5.392C18.914 7.016 18.509 8.215 18.389 8.513C19.154 9.338 19.619 10.39 19.619 11.677C19.619 16.207 16.814 17.204 14.144 17.494C14.564 17.848 14.954 18.571 14.954 19.676C14.954 21.254 14.939 22.522 14.939 22.905C14.939 23.214 15.149 23.583 15.764 23.465C20.565 21.917 24 17.495 24 12.292C24 5.78 18.627 0.5 12 0.5Z"
            fill="#080E12" />
        <path
            d="M8.205 23.48L1.5776 43.7578L2.92761 44.199L4.32418 44.4574L8.205 23.48ZM9.01 20.908L30.3431 20.7995L30.2097 -5.41948L4.56566 0.0427427L9.01 20.908ZM4.968 19.326L25.3618 13.0647L25.0998 12.2114L24.7675 11.3829L4.968 19.326ZM3.633 17.601L-8.27192 35.3037L-6.85465 36.2568L-5.3038 36.9722L3.633 17.601ZM3.717 16.885L5.16538 -4.39911L4.57847 -4.43905L3.99026 -4.44658L3.717 16.885ZM5.555 18.1L-13.0688 28.505L-12.933 28.7481L-12.7909 28.9875L5.555 18.1ZM9.05 19.081L17.6217 38.6165L28.5068 33.8404L30.1728 22.0709L9.05 19.081ZM9.81 17.504L23.7207 33.6782L60.9063 1.69642L12.1571 -3.69982L9.81 17.504ZM5.579 8.513L21.1748 23.0691L30.8819 12.6687L25.0113 -0.290225L5.579 8.513ZM5.684 5.392L-0.714939 -14.959L-10.3966 -11.9148L-14.1428 -2.48256L5.684 5.392ZM8.984 6.601L-2.82279 24.3693L5.25011 29.7336L14.6008 27.1816L8.984 6.601ZM11.984 6.203L12.1095 -15.13L11.984 -15.1307L11.8585 -15.13L11.984 6.203ZM14.984 6.601L9.3672 27.1816L18.7555 29.7439L26.8445 24.3334L14.984 6.601ZM18.269 5.392L38.0958 -2.48256L34.3496 -11.9148L24.6679 -14.959L18.269 5.392ZM18.389 8.513L-1.40013 0.544222L-6.45462 13.0962L2.74595 23.0184L18.389 8.513ZM14.144 17.494L11.8404 -3.7146L-37.7326 1.66973L0.395262 33.8061L14.144 17.494ZM15.764 23.465L19.7839 44.4162L21.0671 44.17L22.3107 43.769L15.764 23.465ZM12 -20.8333C-6.06253 -20.8333 -21.3333 -6.34861 -21.3333 12.292H21.3333C21.3333 17.9086 16.8025 21.8333 12 21.8333V-20.8333ZM-21.3333 12.292C-21.3333 27.2011 -11.5067 39.4814 1.5776 43.7578L14.8324 3.20221C18.3827 4.36255 21.3333 7.80489 21.3333 12.292H-21.3333ZM4.32418 44.4574C9.36202 45.3894 16.8256 44.8454 23.0775 39.2428C28.7418 34.1667 30.3583 27.6155 30.3583 22.913H-12.3083C-12.3083 18.5235 -10.8018 12.3113 -5.39745 7.46821C0.594362 2.09862 7.64798 1.68162 12.0858 2.50262L4.32418 44.4574ZM30.3583 22.913C30.3583 22.7467 30.357 22.5698 30.356 22.4455C30.3549 22.3081 30.3533 22.1411 30.3518 21.98C30.3488 21.6441 30.3453 21.2472 30.3431 20.7995L-12.3231 21.0165C-12.3203 21.5518 -12.3163 22.0174 -12.3131 22.3683C-12.3114 22.5505 -12.3102 22.683 -12.3093 22.7941C-12.3082 22.9185 -12.3083 22.9393 -12.3083 22.913H30.3583ZM4.56566 0.0427427C6.18176 -0.30149 8.58992 -0.511145 11.4497 0.103015C14.3821 0.732786 17.0396 2.07076 19.2294 3.85874C21.3261 5.5706 22.7029 7.44942 23.5874 8.97542C24.0363 9.74993 24.3902 10.4875 24.6715 11.157C24.8134 11.4944 24.9401 11.8224 25.0537 12.1387C25.1107 12.2972 25.1646 12.4536 25.2158 12.6077C25.2414 12.6848 25.2664 12.7614 25.2907 12.8376C25.3028 12.8756 25.3148 12.9136 25.3267 12.9514C25.3326 12.9704 25.3385 12.9893 25.3444 13.0081C25.3473 13.0176 25.3516 13.0317 25.3531 13.0364C25.3575 13.0505 25.3618 13.0647 4.968 19.326C-15.4258 25.5873 -15.4214 25.6015 -15.4171 25.6156C-15.4156 25.6204 -15.4112 25.6346 -15.4083 25.6441C-15.4024 25.6631 -15.3964 25.6822 -15.3904 25.7014C-15.3784 25.7398 -15.3661 25.7786 -15.3536 25.8178C-15.3286 25.8961 -15.3026 25.976 -15.2756 26.0574C-15.2215 26.2202 -15.1632 26.3893 -15.1003 26.5644C-14.9747 26.914 -14.8296 27.2906 -14.662 27.6893C-14.3291 28.4814 -13.8941 29.3926 -13.3271 30.3709C-12.2063 32.3046 -10.4448 34.7123 -7.75494 36.9085C-1.53514 41.9868 6.27744 43.302 13.4543 41.7733L4.56566 0.0427427ZM24.7675 11.3829C23.3816 7.92846 21.3835 5.03366 19.0549 2.74339C17.9185 1.62577 16.7636 0.710877 15.6564 -0.0324621C15.1042 -0.403223 14.5658 -0.730018 14.0492 -1.01777C13.7909 -1.16166 13.5379 -1.29586 13.2911 -1.42101C13.1677 -1.48359 13.0459 -1.54393 12.9256 -1.6021C12.8655 -1.63119 12.8058 -1.65973 12.7465 -1.68775C12.7168 -1.70176 12.6873 -1.71564 12.6578 -1.72938C12.6431 -1.73626 12.6284 -1.7431 12.6137 -1.74991C12.6064 -1.75331 12.5954 -1.7584 12.5917 -1.76009C12.5808 -1.76517 12.5698 -1.77023 3.633 17.601C-5.3038 36.9722 -5.31477 36.9672 -5.32573 36.9621C-5.32938 36.9604 -5.34035 36.9553 -5.34766 36.9519C-5.36228 36.9452 -5.37691 36.9383 -5.39153 36.9315C-5.42079 36.9179 -5.45005 36.9041 -5.47932 36.8903C-5.53786 36.8626 -5.59645 36.8346 -5.65506 36.8063C-5.77229 36.7496 -5.88967 36.6914 -6.00716 36.6319C-6.24211 36.5127 -6.47763 36.3876 -6.7133 36.2564C-7.18461 35.9938 -7.65707 35.7061 -8.12679 35.3907C-9.06894 34.7582 -9.99253 34.0193 -10.8634 33.1629C-12.661 31.3948 -13.9916 29.3625 -14.8315 27.2691L24.7675 11.3829ZM15.5379 -0.101659C16.0377 0.23442 17.0234 0.932245 18.145 2.01548C19.1057 2.94338 21.277 5.20168 22.8222 8.83851C24.6065 13.0381 25.5483 19.2828 22.6632 25.7474C20.1024 31.4854 15.8313 34.3868 13.6706 35.5937C11.3899 36.8676 9.39485 37.4183 8.41778 37.6545C7.30885 37.9227 6.39824 38.044 5.84023 38.1042C5.24638 38.1683 4.74975 38.1947 4.3945 38.2068C4.20748 38.2131 4.03528 38.2163 3.88019 38.2176C3.80206 38.2183 3.7267 38.2184 3.6543 38.2182C3.61805 38.2181 3.58239 38.2179 3.54733 38.2177C3.5298 38.2175 3.5124 38.2174 3.49514 38.2172C3.48651 38.2171 3.47791 38.217 3.46935 38.2169C3.46507 38.2168 3.45865 38.2168 3.45652 38.2167C3.45014 38.2167 3.44374 38.2166 3.717 16.885C3.99026 -4.44658 3.98386 -4.44666 3.97745 -4.44674C3.9753 -4.44677 3.96886 -4.44685 3.96455 -4.4469C3.95591 -4.447 3.9472 -4.44709 3.93843 -4.44718C3.92089 -4.44737 3.90307 -4.44753 3.88498 -4.44767C3.84881 -4.44796 3.81148 -4.44816 3.77304 -4.44827C3.69628 -4.44849 3.61448 -4.44831 3.52804 -4.4476C3.35633 -4.44618 3.16003 -4.44259 2.94312 -4.4352C2.52807 -4.42108 1.94845 -4.39019 1.2618 -4.31608C0.730444 -4.25873 -3.0662 -3.92911 -7.13581 -1.65597C-9.37499 -0.405243 -13.7076 2.55136 -16.2994 8.35901C-19.2156 14.8933 -18.2745 21.2219 -16.4471 25.523C-14.8588 29.2612 -12.6007 31.6382 -11.4959 32.7052C-10.2303 33.9276 -9.04342 34.7848 -8.27192 35.3037L15.5379 -0.101659ZM2.26862 38.1691C-3.78049 37.7575 -7.77238 34.7317 -9.60726 32.9882C-10.5896 32.0547 -11.3107 31.1639 -11.8165 30.4683C-12.0791 30.1073 -12.3102 29.7621 -12.5131 29.4407C-12.6153 29.2788 -12.7123 29.12 -12.8043 28.9647C-12.8504 28.887 -12.8954 28.8098 -12.9394 28.7332C-12.9615 28.695 -12.9833 28.6568 -13.0048 28.6188C-13.0156 28.5998 -13.0263 28.5808 -13.037 28.5618C-13.0423 28.5523 -13.0476 28.5429 -13.0529 28.5334C-13.0556 28.5287 -13.0596 28.5216 -13.0609 28.5192C-13.0649 28.5121 -13.0688 28.505 5.555 18.1C24.1788 7.69499 24.1749 7.68789 24.1709 7.68078C24.1695 7.6784 24.1656 7.67127 24.1629 7.66651C24.1575 7.65697 24.1522 7.64739 24.1467 7.63778C24.1359 7.61854 24.125 7.59914 24.1139 7.57958C24.0917 7.54046 24.069 7.50068 24.0457 7.46025C23.9993 7.37942 23.9505 7.29588 23.8995 7.20981C23.7976 7.03788 23.6859 6.85462 23.564 6.66165C23.3217 6.27791 23.0318 5.84362 22.6911 5.37507C22.0289 4.46452 21.0742 3.28528 19.783 2.05832C17.3304 -0.272225 12.4195 -3.90547 5.16538 -4.39911L2.26862 38.1691ZM-12.7909 28.9875C-8.61059 36.0316 -1.63664 39.9968 5.57879 40.6309C11.3797 41.1407 15.8438 39.3966 17.6217 38.6165L0.478288 -0.45453C1.57022 -0.933642 4.82183 -2.26674 9.31421 -1.87192C11.822 -1.65152 14.7738 -0.878528 17.6563 0.899564C20.5635 2.69294 22.5962 5.01394 23.9009 7.2125L-12.7909 28.9875ZM30.1728 22.0709C29.6834 25.5283 27.942 30.0476 23.7207 33.6782L-4.10071 1.32985C-9.00802 5.55042 -11.3674 11.1077 -12.0728 16.0911L30.1728 22.0709ZM12.1571 -3.69982C12.3329 -3.68037 13.2062 -3.58056 14.4254 -3.18432C15.6855 -2.77481 17.6482 -1.94155 19.6783 -0.261596C21.8229 1.51305 23.4977 3.78759 24.5348 6.29312C25.517 8.66603 25.6773 10.6321 25.6773 11.677H-16.9893C-16.9893 18.7317 -14.5418 26.8018 -7.52304 32.6098C-1.59319 37.5168 4.91415 38.4257 7.46286 38.7078L12.1571 -3.69982ZM25.6773 11.677C25.6773 16.0303 23.9271 20.1203 21.1748 23.0691L-10.0168 -6.04312C-14.3091 -1.44433 -16.9893 4.74973 -16.9893 11.677H25.6773ZM25.0113 -0.290225C26.6524 3.33234 27.4964 8.26708 25.5108 13.2666L-14.1428 -2.48256C-17.4184 5.76492 -15.7644 13.0977 -13.8533 17.3162L25.0113 -0.290225ZM5.684 5.392C12.0829 25.743 12.0627 25.7494 12.0425 25.7557C12.0358 25.7578 12.0155 25.7641 12.002 25.7683C11.975 25.7767 11.948 25.785 11.921 25.7933C11.8669 25.8098 11.8128 25.8261 11.7586 25.8422C11.6501 25.8744 11.5414 25.9057 11.4325 25.9362C11.2145 25.9972 10.9956 26.0546 10.776 26.1085C10.3364 26.2162 9.89512 26.3093 9.45286 26.3877C8.56609 26.5448 7.68849 26.6402 6.82666 26.6786C5.09006 26.756 3.51214 26.5978 2.14038 26.3133C-0.571173 25.7508 -2.2552 24.7464 -2.82279 24.3693L20.7908 -11.1673C17.9282 -13.0694 14.5942 -14.6783 10.8064 -15.464C8.89648 -15.8602 6.92388 -16.0347 4.92712 -15.9457C3.93521 -15.9015 2.96116 -15.7933 2.01047 -15.6249C1.53625 -15.5409 1.07113 -15.4425 0.615714 -15.3308C0.388136 -15.275 0.16336 -15.216 -0.058552 -15.1539C-0.169493 -15.1229 -0.279674 -15.0911 -0.389088 -15.0586C-0.443793 -15.0424 -0.498302 -15.026 -0.552612 -15.0094C-0.579767 -15.0011 -0.606872 -14.9927 -0.633927 -14.9843C-0.64745 -14.9801 -0.667715 -14.9738 -0.674471 -14.9717C-0.69471 -14.9654 -0.714939 -14.959 5.684 5.392ZM14.6008 27.1816C13.6203 27.4492 12.782 27.532 12.1095 27.536L11.8585 -15.13C9.14602 -15.114 6.26774 -14.7712 3.3672 -13.9796L14.6008 27.1816ZM11.8585 27.536C11.186 27.532 10.3477 27.4492 9.3672 27.1816L20.6008 -13.9796C17.7003 -14.7712 14.822 -15.114 12.1095 -15.13L11.8585 27.536ZM26.8445 24.3334C26.2595 24.7247 24.5592 25.742 21.829 26.3103C20.4486 26.5976 18.8648 26.7562 17.1249 26.6786C16.2615 26.64 15.3833 26.5443 14.4969 26.3871C14.0547 26.3087 13.6138 26.2156 13.1748 26.1079C12.9554 26.0541 12.7369 25.9967 12.5193 25.9359C12.4105 25.9054 12.302 25.8742 12.1938 25.842C12.1397 25.8259 12.0856 25.8096 12.0317 25.7932C12.0047 25.7849 11.9777 25.7766 11.9508 25.7682C11.9373 25.7641 11.9171 25.7578 11.9104 25.7557C11.8902 25.7494 11.8701 25.743 18.269 5.392C24.6679 -14.959 24.6478 -14.9654 24.6276 -14.9717C24.6208 -14.9738 24.6006 -14.9801 24.5871 -14.9843C24.5601 -14.9927 24.5331 -15.001 24.506 -15.0093C24.4517 -15.0258 24.3973 -15.0422 24.3427 -15.0585C24.2335 -15.0909 24.1236 -15.1226 24.0128 -15.1536C23.7913 -15.2156 23.5668 -15.2745 23.3395 -15.3303C22.8847 -15.4418 22.4199 -15.5402 21.9459 -15.6243C20.9955 -15.7928 20.021 -15.9013 19.0278 -15.9457C17.0282 -16.0349 15.0506 -15.86 13.134 -15.461C9.33126 -14.6695 5.98852 -13.0477 3.12349 -11.1314L26.8445 24.3334ZM-1.55781 13.2666C-3.59502 8.13722 -2.54216 3.38026 -1.40013 0.544222L38.1781 16.4818C39.5602 13.0497 41.423 5.89478 38.0958 -2.48256L-1.55781 13.2666ZM2.74595 23.0184C0.0299908 20.0894 -1.71433 16.0242 -1.71433 11.677H40.9523C40.9523 4.75576 38.278 -1.41341 34.0321 -5.99238L2.74595 23.0184ZM-1.71433 11.677C-1.71433 10.6397 -1.55566 8.66909 -0.568273 6.2871C0.475543 3.76898 2.16364 1.48304 4.32671 -0.297054C6.37241 -1.98055 8.34628 -2.80828 9.60289 -3.21184C10.8181 -3.60209 11.684 -3.69761 11.8404 -3.7146L16.4476 38.7026C18.9522 38.4306 25.4827 37.5496 31.4388 32.6481C38.5074 26.831 40.9523 18.7282 40.9523 11.677H-1.71433ZM0.395262 33.8061C-4.98816 29.2686 -6.37933 23.4326 -6.37933 19.676H36.2873C36.2873 13.7094 34.1162 6.42739 27.8927 1.18194L0.395262 33.8061ZM-6.37933 19.676C-6.37933 20.3993 -6.38277 21.0589 -6.38636 21.5963C-6.3893 22.0369 -6.39433 22.6195 -6.39433 22.905H36.2723C36.2723 22.9162 36.2723 22.9007 36.2727 22.8386C36.273 22.7819 36.2735 22.7086 36.2741 22.6128C36.2754 22.4322 36.2775 22.1669 36.2794 21.8809C36.2833 21.2941 36.2873 20.5307 36.2873 19.676H-6.37933ZM-6.39433 22.905C-6.39433 27.3822 -4.91384 34.0289 0.870832 39.2211C7.27639 44.9706 14.882 45.3567 19.7839 44.4162L11.7441 2.51383C16.031 1.6913 23.2241 1.95185 29.3709 7.46912C34.8968 12.4291 36.2723 18.7368 36.2723 22.905H-6.39433ZM22.3107 43.769C35.4848 39.5212 45.3333 27.2089 45.3333 12.292H2.66667C2.66667 7.7811 5.64518 4.31278 9.21733 3.16101L22.3107 43.769ZM45.3333 12.292C45.3333 -6.35205 30.056 -20.8333 12 -20.8333V21.8333C7.19797 21.8333 2.66667 17.912 2.66667 12.292H45.3333Z"
            fill="#080E12" mask="url(#path-1-inside-1_662_26346)" />
    </g>
    <defs>
        <clipPath id="clip0_662_26346">
            <rect width="24" height="24" fill="white" />
        </clipPath>
    </defs>
</svg>
