<svg width="32" height="32" viewBox="0 0 32 32" fill="none" xmlns="http://www.w3.org/2000/svg">
<path d="M24.7724 11.0163H22.0588C21.7427 11.0163 21.4419 10.8806 21.2326 10.6445L20.1318 9.40094C19.968 9.21534 19.7318 9.10974 19.4848 9.10974C19.2377 9.10974 19.0016 9.21598 18.8377 9.40094L17.8937 10.4678C17.5846 10.8166 17.1411 11.0169 16.6752 11.0169H1.82141C1.39837 12.2227 1.12253 13.4963 1.01245 14.8173H15.0349C15.2813 14.8173 15.5174 14.7168 15.6876 14.5389L16.9932 13.1763C17.1564 13.0061 17.3817 12.9101 17.6172 12.9101H17.671C17.9187 12.9101 18.1542 13.0163 18.3181 13.2019L19.4182 14.4454C19.6275 14.6822 19.9283 14.8173 20.2444 14.8173H31.6902C31.5801 13.4957 31.3043 12.2221 30.8812 11.0169H24.7718L24.7724 11.0163Z" fill="black"/>
<path d="M9.49755 22.8089C9.74395 22.8089 9.98011 22.7084 10.1504 22.5305L11.456 21.1679C11.6192 20.9977 11.8444 20.9017 12.08 20.9017H12.1337C12.3814 20.9017 12.6169 21.008 12.7808 21.1929L13.8809 22.4364C14.0902 22.6732 14.391 22.8083 14.7072 22.8083H30.2182C30.7993 21.6076 31.2249 20.3193 31.4784 18.9695H16.59C16.2739 18.9695 15.9731 18.8339 15.7638 18.5977L14.6636 17.3542C14.4998 17.1686 14.2636 17.063 14.0166 17.063C13.7696 17.063 13.5334 17.1692 13.3696 17.3542L12.4256 18.4211C12.1164 18.7699 11.6729 18.9702 11.2064 18.9702H1.22363C1.47707 20.3199 1.90331 21.6083 2.48379 22.8089H9.49755Z" fill="black"/>
<path d="M20.5017 6.86335C20.7481 6.86335 20.9842 6.76287 21.1545 6.58495L22.4601 5.22239C22.6233 5.05215 22.8485 4.95615 23.0841 4.95615H23.1378C23.3855 4.95615 23.621 5.06239 23.7849 5.24799L24.885 6.49151C25.0943 6.72831 25.3951 6.86335 25.7113 6.86335H28.661C25.8521 3.12959 21.3842 0.714233 16.3513 0.714233C11.3183 0.714233 6.85046 3.12959 4.0415 6.86335H20.5017Z" fill="black"/>
<path d="M14.5772 26.6131H10.5433C10.2272 26.6131 9.92636 26.4774 9.71708 26.2413L8.61692 24.9977C8.45308 24.8121 8.21692 24.7065 7.96988 24.7065C7.72284 24.7065 7.48668 24.8128 7.32284 24.9977L6.37884 26.0646C6.06972 26.4134 5.6262 26.6137 5.15964 26.6137H5.09692C7.90716 29.6249 11.9091 31.5097 16.3526 31.5097C20.7961 31.5097 24.7974 29.6249 27.6083 26.6137H14.5772V26.6131Z" fill="black"/>
</svg>
