<svg width="21" height="20" viewBox="0 0 21 20" fill="none" xmlns="http://www.w3.org/2000/svg">
<path d="M19.1663 0H2.49967C1.57988 0.00104167 0.834049 0.746875 0.833008 1.66667V5C0.834049 5.91979 1.57988 6.66562 2.49967 6.66667H9.54707C9.66895 7.13333 10.0335 7.4974 10.4997 7.61927V13.3667C9.84551 13.5016 9.33457 14.0125 9.19967 14.6667H8.16634V13C8.16634 12.4474 7.71842 12 7.16634 12H1.83301C1.28092 12 0.833008 12.4479 0.833008 13V17.6667C0.833008 18.2193 1.28092 18.6667 1.83301 18.6667H2.88874L2.61061 19.3333H2.16634C1.98197 19.3333 1.83301 19.4828 1.83301 19.6667C1.83301 19.8505 1.98249 20 2.16634 20H6.83301C7.01738 20 7.16634 19.8505 7.16634 19.6667C7.16634 19.4828 7.01686 19.3333 6.83301 19.3333H6.38874L6.11061 18.6667H7.16634C7.71842 18.6667 8.16634 18.2193 8.16634 17.6667V15.3333H9.19967C9.35749 16.1099 10.0403 16.6682 10.833 16.6682C11.6257 16.6682 12.3085 16.1099 12.4663 15.3333H13.4997V17.6667C13.4997 18.2193 13.9476 18.6667 14.4997 18.6667H15.5554L15.2773 19.3333H14.833C14.6486 19.3333 14.4997 19.4828 14.4997 19.6667C14.4997 19.8505 14.6492 20 14.833 20H19.4997C19.684 20 19.833 19.8505 19.833 19.6667C19.833 19.4828 19.6835 19.3333 19.4997 19.3333H19.0554L18.7773 18.6667H19.833C20.3851 18.6667 20.833 18.2193 20.833 17.6667V13C20.833 12.4474 20.3851 12 19.833 12H14.4997C13.9476 12 13.4997 12.4479 13.4997 13V14.6667H12.4663C12.3314 14.0125 11.8205 13.5016 11.1663 13.3667V7.61927C11.633 7.4974 11.9971 7.13281 12.1189 6.66667H19.1663C20.0861 6.66562 20.832 5.91979 20.833 5V1.66667C20.832 0.746875 20.0861 0.00104167 19.1663 0ZM1.83301 12.6667H7.16634C7.35019 12.6667 7.49967 12.8161 7.49967 13V16.6667H1.49967V13C1.49967 12.8156 1.64863 12.6667 1.83301 12.6667ZM5.66634 19.3333H3.33301L3.61061 18.6667H5.38874L5.66634 19.3333ZM7.16634 18H1.83301C1.64863 18 1.49967 17.8505 1.49967 17.6667V17.3333H7.49967V17.6667C7.49967 17.851 7.35019 18 7.16634 18ZM18.333 19.3333H15.9997L16.2773 18.6667H18.0554L18.333 19.3333ZM19.833 18H14.4997C14.3158 18 14.1663 17.8505 14.1663 17.6667V17.3333H20.1663V17.6667C20.1663 17.851 20.0174 18 19.833 18ZM14.1663 13C14.1663 12.8156 14.3158 12.6667 14.4997 12.6667H19.833C20.0174 12.6667 20.1663 12.8161 20.1663 13V16.6667H14.1663V13ZM11.833 15C11.833 15.5526 11.3856 16 10.833 16C10.2804 16 9.83301 15.5526 9.83301 15C9.83301 14.4474 10.2804 14 10.833 14C11.3856 14 11.833 14.4474 11.833 15ZM10.833 7C10.4648 7 10.1663 6.70156 10.1663 6.33333C10.1663 5.9651 10.4648 5.66667 10.833 5.66667C11.2012 5.66667 11.4997 5.9651 11.4997 6.33333C11.4997 6.70156 11.2012 7 10.833 7ZM20.1663 5C20.1663 5.5526 19.7189 6 19.1663 6H12.1189C11.9689 5.41198 11.4398 5.00052 10.833 5.00052C10.2262 5.00052 9.69655 5.41198 9.54707 6H2.49967C1.94707 6 1.49967 5.5526 1.49967 5V1.66667C1.49967 1.11406 1.94707 0.666667 2.49967 0.666667H19.1663C19.7184 0.666667 20.1663 1.11406 20.1663 1.66667V5Z" fill="white"/>
<path d="M13.8332 1.66683C13.8332 1.8512 13.6837 2.00016 13.4998 2.00016C13.316 2.00016 13.1665 1.8512 13.1665 1.66683C13.1665 1.48245 13.3155 1.3335 13.4998 1.3335C13.6842 1.3335 13.8332 1.48245 13.8332 1.66683Z" fill="white"/>
<path d="M12.4997 1.66683C12.4997 1.8512 12.3502 2.00016 12.1663 2.00016C11.9825 2.00016 11.833 1.8512 11.833 1.66683C11.833 1.48245 11.9825 1.3335 12.1663 1.3335C12.3502 1.3335 12.4997 1.48245 12.4997 1.66683Z" fill="white"/>
<path d="M15.1662 1.66683C15.1662 1.8512 15.0172 2.00016 14.8328 2.00016C14.6485 2.00016 14.4995 1.8512 14.4995 1.66683C14.4995 1.48245 14.649 1.3335 14.8328 1.3335C15.0167 1.3335 15.1662 1.48245 15.1662 1.66683Z" fill="white"/>
<path d="M16.4997 1.66683C16.4997 1.8512 16.3502 2.00016 16.1663 2.00016C15.9825 2.00016 15.833 1.8512 15.833 1.66683C15.833 1.48245 15.9825 1.3335 16.1663 1.3335C16.3502 1.3335 16.4997 1.48245 16.4997 1.66683Z" fill="white"/>
<path d="M17.8332 1.66683C17.8332 1.8512 17.6842 2.00016 17.4998 2.00016C17.3155 2.00016 17.1665 1.8512 17.1665 1.66683C17.1665 1.48245 17.3155 1.3335 17.4998 1.3335C17.6842 1.3335 17.8332 1.48245 17.8332 1.66683Z" fill="white"/>
<path d="M14.4997 2.66683C14.4997 2.8512 14.3507 3.00016 14.1663 3.00016C13.982 3.00016 13.833 2.85068 13.833 2.66683C13.833 2.48298 13.982 2.3335 14.1663 2.3335C14.3507 2.3335 14.4997 2.48245 14.4997 2.66683Z" fill="white"/>
<path d="M13.1662 2.66683C13.1662 2.8512 13.0167 3.00016 12.8328 3.00016C12.649 3.00016 12.4995 2.85068 12.4995 2.66683C12.4995 2.48298 12.649 2.3335 12.8328 2.3335C13.0167 2.3335 13.1662 2.48245 13.1662 2.66683Z" fill="white"/>
<path d="M15.8332 2.66683C15.8332 2.8512 15.6837 3.00016 15.4998 3.00016C15.316 3.00016 15.1665 2.85068 15.1665 2.66683C15.1665 2.48298 15.316 2.3335 15.4998 2.3335C15.6837 2.3335 15.8332 2.48245 15.8332 2.66683Z" fill="white"/>
<path d="M17.1662 2.66683C17.1662 2.8512 17.0167 3.00016 16.8328 3.00016C16.649 3.00016 16.4995 2.85068 16.4995 2.66683C16.4995 2.48298 16.6485 2.3335 16.8328 2.3335C17.0172 2.3335 17.1662 2.48245 17.1662 2.66683Z" fill="white"/>
<path d="M18.4997 2.66683C18.4997 2.8512 18.3507 3.00016 18.1663 3.00016C17.982 3.00016 17.833 2.85068 17.833 2.66683C17.833 2.48298 17.9825 2.3335 18.1663 2.3335C18.3502 2.3335 18.4997 2.48245 18.4997 2.66683Z" fill="white"/>
<path d="M19.1662 1.66683C19.1662 1.8512 19.0167 2.00016 18.8328 2.00016C18.649 2.00016 18.4995 1.8512 18.4995 1.66683C18.4995 1.48245 18.649 1.3335 18.8328 1.3335C19.0167 1.3335 19.1662 1.48245 19.1662 1.66683Z" fill="white"/>
<path d="M13.8332 3.66683C13.8332 3.8512 13.6837 4.00016 13.4998 4.00016C13.316 4.00016 13.1665 3.85068 13.1665 3.66683C13.1665 3.48298 13.3155 3.3335 13.4998 3.3335C13.6842 3.3335 13.8332 3.48298 13.8332 3.66683Z" fill="white"/>
<path d="M12.4997 3.66683C12.4997 3.8512 12.3502 4.00016 12.1663 4.00016C11.9825 4.00016 11.833 3.85068 11.833 3.66683C11.833 3.48298 11.9825 3.3335 12.1663 3.3335C12.3502 3.3335 12.4997 3.48298 12.4997 3.66683Z" fill="white"/>
<path d="M15.1662 3.66683C15.1662 3.8512 15.0172 4.00016 14.8328 4.00016C14.6485 4.00016 14.4995 3.85068 14.4995 3.66683C14.4995 3.48298 14.649 3.3335 14.8328 3.3335C15.0167 3.3335 15.1662 3.48298 15.1662 3.66683Z" fill="white"/>
<path d="M16.4997 3.66683C16.4997 3.8512 16.3502 4.00016 16.1663 4.00016C15.9825 4.00016 15.833 3.85068 15.833 3.66683C15.833 3.48298 15.9825 3.3335 16.1663 3.3335C16.3502 3.3335 16.4997 3.48298 16.4997 3.66683Z" fill="white"/>
<path d="M17.8332 3.66683C17.8332 3.8512 17.6842 4.00016 17.4998 4.00016C17.3155 4.00016 17.1665 3.85068 17.1665 3.66683C17.1665 3.48298 17.3155 3.3335 17.4998 3.3335C17.6842 3.3335 17.8332 3.48298 17.8332 3.66683Z" fill="white"/>
<path d="M14.4997 4.66683C14.4997 4.85068 14.3507 5.00016 14.1663 5.00016C13.982 5.00016 13.833 4.85068 13.833 4.66683C13.833 4.48298 13.982 4.3335 14.1663 4.3335C14.3507 4.3335 14.4997 4.48298 14.4997 4.66683Z" fill="white"/>
<path d="M13.1662 4.66683C13.1662 4.85068 13.0167 5.00016 12.8328 5.00016C12.649 5.00016 12.4995 4.85068 12.4995 4.66683C12.4995 4.48298 12.649 4.3335 12.8328 4.3335C13.0167 4.3335 13.1662 4.48298 13.1662 4.66683Z" fill="white"/>
<path d="M15.8332 4.66683C15.8332 4.85068 15.6837 5.00016 15.4998 5.00016C15.316 5.00016 15.1665 4.85068 15.1665 4.66683C15.1665 4.48298 15.316 4.3335 15.4998 4.3335C15.6837 4.3335 15.8332 4.48298 15.8332 4.66683Z" fill="white"/>
<path d="M17.1662 4.66683C17.1662 4.85068 17.0167 5.00016 16.8328 5.00016C16.649 5.00016 16.4995 4.85068 16.4995 4.66683C16.4995 4.48298 16.6485 4.3335 16.8328 4.3335C17.0172 4.3335 17.1662 4.48298 17.1662 4.66683Z" fill="white"/>
<path d="M18.4997 4.66683C18.4997 4.85068 18.3507 5.00016 18.1663 5.00016C17.982 5.00016 17.833 4.85068 17.833 4.66683C17.833 4.48298 17.9825 4.3335 18.1663 4.3335C18.3502 4.3335 18.4997 4.48298 18.4997 4.66683Z" fill="white"/>
<path d="M19.1662 3.66683C19.1662 3.8512 19.0167 4.00016 18.8328 4.00016C18.649 4.00016 18.4995 3.85068 18.4995 3.66683C18.4995 3.48298 18.649 3.3335 18.8328 3.3335C19.0167 3.3335 19.1662 3.48298 19.1662 3.66683Z" fill="white"/>
<path d="M3.83284 2C3.09639 2 2.49951 2.59687 2.49951 3.33333C2.49951 4.06979 3.09639 4.66667 3.83284 4.66667C4.5693 4.66667 5.16618 4.06979 5.16618 3.33333C5.16618 2.97969 5.02607 2.64062 4.77555 2.39062C4.52555 2.14062 4.18649 2 3.83284 2ZM3.83284 4C3.46462 4 3.16618 3.70156 3.16618 3.33333C3.16618 2.9651 3.46462 2.66667 3.83284 2.66667C4.20107 2.66667 4.49951 2.9651 4.49951 3.33333C4.49951 3.70156 4.20107 4 3.83284 4Z" fill="white"/>
<path d="M7.16634 2C6.42988 2 5.83301 2.59687 5.83301 3.33333C5.83301 4.06979 6.42988 4.66667 7.16634 4.66667C7.9028 4.66667 8.49967 4.06979 8.49967 3.33333C8.49967 2.97969 8.35905 2.64062 8.10905 2.39062C7.85905 2.14062 7.51999 2 7.16634 2ZM7.16634 4C6.79811 4 6.49967 3.70156 6.49967 3.33333C6.49967 2.9651 6.79811 2.66667 7.16634 2.66667C7.53457 2.66667 7.83301 2.9651 7.83301 3.33333C7.83301 3.70156 7.53457 4 7.16634 4Z" fill="white"/>
</svg>
