<svg width="32" height="32" viewBox="0 0 32 32" fill="none" xmlns="http://www.w3.org/2000/svg">
<g id="binance-logo">
<rect width="32" height="32" rx="16" fill="#F3BA2F"/>
<path id="binancedex_1_" d="M17.9602 22.6097V24.8507L16.0064 26L14.1101 24.8507V22.6097L16.0064 23.7589L17.9602 22.6097ZM7.5 14.8503L9.39629 15.9995V19.8505L12.6726 21.8043V24.0453L7.5 20.9998V14.8503ZM24.5119 14.8503V20.9998L19.2818 24.0453V21.8043L22.5582 19.8505V16.0005L24.5119 14.8503ZM19.2818 11.8047L21.2356 12.954V15.1951L17.9592 17.1488V21.0572L16.063 22.2065L14.1667 21.0572V17.1497L10.7763 15.1951V12.954L12.7301 11.8047L16.0064 13.7585L19.2818 11.8047ZM10.7763 16.8049L12.6726 17.9542V20.1953L10.7763 19.046V16.8049ZM21.2356 16.8049V19.046L19.3393 20.1953V17.9542L21.2356 16.8049ZM9.39629 9.85097L11.35 11.0002L9.39629 12.1495V14.3906L7.5 13.2413V11.0002L9.39629 9.85097ZM22.6147 9.85097L24.5684 11.0002V13.2413L22.6147 14.3906V12.1495L20.7184 11.0002L22.6147 9.85097ZM16.0055 9.85097L17.9592 11.0002L16.0055 12.1495L14.1092 11.0002L16.0055 9.85097ZM16.0055 6L21.2356 9.04555L19.3393 10.1948L16.063 8.24107L12.7301 10.1957L10.8338 9.04648L16.0055 6Z" fill="white"/>
</g>
</svg>
