<?xml version="1.0" encoding="UTF-8"?>
<svg id="Layer_1" data-name="Layer 1" xmlns="http://www.w3.org/2000/svg" viewBox="0 0 100 100">
  <defs>
    <style>
      .cls-1 {
        fill-rule: evenodd;
        stroke-width: 0px;
      }
    </style>
  </defs>
  <g id="wordmark_light" data-name="wordmark/light">
    <g id="text">
      <path id="Fill_3" data-name="Fill 3" class="cls-1" d="m12.9042291939,53.9413241151l-1.3082290758-1.3248290069c-.4969084218.4636254072-.9991926144.8308366067-1.5072797114,1.1014473938-.507639353.2703307695-1.1149351488.4054968649-1.8214296935.4054968649-.5521024641,0-1.0626485996-.1074997805-1.531862989-.3228703295-.4692047949-.215370549-.8749628438-.5104807506-1.2172645522-.8860754234-.342301886-.3753153659-.6070719238-.8140689493-.7949811962-1.3163524312-.1876763389-.5022834819-.2812957002-1.0407105651-.2812957002-1.6144433286,0-.5741883253.0936193612-1.109727815.2812957002-1.6066085193.1879092724-.4966667822.4526793102-.9298768685.7949811962-1.2998640808.3423017084-.3697541011.7480597573-.6622094651,1.2172645522-.8775896086.4692143894-.2151566269.9797605249-.3228422567,1.531862989-.3228422567.6622560163,0,1.2530165551.1324828296,1.7718260548.3974673225.5190419001.2647517371,1.0103705789.6126147102,1.4737721141,1.0431422414l1.3084337588-1.5067392204c-.2759204624-.2649748984-.5684223775-.5078355075-.8776919501-.7287957494-.3089902656-.2207456091-.6456845134-.4113189583-1.0101104609-.5712914927-.3644159977-.1601868119-.764584709-.2841834713-1.2007300059-.3724370116-.4361445863-.0884774123-.9192013723-.1327159408-1.4489649644-.1327159408-.8832347365,0-1.6891618521.1575131405-2.4177802806.4720927437-.7288330614.3145700086-1.3580290467.745106779-1.888007094,1.2915918327-.529987553.5464850537-.9411056039,1.1838969637-1.233803185,1.9126923578-.2926985361.7285725881-.4388237655,1.5069719762-.4388237655,2.3349671853,0,.8389400624.1490297577,1.6227336996.4470911275,2.3514733033.2980604259.7283679051.7094001723,1.3604132835,1.2337984765,1.8959534839.5243983042.5353525744,1.1453222191.9576178074,1.8629952614,1.2667942776.7176639808.3091764702,1.5016903738.4636254072,2.3516321458.4636254072.5411569001,0,1.0351684893-.0469491564,1.4822586396-.1407550777.4470901503-.0938997343.858436826-.2316726948,1.2337990984-.4137879466.3753715115-.1823014565.7259451126-.3976720055,1.0517030356-.6459268637.3255717183-.2484396415.6374495773-.5328381009.9355404747-.8528201263Z"/>
      <path id="Fill_4" data-name="Fill 4" class="cls-1" d="m39.1819904427,47.2877800677c0-.3856273366.1646958782-.7133041624.4942724178-.983020883.3292979434-.2701637538.7905936604-.4050221141,1.3835175845-.4050221141.5270614926,0,1.0486278161.1020870531,1.5646051573.3058230098.5162559375.2037451959,1.0377312907.4984271979,1.5646051573.8838310178l1.087102529-1.536501759c-.5926424851-.4736854331-1.2268327704-.8343478436-1.9021956038-1.0819964706-.6755476167-.2478721437-1.4356804711-.3718126575-2.2812343519-.3718126575-.5709375617,0-1.0980018972.0798046821-1.5783928296.2396279685-.4831882664.1595997697-.8946465228.3880867304-1.2380107348.6854420484-.3430827729.2975788346-.6122039229.6526707412-.8097826889,1.0657223977-.1948780879.4130520118-.2937143775.8729135266-.2937143775,1.3795848997,0,.5396566024.08505146.9968444459.2552425074,1.37133113.1702848604.3744767342.4200293558.6939093849.7440169132.9582794735.3237999314.2643693779.7273409368.4846025689,1.2048464079.6609241556.4804847455.1763393543,1.0269228927.3357248465,1.6444400444.4789951083.5382394571.132184689.9743847541.258873498,1.3121599838.3798795118.3348869256.1212860315.5985100635.2507693317.7933881515.3882636959.1919897838.1377743819.3239875574.2891488101.3952485023.4543101999.0713576007.1654399861.1069411666.3523994016.1069411666.5617154567,0,.4518874074-.1837910937.8098765019-.5515609071,1.0739658622-.3679574395.2646493956-.8648367224.3965547776-1.4906435344.3965547776-.7246402587,0-1.3726153735-.1294833002-1.943461965-.3882636959-.5711223449-.2587803957-1.1364709244-.6303695365-1.6966967439-1.1152336448l-1.2186340803,1.4540337108c.6917573708.627667437,1.4439729742,1.0931563121,2.2564563412,1.3960913731.81257718.302935061,1.6634414468.4543094892,2.5527804265.4543094892.6040052328,0,1.1586420701-.0771313662,1.6637200431-.2312078938.5022834819-.1544475156.936006697-.3802526318,1.2928771423-.6775987106.3595739661-.2973446574.6395916415-.6607365295.8426655767-1.090268008.2004670702-.4295300571.3020040378-.9197045513.3020040378-1.4705206398,0-.4845848013-.079553448-.9059183003-.2388451272-1.2639066842-.1593854922-.3579890945-.3953423153-.6716366084-.702656739-.9417818839-.30759302-.2697167206-.6973463531-.4984179587-1.1640462691-.6856659204-.4664184769-.1870148505-1.0046607768-.3577652225-1.6085750394-.512018005-.5517485332-.132184689-1.0046607768-.2590135069-1.3642319002-.380057188-.3568704452-.1210337313-.6368909634-.253219131-.8428532028-.3965540669-.2030739352-.1431025355-.3428979897-.297355318-.4200293558-.4625351861-.0766651438-.1653937903-.1153246399-.3635595984-.1153246399-.5947198751Z"/>
      <path id="Fill_5" data-name="Fill 5" class="cls-1" d="m61.728493425,47.4514511096v8.2621190868h2.0124827684v-11.5208240728h-2.1611565185l-3.5135651343,5.4477559557-3.5135651343-5.4477559557h-2.1608779223v11.5208240728h2.0123917982v-8.2292546773l3.612398581,5.3985055373h.0661410278l3.645750534-5.4313699468Z"/>
      <path id="Fill_6" data-name="Fill 6" class="cls-1" d="m80.6489892517,50.0167676574c0,.5630196-.0964113649,1.0956714962-.2892397803,1.5981411828-.1927374452.5021903796-.4598998928.9381487612-.8017716248,1.3078751448-.3414111953.3697263836-.7520279773.6624145034-1.2313045247.8777850524-.4794584878.215464362-1.0055903787.3228703295-1.5784866427.3228703295-.5731748603,0-1.1020983994-.1103866633-1.586963929-.3310675982-.484859844-.2209595312-.9009803237-.5190504286-1.2479748156-.8941803005-.3470911477-.3755015705-.6171418995-.8143475456-.8100612852-1.3166317382-.192646475-.5021903796-.2892454659-1.0350284805-.2892454659-1.597851926,0-.563243472.0965989909-1.0958768899.2892454659-1.5981234152.1929193856-.5024789257.4600818333-.9383626833.8017716248-1.3083498956.3416841059-.3697633403.7522099177-.6622187043,1.2314864651-.8775988478.4792765474-.2151473877,1.0055903787-.3228422567,1.5784866427-.3228422567.5731748603,0,1.1021950552.1103777795,1.586963929.331337666.4846779036.2207367253.9007926976.5187810715,1.2477928751.8941245102.3472730882.3751199221.61732384.8141428626.8100612852,1.3163893878.1928284154.5022465253.2892397803,1.0351031045.2892397803,1.5981227045Zm2.1322848484-.0330698032c0-.8170489344-.1487647203-1.5898600509-.4462998466-2.3186550896-.2972508444-.7283487161-.7107616161-1.3633015876-1.2394975292-1.9042068983-.529020195-.5411192328-1.1626504449-.968749576-1.901266002-1.2833195847-.7381493347-.3145796032-1.5535210059-.4720927437-2.4460240431-.4720927437-.8926906633,0-1.7080623345.160196051-2.4464902655.4803553972s-1.3775505073.7533694325-1.9174700705,1.2998544863c-.5401981594.5464850537-.9585474092,1.1841300749-1.2562701615,1.9127023076-.2975294406.7285718774-.4462031907,1.5013822833-.4462031907,2.3184319283,0,.8168627297.1486737501,1.5893845894.4462031907,2.3182180062.2977227523.7287403144.7107616161,1.3634877923,1.2397818111,1.9044293489.5287415987.540849165,1.1625537891.9687033802,1.9009817201,1.283282628.7381493347.3145792478,1.5535210059.4719164889,2.4462116692.4719164889.8925030373,0,1.7081533047-.1602241239,2.4463026394-.4801137576.7386155571-.32016823,1.377556193-.7534252228,1.9177543524-1.3001433877.5399138775-.5462519426.9587350353-1.1838877246,1.2559858796-1.9124411236.2975351263-.7285533991.4462998466-1.5013545658.4462998466-2.3182180062Z"/>
      <path id="Fill_7" data-name="Fill 7" class="cls-1" d="m91.2380296351,47.2877800677c0-.3856273366.1646901926-.7133041624.4939909788-.983020883.3295793825-.2701637538.7906846306-.4050221141,1.383793338-.4050221141.5268767094,0,1.0486306589.1020870531,1.5646080001.3058230098.5159773412.2037451959,1.0374526944.4984271979,1.5646989703.8838310178l1.0870996861-1.536501759c-.5933873036-.4736854331-1.2268299275-.8343478436-1.9024713573-1.0819964706-.6750842372-.2478721437-1.4354985306-.3718126575-2.2810495687-.3718126575-.5709404045,0-1.0979990543.0798046821-1.5783956725.2396279685-.4830916106.1595997697-.8946465228.3880867304-1.238007892.6854420484-.3430827729.2975788346-.6120191396.6526707412-.8099703149,1.0657223977-.1946876191.4130520118-.2935267514.8729135266-.2935267514,1.3795848997,0,.5396566024.08505146.9968444459.2553363204,1.37133113.1701882046.3744767342.4199355428.6939093849.7437326313.9582794735.3239904002.2643693779.7275342484.4846025689,1.2053154731.6609241556.4802089921.1763393543,1.0266442965.3357248465,1.6441614481.4789951083.537958018.132184689.9744785671.258873498,1.3121599838.3798795118.3346964567.1212860315.5985100635.2507693317.7933853087.3882636959.1919926266.1377743819.3235241779.2891488101.3952541879.4543101999.0717243243.1654399861.107123107.3523994016.107123107.5617154567,0,.4518874074-.1844420993.8098765019-.5517456904,1.0739658622-.3679574395.2646493956-.8648367224.3965547776-1.4908311604.3965547776-.7246402587,0-1.3726153735-.1294833002-1.9432714961-.3882636959-.5709404045-.2587803957-1.1364737672-.6303695365-1.6967024296-1.1152336448l-1.2186312374,1.4540337108c.6915725876.627667437,1.4437825053,1.0931563121,2.2564534984,1.3960913731.8123923968.302935061,1.6632595064.4543094892,2.5527832693.4543094892.6040023899,0,1.158454444-.0771313662,1.6637200431-.2312078938.5018144168-.1544475156.935912884-.3802526318,1.292692359-.6775987106.3595711233-.2973446574.6399640508-.6607365295.843037986-1.090268008.2002766013-.4295300571.3018164117-.9197045513.3018164117-1.4705206398,0-.4845848013-.0801106405-.9059183003-.2384727179-1.2639066842-.159294522-.3579890945-.3959023506-.6716366084-.7033077446-.9417818839-.307405394-.2697167206-.6967920034-.4984179587-1.1634862337-.6856659204-.466887542-.1870148505-1.005129842-.3577652225-1.6088536356-.512018005-.551751376-.132184689-1.0046636196-.2590135069-1.364234743-.380057188-.3568704452-.1210337313-.6368938062-.253219131-.8428560456-.3965540669-.2030739352-.1431025355-.3430827729-.297355318-.420026513-.4625351861-.0766651438-.1653937903-.1153217971-.3635595984-.1153217971-.5947198751Z"/>
      <path id="Fill_8" data-name="Fill 8" class="cls-1" d="m26.7091105379,46.4991053102l-5.5141265411,5.5067686147c-.0710761616-.1377736712-.1352599085-.28132324-.1927346024-.4302755863-.1925483977-.5003276224-.2888702138-1.0312091531-.2888702138-1.5918443386,0-.5611099363.0963218161-1.0917306384.2888702138-1.5920866889.1927346024-.500569262.4598046584-.9348134237.8012130109-1.3034033905.3415007441-.3683660947.7518417726-.6597131146,1.2307430679-.8742734602.479275126-.2143460681,1.0050331861-.3216216213,1.577648011-.3216216213.5728010296,0,1.1014473938.1099488692,1.5857514667.330080074.180157971.081686273.3506304574.1738241701.5115055869.2766563972Zm-.4865399501,7.2871188624c-.479181313.2145319174-1.0049393731.3216592886-1.577554198.3216592886-.5728010296,0-1.1014473938-.110014254-1.5860314844-.3298565573-.1798793747-.0819755298-.3503504398-.1741041878-.511040786-.277132214l5.5138479448-5.5063123423c.0711699746.1375505099.1353523001.280894685.1928284154.4300147577.1925498191.5003553399.2888702138,1.031199914.2888702138,1.5920866889,0,.560867586-.0963203947,1.0914705204-.2888702138,1.5920767391-.1928284154.5003276224-.4598060798.9346094515-.8013054025,1.3029385896-.3414083525.3684222404-.751561755.6599917109-1.2307444894.8745250497Zm.8342821034,1.7074099075c.7379617087-.3189571891,1.3767147186-.7505369187,1.9163556854-1.2952054111.539544311-.5442036914.9578964036-1.1794173916,1.255241061-1.9052694019.2975322834-.725758908.4462060335-1.4956724812.4462060335-2.3094052672,0-.8139658971-.1486737501-1.5838517529-.4462060335-2.3098899678-.176246252-.4304625017-.3933864558-.8279856145-.6510482022-1.1927932105l3.5864095294-3.5814630242-1.4250625419-1.4231525229-3.5973088976,3.5923712762c-.3229641426-.2198980937-.6735917572-.4099778584-1.0516099333-.5704532164-.7379617087-.3133870406-1.5528685789-.4703042552-2.4448130022-.4703042552-.892224441,0-1.7070374982.1595812914-2.4450006283.4785388359-.7379617087.3189483053-1.3768085316.7505191511-1.9163528426,1.2949452931-.5396381241.5444172582-.9581764213,1.1796494367-1.2555225001,1.9054737295-.2973460788.7258143429-.4460198289,1.4957094379-.4460198289,2.3096660958,0,.8137704533.1486737501,1.5834047196.4460198289,2.3094429345.1765248482.4306487063.3935726604.8282276095.6512358283,1.1932029318l-3.5861309331,3.5811005648,1.4250625419,1.423105261,3.5971226929-3.5921847162c.3229627211.219934695.6735931786.4100610109,1.0516099333.5704713394.7379617087.3133682069,1.5527747659.4701454127,2.4448130022.4701454127.892130628,0,1.7070374982-.1596640885,2.4449992069-.4783426814Z"/>
    </g>
  </g>
</svg>