<svg xmlns="http://www.w3.org/2000/svg" width="192" height="50" viewBox="0 0 192 50" fill="none"><g clip-path="url(#clip0_2359_6205)"><path fill-rule="evenodd" clip-rule="evenodd" d="M10.8769 0L11.2562 4.82514e-06L23.9845 0.000228485L24.3637 0.000235155L24.6641 0.231493L27.4638 2.38694L30.2215 0.263654L30.5219 0.0323823L30.9013 0.0323889L43.6296 0.0326126L44.0088 0.0326193L44.3092 0.263877L54.4524 8.07324L54.8856 8.40682V8.95304V22.8988V23.2748L54.6569 23.5736L51.659 27.4882L54.6569 31.403L54.8856 31.7017V32.0777V40.1758V40.722L54.4524 41.0556L44.3092 48.865L44.0088 49.0963H43.6294L30.9013 49.0961H30.5219L30.2215 48.8648L27.422 46.7093L24.6641 48.8326L24.3637 49.0639H23.9844L11.2562 49.0637H10.8769L10.5765 48.8324L0.43327 41.023L0 40.6894V40.1432V32.0451V31.669L0.228782 31.3704L3.22671 27.4556L0.228782 23.541L0 23.2421V22.8662V8.92043V8.37421L0.43327 8.04064L10.5765 0.231269L10.8769 0ZM25.6413 3.79005L23.605 2.22233L11.6355 2.22212L2.93542 8.92043L11.6356 15.6188L23.6051 15.6189L25.5996 14.0835L25.5963 14.081L27.4212 12.6796L28.0649 12.1852L28.5956 11.7778L32.3053 8.92064L29.6598 6.88395L31.4847 5.48268L34.8073 8.04086L35.95 8.92064L34.8073 9.80044L29.2443 14.0835L31.2806 15.6512L43.2502 15.6513L51.9503 8.95304L43.2501 2.25471L31.2806 2.2545L29.2862 3.79005L29.2872 3.79077L26.3517 6.0449L26.3538 6.04769L22.5805 8.95281L25.2236 10.9878L23.3987 12.389L20.0783 9.8326L18.9356 8.95281L20.0783 8.07302L25.6413 3.79005ZM27.422 15.4865L25.0974 17.2762V45.6929L26.7423 44.4264L27.422 43.9031L28.1016 44.4264L29.7883 45.725V17.3083L27.422 15.4865ZM32.0143 17.8732V46.8739L42.5166 46.8742V32.9586V17.8735L32.0143 17.8732ZM44.7424 17.3086V32.9586V45.7252L52.6598 39.6296V32.4538L49.3738 28.1631L48.8571 27.4882L49.3738 26.8135L52.6598 22.5227V11.213L44.7424 17.3086ZM22.8714 46.8418V17.8411L12.3692 17.8408V32.926V46.8415L22.8714 46.8418ZM10.1432 45.6926V32.926V17.276L2.22597 11.1804V22.4901L5.51188 26.7808L6.02863 27.4556L5.51188 28.1305L2.22597 32.4212V39.597L10.1432 45.6926Z" fill="#0CC2FF"></path><path d="M78.5997 4.45312L80.7838 6.63347V10.2766H78.1574V7.70984L77.5215 7.07505H70.2226L69.5866 7.70984V18.6392L70.2226 19.2739H77.5215L78.1574 18.6392V16.0724H80.7838V19.7155L78.5997 21.8958H69.1443L66.9602 19.7155V6.63347L69.1443 4.45312H78.5997Z" fill="#010516"></path><path d="M97.1125 4.45312L99.2967 6.63347V13.892L97.1125 16.0724H93.4631L99.2967 21.8958H95.5919L89.7584 16.0724H88.0995V21.8958H85.473V4.45312H97.1125ZM96.6702 12.8157V7.70984L96.0343 7.07505H88.0995V13.4505H96.0343L96.6702 12.8157Z" fill="#010516"></path><path d="M115.625 4.45312L117.81 6.63347V19.7155L115.625 21.8958H106.17L103.986 19.7155V6.63347L106.17 4.45312H115.625ZM115.183 18.6392V7.70984L114.547 7.07505H107.248L106.612 7.70984V18.6392L107.248 19.2739H114.547L115.183 18.6392Z" fill="#010516"></path><path d="M134.139 4.45312L136.322 6.63347V9.53139H133.696V7.70984L133.06 7.07505H125.761L125.126 7.70984V10.8562L125.761 11.4909H134.139L136.322 13.6713V19.7155L134.139 21.8958H124.683L122.498 19.7155V16.8176H125.126V18.6392L125.761 19.2739H133.06L133.696 18.6392V14.7476L133.06 14.1129H124.683L122.498 11.9325V6.63347L124.683 4.45312H134.139Z" fill="#010516"></path><path d="M152.651 4.45312L154.835 6.63347V9.53139H152.208V7.70984L151.573 7.07505H144.274L143.639 7.70984V10.8562L144.274 11.4909H152.651L154.835 13.6713V19.7155L152.651 21.8958H143.196L141.011 19.7155V16.8176H143.639V18.6392L144.274 19.2739H151.573L152.208 18.6392V14.7476L151.573 14.1129H143.196L141.011 11.9325V6.63347L143.196 4.45312H152.651Z" fill="#010516"></path><path d="M162.787 7.07505L162.151 7.70984V11.2701H170.445V13.892H162.151V21.8958H159.525V6.63347L161.708 4.45312H173.349V7.07505H162.787Z" fill="#010516"></path><path d="M186.276 7.07505V19.2739H191.86V21.8958H178.038V19.2739H183.65V7.07505H178.038V4.45312H191.86V7.07505H186.276Z" fill="#010516"></path><path d="M78.5993 26.8918L80.7833 29.0721V32.7151H78.157V30.1485L77.5211 29.5138H70.2225L69.5866 30.1485V41.0773L70.2225 41.7121H77.5211L78.157 41.0773V38.5108H80.7833V42.1538L78.5993 44.334H69.1442L66.9602 42.1538V29.0721L69.1442 26.8918H78.5993Z" fill="#0CC2FF"></path><path d="M96.6691 26.8918H99.2955V44.334H96.6691V37.2964H88.0435V44.334H85.4724V26.8918H88.0435V34.6746H96.6691V26.8918Z" fill="#0CC2FF"></path><path d="M115.624 26.8918L117.808 29.0721V44.334H115.181V39.2559H106.611V44.334H103.985V29.0721L106.169 26.8918H115.624ZM106.611 36.634H115.181V30.1485L114.545 29.5138H107.247L106.611 30.1485V36.634Z" fill="#0CC2FF"></path><path d="M130.735 29.5138V41.7121H136.32V44.334H122.497V41.7121H128.109V29.5138H122.497V26.8918H136.32V29.5138H130.735Z" fill="#0CC2FF"></path><path d="M152.206 26.8918H154.832V44.334H152.206L143.635 31.5835V44.334H141.009V26.8918H143.635L152.206 39.5871V26.8918Z" fill="#0CC2FF"></path><path fill-rule="evenodd" clip-rule="evenodd" d="M69.3255 26.583H79.0369L81.4022 28.9442V33.024H78.157V30.2765L77.7023 29.8225H70.6601L70.2053 30.2765V40.9494L70.6601 41.4034H77.7023L78.157 40.9494V38.2019H81.4022V42.2817L79.0369 44.6429H69.3255L66.9602 42.2817V28.9442L69.3255 26.583ZM69.5817 27.2007L67.579 29.2002V42.0257L69.5817 44.0252H78.7805L80.7833 42.0257V38.8197H78.7757V41.2054L77.9587 42.021H70.4037L69.5866 41.2054V30.0205L70.4037 29.2049H77.9587L78.7757 30.0205V32.4062H80.7833V29.2002L78.7805 27.2007H69.5817ZM85.4724 26.583H88.6623V34.3657H96.6691V26.583H99.9143V44.6429H96.6691V37.6053H88.6623V44.6429H85.4724V26.583ZM86.0911 27.2007V44.0252H88.0434V36.9875H97.2879V44.0252H99.2955V27.2007H97.2879V34.9835H88.0434V27.2007H86.0911ZM106.35 26.583H116.061L118.427 28.9442V44.6429H115.181V39.5648H107.23V44.6429H103.985V28.9442L106.35 26.583ZM106.606 27.2007L104.603 29.2002V44.0252H106.611V38.9471H115.8V44.0252H117.808V29.2002L115.805 27.2007H106.606ZM122.497 26.583H136.939V29.8225H131.354V41.4034H136.939V44.6429H122.497V41.4034H128.109V29.8225H122.497V26.583ZM123.116 27.2007V29.2049H128.728V42.021H123.116V44.0252H136.32V42.021H130.735V29.2049H136.32V27.2007H123.116ZM141.009 26.583H144.11L152.206 38.5761V26.583H155.451V44.6429H152.35L144.254 32.5982V44.6429H141.009V26.583ZM141.628 27.2007V44.0252H143.635V30.569L152.681 44.0252H154.832V27.2007H152.825V40.598L143.781 27.2007H141.628ZM107.428 29.2049H114.983L115.8 30.0205V36.9429H106.611V30.0205L107.428 29.2049ZM107.684 29.8225L107.23 30.2765V36.3253H115.181V30.2765L114.727 29.8225H107.684Z" fill="#0CC2FF"></path></g><defs><clipPath id="clip0_2359_6205"><rect width="192" height="50" fill="white"></rect></clipPath></defs></svg>