<svg width="32" height="32" viewBox="0 0 32 32" fill="none" xmlns="http://www.w3.org/2000/svg">
<g clip-path="url(#clip0_913_89114)">
<path d="M32 16C32 7.16344 24.8366 0 16 0C7.16344 0 0 7.16344 0 16C0 24.8366 7.16344 32 16 32C24.8366 32 32 24.8366 32 16Z" fill="white"/>
<path d="M16.5155 15.7788L16.519 15.7828L16.5241 15.7788H19.4166V10.4061C19.4166 8.80112 18.1168 7.5 16.5135 7.5V12.4264C15.9109 12.1877 15.261 12.0598 14.5899 12.0598C11.7142 12.0598 9.375 14.4015 9.375 17.2799C9.375 20.1583 11.7142 22.5 14.5897 22.5C15.6124 22.5 16.4285 22.0335 17.1383 21.4278C17.6969 22.0572 18.5091 22.4558 19.4163 22.4558V18.9551H16.3662C15.9001 19.4503 15.2689 19.7232 14.5895 19.7232C13.2436 19.7232 12.1487 18.627 12.1487 17.2797C12.1487 15.9324 13.2436 14.8366 14.5895 14.8366C15.3458 14.8366 16.0464 15.1793 16.5131 15.7764V15.7788H16.5151H16.5155Z" fill="url(#paint0_linear_913_89114)"/>
<path fill-rule="evenodd" clip-rule="evenodd" d="M15.4578 17.666C15.3458 18.0226 15.0127 18.2812 14.6191 18.2812C14.1337 18.2812 13.7402 17.8877 13.7402 17.4024C13.7402 16.9169 14.1337 16.5234 14.6191 16.5234C15.0127 16.5234 15.3458 16.7821 15.4578 17.1387H19.4238V17.666H15.4578Z" fill="#0F0146"/>
</g>
<defs>
<linearGradient id="paint0_linear_913_89114" x1="17.1456" y1="8.79512" x2="13.6303" y2="19.3409" gradientUnits="userSpaceOnUse">
<stop stop-color="#0FD3EE"/>
<stop offset="1" stop-color="#9D43F7"/>
</linearGradient>
<clipPath id="clip0_913_89114">
<rect width="32" height="32" fill="white"/>
</clipPath>
</defs>
</svg>
