<svg width="32" height="32" viewBox="0 0 32 32" fill="none" xmlns="http://www.w3.org/2000/svg">
<g id="Dogecoin-icon">
<circle id="Base" cx="16" cy="16" r="16" fill="#C2A633"/>
<path id="Exclude" fill-rule="evenodd" clip-rule="evenodd" d="M10.7091 24.3698H16.233H16.2331C16.2331 24.3698 24.0001 25.0312 24.0001 16.1348C24.0001 7.58319 16.9074 7.61352 15.5366 7.61938C15.5045 7.61952 15.4756 7.61964 15.4499 7.61964H10.709V15.0811H8.76196V16.9088H10.7091V24.3698ZM13.8204 10.7157H15.9998C16.8149 10.7157 20.9158 11.0491 20.9223 16.195C20.9288 21.2797 16.7942 21.2745 16.1291 21.2736C16.1211 21.2736 16.1135 21.2736 16.1065 21.2736H13.8204V16.9087H17.2491V15.081H13.8204V10.7157Z" fill="white"/>
</g>
</svg>
