<svg width="58" height="20" viewBox="0 0 58 20" fill="none" xmlns="http://www.w3.org/2000/svg">
<path d="M0 4C0 1.79086 1.79086 0 4 0H54C56.2091 0 58 1.79086 58 4V16C58 18.2091 56.2091 20 54 20H4C1.79086 20 0 18.2091 0 16V4Z" fill="#4054B2"/>
<path d="M16.9946 10.0789L16.9973 10.068C16.9973 10.057 17 10.0488 17 10.0379C17 10.027 17 10.0106 17 9.99689C17 9.99142 17 9.98869 17 9.98322C17 9.96955 17 9.95589 16.9973 9.94222C16.9973 9.93949 16.9973 9.93949 16.9973 9.93675C16.9892 9.85474 16.9624 9.7782 16.9194 9.70986L12.957 3.25859C12.8011 3.00163 12.4704 2.92236 12.2177 3.08364C12.1478 3.12738 12.0887 3.18751 12.043 3.26132L8.08065 9.7126C8.03763 9.78094 8.01075 9.86021 8.00269 9.93949V9.94495C8.00269 9.95862 8 9.97229 8 9.98596V9.99962V10.0406C8 10.0406 8.00269 10.0598 8.00269 10.0707V10.0816C8.01344 10.1691 8.04839 10.2538 8.09946 10.3277L12.043 16.7407C12.1989 16.9976 12.5296 17.0769 12.7823 16.9183C12.8522 16.8746 12.9113 16.8145 12.957 16.7407L16.8979 10.3249C16.9489 10.2511 16.9812 10.1664 16.9946 10.0789ZM12.5 4.58438L15.707 9.80827L12.5 11.6616L9.29301 9.80827L12.5 4.58438ZM12.5 15.4149L10.1263 11.5523L12.2312 12.7688C12.3952 12.8644 12.5995 12.8644 12.7634 12.7688L14.871 11.5523L12.5 15.4149Z" fill="white"/>
<path d="M27.352 5.778V9.04H30.908V10.09H27.352V13.45H31.328V14.5H26.078V4.728H31.328V5.778H27.352ZM39.2617 4.742V5.778H36.6017V14.5H35.3277V5.778H32.6537V4.742H39.2617ZM48.348 4.742V14.5H47.074V10.076H42.104V14.5H40.83V4.742H42.104V9.026H47.074V4.742H48.348Z" fill="white"/>
</svg>
