<svg width="32" height="32" viewBox="0 0 32 32" fill="none" xmlns="http://www.w3.org/2000/svg">
<g id="fantom-logo">
<rect width="32" height="32" rx="16" fill="#1969FF"/>
<path id="Vector" d="M15.0243 6.19158C15.5104 5.93614 16.25 5.93614 16.7361 6.19158L21.6963 8.79817C21.989 8.95201 22.1498 9.18126 22.1786 9.41792H22.1833V22.52C22.1769 22.7781 22.0146 23.0345 21.6963 23.2018L16.7361 25.8084C16.25 26.0639 15.5104 26.0639 15.0243 25.8084L10.0642 23.2018C9.74715 23.0353 9.59503 22.777 9.5875 22.52C9.58675 22.4947 9.58665 22.4736 9.58737 22.4561L9.58734 9.50207C9.58684 9.48788 9.58679 9.47371 9.5872 9.4596L9.5875 9.41792L9.58972 9.4179C9.61175 9.17865 9.76523 8.95526 10.0642 8.79817L15.0243 6.19158ZM21.4025 16.7275L16.7361 19.1797C16.25 19.4351 15.5104 19.4351 15.0243 19.1797L10.3681 16.7329V22.494L15.0243 24.9279C15.2872 25.0678 15.5601 25.204 15.8269 25.2214L15.8802 25.2231C16.1582 25.224 16.4282 25.0836 16.7019 24.9506L21.4025 22.4731V16.7275ZM8.78073 22.2351C8.78073 22.737 8.83937 23.067 8.9558 23.2995C9.0523 23.4922 9.19709 23.6393 9.46147 23.8186L9.47656 23.8287C9.53458 23.8676 9.5985 23.9084 9.67629 23.9562L9.76804 24.0122L10.0498 24.1814L9.6457 24.8461L9.33036 24.6565L9.27736 24.6242C9.18618 24.5681 9.11061 24.5201 9.04013 24.4728C8.28664 23.9673 8.00563 23.4164 8.00008 22.27L8 22.2351H8.78073ZM15.4897 13.2157C15.4536 13.2281 15.4198 13.2423 15.3889 13.2586L10.4288 15.8652C10.4236 15.8679 10.4186 15.8706 10.4139 15.8733L10.4097 15.8757L10.4175 15.8801L10.4288 15.8862L15.3889 18.4928C15.4198 18.509 15.4536 18.5233 15.4897 18.5356V13.2157ZM16.2707 13.2157V18.5356C16.3068 18.5233 16.3406 18.509 16.3715 18.4928L21.3316 15.8862C21.3368 15.8835 21.3418 15.8808 21.3465 15.8781L21.3507 15.8757L21.3429 15.8713L21.3316 15.8652L16.3715 13.2586C16.3406 13.2423 16.3068 13.2281 16.2707 13.2157ZM21.4025 10.3473L16.9529 12.6856L21.4025 15.0239V10.3473ZM10.3681 10.3528V15.0184L14.8073 12.6856L10.3681 10.3528ZM16.3715 6.87846C16.1135 6.74291 15.6469 6.74291 15.3889 6.87846L10.4288 9.48506C10.4236 9.48779 10.4186 9.49049 10.4139 9.49317L10.4097 9.49559L10.4175 9.50002L10.4288 9.50613L15.3889 12.1127C15.6469 12.2483 16.1135 12.2483 16.3715 12.1127L21.3316 9.50613C21.3368 9.5034 21.3418 9.5007 21.3465 9.49801L21.3507 9.49559L21.3429 9.49115L21.3316 9.48506L16.3715 6.87846ZM22.1355 7.1643L22.4509 7.35378L22.5039 7.38616C22.595 7.44216 22.6706 7.49026 22.7411 7.53755C23.4946 8.04296 23.7756 8.59401 23.7811 9.74032L23.7812 9.77524H23.0005C23.0005 9.27324 22.9418 8.94331 22.8254 8.71085C22.7289 8.5182 22.5841 8.37096 22.3198 8.19181L22.3047 8.18164C22.2466 8.14271 22.1827 8.10195 22.1049 8.05403L22.0132 7.99812L21.7314 7.82897L22.1355 7.1643Z" fill="white"/>
</g>
</svg>
