<svg width="21" height="20" viewBox="0 0 21 20" fill="none" xmlns="http://www.w3.org/2000/svg">
<path d="M18.1877 -0.00976562C16.8149 -0.00976562 15.6988 1.10628 15.6988 2.47912C15.6988 3.17048 16.005 3.83221 16.5285 4.31616L16.6174 4.41493L14.0001 10.7063L13.8519 10.6569C13.6248 10.5976 13.4272 10.568 13.21 10.568C12.7754 10.568 12.3112 10.7063 11.9161 10.9532L11.7976 11.0223L10.1581 8.32604L10.2174 8.2174C10.4643 7.7927 10.6026 7.34826 10.6026 6.92357C10.6026 5.54085 9.4865 4.41493 8.10379 4.41493C6.72107 4.41493 5.6149 5.54085 5.6149 6.92357C5.6149 7.61493 5.92107 8.28653 6.46428 8.78036L6.55317 8.84949L3.94576 15.1409L3.80749 15.1013C3.56058 15.0421 3.35317 15.0125 3.17539 15.0125C1.79267 15.0125 0.666748 16.1285 0.666748 17.5112C0.666748 18.8939 1.79267 20.01 3.17539 20.01C4.55811 20.01 5.66428 18.8939 5.66428 17.5112C5.66428 16.81 5.35811 16.1384 4.82477 15.6742L4.71613 15.5853L7.32354 9.29394L7.47169 9.34332C8.15317 9.5211 8.80502 9.42233 9.39761 9.0569L9.53588 8.98777L11.1754 11.6742L11.1063 11.7828C10.8593 12.1976 10.7309 12.6421 10.7309 13.0767C10.7309 14.4594 11.847 15.5853 13.21 15.5853C14.5729 15.5853 15.7186 14.4594 15.7186 13.0767C15.7186 12.3853 15.4124 11.7137 14.8791 11.2495L14.7803 11.1606L17.4174 4.86925L17.5458 4.89888C17.7828 4.96801 17.9705 4.98777 18.1779 4.98777C19.5507 4.98777 20.6667 3.87172 20.6667 2.49888C20.6667 1.12604 19.5507 0.00998746 18.1779 0.00998746L18.1877 -0.00976562ZM4.77539 17.5013C4.77539 18.3902 4.06428 19.1013 3.18527 19.1013C2.30625 19.1013 1.58527 18.3804 1.58527 17.5013C1.58527 16.6223 2.30625 15.9013 3.18527 15.9013C4.06428 15.9013 4.77539 16.6223 4.77539 17.5013ZM9.70379 6.92357C9.70379 7.81246 8.99267 8.52357 8.10379 8.52357C7.2149 8.52357 6.49391 7.7927 6.49391 6.92357C6.49391 6.05443 7.2149 5.31369 8.10379 5.31369C8.99267 5.31369 9.70379 6.03468 9.70379 6.92357ZM14.8297 13.0569C14.8297 13.9557 14.1087 14.6865 13.21 14.6865C12.3112 14.6865 11.6198 13.9557 11.6198 13.0569C11.6198 12.1581 12.3309 11.4569 13.21 11.4569C14.089 11.4569 14.8297 12.168 14.8297 13.0569ZM18.1877 4.089C17.3186 4.089 16.5877 3.35814 16.5877 2.489C16.5877 1.61986 17.3087 0.889 18.1877 0.889C19.0667 0.889 19.7877 1.60999 19.7877 2.489C19.7877 3.36801 19.0667 4.089 18.1877 4.089Z" fill="white"/>
</svg>
