<svg width="21" height="20" viewBox="0 0 21 20" fill="none" xmlns="http://www.w3.org/2000/svg">
<path d="M18.1875 -0.00976562C16.8147 -0.00976562 15.6986 1.10628 15.6986 2.47912C15.6986 3.17048 16.0048 3.83221 16.5282 4.31616L16.6171 4.41493L13.9998 10.7063L13.8517 10.6569C13.6245 10.5976 13.427 10.568 13.2097 10.568C12.7751 10.568 12.3109 10.7063 11.9159 10.9532L11.7974 11.0223L10.1579 8.32604L10.2171 8.2174C10.464 7.7927 10.6023 7.34826 10.6023 6.92357C10.6023 5.54085 9.48626 4.41493 8.10354 4.41493C6.72083 4.41493 5.61465 5.54085 5.61465 6.92357C5.61465 7.61493 5.92083 8.28653 6.46404 8.78036L6.55292 8.84949L3.94552 15.1409L3.80724 15.1013C3.56033 15.0421 3.35292 15.0125 3.17515 15.0125C1.79243 15.0125 0.666504 16.1285 0.666504 17.5112C0.666504 18.8939 1.79243 20.01 3.17515 20.01C4.55786 20.01 5.66404 18.8939 5.66404 17.5112C5.66404 16.81 5.35786 16.1384 4.82453 15.6742L4.71589 15.5853L7.32329 9.29394L7.47144 9.34332C8.15292 9.5211 8.80478 9.42233 9.39737 9.0569L9.53564 8.98777L11.1751 11.6742L11.106 11.7828C10.8591 12.1976 10.7307 12.6421 10.7307 13.0767C10.7307 14.4594 11.8468 15.5853 13.2097 15.5853C14.5727 15.5853 15.7184 14.4594 15.7184 13.0767C15.7184 12.3853 15.4122 11.7137 14.8788 11.2495L14.7801 11.1606L17.4171 4.86925L17.5455 4.89888C17.7826 4.96801 17.9702 4.98777 18.1776 4.98777C19.5505 4.98777 20.6665 3.87172 20.6665 2.49888C20.6665 1.12604 19.5505 0.00998746 18.1776 0.00998746L18.1875 -0.00976562ZM4.77515 17.5013C4.77515 18.3902 4.06403 19.1013 3.18502 19.1013C2.30601 19.1013 1.58502 18.3804 1.58502 17.5013C1.58502 16.6223 2.30601 15.9013 3.18502 15.9013C4.06403 15.9013 4.77515 16.6223 4.77515 17.5013ZM9.70354 6.92357C9.70354 7.81246 8.99243 8.52357 8.10354 8.52357C7.21465 8.52357 6.49366 7.7927 6.49366 6.92357C6.49366 6.05443 7.21465 5.31369 8.10354 5.31369C8.99243 5.31369 9.70354 6.03468 9.70354 6.92357ZM14.8295 13.0569C14.8295 13.9557 14.1085 14.6865 13.2097 14.6865C12.3109 14.6865 11.6196 13.9557 11.6196 13.0569C11.6196 12.1581 12.3307 11.4569 13.2097 11.4569C14.0887 11.4569 14.8295 12.168 14.8295 13.0569ZM18.1875 4.089C17.3184 4.089 16.5875 3.35814 16.5875 2.489C16.5875 1.61986 17.3085 0.889 18.1875 0.889C19.0665 0.889 19.7875 1.60999 19.7875 2.489C19.7875 3.36801 19.0665 4.089 18.1875 4.089Z" fill="#8E4BEB"/>
</svg>
