<svg width="32" height="32" viewBox="0 0 32 32" fill="none" xmlns="http://www.w3.org/2000/svg">
<circle cx="16" cy="16" r="16" fill="#010101"/>
<path d="M12.8444 8.68875L15.7076 7.03528C15.7891 6.98824 15.8903 6.98824 15.9718 7.03528L23.5178 11.392C23.5994 11.439 23.6495 11.5261 23.6504 11.6202L23.6605 14.6166C23.6605 14.7115 23.6104 14.7993 23.528 14.8464L20.6688 16.4974C20.4931 16.5994 20.2729 16.4723 20.272 16.2693L20.2626 13.5802C20.2626 13.4861 20.2117 13.3991 20.1302 13.352L12.8444 9.14661C12.668 9.04469 12.668 8.79067 12.8444 8.68875Z" fill="#B4F9BA"/>
<path d="M10.9949 22.2616L8.1325 20.6089C8.05018 20.5619 8 20.4748 8 20.3799V11.6665C8 11.5724 8.05018 11.4854 8.13171 11.4376L10.7221 9.92991C10.8044 9.88209 10.9055 9.88209 10.9871 9.92991L13.8463 11.581C14.022 11.683 14.0227 11.9362 13.8471 12.0389L11.5233 13.3913C11.4418 13.4383 11.3916 13.5254 11.3916 13.6202V22.0334C11.3916 22.2373 11.1713 22.3635 10.9949 22.2616Z" fill="#B4F9BA"/>
<path d="M23.6606 17.0737V20.3791C23.6606 20.474 23.6104 20.561 23.5281 20.608L15.982 24.9648C15.9005 25.0118 15.8001 25.0118 15.7186 24.9648L13.118 23.4751C13.0357 23.4281 12.9847 23.3403 12.9847 23.2454V19.944C12.9847 19.741 13.2043 19.6139 13.3807 19.7142L15.7139 21.051C15.7954 21.0981 15.8958 21.0972 15.9773 21.051L23.2631 16.844C23.4394 16.7421 23.6598 16.8691 23.6598 17.0729L23.6606 17.0737Z" fill="#B4F9BA"/>
</svg>
