<svg width="32" height="31" viewBox="0 0 32 31" fill="none" xmlns="http://www.w3.org/2000/svg">
<g id="Clip path group">
<mask id="mask0_913_89375" style="mask-type:luminance" maskUnits="userSpaceOnUse" x="0" y="0" width="32" height="31">
<g id="clip0_776_67051">
<path id="Vector" d="M32 0.941162H0V30.2095H32V0.941162Z" fill="white"/>
</g>
</mask>
<g mask="url(#mask0_913_89375)">
<g id="Group">
<path id="Vector_2" d="M9.12136 29.4309C9.07545 29.4309 9.02954 29.4003 8.99893 29.3698L0.0309712 16.6975C0.000363837 16.6517 0.000363836 16.5907 0.0156675 16.5449L6.50442 2.45274C6.51973 2.40693 6.58094 2.3764 6.62686 2.36112L22.0835 0.941228C22.1295 0.925959 22.1907 0.956494 22.2213 1.0023L31.1892 13.6746C31.2199 13.7203 31.2199 13.7814 31.2046 13.8272L24.7158 27.9194C24.7005 27.9651 24.6393 27.9957 24.5934 28.011L9.12136 29.4309ZM0.321741 16.5907L9.18257 29.1255L24.4709 27.7209L30.8985 13.7814L22.0377 1.24658L6.74929 2.65121L0.321741 16.5907Z" fill="#373A36"/>
<path id="Vector_3" d="M9.05968 29.4004L6.58049 16.5143L6.56519 2.42224L18.6551 5.97962L31.1888 13.7662L21.8842 22.0108L9.05968 29.4004ZM6.71822 2.62072L6.73352 16.4991L9.1668 29.1714L21.7923 21.8886L30.9439 13.7662L18.5786 6.10177L6.71822 2.62072Z" fill="#373A36"/>
<path id="Vector_4" d="M18.8539 6.55972C19.0991 6.55972 19.2978 6.36149 19.2978 6.11696C19.2978 5.87242 19.0991 5.67419 18.8539 5.67419C18.6088 5.67419 18.4102 5.87242 18.4102 6.11696C18.4102 6.36149 18.6088 6.55972 18.8539 6.55972Z" fill="#373A36"/>
<path id="Vector_5" d="M18.854 7.03307C18.3489 7.03307 17.9204 6.62085 17.9204 6.10174C17.9204 5.5979 18.3337 5.17041 18.854 5.17041C19.359 5.17041 19.7875 5.58264 19.7875 6.10174C19.7875 6.62085 19.3742 7.03307 18.854 7.03307ZM18.854 6.08648L18.8234 6.11701C18.8234 6.13228 18.8386 6.14755 18.854 6.14755V6.08648Z" fill="#373A36"/>
<path id="Vector_6" d="M21.8688 22.3619C22.1139 22.3619 22.3127 22.1637 22.3127 21.919C22.3127 21.6745 22.1139 21.4763 21.8688 21.4763C21.6237 21.4763 21.425 21.6745 21.425 21.919C21.425 22.1637 21.6237 22.3619 21.8688 22.3619Z" fill="#373A36"/>
<path id="Vector_7" d="M21.8691 22.8505C21.3641 22.8505 20.9355 22.4382 20.9355 21.9191C20.9355 21.4 21.3487 20.9878 21.8691 20.9878C22.3894 20.9878 22.8026 21.4 22.8026 21.9191C22.8026 22.4382 22.3741 22.8505 21.8691 22.8505ZM21.8691 21.9038L21.8384 21.9344C21.8384 21.9497 21.8538 21.9649 21.8691 21.9649V21.9038Z" fill="#373A36"/>
<path id="Vector_8" d="M9.22799 29.7209C9.47307 29.7209 9.67176 29.5227 9.67176 29.2782C9.67176 29.0337 9.47307 28.8354 9.22799 28.8354C8.98288 28.8354 8.78418 29.0337 8.78418 29.2782C8.78418 29.5227 8.98288 29.7209 9.22799 29.7209Z" fill="#373A36"/>
<path id="Vector_9" d="M9.2282 30.2096C8.72318 30.2096 8.29468 29.7974 8.29468 29.2782C8.29468 28.7744 8.70787 28.3469 9.2282 28.3469C9.73318 28.3469 10.1617 28.7592 10.1617 29.2782C10.1617 29.7974 9.73318 30.2096 9.2282 30.2096ZM9.2282 29.263L9.1976 29.2935C9.1976 29.3088 9.2129 29.3241 9.2282 29.3241V29.263Z" fill="#373A36"/>
<path id="Vector_10" d="M6.64156 17.0945C6.88667 17.0945 7.08536 16.8962 7.08536 16.6517C7.08536 16.4072 6.88667 16.209 6.64156 16.209C6.39645 16.209 6.19775 16.4072 6.19775 16.6517C6.19775 16.8962 6.39645 17.0945 6.64156 17.0945Z" fill="#373A36"/>
<path id="Vector_11" d="M6.64178 17.5678C6.13676 17.5678 5.70825 17.1555 5.70825 16.6365C5.70825 16.1327 6.12146 15.7051 6.64178 15.7051C7.16211 15.7051 7.5753 16.1173 7.5753 16.6365C7.5753 17.1555 7.16211 17.5678 6.64178 17.5678ZM6.64178 16.6212L6.61117 16.6517C6.61117 16.667 6.62647 16.6823 6.64178 16.6823V16.6212Z" fill="#373A36"/>
<path id="Vector_12" d="M31.0664 14.2242C31.3115 14.2242 31.5102 14.026 31.5102 13.7814C31.5102 13.5369 31.3115 13.3386 31.0664 13.3386C30.8212 13.3386 30.6226 13.5369 30.6226 13.7814C30.6226 14.026 30.8212 14.2242 31.0664 14.2242Z" fill="#373A36"/>
<path id="Vector_13" d="M31.0665 14.7127C30.5615 14.7127 30.1331 14.3004 30.1331 13.7814C30.1331 13.2776 30.5462 12.85 31.0665 12.85C31.5869 12.85 32.0001 13.2622 32.0001 13.7814C32.0001 14.3004 31.5869 14.7127 31.0665 14.7127ZM31.0665 13.7508L31.0359 13.7814C31.0359 13.7966 31.0513 13.8119 31.0665 13.8119V13.7508Z" fill="#373A36"/>
<path id="Vector_14" d="M6.64156 2.95658C6.88667 2.95658 7.08536 2.75834 7.08536 2.51381C7.08536 2.26928 6.88667 2.07104 6.64156 2.07104C6.39645 2.07104 6.19775 2.26928 6.19775 2.51381C6.19775 2.75834 6.39645 2.95658 6.64156 2.95658Z" fill="#373A36"/>
<path id="Vector_15" d="M6.64178 3.44518C6.13676 3.44518 5.70825 3.03295 5.70825 2.51385C5.70825 2.01001 6.12146 1.58252 6.64178 1.58252C7.16211 1.58252 7.5753 1.99475 7.5753 2.51385C7.5753 3.03295 7.16211 3.44518 6.64178 3.44518ZM6.64178 2.49859L6.61117 2.52912C6.61117 2.54438 6.62647 2.55965 6.64178 2.55965V2.49859Z" fill="#373A36"/>
<path id="Vector_16" d="M24.5777 28.0107C24.5624 28.0107 24.5471 28.0107 24.5318 27.9955L12.748 23.8426L0.0765184 16.7432C0.0306073 16.7126 0 16.6821 0 16.6362C0 16.5904 0.0153037 16.5447 0.0459111 16.5141L9.58014 7.81147L22.0373 0.956255C22.0832 0.925715 22.1291 0.925715 22.1751 0.956255C22.221 0.971521 22.2516 1.01732 22.2668 1.06313L25.0521 13.3079L24.7307 27.8733C24.7307 27.9192 24.7001 27.9649 24.6696 27.9955C24.639 27.9955 24.6083 28.0107 24.5777 28.0107ZM0.397896 16.5904L12.8551 23.5831L24.4247 27.6596L24.7461 13.3384L22.0067 1.32267L9.74842 8.04049L0.397896 16.5904Z" fill="#373A36"/>
<path id="Vector_17" d="M21.9147 21.9802L21.8536 21.9649L6.56519 16.667L6.6111 16.6212L18.8694 6.04065L21.9147 21.9802ZM6.71822 16.6365L21.8076 21.8734L18.8387 6.17806L6.71822 16.6365Z" fill="#373A36"/>
<path id="Vector_18" d="M12.6867 23.9803L9.4729 7.67432L25.1898 13.2775L12.6867 23.9803ZM9.87083 8.13235L12.8857 23.4153L24.6082 13.3845L9.87083 8.13235Z" fill="#373A36"/>
<path id="Vector_19" d="M6.77147 2.44067L6.50464 2.59024L9.54037 7.98096L9.80729 7.83139L6.77147 2.44067Z" fill="#373A36"/>
<path id="Vector_20" d="M9.35058 29.3699L9.10571 29.2019L12.6562 23.6292L12.9163 23.7818L9.35058 29.3699Z" fill="#373A36"/>
<path id="Vector_21" d="M24.9073 13.1759L24.885 13.4804L31.0663 13.9309L31.0886 13.6263L24.9073 13.1759Z" fill="#373A36"/>
</g>
</g>
</g>
</svg>
