<svg width="32" height="32" viewBox="0 0 32 32" fill="none" xmlns="http://www.w3.org/2000/svg">
<circle cx="16" cy="16" r="16" fill="#4070F4"/>
<g clip-path="url(#clip0_1559_88375)">
<path d="M14.0268 24.7299L16.3455 22.1245C16.3848 22.0853 16.3585 22.0202 16.2934 22.0202H13.7402C13.7206 22.0171 13.7024 22.008 13.688 21.9944L11.5257 19.5713C11.5128 19.5455 11.4994 19.5192 11.5128 19.4929L15.134 13.2792C15.1469 13.2533 15.1469 13.227 15.134 13.2145L13.6358 10.6345C13.61 10.5958 13.5449 10.5958 13.5186 10.6345L8.16477 19.8325C8.15838 19.8446 8.15504 19.8579 8.15504 19.8715C8.15504 19.8851 8.15838 19.8985 8.16477 19.9105L12.4631 24.7429C12.476 24.7562 12.4889 24.7692 12.5152 24.7692H13.9742C13.9871 24.7562 14.0138 24.7433 14.0268 24.7299Z" fill="white"/>
<path d="M15.6158 7.0396L14.1048 9.61868C14.0918 9.64499 14.0918 9.67083 14.1048 9.68376L15.668 12.3676L19.8108 19.4799C19.8237 19.5062 19.8237 19.5325 19.7978 19.5584L17.6092 22.0073L15.2771 24.639C15.2383 24.6782 15.2642 24.7433 15.3292 24.7433H18.8208C18.8404 24.74 18.8586 24.7308 18.8729 24.717L23.1717 19.8842C23.1846 19.8579 23.1975 19.8321 23.1846 19.8058L15.7202 7.0396C15.7072 6.98745 15.6417 6.98745 15.6158 7.0396Z" fill="white"/>
</g>
<defs>
<clipPath id="clip0_1559_88375">
<rect width="15.2308" height="18" fill="white" transform="translate(8 7)"/>
</clipPath>
</defs>
</svg>
