<svg width="19" height="16" viewBox="0 0 19 16" fill="none" xmlns="http://www.w3.org/2000/svg">
<g id="Logo">
<g id="Union">
<path d="M4.15247 7.59894C4.15247 7.40636 4.30934 7.25024 4.50285 7.25024H17.4672C17.6607 7.25024 17.8175 7.40636 17.8175 7.59894C17.8175 7.79152 17.6607 7.94764 17.4672 7.94764H4.50285C4.30934 7.94764 4.15247 7.79152 4.15247 7.59894Z" fill="#E1147B"/>
<path d="M1.52457 9.13321C1.52457 8.94063 1.68144 8.78451 1.87495 8.78451H11.3354C11.5289 8.78451 11.6858 8.94063 11.6858 9.13321C11.6858 9.32579 11.5289 9.48191 11.3354 9.48191H1.87495C1.68144 9.48191 1.52457 9.32579 1.52457 9.13321Z" fill="#E1147B"/>
<path d="M10.3193 13.3873C10.1258 13.3873 9.96889 13.5434 9.96889 13.736C9.96889 13.9286 10.1258 14.0847 10.3193 14.0847H16.1707C16.3642 14.0847 16.5211 13.9286 16.5211 13.736C16.5211 13.5434 16.3642 13.3873 16.1707 13.3873H10.3193Z" fill="#E1147B"/>
<path d="M6.39494 15.2703C6.39494 15.0777 6.55181 14.9216 6.74533 14.9216H12.5617C12.7553 14.9216 12.9121 15.0777 12.9121 15.2703C12.9121 15.4629 12.7553 15.619 12.5617 15.619H6.74533C6.55181 15.619 6.39494 15.4629 6.39494 15.2703Z" fill="#E1147B"/>
<path d="M4.50285 10.3188C4.30934 10.3188 4.15247 10.4749 4.15247 10.6675C4.15247 10.8601 4.30934 11.0162 4.50285 11.0162H15.9255C16.119 11.0162 16.2758 10.8601 16.2758 10.6675C16.2758 10.4749 16.119 10.3188 15.9255 10.3188H4.50285Z" fill="#E1147B"/>
<path d="M2.1903 12.2018C2.1903 12.0092 2.34717 11.8531 2.54069 11.8531H7.09572C7.28923 11.8531 7.4461 12.0092 7.4461 12.2018C7.4461 12.3943 7.28923 12.5505 7.09572 12.5505H2.54069C2.34717 12.5505 2.1903 12.3943 2.1903 12.2018Z" fill="#E1147B"/>
<path d="M8.42719 11.8531C8.23367 11.8531 8.0768 12.0092 8.0768 12.2018C8.0768 12.3943 8.23367 12.5505 8.42719 12.5505H17.8876C18.0811 12.5505 18.238 12.3943 18.238 12.2018C18.238 12.0092 18.0811 11.8531 17.8876 11.8531H8.42719Z" fill="#E1147B"/>
<path d="M3.66193 7.59894C3.66193 7.79152 3.50506 7.94764 3.31154 7.94764C3.11802 7.94764 2.96115 7.79152 2.96115 7.59894C2.96115 7.40636 3.11802 7.25024 3.31154 7.25024C3.50506 7.25024 3.66193 7.40636 3.66193 7.59894Z" fill="#E1147B"/>
<path d="M0.683639 9.48191C0.877155 9.48191 1.03403 9.32579 1.03403 9.13321C1.03403 8.94063 0.877155 8.78451 0.683639 8.78451C0.490122 8.78451 0.333252 8.94063 0.333252 9.13321C0.333252 9.32579 0.490122 9.48191 0.683639 9.48191Z" fill="#E1147B"/>
<path d="M9.47835 13.736C9.47835 13.9286 9.32148 14.0847 9.12796 14.0847C8.93444 14.0847 8.77757 13.9286 8.77757 13.736C8.77757 13.5434 8.93444 13.3873 9.12796 13.3873C9.32148 13.3873 9.47835 13.5434 9.47835 13.736Z" fill="#E1147B"/>
<path d="M5.55401 15.619C5.74753 15.619 5.9044 15.4629 5.9044 15.2703C5.9044 15.0777 5.74753 14.9216 5.55401 14.9216C5.3605 14.9216 5.20363 15.0777 5.20363 15.2703C5.20363 15.4629 5.3605 15.619 5.55401 15.619Z" fill="#E1147B"/>
<path d="M3.66193 10.6675C3.66193 10.8601 3.50506 11.0162 3.31154 11.0162C3.11802 11.0162 2.96115 10.8601 2.96115 10.6675C2.96115 10.4749 3.11802 10.3188 3.31154 10.3188C3.50506 10.3188 3.66193 10.4749 3.66193 10.6675Z" fill="#E1147B"/>
<path d="M1.34937 12.5505C1.54289 12.5505 1.69976 12.3943 1.69976 12.2018C1.69976 12.0092 1.54289 11.8531 1.34937 11.8531C1.15586 11.8531 0.998987 12.0092 0.998987 12.2018C0.998987 12.3943 1.15586 12.5505 1.34937 12.5505Z" fill="#E1147B"/>
</g>
<path id="Union_2" d="M16.1645 3.82497C16.4463 4.50187 16.5913 5.22736 16.5913 5.96002C16.5913 6.11409 16.4658 6.23898 16.311 6.23898H5.65922C5.50441 6.23898 5.37891 6.11409 5.37891 5.96002C5.37891 5.22736 5.52391 4.50187 5.80565 3.82497C6.08739 3.14807 6.50034 2.53303 7.02092 2.01496C7.5415 1.49689 8.15953 1.08593 8.8397 0.805548C9.51987 0.52517 10.2489 0.380859 10.9851 0.380859C11.7213 0.380859 12.4503 0.52517 13.1305 0.805548C13.8107 1.08593 14.4287 1.49689 14.9493 2.01496C15.4698 2.53303 15.8828 3.14807 16.1645 3.82497Z" fill="#53CBC7"/>
</g>
</svg>
