<svg width="16" height="16" viewBox="0 0 16 16" fill="none" xmlns="http://www.w3.org/2000/svg">
<g id="NEAR Protocol svg" clip-path="url(#clip0_913_89322)">
<g id="Group">
<path id="Vector" d="M12.2259 0.778933L9.0424 5.50333C8.92387 5.65573 8.95773 5.85893 9.11013 5.97747C9.2456 6.07907 9.43187 6.06213 9.5504 5.9436L12.6831 3.21733C12.7339 3.16653 12.8185 3.16653 12.8524 3.21733C12.8693 3.23427 12.8863 3.26813 12.8863 3.302V11.8195C12.8863 11.8872 12.8355 11.938 12.7508 11.938C12.7169 11.938 12.6831 11.9211 12.6492 11.8872L3.16653 0.541867C2.87867 0.220133 2.4384 0 1.94733 0H1.6256C0.728133 0 0 0.728133 0 1.6256V13.6144C0 14.5119 0.728133 15.24 1.6256 15.24C2.1844 15.24 2.70933 14.9521 3.01413 14.4611L6.1976 9.73667C6.31613 9.58427 6.28227 9.38107 6.12987 9.26253C5.9944 9.16093 5.80813 9.17787 5.6896 9.2964L2.55693 12.0057C2.50613 12.0565 2.42147 12.0565 2.3876 12.0057C2.37067 11.9888 2.35373 11.9549 2.35373 11.9211V3.4036C2.35373 3.33587 2.40453 3.28507 2.4892 3.28507C2.52307 3.28507 2.55693 3.302 2.5908 3.33587L12.0735 14.6812C12.3783 15.0537 12.8355 15.2569 13.3096 15.2569H13.6483C14.5457 15.2569 15.2569 14.5288 15.2569 13.6313V1.6256C15.24 0.728133 14.5119 0 13.6144 0C13.0556 0 12.5307 0.287867 12.2259 0.778933Z" fill="black"/>
</g>
</g>
<defs>
<clipPath id="clip0_913_89322">
<rect width="15.24" height="15.24" fill="white"/>
</clipPath>
</defs>
</svg>
