<svg width="251" height="251" viewBox="0 0 251 251" fill="none" xmlns="http://www.w3.org/2000/svg">
<path opacity="0.3" d="M125.5 250C194.48 250 250.399 194.259 250.399 125.5C250.399 56.7405 194.48 1 125.5 1C56.5202 1 0.601013 56.7405 0.601013 125.5C0.601013 194.259 56.5202 250 125.5 250Z" stroke="#B4B6B7" stroke-miterlimit="10"/>
<path opacity="0.5" d="M126.601 200.993C168.428 200.993 202.336 167.194 202.336 125.501C202.336 83.807 168.428 50.0076 126.601 50.0076C84.7739 50.0076 50.8662 83.807 50.8662 125.501C50.8662 167.194 84.7739 200.993 126.601 200.993Z" stroke="#B4B6B7" stroke-miterlimit="10"/>
<path d="M127.024 175.072C154.637 175.072 177.021 152.759 177.021 125.235C177.021 97.7105 154.637 75.3976 127.024 75.3976C99.4118 75.3976 77.0274 97.7105 77.0274 125.235C77.0274 152.759 99.4118 175.072 127.024 175.072Z" fill="#F2F2F2"/>
<path opacity="0.4" d="M126.602 224.367C181.379 224.367 225.784 180.103 225.784 125.501C225.784 70.8988 181.379 26.6349 126.602 26.6349C71.8243 26.6349 27.4186 70.8988 27.4186 125.501C27.4186 180.103 71.8243 224.367 126.602 224.367Z" stroke="#B4B6B7" stroke-miterlimit="10"/>
<path fill-rule="evenodd" clip-rule="evenodd" d="M135.896 126.871C142.171 126.871 147.256 121.801 147.256 115.547C147.256 109.292 142.171 104.222 135.896 104.222C129.621 104.222 124.535 109.292 124.535 115.547C124.535 121.801 129.621 126.871 135.896 126.871ZM151.388 115.547C151.388 124.077 144.453 130.989 135.896 130.989C127.338 130.989 120.404 124.077 120.404 115.547C120.404 107.016 127.338 100.104 135.896 100.104C144.453 100.104 151.388 107.016 151.388 115.547Z" fill="#999999"/>
<path fill-rule="evenodd" clip-rule="evenodd" d="M111.109 143.341C113.964 143.341 116.273 141.04 116.273 138.194C116.273 135.348 113.964 133.046 111.109 133.046C108.254 133.046 105.945 135.348 105.945 138.194C105.945 141.04 108.254 143.341 111.109 143.341ZM120.404 138.194C120.404 143.315 116.238 147.459 111.109 147.459C105.98 147.459 101.814 143.307 101.814 138.194C101.814 133.081 105.98 128.928 111.109 128.928C116.238 128.928 120.404 133.081 120.404 138.194Z" fill="#999999"/>
<path fill-rule="evenodd" clip-rule="evenodd" d="M138.638 146.421C140.235 146.421 141.181 145.245 141.181 144.215C141.181 143.186 140.243 142.009 138.638 142.009C137.032 142.009 136.095 143.186 136.095 144.215C136.095 145.245 137.032 146.421 138.638 146.421ZM145.312 144.215C145.312 147.71 142.326 150.539 138.638 150.539C134.949 150.539 131.964 147.71 131.964 144.215C131.964 140.72 134.949 137.891 138.638 137.891C142.326 137.891 145.312 140.72 145.312 144.215Z" fill="#999999"/>
</svg>
