<svg width="32" height="32" viewBox="0 0 32 32" fill="none" xmlns="http://www.w3.org/2000/svg">
<rect width="32" height="32" rx="16" fill="black"/>
<path d="M19.06 12.5869H13.5057C13.2697 12.5869 13.0784 12.7835 13.0784 13.026V18.7345C13.0784 18.977 13.2697 19.1736 13.5057 19.1736H19.06C19.296 19.1736 19.4873 18.977 19.4873 18.7345V13.026C19.4873 12.7835 19.296 12.5869 19.06 12.5869Z" fill="white"/>
<path d="M12.6484 6H7.09404C6.85808 6 6.66675 6.19655 6.66675 6.43914V12.1476C6.66675 12.3901 6.85808 12.5867 7.09404 12.5867H12.6484C12.8845 12.5867 13.0757 12.3901 13.0757 12.1476V6.43914C13.0757 6.19655 12.8845 6 12.6484 6Z" fill="white"/>
<path d="M25.4664 6H19.9119C19.6759 6 19.4846 6.19655 19.4846 6.43914V12.1476C19.4846 12.3901 19.6759 12.5867 19.9119 12.5867H25.4664C25.7023 12.5867 25.8936 12.3901 25.8936 12.1476V6.43914C25.8936 6.19655 25.7023 6 25.4664 6Z" fill="white"/>
<path d="M12.6484 19.1733H7.09404C6.85808 19.1733 6.66675 19.3699 6.66675 19.6124V25.3209C6.66675 25.5634 6.85808 25.7601 7.09404 25.7601H12.6484C12.8845 25.7601 13.0757 25.5634 13.0757 25.3209V19.6124C13.0757 19.3699 12.8845 19.1733 12.6484 19.1733Z" fill="white"/>
<path d="M25.4664 19.1733H19.9119C19.6759 19.1733 19.4846 19.3699 19.4846 19.6124V25.3209C19.4846 25.5634 19.6759 25.7601 19.9119 25.7601H25.4664C25.7023 25.7601 25.8936 25.5634 25.8936 25.3209V19.6124C25.8936 19.3699 25.7023 19.1733 25.4664 19.1733Z" fill="white"/>
</svg>
