 <svg width="32" height="32" viewBox="0 0 32 32" fill="none" xmlns="http://www.w3.org/2000/svg">
<path d="M32 16C32 24.8366 24.8366 32 16 32C7.16344 32 0 24.8366 0 16C0 7.16344 7.16344 0 16 0C24.8366 0 32 7.16344 32 16Z" fill="#010201"/>
<path d="M21.0905 15.1068C21.0905 15.8991 20.9086 16.6265 20.5449 17.2889C20.1812 17.9384 19.6227 18.4645 18.8693 18.8672C18.116 19.2698 17.1807 19.4712 16.0637 19.4712H13.9984V24.3811H10.6667V10.7034H16.0637C17.1548 10.7034 18.077 10.8918 18.8304 11.2685C19.5837 11.6452 20.1488 12.1648 20.5254 12.8272C20.9021 13.4897 21.0905 14.2495 21.0905 15.1068ZM15.8104 16.8214C16.4469 16.8214 16.921 16.672 17.2327 16.3732C17.5444 16.0745 17.7003 15.6523 17.7003 15.1068C17.7003 14.5612 17.5444 14.1391 17.2327 13.8404C16.921 13.5416 16.4469 13.3922 15.8104 13.3922H13.9984V16.8214H15.8104Z" fill="white"/>
<path d="M21.0905 7.2381H10.6667V9.4393H21.0905V7.2381Z" fill="#E50913"/>
</svg>
