<?xml version="1.0" encoding="UTF-8"?>
<svg id="Layer_1" data-name="Layer 1" xmlns="http://www.w3.org/2000/svg" xmlns:xlink="http://www.w3.org/1999/xlink" viewBox="0 0 100 100">
  <defs>
    <style>
      .cls-1, .cls-2, .cls-3 {
        stroke-width: 0px;
      }

      .cls-1, .cls-4 {
        fill: url(#linear-gradient);
      }

      .cls-2 {
        fill: #22143d;
      }

      .cls-3 {
        fill: url(#linear-gradient-2);
      }

      .cls-5 {
        clip-path: url(#clippath);
      }
    </style>
    <linearGradient id="linear-gradient" x1="33.2984892537" y1="38.2494468397" x2="66.7015107463" y2="38.2494468397" gradientUnits="userSpaceOnUse">
      <stop offset="0" stop-color="#a726c1"/>
      <stop offset=".125" stop-color="#a726c1"/>
      <stop offset=".140625" stop-color="#a627c2"/>
      <stop offset=".15625" stop-color="#a527c2"/>
      <stop offset=".171875" stop-color="#a427c3"/>
      <stop offset=".1875" stop-color="#a328c4"/>
      <stop offset=".203125" stop-color="#a328c4"/>
      <stop offset=".21875" stop-color="#a229c5"/>
      <stop offset=".234375" stop-color="#a129c6"/>
      <stop offset=".25" stop-color="#a02ac7"/>
      <stop offset=".265625" stop-color="#9f2ac7"/>
      <stop offset=".28125" stop-color="#9e2bc8"/>
      <stop offset=".296875" stop-color="#9d2bc9"/>
      <stop offset=".3125" stop-color="#9c2cc9"/>
      <stop offset=".328125" stop-color="#9c2cca"/>
      <stop offset=".34375" stop-color="#9b2dcb"/>
      <stop offset=".359375" stop-color="#9a2dcb"/>
      <stop offset=".375" stop-color="#992ecc"/>
      <stop offset=".390625" stop-color="#982ecd"/>
      <stop offset=".3933589935" stop-color="#972ecd"/>
      <stop offset=".40625" stop-color="#972fce"/>
      <stop offset=".421875" stop-color="#962fce"/>
      <stop offset=".4375" stop-color="#962fcf"/>
      <stop offset=".453125" stop-color="#9530cf"/>
      <stop offset=".46875" stop-color="#9430d0"/>
      <stop offset=".484375" stop-color="#9331d1"/>
      <stop offset=".5" stop-color="#9231d1"/>
      <stop offset=".515625" stop-color="#9132d2"/>
      <stop offset=".53125" stop-color="#9032d3"/>
      <stop offset=".546875" stop-color="#8f33d3"/>
      <stop offset=".5625" stop-color="#8f33d4"/>
      <stop offset=".578125" stop-color="#8e34d5"/>
      <stop offset=".59375" stop-color="#8d34d5"/>
      <stop offset=".6066410065" stop-color="#8c34d6"/>
      <stop offset=".609375" stop-color="#8c35d6"/>
      <stop offset=".625" stop-color="#8b35d7"/>
      <stop offset=".640625" stop-color="#8a35d7"/>
      <stop offset=".65625" stop-color="#8936d8"/>
      <stop offset=".671875" stop-color="#8936d9"/>
      <stop offset=".6875" stop-color="#8837d9"/>
      <stop offset=".703125" stop-color="#8737da"/>
      <stop offset=".71875" stop-color="#8638db"/>
      <stop offset=".734375" stop-color="#8538db"/>
      <stop offset=".75" stop-color="#8439dc"/>
      <stop offset=".765625" stop-color="#8339dd"/>
      <stop offset=".78125" stop-color="#823add"/>
      <stop offset=".796875" stop-color="#823ade"/>
      <stop offset=".8125" stop-color="#813bdf"/>
      <stop offset=".828125" stop-color="#803bdf"/>
      <stop offset=".84375" stop-color="#7f3ce0"/>
      <stop offset=".859375" stop-color="#7e3ce1"/>
      <stop offset=".875" stop-color="#7d3de2"/>
      <stop offset=".890625" stop-color="#7d3ee2"/>
      <stop offset=".90625" stop-color="#7c3ee3"/>
      <stop offset=".9375" stop-color="#7b3fe4"/>
      <stop offset="1" stop-color="#7b3fe4"/>
    </linearGradient>
    <clipPath id="clippath">
      <path class="cls-1" d="m58.0991291879,44.2921986475l7.9226788077-4.5740931357c.4192824147-.2422646699.6797027508-.6933195004.6797027508-1.1772814756v-9.1498883652c0-.4833946107-.2604203361-.9350168057-.6797027508-1.1772814756l-7.9226788077-4.5740931357c-.4192824147-.2422646699-.9401230868-.2416973054-1.3594055015,0l-7.9226788077,4.5740931357c-.4192824147.2422646699-.6797027508.6933195004-.6797027508,1.1772814756v16.3491773505l-5.5556338359,3.2067445303-5.5556338359-3.2067445303v-6.4151911543l5.5556338359-3.2067445303,3.6646077355,2.1145677396v-4.3028928729l-2.9849049848-1.7230861887c-.2059533377-.1185791944-.4414096328-.1815566613-.6797027508-.1815566613-.2388604825,0-.4737494131.0629774669-.6797027508.1815566613l-7.9238135368,4.5746605003c-.4187150501.2422646699-.6797027508.6933195004-.6797027508,1.1772814756v9.148753636c0,.4839619753.2609877006.9355841703.6797027508,1.1778488402l7.9232461722,4.5746605003c.4187150501.2411299408.9395557223.2411299408,1.3594055015,0l7.9226788077-4.5740931357c.4187150501-.2422646699.6797027508-.6938868649.6797027508-1.1778488402v-16.3491773505l.0998561637-.0573038212,5.4557776722-3.1494407091,5.5556338359,3.2078792594v6.4146237897l-5.5556338359,3.2078792594-3.6595014544-2.1122982814v4.3028928729l2.9797987037,1.721384095c.4187150501.2411299408.9401230868.2411299408,1.3594055015,0l.0005673646-.0022694583Z"/>
    </clipPath>
    <linearGradient id="linear-gradient-2" y1="38.2491986489" y2="38.2491986489" xlink:href="#linear-gradient"/>
  </defs>
  <g>
    <path class="cls-4" d="m58.0991291879,44.2921986475l7.9226788077-4.5740931357c.4192824147-.2422646699.6797027508-.6933195004.6797027508-1.1772814756v-9.1498883652c0-.4833946107-.2604203361-.9350168057-.6797027508-1.1772814756l-7.9226788077-4.5740931357c-.4192824147-.2422646699-.9401230868-.2416973054-1.3594055015,0l-7.9226788077,4.5740931357c-.4192824147.2422646699-.6797027508.6933195004-.6797027508,1.1772814756v16.3491773505l-5.5556338359,3.2067445303-5.5556338359-3.2067445303v-6.4151911543l5.5556338359-3.2067445303,3.6646077355,2.1145677396v-4.3028928729l-2.9849049848-1.7230861887c-.2059533377-.1185791944-.4414096328-.1815566613-.6797027508-.1815566613-.2388604825,0-.4737494131.0629774669-.6797027508.1815566613l-7.9238135368,4.5746605003c-.4187150501.2422646699-.6797027508.6933195004-.6797027508,1.1772814756v9.148753636c0,.4839619753.2609877006.9355841703.6797027508,1.1778488402l7.9232461722,4.5746605003c.4187150501.2411299408.9395557223.2411299408,1.3594055015,0l7.9226788077-4.5740931357c.4187150501-.2422646699.6797027508-.6938868649.6797027508-1.1778488402v-16.3491773505l.0998561637-.0573038212,5.4557776722-3.1494407091,5.5556338359,3.2078792594v6.4146237897l-5.5556338359,3.2078792594-3.6595014544-2.1122982814v4.3028928729l2.9797987037,1.721384095c.4187150501.2411299408.9401230868.2411299408,1.3594055015,0l.0005673646-.0022694583Z"/>
    <g class="cls-5">
      <path class="cls-3" d="m33.2984892537,23.3972963897v29.7038045185h33.4030214926v-29.7038045185h-33.4030214926Z"/>
    </g>
  </g>
  <g>
    <g>
      <path class="cls-2" d="m67.9421266659,73.4813940181c-.8609146976,0-1.5997514787-.1528627823-2.2175718906-.4564652527-.6178204118-.3046640175-1.1241783782-.7006210856-1.5190738992-1.1878712042-.3959570681-.4861885715-.6878825204-1.0169621212-.8747148099-1.5912591019-.1868322895-.5732354337-.2802484342-1.1294861137-.2802484342-1.6698135873v-.2866177168c0-.5912817343.0955392389-1.1761941861.2866177168-1.7547373552.192140025-.5774816221.4872501186-1.1018858891.8874533751-1.5710897071.4002032565-.470265365.9023150345-.8460530382,1.506335334-1.1284245666.6050818466-.2823715284,1.3195030445-.4246188397,2.1464482349-.4246188397.8609146976,0,1.6209824207.1613551591,2.2823262636.4830039302s1.1889327513.769621647,1.5848898193,1.3439186278c.3959570681.5732354337.6284358828,1.238825465.6974364443,1.9957085468h-2.1517559704c-.0605081847-.3832185029-.202755496-.7091134624-.4235572926-.9787464256-.2218633438-.2696329632-.5031733251-.4755731005-.8418068498-.6188819589-.3386335247-.1443704055-.7218520276-.2154940612-1.1475324144-.2154940612-.4267419339,0-.8046527013.0711236557-1.1347938492.2154940612-.331202695.1433088584-.6072049408.3492489957-.8290682846.6188819589s-.3906493326.5891586401-.5084810606.9585770307c-.117831728.3704799377-.1762168185.7812986651-.1762168185,1.2335177295,0,.4426651404.0583850905.8492376795.1762168185,1.2197176172.117831728.3694183906.2908639052.6910671617.5222811729.9649463133.2303557206.2738791516.5148503432.4819423831.8534838679.6263127886.3396950718.1433088584.726098216.2144325141,1.1613325267.2144325141.6613438429,0,1.2197176172-.160293612,1.6761828699-.4819423831s.7324674986-.7653754586.8280067375-1.3311800626h2.1400789523c-.0785544854.6963748972-.3110333001,1.3333031568-.6984979914,1.911846326-.3864031442.5774816221-.9129305055,1.0413777045-1.5785205368,1.388503606-.6645284842.3481874486-1.4543195261.5222811729-2.3672500316.5222811729Z"/>
      <path class="cls-2" d="m74.0078067917,73.2722692396v-9.6526477745h2.1390174052v9.6526477745h-2.1390174052Zm1.8778768188,0v-1.9957085468h1.7611066378c.4522190643,0,.8566685092-.0668774673,1.2133483346-.2016939489s.6581592016-.3269565066.9065612229-.5742969808c.2473404742-.2484020212.438418952-.5477583033.5732354337-.9001919403s.202755496-.7409598754.202755496-1.1677018093c0-.4426651404-.0679390144-.8386222085-.202755496-1.1868096571-.1348164816-.3471259015-.3258949595-.6432975422-.5732354337-.886391828-.2484020213-.2441558329-.5498813975-.4267419339-.9065612229-.5488198504-.3566798254-.1210163693-.7611292702-.1825861011-1.2133483346-.1825861011h-1.7611066378v-2.008447112h1.6570750221c.8609146976,0,1.6124900439.1263241048,2.2557875861.3779107674.6443590893.2526482096,1.1825634687.5965894698,1.6177977794,1.0307622335.4352343107.4352343107.759006176.9330999003.972377143,1.4935967688.2123094199.5604968685.3195256769,1.1507170557.3195256769,1.7674759204v.2866177168c0,.5827893575-.107216257,1.1528401499-.3195256769,1.70909083-.213370967.5573122272-.5371428323,1.0615470994-.972377143,1.5137661637s-.9734386901.8110219839-1.6177977794,1.0753472117c-.6432975422.2653867748-1.3948728886.3980801623-2.2557875861.3980801623h-1.6570750221Z"/>
      <path class="cls-2" d="m84.1954743043,73.2202534317v-9.5220774813h2.1390174052v9.5220774813h-2.1390174052Zm6.2482662268,0l-3.2748728015-4.4478823463h-1.3173799503l3.9914170936-5.074195135h2.4521737995l-3.5869676487,4.5519139621-.0254771304-.9256690706,4.3565892958,5.8958325899h-2.5954826579Z"/>
    </g>
    <path class="cls-2" d="m6.9607768109,76.3961234655v-10.2893920265h1.5309089498l.1458022712.8305444198h.0729001424c.4374028408-.5688838095,1.180726064-.9763452012,2.2156538297-.9763452012,1.894108583,0,3.4106997064,1.5452295074,3.4106997064,3.8324814074,0,2.2872514034-1.5152880582,3.8324811591-3.4106997064,3.8324811591-1.0206079529,0-1.7339904718-.4230830281-2.112812983-.9034453071h-.0729001424v3.6723744696h-1.7782509888l-.0013010788.0013010788Zm5.5964128318-6.601409825c0-1.3408476514-.860485869-2.1857121322-1.9097314609-2.1857121322-1.0492475783,0-1.9097334473.8448644808-1.9097334473,2.1857121322,0,1.340848148.860485869,2.1857121322,1.9097334473,2.1857121322,1.0492455919,0,1.9097314609-.8448639842,1.9097314609-2.1857121322Z"/>
    <path class="cls-2" d="m15.2388839523,69.793412065c0-2.2299731458,1.6025080133-3.8324814074,3.7452597142-3.8324814074,2.1427556736,0,3.745263687,1.6025082616,3.745263687,3.8324814074s-1.6025080133,3.8324811591-3.745263687,3.8324811591c-2.1427517009,0-3.7452597142-1.6181298981-3.7452597142-3.8324811591Zm5.6979506133,0c0-1.3122085225-.8748017089-2.1857121322-1.9526908991-2.1857121322-1.0778852174,0-1.9670087254.8748056817-1.9670087254,2.1857121322,0,1.3109059539.889123508,2.1713918229,1.9670087254,2.1713918229,1.0778891901,0,1.9526908991-.8591837969,1.9526908991-2.1713918229Z"/>
    <path class="cls-2" d="m24.0168794871,73.4813940181v-10.202155063h1.7782509888v10.202155063h-1.7782509888Z"/>
    <path class="cls-2" d="m32.3978294615,66.106731439h1.8941125557l-3.2063190919,8.9628517729c-.3202441678.8891374127-.7576450223,1.3265402535-1.9097334473,1.3265402535h-1.7196686727v-1.646782435h1.4580107937c.2629609442,0,.4074581638-.1314804721.4959831705-.3501818925l.1744399102-.480362279-3.001936491-7.81206542h1.894108583l1.9097334473,5.1160503045h.2916005696l1.7196686727-5.1160503045Z"/>
    <path class="cls-2" d="m34.6304052615,73.8458967166h1.8068906142c.0729001424.4803612858.5532624214,1.1364655471,1.6910330201,1.1364655471,1.0635634183,0,1.7639291897-.670424074,1.7639291897-1.6910300405v-1.0349257792h-.0729001424c-.3931403375.4230830281-1.1221457344.8019045461-2.0555337321.8019045461-1.894108583,0-3.3521193767-1.4580088074-3.3521193767-3.5565009844,0-2.0984916805,1.4580107937-3.540879348,3.3521193767-3.540879348.9763454495,0,1.6910290473.3931418273,2.1427517009.9477060724h.0729041152l.1458002848-.801905291h1.5452287625v7.1846007841c0,1.9527038105-1.3122105089,3.2505925203-3.5421801785,3.2505925203-2.4916354941,0-3.4536591446-1.6324626223-3.4979236343-2.6960280269Zm5.261852824-4.342784639c0-1.1507858564-.8162233656-1.9526908991-1.8511511312-1.9526908991s-1.8368293321.8019050427-1.8368293321,1.9526908991c0,1.1507853598.8162233656,1.9670107118,1.8368293321,1.9670107118s1.8511511312-.8019055393,1.8511511312-1.9670107118Z"/>
    <path class="cls-2" d="m42.9072133104,69.793412065c0-2.2299731458,1.6025080133-3.8324814074,3.7452597142-3.8324814074s3.7452597142,1.6025082616,3.7452597142,3.8324814074-1.6025080133,3.8324811591-3.7452597142,3.8324811591-3.7452597142-1.6181298981-3.7452597142-3.8324811591Zm5.6979506133,0c0-1.3122085225-.8748056817-2.1857121322-1.9526908991-2.1857121322s-1.9670087254.8748056817-1.9670087254,2.1857121322c0,1.3109059539.889123508,2.1713918229,1.9670087254,2.1713918229s1.9526908991-.8591837969,1.9526908991-2.1713918229Z"/>
    <path class="cls-2" d="m51.6357400401,73.4813940181v-7.3746625791h1.5296078709l.1458002848.6990634511h.0729001424c.2916005696-.334561001,1.0206099393-.8448642325,2.1271347821-.8448642325,1.6910290473,0,2.9147185223,1.2236862471,2.9147185223,3.089157191v4.4300040975h-1.7782549616v-4.196983361c0-.9477058241-.670419108-1.6324492142-1.588190187-1.6324492142-.9177631335,0-1.6467645576.714684591-1.6467645576,1.6324492142v4.196983361h-1.7782549616l.0013030652.001302072Z"/>
  </g>
</svg>