<svg width="32" height="32" viewBox="0 0 32 32" fill="none" xmlns="http://www.w3.org/2000/svg">
<g clip-path="url(#clip0_913_89122)">
<path d="M32 0H0V32H32V0Z" fill="black"/>
<mask id="mask0_913_89122" style="mask-type:luminance" maskUnits="userSpaceOnUse" x="5" y="6" width="22" height="19">
<path d="M26.3971 6.66669H5.33325V24.6667H26.3971V6.66669Z" fill="white"/>
</mask>
<g mask="url(#mask0_913_89122)">
<path d="M10.2814 20.3074L7.96729 24.3157H23.7171L21.403 20.3074H10.2814Z" fill="white"/>
<path d="M15.8427 10.6749L13.5286 6.66669L5.65332 20.3069H10.2814L15.8427 10.6749Z" fill="white"/>
<path d="M21.4023 20.3062H26.0282L18.1559 6.66669L15.8418 10.6749L21.4023 20.3062Z" fill="white"/>
<path d="M18.3471 17.1088C18.3481 17.6046 18.202 18.0894 17.9274 18.5021C17.6527 18.9148 17.2617 19.2367 16.804 19.427C16.3463 19.6174 15.8424 19.6677 15.3561 19.5716C14.8697 19.4754 14.4229 19.2372 14.0719 18.887C13.7211 18.5368 13.4821 18.0903 13.3851 17.6041C13.2881 17.118 13.3375 16.614 13.5271 16.1559C13.7167 15.6979 14.0378 15.3064 14.4501 15.031C14.8623 14.7555 15.3469 14.6086 15.8426 14.6088C16.506 14.6089 17.1423 14.8723 17.6118 15.3409C18.0813 15.8096 18.3458 16.4454 18.3471 17.1088Z" fill="white"/>
</g>
</g>
<defs>
<clipPath id="clip0_913_89122">
<rect width="32" height="32" rx="16" fill="white"/>
</clipPath>
</defs>
</svg>
