<?xml version="1.0" encoding="utf-8"?>
<!-- Generator: Adobe Illustrator 26.0.3, SVG Export Plug-In . SVG Version: 6.00 Build 0)  -->
<svg version="1.0" id="katman_1" xmlns="http://www.w3.org/2000/svg" xmlns:xlink="http://www.w3.org/1999/xlink" x="0px" y="0px"
	 viewBox="0 0 800 600" style="enable-background:new 0 0 800 600;" xml:space="preserve">
<style type="text/css">
	.st0{fill:#1D1D1B;}
</style>
<g>
	<g>
		<path class="st0" d="M88.1,219.5v160.2h148.3v-18H105.9V237.4h130.5v-18H88.1z"/>
		<path class="st0" d="M343.3,291l25-39.1h20.6l-29.6,46.5v2.5l31.3,46.4h-21.4l-25.8-39.1V291z"/>
		<path class="st0" d="M449.7,308.2h23.7l-10.6-47.3h-2.5L449.7,308.2z M477.4,326.1h-31.8l-4.7,21.1h-18.6l22.5-95.4h33.4
			l22.5,95.4h-18.6L477.4,326.1z"/>
		<path class="st0" d="M547.9,251.8h17.8v78.3h42.9v17.1h-60.6V251.8z"/>
		<path class="st0" d="M251.1,281.1c0-3.8-1.5-7.1-4.4-9.9c-2.9-2.8-7-4.2-12.4-4.2c-4.5,0-8,0.9-10.6,2.8c-2.6,1.9-3.9,4.4-3.9,7.5
			c0,1.7,0.3,3.1,1,4.5c0.7,1.3,1.7,2.5,3.3,3.6c1.6,1.1,3.6,2,6.2,2.8c2.5,0.8,5.8,1.6,9.7,2.3c9.9,1.8,17.4,4.9,22.7,9.1
			c5.2,4.3,7.9,10.6,7.9,18.9v1.7c0,4.5-0.8,8.4-2.4,12.1c-1.6,3.6-3.8,6.6-6.8,9.2c-2.9,2.6-6.5,4.5-10.8,5.9
			c-4.3,1.3-9,2.1-14.3,2.1c-6.2,0-11.6-0.9-16.4-2.6c-4.7-1.7-8.7-4.2-11.8-7.4c-3.1-3.1-5.6-6.8-7.1-11c-1.6-4.2-2.5-8.9-2.5-13.8
			v-0.8h17.8c0,5.7,1.6,10.3,4.9,13.7c3.3,3.4,8.3,5.1,15.3,5.1c5.4,0,9.4-1.2,12-3.6c2.6-2.4,3.9-5.2,3.9-8.4c0-1.6-0.2-3-0.8-4.5
			c-0.6-1.4-1.5-2.6-2.9-3.8c-1.3-1.2-3.2-2.2-5.6-3.1c-2.4-0.9-5.3-1.7-8.9-2.3c-4.7-0.8-9.1-1.9-13.1-3.2
			c-3.9-1.3-7.4-3.1-10.3-5.2c-2.9-2.2-5.2-4.9-6.8-8.2c-1.6-3.3-2.5-7.3-2.5-12v-0.8c0-3.9,0.8-7.5,2.4-10.8
			c1.6-3.3,3.8-6.2,6.6-8.7c2.9-2.5,6.2-4.4,10.2-5.7c4-1.3,8.4-2.1,13.4-2.1c5.6,0,10.5,0.8,14.8,2.4c4.3,1.6,7.9,3.7,10.9,6.5
			c2.9,2.7,4.9,6,6.6,9.4c2.1,4.2,2.2,12.8,2.2,12.8L251.1,281.1z"/>
		<path class="st0" d="M650,251.8v95.4h61.2v-17.1h-43.4v-61.1h43.4v-17.2H650z"/>
		<path class="st0" d="M330.6,251.8h-17.8v95.4h17.8V251.8z"/>
		<path class="st0" d="M697.6,291h-17v17.2h17V291z"/>
	</g>
</g>
</svg>
