<svg width="32" height="32" viewBox="0 0 32 32" fill="none" xmlns="http://www.w3.org/2000/svg">
<circle cx="16" cy="16" r="16" fill="black"/>
<g clip-path="url(#clip0_1754_90507)">
<path d="M23.9176 20.2557L21.2763 23.0458C21.2189 23.1065 21.1494 23.1548 21.0722 23.1878C20.995 23.2208 20.9118 23.2379 20.8276 23.2378H8.30663C8.24689 23.2378 8.18845 23.2206 8.13849 23.1884C8.08853 23.1561 8.04923 23.1101 8.02541 23.0562C8.0016 23.0022 7.99431 22.9426 8.00444 22.8846C8.01457 22.8266 8.04168 22.7727 8.08244 22.7297L10.7257 19.9395C10.783 19.8791 10.8522 19.8309 10.9292 19.7978C11.0061 19.7648 11.0891 19.7477 11.1731 19.7476H23.6934C23.7531 19.7476 23.8116 19.7648 23.8615 19.797C23.9114 19.8293 23.9507 19.8753 23.9747 19.9292C23.9984 19.9832 24.0057 20.0428 23.9956 20.1008C23.9854 20.1588 23.9583 20.2126 23.9176 20.2557ZM21.2763 14.637C21.2189 14.5764 21.1494 14.5281 21.0722 14.4951C20.995 14.4621 20.9118 14.445 20.8276 14.4451H8.30663C8.24689 14.4451 8.18845 14.4623 8.13849 14.4945C8.08853 14.5268 8.04923 14.5728 8.02541 14.6267C8.0016 14.6807 7.99431 14.7403 8.00444 14.7983C8.01457 14.8563 8.04168 14.9101 8.08244 14.9532L10.7257 17.7434C10.783 17.8038 10.8522 17.852 10.9292 17.8851C11.0061 17.9181 11.0891 17.9352 11.1731 17.9353H23.6934C23.7531 17.9353 23.8116 17.9181 23.8615 17.8859C23.9114 17.8536 23.9507 17.8076 23.9747 17.7537C23.9984 17.6997 24.0057 17.6401 23.9956 17.5821C23.9854 17.5241 23.9583 17.4703 23.9176 17.4272L21.2763 14.637ZM8.30663 12.6328H20.8276C20.9118 12.6329 20.995 12.6159 21.0722 12.5828C21.1494 12.5498 21.2189 12.5015 21.2763 12.4409L23.9176 9.65068C23.9583 9.60765 23.9854 9.55384 23.9956 9.49584C24.0057 9.43784 23.9984 9.3782 23.9747 9.32423C23.9507 9.27026 23.9114 9.22431 23.8615 9.19204C23.8116 9.15977 23.7531 9.14258 23.6934 9.14258H11.1731C11.0891 9.14272 11.0061 9.15983 10.9292 9.19285C10.8522 9.22587 10.783 9.27409 10.7257 9.33454L8.08312 12.1247C8.0424 12.1677 8.01531 12.2215 8.00515 12.2794C7.995 12.3373 8.00223 12.3969 8.02596 12.4509C8.04969 12.5048 8.08888 12.5508 8.13874 12.5831C8.1886 12.6154 8.24695 12.6327 8.30663 12.6328Z" fill="url(#paint0_linear_1754_90507)"/>
</g>
<defs>
<linearGradient id="paint0_linear_1754_90507" x1="9.35059" y1="23.5737" x2="22.2592" y2="8.80036" gradientUnits="userSpaceOnUse">
<stop offset="0.08" stop-color="#9945FF"/>
<stop offset="0.3" stop-color="#8752F3"/>
<stop offset="0.5" stop-color="#5497D5"/>
<stop offset="0.6" stop-color="#43B4CA"/>
<stop offset="0.72" stop-color="#28E0B9"/>
<stop offset="0.97" stop-color="#19FB9B"/>
</linearGradient>
<clipPath id="clip0_1754_90507">
<rect width="16" height="14.0952" fill="white" transform="translate(8 9.14258)"/>
</clipPath>
</defs>
</svg>
