<svg width="32" height="32" viewBox="0 0 32 32" fill="none" xmlns="http://www.w3.org/2000/svg">
<circle cx="16" cy="16" r="16" fill="#5546FF"/>
<g clip-path="url(#clip0_1559_88404)">
<path d="M17.9119 14.3383L20.5245 10.5568L20.6329 10.4H20.4422H19.291H19.2387L19.2088 10.4431L16.1863 14.8059L13.1637 10.4431L13.1339 10.4H13.0815H11.9303H11.7396L11.848 10.5568L14.4607 14.3383H10.5H10.4V14.4383V15.3889V15.4889H10.5H15.9072H16.4653H21.9074H22.0074V15.3889V14.4383V14.3383H21.9074H17.9119Z" fill="white" stroke="white" stroke-width="0.2"/>
<path d="M10.5 16.5787H10.4V16.6787V17.5954V17.6954H10.5H14.4988L11.9868 21.444L11.8824 21.5997H12.0698H13.221H13.2745L13.3042 21.5552L16.1877 17.2303L19.1739 21.5565L19.2037 21.5997H19.2562H20.4073H20.5975L20.4897 21.443L17.9114 17.6954H21.9074H22.0074V17.5954V16.6787V16.5787H21.9074H16.4653H15.9072H10.5Z" fill="white" stroke="white" stroke-width="0.2"/>
</g>
<defs>
<clipPath id="clip0_1559_88404">
<rect width="11.4074" height="11" fill="white" transform="translate(10.5 10.5)"/>
</clipPath>
</defs>
</svg>
