<?xml version="1.0" standalone="no"?>
<!DOCTYPE svg PUBLIC "-//W3C//DTD SVG 20010904//EN"
 "http://www.w3.org/TR/2001/REC-SVG-20010904/DTD/svg10.dtd">
<svg version="1.0" xmlns="http://www.w3.org/2000/svg"
 width="64.000000pt" height="60.000000pt" viewBox="0 0 64.000000 60.000000"
 preserveAspectRatio="xMidYMid meet">

<g transform="translate(0.000000,60.000000) scale(0.100000,-0.100000)"
fill="#000000" stroke="none">
<path d="M130 455 c0 -23 3 -25 48 -25 49 0 137 24 148 41 3 5 -38 9 -95 9
l-101 0 0 -25z"/>
<path d="M375 470 c-16 -26 -97 -61 -168 -72 l-77 -12 0 -48 c0 -34 5 -50 15
-54 29 -12 82 7 148 50 69 46 136 67 182 59 24 -5 25 -3 25 41 l0 46 -59 0
c-33 0 -63 -4 -66 -10z"/>
<path d="M370 342 c-19 -10 -62 -35 -94 -55 -45 -28 -71 -37 -103 -37 l-43 0
0 -70 0 -70 185 0 186 0 -3 123 -3 122 -45 3 c-29 2 -57 -4 -80 -16z"/>
</g>
</svg>
