<svg width="32" height="32" viewBox="0 0 32 32" fill="none" xmlns="http://www.w3.org/2000/svg">
<circle cx="16" cy="16" r="16" fill="#2D7DF8"/>
<g clip-path="url(#clip0_913_89292)">
<path d="M17.8486 24.2412C16.7111 24.2412 15.8826 23.969 15.3621 23.4245C14.8421 22.8802 14.5818 22.2932 14.5818 21.6642C14.5818 21.4342 14.6271 21.2407 14.7178 21.0835C14.8064 20.9283 14.9349 20.7998 15.0901 20.7112C15.2473 20.6205 15.4408 20.5752 15.6708 20.5752C15.9008 20.5752 16.0941 20.6205 16.2516 20.7112C16.4088 20.802 16.5328 20.9262 16.6236 21.0835C16.7143 21.2407 16.7596 21.4342 16.7596 21.6642C16.7596 21.9425 16.6931 22.1692 16.5601 22.3447C16.4268 22.5202 16.2696 22.635 16.0881 22.6897C16.2456 22.9072 16.4936 23.0615 16.8323 23.1522C17.1711 23.2492 17.5098 23.2975 17.8486 23.2975C18.3203 23.2975 18.7468 23.1705 19.1281 22.9165C19.5091 22.6622 19.7906 22.2872 19.9721 21.7912C20.1536 21.2952 20.2443 20.7325 20.2443 20.1032C20.2443 19.4197 20.1443 18.8357 19.9448 18.352C19.7511 17.862 19.4638 17.499 19.0826 17.263C18.7131 17.0304 18.2851 16.9078 17.8486 16.9092C17.5581 16.9092 17.1953 17.0302 16.7596 17.2722L15.9611 17.6715V17.2722L19.5546 12.481H14.5818V17.4535C14.5818 17.865 14.6726 18.2037 14.8541 18.47C15.0356 18.7362 15.3138 18.8692 15.6891 18.8692C15.9791 18.8692 16.2576 18.7725 16.5238 18.5787C16.7918 18.3833 17.0249 18.1441 17.2133 17.8712C17.2376 17.8165 17.2678 17.7772 17.3041 17.753C17.3367 17.7242 17.3786 17.7081 17.4221 17.7077C17.4886 17.7077 17.5671 17.741 17.6581 17.8077C17.7428 17.9042 17.7851 18.0162 17.7851 18.1432C17.7747 18.2287 17.7595 18.3136 17.7396 18.3975C17.5341 18.8572 17.2496 19.208 16.8866 19.45C16.5332 19.689 16.1157 19.8156 15.6891 19.813C14.6121 19.813 13.8678 19.6012 13.4566 19.178C13.0453 18.7542 12.8396 18.1795 12.8396 17.4537V12.481H10.2986V11.5552H12.8396V9.45021L12.2588 8.86896V8.39746H13.9466L14.5816 8.72396V11.5552L21.1516 11.5372L21.8051 12.1905L17.7761 16.2195C18.02 16.1222 18.2768 16.0611 18.5383 16.038C18.9738 16.038 19.4638 16.1772 20.0083 16.4555C20.5588 16.7277 20.9823 17.103 21.2786 17.5805C21.5751 18.0525 21.7656 18.5062 21.8503 18.9417C21.9411 19.3775 21.9866 19.7645 21.9866 20.1032C21.9866 20.8777 21.8231 21.5975 21.4966 22.2632C21.1698 22.9285 20.6738 23.4245 20.0083 23.7512C19.3428 24.078 18.6228 24.2412 17.8486 24.2412Z" fill="white"/>
</g>
<defs>
<clipPath id="clip0_913_89292">
<rect width="11.75" height="16" fill="white" transform="translate(10.2856 8.38086)"/>
</clipPath>
</defs>
</svg>
