<svg width="32" height="32" viewBox="0 0 32 32" fill="none" xmlns="http://www.w3.org/2000/svg">
<g clip-path="url(#clip0_1559_88325)">
<path d="M16 32C24.8366 32 32 24.8366 32 16C32 7.16344 24.8366 0 16 0C7.16344 0 0 7.16344 0 16C0 24.8366 7.16344 32 16 32Z" fill="#0088CC"/>
<path fill-rule="evenodd" clip-rule="evenodd" d="M11.5479 10.5738L20.5218 10.5737C20.8393 10.5737 21.1566 10.6204 21.4881 10.7749C21.8855 10.9602 22.0963 11.2522 22.2439 11.4681C22.2554 11.4849 22.2662 11.5022 22.2761 11.52C22.4497 11.829 22.5392 12.1626 22.5392 12.5216C22.5392 12.8626 22.4581 13.2341 22.2761 13.558C22.2744 13.5611 22.2726 13.5641 22.2709 13.5672L16.6013 23.3064C16.4762 23.5212 16.2461 23.6529 15.9976 23.652C15.7491 23.6512 15.5199 23.5177 15.3964 23.3021L9.83091 13.5837C9.82931 13.5811 9.82771 13.5785 9.82611 13.5758C9.69874 13.3659 9.50177 13.0413 9.46731 12.6225C9.43566 12.2373 9.52223 11.8513 9.71577 11.5167C9.90931 11.182 10.2007 10.9145 10.5511 10.7507C10.9269 10.5751 11.3077 10.5738 11.5479 10.5738ZM15.3044 11.965H11.5479C11.3011 11.965 11.2063 11.9802 11.1401 12.0112C11.0485 12.054 10.9716 12.1243 10.9202 12.2132C10.8687 12.3022 10.8455 12.4053 10.8539 12.5085C10.8588 12.5676 10.8829 12.6353 11.0251 12.8698C11.0281 12.8748 11.031 12.8797 11.0339 12.8847L15.3044 20.3418V11.965ZM16.6957 11.965V20.3786L21.0651 12.8729C21.1145 12.7833 21.1479 12.6538 21.1479 12.5216C21.1479 12.4143 21.1257 12.3212 21.0759 12.2252C21.0238 12.1501 20.992 12.1104 20.9654 12.0832C20.9426 12.06 20.9251 12.0475 20.9003 12.036C20.797 11.9878 20.6913 11.965 20.5218 11.965H16.6957Z" fill="white"/>
</g>
<defs>
<clipPath id="clip0_1559_88325">
<rect width="32" height="32" fill="white"/>
</clipPath>
</defs>
</svg>
