<svg width="21" height="20" viewBox="0 0 21 20" fill="none" xmlns="http://www.w3.org/2000/svg">
<path d="M10.8333 7.61927C11.3 7.4974 11.6641 7.13281 11.7859 6.66667H18.8333C19.7531 6.66563 20.499 5.91979 20.5 5V1.66667C20.499 0.746875 19.7531 0.00104167 18.8333 0H2.16667C1.24687 0.00104167 0.501042 0.746875 0.5 1.66667V5C0.501042 5.91979 1.24687 6.66563 2.16667 6.66667H9.21406C9.33594 7.13333 9.70052 7.4974 10.1667 7.61927V12H10.8333V7.61927ZM10.5 6.99948C10.1318 6.99948 9.83333 6.70104 9.83333 6.33281C9.83333 5.96458 10.1318 5.66615 10.5 5.66615C10.8682 5.66615 11.1667 5.96458 11.1667 6.33281C11.1667 6.70104 10.8682 6.99948 10.5 6.99948ZM19.8333 4.99948C19.8333 5.55208 19.3859 5.99948 18.8333 5.99948H11.7859C11.6359 5.41146 11.1068 5 10.5 5C9.89323 5 9.36354 5.41146 9.21406 5.99948H2.16667C1.61406 5.99948 1.16667 5.55208 1.16667 4.99948V1.66667C1.16667 1.11406 1.61406 0.666667 2.16667 0.666667H18.8333C19.3854 0.666667 19.8333 1.11406 19.8333 1.66667V5V4.99948Z" fill="#AF39AF"/>
<path d="M13.5002 1.66683C13.5002 1.8512 13.3507 2.00016 13.1668 2.00016C12.983 2.00016 12.8335 1.8512 12.8335 1.66683C12.8335 1.48245 12.9825 1.3335 13.1668 1.3335C13.3512 1.3335 13.5002 1.48245 13.5002 1.66683Z" fill="#AF39AF"/>
<path d="M12.1667 1.66683C12.1667 1.8512 12.0172 2.00016 11.8333 2.00016C11.6495 2.00016 11.5 1.8512 11.5 1.66683C11.5 1.48245 11.6495 1.3335 11.8333 1.3335C12.0172 1.3335 12.1667 1.48245 12.1667 1.66683Z" fill="#AF39AF"/>
<path d="M14.8332 1.66683C14.8332 1.8512 14.6842 2.00016 14.4998 2.00016C14.3155 2.00016 14.1665 1.8512 14.1665 1.66683C14.1665 1.48245 14.316 1.3335 14.4998 1.3335C14.6837 1.3335 14.8332 1.48245 14.8332 1.66683Z" fill="#AF39AF"/>
<path d="M16.1667 1.66683C16.1667 1.8512 16.0172 2.00016 15.8333 2.00016C15.6495 2.00016 15.5 1.8512 15.5 1.66683C15.5 1.48245 15.6495 1.3335 15.8333 1.3335C16.0172 1.3335 16.1667 1.48245 16.1667 1.66683Z" fill="#AF39AF"/>
<path d="M17.5002 1.66683C17.5002 1.8512 17.3512 2.00016 17.1668 2.00016C16.9825 2.00016 16.8335 1.8512 16.8335 1.66683C16.8335 1.48245 16.9825 1.3335 17.1668 1.3335C17.3512 1.3335 17.5002 1.48245 17.5002 1.66683Z" fill="#AF39AF"/>
<path d="M14.1667 2.66683C14.1667 2.8512 14.0177 3.00016 13.8333 3.00016C13.649 3.00016 13.5 2.85068 13.5 2.66683C13.5 2.48298 13.649 2.3335 13.8333 2.3335C14.0177 2.3335 14.1667 2.48245 14.1667 2.66683Z" fill="#AF39AF"/>
<path d="M12.8332 2.66683C12.8332 2.8512 12.6837 3.00016 12.4998 3.00016C12.316 3.00016 12.1665 2.85068 12.1665 2.66683C12.1665 2.48298 12.316 2.3335 12.4998 2.3335C12.6837 2.3335 12.8332 2.48245 12.8332 2.66683Z" fill="#AF39AF"/>
<path d="M15.5002 2.66683C15.5002 2.8512 15.3507 3.00016 15.1668 3.00016C14.983 3.00016 14.8335 2.85068 14.8335 2.66683C14.8335 2.48298 14.983 2.3335 15.1668 2.3335C15.3507 2.3335 15.5002 2.48245 15.5002 2.66683Z" fill="#AF39AF"/>
<path d="M16.8332 2.66683C16.8332 2.8512 16.6837 3.00016 16.4998 3.00016C16.316 3.00016 16.1665 2.85068 16.1665 2.66683C16.1665 2.48298 16.3155 2.3335 16.4998 2.3335C16.6842 2.3335 16.8332 2.48245 16.8332 2.66683Z" fill="#AF39AF"/>
<path d="M18.1667 2.66683C18.1667 2.8512 18.0177 3.00016 17.8333 3.00016C17.649 3.00016 17.5 2.85068 17.5 2.66683C17.5 2.48298 17.6495 2.3335 17.8333 2.3335C18.0172 2.3335 18.1667 2.48245 18.1667 2.66683Z" fill="#AF39AF"/>
<path d="M18.8332 1.66683C18.8332 1.8512 18.6837 2.00016 18.4998 2.00016C18.316 2.00016 18.1665 1.8512 18.1665 1.66683C18.1665 1.48245 18.316 1.3335 18.4998 1.3335C18.6837 1.3335 18.8332 1.48245 18.8332 1.66683Z" fill="#AF39AF"/>
<path d="M13.5002 3.66683C13.5002 3.8512 13.3507 4.00016 13.1668 4.00016C12.983 4.00016 12.8335 3.85068 12.8335 3.66683C12.8335 3.48298 12.9825 3.3335 13.1668 3.3335C13.3512 3.3335 13.5002 3.48298 13.5002 3.66683Z" fill="#AF39AF"/>
<path d="M12.1667 3.66683C12.1667 3.8512 12.0172 4.00016 11.8333 4.00016C11.6495 4.00016 11.5 3.85068 11.5 3.66683C11.5 3.48298 11.6495 3.3335 11.8333 3.3335C12.0172 3.3335 12.1667 3.48298 12.1667 3.66683Z" fill="#AF39AF"/>
<path d="M14.8332 3.66683C14.8332 3.8512 14.6842 4.00016 14.4998 4.00016C14.3155 4.00016 14.1665 3.85068 14.1665 3.66683C14.1665 3.48298 14.316 3.3335 14.4998 3.3335C14.6837 3.3335 14.8332 3.48298 14.8332 3.66683Z" fill="#AF39AF"/>
<path d="M16.1667 3.66683C16.1667 3.8512 16.0172 4.00016 15.8333 4.00016C15.6495 4.00016 15.5 3.85068 15.5 3.66683C15.5 3.48298 15.6495 3.3335 15.8333 3.3335C16.0172 3.3335 16.1667 3.48298 16.1667 3.66683Z" fill="#AF39AF"/>
<path d="M17.5002 3.66683C17.5002 3.8512 17.3512 4.00016 17.1668 4.00016C16.9825 4.00016 16.8335 3.85068 16.8335 3.66683C16.8335 3.48298 16.9825 3.3335 17.1668 3.3335C17.3512 3.3335 17.5002 3.48298 17.5002 3.66683Z" fill="#AF39AF"/>
<path d="M14.1667 4.66683C14.1667 4.85068 14.0177 5.00016 13.8333 5.00016C13.649 5.00016 13.5 4.85068 13.5 4.66683C13.5 4.48298 13.649 4.3335 13.8333 4.3335C14.0177 4.3335 14.1667 4.48298 14.1667 4.66683Z" fill="#AF39AF"/>
<path d="M12.8332 4.66683C12.8332 4.85068 12.6837 5.00016 12.4998 5.00016C12.316 5.00016 12.1665 4.85068 12.1665 4.66683C12.1665 4.48298 12.316 4.3335 12.4998 4.3335C12.6837 4.3335 12.8332 4.48298 12.8332 4.66683Z" fill="#AF39AF"/>
<path d="M15.5002 4.66683C15.5002 4.85068 15.3507 5.00016 15.1668 5.00016C14.983 5.00016 14.8335 4.85068 14.8335 4.66683C14.8335 4.48298 14.983 4.3335 15.1668 4.3335C15.3507 4.3335 15.5002 4.48298 15.5002 4.66683Z" fill="#AF39AF"/>
<path d="M16.8332 4.66683C16.8332 4.85068 16.6837 5.00016 16.4998 5.00016C16.316 5.00016 16.1665 4.85068 16.1665 4.66683C16.1665 4.48298 16.3155 4.3335 16.4998 4.3335C16.6842 4.3335 16.8332 4.48298 16.8332 4.66683Z" fill="#AF39AF"/>
<path d="M18.1667 4.66683C18.1667 4.85068 18.0177 5.00016 17.8333 5.00016C17.649 5.00016 17.5 4.85068 17.5 4.66683C17.5 4.48298 17.6495 4.3335 17.8333 4.3335C18.0172 4.3335 18.1667 4.48298 18.1667 4.66683Z" fill="#AF39AF"/>
<path d="M18.8332 3.66683C18.8332 3.8512 18.6837 4.00016 18.4998 4.00016C18.316 4.00016 18.1665 3.85068 18.1665 3.66683C18.1665 3.48298 18.316 3.3335 18.4998 3.3335C18.6837 3.3335 18.8332 3.48298 18.8332 3.66683Z" fill="#AF39AF"/>
<path d="M3.49984 2C2.76338 2 2.1665 2.59687 2.1665 3.33333C2.1665 4.06979 2.76338 4.66667 3.49984 4.66667C4.2363 4.66667 4.83317 4.06979 4.83317 3.33333C4.83317 2.97969 4.69307 2.64062 4.44255 2.39062C4.19255 2.14062 3.85348 2 3.49984 2ZM3.49984 4C3.13161 4 2.83317 3.70156 2.83317 3.33333C2.83317 2.9651 3.13161 2.66667 3.49984 2.66667C3.86807 2.66667 4.1665 2.9651 4.1665 3.33333C4.1665 3.70156 3.86807 4 3.49984 4Z" fill="#AF39AF"/>
<path d="M6.83333 2C6.09687 2 5.5 2.59687 5.5 3.33333C5.5 4.06979 6.09687 4.66667 6.83333 4.66667C7.56979 4.66667 8.16667 4.06979 8.16667 3.33333C8.16667 2.97969 8.02604 2.64062 7.77604 2.39062C7.52604 2.14062 7.18698 2 6.83333 2ZM6.83333 4C6.4651 4 6.16667 3.70156 6.16667 3.33333C6.16667 2.9651 6.4651 2.66667 6.83333 2.66667C7.20156 2.66667 7.5 2.9651 7.5 3.33333C7.5 3.70156 7.20156 4 6.83333 4Z" fill="#AF39AF"/>
<path d="M13.1668 12H7.8335C7.28141 12 6.8335 12.4479 6.8335 13V17.6667C6.8335 18.2188 7.28141 18.6667 7.8335 18.6667H8.88923L8.6111 19.3333H8.16683C7.98298 19.3333 7.8335 19.4828 7.8335 19.6667C7.8335 19.8505 7.98298 20 8.16683 20H12.8335C13.0174 20 13.1668 19.8505 13.1668 19.6667C13.1668 19.4828 13.0174 19.3333 12.8335 19.3333H12.3892L12.1111 18.6667H13.1668C13.7189 18.6667 14.1668 18.2188 14.1668 17.6667V13C14.1668 12.4479 13.7189 12 13.1668 12ZM9.3335 19.3333L9.6111 18.6667H11.3892L11.6668 19.3333H9.3335ZM13.5002 17.6667C13.5002 17.8505 13.3507 18 13.1668 18H7.8335C7.64912 18 7.50016 17.8505 7.50016 17.6667V17.3333H13.5002V17.6667ZM13.5002 16.6667H7.50016V13C7.50016 12.8161 7.64912 12.6667 7.8335 12.6667H13.1668C13.3507 12.6667 13.5002 12.8161 13.5002 13V16.6667Z" fill="#AF39AF"/>
</svg>
