<svg width="20" height="20" viewBox="0 0 20 20" fill="none" xmlns="http://www.w3.org/2000/svg">
<path d="M10.3333 7.61927C10.8 7.4974 11.1641 7.13281 11.2859 6.66667H18.3333C19.2531 6.66563 19.999 5.91979 20 5V1.66667C19.999 0.746875 19.2531 0.00104167 18.3333 0H1.66667C0.746875 0.00104167 0.00104167 0.746875 0 1.66667V5C0.00104167 5.91979 0.746875 6.66563 1.66667 6.66667H8.71406C8.83594 7.13333 9.20052 7.4974 9.66667 7.61927V12H10.3333V7.61927ZM10 6.99948C9.63177 6.99948 9.33333 6.70104 9.33333 6.33281C9.33333 5.96458 9.63177 5.66615 10 5.66615C10.3682 5.66615 10.6667 5.96458 10.6667 6.33281C10.6667 6.70104 10.3682 6.99948 10 6.99948ZM19.3333 4.99948C19.3333 5.55208 18.8859 5.99948 18.3333 5.99948H11.2859C11.1359 5.41146 10.6068 5 10 5C9.39323 5 8.86354 5.41146 8.71406 5.99948H1.66667C1.11406 5.99948 0.666667 5.55208 0.666667 4.99948V1.66667C0.666667 1.11406 1.11406 0.666667 1.66667 0.666667H18.3333C18.8854 0.666667 19.3333 1.11406 19.3333 1.66667V5V4.99948Z" fill="white"/>
<path d="M13.0002 1.66683C13.0002 1.8512 12.8507 2.00016 12.6668 2.00016C12.483 2.00016 12.3335 1.8512 12.3335 1.66683C12.3335 1.48245 12.4825 1.3335 12.6668 1.3335C12.8512 1.3335 13.0002 1.48245 13.0002 1.66683Z" fill="white"/>
<path d="M11.6667 1.66683C11.6667 1.8512 11.5172 2.00016 11.3333 2.00016C11.1495 2.00016 11 1.8512 11 1.66683C11 1.48245 11.1495 1.3335 11.3333 1.3335C11.5172 1.3335 11.6667 1.48245 11.6667 1.66683Z" fill="white"/>
<path d="M14.3332 1.66683C14.3332 1.8512 14.1842 2.00016 13.9998 2.00016C13.8155 2.00016 13.6665 1.8512 13.6665 1.66683C13.6665 1.48245 13.816 1.3335 13.9998 1.3335C14.1837 1.3335 14.3332 1.48245 14.3332 1.66683Z" fill="white"/>
<path d="M15.6667 1.66683C15.6667 1.8512 15.5172 2.00016 15.3333 2.00016C15.1495 2.00016 15 1.8512 15 1.66683C15 1.48245 15.1495 1.3335 15.3333 1.3335C15.5172 1.3335 15.6667 1.48245 15.6667 1.66683Z" fill="white"/>
<path d="M17.0002 1.66683C17.0002 1.8512 16.8512 2.00016 16.6668 2.00016C16.4825 2.00016 16.3335 1.8512 16.3335 1.66683C16.3335 1.48245 16.4825 1.3335 16.6668 1.3335C16.8512 1.3335 17.0002 1.48245 17.0002 1.66683Z" fill="white"/>
<path d="M13.6667 2.66683C13.6667 2.8512 13.5177 3.00016 13.3333 3.00016C13.149 3.00016 13 2.85068 13 2.66683C13 2.48298 13.149 2.3335 13.3333 2.3335C13.5177 2.3335 13.6667 2.48245 13.6667 2.66683Z" fill="white"/>
<path d="M12.3332 2.66683C12.3332 2.8512 12.1837 3.00016 11.9998 3.00016C11.816 3.00016 11.6665 2.85068 11.6665 2.66683C11.6665 2.48298 11.816 2.3335 11.9998 2.3335C12.1837 2.3335 12.3332 2.48245 12.3332 2.66683Z" fill="white"/>
<path d="M15.0002 2.66683C15.0002 2.8512 14.8507 3.00016 14.6668 3.00016C14.483 3.00016 14.3335 2.85068 14.3335 2.66683C14.3335 2.48298 14.483 2.3335 14.6668 2.3335C14.8507 2.3335 15.0002 2.48245 15.0002 2.66683Z" fill="white"/>
<path d="M16.3332 2.66683C16.3332 2.8512 16.1837 3.00016 15.9998 3.00016C15.816 3.00016 15.6665 2.85068 15.6665 2.66683C15.6665 2.48298 15.8155 2.3335 15.9998 2.3335C16.1842 2.3335 16.3332 2.48245 16.3332 2.66683Z" fill="white"/>
<path d="M17.6667 2.66683C17.6667 2.8512 17.5177 3.00016 17.3333 3.00016C17.149 3.00016 17 2.85068 17 2.66683C17 2.48298 17.1495 2.3335 17.3333 2.3335C17.5172 2.3335 17.6667 2.48245 17.6667 2.66683Z" fill="white"/>
<path d="M18.3332 1.66683C18.3332 1.8512 18.1837 2.00016 17.9998 2.00016C17.816 2.00016 17.6665 1.8512 17.6665 1.66683C17.6665 1.48245 17.816 1.3335 17.9998 1.3335C18.1837 1.3335 18.3332 1.48245 18.3332 1.66683Z" fill="white"/>
<path d="M13.0002 3.66683C13.0002 3.8512 12.8507 4.00016 12.6668 4.00016C12.483 4.00016 12.3335 3.85068 12.3335 3.66683C12.3335 3.48298 12.4825 3.3335 12.6668 3.3335C12.8512 3.3335 13.0002 3.48298 13.0002 3.66683Z" fill="white"/>
<path d="M11.6667 3.66683C11.6667 3.8512 11.5172 4.00016 11.3333 4.00016C11.1495 4.00016 11 3.85068 11 3.66683C11 3.48298 11.1495 3.3335 11.3333 3.3335C11.5172 3.3335 11.6667 3.48298 11.6667 3.66683Z" fill="white"/>
<path d="M14.3332 3.66683C14.3332 3.8512 14.1842 4.00016 13.9998 4.00016C13.8155 4.00016 13.6665 3.85068 13.6665 3.66683C13.6665 3.48298 13.816 3.3335 13.9998 3.3335C14.1837 3.3335 14.3332 3.48298 14.3332 3.66683Z" fill="white"/>
<path d="M15.6667 3.66683C15.6667 3.8512 15.5172 4.00016 15.3333 4.00016C15.1495 4.00016 15 3.85068 15 3.66683C15 3.48298 15.1495 3.3335 15.3333 3.3335C15.5172 3.3335 15.6667 3.48298 15.6667 3.66683Z" fill="white"/>
<path d="M17.0002 3.66683C17.0002 3.8512 16.8512 4.00016 16.6668 4.00016C16.4825 4.00016 16.3335 3.85068 16.3335 3.66683C16.3335 3.48298 16.4825 3.3335 16.6668 3.3335C16.8512 3.3335 17.0002 3.48298 17.0002 3.66683Z" fill="white"/>
<path d="M13.6667 4.66683C13.6667 4.85068 13.5177 5.00016 13.3333 5.00016C13.149 5.00016 13 4.85068 13 4.66683C13 4.48298 13.149 4.3335 13.3333 4.3335C13.5177 4.3335 13.6667 4.48298 13.6667 4.66683Z" fill="white"/>
<path d="M12.3332 4.66683C12.3332 4.85068 12.1837 5.00016 11.9998 5.00016C11.816 5.00016 11.6665 4.85068 11.6665 4.66683C11.6665 4.48298 11.816 4.3335 11.9998 4.3335C12.1837 4.3335 12.3332 4.48298 12.3332 4.66683Z" fill="white"/>
<path d="M15.0002 4.66683C15.0002 4.85068 14.8507 5.00016 14.6668 5.00016C14.483 5.00016 14.3335 4.85068 14.3335 4.66683C14.3335 4.48298 14.483 4.3335 14.6668 4.3335C14.8507 4.3335 15.0002 4.48298 15.0002 4.66683Z" fill="white"/>
<path d="M16.3332 4.66683C16.3332 4.85068 16.1837 5.00016 15.9998 5.00016C15.816 5.00016 15.6665 4.85068 15.6665 4.66683C15.6665 4.48298 15.8155 4.3335 15.9998 4.3335C16.1842 4.3335 16.3332 4.48298 16.3332 4.66683Z" fill="white"/>
<path d="M17.6667 4.66683C17.6667 4.85068 17.5177 5.00016 17.3333 5.00016C17.149 5.00016 17 4.85068 17 4.66683C17 4.48298 17.1495 4.3335 17.3333 4.3335C17.5172 4.3335 17.6667 4.48298 17.6667 4.66683Z" fill="white"/>
<path d="M18.3332 3.66683C18.3332 3.8512 18.1837 4.00016 17.9998 4.00016C17.816 4.00016 17.6665 3.85068 17.6665 3.66683C17.6665 3.48298 17.816 3.3335 17.9998 3.3335C18.1837 3.3335 18.3332 3.48298 18.3332 3.66683Z" fill="white"/>
<path d="M2.99984 2C2.26338 2 1.6665 2.59687 1.6665 3.33333C1.6665 4.06979 2.26338 4.66667 2.99984 4.66667C3.7363 4.66667 4.33317 4.06979 4.33317 3.33333C4.33317 2.97969 4.19307 2.64062 3.94255 2.39062C3.69255 2.14062 3.35348 2 2.99984 2ZM2.99984 4C2.63161 4 2.33317 3.70156 2.33317 3.33333C2.33317 2.9651 2.63161 2.66667 2.99984 2.66667C3.36807 2.66667 3.6665 2.9651 3.6665 3.33333C3.6665 3.70156 3.36807 4 2.99984 4Z" fill="white"/>
<path d="M6.33333 2C5.59687 2 5 2.59687 5 3.33333C5 4.06979 5.59687 4.66667 6.33333 4.66667C7.06979 4.66667 7.66667 4.06979 7.66667 3.33333C7.66667 2.97969 7.52604 2.64062 7.27604 2.39062C7.02604 2.14062 6.68698 2 6.33333 2ZM6.33333 4C5.9651 4 5.66667 3.70156 5.66667 3.33333C5.66667 2.9651 5.9651 2.66667 6.33333 2.66667C6.70156 2.66667 7 2.9651 7 3.33333C7 3.70156 6.70156 4 6.33333 4Z" fill="white"/>
<path d="M12.6668 12H7.3335C6.78141 12 6.3335 12.4479 6.3335 13V17.6667C6.3335 18.2188 6.78141 18.6667 7.3335 18.6667H8.38923L8.1111 19.3333H7.66683C7.48298 19.3333 7.3335 19.4828 7.3335 19.6667C7.3335 19.8505 7.48298 20 7.66683 20H12.3335C12.5174 20 12.6668 19.8505 12.6668 19.6667C12.6668 19.4828 12.5174 19.3333 12.3335 19.3333H11.8892L11.6111 18.6667H12.6668C13.2189 18.6667 13.6668 18.2188 13.6668 17.6667V13C13.6668 12.4479 13.2189 12 12.6668 12ZM8.8335 19.3333L9.1111 18.6667H10.8892L11.1668 19.3333H8.8335ZM13.0002 17.6667C13.0002 17.8505 12.8507 18 12.6668 18H7.3335C7.14912 18 7.00016 17.8505 7.00016 17.6667V17.3333H13.0002V17.6667ZM13.0002 16.6667H7.00016V13C7.00016 12.8161 7.14912 12.6667 7.3335 12.6667H12.6668C12.8507 12.6667 13.0002 12.8161 13.0002 13V16.6667Z" fill="white"/>
</svg>
