<svg width="32" height="32" viewBox="0 0 32 32" fill="none" xmlns="http://www.w3.org/2000/svg">
<g clip-path="url(#clip0_1559_88328)">
<path d="M16 32C24.8366 32 32 24.8366 32 16C32 7.16344 24.8366 0 16 0C7.16344 0 0 7.16344 0 16C0 24.8366 7.16344 32 16 32Z" fill="black"/>
<path fill-rule="evenodd" clip-rule="evenodd" d="M24.6616 8L18.2614 16.0991L25 24.6508L21.2505 24.6567C20.4782 24.6567 19.8063 24.2942 19.2299 23.5697L15.682 19.0592L12.1464 23.581C11.5759 24.3119 10.8986 24.6744 10.1258 24.6744H7.6537C7.26758 24.6744 7.04771 24.5023 7 24.1516C7 23.9794 7.08362 23.789 7.24348 23.581L13.0854 16.105L7.56467 9.12294C7.40432 8.92127 7.3207 8.73092 7.3207 8.55237C7.3207 8.19626 7.52876 8.01771 7.95669 8.01771H10.4529C11.2257 8.01771 11.903 8.38022 12.4858 9.11704L15.6648 13.1582L18.8442 9.11114C19.4148 8.38661 20.0916 8.01771 20.8762 8.0059H21.7025L24.6616 8ZM22.5102 20.3317L19.1826 16.1124L22.4983 11.8927L22.5102 20.3317Z" fill="#9FF3FF"/>
</g>
<defs>
<clipPath id="clip0_1559_88328">
<rect width="32" height="32" fill="white"/>
</clipPath>
</defs>
</svg>
