<svg width="220" height="228" viewBox="0 0 220 228" fill="none" xmlns="http://www.w3.org/2000/svg">
<g opacity="0.15">
<g clip-path="url(#clip0_603_2680)">
<g opacity="0.8">
<g style="mix-blend-mode:luminosity">
<path d="M76.9843 185.289V176.944L38.7864 199.727L0.588379 176.944V185.289L38.7864 209.136L76.9843 185.289Z" fill="url(#paint0_linear_603_2680)"/>
<path d="M38.7864 200.79L0.588379 176.943L38.7864 153.097L76.9843 176.943L38.7864 200.79Z" fill="url(#paint1_linear_603_2680)"/>
<path opacity="0.5" d="M38.7864 200.105L1.13784 176.612L0.588379 176.944L38.7864 200.79L76.9843 176.944L76.4349 176.612L38.7969 200.105H38.7864Z" fill="white"/>
<path d="M38.7862 196.366L8.50256 177.446L8.3335 176.943L38.7862 157.544L69.8729 176.943L38.7862 196.366Z" fill="url(#paint2_linear_603_2680)"/>
<path d="M38.7867 158.539L69.0703 177.435L69.8734 176.932L38.7867 157.533L7.69995 176.932L8.50301 177.435L38.7867 158.539Z" fill="url(#paint3_linear_603_2680)"/>
<path opacity="0.5" d="M38.7866 191.69L15.1704 176.943L38.7866 162.208L62.4028 176.943L38.7866 191.69Z" fill="url(#paint4_linear_603_2680)"/>
<path opacity="0.5" d="M38.7869 141.574L62.403 156.321V176.932L38.7869 162.197V141.563V141.574Z" fill="url(#paint5_linear_603_2680)"/>
<path opacity="0.5" d="M38.7866 162.209L15.1704 176.944V156.333L38.7866 141.586V162.22V162.209Z" fill="url(#paint6_linear_603_2680)"/>
<path opacity="0.5" d="M38.7866 171.068L15.1704 156.333L38.7866 141.586L62.4028 156.333L38.7866 171.068Z" fill="url(#paint7_linear_603_2680)"/>
<path opacity="0.5" d="M38.7869 171.068V191.702L62.403 176.955V156.344L38.7869 171.079V171.068Z" fill="url(#paint8_linear_603_2680)"/>
<path opacity="0.5" d="M15.1704 156.332V176.943L38.7866 191.69V171.056L15.1704 156.32V156.332Z" fill="url(#paint9_linear_603_2680)"/>
<path d="M76.9843 156.87V148.536L38.7864 171.319L0.588379 148.547V156.881L38.7864 180.728L76.9843 156.881V156.87Z" fill="url(#paint10_linear_603_2680)"/>
<path d="M38.7864 172.371L0.588379 148.548L38.7864 124.701L76.9843 148.548L38.7864 172.383V172.371Z" fill="url(#paint11_linear_603_2680)"/>
<path opacity="0.5" d="M38.7864 171.697L1.13784 148.193L0.588379 148.536L38.7864 172.371L76.9843 148.536L76.4349 148.193L38.7969 171.697H38.7864Z" fill="white"/>
<path d="M38.7865 167.947L8.5028 149.05L8.33374 148.547L38.7865 129.125L69.8732 148.547L38.7865 167.947Z" fill="url(#paint12_linear_603_2680)"/>
<path d="M38.7867 130.142L69.0703 149.05L69.8734 148.535L38.7867 129.136L7.69995 148.535L8.50301 149.05L38.7867 130.142Z" fill="url(#paint13_linear_603_2680)"/>
<path opacity="0.5" d="M38.7866 163.282L15.1704 148.547L38.7866 133.8L62.4028 148.547L38.7866 163.282Z" fill="url(#paint14_linear_603_2680)"/>
<path opacity="0.5" d="M38.7869 113.178L62.403 127.914V148.548L38.7869 133.801V113.189V113.178Z" fill="url(#paint15_linear_603_2680)"/>
<path opacity="0.5" d="M38.7866 133.789L15.1704 148.535V127.901L38.7866 113.166V133.777V133.789Z" fill="url(#paint16_linear_603_2680)"/>
<path opacity="0.5" d="M38.7866 142.649L15.1704 127.914L38.7866 113.178L62.4028 127.914L38.7866 142.649Z" fill="url(#paint17_linear_603_2680)"/>
<path opacity="0.5" d="M38.7869 142.648V163.282L62.403 148.547V127.912L38.7869 142.648Z" fill="url(#paint18_linear_603_2680)"/>
<path opacity="0.5" d="M15.1704 127.912V148.547L38.7866 163.282V142.648L15.1704 127.912Z" fill="url(#paint19_linear_603_2680)"/>
<path d="M76.9843 128.461V120.128L38.7864 142.911L0.588379 120.128V128.461L38.7864 152.308L76.9843 128.461Z" fill="url(#paint20_linear_603_2680)"/>
<path d="M38.7864 143.975L0.588379 120.129L38.7864 96.2821L76.9843 120.129L38.7864 143.975Z" fill="url(#paint21_linear_603_2680)"/>
<path opacity="0.5" d="M38.7864 143.277L1.13784 119.785L0.588379 120.128L38.7864 143.975L76.9843 120.128L76.4349 119.785L38.7969 143.289L38.7864 143.277Z" fill="white"/>
<path d="M38.7865 139.528L8.5028 120.631L8.33374 120.128L38.7865 100.706L69.8732 120.128L38.7865 139.528Z" fill="url(#paint22_linear_603_2680)"/>
<path d="M38.7867 101.723L69.0703 120.62L69.8734 120.117L38.7867 100.695L7.69995 120.117L8.50301 120.62L38.7867 101.723Z" fill="url(#paint23_linear_603_2680)"/>
<path opacity="0.5" d="M38.7863 134.864L15.1702 120.128L38.7863 105.381L62.4025 120.128L38.7863 134.864Z" fill="url(#paint24_linear_603_2680)"/>
<path opacity="0.5" d="M38.7869 84.7576L62.403 99.4931V120.127L38.7869 105.38V84.7691V84.7576Z" fill="url(#paint25_linear_603_2680)"/>
<path opacity="0.5" d="M38.7866 105.38L15.1704 120.127V99.4931L38.7866 84.7576V105.369V105.38Z" fill="url(#paint26_linear_603_2680)"/>
<path opacity="0.5" d="M38.7863 114.252L15.1702 99.5052L38.7863 84.7697L62.4025 99.5052L38.7863 114.252Z" fill="url(#paint27_linear_603_2680)"/>
<path opacity="0.5" d="M38.7869 114.252V134.863L62.403 120.128V99.4934L38.7869 114.24V114.252Z" fill="url(#paint28_linear_603_2680)"/>
<path opacity="0.5" d="M15.1704 99.4934V120.128L38.7866 134.863V114.252L15.1704 99.5048V99.4934Z" fill="url(#paint29_linear_603_2680)"/>
<path d="M76.9843 100.042V91.7087L38.7864 114.492L0.588379 91.7087V100.042L38.7864 123.889L76.9843 100.042Z" fill="url(#paint30_linear_603_2680)"/>
<path d="M38.7864 115.555L0.588379 91.7082L38.7864 67.8616L76.9843 91.7082L38.7864 115.555Z" fill="url(#paint31_linear_603_2680)"/>
<path d="M38.7858 80.1968L61.8419 94.6008L66.4384 91.72L38.7752 74.4467L11.1121 91.72L15.7191 94.5894L38.7647 80.1968H38.7858Z" fill="url(#paint32_linear_603_2680)"/>
<path opacity="0.5" d="M38.7864 114.881L1.13784 91.3658L0.588379 91.7088L38.7864 115.555L76.9843 91.7088L76.4349 91.3658L38.7969 114.881H38.7864Z" fill="white"/>
<path opacity="0.7" d="M38.7867 108.982L11.1235 91.709L38.7867 74.4357L66.4499 91.709L38.7867 108.982Z" fill="url(#paint33_linear_603_2680)"/>
<path opacity="0.65" d="M76.9848 100.042V120.128L38.7869 143.975V123.889L76.9848 100.042Z" fill="url(#paint34_linear_603_2680)"/>
<path opacity="0.65" d="M0.588379 100.043V120.128L38.7864 143.975V123.889L0.588379 100.043Z" fill="url(#paint35_linear_603_2680)"/>
<path opacity="0.65" d="M76.9848 128.461V148.547L38.7869 172.382V152.308L76.9848 128.461Z" fill="url(#paint36_linear_603_2680)"/>
<path opacity="0.65" d="M0.588379 128.461V148.547L38.7864 172.382V152.308L0.588379 128.461Z" fill="url(#paint37_linear_603_2680)"/>
<path opacity="0.65" d="M76.9848 156.87V176.944L38.7869 200.79V180.716L76.9848 156.87Z" fill="url(#paint38_linear_603_2680)"/>
<path opacity="0.65" d="M0.588379 156.87V176.944L38.7864 200.79V180.716L0.588379 156.87Z" fill="url(#paint39_linear_603_2680)"/>
<path d="M219.823 219.138V205.66L158.03 242.527L96.2473 205.66V219.138L158.03 257.709L219.823 219.138Z" fill="url(#paint40_linear_603_2680)"/>
<path d="M158.018 244.231L96.2358 205.649L158.018 167.079L219.811 205.649L158.018 244.231Z" fill="url(#paint41_linear_603_2680)"/>
<path opacity="0.5" d="M158.018 243.121L97.1234 205.111L96.2358 205.66L158.018 244.23L219.811 205.66L218.924 205.111L158.018 243.121Z" fill="white"/>
<path d="M158.019 237.052L109.043 206.472L108.758 205.649L158.019 174.269L208.316 205.649L158.019 237.04V237.052Z" fill="url(#paint42_linear_603_2680)"/>
<path d="M158.02 175.904L207.017 206.484L208.316 205.661L158.02 174.269L107.744 205.661L109.044 206.484L158.02 175.904Z" fill="url(#paint43_linear_603_2680)"/>
<path opacity="0.5" d="M158.019 229.496L119.821 205.65L158.019 181.814L196.217 205.65L158.019 229.496Z" fill="url(#paint44_linear_603_2680)"/>
<path opacity="0.5" d="M158.019 148.456L196.217 172.302V205.649L158.019 181.814V148.456Z" fill="url(#paint45_linear_603_2680)"/>
<path opacity="0.5" d="M158.019 181.814L119.821 205.649V172.302L158.019 148.456V181.814Z" fill="url(#paint46_linear_603_2680)"/>
<path opacity="0.5" d="M158.019 196.138L119.821 172.302L158.019 148.456L196.217 172.302L158.019 196.138Z" fill="url(#paint47_linear_603_2680)"/>
<path opacity="0.5" d="M158.019 196.138V229.496L196.217 205.649V172.303L158.019 196.138Z" fill="url(#paint48_linear_603_2680)"/>
<path opacity="0.5" d="M119.832 172.303V205.649L158.03 229.496V196.138L119.832 172.303Z" fill="url(#paint49_linear_603_2680)"/>
<path d="M219.823 173.183V159.705L158.03 196.561L96.2473 159.705V173.183L158.03 211.754L219.823 173.183Z" fill="url(#paint50_linear_603_2680)"/>
<path d="M158.018 198.275L96.2358 159.704L158.018 121.133L219.811 159.704L158.018 198.275Z" fill="url(#paint51_linear_603_2680)"/>
<path opacity="0.5" d="M158.018 197.156L97.1234 159.145L96.2358 159.705L158.018 198.276L219.811 159.705L218.924 159.145L158.018 197.156Z" fill="white"/>
<path d="M158.019 191.096L109.043 160.505L108.758 159.693L158.019 128.302L208.316 159.693L158.019 191.085V191.096Z" fill="url(#paint52_linear_603_2680)"/>
<path d="M158.02 129.936L207.017 160.516L208.316 159.704L158.02 128.313L107.744 159.704L109.044 160.516L158.02 129.936Z" fill="url(#paint53_linear_603_2680)"/>
<path opacity="0.5" d="M158.019 183.551L119.821 159.705L158.019 135.858L196.217 159.705L158.019 183.551Z" fill="url(#paint54_linear_603_2680)"/>
<path opacity="0.5" d="M158.019 102.489L196.217 126.335V159.693L158.019 135.847V102.489Z" fill="url(#paint55_linear_603_2680)"/>
<path opacity="0.5" d="M158.019 135.858L119.821 159.704V126.346L158.019 102.5V135.858Z" fill="url(#paint56_linear_603_2680)"/>
<path opacity="0.5" d="M158.019 150.182L119.821 126.335L158.019 102.489L196.217 126.335L158.019 150.182Z" fill="url(#paint57_linear_603_2680)"/>
<path opacity="0.5" d="M158.019 150.182V183.54L196.217 159.693V126.336L158.019 150.182Z" fill="url(#paint58_linear_603_2680)"/>
<path opacity="0.5" d="M119.832 126.336V159.693L158.03 183.54V150.182L119.832 126.336Z" fill="url(#paint59_linear_603_2680)"/>
<path d="M219.823 127.216V113.749L158.03 150.605L96.2471 113.738V127.216L158.03 165.798L219.823 127.216Z" fill="url(#paint60_linear_603_2680)"/>
<path d="M158.018 152.32L96.2358 113.738L158.018 75.1677L219.811 113.75L158.018 152.32Z" fill="url(#paint61_linear_603_2680)"/>
<path opacity="0.5" d="M158.018 151.2L97.1234 113.189L96.2358 113.738L158.018 152.32L219.811 113.749L218.924 113.189L158.018 151.2Z" fill="white"/>
<path d="M158.019 145.129L109.043 114.549L108.758 113.737L158.019 82.3456L208.315 113.737L158.019 145.117V145.129Z" fill="url(#paint62_linear_603_2680)"/>
<path d="M158.02 83.9813L207.017 114.561L208.316 113.738L158.02 82.358L107.744 113.738L109.044 114.561L158.02 83.9813Z" fill="url(#paint63_linear_603_2680)"/>
<path opacity="0.5" d="M158.019 137.584L119.821 113.749L158.019 89.9021L196.217 113.749L158.019 137.584Z" fill="url(#paint64_linear_603_2680)"/>
<path opacity="0.5" d="M158.019 56.5448L196.217 80.3914V113.749L158.019 89.9026V56.5448Z" fill="url(#paint65_linear_603_2680)"/>
<path opacity="0.5" d="M158.019 89.9028L119.821 113.749V80.3916L158.019 56.545V89.9028Z" fill="url(#paint66_linear_603_2680)"/>
<path opacity="0.5" d="M158.019 104.238L119.821 80.3915L158.019 56.545L196.217 80.3915L158.019 104.238Z" fill="url(#paint67_linear_603_2680)"/>
<path opacity="0.5" d="M158.019 104.238V137.585L196.217 113.75V80.3919L158.019 104.238Z" fill="url(#paint68_linear_603_2680)"/>
<path opacity="0.5" d="M119.832 80.3919V113.75L158.03 137.585V104.238L119.832 80.3919Z" fill="url(#paint69_linear_603_2680)"/>
<path d="M219.823 81.2602V67.7822L158.03 104.638L96.2471 67.7822V81.2602L158.03 119.831L219.823 81.2602Z" fill="url(#paint70_linear_603_2680)"/>
<path d="M158.018 106.353L96.2358 67.7822L158.018 29.2115L219.811 67.7822L158.018 106.353Z" fill="url(#paint71_linear_603_2680)"/>
<path d="M158.019 49.1594L195.308 72.4344L202.768 67.7817L158.019 39.854L113.28 67.7817L120.74 72.4344L158.019 49.1594Z" fill="url(#paint72_linear_603_2680)"/>
<path opacity="0.5" d="M158.018 105.232L97.1234 67.2219L96.2358 67.782L158.018 106.353L219.811 67.782L218.924 67.2219L158.018 105.232Z" fill="white"/>
<path opacity="0.7" d="M158.019 95.7095L113.28 67.7817L158.019 39.854L202.768 67.7817L158.019 95.7095Z" fill="url(#paint73_linear_603_2680)"/>
<path opacity="0.65" d="M219.823 81.2602V113.738L158.03 152.308V119.831L219.823 81.2602Z" fill="url(#paint74_linear_603_2680)"/>
<path opacity="0.65" d="M96.2358 81.2601V113.738L158.018 152.308V119.831L96.2358 81.2601Z" fill="url(#paint75_linear_603_2680)"/>
<path opacity="0.65" d="M219.822 127.215V159.693L158.029 198.264V165.775L219.822 127.204V127.215Z" fill="url(#paint76_linear_603_2680)"/>
<path opacity="0.65" d="M96.2358 127.215V159.693L158.018 198.264V165.775L96.2358 127.204V127.215Z" fill="url(#paint77_linear_603_2680)"/>
<path opacity="0.65" d="M219.822 173.184V205.65L158.029 244.22V211.754L219.822 173.184Z" fill="url(#paint78_linear_603_2680)"/>
<path opacity="0.65" d="M96.2358 173.184V205.65L158.018 244.22V211.754L96.2358 173.184Z" fill="url(#paint79_linear_603_2680)"/>
</g>
</g>
</g>
</g>
<defs>
<linearGradient id="paint0_linear_603_2680" x1="-13.5602" y1="258.852" x2="40.868" y2="258.852" gradientUnits="userSpaceOnUse">
<stop stop-color="#8C959D"/>
<stop offset="0.25" stop-color="#8C959D"/>
<stop offset="0.77" stop-color="#C4C6C8"/>
<stop offset="1" stop-color="#D2D5D4"/>
</linearGradient>
<linearGradient id="paint1_linear_603_2680" x1="0.588379" y1="258.852" x2="76.9843" y2="258.852" gradientUnits="userSpaceOnUse">
<stop stop-color="#D2D1D4"/>
<stop offset="0.29" stop-color="#D2D1D4"/>
<stop offset="0.64" stop-color="#E0E0E0"/>
<stop offset="1" stop-color="#E9E9EA"/>
</linearGradient>
<linearGradient id="paint2_linear_603_2680" x1="8.3335" y1="258.852" x2="69.8729" y2="258.852" gradientUnits="userSpaceOnUse">
<stop offset="0.25" stop-color="#8C959D"/>
<stop offset="0.44" stop-color="#8C959D"/>
<stop offset="0.82" stop-color="#C4C6C8"/>
<stop offset="1" stop-color="#D2D5D4"/>
</linearGradient>
<linearGradient id="paint3_linear_603_2680" x1="7.69995" y1="258.852" x2="69.8734" y2="258.852" gradientUnits="userSpaceOnUse">
<stop stop-color="white"/>
<stop offset="0.03" stop-color="white"/>
<stop offset="0.38" stop-color="#B4B9BB"/>
<stop offset="0.63" stop-color="#8C959D"/>
<stop offset="0.75" stop-color="#8C959D"/>
</linearGradient>
<linearGradient id="paint4_linear_603_2680" x1="15.1704" y1="258.852" x2="62.4028" y2="258.852" gradientUnits="userSpaceOnUse">
<stop stop-color="#A3A5A8"/>
<stop offset="0.15" stop-color="#A3A5A8"/>
<stop offset="0.33" stop-color="#A3A5A8"/>
<stop offset="0.52" stop-color="#B4B9BB"/>
<stop offset="0.72" stop-color="#B4B9BB"/>
<stop offset="0.93" stop-color="#8C959D"/>
<stop offset="1" stop-color="#8C959D"/>
</linearGradient>
<linearGradient id="paint5_linear_603_2680" x1="38.7869" y1="159.259" x2="62.403" y2="159.259" gradientUnits="userSpaceOnUse">
<stop stop-color="#A3A5A8"/>
<stop offset="0.15" stop-color="#A3A5A8"/>
<stop offset="0.33" stop-color="#A3A5A8"/>
<stop offset="0.52" stop-color="#B4B9BB"/>
<stop offset="0.72" stop-color="#B4B9BB"/>
<stop offset="0.93" stop-color="#8C959D"/>
<stop offset="1" stop-color="#8C959D"/>
</linearGradient>
<linearGradient id="paint6_linear_603_2680" x1="15.1704" y1="159.26" x2="38.7866" y2="159.26" gradientUnits="userSpaceOnUse">
<stop stop-color="#A3A5A8"/>
<stop offset="0.15" stop-color="#A3A5A8"/>
<stop offset="0.33" stop-color="#A3A5A8"/>
<stop offset="0.52" stop-color="#B4B9BB"/>
<stop offset="0.72" stop-color="#B4B9BB"/>
<stop offset="0.93" stop-color="#8C959D"/>
<stop offset="1" stop-color="#8C959D"/>
</linearGradient>
<linearGradient id="paint7_linear_603_2680" x1="15.1704" y1="156.322" x2="62.4028" y2="156.322" gradientUnits="userSpaceOnUse">
<stop stop-color="#A3A5A8"/>
<stop offset="0.15" stop-color="#A3A5A8"/>
<stop offset="0.33" stop-color="#A3A5A8"/>
<stop offset="0.52" stop-color="#B4B9BB"/>
<stop offset="0.72" stop-color="#B4B9BB"/>
<stop offset="0.93" stop-color="#8C959D"/>
<stop offset="1" stop-color="#8C959D"/>
</linearGradient>
<linearGradient id="paint8_linear_603_2680" x1="38.7869" y1="174.017" x2="62.403" y2="174.017" gradientUnits="userSpaceOnUse">
<stop stop-color="#A3A5A8"/>
<stop offset="0.15" stop-color="#A3A5A8"/>
<stop offset="0.33" stop-color="#A3A5A8"/>
<stop offset="0.52" stop-color="#B4B9BB"/>
<stop offset="0.72" stop-color="#B4B9BB"/>
<stop offset="0.93" stop-color="#8C959D"/>
<stop offset="1" stop-color="#8C959D"/>
</linearGradient>
<linearGradient id="paint9_linear_603_2680" x1="15.1704" y1="174.017" x2="38.7866" y2="174.017" gradientUnits="userSpaceOnUse">
<stop stop-color="#A3A5A8"/>
<stop offset="0.15" stop-color="#A3A5A8"/>
<stop offset="0.33" stop-color="#A3A5A8"/>
<stop offset="0.52" stop-color="#B4B9BB"/>
<stop offset="0.72" stop-color="#B4B9BB"/>
<stop offset="0.93" stop-color="#8C959D"/>
<stop offset="1" stop-color="#8C959D"/>
</linearGradient>
<linearGradient id="paint10_linear_603_2680" x1="-13.1587" y1="164.632" x2="41.2695" y2="164.632" gradientUnits="userSpaceOnUse">
<stop stop-color="#8C959D"/>
<stop offset="0.25" stop-color="#8C959D"/>
<stop offset="0.77" stop-color="#C4C6C8"/>
<stop offset="1" stop-color="#D2D5D4"/>
</linearGradient>
<linearGradient id="paint11_linear_603_2680" x1="0.588379" y1="148.536" x2="76.9843" y2="148.536" gradientUnits="userSpaceOnUse">
<stop stop-color="#D2D1D4"/>
<stop offset="0.29" stop-color="#D2D1D4"/>
<stop offset="0.64" stop-color="#E0E0E0"/>
<stop offset="1" stop-color="#E9E9EA"/>
</linearGradient>
<linearGradient id="paint12_linear_603_2680" x1="8.33374" y1="148.536" x2="69.8732" y2="148.536" gradientUnits="userSpaceOnUse">
<stop offset="0.25" stop-color="#8C959D"/>
<stop offset="0.44" stop-color="#8C959D"/>
<stop offset="0.82" stop-color="#C4C6C8"/>
<stop offset="1" stop-color="#D2D5D4"/>
</linearGradient>
<linearGradient id="paint13_linear_603_2680" x1="7.69995" y1="139.093" x2="69.8734" y2="139.093" gradientUnits="userSpaceOnUse">
<stop stop-color="white"/>
<stop offset="0.03" stop-color="white"/>
<stop offset="0.38" stop-color="#B4B9BB"/>
<stop offset="0.63" stop-color="#8C959D"/>
<stop offset="0.75" stop-color="#8C959D"/>
</linearGradient>
<linearGradient id="paint14_linear_603_2680" x1="15.1704" y1="148.535" x2="62.4028" y2="148.535" gradientUnits="userSpaceOnUse">
<stop stop-color="#A3A5A8"/>
<stop offset="0.15" stop-color="#A3A5A8"/>
<stop offset="0.33" stop-color="#A3A5A8"/>
<stop offset="0.52" stop-color="#B4B9BB"/>
<stop offset="0.72" stop-color="#B4B9BB"/>
<stop offset="0.93" stop-color="#8C959D"/>
<stop offset="1" stop-color="#8C959D"/>
</linearGradient>
<linearGradient id="paint15_linear_603_2680" x1="38.7869" y1="130.863" x2="62.403" y2="130.863" gradientUnits="userSpaceOnUse">
<stop stop-color="#A3A5A8"/>
<stop offset="0.15" stop-color="#A3A5A8"/>
<stop offset="0.33" stop-color="#A3A5A8"/>
<stop offset="0.52" stop-color="#B4B9BB"/>
<stop offset="0.72" stop-color="#B4B9BB"/>
<stop offset="0.93" stop-color="#8C959D"/>
<stop offset="1" stop-color="#8C959D"/>
</linearGradient>
<linearGradient id="paint16_linear_603_2680" x1="15.1704" y1="130.862" x2="38.7866" y2="130.862" gradientUnits="userSpaceOnUse">
<stop stop-color="#A3A5A8"/>
<stop offset="0.15" stop-color="#A3A5A8"/>
<stop offset="0.33" stop-color="#A3A5A8"/>
<stop offset="0.52" stop-color="#B4B9BB"/>
<stop offset="0.72" stop-color="#B4B9BB"/>
<stop offset="0.93" stop-color="#8C959D"/>
<stop offset="1" stop-color="#8C959D"/>
</linearGradient>
<linearGradient id="paint17_linear_603_2680" x1="15.1704" y1="127.914" x2="62.4028" y2="127.914" gradientUnits="userSpaceOnUse">
<stop stop-color="#A3A5A8"/>
<stop offset="0.15" stop-color="#A3A5A8"/>
<stop offset="0.33" stop-color="#A3A5A8"/>
<stop offset="0.52" stop-color="#B4B9BB"/>
<stop offset="0.72" stop-color="#B4B9BB"/>
<stop offset="0.93" stop-color="#8C959D"/>
<stop offset="1" stop-color="#8C959D"/>
</linearGradient>
<linearGradient id="paint18_linear_603_2680" x1="38.7869" y1="145.597" x2="62.403" y2="145.597" gradientUnits="userSpaceOnUse">
<stop stop-color="#A3A5A8"/>
<stop offset="0.15" stop-color="#A3A5A8"/>
<stop offset="0.33" stop-color="#A3A5A8"/>
<stop offset="0.52" stop-color="#B4B9BB"/>
<stop offset="0.72" stop-color="#B4B9BB"/>
<stop offset="0.93" stop-color="#8C959D"/>
<stop offset="1" stop-color="#8C959D"/>
</linearGradient>
<linearGradient id="paint19_linear_603_2680" x1="15.1704" y1="145.597" x2="38.7866" y2="145.597" gradientUnits="userSpaceOnUse">
<stop stop-color="#A3A5A8"/>
<stop offset="0.15" stop-color="#A3A5A8"/>
<stop offset="0.33" stop-color="#A3A5A8"/>
<stop offset="0.52" stop-color="#B4B9BB"/>
<stop offset="0.72" stop-color="#B4B9BB"/>
<stop offset="0.93" stop-color="#8C959D"/>
<stop offset="1" stop-color="#8C959D"/>
</linearGradient>
<linearGradient id="paint20_linear_603_2680" x1="-14.3633" y1="136.212" x2="40.0755" y2="136.212" gradientUnits="userSpaceOnUse">
<stop stop-color="#8C959D"/>
<stop offset="0.25" stop-color="#8C959D"/>
<stop offset="0.77" stop-color="#C4C6C8"/>
<stop offset="1" stop-color="#D2D5D4"/>
</linearGradient>
<linearGradient id="paint21_linear_603_2680" x1="0.588379" y1="120.129" x2="76.9843" y2="120.129" gradientUnits="userSpaceOnUse">
<stop stop-color="#D2D1D4"/>
<stop offset="0.29" stop-color="#D2D1D4"/>
<stop offset="0.64" stop-color="#E0E0E0"/>
<stop offset="1" stop-color="#E9E9EA"/>
</linearGradient>
<linearGradient id="paint22_linear_603_2680" x1="8.33374" y1="120.128" x2="69.8732" y2="120.128" gradientUnits="userSpaceOnUse">
<stop offset="0.25" stop-color="#8C959D"/>
<stop offset="0.44" stop-color="#8C959D"/>
<stop offset="0.82" stop-color="#C4C6C8"/>
<stop offset="1" stop-color="#D2D5D4"/>
</linearGradient>
<linearGradient id="paint23_linear_603_2680" x1="7.69995" y1="110.674" x2="69.8734" y2="110.674" gradientUnits="userSpaceOnUse">
<stop stop-color="white"/>
<stop offset="0.03" stop-color="white"/>
<stop offset="0.38" stop-color="#B4B9BB"/>
<stop offset="0.63" stop-color="#8C959D"/>
<stop offset="0.75" stop-color="#8C959D"/>
</linearGradient>
<linearGradient id="paint24_linear_603_2680" x1="15.1702" y1="120.128" x2="62.4025" y2="120.128" gradientUnits="userSpaceOnUse">
<stop stop-color="#A3A5A8"/>
<stop offset="0.15" stop-color="#A3A5A8"/>
<stop offset="0.33" stop-color="#A3A5A8"/>
<stop offset="0.52" stop-color="#B4B9BB"/>
<stop offset="0.72" stop-color="#B4B9BB"/>
<stop offset="0.93" stop-color="#8C959D"/>
<stop offset="1" stop-color="#8C959D"/>
</linearGradient>
<linearGradient id="paint25_linear_603_2680" x1="38.7869" y1="102.443" x2="62.403" y2="102.443" gradientUnits="userSpaceOnUse">
<stop stop-color="#A3A5A8"/>
<stop offset="0.15" stop-color="#A3A5A8"/>
<stop offset="0.33" stop-color="#A3A5A8"/>
<stop offset="0.52" stop-color="#B4B9BB"/>
<stop offset="0.72" stop-color="#B4B9BB"/>
<stop offset="0.93" stop-color="#8C959D"/>
<stop offset="1" stop-color="#8C959D"/>
</linearGradient>
<linearGradient id="paint26_linear_603_2680" x1="15.1704" y1="102.443" x2="38.7866" y2="102.443" gradientUnits="userSpaceOnUse">
<stop stop-color="#A3A5A8"/>
<stop offset="0.15" stop-color="#A3A5A8"/>
<stop offset="0.33" stop-color="#A3A5A8"/>
<stop offset="0.52" stop-color="#B4B9BB"/>
<stop offset="0.72" stop-color="#B4B9BB"/>
<stop offset="0.93" stop-color="#8C959D"/>
<stop offset="1" stop-color="#8C959D"/>
</linearGradient>
<linearGradient id="paint27_linear_603_2680" x1="15.1702" y1="99.5052" x2="62.4025" y2="99.5052" gradientUnits="userSpaceOnUse">
<stop stop-color="#A3A5A8"/>
<stop offset="0.15" stop-color="#A3A5A8"/>
<stop offset="0.33" stop-color="#A3A5A8"/>
<stop offset="0.52" stop-color="#B4B9BB"/>
<stop offset="0.72" stop-color="#B4B9BB"/>
<stop offset="0.93" stop-color="#8C959D"/>
<stop offset="1" stop-color="#8C959D"/>
</linearGradient>
<linearGradient id="paint28_linear_603_2680" x1="38.7869" y1="117.178" x2="62.403" y2="117.178" gradientUnits="userSpaceOnUse">
<stop stop-color="#A3A5A8"/>
<stop offset="0.15" stop-color="#A3A5A8"/>
<stop offset="0.33" stop-color="#A3A5A8"/>
<stop offset="0.52" stop-color="#B4B9BB"/>
<stop offset="0.72" stop-color="#B4B9BB"/>
<stop offset="0.93" stop-color="#8C959D"/>
<stop offset="1" stop-color="#8C959D"/>
</linearGradient>
<linearGradient id="paint29_linear_603_2680" x1="15.1704" y1="117.178" x2="38.7866" y2="117.178" gradientUnits="userSpaceOnUse">
<stop stop-color="#A3A5A8"/>
<stop offset="0.15" stop-color="#A3A5A8"/>
<stop offset="0.33" stop-color="#A3A5A8"/>
<stop offset="0.52" stop-color="#B4B9BB"/>
<stop offset="0.72" stop-color="#B4B9BB"/>
<stop offset="0.93" stop-color="#8C959D"/>
<stop offset="1" stop-color="#8C959D"/>
</linearGradient>
<linearGradient id="paint30_linear_603_2680" x1="-14.2259" y1="107.805" x2="40.2023" y2="107.805" gradientUnits="userSpaceOnUse">
<stop stop-color="#8C959D"/>
<stop offset="0.25" stop-color="#8C959D"/>
<stop offset="0.77" stop-color="#C4C6C8"/>
<stop offset="1" stop-color="#D2D5D4"/>
</linearGradient>
<linearGradient id="paint31_linear_603_2680" x1="0.588379" y1="91.7082" x2="76.9843" y2="91.7082" gradientUnits="userSpaceOnUse">
<stop stop-color="#D2D1D4"/>
<stop offset="0.29" stop-color="#D2D1D4"/>
<stop offset="0.64" stop-color="#E0E0E0"/>
<stop offset="1" stop-color="#E9E9EA"/>
</linearGradient>
<linearGradient id="paint32_linear_603_2680" x1="11.1226" y1="84.518" x2="66.4384" y2="84.518" gradientUnits="userSpaceOnUse">
<stop offset="0.25" stop-color="#8C959D"/>
<stop offset="0.44" stop-color="#8C959D"/>
<stop offset="0.82" stop-color="#C4C6C8"/>
<stop offset="1" stop-color="#D2D5D4"/>
</linearGradient>
<linearGradient id="paint33_linear_603_2680" x1="11.1235" y1="258.852" x2="66.4393" y2="258.852" gradientUnits="userSpaceOnUse">
<stop stop-color="#A3A5A8"/>
<stop offset="1" stop-color="#A3A5A8"/>
</linearGradient>
<linearGradient id="paint34_linear_603_2680" x1="38.7869" y1="122.014" x2="76.9848" y2="122.014" gradientUnits="userSpaceOnUse">
<stop stop-color="#A3A5A8"/>
<stop offset="1" stop-color="#A3A5A8"/>
</linearGradient>
<linearGradient id="paint35_linear_603_2680" x1="38.7864" y1="122.014" x2="0.588379" y2="122.014" gradientUnits="userSpaceOnUse">
<stop stop-color="#A3A5A8"/>
<stop offset="0.15" stop-color="#A3A5A8"/>
<stop offset="0.33" stop-color="#A3A5A8"/>
<stop offset="0.52" stop-color="#B4B9BB"/>
<stop offset="0.72" stop-color="#B4B9BB"/>
<stop offset="0.93" stop-color="#8C959D"/>
<stop offset="1" stop-color="#8C959D"/>
</linearGradient>
<linearGradient id="paint36_linear_603_2680" x1="38.7869" y1="150.422" x2="76.9848" y2="150.422" gradientUnits="userSpaceOnUse">
<stop stop-color="#A3A5A8"/>
<stop offset="1" stop-color="#A3A5A8"/>
</linearGradient>
<linearGradient id="paint37_linear_603_2680" x1="38.7864" y1="150.422" x2="0.588379" y2="150.422" gradientUnits="userSpaceOnUse">
<stop stop-color="#A3A5A8"/>
<stop offset="0.15" stop-color="#A3A5A8"/>
<stop offset="0.33" stop-color="#A3A5A8"/>
<stop offset="0.52" stop-color="#B4B9BB"/>
<stop offset="0.72" stop-color="#B4B9BB"/>
<stop offset="0.93" stop-color="#8C959D"/>
<stop offset="1" stop-color="#8C959D"/>
</linearGradient>
<linearGradient id="paint38_linear_603_2680" x1="38.7869" y1="178.83" x2="76.9848" y2="178.83" gradientUnits="userSpaceOnUse">
<stop stop-color="#A3A5A8"/>
<stop offset="1" stop-color="#A3A5A8"/>
</linearGradient>
<linearGradient id="paint39_linear_603_2680" x1="38.7864" y1="178.83" x2="0.588379" y2="178.83" gradientUnits="userSpaceOnUse">
<stop stop-color="#A3A5A8"/>
<stop offset="0.15" stop-color="#A3A5A8"/>
<stop offset="0.33" stop-color="#A3A5A8"/>
<stop offset="0.52" stop-color="#B4B9BB"/>
<stop offset="0.72" stop-color="#B4B9BB"/>
<stop offset="0.93" stop-color="#8C959D"/>
<stop offset="1" stop-color="#8C959D"/>
</linearGradient>
<linearGradient id="paint40_linear_603_2680" x1="73.3497" y1="231.679" x2="161.411" y2="231.679" gradientUnits="userSpaceOnUse">
<stop stop-color="#8C959D"/>
<stop offset="0.25" stop-color="#8C959D"/>
<stop offset="0.77" stop-color="#C4C6C8"/>
<stop offset="1" stop-color="#D2D5D4"/>
</linearGradient>
<linearGradient id="paint41_linear_603_2680" x1="96.2358" y1="205.661" x2="219.822" y2="205.661" gradientUnits="userSpaceOnUse">
<stop stop-color="#D2D1D4"/>
<stop offset="0.29" stop-color="#D2D1D4"/>
<stop offset="0.64" stop-color="#E0E0E0"/>
<stop offset="1" stop-color="#E9E9EA"/>
</linearGradient>
<linearGradient id="paint42_linear_603_2680" x1="108.758" y1="205.66" x2="208.316" y2="205.66" gradientUnits="userSpaceOnUse">
<stop offset="0.25" stop-color="#8C959D"/>
<stop offset="0.44" stop-color="#8C959D"/>
<stop offset="0.82" stop-color="#C4C6C8"/>
<stop offset="1" stop-color="#D2D5D4"/>
</linearGradient>
<linearGradient id="paint43_linear_603_2680" x1="107.744" y1="190.365" x2="208.316" y2="190.365" gradientUnits="userSpaceOnUse">
<stop stop-color="white"/>
<stop offset="0.03" stop-color="white"/>
<stop offset="0.38" stop-color="#B4B9BB"/>
<stop offset="0.63" stop-color="#8C959D"/>
<stop offset="0.75" stop-color="#8C959D"/>
</linearGradient>
<linearGradient id="paint44_linear_603_2680" x1="119.831" y1="205.661" x2="196.217" y2="205.661" gradientUnits="userSpaceOnUse">
<stop stop-color="#A3A5A8"/>
<stop offset="0.15" stop-color="#A3A5A8"/>
<stop offset="0.33" stop-color="#A3A5A8"/>
<stop offset="0.52" stop-color="#B4B9BB"/>
<stop offset="0.72" stop-color="#B4B9BB"/>
<stop offset="0.93" stop-color="#8C959D"/>
<stop offset="1" stop-color="#8C959D"/>
</linearGradient>
<linearGradient id="paint45_linear_603_2680" x1="158.019" y1="177.058" x2="196.217" y2="177.058" gradientUnits="userSpaceOnUse">
<stop stop-color="#A3A5A8"/>
<stop offset="0.15" stop-color="#A3A5A8"/>
<stop offset="0.33" stop-color="#A3A5A8"/>
<stop offset="0.52" stop-color="#B4B9BB"/>
<stop offset="0.72" stop-color="#B4B9BB"/>
<stop offset="0.93" stop-color="#8C959D"/>
<stop offset="1" stop-color="#8C959D"/>
</linearGradient>
<linearGradient id="paint46_linear_603_2680" x1="119.831" y1="177.058" x2="158.019" y2="177.058" gradientUnits="userSpaceOnUse">
<stop stop-color="#A3A5A8"/>
<stop offset="0.15" stop-color="#A3A5A8"/>
<stop offset="0.33" stop-color="#A3A5A8"/>
<stop offset="0.52" stop-color="#B4B9BB"/>
<stop offset="0.72" stop-color="#B4B9BB"/>
<stop offset="0.93" stop-color="#8C959D"/>
<stop offset="1" stop-color="#8C959D"/>
</linearGradient>
<linearGradient id="paint47_linear_603_2680" x1="119.831" y1="172.302" x2="196.217" y2="172.302" gradientUnits="userSpaceOnUse">
<stop stop-color="#A3A5A8"/>
<stop offset="0.15" stop-color="#A3A5A8"/>
<stop offset="0.33" stop-color="#A3A5A8"/>
<stop offset="0.52" stop-color="#B4B9BB"/>
<stop offset="0.72" stop-color="#B4B9BB"/>
<stop offset="0.93" stop-color="#8C959D"/>
<stop offset="1" stop-color="#8C959D"/>
</linearGradient>
<linearGradient id="paint48_linear_603_2680" x1="158.019" y1="200.905" x2="196.217" y2="200.905" gradientUnits="userSpaceOnUse">
<stop stop-color="#A3A5A8"/>
<stop offset="0.15" stop-color="#A3A5A8"/>
<stop offset="0.33" stop-color="#A3A5A8"/>
<stop offset="0.52" stop-color="#B4B9BB"/>
<stop offset="0.72" stop-color="#B4B9BB"/>
<stop offset="0.93" stop-color="#8C959D"/>
<stop offset="1" stop-color="#8C959D"/>
</linearGradient>
<linearGradient id="paint49_linear_603_2680" x1="119.832" y1="200.905" x2="158.019" y2="200.905" gradientUnits="userSpaceOnUse">
<stop stop-color="#A3A5A8"/>
<stop offset="0.15" stop-color="#A3A5A8"/>
<stop offset="0.33" stop-color="#A3A5A8"/>
<stop offset="0.52" stop-color="#B4B9BB"/>
<stop offset="0.72" stop-color="#B4B9BB"/>
<stop offset="0.93" stop-color="#8C959D"/>
<stop offset="1" stop-color="#8C959D"/>
</linearGradient>
<linearGradient id="paint50_linear_603_2680" x1="74.0048" y1="185.735" x2="162.056" y2="185.735" gradientUnits="userSpaceOnUse">
<stop stop-color="#8C959D"/>
<stop offset="0.25" stop-color="#8C959D"/>
<stop offset="0.77" stop-color="#C4C6C8"/>
<stop offset="1" stop-color="#D2D5D4"/>
</linearGradient>
<linearGradient id="paint51_linear_603_2680" x1="96.2358" y1="159.704" x2="219.822" y2="159.704" gradientUnits="userSpaceOnUse">
<stop stop-color="#D2D1D4"/>
<stop offset="0.29" stop-color="#D2D1D4"/>
<stop offset="0.64" stop-color="#E0E0E0"/>
<stop offset="1" stop-color="#E9E9EA"/>
</linearGradient>
<linearGradient id="paint52_linear_603_2680" x1="108.758" y1="159.705" x2="208.316" y2="159.705" gradientUnits="userSpaceOnUse">
<stop offset="0.25" stop-color="#8C959D"/>
<stop offset="0.44" stop-color="#8C959D"/>
<stop offset="0.82" stop-color="#C4C6C8"/>
<stop offset="1" stop-color="#D2D5D4"/>
</linearGradient>
<linearGradient id="paint53_linear_603_2680" x1="107.744" y1="144.409" x2="208.316" y2="144.409" gradientUnits="userSpaceOnUse">
<stop stop-color="white"/>
<stop offset="0.03" stop-color="white"/>
<stop offset="0.38" stop-color="#B4B9BB"/>
<stop offset="0.63" stop-color="#8C959D"/>
<stop offset="0.75" stop-color="#8C959D"/>
</linearGradient>
<linearGradient id="paint54_linear_603_2680" x1="119.831" y1="159.705" x2="196.217" y2="159.705" gradientUnits="userSpaceOnUse">
<stop stop-color="#A3A5A8"/>
<stop offset="0.15" stop-color="#A3A5A8"/>
<stop offset="0.33" stop-color="#A3A5A8"/>
<stop offset="0.52" stop-color="#B4B9BB"/>
<stop offset="0.72" stop-color="#B4B9BB"/>
<stop offset="0.93" stop-color="#8C959D"/>
<stop offset="1" stop-color="#8C959D"/>
</linearGradient>
<linearGradient id="paint55_linear_603_2680" x1="158.019" y1="131.103" x2="196.217" y2="131.103" gradientUnits="userSpaceOnUse">
<stop stop-color="#A3A5A8"/>
<stop offset="0.15" stop-color="#A3A5A8"/>
<stop offset="0.33" stop-color="#A3A5A8"/>
<stop offset="0.52" stop-color="#B4B9BB"/>
<stop offset="0.72" stop-color="#B4B9BB"/>
<stop offset="0.93" stop-color="#8C959D"/>
<stop offset="1" stop-color="#8C959D"/>
</linearGradient>
<linearGradient id="paint56_linear_603_2680" x1="119.831" y1="131.102" x2="158.019" y2="131.102" gradientUnits="userSpaceOnUse">
<stop stop-color="#A3A5A8"/>
<stop offset="0.15" stop-color="#A3A5A8"/>
<stop offset="0.33" stop-color="#A3A5A8"/>
<stop offset="0.52" stop-color="#B4B9BB"/>
<stop offset="0.72" stop-color="#B4B9BB"/>
<stop offset="0.93" stop-color="#8C959D"/>
<stop offset="1" stop-color="#8C959D"/>
</linearGradient>
<linearGradient id="paint57_linear_603_2680" x1="119.831" y1="126.347" x2="196.217" y2="126.347" gradientUnits="userSpaceOnUse">
<stop stop-color="#A3A5A8"/>
<stop offset="0.15" stop-color="#A3A5A8"/>
<stop offset="0.33" stop-color="#A3A5A8"/>
<stop offset="0.52" stop-color="#B4B9BB"/>
<stop offset="0.72" stop-color="#B4B9BB"/>
<stop offset="0.93" stop-color="#8C959D"/>
<stop offset="1" stop-color="#8C959D"/>
</linearGradient>
<linearGradient id="paint58_linear_603_2680" x1="158.019" y1="154.949" x2="196.217" y2="154.949" gradientUnits="userSpaceOnUse">
<stop stop-color="#A3A5A8"/>
<stop offset="0.15" stop-color="#A3A5A8"/>
<stop offset="0.33" stop-color="#A3A5A8"/>
<stop offset="0.52" stop-color="#B4B9BB"/>
<stop offset="0.72" stop-color="#B4B9BB"/>
<stop offset="0.93" stop-color="#8C959D"/>
<stop offset="1" stop-color="#8C959D"/>
</linearGradient>
<linearGradient id="paint59_linear_603_2680" x1="119.832" y1="154.949" x2="158.019" y2="154.949" gradientUnits="userSpaceOnUse">
<stop stop-color="#A3A5A8"/>
<stop offset="0.15" stop-color="#A3A5A8"/>
<stop offset="0.33" stop-color="#A3A5A8"/>
<stop offset="0.52" stop-color="#B4B9BB"/>
<stop offset="0.72" stop-color="#B4B9BB"/>
<stop offset="0.93" stop-color="#8C959D"/>
<stop offset="1" stop-color="#8C959D"/>
</linearGradient>
<linearGradient id="paint60_linear_603_2680" x1="72.0603" y1="139.768" x2="160.111" y2="139.768" gradientUnits="userSpaceOnUse">
<stop stop-color="#8C959D"/>
<stop offset="0.25" stop-color="#8C959D"/>
<stop offset="0.77" stop-color="#C4C6C8"/>
<stop offset="1" stop-color="#D2D5D4"/>
</linearGradient>
<linearGradient id="paint61_linear_603_2680" x1="96.2358" y1="113.738" x2="219.822" y2="113.738" gradientUnits="userSpaceOnUse">
<stop stop-color="#D2D1D4"/>
<stop offset="0.29" stop-color="#D2D1D4"/>
<stop offset="0.64" stop-color="#E0E0E0"/>
<stop offset="1" stop-color="#E9E9EA"/>
</linearGradient>
<linearGradient id="paint62_linear_603_2680" x1="108.758" y1="113.737" x2="208.315" y2="113.737" gradientUnits="userSpaceOnUse">
<stop offset="0.25" stop-color="#8C959D"/>
<stop offset="0.44" stop-color="#8C959D"/>
<stop offset="0.82" stop-color="#C4C6C8"/>
<stop offset="1" stop-color="#D2D5D4"/>
</linearGradient>
<linearGradient id="paint63_linear_603_2680" x1="107.744" y1="98.4539" x2="208.316" y2="98.4539" gradientUnits="userSpaceOnUse">
<stop stop-color="white"/>
<stop offset="0.03" stop-color="white"/>
<stop offset="0.38" stop-color="#B4B9BB"/>
<stop offset="0.63" stop-color="#8C959D"/>
<stop offset="0.75" stop-color="#8C959D"/>
</linearGradient>
<linearGradient id="paint64_linear_603_2680" x1="119.831" y1="113.749" x2="196.217" y2="113.749" gradientUnits="userSpaceOnUse">
<stop stop-color="#A3A5A8"/>
<stop offset="0.15" stop-color="#A3A5A8"/>
<stop offset="0.33" stop-color="#A3A5A8"/>
<stop offset="0.52" stop-color="#B4B9BB"/>
<stop offset="0.72" stop-color="#B4B9BB"/>
<stop offset="0.93" stop-color="#8C959D"/>
<stop offset="1" stop-color="#8C959D"/>
</linearGradient>
<linearGradient id="paint65_linear_603_2680" x1="158.019" y1="85.147" x2="196.217" y2="85.147" gradientUnits="userSpaceOnUse">
<stop stop-color="#A3A5A8"/>
<stop offset="0.15" stop-color="#A3A5A8"/>
<stop offset="0.33" stop-color="#A3A5A8"/>
<stop offset="0.52" stop-color="#B4B9BB"/>
<stop offset="0.72" stop-color="#B4B9BB"/>
<stop offset="0.93" stop-color="#8C959D"/>
<stop offset="1" stop-color="#8C959D"/>
</linearGradient>
<linearGradient id="paint66_linear_603_2680" x1="119.831" y1="85.1472" x2="158.019" y2="85.1472" gradientUnits="userSpaceOnUse">
<stop stop-color="#A3A5A8"/>
<stop offset="0.15" stop-color="#A3A5A8"/>
<stop offset="0.33" stop-color="#A3A5A8"/>
<stop offset="0.52" stop-color="#B4B9BB"/>
<stop offset="0.72" stop-color="#B4B9BB"/>
<stop offset="0.93" stop-color="#8C959D"/>
<stop offset="1" stop-color="#8C959D"/>
</linearGradient>
<linearGradient id="paint67_linear_603_2680" x1="119.831" y1="80.3915" x2="196.217" y2="80.3915" gradientUnits="userSpaceOnUse">
<stop stop-color="#A3A5A8"/>
<stop offset="0.15" stop-color="#A3A5A8"/>
<stop offset="0.33" stop-color="#A3A5A8"/>
<stop offset="0.52" stop-color="#B4B9BB"/>
<stop offset="0.72" stop-color="#B4B9BB"/>
<stop offset="0.93" stop-color="#8C959D"/>
<stop offset="1" stop-color="#8C959D"/>
</linearGradient>
<linearGradient id="paint68_linear_603_2680" x1="158.019" y1="108.983" x2="196.217" y2="108.983" gradientUnits="userSpaceOnUse">
<stop stop-color="#A3A5A8"/>
<stop offset="0.15" stop-color="#A3A5A8"/>
<stop offset="0.33" stop-color="#A3A5A8"/>
<stop offset="0.52" stop-color="#B4B9BB"/>
<stop offset="0.72" stop-color="#B4B9BB"/>
<stop offset="0.93" stop-color="#8C959D"/>
<stop offset="1" stop-color="#8C959D"/>
</linearGradient>
<linearGradient id="paint69_linear_603_2680" x1="119.832" y1="108.983" x2="158.019" y2="108.983" gradientUnits="userSpaceOnUse">
<stop stop-color="#A3A5A8"/>
<stop offset="0.15" stop-color="#A3A5A8"/>
<stop offset="0.33" stop-color="#A3A5A8"/>
<stop offset="0.52" stop-color="#B4B9BB"/>
<stop offset="0.72" stop-color="#B4B9BB"/>
<stop offset="0.93" stop-color="#8C959D"/>
<stop offset="1" stop-color="#8C959D"/>
</linearGradient>
<linearGradient id="paint70_linear_603_2680" x1="72.2822" y1="93.8122" x2="160.333" y2="93.8122" gradientUnits="userSpaceOnUse">
<stop stop-color="#8C959D"/>
<stop offset="0.25" stop-color="#8C959D"/>
<stop offset="0.77" stop-color="#C4C6C8"/>
<stop offset="1" stop-color="#D2D5D4"/>
</linearGradient>
<linearGradient id="paint71_linear_603_2680" x1="96.2358" y1="67.7822" x2="219.822" y2="67.7822" gradientUnits="userSpaceOnUse">
<stop stop-color="#D2D1D4"/>
<stop offset="0.29" stop-color="#D2D1D4"/>
<stop offset="0.64" stop-color="#E0E0E0"/>
<stop offset="1" stop-color="#E9E9EA"/>
</linearGradient>
<linearGradient id="paint72_linear_603_2680" x1="113.28" y1="56.1442" x2="202.778" y2="56.1442" gradientUnits="userSpaceOnUse">
<stop offset="0.25" stop-color="#8C959D"/>
<stop offset="0.44" stop-color="#8C959D"/>
<stop offset="0.82" stop-color="#C4C6C8"/>
<stop offset="1" stop-color="#D2D5D4"/>
</linearGradient>
<linearGradient id="paint73_linear_603_2680" x1="113.28" y1="67.7817" x2="202.778" y2="67.7817" gradientUnits="userSpaceOnUse">
<stop stop-color="#A3A5A8"/>
<stop offset="1" stop-color="#A3A5A8"/>
</linearGradient>
<linearGradient id="paint74_linear_603_2680" x1="158.019" y1="116.79" x2="219.823" y2="116.79" gradientUnits="userSpaceOnUse">
<stop stop-color="#A3A5A8"/>
<stop offset="1" stop-color="#A3A5A8"/>
</linearGradient>
<linearGradient id="paint75_linear_603_2680" x1="158.018" y1="116.79" x2="96.2358" y2="116.79" gradientUnits="userSpaceOnUse">
<stop stop-color="#A3A5A8"/>
<stop offset="0.15" stop-color="#A3A5A8"/>
<stop offset="0.33" stop-color="#A3A5A8"/>
<stop offset="0.52" stop-color="#B4B9BB"/>
<stop offset="0.72" stop-color="#B4B9BB"/>
<stop offset="0.93" stop-color="#8C959D"/>
<stop offset="1" stop-color="#8C959D"/>
</linearGradient>
<linearGradient id="paint76_linear_603_2680" x1="158.019" y1="162.745" x2="219.822" y2="162.745" gradientUnits="userSpaceOnUse">
<stop stop-color="#A3A5A8"/>
<stop offset="1" stop-color="#A3A5A8"/>
</linearGradient>
<linearGradient id="paint77_linear_603_2680" x1="158.018" y1="162.745" x2="96.2358" y2="162.745" gradientUnits="userSpaceOnUse">
<stop stop-color="#A3A5A8"/>
<stop offset="0.15" stop-color="#A3A5A8"/>
<stop offset="0.33" stop-color="#A3A5A8"/>
<stop offset="0.52" stop-color="#B4B9BB"/>
<stop offset="0.72" stop-color="#B4B9BB"/>
<stop offset="0.93" stop-color="#8C959D"/>
<stop offset="1" stop-color="#8C959D"/>
</linearGradient>
<linearGradient id="paint78_linear_603_2680" x1="158.019" y1="208.702" x2="219.822" y2="208.702" gradientUnits="userSpaceOnUse">
<stop stop-color="#A3A5A8"/>
<stop offset="1" stop-color="#A3A5A8"/>
</linearGradient>
<linearGradient id="paint79_linear_603_2680" x1="158.018" y1="208.702" x2="96.2358" y2="208.702" gradientUnits="userSpaceOnUse">
<stop stop-color="#A3A5A8"/>
<stop offset="0.15" stop-color="#A3A5A8"/>
<stop offset="0.33" stop-color="#A3A5A8"/>
<stop offset="0.52" stop-color="#B4B9BB"/>
<stop offset="0.72" stop-color="#B4B9BB"/>
<stop offset="0.93" stop-color="#8C959D"/>
<stop offset="1" stop-color="#8C959D"/>
</linearGradient>
<clipPath id="clip0_603_2680">
<rect width="314.882" height="228.498" fill="white" transform="translate(0.588379 29.2115)"/>
</clipPath>
</defs>
</svg>
