<svg width="374" height="256" viewBox="0 0 374 256" fill="none" xmlns="http://www.w3.org/2000/svg">
<g opacity="0.05" clip-path="url(#clip0_603_2857)">
<path d="M327.521 222.672L279.873 206.178L279.861 206.166L270.156 156.163L317.817 172.669L327.521 222.672Z" fill="url(#paint0_linear_603_2857)"/>
<path d="M327.521 222.672L289.566 256.169L241.882 239.675L279.861 206.166L279.873 206.178L327.521 222.672Z" fill="url(#paint1_linear_603_2857)"/>
<path d="M279.861 206.166L241.882 239.675L232.201 189.672L270.157 156.163L279.861 206.166Z" fill="url(#paint2_linear_603_2857)"/>
<path d="M255.336 142.286H230.152L230.14 142.274L217.56 120.217H242.744L255.336 142.286Z" stroke="url(#paint3_linear_603_2857)" stroke-linejoin="round"/>
<path d="M255.336 142.286L242.732 164.355L217.536 164.343L230.14 142.274L230.152 142.286H255.336Z" stroke="url(#paint4_linear_603_2857)" stroke-linejoin="round"/>
<path d="M230.14 142.274L217.536 164.343L204.956 142.274L217.56 120.217L230.14 142.274Z" stroke="url(#paint5_linear_603_2857)" stroke-linejoin="round"/>
<path d="M254.725 58.301L249.322 83.1694L249.31 83.1815L225.3 90.8772L230.715 65.9967L254.725 58.301Z" fill="url(#paint6_linear_603_2857)"/>
<path d="M254.725 58.301L273.319 75.4738L267.916 100.379L249.31 83.1815L249.322 83.1694L254.725 58.301Z" fill="url(#paint7_linear_603_2857)"/>
<path d="M249.31 83.1813L267.916 100.378L243.894 108.062L225.3 90.8769L249.31 83.1813Z" fill="url(#paint8_linear_603_2857)"/>
<path d="M218.435 215.595L204.956 237.106H204.944L179.784 236.052L193.275 214.54L218.435 215.595Z" fill="url(#paint9_linear_603_2857)"/>
<path d="M218.435 215.594L230.116 238.16L216.626 259.696L204.944 237.106H204.956L218.435 215.594Z" fill="url(#paint10_linear_603_2857)"/>
<path d="M204.944 237.106L216.626 259.696L191.466 258.63L179.784 236.052L204.944 237.106Z" fill="url(#paint11_linear_603_2857)"/>
<path d="M353.76 42.764L340.281 64.2755H340.269L315.109 63.2211L328.588 41.7097L353.76 42.764Z" fill="url(#paint12_linear_603_2857)"/>
<path d="M353.76 42.7642L365.441 65.33L351.95 86.8656L340.269 64.2756H340.281L353.76 42.7642Z" fill="url(#paint13_linear_603_2857)"/>
<path d="M340.269 64.2755L351.951 86.8655L326.791 85.799L315.109 63.2211L340.269 64.2755Z" fill="url(#paint14_linear_603_2857)"/>
<path d="M218.435 215.595L204.956 237.106H204.944L179.784 236.052L193.275 214.54L218.435 215.595Z" fill="url(#paint15_linear_603_2857)"/>
<path d="M218.435 215.594L230.116 238.16L216.626 259.696L204.944 237.106H204.956L218.435 215.594Z" fill="url(#paint16_linear_603_2857)"/>
<path d="M204.944 237.106L216.626 259.696L191.466 258.63L179.784 236.052L204.944 237.106Z" fill="url(#paint17_linear_603_2857)"/>
<path d="M377.818 249.916L357.594 265.113H357.582L334.47 254.994L354.694 239.808L377.818 249.916Z" stroke="url(#paint18_linear_603_2857)" stroke-linejoin="round"/>
<path d="M377.817 249.916L380.705 275.221L360.481 290.43L357.582 265.113H357.594L377.817 249.916Z" stroke="url(#paint19_linear_603_2857)" stroke-linejoin="round"/>
<path d="M357.582 265.113L360.481 290.43L337.37 280.298L334.47 254.994L357.582 265.113Z" stroke="url(#paint20_linear_603_2857)" stroke-linejoin="round"/>
<path d="M401.719 141.813L383.245 172.196H383.233L347.985 171.202L366.459 140.82L401.719 141.813Z" fill="url(#paint21_linear_603_2857)"/>
<path d="M383.233 172.196L400.006 203.585L364.758 202.579L347.985 171.202L383.233 172.196Z" fill="url(#paint22_linear_603_2857)"/>
<path d="M285.48 96.6454L310.844 121.417V121.429L302.313 156.041L276.95 131.27L285.48 96.6454Z" stroke="url(#paint23_linear_603_2857)" stroke-linejoin="round"/>
<path d="M285.48 96.6454L319.374 86.8168L344.75 111.6L310.844 121.429V121.417L285.48 96.6454Z" stroke="url(#paint24_linear_603_2857)" stroke-linejoin="round"/>
<path d="M310.844 121.429L344.75 111.6L336.208 146.213L302.313 156.041L310.844 121.429Z" stroke="url(#paint25_linear_603_2857)" stroke-linejoin="round"/>
<path d="M352.255 86.7534L351.641 86.96L374.544 156.601L375.158 156.395L352.255 86.7534Z" fill="#020381"/>
<path d="M368.826 185.687L358.736 241.629L359.373 241.746L369.463 185.805L368.826 185.687Z" fill="#020381"/>
<path d="M335.263 259.732L307.98 239.477L308.255 239.13L335.537 259.385L335.263 259.732Z" fill="#020381"/>
<path d="M363.315 121.102L340.604 127.733L340.783 128.362L363.494 121.731L363.315 121.102Z" fill="#020381"/>
<path d="M280.328 117.018L261.123 102.753L261.506 102.22L280.712 116.484L280.328 117.018Z" fill="#020381"/>
<path d="M205.244 215.17L204.669 214.879L236.382 152.708L251.682 172.499L251.167 172.899L236.49 153.92L205.244 215.17Z" fill="#020381"/>
</g>
<defs>
<linearGradient id="paint0_linear_603_2857" x1="270.156" y1="189.417" x2="327.521" y2="189.417" gradientUnits="userSpaceOnUse">
<stop stop-color="#62AADB"/>
<stop offset="1" stop-color="#80E7FF"/>
</linearGradient>
<linearGradient id="paint1_linear_603_2857" x1="241.882" y1="231.168" x2="327.521" y2="231.168" gradientUnits="userSpaceOnUse">
<stop stop-color="#0097D9"/>
<stop offset="1" stop-color="#80E7FF"/>
</linearGradient>
<linearGradient id="paint2_linear_603_2857" x1="232.201" y1="197.925" x2="279.861" y2="197.925" gradientUnits="userSpaceOnUse">
<stop stop-color="#6774FF"/>
<stop offset="1" stop-color="#49A2D0"/>
</linearGradient>
<linearGradient id="paint3_linear_603_2857" x1="217.56" y1="131.245" x2="255.336" y2="131.245" gradientUnits="userSpaceOnUse">
<stop stop-color="#62AADB"/>
<stop offset="1" stop-color="#80E7FF"/>
</linearGradient>
<linearGradient id="paint4_linear_603_2857" x1="217.536" y1="153.314" x2="255.336" y2="153.314" gradientUnits="userSpaceOnUse">
<stop stop-color="#0097D9"/>
<stop offset="1" stop-color="#80E7FF"/>
</linearGradient>
<linearGradient id="paint5_linear_603_2857" x1="204.956" y1="142.274" x2="230.14" y2="142.274" gradientUnits="userSpaceOnUse">
<stop stop-color="#6774FF"/>
<stop offset="1" stop-color="#49A2D0"/>
</linearGradient>
<linearGradient id="paint6_linear_603_2857" x1="225.3" y1="74.5891" x2="254.725" y2="74.5891" gradientUnits="userSpaceOnUse">
<stop stop-color="#62AADB"/>
<stop offset="1" stop-color="#80E7FF"/>
</linearGradient>
<linearGradient id="paint7_linear_603_2857" x1="249.31" y1="79.3398" x2="273.319" y2="79.3398" gradientUnits="userSpaceOnUse">
<stop stop-color="#0097D9"/>
<stop offset="1" stop-color="#80E7FF"/>
</linearGradient>
<linearGradient id="paint8_linear_603_2857" x1="225.3" y1="95.6155" x2="267.916" y2="95.6155" gradientUnits="userSpaceOnUse">
<stop stop-color="#6774FF"/>
<stop offset="1" stop-color="#49A2D0"/>
</linearGradient>
<linearGradient id="paint9_linear_603_2857" x1="179.784" y1="225.823" x2="218.435" y2="225.823" gradientUnits="userSpaceOnUse">
<stop stop-color="#62AADB"/>
<stop offset="1" stop-color="#80E7FF"/>
</linearGradient>
<linearGradient id="paint10_linear_603_2857" x1="204.944" y1="237.639" x2="230.116" y2="237.639" gradientUnits="userSpaceOnUse">
<stop stop-color="#0097D9"/>
<stop offset="1" stop-color="#80E7FF"/>
</linearGradient>
<linearGradient id="paint11_linear_603_2857" x1="179.784" y1="247.868" x2="216.626" y2="247.868" gradientUnits="userSpaceOnUse">
<stop stop-color="#6774FF"/>
<stop offset="1" stop-color="#49A2D0"/>
</linearGradient>
<linearGradient id="paint12_linear_603_2857" x1="315.109" y1="52.9926" x2="353.76" y2="52.9926" gradientUnits="userSpaceOnUse">
<stop stop-color="#62AADB"/>
<stop offset="1" stop-color="#80E7FF"/>
</linearGradient>
<linearGradient id="paint13_linear_603_2857" x1="340.269" y1="64.8088" x2="365.441" y2="64.8088" gradientUnits="userSpaceOnUse">
<stop stop-color="#0097D9"/>
<stop offset="1" stop-color="#80E7FF"/>
</linearGradient>
<linearGradient id="paint14_linear_603_2857" x1="315.109" y1="75.0372" x2="351.951" y2="75.0372" gradientUnits="userSpaceOnUse">
<stop stop-color="#6774FF"/>
<stop offset="1" stop-color="#49A2D0"/>
</linearGradient>
<linearGradient id="paint15_linear_603_2857" x1="179.784" y1="225.823" x2="218.435" y2="225.823" gradientUnits="userSpaceOnUse">
<stop stop-color="#62AADB"/>
<stop offset="1" stop-color="#80E7FF"/>
</linearGradient>
<linearGradient id="paint16_linear_603_2857" x1="204.944" y1="237.639" x2="230.116" y2="237.639" gradientUnits="userSpaceOnUse">
<stop stop-color="#0097D9"/>
<stop offset="1" stop-color="#80E7FF"/>
</linearGradient>
<linearGradient id="paint17_linear_603_2857" x1="179.784" y1="247.868" x2="216.626" y2="247.868" gradientUnits="userSpaceOnUse">
<stop stop-color="#6774FF"/>
<stop offset="1" stop-color="#49A2D0"/>
</linearGradient>
<linearGradient id="paint18_linear_603_2857" x1="334.47" y1="252.461" x2="377.818" y2="252.461" gradientUnits="userSpaceOnUse">
<stop stop-color="#62AADB"/>
<stop offset="1" stop-color="#80E7FF"/>
</linearGradient>
<linearGradient id="paint19_linear_603_2857" x1="357.582" y1="270.179" x2="380.705" y2="270.179" gradientUnits="userSpaceOnUse">
<stop stop-color="#0097D9"/>
<stop offset="1" stop-color="#80E7FF"/>
</linearGradient>
<linearGradient id="paint20_linear_603_2857" x1="334.47" y1="272.712" x2="360.481" y2="272.712" gradientUnits="userSpaceOnUse">
<stop stop-color="#6774FF"/>
<stop offset="1" stop-color="#49A2D0"/>
</linearGradient>
<linearGradient id="paint21_linear_603_2857" x1="347.985" y1="156.514" x2="401.719" y2="156.514" gradientUnits="userSpaceOnUse">
<stop stop-color="#62AADB"/>
<stop offset="1" stop-color="#80E7FF"/>
</linearGradient>
<linearGradient id="paint22_linear_603_2857" x1="347.985" y1="187.393" x2="400.006" y2="187.393" gradientUnits="userSpaceOnUse">
<stop stop-color="#6774FF"/>
<stop offset="1" stop-color="#49A2D0"/>
</linearGradient>
<linearGradient id="paint23_linear_603_2857" x1="276.95" y1="126.337" x2="310.844" y2="126.337" gradientUnits="userSpaceOnUse">
<stop stop-color="#62AADB"/>
<stop offset="1" stop-color="#80E7FF"/>
</linearGradient>
<linearGradient id="paint24_linear_603_2857" x1="285.48" y1="104.123" x2="344.75" y2="104.123" gradientUnits="userSpaceOnUse">
<stop stop-color="#0097D9"/>
<stop offset="1" stop-color="#80E7FF"/>
</linearGradient>
<linearGradient id="paint25_linear_603_2857" x1="302.313" y1="133.815" x2="344.75" y2="133.815" gradientUnits="userSpaceOnUse">
<stop stop-color="#6774FF"/>
<stop offset="1" stop-color="#49A2D0"/>
</linearGradient>
<clipPath id="clip0_603_2857">
<rect width="424" height="254.879" fill="white" transform="translate(0 0.642578)"/>
</clipPath>
</defs>
</svg>
