<svg width="645" height="270" viewBox="0 0 645 270" fill="none" xmlns="http://www.w3.org/2000/svg">
<g opacity="0.1">
<g clip-path="url(#clip0_732_17908)">
<path d="M439.32 414.17L361.972 375.519L439.32 336.868L516.667 375.519L439.32 414.17ZM364.43 375.513L439.32 412.939L514.203 375.513L439.314 338.088L364.43 375.513ZM575.983 345.869L498.636 307.218L575.983 268.567L653.331 307.218L575.983 345.869ZM501.1 307.218L575.983 344.643L650.873 307.218L575.983 269.792L501.1 307.218ZM302.65 345.869L225.303 307.218L302.65 268.567L379.998 307.218L302.65 345.869ZM227.766 307.218L302.65 344.643L377.534 307.218L302.65 269.792L227.766 307.218ZM712.653 277.573L635.305 238.922L712.653 200.271L790 238.922L712.653 277.573ZM637.763 238.916L712.653 276.342L787.537 238.916L712.653 201.491L637.763 238.916ZM439.32 277.573L361.972 238.922L439.32 200.271L516.667 238.922L439.32 277.573ZM364.43 238.916L439.314 276.342L514.203 238.916L439.32 201.491L364.43 238.916ZM165.986 277.573L88.6392 238.916L165.986 200.265L243.334 238.916L165.986 277.567V277.573ZM91.0972 238.916L165.981 276.342L240.865 238.916L165.981 201.491L91.0972 238.916ZM575.983 209.271L498.636 170.62L575.983 131.969L653.331 170.62L575.983 209.271ZM501.1 170.62L575.983 208.046L650.867 170.62L575.983 133.195L501.1 170.62ZM302.65 209.271L225.303 170.62L302.65 131.969L379.998 170.62L302.65 209.271ZM227.766 170.62L302.65 208.046L377.534 170.62L302.65 133.195L227.766 170.62ZM439.32 140.976L361.972 102.325L439.32 63.6736L516.667 102.325L439.32 140.976ZM364.43 102.319L439.32 139.745L514.203 102.319L439.32 64.8934L364.43 102.319Z" fill="#4066FF"/>
<path d="M363.501 268.809L323.002 248.571H258.824L221.443 267.248L203.797 258.429L204.286 257.445L221.443 266.023L258.566 247.472H323.26L363.501 267.578L392.398 253.143L392.887 254.121L363.501 268.809Z" fill="#4066FF"/>
<path d="M402.631 356.177L378.673 344.204L416.345 325.378V301.69L372.613 279.837L409.219 261.544L409.708 262.528L375.071 279.837L417.445 301.014V326.054L381.131 344.204L403.126 355.193L402.631 356.177Z" fill="#4066FF"/>
<path d="M327.731 282.326L327.423 281.831C327.423 281.531 331.554 279.355 339.817 275.303L339.933 275.248H365.398L401.014 257.45L401.504 258.434L365.657 276.347H340.186C335.6 278.595 328.737 281.991 328.297 282.276L328.011 281.837H327.973L327.725 282.331L327.731 282.326Z" fill="#4066FF"/>
<path d="M469.003 216.085L468.513 215.102L481.903 208.409V195.6L449.729 179.517L521.143 143.827L477.13 121.831L477.619 120.848L523.601 143.827L452.187 179.517L483.003 194.919V209.09L469.003 216.085Z" fill="#4066FF"/>
<path d="M477.619 220.393L477.13 219.41L521.506 197.232H553.944V198.331H521.764L477.619 220.393Z" fill="#4066FF"/>
<path d="M485.697 224.427L485.208 223.443L506.676 212.717H620.679L642.069 202.024L675.849 218.904L675.359 219.888L642.069 203.249L620.937 213.816H506.94L485.697 224.427Z" fill="#4066FF"/>
<path d="M609.103 286.095L608.608 285.112L623.818 277.512V262.638L654.277 247.417L654.766 248.395L624.918 263.314V278.194L609.103 286.095Z" fill="#4066FF"/>
<path d="M617.418 290.255L616.928 289.271L645.401 275.04H688.936L699.247 269.885L699.736 270.869L689.195 276.139H645.66L617.418 290.255Z" fill="#4066FF"/>
<path d="M338.514 150.872L338.019 149.888L354.235 141.783H390.137L416.521 128.601L417.016 129.585L390.396 142.882H354.499L338.514 150.872Z" fill="#4066FF"/>
<path d="M334.043 148.641L333.554 147.657L367.207 130.838V116.271L379.53 110.111L380.019 111.094L368.307 116.952V131.519L334.043 148.641Z" fill="#4066FF"/>
<path d="M220.58 228.531L220.09 227.547L249.938 212.634V197.754L265.753 189.853L266.242 190.831L251.038 198.43V213.31L220.58 228.531Z" fill="#4066FF"/>
<path d="M175.61 206.057L175.12 205.079L185.656 199.809H229.191L257.438 185.693L257.928 186.676L229.455 200.908H185.92L175.61 206.057Z" fill="#4066FF"/>
<path d="M242.905 299.404L232.237 294.074V279.177L197.259 261.698L197.754 260.715L233.337 278.496V293.393L243.4 298.42L242.905 299.404Z" fill="#4066FF"/>
<path d="M683.652 215.739L648.068 197.958V183.061L638.005 178.033L638.5 177.05L649.168 182.38V197.276L684.147 214.755L683.652 215.739Z" fill="#4066FF"/>
<path d="M559.624 141.124L543.925 133.277H509.722L481.975 119.414L482.464 118.43L509.986 132.178H544.189L560.119 140.14L559.624 141.124Z" fill="#4066FF"/>
<g style="mix-blend-mode:multiply">
<path opacity="0.09" d="M195.922 257.709L159.146 276.084C149.484 280.914 133.823 280.914 124.167 276.084L89.7276 258.874C80.0661 254.044 80.0661 246.219 89.7276 241.395L126.504 223.02C136.166 218.19 151.827 218.19 161.483 223.02L195.922 240.23C205.584 245.06 205.584 252.884 195.922 257.709Z" fill="#A7B1F2"/>
<path opacity="0.18" d="M198.407 256.467L161.631 274.842C151.969 279.672 136.309 279.672 126.652 274.842L92.213 257.632C82.5514 252.802 82.5514 244.977 92.213 240.153L128.99 221.778C138.651 216.948 154.312 216.948 163.968 221.778L198.407 238.988C208.069 243.818 208.069 251.642 198.407 256.467Z" fill="#A7B1F2"/>
<path opacity="0.27" d="M200.893 255.225L164.117 273.6C154.455 278.43 138.794 278.43 129.138 273.6L94.6988 256.39C85.0373 251.56 85.0373 243.735 94.6988 238.911L131.475 220.536C141.137 215.706 156.798 215.706 166.454 220.536L200.893 237.746C210.555 242.576 210.555 250.401 200.893 255.225Z" fill="#A7B1F2"/>
<path opacity="0.36" d="M203.379 253.983L166.602 272.358C156.941 277.188 141.28 277.188 131.624 272.358L97.1841 255.148C87.5226 250.318 87.5226 242.494 97.1841 237.669L133.961 219.294C143.622 214.464 159.283 214.464 168.939 219.294L203.379 236.504C213.04 241.334 213.04 249.159 203.379 253.983Z" fill="#A7B1F2"/>
<path opacity="0.45" d="M205.864 252.741L169.087 271.116C159.426 275.946 143.765 275.946 134.109 271.116L99.6695 253.906C90.008 249.076 90.008 241.252 99.6695 236.427L136.446 218.052C146.108 213.222 161.768 213.222 171.424 218.052L205.864 235.262C215.526 240.092 215.526 247.917 205.864 252.741Z" fill="#A7B1F2"/>
<path opacity="0.55" d="M208.35 251.5L171.573 269.875C161.912 274.705 146.251 274.705 136.595 269.875L102.155 252.665C92.4938 247.835 92.4938 240.01 102.155 235.185L138.932 216.81C148.593 211.98 164.254 211.98 173.91 216.81L208.35 234.02C218.011 238.85 218.011 246.675 208.35 251.5Z" fill="#A7B1F2"/>
<path opacity="0.64" d="M210.841 250.252L174.064 268.627C164.402 273.457 148.742 273.457 139.086 268.627L104.646 251.417C94.9845 246.587 94.9845 238.763 104.646 233.938L141.423 215.563C151.084 210.733 166.745 210.733 176.401 215.563L210.841 232.773C220.502 237.603 220.502 245.428 210.841 250.252Z" fill="#A7B1F2"/>
<path opacity="0.73" d="M213.326 249.01L176.55 267.385C166.888 272.215 151.227 272.215 141.571 267.385L107.132 250.175C97.4704 245.345 97.4704 237.521 107.132 232.696L143.908 214.321C153.57 209.491 169.231 209.491 178.887 214.321L213.326 231.531C222.988 236.361 222.988 244.186 213.326 249.01Z" fill="#A7B1F2"/>
<path opacity="0.82" d="M215.812 247.769L179.035 266.144C169.374 270.974 153.713 270.974 144.057 266.144L109.617 248.934C99.9557 244.104 99.9557 236.279 109.617 231.454L146.394 213.08C156.055 208.25 171.716 208.25 181.372 213.08L215.812 230.289C225.473 235.119 225.473 242.944 215.812 247.769Z" fill="#A7B1F2"/>
<path opacity="0.91" d="M218.297 246.527L181.521 264.902C171.859 269.732 156.198 269.732 146.542 264.902L112.103 247.692C102.441 242.862 102.441 235.037 112.103 230.212L148.879 211.838C158.541 207.008 174.202 207.008 183.858 211.838L218.297 229.048C227.959 233.878 227.959 241.702 218.297 246.527Z" fill="#A7B1F2"/>
<path d="M220.783 245.285L184.006 263.66C174.345 268.49 158.684 268.49 149.028 263.66L114.588 246.45C104.927 241.62 104.927 233.795 114.588 228.971L151.365 210.596C161.027 205.766 176.687 205.766 186.343 210.596L220.783 227.806C230.444 232.636 230.444 240.46 220.783 245.285Z" fill="#A7B1F2"/>
</g>
<path d="M220.782 182.814L186.343 165.604C176.681 160.774 161.02 160.774 151.364 165.604L114.588 183.979C109.76 186.391 107.34 189.556 107.34 192.721V237.708C107.34 240.873 109.754 244.032 114.588 246.45L149.027 263.66C158.689 268.49 174.35 268.49 184.006 263.66L220.777 245.285C225.605 242.873 228.024 239.708 228.024 236.543V191.556C228.024 188.391 225.61 185.231 220.777 182.814H220.782Z" fill="url(#paint0_linear_732_17908)"/>
<path d="M220.782 200.298L184.006 218.673C174.344 223.503 158.684 223.503 149.027 218.673L114.588 201.463C104.926 196.633 104.926 188.809 114.588 183.984L151.365 165.609C161.026 160.779 176.687 160.779 186.343 165.609L220.782 182.819C230.444 187.649 230.444 195.474 220.782 200.298Z" fill="url(#paint1_linear_732_17908)"/>
<path d="M199.408 197.013L177.44 207.991C171.666 210.876 162.313 210.876 156.539 207.991L135.962 197.71C130.188 194.826 130.188 190.15 135.962 187.265L157.93 176.286C163.704 173.401 173.058 173.401 178.832 176.286L199.408 186.567C205.182 189.452 205.182 194.128 199.408 197.013Z" fill="url(#paint2_linear_732_17908)"/>
<path d="M146.053 202.755L156.534 207.991C162.307 210.876 171.661 210.876 177.435 207.991L189.312 202.057V192.139H146.053V202.755Z" fill="url(#paint3_linear_732_17908)"/>
<path d="M186.717 195.062L173.536 201.65C170.072 203.381 164.458 203.381 160.999 201.65L148.654 195.48C145.19 193.749 145.19 190.941 148.654 189.215L161.835 182.627C165.299 180.896 170.913 180.896 174.372 182.627L186.717 188.798C190.181 190.529 190.181 193.337 186.717 195.062Z" fill="url(#paint4_linear_732_17908)"/>
<path d="M115.237 228.701L156.808 249.478C158.535 250.34 159.937 252.439 159.937 254.165C159.937 255.89 158.535 256.588 156.808 255.725L115.237 234.949C113.51 234.086 112.108 231.987 112.108 230.262C112.108 228.537 113.51 227.839 115.237 228.701Z" fill="#5943FF"/>
<path d="M143.616 246.813L156.665 253.335C157.111 253.555 157.468 253.379 157.468 252.934C157.468 252.489 157.111 251.95 156.665 251.73L143.616 245.208C143.171 244.988 142.813 245.164 142.813 245.609C142.813 246.054 143.171 246.593 143.616 246.813ZM124.783 237.4L130.056 240.037C130.501 240.257 130.859 240.081 130.859 239.636C130.859 239.191 130.501 238.653 130.056 238.433L124.783 235.795C124.337 235.575 123.98 235.751 123.98 236.196C123.98 236.642 124.337 237.18 124.783 237.4ZM115.379 232.702L120.658 235.339C121.104 235.559 121.461 235.383 121.461 234.938C121.461 234.493 121.104 233.955 120.658 233.735L115.379 231.097C114.934 230.877 114.577 231.053 114.577 231.498C114.577 231.943 114.934 232.482 115.379 232.702Z" fill="white"/>
<path d="M115.237 219.778L156.808 240.554C158.535 241.417 159.937 243.516 159.937 245.241C159.937 246.966 158.535 247.664 156.808 246.802L115.237 226.025C113.51 225.163 112.108 223.064 112.108 221.338C112.108 219.613 113.51 218.915 115.237 219.778Z" fill="#32B4FF"/>
<path d="M143.616 237.889L156.665 244.411C157.111 244.631 157.468 244.455 157.468 244.01C157.468 243.565 157.111 243.026 156.665 242.807L143.616 236.284C143.171 236.064 142.813 236.24 142.813 236.685C142.813 237.13 143.171 237.669 143.616 237.889ZM124.783 228.476L130.056 231.114C130.501 231.333 130.859 231.157 130.859 230.712C130.859 230.267 130.501 229.729 130.056 229.509L124.783 226.871C124.337 226.652 123.98 226.828 123.98 227.273C123.98 227.718 124.337 228.256 124.783 228.476ZM115.379 223.778L120.658 226.415C121.104 226.635 121.461 226.459 121.461 226.014C121.461 225.569 121.104 225.031 120.658 224.811L115.379 222.173C114.934 221.954 114.577 222.129 114.577 222.574C114.577 223.02 114.934 223.558 115.379 223.778Z" fill="#42EAFF"/>
<path d="M115.237 210.849L156.808 231.625C158.535 232.487 159.937 234.586 159.937 236.312C159.937 238.037 158.535 238.735 156.808 237.872L115.237 217.096C113.51 216.234 112.108 214.135 112.108 212.409C112.108 210.684 113.51 209.986 115.237 210.849Z" fill="#32B4FF"/>
<path d="M143.616 228.96L156.665 235.482C157.111 235.702 157.468 235.526 157.468 235.081C157.468 234.636 157.111 234.097 156.665 233.877L143.616 227.355C143.171 227.135 142.813 227.311 142.813 227.756C142.813 228.201 143.171 228.74 143.616 228.96ZM124.783 219.547L130.056 222.184C130.501 222.404 130.859 222.228 130.859 221.783C130.859 221.338 130.501 220.8 130.056 220.58L124.783 217.942C124.337 217.722 123.98 217.898 123.98 218.343C123.98 218.788 124.337 219.327 124.783 219.547ZM115.379 214.849L120.658 217.486C121.104 217.706 121.461 217.53 121.461 217.085C121.461 216.64 121.104 216.101 120.658 215.882L115.379 213.244C114.934 213.024 114.577 213.2 114.577 213.645C114.577 214.09 114.934 214.629 115.379 214.849Z" fill="white"/>
<path d="M220.134 228.701L178.562 249.478C176.835 250.34 175.433 252.439 175.433 254.165C175.433 255.89 176.835 256.588 178.562 255.725L220.134 234.949C221.86 234.086 223.262 231.987 223.262 230.262C223.262 228.537 221.86 227.839 220.134 228.701Z" fill="#BFCFFF"/>
<path d="M192.556 245.609C192.556 245.164 192.199 244.983 191.754 245.208L178.705 251.731C178.259 251.95 177.902 252.494 177.902 252.934C177.902 253.374 178.259 253.56 178.705 253.335L191.754 246.813C192.199 246.593 192.556 246.049 192.556 245.609ZM211.39 236.197C211.39 235.752 211.033 235.57 210.587 235.796L205.314 238.433C204.868 238.653 204.511 239.197 204.511 239.636C204.511 240.076 204.868 240.263 205.314 240.038L210.587 237.4C211.033 237.18 211.39 236.636 211.39 236.197ZM220.793 231.499C220.793 231.053 220.436 230.872 219.99 231.097L214.711 233.735C214.266 233.955 213.909 234.499 213.909 234.938C213.909 235.378 214.266 235.565 214.711 235.339L219.99 232.702C220.436 232.482 220.793 231.938 220.793 231.499Z" fill="white"/>
<path d="M220.134 219.778L178.562 240.554C176.835 241.417 175.433 243.516 175.433 245.241C175.433 246.966 176.835 247.664 178.562 246.802L220.134 226.025C221.86 225.163 223.262 223.064 223.262 221.338C223.262 219.613 221.86 218.915 220.134 219.778Z" fill="#32B4FF"/>
<path d="M192.556 236.68C192.556 236.235 192.199 236.054 191.754 236.279L178.705 242.801C178.259 243.021 177.902 243.565 177.902 244.005C177.902 244.444 178.259 244.631 178.705 244.406L191.754 237.883C192.199 237.664 192.556 237.12 192.556 236.68ZM211.39 227.267C211.39 226.822 211.033 226.641 210.587 226.866L205.314 229.504C204.868 229.723 204.511 230.267 204.511 230.707C204.511 231.147 204.868 231.333 205.314 231.108L210.587 228.471C211.033 228.251 211.39 227.707 211.39 227.267ZM220.793 222.569C220.793 222.124 220.436 221.943 219.99 222.168L214.711 224.805C214.266 225.025 213.909 225.569 213.909 226.009C213.909 226.448 214.266 226.635 214.711 226.41L219.99 223.772C220.436 223.553 220.793 223.009 220.793 222.569Z" fill="#42EAFF"/>
<path d="M220.134 210.849L178.562 231.625C176.835 232.487 175.433 234.586 175.433 236.312C175.433 238.037 176.835 238.735 178.562 237.872L220.134 217.096C221.86 216.234 223.262 214.135 223.262 212.409C223.262 210.684 221.86 209.986 220.134 210.849Z" fill="#42EAFF"/>
<path d="M192.556 227.756C192.556 227.311 192.199 227.13 191.754 227.355L178.705 233.877C178.259 234.097 177.902 234.641 177.902 235.081C177.902 235.52 178.259 235.707 178.705 235.482L191.754 228.959C192.199 228.74 192.556 228.196 192.556 227.756ZM211.39 218.343C211.39 217.898 211.033 217.717 210.587 217.942L205.314 220.58C204.868 220.8 204.511 221.344 204.511 221.783C204.511 222.223 204.868 222.41 205.314 222.184L210.587 219.547C211.033 219.327 211.39 218.783 211.39 218.343ZM220.793 213.645C220.793 213.2 220.436 213.019 219.99 213.244L214.711 215.882C214.266 216.101 213.909 216.645 213.909 217.085C213.909 217.525 214.266 217.711 214.711 217.486L219.99 214.849C220.436 214.629 220.793 214.085 220.793 213.645Z" fill="white"/>
<g style="mix-blend-mode:multiply">
<path opacity="0.09" d="M605.485 189.501L568.708 207.876C559.046 212.706 543.386 212.706 533.73 207.876L499.29 190.666C489.629 185.836 489.629 178.011 499.29 173.187L536.067 154.812C545.728 149.982 561.389 149.982 571.045 154.812L605.485 172.022C615.146 176.852 615.146 184.677 605.485 189.501Z" fill="#A7B1F2"/>
<path opacity="0.18" d="M607.97 188.259L571.193 206.634C561.532 211.464 545.871 211.464 536.215 206.634L501.775 189.424C492.114 184.594 492.114 176.769 501.775 171.945L538.552 153.57C548.214 148.74 563.874 148.74 573.53 153.57L607.97 170.78C617.631 175.61 617.631 183.435 607.97 188.259Z" fill="#A7B1F2"/>
<path opacity="0.27" d="M610.456 187.017L573.679 205.392C564.018 210.222 548.357 210.222 538.701 205.392L504.261 188.182C494.6 183.352 494.6 175.528 504.261 170.703L541.038 152.328C550.699 147.498 566.36 147.498 576.016 152.328L610.456 169.538C620.117 174.368 620.117 182.193 610.456 187.017Z" fill="#A7B1F2"/>
<path opacity="0.36" d="M612.941 185.776L576.165 204.15C566.503 208.98 550.842 208.98 541.186 204.15L506.747 186.94C497.085 182.11 497.085 174.286 506.747 169.461L543.523 151.086C553.185 146.256 568.846 146.256 578.502 151.086L612.941 168.296C622.603 173.126 622.603 180.951 612.941 185.776Z" fill="#A7B1F2"/>
<path opacity="0.45" d="M615.426 184.534L578.65 202.908C568.988 207.738 553.328 207.738 543.672 202.908L509.232 185.699C499.57 180.869 499.57 173.044 509.232 168.219L546.009 149.844C555.67 145.014 571.331 145.014 580.987 149.844L615.426 167.054C625.088 171.884 625.088 179.709 615.426 184.534Z" fill="#A7B1F2"/>
<path opacity="0.55" d="M617.912 183.292L581.136 201.667C571.474 206.497 555.813 206.497 546.157 201.667L511.718 184.457C502.056 179.627 502.056 171.802 511.718 166.978L548.494 148.603C558.156 143.773 573.817 143.773 583.473 148.603L617.912 165.813C627.574 170.643 627.574 178.467 617.912 183.292Z" fill="#A7B1F2"/>
<path opacity="0.64" d="M620.398 182.05L583.621 200.425C573.96 205.255 558.299 205.255 548.643 200.425L514.203 183.215C504.542 178.385 504.542 170.56 514.203 165.736L550.98 147.361C560.641 142.531 576.302 142.531 585.958 147.361L620.398 164.571C630.059 169.401 630.059 177.225 620.398 182.05Z" fill="#A7B1F2"/>
<path opacity="0.73" d="M622.889 180.808L586.112 199.183C576.451 204.013 560.79 204.013 551.134 199.183L516.694 181.973C507.033 177.143 507.033 169.318 516.694 164.494L553.471 146.119C563.132 141.289 578.793 141.289 588.449 146.119L622.889 163.329C632.55 168.159 632.55 175.984 622.889 180.808Z" fill="#A7B1F2"/>
<path opacity="0.82" d="M625.374 179.566L588.598 197.941C578.936 202.771 563.275 202.771 553.619 197.941L519.18 180.731C509.518 175.901 509.518 168.077 519.18 163.252L555.956 144.877C565.618 140.047 581.279 140.047 590.935 144.877L625.374 162.087C635.036 166.917 635.036 174.742 625.374 179.566Z" fill="#A7B1F2"/>
<path opacity="0.91" d="M627.86 178.324L591.083 196.699C581.421 201.529 565.761 201.529 556.105 196.699L521.665 179.489C512.004 174.659 512.004 166.835 521.665 162.01L558.442 143.635C568.103 138.805 583.764 138.805 593.42 143.635L627.86 160.845C637.521 165.675 637.521 173.5 627.86 178.324Z" fill="#A7B1F2"/>
<path d="M630.345 177.083L593.569 195.458C583.907 200.288 568.247 200.288 558.59 195.458L524.151 178.248C514.489 173.418 514.489 165.593 524.151 160.768L560.927 142.393C570.589 137.563 586.25 137.563 595.906 142.393L630.345 159.603C640.007 164.433 640.007 172.258 630.345 177.083Z" fill="#A7B1F2"/>
</g>
<path d="M630.345 114.611L595.906 97.4011C586.244 92.5711 570.583 92.5711 560.927 97.4011L524.151 115.776C519.323 118.188 516.909 121.353 516.909 124.518V169.505C516.909 172.67 519.323 175.829 524.151 178.247L558.59 195.457C568.252 200.287 583.913 200.287 593.569 195.457L630.345 177.082C635.173 174.67 637.587 171.505 637.587 168.34V123.353C637.587 120.188 635.173 117.029 630.345 114.611Z" fill="url(#paint5_linear_732_17908)"/>
<path d="M630.345 132.09L593.569 150.465C583.907 155.295 568.247 155.295 558.59 150.465L524.151 133.255C514.489 128.425 514.489 120.6 524.151 115.776L560.927 97.4011C570.589 92.5711 586.25 92.5711 595.906 97.4011L630.345 114.611C640.007 119.441 640.007 127.266 630.345 132.09Z" fill="url(#paint6_linear_732_17908)"/>
<path d="M608.971 128.81L587.003 139.789C581.229 142.674 571.876 142.674 566.102 139.789L545.525 129.508C539.751 126.623 539.751 121.947 545.525 119.062L567.493 108.083C573.267 105.198 582.621 105.198 588.394 108.083L608.971 118.364C614.745 121.249 614.745 125.925 608.971 128.81Z" fill="url(#paint7_linear_732_17908)"/>
<path d="M555.616 134.547L566.097 139.783C571.87 142.668 581.224 142.668 586.998 139.783L598.875 133.849V123.93H555.616V134.547Z" fill="url(#paint8_linear_732_17908)"/>
<path d="M596.28 126.859L583.099 133.448C579.635 135.179 574.021 135.179 570.562 133.448L558.217 127.277C554.753 125.546 554.753 122.738 558.217 121.013L571.398 114.424C574.862 112.693 580.476 112.693 583.935 114.424L596.28 120.595C599.744 122.326 599.744 125.134 596.28 126.859Z" fill="url(#paint9_linear_732_17908)"/>
<path d="M524.8 160.499L566.371 181.275C568.098 182.138 569.5 184.237 569.5 185.962C569.5 187.687 568.098 188.385 566.371 187.523L524.8 166.746C523.073 165.884 521.671 163.785 521.671 162.059C521.671 160.334 523.073 159.636 524.8 160.499Z" fill="#32B4FF"/>
<path d="M553.179 178.61L566.228 185.132C566.674 185.352 567.031 185.176 567.031 184.731C567.031 184.286 566.674 183.748 566.228 183.528L553.179 177.005C552.734 176.786 552.376 176.961 552.376 177.407C552.376 177.852 552.734 178.39 553.179 178.61ZM534.346 169.197L539.619 171.835C540.064 172.054 540.422 171.879 540.422 171.434C540.422 170.988 540.064 170.45 539.619 170.23L534.346 167.593C533.9 167.373 533.543 167.549 533.543 167.994C533.543 168.439 533.9 168.977 534.346 169.197ZM524.942 164.499L530.221 167.137C530.667 167.356 531.024 167.181 531.024 166.735C531.024 166.29 530.667 165.752 530.221 165.532L524.942 162.895C524.497 162.675 524.14 162.851 524.14 163.296C524.14 163.741 524.497 164.279 524.942 164.499Z" fill="white"/>
<path d="M524.8 151.57L566.371 172.346C568.098 173.208 569.5 175.307 569.5 177.033C569.5 178.758 568.098 179.456 566.371 178.593L524.8 157.817C523.073 156.955 521.671 154.855 521.671 153.13C521.671 151.405 523.073 150.707 524.8 151.57Z" fill="#5943FF"/>
<path d="M553.179 169.681L566.228 176.203C566.674 176.423 567.031 176.247 567.031 175.802C567.031 175.357 566.674 174.818 566.228 174.599L553.179 168.076C552.734 167.856 552.376 168.032 552.376 168.477C552.376 168.922 552.734 169.461 553.179 169.681ZM534.346 160.268L539.619 162.906C540.064 163.125 540.422 162.949 540.422 162.504C540.422 162.059 540.064 161.521 539.619 161.301L534.346 158.663C533.9 158.444 533.543 158.62 533.543 159.065C533.543 159.51 533.9 160.048 534.346 160.268ZM524.942 155.57L530.221 158.207C530.667 158.427 531.024 158.251 531.024 157.806C531.024 157.361 530.667 156.823 530.221 156.603L524.942 153.965C524.497 153.746 524.14 153.921 524.14 154.366C524.14 154.812 524.497 155.35 524.942 155.57Z" fill="#42EAFF"/>
<path d="M524.8 142.646L566.371 163.422C568.098 164.285 569.5 166.384 569.5 168.109C569.5 169.835 568.098 170.532 566.371 169.67L524.8 148.894C523.073 148.031 521.671 145.932 521.671 144.206C521.671 142.481 523.073 141.783 524.8 142.646Z" fill="#32B4FF"/>
<path d="M553.179 160.757L566.228 167.279C566.674 167.499 567.031 167.323 567.031 166.878C567.031 166.433 566.674 165.895 566.228 165.675L553.179 159.152C552.734 158.933 552.376 159.108 552.376 159.553C552.376 159.999 552.734 160.537 553.179 160.757ZM534.346 151.344L539.619 153.982C540.064 154.201 540.422 154.026 540.422 153.581C540.422 153.135 540.064 152.597 539.619 152.377L534.346 149.74C533.9 149.52 533.543 149.696 533.543 150.141C533.543 150.586 533.9 151.124 534.346 151.344ZM524.942 146.646L530.221 149.284C530.667 149.503 531.024 149.328 531.024 148.882C531.024 148.437 530.667 147.899 530.221 147.679L524.942 145.042C524.497 144.822 524.14 144.998 524.14 145.443C524.14 145.888 524.497 146.426 524.942 146.646Z" fill="white"/>
<path d="M629.697 160.499L588.125 181.275C586.398 182.138 584.996 184.237 584.996 185.962C584.996 187.687 586.398 188.385 588.125 187.523L629.697 166.746C631.423 165.884 632.825 163.785 632.825 162.059C632.825 160.334 631.423 159.636 629.697 160.499Z" fill="#5943FF"/>
<path d="M602.119 177.401C602.119 176.956 601.762 176.774 601.317 177L588.268 183.522C587.822 183.742 587.465 184.286 587.465 184.726C587.465 185.165 587.822 185.352 588.268 185.127L601.317 178.604C601.762 178.384 602.119 177.84 602.119 177.401ZM620.953 167.988C620.953 167.543 620.596 167.362 620.15 167.587L614.877 170.225C614.431 170.444 614.074 170.988 614.074 171.428C614.074 171.868 614.431 172.054 614.877 171.829L620.15 169.192C620.596 168.972 620.953 168.428 620.953 167.988ZM630.356 163.29C630.356 162.845 629.999 162.664 629.553 162.889L624.274 165.526C623.829 165.746 623.472 166.29 623.472 166.73C623.472 167.169 623.829 167.356 624.274 167.131L629.553 164.493C629.999 164.274 630.356 163.73 630.356 163.29Z" fill="white"/>
<path d="M629.697 151.57L588.125 172.346C586.398 173.208 584.996 175.307 584.996 177.033C584.996 178.758 586.398 179.456 588.125 178.593L629.697 157.817C631.423 156.955 632.825 154.855 632.825 153.13C632.825 151.405 631.423 150.707 629.697 151.57Z" fill="#32B4FF"/>
<path d="M602.119 168.477C602.119 168.032 601.762 167.851 601.317 168.076L588.268 174.599C587.822 174.818 587.465 175.362 587.465 175.802C587.465 176.242 587.822 176.428 588.268 176.203L601.317 169.681C601.762 169.461 602.119 168.917 602.119 168.477ZM620.953 159.065C620.953 158.619 620.596 158.438 620.15 158.663L614.877 161.301C614.431 161.521 614.074 162.065 614.074 162.504C614.074 162.944 614.431 163.131 614.877 162.905L620.15 160.268C620.596 160.048 620.953 159.504 620.953 159.065ZM630.356 154.366C630.356 153.921 629.999 153.74 629.553 153.965L624.274 156.603C623.829 156.823 623.472 157.367 623.472 157.806C623.472 158.246 623.829 158.433 624.274 158.207L629.553 155.57C629.999 155.35 630.356 154.806 630.356 154.366Z" fill="#42EAFF"/>
<path d="M629.697 142.646L588.125 163.422C586.398 164.285 584.996 166.384 584.996 168.109C584.996 169.835 586.398 170.532 588.125 169.67L629.697 148.894C631.423 148.031 632.825 145.932 632.825 144.206C632.825 142.481 631.423 141.783 629.697 142.646Z" fill="#42EAFF"/>
<path d="M602.119 159.548C602.119 159.103 601.762 158.922 601.317 159.147L588.268 165.669C587.822 165.889 587.465 166.433 587.465 166.873C587.465 167.312 587.822 167.499 588.268 167.274L601.317 160.751C601.762 160.532 602.119 159.988 602.119 159.548ZM620.953 150.135C620.953 149.69 620.596 149.509 620.15 149.734L614.877 152.372C614.431 152.592 614.074 153.136 614.074 153.575C614.074 154.015 614.431 154.202 614.877 153.976L620.15 151.339C620.596 151.119 620.953 150.575 620.953 150.135ZM630.356 145.437C630.356 144.992 629.999 144.811 629.553 145.036L624.274 147.674C623.829 147.893 623.472 148.437 623.472 148.877C623.472 149.317 623.829 149.503 624.274 149.278L629.553 146.641C629.999 146.421 630.356 145.877 630.356 145.437Z" fill="white"/>
<g style="mix-blend-mode:multiply">
<path opacity="0.09" d="M334.231 188.896L297.454 207.271C287.793 212.101 272.132 212.101 262.476 207.271L228.036 190.061C218.375 185.231 218.375 177.407 228.036 172.582L264.813 154.207C274.474 149.377 290.135 149.377 299.791 154.207L334.231 171.417C343.892 176.247 343.892 184.072 334.231 188.896Z" fill="#A7B1F2"/>
<path opacity="0.18" d="M336.716 187.655L299.939 206.03C290.278 210.86 274.617 210.86 264.961 206.03L230.522 188.82C220.86 183.99 220.86 176.165 230.522 171.34L267.298 152.966C276.96 148.136 292.62 148.136 302.277 152.966L336.716 170.175C346.378 175.005 346.378 182.83 336.716 187.655Z" fill="#A7B1F2"/>
<path opacity="0.27" d="M339.201 186.413L302.425 204.788C292.763 209.618 277.102 209.618 267.446 204.788L233.007 187.578C223.345 182.748 223.345 174.923 233.007 170.098L269.783 151.724C279.445 146.894 295.106 146.894 304.762 151.724L339.201 168.934C348.863 173.764 348.863 181.588 339.201 186.413Z" fill="#A7B1F2"/>
<path opacity="0.36" d="M341.687 185.171L304.911 203.546C295.249 208.376 279.588 208.376 269.932 203.546L235.493 186.336C225.831 181.506 225.831 173.681 235.493 168.857L272.269 150.482C281.931 145.652 297.592 145.652 307.248 150.482L341.687 167.692C351.349 172.522 351.349 180.346 341.687 185.171Z" fill="#A7B1F2"/>
<path opacity="0.45" d="M344.173 183.929L307.396 202.304C297.734 207.134 282.074 207.134 272.418 202.304L237.978 185.094C228.317 180.264 228.317 172.439 237.978 167.615L274.755 149.24C284.416 144.41 300.077 144.41 309.733 149.24L344.173 166.45C353.834 171.28 353.834 179.105 344.173 183.929Z" fill="#A7B1F2"/>
<path opacity="0.55" d="M346.658 182.687L309.881 201.062C300.22 205.892 284.559 205.892 274.903 201.062L240.463 183.852C230.802 179.022 230.802 171.197 240.463 166.373L277.24 147.998C286.902 143.168 302.562 143.168 312.218 147.998L346.658 165.208C356.319 170.038 356.319 177.863 346.658 182.687Z" fill="#A7B1F2"/>
<path opacity="0.64" d="M349.143 181.44L312.367 199.815C302.705 204.645 287.044 204.645 277.388 199.815L242.949 182.605C233.287 177.775 233.287 169.95 242.949 165.126L279.725 146.751C289.387 141.921 305.048 141.921 314.704 146.751L349.143 163.961C358.805 168.791 358.805 176.615 349.143 181.44Z" fill="#A7B1F2"/>
<path opacity="0.73" d="M351.629 180.198L314.852 198.573C305.191 203.403 289.53 203.403 279.874 198.573L245.434 181.363C235.773 176.533 235.773 168.708 245.434 163.884L282.211 145.509C291.872 140.679 307.533 140.679 317.189 145.509L351.629 162.719C361.29 167.549 361.29 175.374 351.629 180.198Z" fill="#A7B1F2"/>
<path opacity="0.82" d="M354.114 178.956L317.338 197.331C307.676 202.161 292.016 202.161 282.36 197.331L247.92 180.121C238.258 175.291 238.258 167.466 247.92 162.642L284.697 144.267C294.358 139.437 310.019 139.437 319.675 144.267L354.114 161.477C363.776 166.307 363.776 174.132 354.114 178.956Z" fill="#A7B1F2"/>
<path opacity="0.91" d="M356.6 177.714L319.823 196.089C310.162 200.919 294.501 200.919 284.845 196.089L250.405 178.879C240.744 174.049 240.744 166.224 250.405 161.4L287.182 143.025C296.843 138.195 312.504 138.195 322.16 143.025L356.6 160.235C366.261 165.065 366.261 172.89 356.6 177.714Z" fill="#A7B1F2"/>
<path d="M359.085 176.473L322.309 194.847C312.647 199.677 296.986 199.677 287.33 194.847L252.891 177.637C243.229 172.807 243.229 164.983 252.891 160.158L289.667 141.783C299.329 136.953 314.99 136.953 324.646 141.783L359.085 158.993C368.747 163.823 368.747 171.648 359.085 176.473Z" fill="#A7B1F2"/>
</g>
<path d="M359.085 114.001L324.646 96.7914C314.984 91.9614 299.324 91.9614 289.668 96.7914L252.891 115.166C248.063 117.579 245.649 120.744 245.649 123.909V168.895C245.649 172.06 248.063 175.22 252.891 177.638L287.33 194.848C296.992 199.678 312.653 199.678 322.309 194.848L359.085 176.473C363.913 174.06 366.328 170.895 366.328 167.73V122.744C366.328 119.579 363.913 116.419 359.085 114.001Z" fill="url(#paint10_linear_732_17908)"/>
<path d="M359.085 131.486L322.309 149.861C312.647 154.691 296.986 154.691 287.33 149.861L252.891 132.651C243.229 127.821 243.229 119.996 252.891 115.172L289.667 96.7971C299.329 91.9671 314.99 91.9671 324.646 96.7971L359.085 114.007C368.747 118.837 368.747 126.662 359.085 131.486Z" fill="url(#paint11_linear_732_17908)"/>
<path d="M337.711 128.2L315.743 139.179C309.969 142.064 300.616 142.064 294.842 139.179L274.265 128.898C268.491 126.013 268.491 121.337 274.265 118.452L296.233 107.473C302.007 104.589 311.36 104.589 317.134 107.473L337.711 117.754C343.485 120.639 343.485 125.315 337.711 128.2Z" fill="url(#paint12_linear_732_17908)"/>
<path d="M284.361 133.942L294.842 139.179C300.616 142.064 309.969 142.064 315.743 139.179L327.621 133.244V123.326H284.361V133.942Z" fill="url(#paint13_linear_732_17908)"/>
<path d="M325.025 126.249L311.844 132.838C308.38 134.569 302.766 134.569 299.307 132.838L286.962 126.667C283.498 124.936 283.498 122.128 286.962 120.403L300.143 113.815C303.607 112.084 309.221 112.084 312.68 113.815L325.025 119.985C328.49 121.716 328.49 124.524 325.025 126.249Z" fill="url(#paint14_linear_732_17908)"/>
<path d="M253.545 159.889L295.117 180.665C296.844 181.528 298.246 183.627 298.246 185.352C298.246 187.078 296.844 187.775 295.117 186.913L253.545 166.137C251.819 165.274 250.417 163.175 250.417 161.449C250.417 159.724 251.819 159.026 253.545 159.889Z" fill="#42EAFF"/>
<path d="M281.925 178L294.974 184.523C295.419 184.742 295.777 184.567 295.777 184.122C295.777 183.676 295.419 183.138 294.974 182.918L281.925 176.396C281.479 176.176 281.122 176.352 281.122 176.797C281.122 177.242 281.479 177.78 281.925 178ZM263.091 168.588L268.365 171.225C268.81 171.445 269.167 171.269 269.167 170.824C269.167 170.379 268.81 169.84 268.365 169.621L263.091 166.983C262.646 166.763 262.288 166.939 262.288 167.384C262.288 167.829 262.646 168.368 263.091 168.588ZM253.688 163.889L258.967 166.527C259.412 166.747 259.77 166.571 259.77 166.126C259.77 165.681 259.412 165.142 258.967 164.922L253.688 162.285C253.243 162.065 252.885 162.241 252.885 162.686C252.885 163.131 253.243 163.67 253.688 163.889Z" fill="white"/>
<path d="M253.545 150.965L295.117 171.741C296.844 172.604 298.246 174.703 298.246 176.429C298.246 178.154 296.844 178.852 295.117 177.989L253.545 157.213C251.819 156.35 250.417 154.251 250.417 152.526C250.417 150.8 251.819 150.103 253.545 150.965Z" fill="#32B4FF"/>
<path d="M281.925 169.076L294.974 175.599C295.419 175.819 295.777 175.643 295.777 175.198C295.777 174.753 295.419 174.214 294.974 173.994L281.925 167.472C281.479 167.252 281.122 167.428 281.122 167.873C281.122 168.318 281.479 168.857 281.925 169.076ZM263.091 159.664L268.365 162.301C268.81 162.521 269.167 162.345 269.167 161.9C269.167 161.455 268.81 160.917 268.365 160.697L263.091 158.059C262.646 157.839 262.288 158.015 262.288 158.46C262.288 158.905 262.646 159.444 263.091 159.664ZM253.688 154.966L258.967 157.603C259.412 157.823 259.77 157.647 259.77 157.202C259.77 156.757 259.412 156.218 258.967 155.999L253.688 153.361C253.243 153.141 252.885 153.317 252.885 153.762C252.885 154.207 253.243 154.746 253.688 154.966Z" fill="#42EAFF"/>
<path d="M253.545 142.036L295.117 162.812C296.844 163.675 298.246 165.774 298.246 167.499C298.246 169.225 296.844 169.923 295.117 169.06L253.545 148.284C251.819 147.421 250.417 145.322 250.417 143.597C250.417 141.871 251.819 141.173 253.545 142.036Z" fill="#32B4FF"/>
<path d="M281.925 160.147L294.974 166.67C295.419 166.889 295.777 166.714 295.777 166.269C295.777 165.823 295.419 165.285 294.974 165.065L281.925 158.543C281.479 158.323 281.122 158.499 281.122 158.944C281.122 159.389 281.479 159.927 281.925 160.147ZM263.091 150.735L268.365 153.372C268.81 153.592 269.167 153.416 269.167 152.971C269.167 152.526 268.81 151.987 268.365 151.768L263.091 149.13C262.646 148.91 262.288 149.086 262.288 149.531C262.288 149.976 262.646 150.515 263.091 150.735ZM253.688 146.036L258.967 148.674C259.412 148.894 259.77 148.718 259.77 148.273C259.77 147.828 259.412 147.289 258.967 147.069L253.688 144.432C253.243 144.212 252.885 144.388 252.885 144.833C252.885 145.278 253.243 145.817 253.688 146.036Z" fill="white"/>
<path d="M358.436 159.889L316.865 180.665C315.138 181.528 313.736 183.627 313.736 185.352C313.736 187.078 315.138 187.775 316.865 186.913L358.436 166.137C360.163 165.274 361.565 163.175 361.565 161.449C361.565 159.724 360.163 159.026 358.436 159.889Z" fill="#5943FF"/>
<path d="M330.859 176.797C330.859 176.352 330.502 176.17 330.056 176.396L317.007 182.918C316.562 183.138 316.205 183.682 316.205 184.122C316.205 184.561 316.562 184.748 317.007 184.523L330.056 178C330.502 177.78 330.859 177.236 330.859 176.797ZM349.693 167.384C349.693 166.939 349.335 166.758 348.89 166.983L343.617 169.621C343.171 169.84 342.814 170.384 342.814 170.824C342.814 171.264 343.171 171.45 343.617 171.225L348.89 168.588C349.335 168.368 349.693 167.824 349.693 167.384ZM359.096 162.686C359.096 162.241 358.738 162.06 358.293 162.285L353.014 164.922C352.569 165.142 352.211 165.686 352.211 166.126C352.211 166.565 352.569 166.752 353.014 166.527L358.293 163.889C358.738 163.67 359.096 163.126 359.096 162.686Z" fill="white"/>
<path d="M358.436 150.965L316.865 171.741C315.138 172.604 313.736 174.703 313.736 176.429C313.736 178.154 315.138 178.852 316.865 177.989L358.436 157.213C360.163 156.35 361.565 154.251 361.565 152.526C361.565 150.8 360.163 150.103 358.436 150.965Z" fill="#32B4FF"/>
<path d="M330.859 167.868C330.859 167.423 330.502 167.241 330.056 167.467L317.007 173.989C316.562 174.209 316.205 174.753 316.205 175.192C316.205 175.632 316.562 175.819 317.007 175.593L330.056 169.071C330.502 168.851 330.859 168.307 330.859 167.868ZM349.693 158.455C349.693 158.01 349.335 157.829 348.89 158.054L343.617 160.691C343.171 160.911 342.814 161.455 342.814 161.895C342.814 162.334 343.171 162.521 343.617 162.296L348.89 159.658C349.335 159.439 349.693 158.895 349.693 158.455ZM359.096 153.757C359.096 153.312 358.738 153.13 358.293 153.356L353.014 155.993C352.569 156.213 352.211 156.757 352.211 157.197C352.211 157.636 352.569 157.823 353.014 157.598L358.293 154.96C358.738 154.74 359.096 154.196 359.096 153.757Z" fill="#42EAFF"/>
<path d="M358.436 142.036L316.865 162.812C315.138 163.675 313.736 165.774 313.736 167.499C313.736 169.225 315.138 169.923 316.865 169.06L358.436 148.284C360.163 147.421 361.565 145.322 361.565 143.597C361.565 141.871 360.163 141.173 358.436 142.036Z" fill="#42EAFF"/>
<path d="M330.859 158.944C330.859 158.499 330.502 158.317 330.056 158.543L317.007 165.065C316.562 165.285 316.205 165.829 316.205 166.269C316.205 166.708 316.562 166.895 317.007 166.67L330.056 160.147C330.502 159.927 330.859 159.383 330.859 158.944ZM349.693 149.531C349.693 149.086 349.335 148.905 348.89 149.13L343.617 151.768C343.171 151.987 342.814 152.531 342.814 152.971C342.814 153.41 343.171 153.597 343.617 153.372L348.89 150.734C349.335 150.515 349.693 149.971 349.693 149.531ZM359.096 144.833C359.096 144.388 358.738 144.207 358.293 144.432L353.014 147.069C352.569 147.289 352.211 147.833 352.211 148.273C352.211 148.712 352.569 148.899 353.014 148.674L358.293 146.036C358.738 145.817 359.096 145.273 359.096 144.833Z" fill="white"/>
<g style="mix-blend-mode:multiply">
<path opacity="0.09" d="M471.576 120.881L434.799 139.256C425.138 144.086 409.477 144.086 399.821 139.256L365.381 122.046C355.72 117.216 355.72 109.391 365.381 104.567L402.158 86.1918C411.82 81.3618 427.48 81.3618 437.136 86.1918L471.576 103.402C481.237 108.232 481.237 116.056 471.576 120.881Z" fill="#A7B1F2"/>
<path opacity="0.18" d="M474.067 119.639L437.291 138.014C427.629 142.844 411.968 142.844 402.312 138.014L367.873 120.804C358.211 115.974 358.211 108.15 367.873 103.325L404.649 84.9501C414.311 80.1201 429.972 80.1201 439.628 84.9501L474.067 102.16C483.729 106.99 483.729 114.815 474.067 119.639Z" fill="#A7B1F2"/>
<path opacity="0.27" d="M476.552 118.397L439.776 136.772C430.114 141.602 414.454 141.602 404.797 136.772L370.358 119.562C360.696 114.732 360.696 106.908 370.358 102.083L407.134 83.7082C416.796 78.8782 432.457 78.8782 442.113 83.7082L476.552 100.918C486.214 105.748 486.214 113.573 476.552 118.397Z" fill="#A7B1F2"/>
<path opacity="0.36" d="M479.038 117.156L442.261 135.531C432.6 140.361 416.939 140.361 407.283 135.531L372.843 118.321C363.182 113.491 363.182 105.666 372.843 100.841L409.62 82.4665C419.281 77.6365 434.942 77.6365 444.598 82.4665L479.038 99.6765C488.699 104.506 488.699 112.331 479.038 117.156Z" fill="#A7B1F2"/>
<path opacity="0.45" d="M481.524 115.914L444.747 134.289C435.086 139.119 419.425 139.119 409.769 134.289L375.329 117.079C365.668 112.249 365.668 104.424 375.329 99.5994L412.106 81.2245C421.767 76.3946 437.428 76.3946 447.084 81.2245L481.524 98.4345C491.185 103.265 491.185 111.089 481.524 115.914Z" fill="#A7B1F2"/>
<path opacity="0.55" d="M484.009 114.672L447.232 133.047C437.571 137.877 421.91 137.877 412.254 133.047L377.815 115.837C368.153 111.007 368.153 103.182 377.815 98.3575L414.591 79.9826C424.253 75.1526 439.913 75.1526 449.569 79.9826L484.009 97.1926C493.671 102.023 493.671 109.847 484.009 114.672Z" fill="#A7B1F2"/>
<path opacity="0.64" d="M486.494 113.43L449.718 131.805C440.056 136.635 424.395 136.635 414.739 131.805L380.3 114.595C370.638 109.765 370.638 101.94 380.3 97.1158L417.076 78.7409C426.738 73.9109 442.399 73.9109 452.055 78.7409L486.494 95.9509C496.156 100.781 496.156 108.606 486.494 113.43Z" fill="#A7B1F2"/>
<path opacity="0.73" d="M488.98 112.188L452.204 130.563C442.542 135.393 426.881 135.393 417.225 130.563L382.786 113.353C373.124 108.523 373.124 100.698 382.786 95.8738L419.562 77.499C429.224 72.669 444.885 72.669 454.541 77.499L488.98 94.7089C498.642 99.5389 498.642 107.364 488.98 112.188Z" fill="#A7B1F2"/>
<path opacity="0.82" d="M491.466 110.946L454.689 129.321C445.027 134.151 429.367 134.151 419.711 129.321L385.271 112.111C375.61 107.281 375.61 99.4564 385.271 94.6319L422.048 76.257C431.709 71.427 447.37 71.427 457.026 76.257L491.466 93.467C501.127 98.297 501.127 106.122 491.466 110.946Z" fill="#A7B1F2"/>
<path opacity="0.91" d="M493.951 109.704L457.174 128.079C447.513 132.909 431.852 132.909 422.196 128.079L387.756 110.869C378.095 106.039 378.095 98.2147 387.756 93.3902L424.533 75.0153C434.195 70.1853 449.855 70.1853 459.511 75.0153L493.951 92.2253C503.612 97.0553 503.612 104.88 493.951 109.704Z" fill="#A7B1F2"/>
<path d="M496.437 108.463L459.66 126.837C449.999 131.667 434.338 131.667 424.682 126.837L390.242 109.627C380.581 104.797 380.581 96.9728 390.242 92.1483L427.019 73.7734C436.68 68.9434 452.341 68.9434 461.997 73.7734L496.437 90.9833C506.098 95.8133 506.098 103.638 496.437 108.463Z" fill="#A7B1F2"/>
</g>
<path d="M496.437 45.9911L461.997 28.7812C452.335 23.9512 436.675 23.9512 427.019 28.7812L390.242 47.1616C385.414 49.5738 383 52.7389 383 55.9039V100.89C383 104.056 385.414 107.215 390.242 109.633L424.682 126.843C434.343 131.673 450.004 131.673 459.66 126.843L496.437 108.468C501.265 106.056 503.679 102.891 503.679 99.7256V54.7335C503.679 51.5685 501.265 48.4089 496.437 45.9911Z" fill="url(#paint15_linear_732_17908)"/>
<path d="M496.437 63.4704L459.66 81.8452C449.999 86.6752 434.338 86.6752 424.682 81.8452L390.242 64.6353C380.581 59.8053 380.581 51.9806 390.242 47.1561L427.019 28.7812C436.68 23.9512 452.341 23.9512 461.997 28.7812L496.437 45.9911C506.098 50.8211 506.098 58.6459 496.437 63.4704Z" fill="url(#paint16_linear_732_17908)"/>
<path d="M475.063 60.1899L453.095 71.1686C447.321 74.0534 437.967 74.0534 432.193 71.1686L411.617 60.8877C405.843 58.0029 405.843 53.3267 411.617 50.4419L433.585 39.4632C439.358 36.5784 448.712 36.5784 454.486 39.4632L475.063 49.7441C480.836 52.6289 480.836 57.305 475.063 60.1899Z" fill="url(#paint17_linear_732_17908)"/>
<path d="M421.712 65.9323L432.193 71.1689C437.967 74.0537 447.321 74.0537 453.095 71.1689L464.972 65.2344V55.3162H421.712V65.9323Z" fill="url(#paint18_linear_732_17908)"/>
<path d="M462.377 58.2392L449.196 64.8275C445.732 66.5584 440.117 66.5584 436.659 64.8275L424.314 58.6568C420.849 56.9259 420.849 54.118 424.314 52.3926L437.494 45.8043C440.959 44.0734 446.573 44.0734 450.032 45.8043L462.377 51.975C465.841 53.7059 465.841 56.5138 462.377 58.2392Z" fill="url(#paint19_linear_732_17908)"/>
<path d="M390.896 91.8786L432.468 112.655C434.195 113.517 435.597 115.616 435.597 117.342C435.597 119.067 434.195 119.765 432.468 118.902L390.896 98.1263C389.17 97.2636 387.768 95.1646 387.768 93.4392C387.768 91.7138 389.17 91.0159 390.896 91.8786Z" fill="#42EAFF"/>
<path d="M419.276 109.99L432.325 116.512C432.77 116.732 433.128 116.556 433.128 116.111C433.128 115.666 432.77 115.128 432.325 114.908L419.276 108.386C418.831 108.166 418.473 108.342 418.473 108.787C418.473 109.232 418.831 109.77 419.276 109.99ZM400.442 100.577L405.716 103.215C406.161 103.435 406.519 103.259 406.519 102.814C406.519 102.369 406.161 101.83 405.716 101.61L400.442 98.9728C399.997 98.753 399.639 98.9288 399.639 99.3739C399.639 99.819 399.997 100.357 400.442 100.577ZM391.039 95.8792L396.318 98.5167C396.764 98.7365 397.121 98.5607 397.121 98.1156C397.121 97.6705 396.764 97.132 396.318 96.9122L391.039 94.2747C390.594 94.0549 390.236 94.2307 390.236 94.6758C390.236 95.1209 390.594 95.6594 391.039 95.8792Z" fill="white"/>
<path d="M390.896 82.9494L432.468 103.726C434.195 104.588 435.597 106.687 435.597 108.413C435.597 110.138 434.195 110.836 432.468 109.973L390.896 89.1971C389.17 88.3344 387.768 86.2354 387.768 84.51C387.768 82.7846 389.17 82.0867 390.896 82.9494Z" fill="#5943FF"/>
<path d="M419.276 101.061L432.325 107.583C432.77 107.803 433.128 107.627 433.128 107.182C433.128 106.737 432.77 106.199 432.325 105.979L419.276 99.4563C418.831 99.2365 418.473 99.4124 418.473 99.8574C418.473 100.303 418.831 100.841 419.276 101.061ZM400.442 91.6481L405.716 94.2856C406.161 94.5054 406.519 94.3296 406.519 93.8845C406.519 93.4394 406.161 92.9009 405.716 92.6811L400.442 90.0436C399.997 89.8238 399.639 89.9996 399.639 90.4447C399.639 90.8898 399.997 91.4283 400.442 91.6481ZM391.039 86.95L396.318 89.5875C396.764 89.8073 397.121 89.6315 397.121 89.1864C397.121 88.7413 396.764 88.2028 396.318 87.983L391.039 85.3455C390.594 85.1257 390.236 85.3015 390.236 85.7466C390.236 86.1917 390.594 86.7302 391.039 86.95Z" fill="#42EAFF"/>
<path d="M390.896 74.0258L432.468 94.802C434.195 95.6647 435.597 97.7637 435.597 99.4891C435.597 101.214 434.195 101.912 432.468 101.05L390.896 80.2735C389.17 79.4108 387.768 77.3118 387.768 75.5864C387.768 73.861 389.17 73.1631 390.896 74.0258Z" fill="#32B4FF"/>
<path d="M419.276 92.137L432.325 98.6594C432.77 98.8792 433.128 98.7034 433.128 98.2583C433.128 97.8132 432.77 97.2747 432.325 97.0549L419.276 90.5325C418.831 90.3127 418.473 90.4885 418.473 90.9336C418.473 91.3787 418.831 91.9172 419.276 92.137ZM400.442 82.7243L405.716 85.3618C406.161 85.5816 406.519 85.4058 406.519 84.9607C406.519 84.5156 406.161 83.9771 405.716 83.7573L400.442 81.1198C399.997 80.9 399.639 81.0758 399.639 81.5209C399.639 81.966 399.997 82.5045 400.442 82.7243ZM391.039 78.0261L396.318 80.6637C396.764 80.8835 397.121 80.7076 397.121 80.2626C397.121 79.8175 396.764 79.279 396.318 79.0592L391.039 76.4216C390.594 76.2018 390.236 76.3777 390.236 76.8228C390.236 77.2678 390.594 77.8063 391.039 78.0261Z" fill="white"/>
<path d="M495.788 91.8786L454.216 112.655C452.49 113.517 451.087 115.616 451.087 117.342C451.087 119.067 452.49 119.765 454.216 118.902L495.788 98.1263C497.514 97.2636 498.917 95.1646 498.917 93.4392C498.917 91.7138 497.514 91.0159 495.788 91.8786Z" fill="#BFCFFF"/>
<path d="M468.211 108.781C468.211 108.336 467.853 108.155 467.408 108.38L454.359 114.902C453.914 115.122 453.556 115.666 453.556 116.106C453.556 116.545 453.914 116.732 454.359 116.507L467.408 109.984C467.853 109.765 468.211 109.221 468.211 108.781ZM487.044 99.3738C487.044 98.9287 486.687 98.7473 486.242 98.9726L480.968 101.61C480.523 101.83 480.165 102.374 480.165 102.814C480.165 103.253 480.523 103.44 480.968 103.215L486.242 100.577C486.687 100.357 487.044 99.8134 487.044 99.3738ZM496.447 94.6701C496.447 94.2251 496.09 94.0437 495.645 94.269L490.366 96.9066C489.92 97.1264 489.563 97.6703 489.563 98.1099C489.563 98.5495 489.92 98.7364 490.366 98.5111L495.645 95.8735C496.09 95.6537 496.447 95.1097 496.447 94.6701Z" fill="white"/>
<path d="M495.788 82.9494L454.216 103.726C452.49 104.588 451.087 106.687 451.087 108.413C451.087 110.138 452.49 110.836 454.216 109.973L495.788 89.1971C497.514 88.3344 498.917 86.2354 498.917 84.51C498.917 82.7846 497.514 82.0867 495.788 82.9494Z" fill="#32B4FF"/>
<path d="M468.211 99.8574C468.211 99.4123 467.853 99.231 467.408 99.4563L454.359 105.979C453.914 106.199 453.556 106.742 453.556 107.182C453.556 107.622 453.914 107.809 454.359 107.583L467.408 101.061C467.853 100.841 468.211 100.297 468.211 99.8574ZM487.044 90.4447C487.044 89.9996 486.687 89.8183 486.242 90.0436L480.968 92.6811C480.523 92.9009 480.165 93.4449 480.165 93.8845C480.165 94.3241 480.523 94.5109 480.968 94.2856L486.242 91.6481C486.687 91.4283 487.044 90.8843 487.044 90.4447ZM496.447 85.7466C496.447 85.3015 496.09 85.1201 495.645 85.3454L490.366 87.983C489.92 88.2028 489.563 88.7468 489.563 89.1864C489.563 89.6259 489.92 89.8128 490.366 89.5875L495.645 86.9499C496.09 86.7301 496.447 86.1862 496.447 85.7466Z" fill="#42EAFF"/>
<path d="M495.788 74.0258L454.216 94.802C452.49 95.6647 451.087 97.7637 451.087 99.4891C451.087 101.214 452.49 101.912 454.216 101.05L495.788 80.2735C497.514 79.4108 498.917 77.3118 498.917 75.5864C498.917 73.861 497.514 73.1631 495.788 74.0258Z" fill="#42EAFF"/>
<path d="M468.211 90.9282C468.211 90.4831 467.853 90.3018 467.408 90.5271L454.359 97.0495C453.914 97.2693 453.556 97.8133 453.556 98.2529C453.556 98.6925 453.914 98.8793 454.359 98.654L467.408 92.1316C467.853 91.9118 468.211 91.3678 468.211 90.9282ZM487.044 81.521C487.044 81.0759 486.687 80.8946 486.242 81.1199L480.968 83.7574C480.523 83.9772 480.165 84.5212 480.165 84.9608C480.165 85.4004 480.523 85.5872 480.968 85.3619L486.242 82.7244C486.687 82.5046 487.044 81.9606 487.044 81.521ZM496.447 76.8174C496.447 76.3723 496.09 76.1909 495.645 76.4162L490.366 79.0538C489.92 79.2736 489.563 79.8176 489.563 80.2572C489.563 80.6967 489.92 80.8836 490.366 80.6583L495.645 78.0207C496.09 77.8009 496.447 77.257 496.447 76.8174Z" fill="white"/>
<g style="mix-blend-mode:multiply">
<path opacity="0.09" d="M455.558 280.381L407.195 304.547C394.493 310.894 373.894 310.894 361.192 304.547L315.903 281.914C303.2 275.567 303.2 265.27 315.903 258.923L364.266 234.757C376.968 228.41 397.567 228.41 410.269 234.757L455.558 257.39C468.26 263.737 468.26 274.034 455.558 280.381Z" fill="#A7B1F2"/>
<path opacity="0.18" d="M461.326 277.496L412.963 301.662C400.261 308.009 379.662 308.009 366.96 301.662L321.671 279.029C308.968 272.682 308.968 262.385 321.671 256.038L370.034 231.872C382.736 225.525 403.335 225.525 416.037 231.872L461.326 254.505C474.029 260.852 474.029 271.149 461.326 277.496Z" fill="#A7B1F2"/>
<path opacity="0.27" d="M467.095 274.617L418.732 298.783C406.03 305.13 385.431 305.13 372.728 298.783L327.439 276.15C314.737 269.803 314.737 259.506 327.439 253.159L375.802 228.993C388.505 222.646 409.103 222.646 421.806 228.993L467.095 251.626C479.797 257.973 479.797 268.27 467.095 274.617Z" fill="#A7B1F2"/>
<path opacity="0.36" d="M472.863 271.732L424.5 295.898C411.798 302.245 391.199 302.245 378.496 295.898L333.207 273.265C320.505 266.918 320.505 256.621 333.207 250.274L381.57 226.108C394.273 219.761 414.871 219.761 427.574 226.108L472.863 248.741C485.565 255.088 485.565 265.385 472.863 271.732Z" fill="#A7B1F2"/>
<path opacity="0.45" d="M478.631 268.847L430.269 293.014C417.566 299.36 396.967 299.36 384.265 293.014L338.976 270.38C326.274 264.034 326.274 253.736 338.976 247.39L387.339 223.223C400.041 216.876 420.64 216.876 433.342 223.223L478.631 245.856C491.334 252.203 491.334 262.5 478.631 268.847Z" fill="#A7B1F2"/>
<path opacity="0.55" d="M484.405 265.968L436.042 290.134C423.34 296.481 402.741 296.481 390.039 290.134L344.75 267.501C332.048 261.154 332.048 250.857 344.75 244.51L393.113 220.344C405.815 213.997 426.414 213.997 439.116 220.344L484.405 242.977C497.108 249.324 497.108 259.621 484.405 265.968Z" fill="#A7B1F2"/>
<path opacity="0.64" d="M490.173 263.083L441.811 287.249C429.108 293.596 408.509 293.596 395.807 287.249L350.518 264.616C337.816 258.269 337.816 247.972 350.518 241.625L398.881 217.459C411.583 211.112 432.182 211.112 444.884 217.459L490.173 240.092C502.876 246.439 502.876 256.736 490.173 263.083Z" fill="#A7B1F2"/>
<path opacity="0.73" d="M495.942 260.198L447.579 284.365C434.877 290.711 414.278 290.711 401.575 284.365L356.287 261.731C343.584 255.385 343.584 245.087 356.287 238.741L404.649 214.574C417.352 208.228 437.951 208.228 450.653 214.574L495.942 237.208C508.644 243.554 508.644 253.852 495.942 260.198Z" fill="#A7B1F2"/>
<path opacity="0.82" d="M501.71 257.319L453.347 281.485C440.645 287.832 420.046 287.832 407.343 281.485L362.055 258.852C349.352 252.505 349.352 242.208 362.055 235.861L410.417 211.695C423.12 205.348 443.719 205.348 456.421 211.695L501.71 234.328C514.412 240.675 514.412 250.972 501.71 257.319Z" fill="#A7B1F2"/>
<path opacity="0.91" d="M507.478 254.434L459.116 278.6C446.413 284.947 425.814 284.947 413.112 278.6L367.823 255.967C355.121 249.62 355.121 239.323 367.823 232.976L416.186 208.81C428.888 202.463 449.487 202.463 462.19 208.81L507.478 231.443C520.181 237.79 520.181 248.087 507.478 254.434Z" fill="#A7B1F2"/>
<path d="M513.247 251.549L464.884 275.716C452.182 282.062 431.583 282.062 418.881 275.716L373.592 253.082C360.889 246.736 360.889 236.438 373.592 230.092L421.954 205.925C434.657 199.579 455.256 199.579 467.958 205.925L513.247 228.559C525.949 234.905 525.949 245.203 513.247 251.549Z" fill="#A7B1F2"/>
</g>
<path d="M513.043 140.129L467.947 117.589C455.299 111.27 434.788 111.27 422.136 117.589L373.976 141.657C367.653 144.817 364.491 148.96 364.491 153.103V241.735C364.491 245.878 367.653 250.022 373.976 253.181L419.073 275.721C431.72 282.04 452.231 282.04 464.884 275.721L513.043 251.654C519.367 248.494 522.529 244.351 522.529 240.208V151.575C522.529 147.432 519.367 143.289 513.043 140.129Z" fill="url(#paint20_linear_732_17908)"/>
<path d="M513.043 161.636L464.884 185.704C452.236 192.023 431.726 192.023 419.073 185.704L373.976 163.164C361.329 156.845 361.329 146.591 373.976 140.272L422.136 116.205C434.783 109.886 455.294 109.886 467.947 116.205L513.043 138.745C525.691 145.064 525.691 155.317 513.043 161.636Z" fill="url(#paint21_linear_732_17908)"/>
<path d="M513.043 105.209L467.947 82.6695C455.299 76.3504 434.788 76.3504 422.136 82.6695L373.976 106.737C367.653 109.897 364.491 114.04 364.491 118.183V144.377C364.491 148.52 367.653 152.663 373.976 155.823L419.073 178.363C431.72 184.682 452.231 184.682 464.884 178.363L513.043 154.295C519.367 151.136 522.529 146.993 522.529 142.849V116.655C522.529 112.512 519.367 108.369 513.043 105.209Z" fill="url(#paint22_linear_732_17908)"/>
<path d="M513.043 126.711L464.884 150.779C452.236 157.098 431.726 157.098 419.073 150.779L373.976 128.239C361.329 121.92 361.329 111.666 373.976 105.347L422.136 81.2794C434.783 74.9603 455.294 74.9603 467.947 81.2794L513.043 103.819C525.691 110.138 525.691 120.392 513.043 126.711Z" fill="url(#paint23_linear_732_17908)"/>
<path d="M513.043 70.284L467.947 47.744C455.299 41.4249 434.788 41.4249 422.136 47.744L373.976 71.8115C367.653 74.9711 364.491 79.1142 364.491 83.2574V109.451C364.491 113.595 367.653 117.738 373.976 120.897L419.073 143.437C431.72 149.756 452.231 149.756 464.884 143.437L513.043 119.37C519.367 116.21 522.529 112.067 522.529 107.924V81.7298C522.529 77.5867 519.367 73.4435 513.043 70.284Z" fill="url(#paint24_linear_732_17908)"/>
<path d="M513.043 91.7909L464.884 115.858C452.236 122.178 431.726 122.178 419.073 115.858L373.976 93.3184C361.329 86.9993 361.329 76.7459 373.976 70.4268L422.136 46.3592C434.783 40.0401 455.294 40.0401 467.947 46.3592L513.043 68.8992C525.691 75.2183 525.691 85.4718 513.043 91.7909Z" fill="url(#paint25_linear_732_17908)"/>
<path d="M485.23 87.5161L456.333 101.957C448.744 105.748 436.438 105.748 428.85 101.957L401.789 88.4337C394.201 84.6422 394.201 78.4935 401.789 74.6965L430.686 60.256C438.275 56.4645 450.581 56.4645 458.17 60.256L485.23 73.7789C492.818 77.5703 492.818 83.7191 485.23 87.5161Z" fill="url(#paint26_linear_732_17908)"/>
<path d="M415.058 95.0659L428.844 101.956C436.432 105.748 448.739 105.748 456.327 101.956L471.95 94.1482V81.1089H415.053V95.0659H415.058Z" fill="url(#paint27_linear_732_17908)"/>
<path d="M468.541 84.9553L451.203 93.6207C446.65 95.8956 439.265 95.8956 434.711 93.6207L418.479 85.5048C413.926 83.2299 413.926 79.5373 418.479 77.2625L435.817 68.597C440.37 66.3221 447.755 66.3221 452.308 68.597L468.541 76.713C473.094 78.9878 473.094 82.6804 468.541 84.9553Z" fill="url(#paint28_linear_732_17908)"/>
<path d="M374.977 110.039L380.635 112.869V107.215L374.977 104.385V110.039ZM385.243 115.171L390.902 118.001V112.347L385.243 109.517V115.171ZM395.51 120.304L401.168 123.134V117.479L395.51 114.649V120.304ZM405.771 125.43L411.429 128.26V122.606L405.771 119.776V125.43ZM416.037 124.908V130.563L421.696 133.392V127.738L416.037 124.908Z" fill="#5B78E6"/>
<path d="M374.977 145.778L380.635 148.608V142.954L374.977 140.124V145.778ZM385.243 150.91L390.902 153.74V148.086L385.243 145.256V150.91ZM395.51 156.037L401.168 158.867V153.213L395.51 150.383V156.037ZM405.771 161.169L411.429 163.999V158.345L405.771 155.515V161.169ZM416.037 160.647V166.302L421.696 169.131V163.477L416.037 160.647Z" fill="#5B78E6"/>
<path d="M374.977 180.533L380.635 183.363V177.709L374.977 174.879V180.533ZM385.243 185.665L390.902 188.495V182.841L385.243 180.011V185.665ZM395.51 190.798L401.168 193.627V187.973L395.51 185.143V190.798ZM405.771 195.924L411.429 198.754V193.1L405.771 190.27V195.924ZM416.037 195.402V201.057L421.696 203.886V198.232L416.037 195.402Z" fill="#5B78E6"/>
<path d="M356.589 251.434L322.149 234.224C312.488 229.394 296.827 229.394 287.171 234.224L250.394 252.599C245.566 255.011 243.152 258.176 243.152 261.341V306.328C243.152 309.493 245.566 312.652 250.394 315.07L284.834 332.28C294.495 337.11 310.156 337.11 319.812 332.28L356.583 313.905C361.411 311.493 363.831 308.328 363.831 305.163V260.176C363.831 257.011 361.417 253.852 356.583 251.434H356.589Z" fill="url(#paint29_linear_732_17908)"/>
<path d="M356.589 268.918L319.812 287.293C310.15 292.123 294.49 292.123 284.834 287.293L250.394 270.083C240.733 265.253 240.733 257.429 250.394 252.604L287.171 234.229C296.832 229.399 312.493 229.399 322.149 234.229L356.589 251.439C366.25 256.269 366.25 264.094 356.589 268.918Z" fill="url(#paint30_linear_732_17908)"/>
<path d="M335.22 265.632L313.252 276.611C307.478 279.496 298.124 279.496 292.351 276.611L271.774 266.33C266 263.446 266 258.769 271.774 255.885L293.742 244.906C299.516 242.021 308.869 242.021 314.643 244.906L335.22 255.187C340.994 258.072 340.994 262.748 335.22 265.632Z" fill="url(#paint31_linear_732_17908)"/>
<path d="M281.864 271.375L292.345 276.612C298.119 279.496 307.473 279.496 313.246 276.612L325.124 270.677V260.759H281.864V271.375Z" fill="url(#paint32_linear_732_17908)"/>
<path d="M322.529 263.682L309.348 270.27C305.884 272.001 300.269 272.001 296.81 270.27L284.465 264.099C281.001 262.369 281.001 259.561 284.465 257.835L297.646 251.247C301.111 249.516 306.725 249.516 310.184 251.247L322.529 257.418C325.993 259.149 325.993 261.956 322.529 263.682Z" fill="url(#paint33_linear_732_17908)"/>
<path d="M630.521 251.274L596.081 234.064C586.42 229.234 570.759 229.234 561.103 234.064L524.326 252.445C519.498 254.857 517.079 258.022 517.079 261.187V306.174C517.079 309.339 519.493 312.498 524.326 314.916L558.766 332.126C568.427 336.956 584.088 336.956 593.744 332.126L630.521 313.751C635.349 311.339 637.768 308.174 637.768 305.009V260.022C637.768 256.857 635.354 253.698 630.521 251.28V251.274Z" fill="url(#paint34_linear_732_17908)"/>
<path d="M630.521 268.754L593.744 287.128C584.083 291.958 568.422 291.958 558.766 287.128L524.326 269.918C514.665 265.088 514.665 257.264 524.326 252.439L561.103 234.064C570.764 229.234 586.425 229.234 596.081 234.064L630.521 251.274C640.182 256.104 640.182 263.929 630.521 268.754Z" fill="url(#paint35_linear_732_17908)"/>
<path d="M609.146 265.473L587.178 276.452C581.404 279.337 572.051 279.337 566.277 276.452L545.7 266.171C539.926 263.286 539.926 258.61 545.7 255.725L567.668 244.746C573.442 241.862 582.795 241.862 588.569 244.746L609.146 255.027C614.92 257.912 614.92 262.588 609.146 265.473Z" fill="url(#paint36_linear_732_17908)"/>
<path d="M555.791 271.21L566.271 276.446C572.045 279.331 581.399 279.331 587.173 276.446L599.05 270.512V260.594H555.791V271.21Z" fill="url(#paint37_linear_732_17908)"/>
<path d="M596.455 263.523L583.274 270.111C579.81 271.842 574.195 271.842 570.737 270.111L558.392 263.94C554.927 262.209 554.927 259.401 558.392 257.676L571.573 251.088C575.037 249.357 580.651 249.357 584.11 251.088L596.455 257.258C599.919 258.989 599.919 261.797 596.455 263.523Z" fill="url(#paint38_linear_732_17908)"/>
<g style="mix-blend-mode:multiply">
<path opacity="0.09" d="M743.012 258.154L706.235 276.529C696.574 281.359 680.913 281.359 671.257 276.529L636.817 259.319C627.156 254.489 627.156 246.664 636.817 241.84L673.594 223.465C683.256 218.635 698.916 218.635 708.572 223.465L743.012 240.675C752.673 245.505 752.673 253.329 743.012 258.154Z" fill="#A7B1F2"/>
<path opacity="0.18" d="M745.497 256.912L708.721 275.287C699.059 280.117 683.398 280.117 673.742 275.287L639.303 258.077C629.641 253.247 629.641 245.422 639.303 240.598L676.079 222.223C685.741 217.393 701.402 217.393 711.058 222.223L745.497 239.433C755.159 244.263 755.159 252.088 745.497 256.912Z" fill="#A7B1F2"/>
<path opacity="0.27" d="M747.983 255.67L711.206 274.045C701.545 278.875 685.884 278.875 676.228 274.045L641.788 256.835C632.127 252.005 632.127 244.18 641.788 239.356L678.565 220.981C688.226 216.151 703.887 216.151 713.543 220.981L747.983 238.191C757.644 243.021 757.644 250.846 747.983 255.67Z" fill="#A7B1F2"/>
<path opacity="0.36" d="M750.468 254.428L713.692 272.803C704.03 277.633 688.37 277.633 678.714 272.803L644.274 255.593C634.612 250.763 634.612 242.939 644.274 238.114L681.051 219.739C690.712 214.909 706.373 214.909 716.029 219.739L750.468 236.949C760.13 241.779 760.13 249.604 750.468 254.428Z" fill="#A7B1F2"/>
<path opacity="0.45" d="M752.954 253.186L716.177 271.561C706.516 276.391 690.855 276.391 681.199 271.561L646.759 254.351C637.098 249.521 637.098 241.697 646.759 236.872L683.536 218.497C693.197 213.667 708.858 213.667 718.514 218.497L752.954 235.707C762.615 240.537 762.615 248.362 752.954 253.186Z" fill="#A7B1F2"/>
<path opacity="0.55" d="M755.439 251.939L718.663 270.314C709.001 275.144 693.34 275.144 683.684 270.314L649.245 253.104C639.583 248.274 639.583 240.449 649.245 235.625L686.021 217.25C695.683 212.42 711.344 212.42 721 217.25L755.439 234.46C765.101 239.29 765.101 247.115 755.439 251.939Z" fill="#A7B1F2"/>
<path opacity="0.64" d="M757.925 250.697L721.148 269.072C711.486 273.902 695.826 273.902 686.17 269.072L651.73 251.862C642.069 247.032 642.069 239.208 651.73 234.383L688.507 216.008C698.168 211.178 713.829 211.178 723.485 216.008L757.925 233.218C767.586 238.048 767.586 245.873 757.925 250.697Z" fill="#A7B1F2"/>
<path opacity="0.73" d="M760.41 249.455L723.633 267.83C713.972 272.66 698.311 272.66 688.655 267.83L654.215 250.62C644.554 245.79 644.554 237.966 654.215 233.141L690.992 214.766C700.653 209.936 716.314 209.936 725.97 214.766L760.41 231.976C770.071 236.806 770.071 244.631 760.41 249.455Z" fill="#A7B1F2"/>
</g>
</g>
</g>
<defs>
<linearGradient id="paint0_linear_732_17908" x1="107.962" y1="214.635" x2="227.409" y2="214.635" gradientUnits="userSpaceOnUse">
<stop stop-color="#3650F7"/>
<stop offset="0.4" stop-color="#5022E7"/>
<stop offset="0.6" stop-color="#4785FF"/>
<stop offset="1" stop-color="#3650F7"/>
</linearGradient>
<linearGradient id="paint1_linear_732_17908" x1="108.094" y1="192.139" x2="229.372" y2="192.139" gradientUnits="userSpaceOnUse">
<stop stop-color="#646EFF"/>
<stop offset="1" stop-color="#42C0FF"/>
</linearGradient>
<linearGradient id="paint2_linear_732_17908" x1="132.547" y1="192.139" x2="204.451" y2="192.139" gradientUnits="userSpaceOnUse">
<stop stop-color="#00D5FF"/>
<stop offset="1" stop-color="#42FFFF"/>
</linearGradient>
<linearGradient id="paint3_linear_732_17908" x1="146.278" y1="201.15" x2="189.093" y2="201.15" gradientUnits="userSpaceOnUse">
<stop stop-color="#D3D7F2"/>
<stop offset="0.45" stop-color="#BBC9F8"/>
<stop offset="0.55" stop-color="#D3D7F2"/>
<stop offset="1" stop-color="#F2F3FF"/>
</linearGradient>
<linearGradient id="paint4_linear_732_17908" x1="146.053" y1="192.139" x2="189.318" y2="192.139" gradientUnits="userSpaceOnUse">
<stop stop-color="#E8EAFB"/>
<stop offset="1" stop-color="white"/>
</linearGradient>
<linearGradient id="paint5_linear_732_17908" x1="517.525" y1="146.426" x2="636.971" y2="146.426" gradientUnits="userSpaceOnUse">
<stop stop-color="#D3D7F2"/>
<stop offset="0.45" stop-color="#BBC9F8"/>
<stop offset="0.55" stop-color="#D3D7F2"/>
<stop offset="1" stop-color="#F2F3FF"/>
</linearGradient>
<linearGradient id="paint6_linear_732_17908" x1="516.909" y1="123.936" x2="637.587" y2="123.936" gradientUnits="userSpaceOnUse">
<stop stop-color="#E8EAFB"/>
<stop offset="1" stop-color="white"/>
</linearGradient>
<linearGradient id="paint7_linear_732_17908" x1="541.643" y1="123.936" x2="614.102" y2="123.936" gradientUnits="userSpaceOnUse">
<stop stop-color="#646EFF"/>
<stop offset="1" stop-color="#42C0FF"/>
</linearGradient>
<linearGradient id="paint8_linear_732_17908" x1="555.841" y1="132.942" x2="598.655" y2="132.942" gradientUnits="userSpaceOnUse">
<stop stop-color="#D3D7F2"/>
<stop offset="0.45" stop-color="#BBC9F8"/>
<stop offset="0.55" stop-color="#D3D7F2"/>
<stop offset="1" stop-color="#F2F3FF"/>
</linearGradient>
<linearGradient id="paint9_linear_732_17908" x1="555.616" y1="123.936" x2="598.881" y2="123.936" gradientUnits="userSpaceOnUse">
<stop stop-color="#E8EAFB"/>
<stop offset="1" stop-color="white"/>
</linearGradient>
<linearGradient id="paint10_linear_732_17908" x1="246.27" y1="145.822" x2="365.717" y2="145.822" gradientUnits="userSpaceOnUse">
<stop stop-color="#D3D7F2"/>
<stop offset="0.45" stop-color="#BBC9F8"/>
<stop offset="0.55" stop-color="#D3D7F2"/>
<stop offset="1" stop-color="#F2F3FF"/>
</linearGradient>
<linearGradient id="paint11_linear_732_17908" x1="245.649" y1="123.326" x2="366.333" y2="123.326" gradientUnits="userSpaceOnUse">
<stop stop-color="#E8EAFB"/>
<stop offset="1" stop-color="white"/>
</linearGradient>
<linearGradient id="paint12_linear_732_17908" x1="270.388" y1="123.326" x2="342.847" y2="123.326" gradientUnits="userSpaceOnUse">
<stop stop-color="#646EFF"/>
<stop offset="1" stop-color="#42C0FF"/>
</linearGradient>
<linearGradient id="paint13_linear_732_17908" x1="284.581" y1="132.338" x2="327.401" y2="132.338" gradientUnits="userSpaceOnUse">
<stop stop-color="#D3D7F2"/>
<stop offset="0.45" stop-color="#BBC9F8"/>
<stop offset="0.55" stop-color="#D3D7F2"/>
<stop offset="1" stop-color="#F2F3FF"/>
</linearGradient>
<linearGradient id="paint14_linear_732_17908" x1="284.361" y1="123.326" x2="327.621" y2="123.326" gradientUnits="userSpaceOnUse">
<stop stop-color="#E8EAFB"/>
<stop offset="1" stop-color="white"/>
</linearGradient>
<linearGradient id="paint15_linear_732_17908" x1="383.621" y1="77.812" x2="503.068" y2="77.812" gradientUnits="userSpaceOnUse">
<stop stop-color="#3650F7"/>
<stop offset="0.4" stop-color="#5022E7"/>
<stop offset="0.6" stop-color="#4785FF"/>
<stop offset="1" stop-color="#3650F7"/>
</linearGradient>
<linearGradient id="paint16_linear_732_17908" x1="383.748" y1="55.316" x2="505.026" y2="55.316" gradientUnits="userSpaceOnUse">
<stop stop-color="#646EFF"/>
<stop offset="1" stop-color="#42C0FF"/>
</linearGradient>
<linearGradient id="paint17_linear_732_17908" x1="407.734" y1="55.3159" x2="480.199" y2="55.3159" gradientUnits="userSpaceOnUse">
<stop stop-color="#646EFF"/>
<stop offset="1" stop-color="#42C0FF"/>
</linearGradient>
<linearGradient id="paint18_linear_732_17908" x1="421.932" y1="64.3223" x2="464.752" y2="64.3223" gradientUnits="userSpaceOnUse">
<stop stop-color="#D3D7F2"/>
<stop offset="0.45" stop-color="#BBC9F8"/>
<stop offset="0.55" stop-color="#D3D7F2"/>
<stop offset="1" stop-color="#F2F3FF"/>
</linearGradient>
<linearGradient id="paint19_linear_732_17908" x1="421.713" y1="55.3159" x2="464.972" y2="55.3159" gradientUnits="userSpaceOnUse">
<stop stop-color="#E8EAFB"/>
<stop offset="1" stop-color="white"/>
</linearGradient>
<linearGradient id="paint20_linear_732_17908" x1="365.299" y1="196.655" x2="521.72" y2="196.655" gradientUnits="userSpaceOnUse">
<stop stop-color="#D3D7F2"/>
<stop offset="0.45" stop-color="#BBC9F8"/>
<stop offset="0.55" stop-color="#D3D7F2"/>
<stop offset="1" stop-color="#F2F3FF"/>
</linearGradient>
<linearGradient id="paint21_linear_732_17908" x1="364.485" y1="150.954" x2="522.529" y2="150.954" gradientUnits="userSpaceOnUse">
<stop stop-color="#E8EAFB"/>
<stop offset="1" stop-color="white"/>
</linearGradient>
<linearGradient id="paint22_linear_732_17908" x1="365.299" y1="130.519" x2="521.72" y2="130.519" gradientUnits="userSpaceOnUse">
<stop stop-color="#D3D7F2"/>
<stop offset="0.45" stop-color="#BBC9F8"/>
<stop offset="0.55" stop-color="#D3D7F2"/>
<stop offset="1" stop-color="#F2F3FF"/>
</linearGradient>
<linearGradient id="paint23_linear_732_17908" x1="364.485" y1="116.029" x2="522.529" y2="116.029" gradientUnits="userSpaceOnUse">
<stop stop-color="#E8EAFB"/>
<stop offset="1" stop-color="white"/>
</linearGradient>
<linearGradient id="paint24_linear_732_17908" x1="365.299" y1="95.5934" x2="521.72" y2="95.5934" gradientUnits="userSpaceOnUse">
<stop stop-color="#D3D7F2"/>
<stop offset="0.45" stop-color="#BBC9F8"/>
<stop offset="0.55" stop-color="#D3D7F2"/>
<stop offset="1" stop-color="#F2F3FF"/>
</linearGradient>
<linearGradient id="paint25_linear_732_17908" x1="364.485" y1="81.1088" x2="522.529" y2="81.1088" gradientUnits="userSpaceOnUse">
<stop stop-color="#E8EAFB"/>
<stop offset="1" stop-color="white"/>
</linearGradient>
<linearGradient id="paint26_linear_732_17908" x1="396.681" y1="81.109" x2="491.977" y2="81.109" gradientUnits="userSpaceOnUse">
<stop stop-color="#646EFF"/>
<stop offset="1" stop-color="#42C0FF"/>
</linearGradient>
<linearGradient id="paint27_linear_732_17908" x1="415.355" y1="92.9558" x2="471.664" y2="92.9558" gradientUnits="userSpaceOnUse">
<stop stop-color="#D3D7F2"/>
<stop offset="0.45" stop-color="#BBC9F8"/>
<stop offset="0.55" stop-color="#D3D7F2"/>
<stop offset="1" stop-color="#F2F3FF"/>
</linearGradient>
<linearGradient id="paint28_linear_732_17908" x1="415.058" y1="81.1089" x2="471.955" y2="81.1089" gradientUnits="userSpaceOnUse">
<stop stop-color="#E8EAFB"/>
<stop offset="1" stop-color="white"/>
</linearGradient>
<linearGradient id="paint29_linear_732_17908" x1="243.774" y1="283.255" x2="363.221" y2="283.255" gradientUnits="userSpaceOnUse">
<stop stop-color="#D3D7F2"/>
<stop offset="0.45" stop-color="#BBC9F8"/>
<stop offset="0.55" stop-color="#D3D7F2"/>
<stop offset="1" stop-color="#F2F3FF"/>
</linearGradient>
<linearGradient id="paint30_linear_732_17908" x1="243.152" y1="260.758" x2="363.836" y2="260.758" gradientUnits="userSpaceOnUse">
<stop stop-color="#E8EAFB"/>
<stop offset="1" stop-color="white"/>
</linearGradient>
<linearGradient id="paint31_linear_732_17908" x1="267.892" y1="260.759" x2="340.35" y2="260.759" gradientUnits="userSpaceOnUse">
<stop stop-color="#646EFF"/>
<stop offset="1" stop-color="#42C0FF"/>
</linearGradient>
<linearGradient id="paint32_linear_732_17908" x1="282.084" y1="269.77" x2="324.904" y2="269.77" gradientUnits="userSpaceOnUse">
<stop stop-color="#D3D7F2"/>
<stop offset="0.45" stop-color="#BBC9F8"/>
<stop offset="0.55" stop-color="#D3D7F2"/>
<stop offset="1" stop-color="#F2F3FF"/>
</linearGradient>
<linearGradient id="paint33_linear_732_17908" x1="281.864" y1="260.759" x2="325.124" y2="260.759" gradientUnits="userSpaceOnUse">
<stop stop-color="#E8EAFB"/>
<stop offset="1" stop-color="white"/>
</linearGradient>
<linearGradient id="paint34_linear_732_17908" x1="517.7" y1="283.09" x2="637.147" y2="283.09" gradientUnits="userSpaceOnUse">
<stop stop-color="#D3D7F2"/>
<stop offset="0.45" stop-color="#BBC9F8"/>
<stop offset="0.55" stop-color="#D3D7F2"/>
<stop offset="1" stop-color="#F2F3FF"/>
</linearGradient>
<linearGradient id="paint35_linear_732_17908" x1="517.084" y1="260.599" x2="637.763" y2="260.599" gradientUnits="userSpaceOnUse">
<stop stop-color="#E8EAFB"/>
<stop offset="1" stop-color="white"/>
</linearGradient>
<linearGradient id="paint36_linear_732_17908" x1="541.818" y1="260.599" x2="614.277" y2="260.599" gradientUnits="userSpaceOnUse">
<stop stop-color="#646EFF"/>
<stop offset="1" stop-color="#42C0FF"/>
</linearGradient>
<linearGradient id="paint37_linear_732_17908" x1="556.016" y1="269.605" x2="598.836" y2="269.605" gradientUnits="userSpaceOnUse">
<stop stop-color="#D3D7F2"/>
<stop offset="0.45" stop-color="#BBC9F8"/>
<stop offset="0.55" stop-color="#D3D7F2"/>
<stop offset="1" stop-color="#F2F3FF"/>
</linearGradient>
<linearGradient id="paint38_linear_732_17908" x1="555.791" y1="260.599" x2="599.056" y2="260.599" gradientUnits="userSpaceOnUse">
<stop stop-color="#E8EAFB"/>
<stop offset="1" stop-color="white"/>
</linearGradient>
<clipPath id="clip0_732_17908">
<path d="M0 0H645V246C645 259.255 634.255 270 621 270H0V0Z" fill="white"/>
</clipPath>
</defs>
</svg>
