<svg width="1440" height="1188" viewBox="0 0 900 1500" fill="none" xmlns="http://www.w3.org/2000/svg">
<g clip-path="url(#clip0_603_1363)">
<mask id="mask0_603_1363" style="mask-type:alpha" maskUnits="userSpaceOnUse" x="0" y="0" width="1440" height="1713">
<rect y="0.000112482" width="1440" height="1712" fill="#D9D9D9"/>
</mask>
<g mask="url(#mask0_603_1363)">
<g opacity="0.1" filter="url(#filter0_f_603_1363)">
<ellipse cx="687.238" cy="1298.24" rx="383.453" ry="380.559" transform="rotate(-45 687.238 1298.24)" fill="#020381"/>
</g>
<g opacity="0.1" filter="url(#filter1_f_603_1363)">
<ellipse cx="1291.29" cy="1124.9" rx="459.305" ry="455.839" transform="rotate(-45 1291.29 1124.9)" fill="#42E8E0"/>
</g>
</g>
<g opacity="0.1" clip-path="url(#clip1_603_1363)">
<g opacity="0.67">
<path d="M1228.94 1467.27L793.093 1214.71L1228.94 962.145L1664.83 1214.71L1228.94 1467.27Z" fill="#E5E5E5"/>
</g>
<g opacity="0.67">
<path d="M1228.94 1428.08L860.687 1214.71L1228.94 1001.3L1597.2 1214.71L1228.94 1428.08Z" fill="#E1E1E3"/>
</g>
<g opacity="0.9">
<path d="M1228.94 1382.57L939.207 1214.71L1228.94 1046.81L1518.68 1214.71L1228.94 1382.57Z" fill="#E7E7E7"/>
</g>
<g clip-path="url(#clip2_603_1363)">
<path d="M1342.75 1206.97V1141.62L1399.2 1174.3V1239.65L1342.75 1206.97Z" fill="#606ADB"/>
<path d="M1342.75 1141.62L1399.2 1108.94L1455.64 1141.62L1399.2 1174.3L1342.75 1141.62Z" fill="#8A8FEB"/>
<path d="M1399.2 1239.65L1455.64 1206.97V1141.62L1399.2 1174.3V1239.65Z" fill="#DEDDFC"/>
<g opacity="0.2">
<path d="M1399.2 1257.62C1398.92 1257.62 1398.63 1257.56 1398.38 1257.41L1327.83 1216.57C1327.32 1216.27 1327.01 1215.73 1327.01 1215.14V1133.45C1327.01 1132.86 1327.32 1132.32 1327.83 1132.03C1328.33 1131.74 1328.95 1131.74 1329.46 1132.03L1400.01 1172.88C1400.52 1173.17 1400.83 1173.71 1400.83 1174.3V1255.99C1400.83 1256.58 1400.52 1257.12 1400.01 1257.41C1399.77 1257.56 1399.47 1257.62 1399.2 1257.62ZM1330.27 1214.2L1397.57 1253.15V1175.23L1330.27 1136.28V1214.2Z" fill="white"/>
</g>
<g opacity="0.2">
<path d="M1399.2 1257.62C1398.92 1257.62 1398.63 1257.56 1398.38 1257.41C1397.88 1257.12 1397.57 1256.58 1397.57 1255.99V1174.3C1397.57 1173.71 1397.88 1173.17 1398.38 1172.88L1468.94 1132.03C1469.44 1131.74 1470.06 1131.74 1470.57 1132.03C1471.07 1132.32 1471.38 1132.86 1471.38 1133.45V1215.14C1471.38 1215.73 1471.07 1216.27 1470.57 1216.57L1400.01 1257.41C1399.77 1257.56 1399.47 1257.62 1399.2 1257.62ZM1400.83 1175.24V1253.16L1468.12 1214.21V1136.29L1400.83 1175.24Z" fill="white"/>
</g>
<g opacity="0.2">
<path d="M1342.75 1166.13V1100.77L1399.2 1133.45V1198.81L1342.75 1166.13Z" fill="#606ADB"/>
<path d="M1342.75 1100.77L1399.2 1068.1L1455.64 1100.77L1399.2 1133.45L1342.75 1100.77Z" fill="#8A8FEB"/>
<path d="M1399.2 1198.81L1455.64 1166.13V1100.77L1399.2 1133.45V1198.81Z" fill="#DEDDFC"/>
</g>
<g opacity="0.2">
<path d="M1399.2 1175.93C1398.92 1175.93 1398.63 1175.87 1398.38 1175.72L1327.83 1134.87C1327.32 1134.58 1327.01 1134.04 1327.01 1133.45C1327.01 1132.86 1327.32 1132.32 1327.83 1132.03L1398.38 1091.18C1398.89 1090.89 1399.51 1090.89 1400.01 1091.18L1470.57 1132.03C1471.07 1132.32 1471.38 1132.86 1471.38 1133.45C1471.38 1134.04 1471.07 1134.58 1470.57 1134.87L1400.01 1175.72C1399.77 1175.87 1399.47 1175.93 1399.2 1175.93ZM1331.9 1133.45L1399.2 1172.42L1466.49 1133.45L1399.2 1094.48L1331.9 1133.45Z" fill="white"/>
</g>
<path d="M1342.75 1108.94V1043.59L1399.2 1076.27V1141.62L1342.75 1108.94Z" fill="#606ADB"/>
<path d="M1342.75 1043.59L1399.2 1010.91L1455.64 1043.59L1399.2 1076.27L1342.75 1043.59Z" fill="#8A8FEB"/>
<path d="M1399.2 1141.62L1455.64 1108.94V1043.59L1399.2 1076.27V1141.62Z" fill="#DEDDFC"/>
<g opacity="0.2">
<path d="M1399.2 1159.59C1398.92 1159.59 1398.63 1159.53 1398.38 1159.38L1327.83 1118.53C1327.32 1118.24 1327.01 1117.7 1327.01 1117.11V1035.42C1327.01 1034.83 1327.32 1034.29 1327.83 1034C1328.33 1033.7 1328.95 1033.7 1329.46 1034L1400.01 1074.84C1400.52 1075.14 1400.83 1075.68 1400.83 1076.27V1157.96C1400.83 1158.55 1400.52 1159.09 1400.01 1159.38C1399.77 1159.53 1399.47 1159.59 1399.2 1159.59ZM1330.27 1116.16L1397.57 1155.12V1077.2L1330.27 1038.23V1116.15V1116.16Z" fill="white"/>
</g>
<g opacity="0.2">
<path d="M1399.2 1159.59C1398.92 1159.59 1398.63 1159.53 1398.38 1159.38C1397.88 1159.09 1397.57 1158.55 1397.57 1157.96V1076.27C1397.57 1075.68 1397.88 1075.14 1398.38 1074.84L1468.94 1034C1469.44 1033.7 1470.06 1033.7 1470.57 1034C1471.07 1034.29 1471.38 1034.83 1471.38 1035.42V1117.11C1471.38 1117.7 1471.07 1118.24 1470.57 1118.53L1400.01 1159.38C1399.77 1159.53 1399.47 1159.59 1399.2 1159.59ZM1400.83 1077.21V1155.13L1468.12 1116.18V1038.26L1400.83 1077.23V1077.21Z" fill="white"/>
</g>
<g opacity="0.2">
<path d="M1342.75 1068.1V1002.74L1399.2 1035.42V1100.77L1342.75 1068.1Z" fill="#606ADB"/>
<path d="M1342.75 1002.74L1399.2 970.064L1455.64 1002.74L1399.2 1035.42L1342.75 1002.74Z" fill="#8A8FEB"/>
<path d="M1399.2 1100.77L1455.64 1068.1V1002.74L1399.2 1035.42V1100.77Z" fill="#DEDDFC"/>
</g>
<g opacity="0.2">
<path d="M1399.2 1077.9C1398.92 1077.9 1398.63 1077.83 1398.38 1077.69L1327.83 1036.84C1327.32 1036.55 1327.01 1036.01 1327.01 1035.42C1327.01 1034.83 1327.32 1034.29 1327.83 1034L1398.38 993.15C1398.89 992.856 1399.51 992.856 1400.01 993.15L1470.57 1034C1471.07 1034.29 1471.38 1034.83 1471.38 1035.42C1471.38 1036.01 1471.07 1036.55 1470.57 1036.84L1400.01 1077.69C1399.77 1077.83 1399.47 1077.9 1399.2 1077.9ZM1331.9 1035.42L1399.2 1074.39L1466.49 1035.42L1399.2 996.451L1331.9 1035.42Z" fill="white"/>
</g>
<path d="M1173.41 912.879V847.524L1229.85 880.201V945.556L1173.41 912.879Z" fill="#606ADB"/>
<path d="M1173.41 847.524L1229.85 814.846L1286.29 847.524L1229.85 880.201L1173.41 847.524Z" fill="#8A8FEB"/>
<path d="M1229.85 945.556L1286.29 912.879V847.524L1229.85 880.201V945.556Z" fill="#DEDDFC"/>
<g opacity="0.2">
<path d="M1229.85 963.528C1229.57 963.528 1229.28 963.463 1229.04 963.316L1158.48 922.469C1157.98 922.175 1157.67 921.636 1157.67 921.048V839.354C1157.67 838.766 1157.98 838.227 1158.48 837.933C1158.99 837.639 1159.61 837.639 1160.11 837.933L1230.67 878.78C1231.17 879.074 1231.48 879.613 1231.48 880.201V961.895C1231.48 962.483 1231.17 963.022 1230.67 963.316C1230.42 963.463 1230.13 963.528 1229.85 963.528ZM1160.93 920.1L1228.22 959.068V881.149L1160.93 842.181V920.1Z" fill="white"/>
</g>
<g opacity="0.2">
<path d="M1229.85 963.528C1229.57 963.528 1229.28 963.463 1229.04 963.316C1228.53 963.022 1228.22 962.483 1228.22 961.895V880.201C1228.22 879.613 1228.53 879.074 1229.04 878.78L1299.59 837.933C1300.1 837.639 1300.71 837.639 1301.22 837.933C1301.72 838.227 1302.03 838.766 1302.03 839.354V921.048C1302.03 921.636 1301.72 922.175 1301.22 922.469L1230.67 963.316C1230.42 963.463 1230.13 963.528 1229.85 963.528ZM1231.48 881.149V959.068L1298.78 920.1V842.181L1231.48 881.149Z" fill="white"/>
</g>
<g opacity="0.2">
<path d="M1173.41 872.032V806.677L1229.85 839.354V904.709L1173.41 872.032Z" fill="#606ADB"/>
<path d="M1173.41 806.677L1229.85 774L1286.29 806.677L1229.85 839.354L1173.41 806.677Z" fill="#8A8FEB"/>
<path d="M1229.85 904.709L1286.29 872.032V806.677L1229.85 839.354V904.709Z" fill="#DEDDFC"/>
</g>
<g opacity="0.2">
<path d="M1229.85 881.835C1229.57 881.835 1229.28 881.77 1229.04 881.623L1158.48 840.776C1157.98 840.482 1157.67 839.943 1157.67 839.354C1157.67 838.766 1157.98 838.227 1158.48 837.933L1229.04 797.086C1229.54 796.792 1230.16 796.792 1230.67 797.086L1301.22 837.933C1301.72 838.227 1302.03 838.766 1302.03 839.354C1302.03 839.943 1301.72 840.482 1301.22 840.776L1230.67 881.623C1230.42 881.77 1230.13 881.835 1229.85 881.835ZM1162.56 839.354L1229.85 878.322L1297.15 839.354L1229.85 800.387L1162.56 839.354Z" fill="white"/>
</g>
<path d="M1258.07 961.894V896.54L1314.52 929.217V994.572L1258.07 961.894Z" fill="#606ADB"/>
<path d="M1258.07 896.54L1314.52 863.862L1370.96 896.54L1314.52 929.217L1258.07 896.54Z" fill="#8A8FEB"/>
<path d="M1314.53 994.572L1370.98 961.894V896.54L1314.53 929.217V994.572Z" fill="#DEDDFC"/>
<g opacity="0.2">
<path d="M1314.53 1012.54C1314.25 1012.54 1313.96 1012.48 1313.72 1012.33L1243.16 971.485C1242.66 971.191 1242.35 970.652 1242.35 970.064V888.37C1242.35 887.782 1242.66 887.243 1243.16 886.949C1243.67 886.655 1244.29 886.655 1244.79 886.949L1315.35 927.796C1315.85 928.09 1316.16 928.629 1316.16 929.217V1010.91C1316.16 1011.5 1315.85 1012.04 1315.35 1012.33C1315.1 1012.48 1314.81 1012.54 1314.53 1012.54ZM1245.59 969.116L1312.89 1008.08V930.165L1245.59 891.197V969.116Z" fill="white"/>
</g>
<g opacity="0.2">
<path d="M1314.53 1012.54C1314.25 1012.54 1313.96 1012.48 1313.72 1012.33C1313.21 1012.04 1312.9 1011.5 1312.9 1010.91V929.217C1312.9 928.629 1313.21 928.09 1313.72 927.796L1384.27 886.949C1384.78 886.655 1385.4 886.655 1385.9 886.949C1386.41 887.243 1386.72 887.782 1386.72 888.37V970.064C1386.72 970.652 1386.41 971.191 1385.9 971.485L1315.35 1012.33C1315.1 1012.48 1314.81 1012.54 1314.53 1012.54ZM1316.16 930.165V1008.08L1383.46 969.116V891.197L1316.16 930.165Z" fill="white"/>
</g>
<g opacity="0.2">
<path d="M1258.07 921.048V855.693L1314.52 888.37V953.725L1258.07 921.048Z" fill="#606ADB"/>
<path d="M1258.07 855.693L1314.52 823.016L1370.96 855.693L1314.52 888.37L1258.07 855.693Z" fill="#8A8FEB"/>
<path d="M1314.53 953.725L1370.98 921.048V855.693L1314.53 888.37V953.725Z" fill="#DEDDFC"/>
</g>
<g opacity="0.2">
<path d="M1314.53 930.851C1314.25 930.851 1313.96 930.786 1313.72 930.639L1243.16 889.792C1242.66 889.498 1242.35 888.959 1242.35 888.37C1242.35 887.782 1242.66 887.243 1243.16 886.949L1313.72 846.102C1314.22 845.808 1314.84 845.808 1315.35 846.102L1385.9 886.949C1386.41 887.243 1386.72 887.782 1386.72 888.37C1386.72 888.959 1386.41 889.498 1385.9 889.792L1315.35 930.639C1315.1 930.786 1314.81 930.851 1314.53 930.851ZM1247.22 888.37L1314.52 927.338L1381.81 888.37L1314.52 849.403L1247.22 888.37Z" fill="white"/>
</g>
<path d="M1342.75 1010.91V945.556L1399.2 978.233V1043.59L1342.75 1010.91Z" fill="#606ADB"/>
<path d="M1342.75 945.556L1399.2 912.878L1455.64 945.556L1399.2 978.233L1342.75 945.556Z" fill="#8A8FEB"/>
<path d="M1399.2 1043.59L1455.64 1010.91V945.556L1399.2 978.233V1043.59Z" fill="#DEDDFC"/>
<g opacity="0.2">
<path d="M1399.2 1061.56C1398.92 1061.56 1398.63 1061.5 1398.38 1061.35L1327.83 1020.5C1327.32 1020.21 1327.01 1019.67 1327.01 1019.08V937.386C1327.01 936.798 1327.32 936.259 1327.83 935.965C1328.33 935.671 1328.95 935.671 1329.46 935.965L1400.01 976.812C1400.52 977.106 1400.83 977.645 1400.83 978.233V1059.93C1400.83 1060.51 1400.52 1061.05 1400.01 1061.35C1399.77 1061.5 1399.47 1061.56 1399.2 1061.56ZM1330.27 1018.13L1397.57 1057.1V979.181L1330.27 940.213V1018.13Z" fill="white"/>
</g>
<g opacity="0.2">
<path d="M1399.2 1061.56C1398.92 1061.56 1398.63 1061.5 1398.38 1061.35C1397.88 1061.05 1397.57 1060.51 1397.57 1059.93V978.233C1397.57 977.645 1397.88 977.106 1398.38 976.812L1468.94 935.965C1469.44 935.671 1470.06 935.671 1470.57 935.965C1471.07 936.259 1471.38 936.798 1471.38 937.386V1019.08C1471.38 1019.67 1471.07 1020.21 1470.57 1020.5L1400.01 1061.35C1399.77 1061.5 1399.47 1061.56 1399.2 1061.56ZM1400.83 979.181V1057.1L1468.12 1018.13V940.213L1400.83 979.181Z" fill="white"/>
</g>
<g opacity="0.2">
<path d="M1342.75 970.064V904.709L1399.2 937.387V1002.74L1342.75 970.064Z" fill="#606ADB"/>
<path d="M1342.75 904.709L1399.2 872.032L1455.64 904.709L1399.2 937.386L1342.75 904.709Z" fill="#8A8FEB"/>
<path d="M1399.2 1002.74L1455.64 970.064V904.709L1399.2 937.387V1002.74Z" fill="#DEDDFC"/>
</g>
<g opacity="0.2">
<path d="M1399.2 979.867C1398.92 979.867 1398.63 979.802 1398.38 979.655L1327.83 938.808C1327.32 938.514 1327.01 937.975 1327.01 937.386C1327.01 936.798 1327.32 936.259 1327.83 935.965L1398.38 895.118C1398.89 894.824 1399.51 894.824 1400.01 895.118L1470.57 935.965C1471.07 936.259 1471.38 936.798 1471.38 937.386C1471.38 937.975 1471.07 938.514 1470.57 938.808L1400.01 979.655C1399.77 979.802 1399.47 979.867 1399.2 979.867ZM1331.9 937.386L1399.2 976.354L1466.49 937.386L1399.2 898.419L1331.9 937.386Z" fill="white"/>
</g>
<path d="M1258.07 1190.64L1314.52 1157.96L1370.96 1190.64L1314.52 1223.31L1258.07 1190.64Z" fill="#8A8FEB"/>
<g opacity="0.2">
<path d="M1314.53 1306.64C1314.25 1306.64 1313.96 1306.58 1313.72 1306.43L1243.16 1265.58C1242.66 1265.29 1242.35 1264.75 1242.35 1264.16V1182.47C1242.35 1181.88 1242.66 1181.34 1243.16 1181.05C1243.67 1180.75 1244.29 1180.75 1244.79 1181.05L1315.35 1221.89C1315.85 1222.19 1316.16 1222.73 1316.16 1223.31V1305.01C1316.16 1305.59 1315.85 1306.13 1315.35 1306.43C1315.1 1306.58 1314.81 1306.64 1314.53 1306.64ZM1245.59 1263.21L1312.89 1302.16V1224.24L1245.59 1185.29V1263.21Z" fill="white"/>
</g>
<g opacity="0.2">
<path d="M1314.53 1306.64C1314.25 1306.64 1313.96 1306.58 1313.72 1306.43C1313.21 1306.13 1312.9 1305.59 1312.9 1305.01V1223.31C1312.9 1222.73 1313.21 1222.19 1313.72 1221.89L1384.27 1181.05C1384.78 1180.75 1385.4 1180.75 1385.9 1181.05C1386.41 1181.34 1386.72 1181.88 1386.72 1182.47V1264.16C1386.72 1264.75 1386.41 1265.29 1385.9 1265.58L1315.35 1306.43C1315.1 1306.58 1314.81 1306.64 1314.53 1306.64ZM1316.16 1224.26V1302.18L1383.46 1263.23V1185.31L1316.16 1224.26Z" fill="white"/>
</g>
<g opacity="0.2">
<path d="M1258.07 1215.14V1149.79L1314.52 1182.47V1247.82L1258.07 1215.14Z" fill="#606ADB"/>
<path d="M1258.07 1149.79L1314.52 1117.11L1370.96 1149.79L1314.52 1182.47L1258.07 1149.79Z" fill="#8A8FEB"/>
<path d="M1314.53 1247.82L1370.98 1215.14V1149.79L1314.53 1182.47V1247.82Z" fill="#DEDDFC"/>
</g>
<g opacity="0.2">
<path d="M1314.53 1224.95C1314.25 1224.95 1313.96 1224.88 1313.72 1224.73L1243.16 1183.89C1242.66 1183.59 1242.35 1183.05 1242.35 1182.47C1242.35 1181.88 1242.66 1181.34 1243.16 1181.05L1313.72 1140.2C1314.22 1139.9 1314.84 1139.9 1315.35 1140.2L1385.9 1181.05C1386.41 1181.34 1386.72 1181.88 1386.72 1182.47C1386.72 1183.05 1386.41 1183.59 1385.9 1183.89L1315.35 1224.73C1315.1 1224.88 1314.81 1224.95 1314.53 1224.95ZM1247.22 1182.47L1314.52 1221.43L1381.81 1182.47L1314.52 1143.5L1247.22 1182.47Z" fill="white"/>
</g>
<path d="M1258.07 1157.96V1092.6L1314.52 1125.28V1190.64L1258.07 1157.96Z" fill="#606ADB"/>
<path d="M1258.07 1092.6L1314.52 1059.93L1370.96 1092.6L1314.52 1125.28L1258.07 1092.6Z" fill="#8A8FEB"/>
<path d="M1314.53 1190.64L1370.98 1157.96V1092.6L1314.53 1125.28V1190.64Z" fill="#DEDDFC"/>
<g opacity="0.2">
<path d="M1314.53 1208.61C1314.25 1208.61 1313.96 1208.54 1313.72 1208.4L1243.16 1167.55C1242.66 1167.26 1242.35 1166.72 1242.35 1166.13V1084.43C1242.35 1083.85 1242.66 1083.31 1243.16 1083.01C1243.67 1082.72 1244.29 1082.72 1244.79 1083.01L1315.35 1123.86C1315.85 1124.15 1316.16 1124.69 1316.16 1125.28V1206.97C1316.16 1207.56 1315.85 1208.1 1315.35 1208.4C1315.1 1208.54 1314.81 1208.61 1314.53 1208.61ZM1245.59 1165.18L1312.89 1204.13V1126.21L1245.59 1087.24V1165.16V1165.18Z" fill="white"/>
</g>
<g opacity="0.2">
<path d="M1314.53 1208.61C1314.25 1208.61 1313.96 1208.54 1313.72 1208.4C1313.21 1208.1 1312.9 1207.56 1312.9 1206.97V1125.28C1312.9 1124.69 1313.21 1124.15 1313.72 1123.86L1384.27 1083.01C1384.78 1082.72 1385.4 1082.72 1385.9 1083.01C1386.41 1083.31 1386.72 1083.85 1386.72 1084.43V1166.13C1386.72 1166.72 1386.41 1167.26 1385.9 1167.55L1315.35 1208.4C1315.1 1208.54 1314.81 1208.61 1314.53 1208.61ZM1316.16 1126.23V1204.15L1383.46 1165.2V1087.28L1316.16 1126.25V1126.23Z" fill="white"/>
</g>
<g opacity="0.2">
<path d="M1258.07 1117.11V1051.76L1314.52 1084.43V1149.79L1258.07 1117.11Z" fill="#606ADB"/>
<path d="M1258.07 1051.76L1314.52 1019.08L1370.96 1051.76L1314.52 1084.43L1258.07 1051.76Z" fill="#8A8FEB"/>
<path d="M1314.53 1149.79L1370.98 1117.11V1051.76L1314.53 1084.43V1149.79Z" fill="#DEDDFC"/>
</g>
<g opacity="0.2">
<path d="M1314.53 1126.92C1314.25 1126.92 1313.96 1126.85 1313.72 1126.7L1243.16 1085.86C1242.66 1085.56 1242.35 1085.02 1242.35 1084.43C1242.35 1083.85 1242.66 1083.31 1243.16 1083.01L1313.72 1042.17C1314.22 1041.87 1314.84 1041.87 1315.35 1042.17L1385.9 1083.01C1386.41 1083.31 1386.72 1083.85 1386.72 1084.43C1386.72 1085.02 1386.41 1085.56 1385.9 1085.86L1315.35 1126.7C1315.1 1126.85 1314.81 1126.92 1314.53 1126.92ZM1247.22 1084.43L1314.52 1123.4L1381.81 1084.43L1314.52 1045.47L1247.22 1084.43Z" fill="white"/>
</g>
<path d="M1088.74 961.894V896.54L1145.19 929.217V994.572L1088.74 961.894Z" fill="#606ADB"/>
<path d="M1088.74 896.54L1145.19 863.862L1201.63 896.54L1145.19 929.217L1088.74 896.54Z" fill="#8A8FEB"/>
<path d="M1145.19 994.572L1201.63 961.894V896.54L1145.19 929.217V994.572Z" fill="#DEDDFC"/>
<g opacity="0.2">
<path d="M1145.19 1012.54C1144.91 1012.54 1144.61 1012.48 1144.37 1012.33L1073.82 971.485C1073.31 971.191 1073 970.652 1073 970.064V888.37C1073 887.782 1073.31 887.243 1073.82 886.949C1074.32 886.655 1074.94 886.655 1075.45 886.949L1146 927.796C1146.51 928.09 1146.81 928.629 1146.81 929.217V1010.91C1146.81 1011.5 1146.51 1012.04 1146 1012.33C1145.76 1012.48 1145.46 1012.54 1145.19 1012.54ZM1076.26 969.116L1143.56 1008.08V930.165L1076.26 891.197V969.116Z" fill="white"/>
</g>
<g opacity="0.2">
<path d="M1145.19 1012.54C1144.91 1012.54 1144.61 1012.48 1144.37 1012.33C1143.87 1012.04 1143.56 1011.5 1143.56 1010.91V929.217C1143.56 928.629 1143.87 928.09 1144.37 927.796L1214.92 886.949C1215.43 886.655 1216.05 886.655 1216.55 886.949C1217.06 887.243 1217.37 887.782 1217.37 888.37V970.064C1217.37 970.652 1217.06 971.191 1216.55 971.485L1146 1012.33C1145.76 1012.48 1145.46 1012.54 1145.19 1012.54ZM1146.81 930.165V1008.08L1214.11 969.116V891.197L1146.81 930.165Z" fill="white"/>
</g>
<g opacity="0.2">
<path d="M1088.74 921.048V855.693L1145.19 888.37V953.725L1088.74 921.048Z" fill="#606ADB"/>
<path d="M1088.74 855.693L1145.19 823.016L1201.63 855.693L1145.19 888.37L1088.74 855.693Z" fill="#8A8FEB"/>
<path d="M1145.19 953.725L1201.63 921.048V855.693L1145.19 888.37V953.725Z" fill="#DEDDFC"/>
</g>
<g opacity="0.2">
<path d="M1145.19 930.851C1144.91 930.851 1144.61 930.786 1144.37 930.639L1073.82 889.792C1073.31 889.498 1073 888.959 1073 888.37C1073 887.782 1073.31 887.243 1073.82 886.949L1144.37 846.102C1144.88 845.808 1145.49 845.808 1146 846.102L1216.55 886.949C1217.06 887.243 1217.37 887.782 1217.37 888.37C1217.37 888.959 1217.06 889.498 1216.55 889.792L1146 930.639C1145.76 930.786 1145.46 930.851 1145.19 930.851ZM1077.89 888.37L1145.19 927.338L1212.48 888.37L1145.19 849.403L1077.89 888.37Z" fill="white"/>
</g>
<path d="M1173.41 1010.91V945.556L1229.85 978.233V1043.59L1173.41 1010.91Z" fill="#606ADB"/>
<path d="M1173.41 945.556L1229.85 912.878L1286.29 945.556L1229.85 978.233L1173.41 945.556Z" fill="#8A8FEB"/>
<path d="M1229.85 1043.59L1286.29 1010.91V945.556L1229.85 978.233V1043.59Z" fill="#DEDDFC"/>
<g opacity="0.2">
<path d="M1229.85 1061.56C1229.57 1061.56 1229.28 1061.5 1229.04 1061.35L1158.48 1020.5C1157.98 1020.21 1157.67 1019.67 1157.67 1019.08V937.386C1157.67 936.798 1157.98 936.259 1158.48 935.965C1158.99 935.671 1159.61 935.671 1160.11 935.965L1230.67 976.812C1231.17 977.106 1231.48 977.645 1231.48 978.233V1059.93C1231.48 1060.51 1231.17 1061.05 1230.67 1061.35C1230.42 1061.5 1230.13 1061.56 1229.85 1061.56ZM1160.93 1018.13L1228.22 1057.1V979.181L1160.93 940.213V1018.13Z" fill="white"/>
</g>
<g opacity="0.2">
<path d="M1229.85 1061.56C1229.57 1061.56 1229.28 1061.5 1229.04 1061.35C1228.53 1061.05 1228.22 1060.51 1228.22 1059.93V978.233C1228.22 977.645 1228.53 977.106 1229.04 976.812L1299.59 935.965C1300.1 935.671 1300.71 935.671 1301.22 935.965C1301.72 936.259 1302.03 936.798 1302.03 937.386V1019.08C1302.03 1019.67 1301.72 1020.21 1301.22 1020.5L1230.67 1061.35C1230.42 1061.5 1230.13 1061.56 1229.85 1061.56ZM1231.48 979.181V1057.1L1298.78 1018.13V940.213L1231.48 979.181Z" fill="white"/>
</g>
<g opacity="0.2">
<path d="M1173.41 970.064V904.709L1229.85 937.387V1002.74L1173.41 970.064Z" fill="#606ADB"/>
<path d="M1173.41 904.709L1229.85 872.032L1286.29 904.709L1229.85 937.386L1173.41 904.709Z" fill="#8A8FEB"/>
<path d="M1229.85 1002.74L1286.29 970.064V904.709L1229.85 937.387V1002.74Z" fill="#DEDDFC"/>
</g>
<g opacity="0.2">
<path d="M1229.85 979.867C1229.57 979.867 1229.28 979.802 1229.04 979.655L1158.48 938.808C1157.98 938.514 1157.67 937.975 1157.67 937.386C1157.67 936.798 1157.98 936.259 1158.48 935.965L1229.04 895.118C1229.54 894.824 1230.16 894.824 1230.67 895.118L1301.22 935.965C1301.72 936.259 1302.03 936.798 1302.03 937.386C1302.03 937.975 1301.72 938.514 1301.22 938.808L1230.67 979.655C1230.42 979.802 1230.13 979.867 1229.85 979.867ZM1162.56 937.386L1229.85 976.354L1297.15 937.386L1229.85 898.419L1162.56 937.386Z" fill="white"/>
</g>
<path d="M1258.07 1059.93V994.572L1314.52 1027.25V1092.6L1258.07 1059.93Z" fill="#606ADB"/>
<path d="M1258.07 994.572L1314.52 961.895L1370.96 994.572L1314.52 1027.25L1258.07 994.572Z" fill="#8A8FEB"/>
<path d="M1314.53 1092.6L1370.98 1059.93V994.572L1314.53 1027.25V1092.6Z" fill="#DEDDFC"/>
<g opacity="0.2">
<path d="M1314.53 1110.58C1314.25 1110.58 1313.96 1110.51 1313.72 1110.36L1243.16 1069.52C1242.66 1069.22 1242.35 1068.68 1242.35 1068.1V986.403C1242.35 985.814 1242.66 985.275 1243.16 984.981C1243.67 984.687 1244.29 984.687 1244.79 984.981L1315.35 1025.83C1315.85 1026.12 1316.16 1026.66 1316.16 1027.25V1108.94C1316.16 1109.53 1315.85 1110.07 1315.35 1110.36C1315.1 1110.51 1314.81 1110.58 1314.53 1110.58ZM1245.59 1067.15L1312.89 1106.12V1028.2L1245.59 989.229V1067.15Z" fill="white"/>
</g>
<g opacity="0.2">
<path d="M1314.53 1110.58C1314.25 1110.58 1313.96 1110.51 1313.72 1110.36C1313.21 1110.07 1312.9 1109.53 1312.9 1108.94V1027.25C1312.9 1026.66 1313.21 1026.12 1313.72 1025.83L1384.27 984.981C1384.78 984.687 1385.4 984.687 1385.9 984.981C1386.41 985.275 1386.72 985.814 1386.72 986.403V1068.1C1386.72 1068.68 1386.41 1069.22 1385.9 1069.52L1315.35 1110.36C1315.1 1110.51 1314.81 1110.58 1314.53 1110.58ZM1316.16 1028.2V1106.12L1383.46 1067.15V989.229L1316.16 1028.2Z" fill="white"/>
</g>
<g opacity="0.2">
<path d="M1258.07 1019.08V953.725L1314.52 986.403V1051.76L1258.07 1019.08Z" fill="#606ADB"/>
<path d="M1258.07 953.725L1314.52 921.048L1370.96 953.725L1314.52 986.403L1258.07 953.725Z" fill="#8A8FEB"/>
<path d="M1314.53 1051.76L1370.98 1019.08V953.725L1314.53 986.403V1051.76Z" fill="#DEDDFC"/>
</g>
<g opacity="0.2">
<path d="M1314.53 1028.88C1314.25 1028.88 1313.96 1028.82 1313.72 1028.67L1243.16 987.824C1242.66 987.53 1242.35 986.991 1242.35 986.403C1242.35 985.814 1242.66 985.275 1243.16 984.981L1313.72 944.134C1314.22 943.84 1314.84 943.84 1315.35 944.134L1385.9 984.981C1386.41 985.275 1386.72 985.814 1386.72 986.403C1386.72 986.991 1386.41 987.53 1385.9 987.824L1315.35 1028.67C1315.1 1028.82 1314.81 1028.88 1314.53 1028.88ZM1247.22 986.403L1314.52 1025.37L1381.81 986.403L1314.52 947.435L1247.22 986.403Z" fill="white"/>
</g>
<path d="M1004.08 1206.97V1141.62L1060.52 1174.3V1239.65L1004.08 1206.97Z" fill="#606ADB"/>
<path d="M1004.08 1141.62L1060.52 1108.94L1116.96 1141.62L1060.52 1174.3L1004.08 1141.62Z" fill="#8A8FEB"/>
<path d="M1060.52 1239.65L1116.96 1206.97V1141.62L1060.52 1174.3V1239.65Z" fill="#DEDDFC"/>
<g opacity="0.2">
<path d="M1060.52 1257.62C1060.24 1257.62 1059.95 1257.56 1059.71 1257.41L989.151 1216.57C988.646 1216.27 988.336 1215.73 988.336 1215.14V1133.45C988.336 1132.86 988.646 1132.32 989.151 1132.03C989.656 1131.74 990.275 1131.74 990.781 1132.03L1061.33 1172.88C1061.84 1173.17 1062.15 1173.71 1062.15 1174.3V1255.99C1062.15 1256.58 1061.84 1257.12 1061.33 1257.41C1061.09 1257.56 1060.8 1257.62 1060.52 1257.62ZM991.595 1214.2L1058.89 1253.15V1175.23L991.595 1136.28V1214.2Z" fill="white"/>
</g>
<g opacity="0.2">
<path d="M1060.52 1257.62C1060.24 1257.62 1059.95 1257.56 1059.71 1257.41C1059.2 1257.12 1058.89 1256.58 1058.89 1255.99V1174.3C1058.89 1173.71 1059.2 1173.17 1059.71 1172.88L1130.26 1132.03C1130.76 1131.74 1131.38 1131.74 1131.89 1132.03C1132.39 1132.32 1132.7 1132.86 1132.7 1133.45V1215.14C1132.7 1215.73 1132.39 1216.27 1131.89 1216.57L1061.33 1257.41C1061.09 1257.56 1060.8 1257.62 1060.52 1257.62ZM1062.15 1175.24V1253.16L1129.44 1214.21V1136.29L1062.15 1175.24Z" fill="white"/>
</g>
<g opacity="0.2">
<path d="M1004.08 1166.13V1100.77L1060.52 1133.45V1198.81L1004.08 1166.13Z" fill="#606ADB"/>
<path d="M1004.08 1100.77L1060.52 1068.1L1116.96 1100.77L1060.52 1133.45L1004.08 1100.77Z" fill="#8A8FEB"/>
<path d="M1060.52 1198.81L1116.96 1166.13V1100.77L1060.52 1133.45V1198.81Z" fill="#DEDDFC"/>
</g>
<g opacity="0.2">
<path d="M1060.52 1175.93C1060.24 1175.93 1059.95 1175.87 1059.71 1175.72L989.151 1134.87C988.646 1134.58 988.336 1134.04 988.336 1133.45C988.336 1132.86 988.646 1132.32 989.151 1132.03L1059.71 1091.18C1060.21 1090.89 1060.83 1090.89 1061.33 1091.18L1131.89 1132.03C1132.39 1132.32 1132.7 1132.86 1132.7 1133.45C1132.7 1134.04 1132.39 1134.58 1131.89 1134.87L1061.33 1175.72C1061.09 1175.87 1060.8 1175.93 1060.52 1175.93ZM993.225 1133.45L1060.52 1172.42L1127.82 1133.45L1060.52 1094.48L993.225 1133.45Z" fill="white"/>
</g>
<path d="M1088.74 1190.64L1145.19 1157.96L1201.63 1190.64L1145.19 1223.31L1088.74 1190.64Z" fill="#8A8FEB"/>
<g opacity="0.2">
<path d="M1145.19 1306.64C1144.91 1306.64 1144.61 1306.58 1144.37 1306.43L1073.82 1265.58C1073.31 1265.29 1073 1264.75 1073 1264.16V1182.47C1073 1181.88 1073.31 1181.34 1073.82 1181.05C1074.32 1180.75 1074.94 1180.75 1075.45 1181.05L1146 1221.89C1146.51 1222.19 1146.81 1222.73 1146.81 1223.31V1305.01C1146.81 1305.59 1146.51 1306.13 1146 1306.43C1145.76 1306.58 1145.46 1306.64 1145.19 1306.64ZM1076.26 1263.21L1143.56 1302.16V1224.24L1076.26 1185.29V1263.21Z" fill="white"/>
</g>
<g opacity="0.2">
<path d="M1145.19 1306.64C1144.91 1306.64 1144.61 1306.58 1144.37 1306.43C1143.87 1306.13 1143.56 1305.59 1143.56 1305.01V1223.31C1143.56 1222.73 1143.87 1222.19 1144.37 1221.89L1214.92 1181.05C1215.43 1180.75 1216.05 1180.75 1216.55 1181.05C1217.06 1181.34 1217.37 1181.88 1217.37 1182.47V1264.16C1217.37 1264.75 1217.06 1265.29 1216.55 1265.58L1146 1306.43C1145.76 1306.58 1145.46 1306.64 1145.19 1306.64ZM1146.81 1224.26V1302.18L1214.11 1263.23V1185.31L1146.81 1224.26Z" fill="white"/>
</g>
<g opacity="0.2">
<path d="M1088.74 1215.14V1149.79L1145.19 1182.47V1247.82L1088.74 1215.14Z" fill="#606ADB"/>
<path d="M1088.74 1149.79L1145.19 1117.11L1201.63 1149.79L1145.19 1182.47L1088.74 1149.79Z" fill="#8A8FEB"/>
<path d="M1145.19 1247.82L1201.63 1215.14V1149.79L1145.19 1182.47V1247.82Z" fill="#DEDDFC"/>
</g>
<g opacity="0.2">
<path d="M1145.19 1224.95C1144.91 1224.95 1144.61 1224.88 1144.37 1224.73L1073.82 1183.89C1073.31 1183.59 1073 1183.05 1073 1182.47C1073 1181.88 1073.31 1181.34 1073.82 1181.05L1144.37 1140.2C1144.88 1139.9 1145.49 1139.9 1146 1140.2L1216.55 1181.05C1217.06 1181.34 1217.37 1181.88 1217.37 1182.47C1217.37 1183.05 1217.06 1183.59 1216.55 1183.89L1146 1224.73C1145.76 1224.88 1145.46 1224.95 1145.19 1224.95ZM1077.89 1182.47L1145.19 1221.43L1212.48 1182.47L1145.19 1143.5L1077.89 1182.47Z" fill="white"/>
</g>
<g opacity="0.2">
<path d="M1173.41 1198.81L1229.85 1166.13L1286.29 1198.81L1229.85 1231.48L1173.41 1198.81Z" fill="#8A8FEB"/>
</g>
<path d="M1004.08 1108.94V1043.59L1060.52 1076.27V1141.62L1004.08 1108.94Z" fill="#606ADB"/>
<path d="M1004.08 1043.59L1060.52 1010.91L1116.96 1043.59L1060.52 1076.27L1004.08 1043.59Z" fill="#8A8FEB"/>
<path d="M1060.52 1141.62L1116.96 1108.94V1043.59L1060.52 1076.27V1141.62Z" fill="#DEDDFC"/>
<g opacity="0.2">
<path d="M1060.52 1159.59C1060.24 1159.59 1059.95 1159.53 1059.71 1159.38L989.151 1118.53C988.646 1118.24 988.336 1117.7 988.336 1117.11V1035.42C988.336 1034.83 988.646 1034.29 989.151 1034C989.656 1033.7 990.275 1033.7 990.781 1034L1061.33 1074.84C1061.84 1075.14 1062.15 1075.68 1062.15 1076.27V1157.96C1062.15 1158.55 1061.84 1159.09 1061.33 1159.38C1061.09 1159.53 1060.8 1159.59 1060.52 1159.59ZM991.595 1116.16L1058.89 1155.12V1077.2L991.595 1038.25V1116.16Z" fill="white"/>
</g>
<g opacity="0.2">
<path d="M1060.52 1159.59C1060.24 1159.59 1059.95 1159.53 1059.71 1159.38C1059.2 1159.09 1058.89 1158.55 1058.89 1157.96V1076.27C1058.89 1075.68 1059.2 1075.14 1059.71 1074.84L1130.26 1034C1130.76 1033.7 1131.38 1033.7 1131.89 1034C1132.39 1034.29 1132.7 1034.83 1132.7 1035.42V1117.11C1132.7 1117.7 1132.39 1118.24 1131.89 1118.53L1061.33 1159.38C1061.09 1159.53 1060.8 1159.59 1060.52 1159.59ZM1062.15 1077.21V1155.13L1129.44 1116.18V1038.26L1062.15 1077.23V1077.21Z" fill="white"/>
</g>
<g opacity="0.2">
<path d="M1004.08 1068.1V1002.74L1060.52 1035.42V1100.77L1004.08 1068.1Z" fill="#606ADB"/>
<path d="M1004.08 1002.74L1060.52 970.064L1116.96 1002.74L1060.52 1035.42L1004.08 1002.74Z" fill="#8A8FEB"/>
<path d="M1060.52 1100.77L1116.96 1068.1V1002.74L1060.52 1035.42V1100.77Z" fill="#DEDDFC"/>
</g>
<g opacity="0.2">
<path d="M1060.52 1077.9C1060.24 1077.9 1059.95 1077.83 1059.71 1077.69L989.151 1036.84C988.646 1036.55 988.336 1036.01 988.336 1035.42C988.336 1034.83 988.646 1034.29 989.151 1034L1059.71 993.15C1060.21 992.856 1060.83 992.856 1061.33 993.15L1131.89 1034C1132.39 1034.29 1132.7 1034.83 1132.7 1035.42C1132.7 1036.01 1132.39 1036.55 1131.89 1036.84L1061.33 1077.69C1061.09 1077.83 1060.8 1077.9 1060.52 1077.9ZM993.225 1035.42L1060.52 1074.39L1127.82 1035.42L1060.52 996.451L993.225 1035.42Z" fill="white"/>
</g>
<path d="M1088.74 1157.96V1092.6L1145.19 1125.28V1190.64L1088.74 1157.96Z" fill="#606ADB"/>
<path d="M1088.74 1092.6L1145.19 1059.93L1201.63 1092.6L1145.19 1125.28L1088.74 1092.6Z" fill="#8A8FEB"/>
<path d="M1145.19 1190.64L1201.63 1157.96V1092.6L1145.19 1125.28V1190.64Z" fill="#DEDDFC"/>
<g opacity="0.2">
<path d="M1145.19 1208.61C1144.91 1208.61 1144.61 1208.54 1144.37 1208.4L1073.82 1167.55C1073.31 1167.26 1073 1166.72 1073 1166.13V1084.43C1073 1083.85 1073.31 1083.31 1073.82 1083.01C1074.32 1082.72 1074.94 1082.72 1075.45 1083.01L1146 1123.86C1146.51 1124.15 1146.81 1124.69 1146.81 1125.28V1206.97C1146.81 1207.56 1146.51 1208.1 1146 1208.4C1145.76 1208.54 1145.46 1208.61 1145.19 1208.61ZM1076.26 1165.18L1143.56 1204.13V1126.21L1076.26 1087.24V1165.16V1165.18Z" fill="white"/>
</g>
<g opacity="0.2">
<path d="M1145.19 1208.61C1144.91 1208.61 1144.61 1208.54 1144.37 1208.4C1143.87 1208.1 1143.56 1207.56 1143.56 1206.97V1125.28C1143.56 1124.69 1143.87 1124.15 1144.37 1123.86L1214.92 1083.01C1215.43 1082.72 1216.05 1082.72 1216.55 1083.01C1217.06 1083.31 1217.37 1083.85 1217.37 1084.43V1166.13C1217.37 1166.72 1217.06 1167.26 1216.55 1167.55L1146 1208.4C1145.76 1208.54 1145.46 1208.61 1145.19 1208.61ZM1146.81 1126.23V1204.15L1214.11 1165.2V1087.28L1146.81 1126.25V1126.23Z" fill="white"/>
</g>
<g opacity="0.2">
<path d="M1088.74 1117.11V1051.76L1145.19 1084.43V1149.79L1088.74 1117.11Z" fill="#606ADB"/>
<path d="M1088.74 1051.76L1145.19 1019.08L1201.63 1051.76L1145.19 1084.43L1088.74 1051.76Z" fill="#8A8FEB"/>
<path d="M1145.19 1149.79L1201.63 1117.11V1051.76L1145.19 1084.43V1149.79Z" fill="#DEDDFC"/>
</g>
<g opacity="0.2">
<path d="M1145.19 1126.92C1144.91 1126.92 1144.61 1126.85 1144.37 1126.7L1073.82 1085.86C1073.31 1085.56 1073 1085.02 1073 1084.43C1073 1083.85 1073.31 1083.31 1073.82 1083.01L1144.37 1042.17C1144.88 1041.87 1145.49 1041.87 1146 1042.17L1216.55 1083.01C1217.06 1083.31 1217.37 1083.85 1217.37 1084.43C1217.37 1085.02 1217.06 1085.56 1216.55 1085.86L1146 1126.7C1145.76 1126.85 1145.46 1126.92 1145.19 1126.92ZM1077.89 1084.43L1145.19 1123.4L1212.48 1084.43L1145.19 1045.47L1077.89 1084.43Z" fill="white"/>
</g>
<path d="M1173.41 1206.97V1141.62L1229.85 1174.3V1239.65L1173.41 1206.97Z" fill="#606ADB"/>
<path d="M1173.41 1141.62L1229.85 1108.94L1286.29 1141.62L1229.85 1174.3L1173.41 1141.62Z" fill="#8A8FEB"/>
<path d="M1229.85 1239.65L1286.29 1206.97V1141.62L1229.85 1174.3V1239.65Z" fill="#DEDDFC"/>
<g opacity="0.2">
<path d="M1229.85 1257.62C1229.57 1257.62 1229.28 1257.56 1229.04 1257.41L1158.48 1216.57C1157.98 1216.27 1157.67 1215.73 1157.67 1215.14V1133.45C1157.67 1132.86 1157.98 1132.32 1158.48 1132.03C1158.99 1131.74 1159.61 1131.74 1160.11 1132.03L1230.67 1172.88C1231.17 1173.17 1231.48 1173.71 1231.48 1174.3V1255.99C1231.48 1256.58 1231.17 1257.12 1230.67 1257.41C1230.42 1257.56 1230.13 1257.62 1229.85 1257.62ZM1160.93 1214.2L1228.22 1253.15V1175.23L1160.93 1136.28V1214.2Z" fill="white"/>
</g>
<g opacity="0.2">
<path d="M1229.85 1257.62C1229.57 1257.62 1229.28 1257.56 1229.04 1257.41C1228.53 1257.12 1228.22 1256.58 1228.22 1255.99V1174.3C1228.22 1173.71 1228.53 1173.17 1229.04 1172.88L1299.59 1132.03C1300.1 1131.74 1300.71 1131.74 1301.22 1132.03C1301.72 1132.32 1302.03 1132.86 1302.03 1133.45V1215.14C1302.03 1215.73 1301.72 1216.27 1301.22 1216.57L1230.67 1257.41C1230.42 1257.56 1230.13 1257.62 1229.85 1257.62ZM1231.48 1175.24V1253.16L1298.78 1214.21V1136.29L1231.48 1175.24Z" fill="white"/>
</g>
<g opacity="0.2">
<path d="M1173.41 1166.13V1100.77L1229.85 1133.45V1198.81L1173.41 1166.13Z" fill="#606ADB"/>
<path d="M1173.41 1100.77L1229.85 1068.1L1286.29 1100.77L1229.85 1133.45L1173.41 1100.77Z" fill="#8A8FEB"/>
<path d="M1229.85 1198.81L1286.29 1166.13V1100.77L1229.85 1133.45V1198.81Z" fill="#DEDDFC"/>
</g>
<g opacity="0.2">
<path d="M1229.85 1175.93C1229.57 1175.93 1229.28 1175.87 1229.04 1175.72L1158.48 1134.87C1157.98 1134.58 1157.67 1134.04 1157.67 1133.45C1157.67 1132.86 1157.98 1132.32 1158.48 1132.03L1229.04 1091.18C1229.54 1090.89 1230.16 1090.89 1230.67 1091.18L1301.22 1132.03C1301.72 1132.32 1302.03 1132.86 1302.03 1133.45C1302.03 1134.04 1301.72 1134.58 1301.22 1134.87L1230.67 1175.72C1230.42 1175.87 1230.13 1175.93 1229.85 1175.93ZM1162.56 1133.45L1229.85 1172.42L1297.15 1133.45L1229.85 1094.48L1162.56 1133.45Z" fill="white"/>
</g>
<path d="M1004.08 1010.91V945.556L1060.52 978.233V1043.59L1004.08 1010.91Z" fill="#606ADB"/>
<path d="M1004.08 945.556L1060.52 912.878L1116.96 945.556L1060.52 978.233L1004.08 945.556Z" fill="#8A8FEB"/>
<path d="M1060.52 1043.59L1116.96 1010.91V945.556L1060.52 978.233V1043.59Z" fill="#DEDDFC"/>
<g opacity="0.2">
<path d="M1060.52 1061.56C1060.24 1061.56 1059.95 1061.5 1059.71 1061.35L989.151 1020.5C988.646 1020.21 988.336 1019.67 988.336 1019.08V937.386C988.336 936.798 988.646 936.259 989.151 935.965C989.656 935.671 990.275 935.671 990.781 935.965L1061.33 976.812C1061.84 977.106 1062.15 977.645 1062.15 978.233V1059.93C1062.15 1060.51 1061.84 1061.05 1061.33 1061.35C1061.09 1061.5 1060.8 1061.56 1060.52 1061.56ZM991.595 1018.13L1058.89 1057.1V979.181L991.595 940.213V1018.13Z" fill="white"/>
</g>
<g opacity="0.2">
<path d="M1060.52 1061.56C1060.24 1061.56 1059.95 1061.5 1059.71 1061.35C1059.2 1061.05 1058.89 1060.51 1058.89 1059.93V978.233C1058.89 977.645 1059.2 977.106 1059.71 976.812L1130.26 935.965C1130.76 935.671 1131.38 935.671 1131.89 935.965C1132.39 936.259 1132.7 936.798 1132.7 937.386V1019.08C1132.7 1019.67 1132.39 1020.21 1131.89 1020.5L1061.33 1061.35C1061.09 1061.5 1060.8 1061.56 1060.52 1061.56ZM1062.15 979.181V1057.1L1129.44 1018.13V940.213L1062.15 979.181Z" fill="white"/>
</g>
<g opacity="0.2">
<path d="M1004.08 970.064V904.709L1060.52 937.387V1002.74L1004.08 970.064Z" fill="#606ADB"/>
<path d="M1004.08 904.709L1060.52 872.032L1116.96 904.709L1060.52 937.386L1004.08 904.709Z" fill="#8A8FEB"/>
<path d="M1060.52 1002.74L1116.96 970.064V904.709L1060.52 937.387V1002.74Z" fill="#DEDDFC"/>
</g>
<g opacity="0.2">
<path d="M1060.52 979.867C1060.24 979.867 1059.95 979.802 1059.71 979.655L989.151 938.808C988.646 938.514 988.336 937.975 988.336 937.386C988.336 936.798 988.646 936.259 989.151 935.965L1059.71 895.118C1060.21 894.824 1060.83 894.824 1061.33 895.118L1131.89 935.965C1132.39 936.259 1132.7 936.798 1132.7 937.386C1132.7 937.975 1132.39 938.514 1131.89 938.808L1061.33 979.655C1061.09 979.802 1060.8 979.867 1060.52 979.867ZM993.225 937.386L1060.52 976.354L1127.82 937.386L1060.52 898.419L993.225 937.386Z" fill="white"/>
</g>
<path d="M1088.74 1059.93V994.572L1145.19 1027.25V1092.6L1088.74 1059.93Z" fill="#606ADB"/>
<path d="M1088.74 994.572L1145.19 961.895L1201.63 994.572L1145.19 1027.25L1088.74 994.572Z" fill="#8A8FEB"/>
<path d="M1145.19 1092.6L1201.63 1059.93V994.572L1145.19 1027.25V1092.6Z" fill="#DEDDFC"/>
<g opacity="0.2">
<path d="M1145.19 1110.58C1144.91 1110.58 1144.61 1110.51 1144.37 1110.36L1073.82 1069.52C1073.31 1069.22 1073 1068.68 1073 1068.1V986.403C1073 985.814 1073.31 985.275 1073.82 984.981C1074.32 984.687 1074.94 984.687 1075.45 984.981L1146 1025.83C1146.51 1026.12 1146.81 1026.66 1146.81 1027.25V1108.94C1146.81 1109.53 1146.51 1110.07 1146 1110.36C1145.76 1110.51 1145.46 1110.58 1145.19 1110.58ZM1076.26 1067.15L1143.56 1106.12V1028.2L1076.26 989.229V1067.15Z" fill="white"/>
</g>
<g opacity="0.2">
<path d="M1145.19 1110.58C1144.91 1110.58 1144.61 1110.51 1144.37 1110.36C1143.87 1110.07 1143.56 1109.53 1143.56 1108.94V1027.25C1143.56 1026.66 1143.87 1026.12 1144.37 1025.83L1214.92 984.981C1215.43 984.687 1216.05 984.687 1216.55 984.981C1217.06 985.275 1217.37 985.814 1217.37 986.403V1068.1C1217.37 1068.68 1217.06 1069.22 1216.55 1069.52L1146 1110.36C1145.76 1110.51 1145.46 1110.58 1145.19 1110.58ZM1146.81 1028.2V1106.12L1214.11 1067.15V989.229L1146.81 1028.2Z" fill="white"/>
</g>
<g opacity="0.2">
<path d="M1088.74 1019.08V953.725L1145.19 986.403V1051.76L1088.74 1019.08Z" fill="#606ADB"/>
<path d="M1088.74 953.725L1145.19 921.048L1201.63 953.725L1145.19 986.403L1088.74 953.725Z" fill="#8A8FEB"/>
<path d="M1145.19 1051.76L1201.63 1019.08V953.725L1145.19 986.403V1051.76Z" fill="#DEDDFC"/>
</g>
<g opacity="0.2">
<path d="M1145.19 1028.88C1144.91 1028.88 1144.61 1028.82 1144.37 1028.67L1073.82 987.824C1073.31 987.53 1073 986.991 1073 986.403C1073 985.814 1073.31 985.275 1073.82 984.981L1144.37 944.134C1144.88 943.84 1145.49 943.84 1146 944.134L1216.55 984.981C1217.06 985.275 1217.37 985.814 1217.37 986.403C1217.37 986.991 1217.06 987.53 1216.55 987.824L1146 1028.67C1145.76 1028.82 1145.46 1028.88 1145.19 1028.88ZM1077.89 986.403L1145.19 1025.37L1212.48 986.403L1145.19 947.435L1077.89 986.403Z" fill="white"/>
</g>
<path d="M1173.41 1108.94V1043.59L1229.85 1076.27V1141.62L1173.41 1108.94Z" fill="#606ADB"/>
<path d="M1173.41 1043.59L1229.85 1010.91L1286.29 1043.59L1229.85 1076.27L1173.41 1043.59Z" fill="#8A8FEB"/>
<path d="M1229.85 1141.62L1286.29 1108.94V1043.59L1229.85 1076.27V1141.62Z" fill="#DEDDFC"/>
<g opacity="0.2">
<path d="M1229.85 1159.59C1229.57 1159.59 1229.28 1159.53 1229.04 1159.38L1158.48 1118.53C1157.98 1118.24 1157.67 1117.7 1157.67 1117.11V1035.42C1157.67 1034.83 1157.98 1034.29 1158.48 1034C1158.99 1033.7 1159.61 1033.7 1160.11 1034L1230.67 1074.84C1231.17 1075.14 1231.48 1075.68 1231.48 1076.27V1157.96C1231.48 1158.55 1231.17 1159.09 1230.67 1159.38C1230.42 1159.53 1230.13 1159.59 1229.85 1159.59ZM1160.93 1116.16L1228.22 1155.12V1077.2L1160.93 1038.23V1116.15V1116.16Z" fill="white"/>
</g>
<g opacity="0.2">
<path d="M1229.85 1159.59C1229.57 1159.59 1229.28 1159.53 1229.04 1159.38C1228.53 1159.09 1228.22 1158.55 1228.22 1157.96V1076.27C1228.22 1075.68 1228.53 1075.14 1229.04 1074.84L1299.59 1034C1300.1 1033.7 1300.71 1033.7 1301.22 1034C1301.72 1034.29 1302.03 1034.83 1302.03 1035.42V1117.11C1302.03 1117.7 1301.72 1118.24 1301.22 1118.53L1230.67 1159.38C1230.42 1159.53 1230.13 1159.59 1229.85 1159.59ZM1231.48 1077.21V1155.13L1298.78 1116.18V1038.26L1231.48 1077.23V1077.21Z" fill="white"/>
</g>
<g opacity="0.2">
<path d="M1173.41 1068.1V1002.74L1229.85 1035.42V1100.77L1173.41 1068.1Z" fill="#606ADB"/>
<path d="M1173.41 1002.74L1229.85 970.064L1286.29 1002.74L1229.85 1035.42L1173.41 1002.74Z" fill="#8A8FEB"/>
<path d="M1229.85 1100.77L1286.29 1068.1V1002.74L1229.85 1035.42V1100.77Z" fill="#DEDDFC"/>
</g>
<g opacity="0.2">
<path d="M1229.85 1077.9C1229.57 1077.9 1229.28 1077.83 1229.04 1077.69L1158.48 1036.84C1157.98 1036.55 1157.67 1036.01 1157.67 1035.42C1157.67 1034.83 1157.98 1034.29 1158.48 1034L1229.04 993.15C1229.54 992.856 1230.16 992.856 1230.67 993.15L1301.22 1034C1301.72 1034.29 1302.03 1034.83 1302.03 1035.42C1302.03 1036.01 1301.72 1036.55 1301.22 1036.84L1230.67 1077.69C1230.42 1077.83 1230.13 1077.9 1229.85 1077.9ZM1162.56 1035.42L1229.85 1074.39L1297.15 1035.42L1229.85 996.451L1162.56 1035.42Z" fill="white"/>
</g>
</g>
<path d="M888.104 1088.45L795.631 1034.83L888.104 981.247L980.613 1034.87L888.104 1088.45Z" fill="#32B8B2"/>
<path d="M888.104 1026.72L795.631 973.101L888.104 919.516L980.613 973.101L888.104 1026.72Z" fill="#0074E8"/>
<path d="M888.104 977.208L795.631 923.624L888.104 870.039L980.613 923.624L888.104 977.208Z" fill="#61C0E3"/>
</g>
</g>
<defs>
<filter id="filter0_f_603_1363" x="-16.7706" y="594.229" width="1408.02" height="1408.02" filterUnits="userSpaceOnUse" color-interpolation-filters="sRGB">
<feFlood flood-opacity="0" result="BackgroundImageFix"/>
<feBlend mode="normal" in="SourceGraphic" in2="BackgroundImageFix" result="shape"/>
<feGaussianBlur stdDeviation="161" result="effect1_foregroundBlur_603_1363"/>
</filter>
<filter id="filter1_f_603_1363" x="511.715" y="345.327" width="1559.15" height="1559.15" filterUnits="userSpaceOnUse" color-interpolation-filters="sRGB">
<feFlood flood-opacity="0" result="BackgroundImageFix"/>
<feBlend mode="normal" in="SourceGraphic" in2="BackgroundImageFix" result="shape"/>
<feGaussianBlur stdDeviation="161" result="effect1_foregroundBlur_603_1363"/>
</filter>
<clipPath id="clip0_603_1363">
<rect width="1440" height="1254" fill="white"/>
</clipPath>
<clipPath id="clip1_603_1363">
<rect width="853" height="415" fill="white" transform="translate(653 774)"/>
</clipPath>
<clipPath id="clip2_603_1363">
<rect width="483.044" height="581.657" fill="white" transform="translate(988.336 774)"/>
</clipPath>
</defs>
</svg>
