<svg width="513" height="512" viewBox="0 0 513 512" fill="none" xmlns="http://www.w3.org/2000/svg">
<path d="M147.905 215.59C147.905 221.743 148.57 226.732 149.734 230.391C151.065 234.049 152.728 238.04 155.056 242.364C155.887 243.694 156.22 245.025 156.22 246.189C156.22 247.852 155.222 249.515 153.06 251.178L142.584 258.162C141.087 259.16 139.59 259.659 138.26 259.659C136.597 259.659 134.934 258.827 133.271 257.33C130.943 254.836 128.947 252.175 127.285 249.515C125.622 246.688 123.959 243.528 122.129 239.703C109.158 255.002 92.8615 262.652 73.2387 262.652C59.27 262.652 48.1282 258.661 39.9798 250.679C31.8313 242.697 27.674 232.054 27.674 218.75C27.674 204.615 32.6628 193.141 42.8068 184.493C52.9508 175.846 66.4207 171.522 83.549 171.522C89.203 171.522 95.0233 172.021 101.176 172.853C107.329 173.684 113.648 175.015 120.3 176.511V164.372C120.3 151.733 117.639 142.92 112.484 137.765C107.163 132.609 98.1829 130.115 85.3783 130.115C79.5579 130.115 73.5713 130.78 67.4184 132.277C61.2655 133.773 55.2789 135.603 49.4586 137.931C46.7979 139.095 44.8023 139.76 43.6383 140.093C42.4742 140.425 41.6427 140.592 40.9776 140.592C38.6494 140.592 37.4854 138.929 37.4854 135.436V127.288C37.4854 124.627 37.818 122.632 38.6494 121.468C39.4809 120.304 40.9776 119.14 43.3057 117.975C49.126 114.982 56.1104 112.488 64.2588 110.492C72.4073 108.33 81.0546 107.333 90.2008 107.333C109.99 107.333 124.458 111.823 133.77 120.802C142.916 129.782 147.572 143.419 147.572 161.711V215.59H147.905ZM80.3894 240.867C85.8771 240.867 91.5312 239.87 97.5178 237.874C103.504 235.878 108.826 232.22 113.316 227.231C115.976 224.072 117.972 220.579 118.97 216.588C119.968 212.597 120.633 207.775 120.633 202.121V195.136C115.81 193.972 110.655 192.974 105.334 192.309C100.012 191.644 94.8571 191.311 89.7019 191.311C78.5602 191.311 70.4117 193.473 64.924 197.963C59.4363 202.453 56.7756 208.772 56.7756 217.087C56.7756 224.903 58.7711 230.723 62.9285 234.714C66.9195 238.872 72.7399 240.867 80.3894 240.867ZM213.924 258.827C210.931 258.827 208.935 258.328 207.605 257.164C206.275 256.166 205.11 253.838 204.113 250.679L165.033 122.133C164.036 118.807 163.537 116.645 163.537 115.481C163.537 112.82 164.867 111.324 167.528 111.324H183.825C186.984 111.324 189.146 111.823 190.31 112.987C191.641 113.984 192.638 116.313 193.636 119.472L221.574 229.559L247.516 119.472C248.347 116.146 249.345 113.984 250.675 112.987C252.006 111.989 254.334 111.324 257.327 111.324H270.631C273.79 111.324 275.952 111.823 277.282 112.987C278.613 113.984 279.777 116.313 280.442 119.472L306.717 230.89L335.486 119.472C336.483 116.146 337.647 113.984 338.811 112.987C340.142 111.989 342.304 111.324 345.297 111.324H360.762C363.423 111.324 364.92 112.654 364.92 115.481C364.92 116.313 364.753 117.144 364.587 118.142C364.421 119.14 364.088 120.47 363.423 122.299L323.346 250.845C322.348 254.171 321.184 256.333 319.854 257.33C318.523 258.328 316.362 258.993 313.535 258.993H299.233C296.074 258.993 293.912 258.495 292.581 257.33C291.251 256.166 290.087 254.005 289.422 250.679L263.646 143.419L238.037 250.512C237.205 253.838 236.208 256 234.877 257.164C233.547 258.328 231.219 258.827 228.225 258.827H213.924ZM427.613 263.317C418.966 263.317 410.318 262.319 402.003 260.324C393.689 258.328 387.203 256.166 382.88 253.672C380.219 252.175 378.39 250.512 377.724 249.016C377.059 247.519 376.727 245.856 376.727 244.359V235.878C376.727 232.386 378.057 230.723 380.551 230.723C381.549 230.723 382.547 230.89 383.545 231.222C384.543 231.555 386.039 232.22 387.702 232.885C393.356 235.38 399.509 237.375 405.995 238.705C412.646 240.036 419.132 240.701 425.784 240.701C436.26 240.701 444.409 238.872 450.063 235.213C455.717 231.555 458.71 226.233 458.71 219.415C458.71 214.759 457.213 210.934 454.22 207.775C451.227 204.615 445.573 201.788 437.424 199.127L413.311 191.644C401.172 187.819 392.192 182.165 386.704 174.682C381.217 167.365 378.39 159.217 378.39 150.569C378.39 143.585 379.886 137.432 382.88 132.111C385.873 126.789 389.864 122.133 394.853 118.474C399.842 114.65 405.496 111.823 412.147 109.827C418.799 107.831 425.784 107 433.101 107C436.759 107 440.584 107.166 444.242 107.665C448.067 108.164 451.559 108.829 455.051 109.494C458.377 110.326 461.537 111.157 464.53 112.155C467.524 113.153 469.852 114.151 471.515 115.148C473.843 116.479 475.506 117.809 476.503 119.306C477.501 120.636 478 122.465 478 124.794V132.609C478 136.102 476.67 137.931 474.175 137.931C472.845 137.931 470.683 137.266 467.856 135.935C458.377 131.612 447.734 129.45 435.928 129.45C426.449 129.45 418.966 130.946 413.81 134.106C408.655 137.266 405.995 142.088 405.995 148.906C405.995 153.563 407.657 157.554 410.983 160.713C414.309 163.873 420.462 167.032 429.276 169.859L452.89 177.343C464.863 181.167 473.51 186.489 478.665 193.307C483.82 200.125 486.315 207.941 486.315 216.588C486.315 223.739 484.818 230.224 481.991 235.878C478.998 241.532 475.007 246.521 469.852 250.512C464.697 254.67 458.544 257.663 451.393 259.825C443.91 262.153 436.094 263.317 427.613 263.317Z" fill="#252F3E"/>
<path fill-rule="evenodd" clip-rule="evenodd" d="M459.042 344.136C404.331 384.546 324.842 405.998 256.495 405.998C160.71 405.998 74.4026 370.577 9.21507 311.709C4.05994 307.053 8.71619 300.733 14.8691 304.392C85.3781 345.3 172.35 370.078 262.316 370.078C323.013 370.078 389.697 357.44 451.06 331.498C460.206 327.341 468.022 337.485 459.042 344.136Z" fill="#FF9900"/>
<path fill-rule="evenodd" clip-rule="evenodd" d="M481.825 318.194C474.84 309.214 435.595 313.871 417.801 316.032C412.48 316.698 411.648 312.041 416.471 308.549C447.734 286.598 499.119 292.918 505.106 300.234C511.093 307.718 503.443 359.103 474.175 383.714C469.685 387.539 465.362 385.544 467.357 380.555C474.009 364.092 488.809 327.008 481.825 318.194Z" fill="#FF9900"/>
</svg>
