<svg width="513" height="512" viewBox="0 0 513 512" fill="none" xmlns="http://www.w3.org/2000/svg">
<path d="M238.312 428.598C277.618 421.668 316.921 414.712 356.218 407.732L357.326 407.496L296.677 335.356C263.322 295.681 236.03 263.065 236.03 262.879C236.03 262.524 298.653 90.07 299.006 89.4553C299.123 89.252 341.741 162.829 402.314 267.815C459.022 366.103 505.776 447.141 506.21 447.9L507 449.28L314.259 449.254L121.515 449.229L238.312 428.598ZM7 406.599C7 406.497 35.5767 356.891 70.5044 296.362L134.009 186.307L208.015 124.203C248.717 90.0446 282.131 62.0522 282.265 62.0014C282.397 61.9506 281.864 63.297 281.074 64.994C280.286 66.6935 244.124 144.256 200.714 237.359L121.785 406.637L64.3923 406.711C32.828 406.751 7 406.7 7 406.599Z" fill="#0089D6"/>
</svg>
