<svg width="512" height="512" viewBox="0 0 512 512" fill="none" xmlns="http://www.w3.org/2000/svg">
<path d="M256.035 506V409.047C358.658 409.047 438.318 307.276 398.913 199.267C384.455 159.579 352.421 127.545 312.449 113.087C204.441 73.9659 102.669 153.342 102.669 255.965H5.99994C5.99994 92.3925 164.186 -35.1766 335.695 18.4024C410.536 41.9318 470.352 101.464 493.598 176.305C547.177 347.814 419.607 506 256.035 506Z" fill="#0080FF"/>
<path fill-rule="evenodd" clip-rule="evenodd" d="M256.319 409.614H159.65V312.945H256.319V409.614Z" fill="#0080FF"/>
<path fill-rule="evenodd" clip-rule="evenodd" d="M159.647 483.605H85.6569V409.614H159.647V483.605Z" fill="#0080FF"/>
<path fill-rule="evenodd" clip-rule="evenodd" d="M85.6556 409.614H23.572V347.531H85.6556V409.614Z" fill="#0080FF"/>
</svg>
