<svg width="512" height="512" viewBox="0 0 512 512" fill="none" xmlns="http://www.w3.org/2000/svg">
<path d="M332.729 389.559L281.591 478.455H147.663C135.714 478.455 124.68 472.057 118.739 461.69L10.4105 272.818C4.52983 262.548 4.52983 249.932 10.4105 239.663L51.6368 167.813L102.52 256.228L179.228 389.559H332.729Z" fill="#FBBC05"/>
<path d="M501.572 272.818L393.243 461.72C387.307 472.091 376.27 478.486 364.32 478.481H281.561L332.699 389.585L409.463 256.228L332.699 122.896H434.581L501.542 239.663C507.475 249.915 507.487 262.555 501.572 272.818Z" fill="#EA4335"/>
<path d="M434.606 122.896H179.228L102.52 256.228L51.6368 167.787L118.739 50.765C124.675 40.3927 135.712 33.9951 147.663 34H364.35C376.295 34.0108 387.324 40.4044 393.269 50.765L434.606 122.896Z" fill="#4285F4"/>
<path fill-rule="evenodd" clip-rule="evenodd" d="M409.437 256.228L332.729 122.896H179.228L102.52 256.228L179.253 389.559H332.699L409.437 256.228ZM322.672 256.228C322.672 293.054 292.818 322.908 255.991 322.908C219.165 322.908 189.311 293.054 189.311 256.228C189.311 219.401 219.165 189.547 255.991 189.547C292.818 189.547 322.672 219.401 322.672 256.228Z" fill="#E0E0E0"/>
<path opacity="0.2" d="M118.739 53.5179C124.676 43.1473 135.713 36.7515 147.663 36.7572H364.35C376.294 36.7671 387.323 43.159 393.269 53.5179L433.046 122.896H434.636L393.269 50.765C387.334 40.394 376.299 33.9966 364.35 34H147.663C135.714 34.0022 124.68 40.3979 118.739 50.765L51.6368 167.787L52.4295 169.177L118.739 53.5179Z" fill="white"/>
<path d="M102.52 256.228L179.228 122.896H434.606L433.016 120.113H179.228L102.52 253.445" fill="#1A237E" fill-opacity="0.2"/>
<path opacity="0.2" d="M10.4105 242.42L51.6369 170.54L102.52 258.985L179.228 392.312H331.11L332.729 389.529H179.228L102.52 256.228L51.6369 167.787L10.4105 239.637C7.30494 245.106 5.79876 251.338 6.06374 257.621C6.27731 252.28 7.76786 247.067 10.4105 242.42Z" fill="white"/>
<path opacity="0.2" d="M283.18 475.668H147.663C135.715 475.667 124.681 469.273 118.739 458.907L10.4105 270.035C7.76829 265.388 6.27777 260.175 6.0637 254.834C5.77443 261.12 7.28222 267.358 10.4105 272.818L118.739 461.72C124.676 472.091 135.713 478.486 147.663 478.481H281.591L283.18 475.668Z" fill="#BF360C"/>
<path opacity="0.2" d="M411.027 256.228L334.319 122.896H332.729L409.463 256.228H411.027ZM501.572 270.035L393.243 458.937C387.307 469.308 376.27 475.704 364.32 475.698H283.18L281.561 478.481H364.32C376.266 478.472 387.297 472.08 393.243 461.72L501.572 272.818C504.688 267.353 506.195 261.119 505.919 254.834C505.705 260.175 504.215 265.388 501.572 270.035Z" fill="#3E2723"/>
<path opacity="0.2" d="M434.606 125.653L501.572 242.42C504.215 247.067 505.705 252.28 505.919 257.621C506.208 251.335 504.7 245.097 501.572 239.637L434.606 122.871H332.729L334.349 125.653H434.606ZM332.729 392.342L411.027 256.228H409.463L332.729 389.559L281.59 478.455H283.18L332.729 392.342Z" fill="white"/>
</svg>
