<svg width="48" height="48" viewBox="0 0 48 48" fill="none" xmlns="http://www.w3.org/2000/svg">
<path d="M44.3896 22.0715C42.4172 20.0662 39.6887 18.7842 36.6315 18.7842C34.0017 18.7842 31.7334 19.7046 29.7282 21.3154C28.8406 22.0058 27.953 22.8276 26.8024 23.9453C26.2107 24.4712 9.80701 40.4476 9.80701 40.4476C10.6946 40.5791 11.8451 40.5791 12.93 40.612C13.9162 40.612 32.8182 40.612 33.6072 40.612C35.1851 40.612 36.2371 40.612 37.3547 40.5462C39.9188 40.349 42.3186 39.4285 44.2581 37.5219C48.5645 33.2813 48.6302 26.3779 44.3896 22.0715ZM41.2338 34.4647C40.3791 35.2865 38.8998 36.2398 36.4672 36.3385C35.3166 36.3713 34.0017 36.3713 33.3771 36.3713H20.1949C24.9615 31.7362 29.1693 27.6599 29.6295 27.1997C30.0569 26.7724 31.0431 25.8519 31.8978 25.0958C33.7716 23.4522 35.4152 23.0906 36.5987 23.1234C38.4396 23.1563 40.1161 23.9124 41.3324 25.0958C43.8965 27.6928 43.8636 31.9006 41.2338 34.4647Z" fill="#00A1FF"/>
<path d="M17.8938 21.0524C15.9543 19.606 13.7846 18.7842 11.352 18.7842C8.29483 18.7842 5.56635 20.0334 3.59396 22.0715C-0.613808 26.3779 -0.580934 33.2813 3.75833 37.5219C5.50061 39.2313 7.60449 40.1518 9.83987 40.4805L14.0476 36.3713C13.3573 36.3713 12.404 36.3385 11.5164 36.3385C9.05091 36.2727 7.57162 35.3194 6.74979 34.4647C4.11993 31.9006 4.05419 27.6928 6.61829 25.0958C7.80173 23.8795 9.51114 23.1234 11.352 23.1234C12.5026 23.1234 14.0805 23.4522 15.8557 24.9315C16.7104 25.6218 18.5841 27.2983 19.406 28.0215C19.4388 28.0544 19.5046 28.0544 19.5375 28.0215L22.4632 25.1616C22.496 25.1287 22.496 25.0301 22.4632 25.0301C21.0496 23.6823 19.0772 21.94 17.8938 21.0524Z" fill="#00C4D6"/>
<path d="M37.7821 16.3516C35.7439 10.6645 30.3198 6.58826 23.9753 6.58826C16.6446 6.58826 10.5959 11.9466 9.51111 18.9157C10.1028 18.8171 10.6945 18.7842 11.3191 18.7842C12.2067 18.7842 13.0285 18.8828 13.7846 19.0801C13.8175 19.0801 13.8175 19.0801 13.8175 19.0801C14.8037 14.3792 18.9786 10.8618 23.9424 10.8618C28.0845 10.8618 31.7005 13.3601 33.3442 16.8776C33.377 16.9104 33.4099 16.9433 33.4757 16.9433C34.7248 16.6146 36.1713 16.4173 37.6177 16.516C37.7492 16.5488 37.7821 16.4831 37.7821 16.3516Z" fill="#006EFF"/>
</svg>
