<svg width="301" height="300" viewBox="0 0 301 300" fill="none" xmlns="http://www.w3.org/2000/svg">
<path d="M126.323 63.1584C126.323 98.0407 98.0485 126.317 63.1678 126.317C28.2872 126.317 0.000946045 98.0407 0.000946045 63.1584C0.000946045 28.2761 28.2758 0 63.1678 0C98.0371 0 126.323 28.2761 126.323 63.1584Z" fill="#080E12"/>
<path fill-rule="evenodd" clip-rule="evenodd" d="M242.572 126.098C275.029 123.407 300.53 96.2563 300.53 63.1584C300.53 28.2761 272.206 0 237.264 0C202.323 0 173.999 28.2761 173.999 63.1584C173.999 63.1655 173.999 63.1726 173.999 63.1797L173.982 63.1653C173.982 63.1653 168.498 107.934 142.349 134.221C118.556 158.141 64.5634 171.925 55.0285 174.215C23.9745 178.249 0 204.749 0 236.842C0 271.724 28.3354 300 63.2766 300C76.5905 300 88.9437 295.895 99.1352 288.883C135.373 269.621 167.685 272.847 203.873 290.496C213.565 296.52 225.008 300 237.266 300C272.207 300 300.531 271.724 300.531 236.842C300.531 201.959 272.207 173.683 237.266 173.683C211.975 173.683 190.151 188.497 180.025 209.908C175.093 216.715 165.86 226.154 152.588 226.154C140.909 226.154 133.608 223.845 129.457 221.826C134.704 209.815 146.995 184.989 166.082 165.801C186.949 144.823 227.174 130.876 242.572 126.098Z" fill="url(#paint0_linear_913_89042)"/>
<defs>
<linearGradient id="paint0_linear_913_89042" x1="1.65044e-06" y1="35.294" x2="304.079" y2="39.4342" gradientUnits="userSpaceOnUse">
<stop stop-color="#32B8B2"/>
<stop offset="1" stop-color="#088DB2"/>
</linearGradient>
</defs>
</svg>