<svg width="16" height="16" viewBox="0 0 16 16" fill="none"
    xmlns="http://www.w3.org/2000/svg">
    <path fill-rule="evenodd" clip-rule="evenodd" d="M10.2577 12.156L11.2003 13.0987C11.3304 13.2288 11.5416 13.2288 11.6717 13.0987L13.557 11.2133C13.6871 11.0833 13.6871 10.8721 13.557 10.742C13.4269 10.6119 13.2158 10.6119 13.0857 10.742L11.436 12.3917L10.729 11.6847C10.5989 11.5546 10.3878 11.5546 10.2577 11.6847C10.1276 11.8148 10.1276 12.0259 10.2577 12.156Z" fill="#0E2B6E" stroke="#0E2B6E" stroke-width="0.5" stroke-linejoin="round"/>
    <path fill-rule="evenodd" clip-rule="evenodd" d="M4.25 6.31666C4.25 6.12233 4.17267 5.93566 4.03533 5.79799C3.89767 5.66066 3.711 5.58333 3.51667 5.58333H2.98333C2.789 5.58333 2.60233 5.66066 2.46467 5.79799C2.32733 5.93566 2.25 6.12233 2.25 6.31666V6.85C2.25 7.04433 2.32733 7.231 2.46467 7.36866C2.60233 7.506 2.789 7.58333 2.98333 7.58333H3.51667C3.711 7.58333 3.89767 7.506 4.03533 7.36866C4.17267 7.231 4.25 7.04433 4.25 6.85V6.31666ZM3.58333 6.31666V6.85C3.58333 6.86766 3.57633 6.88466 3.56366 6.897C3.55133 6.90966 3.53433 6.91666 3.51667 6.91666H2.98333C2.96567 6.91666 2.94867 6.90966 2.93634 6.897C2.92367 6.88466 2.91667 6.86766 2.91667 6.85V6.31666C2.91667 6.29899 2.92367 6.28199 2.93634 6.26966C2.94867 6.25699 2.96567 6.24999 2.98333 6.24999H3.51667C3.53433 6.24999 3.55133 6.25699 3.56366 6.26966C3.57633 6.28199 3.58333 6.29899 3.58333 6.31666Z" fill="#0E2B6E" stroke="#0E2B6E" stroke-width="0.2" stroke-linejoin="round"/>
    <path fill-rule="evenodd" clip-rule="evenodd" d="M4.25 8.98333C4.25 8.789 4.17267 8.60233 4.03533 8.46467C3.89767 8.32733 3.711 8.25 3.51667 8.25H2.98333C2.789 8.25 2.60233 8.32733 2.46467 8.46467C2.32733 8.60233 2.25 8.789 2.25 8.98333V9.51667C2.25 9.711 2.32733 9.89767 2.46467 10.0353C2.60233 10.1727 2.789 10.25 2.98333 10.25H3.51667C3.711 10.25 3.89767 10.1727 4.03533 10.0353C4.17267 9.89767 4.25 9.711 4.25 9.51667V8.98333ZM3.58333 8.98333V9.51667C3.58333 9.53433 3.57633 9.55133 3.56366 9.56367C3.55133 9.57633 3.53433 9.58333 3.51667 9.58333H2.98333C2.96567 9.58333 2.94867 9.57633 2.93634 9.56367C2.92367 9.55133 2.91667 9.53433 2.91667 9.51667V8.98333C2.91667 8.96567 2.92367 8.94867 2.93634 8.93633C2.94867 8.92367 2.96567 8.91667 2.98333 8.91667H3.51667C3.53433 8.91667 3.55133 8.92367 3.56366 8.93633C3.57633 8.94867 3.58333 8.96567 3.58333 8.98333Z" fill="#0E2B6E" stroke="#0E2B6E" stroke-width="0.2" stroke-linejoin="round"/>
    <path fill-rule="evenodd" clip-rule="evenodd" d="M4.25 11.65C4.25 11.4557 4.17267 11.269 4.03533 11.1313C3.89767 10.994 3.711 10.9167 3.51667 10.9167H2.98333C2.789 10.9167 2.60233 10.994 2.46467 11.1313C2.32733 11.269 2.25 11.4557 2.25 11.65V12.1833C2.25 12.3777 2.32733 12.5643 2.46467 12.702C2.60233 12.8393 2.789 12.9167 2.98333 12.9167H3.51667C3.711 12.9167 3.89767 12.8393 4.03533 12.702C4.17267 12.5643 4.25 12.3777 4.25 12.1833V11.65ZM3.58333 11.65V12.1833C3.58333 12.201 3.57633 12.218 3.56366 12.2303C3.55133 12.243 3.53433 12.25 3.51667 12.25H2.98333C2.96567 12.25 2.94867 12.243 2.93634 12.2303C2.92367 12.218 2.91667 12.201 2.91667 12.1833V11.65C2.91667 11.6323 2.92367 11.6153 2.93634 11.603C2.94867 11.5903 2.96567 11.5833 2.98333 11.5833H3.51667C3.53433 11.5833 3.55133 11.5903 3.56366 11.603C3.57633 11.6153 3.58333 11.6323 3.58333 11.65Z" fill="#0E2B6E" stroke="#0E2B6E" stroke-width="0.2" stroke-linejoin="round"/>
    <path fill-rule="evenodd" clip-rule="evenodd" d="M6.91669 6.31666C6.91669 6.12233 6.83935 5.93566 6.70202 5.79799C6.56435 5.66066 6.37769 5.58333 6.18335 5.58333H5.65002C5.45569 5.58333 5.26902 5.66066 5.13135 5.79799C4.99402 5.93566 4.91669 6.12233 4.91669 6.31666V6.85C4.91669 7.04433 4.99402 7.231 5.13135 7.36866C5.26902 7.506 5.45569 7.58333 5.65002 7.58333H6.18335C6.37769 7.58333 6.56435 7.506 6.70202 7.36866C6.83935 7.231 6.91669 7.04433 6.91669 6.85V6.31666ZM6.25002 6.31666V6.85C6.25002 6.86766 6.24302 6.88466 6.23035 6.897C6.21802 6.90966 6.20102 6.91666 6.18335 6.91666H5.65002C5.63235 6.91666 5.61536 6.90966 5.60302 6.897C5.59036 6.88466 5.58335 6.86766 5.58335 6.85V6.31666C5.58335 6.29899 5.59036 6.28199 5.60302 6.26966C5.61536 6.25699 5.63235 6.24999 5.65002 6.24999H6.18335C6.20102 6.24999 6.21802 6.25699 6.23035 6.26966C6.24302 6.28199 6.25002 6.29899 6.25002 6.31666Z" fill="#0E2B6E" stroke="#0E2B6E" stroke-width="0.2" stroke-linejoin="round"/>
    <path fill-rule="evenodd" clip-rule="evenodd" d="M6.91669 8.98333C6.91669 8.789 6.83935 8.60233 6.70202 8.46467C6.56435 8.32733 6.37769 8.25 6.18335 8.25H5.65002C5.45569 8.25 5.26902 8.32733 5.13135 8.46467C4.99402 8.60233 4.91669 8.789 4.91669 8.98333V9.51667C4.91669 9.711 4.99402 9.89767 5.13135 10.0353C5.26902 10.1727 5.45569 10.25 5.65002 10.25H6.18335C6.37769 10.25 6.56435 10.1727 6.70202 10.0353C6.83935 9.89767 6.91669 9.711 6.91669 9.51667V8.98333ZM6.25002 8.98333V9.51667C6.25002 9.53433 6.24302 9.55133 6.23035 9.56367C6.21802 9.57633 6.20102 9.58333 6.18335 9.58333H5.65002C5.63235 9.58333 5.61536 9.57633 5.60302 9.56367C5.59036 9.55133 5.58335 9.53433 5.58335 9.51667V8.98333C5.58335 8.96567 5.59036 8.94867 5.60302 8.93633C5.61536 8.92367 5.63235 8.91667 5.65002 8.91667H6.18335C6.20102 8.91667 6.21802 8.92367 6.23035 8.93633C6.24302 8.94867 6.25002 8.96567 6.25002 8.98333Z" fill="#0E2B6E" stroke="#0E2B6E" stroke-width="0.2" stroke-linejoin="round"/>
    <path fill-rule="evenodd" clip-rule="evenodd" d="M6.91669 11.65C6.91669 11.4557 6.83935 11.269 6.70202 11.1313C6.56435 10.994 6.37769 10.9167 6.18335 10.9167H5.65002C5.45569 10.9167 5.26902 10.994 5.13135 11.1313C4.99402 11.269 4.91669 11.4557 4.91669 11.65V12.1833C4.91669 12.3777 4.99402 12.5643 5.13135 12.702C5.26902 12.8393 5.45569 12.9167 5.65002 12.9167H6.18335C6.37769 12.9167 6.56435 12.8393 6.70202 12.702C6.83935 12.5643 6.91669 12.3777 6.91669 12.1833V11.65ZM6.25002 11.65V12.1833C6.25002 12.201 6.24302 12.218 6.23035 12.2303C6.21802 12.243 6.20102 12.25 6.18335 12.25H5.65002C5.63235 12.25 5.61536 12.243 5.60302 12.2303C5.59036 12.218 5.58335 12.201 5.58335 12.1833V11.65C5.58335 11.6323 5.59036 11.6153 5.60302 11.603C5.61536 11.5903 5.63235 11.5833 5.65002 11.5833H6.18335C6.20102 11.5833 6.21802 11.5903 6.23035 11.603C6.24302 11.6153 6.25002 11.6323 6.25002 11.65Z" fill="#0E2B6E" stroke="#0E2B6E" stroke-width="0.2" stroke-linejoin="round"/>
    <path fill-rule="evenodd" clip-rule="evenodd" d="M9.58334 6.31666C9.58334 6.12233 9.50601 5.93566 9.36868 5.79799C9.23101 5.66066 9.04434 5.58333 8.85001 5.58333H8.31668C8.12234 5.58333 7.93568 5.66066 7.79801 5.79799C7.66068 5.93566 7.58334 6.12233 7.58334 6.31666V6.85C7.58334 7.04433 7.66068 7.231 7.79801 7.36866C7.93568 7.506 8.12234 7.58333 8.31668 7.58333H8.85001C9.04434 7.58333 9.23101 7.506 9.36868 7.36866C9.50601 7.231 9.58334 7.04433 9.58334 6.85V6.31666ZM8.91668 6.31666V6.85C8.91668 6.86766 8.90968 6.88466 8.89701 6.897C8.88467 6.90966 8.86768 6.91666 8.85001 6.91666H8.31668C8.29901 6.91666 8.28201 6.90966 8.26968 6.897C8.25701 6.88466 8.25001 6.86766 8.25001 6.85V6.31666C8.25001 6.29899 8.25701 6.28199 8.26968 6.26966C8.28201 6.25699 8.29901 6.24999 8.31668 6.24999H8.85001C8.86768 6.24999 8.88467 6.25699 8.89701 6.26966C8.90968 6.28199 8.91668 6.29899 8.91668 6.31666Z" fill="#0E2B6E" stroke="#0E2B6E" stroke-width="0.2" stroke-linejoin="round"/>
    <path fill-rule="evenodd" clip-rule="evenodd" d="M12.25 6.31666C12.25 6.12233 12.1727 5.93566 12.0353 5.79799C11.8977 5.66066 11.711 5.58333 11.5167 5.58333H10.9833C10.789 5.58333 10.6023 5.66066 10.4647 5.79799C10.3273 5.93566 10.25 6.12233 10.25 6.31666V6.85C10.25 7.04433 10.3273 7.231 10.4647 7.36866C10.6023 7.506 10.789 7.58333 10.9833 7.58333H11.5167C11.711 7.58333 11.8977 7.506 12.0353 7.36866C12.1727 7.231 12.25 7.04433 12.25 6.85V6.31666ZM11.5833 6.31666V6.85C11.5833 6.86766 11.5763 6.88466 11.5637 6.897C11.5513 6.90966 11.5343 6.91666 11.5167 6.91666H10.9833C10.9657 6.91666 10.9487 6.90966 10.9363 6.897C10.9237 6.88466 10.9167 6.86766 10.9167 6.85V6.31666C10.9167 6.29899 10.9237 6.28199 10.9363 6.26966C10.9487 6.25699 10.9657 6.24999 10.9833 6.24999H11.5167C11.5343 6.24999 11.5513 6.25699 11.5637 6.26966C11.5763 6.28199 11.5833 6.29899 11.5833 6.31666Z" fill="#0E2B6E" stroke="#0E2B6E" stroke-width="0.2" stroke-linejoin="round"/>
    <path fill-rule="evenodd" clip-rule="evenodd" d="M9.089 14.25H1.91667C1.47467 14.25 1.05067 14.0743 0.738002 13.762C0.425668 13.4493 0.25 13.0253 0.25 12.5833V3.25C0.25 2.32967 0.996333 1.58333 1.91667 1.58333H2.91667V1.25C2.91667 0.697667 3.36433 0.25 3.91667 0.25C4.469 0.25 4.91667 0.697667 4.91667 1.25V1.58333H9.58333V1.25C9.58333 0.697667 10.031 0.25 10.5833 0.25C11.1357 0.25 11.5833 0.697667 11.5833 1.25V1.58333H12.5833C13.5037 1.58333 14.25 2.32967 14.25 3.25V9.089C15.0643 9.762 15.5833 10.779 15.5833 11.9167C15.5833 13.9403 13.9403 15.5833 11.9167 15.5833C10.779 15.5833 9.762 15.0643 9.089 14.25ZM11.9167 8.91667C13.5723 8.91667 14.9167 10.261 14.9167 11.9167C14.9167 13.5723 13.5723 14.9167 11.9167 14.9167C10.261 14.9167 8.91667 13.5723 8.91667 11.9167C8.91667 10.261 10.261 8.91667 11.9167 8.91667ZM13.5833 8.65033V4.91667H0.916667V12.5833C0.916667 12.8487 1.022 13.103 1.20967 13.2903C1.397 13.478 1.65133 13.5833 1.91667 13.5833H8.65034C8.39433 13.0833 8.25 12.5167 8.25 11.9167C8.25 9.893 9.893 8.25 11.9167 8.25C12.5167 8.25 13.0833 8.39433 13.5833 8.65033ZM11.5833 2.25V2.58333C11.5833 3.13567 11.1357 3.58333 10.5833 3.58333C10.031 3.58333 9.58333 3.13567 9.58333 2.58333V2.25H4.91667V2.58333C4.91667 3.13567 4.469 3.58333 3.91667 3.58333C3.36433 3.58333 2.91667 3.13567 2.91667 2.58333V2.25H1.91667C1.36433 2.25 0.916667 2.69767 0.916667 3.25V4.25H13.5833V3.25C13.5833 2.69767 13.1357 2.25 12.5833 2.25H11.5833ZM10.9167 1.25V2.58333C10.9167 2.76733 10.7673 2.91667 10.5833 2.91667C10.3993 2.91667 10.25 2.76733 10.25 2.58333V1.25C10.25 1.066 10.3993 0.916667 10.5833 0.916667C10.7673 0.916667 10.9167 1.066 10.9167 1.25ZM4.25 1.25V2.58333C4.25 2.76733 4.10067 2.91667 3.91667 2.91667C3.73267 2.91667 3.58333 2.76733 3.58333 2.58333V1.25C3.58333 1.066 3.73267 0.916667 3.91667 0.916667C4.10067 0.916667 4.25 1.066 4.25 1.25Z" fill="#0E2B6E" stroke="#0E2B6E" stroke-width="0.5" stroke-linejoin="round"/>
</svg>
