<svg width="22" height="24" viewBox="0 0 22 24" fill="none" xmlns="http://www.w3.org/2000/svg">
<path d="M1.16974 7.29598V16.704C1.16974 17.3088 1.48654 17.856 2.01454 18.1632L10.1649 22.8672C10.6833 23.1648 11.3265 23.1648 11.8449 22.8672L19.9953 18.1632C20.5137 17.8656 20.8401 17.3088 20.8401 16.704V7.29598C20.8401 6.69118 20.5233 6.14398 19.9953 5.83678L11.8449 1.13278C11.3265 0.835176 10.6833 0.835176 10.1649 1.13278L2.01454 5.83678C1.49614 6.13438 1.17934 6.69118 1.17934 7.29598H1.16974Z" fill="#213147"/>
<path d="M12.7763 13.8238L11.6147 17.011C11.5859 17.0974 11.5859 17.1934 11.6147 17.2894L13.6115 22.771L15.9251 21.4366L13.1507 13.8238C13.0835 13.651 12.8435 13.651 12.7763 13.8238Z" fill="#12AAFF"/>
<path d="M15.1091 8.46719C15.0419 8.29439 14.8019 8.29439 14.7347 8.46719L13.5731 11.6544C13.5443 11.7408 13.5443 11.8368 13.5731 11.9328L16.8467 20.9088L19.1603 19.5744L15.1091 8.47679V8.46719Z" fill="#12AAFF"/>
<path d="M11.0001 1.488C11.0577 1.488 11.1153 1.5072 11.1633 1.536L19.9761 6.624C20.0817 6.6816 20.1393 6.7968 20.1393 6.912V17.088C20.1393 17.2032 20.0721 17.3184 19.9761 17.376L11.1633 22.464C11.1153 22.4928 11.0577 22.512 11.0001 22.512C10.9425 22.512 10.8849 22.4928 10.8369 22.464L2.02408 17.376C1.91848 17.3184 1.86088 17.2032 1.86088 17.088V6.9024C1.86088 6.7872 1.92808 6.672 2.02408 6.6144L10.8369 1.5264C10.8849 1.4976 10.9425 1.4784 11.0001 1.4784V1.488ZM11.0001 0C10.6833 0 10.3761 0.0768 10.0881 0.24L1.27528 5.328C0.708881 5.6544 0.363281 6.2496 0.363281 6.9024V17.0784C0.363281 17.7312 0.708881 18.3264 1.27528 18.6528L10.0881 23.7408C10.3665 23.904 10.6833 23.9808 11.0001 23.9808C11.3169 23.9808 11.6241 23.904 11.9121 23.7408L20.7249 18.6528C21.2913 18.3264 21.6369 17.7312 21.6369 17.0784V6.9024C21.6369 6.2496 21.2913 5.6544 20.7249 5.328L11.9025 0.24C11.6241 0.0768 11.3073 0 10.9905 0H11.0001Z" fill="#9DCCED"/>
<path d="M5.16327 20.9182L5.97927 18.691L7.61127 20.0446L6.08487 21.4462L5.16327 20.9182Z" fill="#213147"/>
<path d="M10.2512 6.18245H8.01441C7.85121 6.18245 7.69761 6.28805 7.64001 6.44165L2.84961 19.5745L5.16321 20.9089L10.4432 6.44165C10.4912 6.30725 10.3952 6.17285 10.2608 6.17285L10.2512 6.18245Z" fill="white"/>
<path d="M14.168 6.18245H11.9312C11.768 6.18245 11.6144 6.28805 11.5568 6.44165L6.08478 21.4369L8.39838 22.7713L14.3504 6.44165C14.3984 6.30725 14.3024 6.17285 14.168 6.17285V6.18245Z" fill="white"/>
</svg>
