<svg width="16" height="16" viewBox="0 0 16 16" fill="none"
    xmlns="http://www.w3.org/2000/svg">
    <path d="M14.6667 0H1.33333C0.5975 0.000833333 0.000833333 0.5975 0 1.33333V4C0.000833333 4.73583 0.5975 5.3325 1.33333 5.33333H6.97125C7.06875 5.70667 7.36042 5.99792 7.73333 6.09542V10.6933C7.21 10.8013 6.80125 11.21 6.69333 11.7333H5.86667V10.4C5.86667 9.95792 5.50833 9.6 5.06667 9.6H0.8C0.358333 9.6 0 9.95833 0 10.4V14.1333C0 14.5754 0.358333 14.9333 0.8 14.9333H1.64458L1.42208 15.4667H1.06667C0.919167 15.4667 0.8 15.5863 0.8 15.7333C0.8 15.8804 0.919583 16 1.06667 16H4.8C4.9475 16 5.06667 15.8804 5.06667 15.7333C5.06667 15.5863 4.94708 15.4667 4.8 15.4667H4.44458L4.22208 14.9333H5.06667C5.50833 14.9333 5.86667 14.5754 5.86667 14.1333V12.2667H6.69333C6.81958 12.8879 7.36583 13.3346 8 13.3346C8.63417 13.3346 9.18042 12.8879 9.30667 12.2667H10.1333V14.1333C10.1333 14.5754 10.4917 14.9333 10.9333 14.9333H11.7779L11.5554 15.4667H11.2C11.0525 15.4667 10.9333 15.5863 10.9333 15.7333C10.9333 15.8804 11.0529 16 11.2 16H14.9333C15.0808 16 15.2 15.8804 15.2 15.7333C15.2 15.5863 15.0804 15.4667 14.9333 15.4667H14.5779L14.3554 14.9333H15.2C15.6417 14.9333 16 14.5754 16 14.1333V10.4C16 9.95792 15.6417 9.6 15.2 9.6H10.9333C10.4917 9.6 10.1333 9.95833 10.1333 10.4V11.7333H9.30667C9.19875 11.21 8.79 10.8013 8.26667 10.6933V6.09542C8.64 5.99792 8.93125 5.70625 9.02875 5.33333H14.6667C15.4025 5.3325 15.9992 4.73583 16 4V1.33333C15.9992 0.5975 15.4025 0.000833333 14.6667 0ZM0.8 10.1333H5.06667C5.21375 10.1333 5.33333 10.2529 5.33333 10.4V13.3333H0.533333V10.4C0.533333 10.2525 0.6525 10.1333 0.8 10.1333ZM3.86667 15.4667H2L2.22208 14.9333H3.64458L3.86667 15.4667ZM5.06667 14.4H0.8C0.6525 14.4 0.533333 14.2804 0.533333 14.1333V13.8667H5.33333V14.1333C5.33333 14.2808 5.21375 14.4 5.06667 14.4ZM14 15.4667H12.1333L12.3554 14.9333H13.7779L14 15.4667ZM15.2 14.4H10.9333C10.7863 14.4 10.6667 14.2804 10.6667 14.1333V13.8667H15.4667V14.1333C15.4667 14.2808 15.3475 14.4 15.2 14.4ZM10.6667 10.4C10.6667 10.2525 10.7863 10.1333 10.9333 10.1333H15.2C15.3475 10.1333 15.4667 10.2529 15.4667 10.4V13.3333H10.6667V10.4ZM8.8 12C8.8 12.4421 8.44208 12.8 8 12.8C7.55792 12.8 7.2 12.4421 7.2 12C7.2 11.5579 7.55792 11.2 8 11.2C8.44208 11.2 8.8 11.5579 8.8 12ZM8 5.6C7.70542 5.6 7.46667 5.36125 7.46667 5.06667C7.46667 4.77208 7.70542 4.53333 8 4.53333C8.29458 4.53333 8.53333 4.77208 8.53333 5.06667C8.53333 5.36125 8.29458 5.6 8 5.6ZM15.4667 4C15.4667 4.44208 15.1088 4.8 14.6667 4.8H9.02875C8.90875 4.32958 8.48542 4.00042 8 4.00042C7.51458 4.00042 7.09083 4.32958 6.97125 4.8H1.33333C0.89125 4.8 0.533333 4.44208 0.533333 4V1.33333C0.533333 0.89125 0.89125 0.533333 1.33333 0.533333H14.6667C15.1083 0.533333 15.4667 0.89125 15.4667 1.33333V4Z" fill="#0E2B6E"/>
</svg>
