<svg width="24" height="24" viewBox="0 0 24 24" fill="none" xmlns="http://www.w3.org/2000/svg">
<g clip-path="url(#clip0_728_6382)">
<path d="M19.4012 4.117H4.58283V17.5851H19.4012V4.117Z" fill="white"/>
<path fill-rule="evenodd" clip-rule="evenodd" d="M23.992 12C23.992 18.6186 18.6231 23.984 12 23.984C5.37699 23.984 0.00798416 18.6186 0.00798416 12C0.00798416 5.38137 5.37699 0.0159302 12 0.0159302C18.6231 0.0159302 23.992 5.38137 23.992 12ZM8.6018 16.769H6.27449C5.78545 16.769 5.54389 16.769 5.3966 16.6749C5.23751 16.5718 5.1403 16.401 5.12851 16.2126C5.11966 16.039 5.24046 15.8269 5.48203 15.403L11.2285 5.28085C11.473 4.85102 11.5967 4.63611 11.7528 4.55662C11.9208 4.47125 12.1211 4.47125 12.289 4.55662C12.4451 4.63611 12.5689 4.85102 12.8134 5.28085L13.9947 7.34166L14.0008 7.35217C14.2648 7.8133 14.3988 8.04714 14.4572 8.29256C14.522 8.56047 14.522 8.84309 14.4572 9.111C14.3983 9.3583 14.2658 9.59383 13.9977 10.0619L10.9792 15.3942L10.9714 15.4078C10.7056 15.8727 10.5708 16.1084 10.3841 16.2861C10.1809 16.4805 9.93634 16.6217 9.66825 16.7014C9.42373 16.769 9.14976 16.769 8.6018 16.769ZM14.479 16.769H17.8138C18.3058 16.769 18.5533 16.769 18.7007 16.672C18.8597 16.5689 18.9598 16.3951 18.9688 16.2068C18.9772 16.0388 18.8591 15.835 18.6275 15.4357C18.6196 15.4221 18.6116 15.4083 18.6034 15.3942L16.933 12.5385L16.914 12.5064C16.6793 12.1097 16.5608 11.9094 16.4086 11.832C16.2408 11.7466 16.0433 11.7466 15.8754 11.832C15.7222 11.9115 15.5985 12.1205 15.354 12.5415L13.6895 15.3972L13.6838 15.407C13.4402 15.8273 13.3184 16.0374 13.3272 16.2097C13.339 16.3982 13.4362 16.5718 13.5952 16.6749C13.7396 16.769 13.9871 16.769 14.479 16.769Z" fill="#E84142"/>
</g>
<defs>
<clipPath id="clip0_728_6382">
<rect width="24" height="24" fill="white"/>
</clipPath>
</defs>
</svg>
