<svg width="16" height="16" viewBox="0 0 16 16" fill="none"
    xmlns="http://www.w3.org/2000/svg">
    <g clip-path="url(#clip0_211_4562)">
        <path d="M11.3333 9.33335C11.3333 9.51016 11.2631 9.67973 11.1381 9.80475C11.0131 9.92978 10.8435 10 10.6667 10H5.33334C5.15653 10 4.98696 9.92978 4.86194 9.80475C4.73691 9.67973 4.66668 9.51016 4.66668 9.33335C4.66668 9.15654 4.73691 8.98697 4.86194 8.86194C4.98696 8.73692 5.15653 8.66668 5.33334 8.66668H10.6667C10.8435 8.66668 11.0131 8.73692 11.1381 8.86194C11.2631 8.98697 11.3333 9.15654 11.3333 9.33335ZM8.66668 11.3333H5.33334C5.15653 11.3333 4.98696 11.4036 4.86194 11.5286C4.73691 11.6536 4.66668 11.8232 4.66668 12C4.66668 12.1768 4.73691 12.3464 4.86194 12.4714C4.98696 12.5964 5.15653 12.6667 5.33334 12.6667H8.66668C8.84349 12.6667 9.01306 12.5964 9.13808 12.4714C9.2631 12.3464 9.33334 12.1768 9.33334 12C9.33334 11.8232 9.2631 11.6536 9.13808 11.5286C9.01306 11.4036 8.84349 11.3333 8.66668 11.3333ZM14.6667 6.99002V12.6667C14.6656 13.5504 14.3141 14.3976 13.6892 15.0225C13.0643 15.6474 12.2171 15.999 11.3333 16H4.66668C3.78295 15.999 2.93572 15.6474 2.31082 15.0225C1.68593 14.3976 1.3344 13.5504 1.33334 12.6667V3.33335C1.3344 2.44962 1.68593 1.60239 2.31082 0.977495C2.93572 0.352603 3.78295 0.00107394 4.66668 1.53658e-05H7.67668C8.28976 -0.00156258 8.89707 0.118407 9.46349 0.352988C10.0299 0.587569 10.5442 0.932107 10.9767 1.36668L13.2993 3.69068C13.7342 4.12284 14.0789 4.63699 14.3136 5.20333C14.5483 5.76968 14.6683 6.37696 14.6667 6.99002ZM10.034 2.30935C9.8242 2.10612 9.58863 1.9313 9.33334 1.78935V4.66668C9.33334 4.84349 9.40358 5.01306 9.52861 5.13809C9.65363 5.26311 9.8232 5.33335 10 5.33335H12.8773C12.7353 5.07814 12.5602 4.84278 12.3567 4.63335L10.034 2.30935ZM13.3333 6.99002C13.3333 6.88002 13.312 6.77468 13.302 6.66668H10C9.46958 6.66668 8.96087 6.45597 8.5858 6.0809C8.21072 5.70582 8.00001 5.19711 8.00001 4.66668V1.36468C7.89201 1.35468 7.78601 1.33335 7.67668 1.33335H4.66668C4.13624 1.33335 3.62754 1.54406 3.25246 1.91914C2.87739 2.29421 2.66668 2.80292 2.66668 3.33335V12.6667C2.66668 13.1971 2.87739 13.7058 3.25246 14.0809C3.62754 14.456 4.13624 14.6667 4.66668 14.6667H11.3333C11.8638 14.6667 12.3725 14.456 12.7476 14.0809C13.1226 13.7058 13.3333 13.1971 13.3333 12.6667V6.99002Z" fill="#0E2B6E"/>
    </g>
    <defs>
        <clipPath id="clip0_211_4562">
            <rect width="16" height="16" fill="white"/>
        </clipPath>
    </defs>
</svg>
