<svg width="24" height="24" viewBox="0 0 24 24" fill="none" xmlns="http://www.w3.org/2000/svg">
<g clip-path="url(#clip0_728_6388)">
<path d="M11.9991 5.03382C14.5409 5.03382 16.6015 3.90696 16.6015 2.51691C16.6015 1.12686 14.5409 0 11.9991 0C9.45728 0 7.39673 1.12686 7.39673 2.51691C7.39673 3.90696 9.45728 5.03382 11.9991 5.03382Z" fill="#E6007A"/>
<path d="M11.9991 23.9983C14.5409 23.9983 16.6015 22.8714 16.6015 21.4814C16.6015 20.0913 14.5409 18.9645 11.9991 18.9645C9.45728 18.9645 7.39673 20.0913 7.39673 21.4814C7.39673 22.8714 9.45728 23.9983 11.9991 23.9983Z" fill="#E6007A"/>
<path d="M5.58538 8.51781C6.85629 6.44801 6.84804 4.2063 5.56696 3.51081C4.28588 2.81531 2.21708 3.9294 0.946169 5.99919C-0.32474 8.06899 -0.316491 10.3107 0.964593 11.0062C2.24568 11.7017 4.31448 10.5876 5.58538 8.51781Z" fill="#E6007A"/>
<path d="M23.05 17.999C24.3209 15.9292 24.3134 13.6878 23.0332 12.9928C21.753 12.2978 19.6849 13.4123 18.414 15.482C17.143 17.5518 17.1506 19.7932 18.4308 20.4882C19.711 21.1832 21.7791 20.0687 23.05 17.999Z" fill="#E6007A"/>
<path d="M5.5676 20.4876C6.84869 19.7921 6.85693 17.5504 5.58603 15.4806C4.31512 13.4108 2.24632 12.2967 0.965234 12.9922C-0.31585 13.6877 -0.324099 15.9294 0.94681 17.9992C2.21772 20.069 4.28652 21.1831 5.5676 20.4876Z" fill="#E6007A"/>
<path d="M23.0343 11.0068C24.3145 10.3117 24.322 8.07041 23.0511 6.00062C21.7802 3.93082 19.7121 2.81636 18.4319 3.51138C17.1517 4.20641 17.1441 6.44774 18.415 8.51753C19.6859 10.5873 21.754 11.7018 23.0343 11.0068Z" fill="#E6007A"/>
</g>
<defs>
<clipPath id="clip0_728_6388">
<rect width="24" height="24" fill="white"/>
</clipPath>
</defs>
</svg>
