<svg width="24" height="22" viewBox="0 0 24 22" fill="none" xmlns="http://www.w3.org/2000/svg">
<path d="M17.8136 15.4825L23.5085 12.0789C23.8136 11.9035 24 11.5702 24 11.2018V4.39474C24 4.04386 23.8136 3.69298 23.5085 3.51754L17.8136 0.131579C17.5085 -0.0438596 17.1356 -0.0438596 16.8305 0.131579L11.1525 3.53509C10.8475 3.71053 10.661 4.04386 10.661 4.41228V16.5702L6.66102 18.9386L2.67797 16.5526V11.7982L6.66102 9.41228L9.28813 10.9912V7.7807L7.13559 6.5C6.98305 6.41228 6.81356 6.35965 6.64407 6.35965C6.47458 6.35965 6.30508 6.41228 6.15254 6.5L0.491525 9.90351C0.186441 10.0789 0 10.4123 0 10.7807V17.5877C0 17.9561 0.186441 18.2895 0.491525 18.4649L6.18644 21.8684C6.49153 22.0439 6.86441 22.0439 7.16949 21.8684L12.8644 18.4649C13.1695 18.2895 13.3559 17.9561 13.3559 17.5877V5.41228L13.4237 5.37719L17.339 3.02632L21.339 5.41228V10.1842L17.339 12.5702L14.7119 11.0088V14.2018L16.8475 15.4825C17.1356 15.6579 17.5085 15.6579 17.8136 15.4825Z" fill="url(#paint0_linear_728_6378)"/>
<defs>
<linearGradient id="paint0_linear_728_6378" x1="-0.0773898" y1="18.2447" x2="23.3585" y2="5.10445" gradientUnits="userSpaceOnUse">
<stop stop-color="#A726C1"/>
<stop offset="0.88" stop-color="#803BDF"/>
<stop offset="1" stop-color="#7B3FE4"/>
</linearGradient>
</defs>
</svg>
