<svg width="16" height="16" viewBox="0 0 16 16" fill="none"
    xmlns="http://www.w3.org/2000/svg">
    <g clip-path="url(#clip0_211_4274)">
        <path d="M14.3333 8.77534V7.22467C15.294 6.93534 16 6.05334 16 5C16 3.71334 14.9533 2.66667 13.6667 2.66667C13.0113 2.66667 12.42 2.94067 11.9953 3.37734L10.324 2.33267C10.324 1.046 9.27733 -0.000663757 7.99067 -0.000663757C6.704 -0.000663757 5.65733 1.046 5.65733 2.33267C5.65733 2.336 5.65867 2.33934 5.65867 2.34334L4.00467 3.37734C3.58067 2.94 2.98933 2.666 2.33333 2.666C1.04667 2.666 0 3.71267 0 4.99934C0 6.05267 0.706 6.93467 1.66667 7.224V8.77467C0.706 9.064 0 9.946 0 10.9993C0 12.286 1.04667 13.3327 2.33333 13.3327C2.98933 13.3327 3.58 13.0587 4.00467 12.6213L5.65867 13.6553C5.65867 13.6587 5.65733 13.662 5.65733 13.666C5.65733 14.9527 6.704 15.9993 7.99067 15.9993C9.27733 15.9993 10.324 14.9527 10.324 13.666L11.9953 12.6213C12.4193 13.0587 13.0107 13.3327 13.6667 13.3327C14.9533 13.3327 16 12.286 16 10.9993C16 9.946 15.294 9.064 14.3333 8.77467V8.77534ZM13.6667 4C14.218 4 14.6667 4.44867 14.6667 5C14.6667 5.55134 14.218 6 13.6667 6C13.1153 6 12.6667 5.55134 12.6667 5C12.6667 4.44867 13.1153 4 13.6667 4ZM7.99067 1.33334C8.542 1.33334 8.99067 1.782 8.99067 2.33334C8.99067 2.88467 8.542 3.33334 7.99067 3.33334C7.43933 3.33334 6.99067 2.88467 6.99067 2.33334C6.99067 1.782 7.43933 1.33334 7.99067 1.33334ZM1.33333 5C1.33333 4.44867 1.782 4 2.33333 4C2.88467 4 3.33333 4.44867 3.33333 5C3.33333 5.55134 2.88467 6 2.33333 6C1.782 6 1.33333 5.55134 1.33333 5ZM2.33333 12C1.782 12 1.33333 11.5513 1.33333 11C1.33333 10.4487 1.782 10 2.33333 10C2.88467 10 3.33333 10.4487 3.33333 11C3.33333 11.5513 2.88467 12 2.33333 12ZM7.99067 14.6667C7.43933 14.6667 6.99067 14.218 6.99067 13.6667C6.99067 13.1153 7.43933 12.6667 7.99067 12.6667C8.542 12.6667 8.99067 13.1153 8.99067 13.6667C8.99067 14.218 8.542 14.6667 7.99067 14.6667ZM9.91467 12.3507C9.494 11.7373 8.78867 11.3333 7.99067 11.3333C7.19267 11.3333 6.49467 11.734 6.07333 12.3427L4.62267 11.436C4.64933 11.294 4.66667 11.1493 4.66667 11C4.66667 9.94667 3.96067 9.06467 3 8.77534V7.22467C3.96067 6.93534 4.66667 6.05334 4.66667 5C4.66667 4.85067 4.64933 4.70534 4.62267 4.564L6.07333 3.65734C6.49467 4.266 7.196 4.66667 7.99067 4.66667C8.78533 4.66667 9.49333 4.26267 9.91467 3.64934L11.3773 4.56334C11.3507 4.70534 11.3333 4.85 11.3333 5C11.3333 6.05334 12.0393 6.93534 13 7.22467V8.77534C12.0393 9.06467 11.3333 9.94667 11.3333 11C11.3333 11.1493 11.3507 11.2947 11.3773 11.436L9.91467 12.3507ZM13.6667 12C13.1153 12 12.6667 11.5513 12.6667 11C12.6667 10.4487 13.1153 10 13.6667 10C14.218 10 14.6667 10.4487 14.6667 11C14.6667 11.5513 14.218 12 13.6667 12ZM8.66667 8.73867L10.6667 7.59534V9.66067L8.66667 10.9107V8.73867ZM10.2287 6.39267L8 7.666L5.77133 6.39267L8 4.99934L10.2287 6.39267ZM5.33333 7.59534L7.33333 8.73867V10.9107L5.33333 9.66067V7.59534Z" fill="#0E2B6E"/>
    </g>
    <defs>
        <clipPath id="clip0_211_4274">
            <rect width="16" height="16" fill="white"/>
        </clipPath>
    </defs>
</svg>
