<svg width="16" height="16" viewBox="0 0 16 16" fill="none"
    xmlns="http://www.w3.org/2000/svg">
    <g clip-path="url(#clip0_211_4550)">
        <path d="M9.33333 3.66667C9.33333 3.11467 9.78133 2.66667 10.3333 2.66667C10.8853 2.66667 11.3333 3.11467 11.3333 3.66667C11.3333 4.21867 10.8853 4.66667 10.3333 4.66667C9.78133 4.66667 9.33333 4.21867 9.33333 3.66667ZM9.15067 6.66667H11.516C11.786 6.66667 11.9727 6.40667 11.8507 6.18733C11.5707 5.68133 10.998 5.33333 10.3333 5.33333C9.66867 5.33333 9.096 5.68067 8.816 6.18733C8.69467 6.40667 8.88067 6.66667 9.15067 6.66667ZM15.928 9.52667L14.9067 13.604C14.4787 15.0327 13.166 16 11.706 16H3.33333C1.49533 16 0 14.5133 0 12.6753V5.342C0 4.39667 0.508 3.514 1.32533 3.03733C1.64467 2.85333 2.05133 2.96 2.23733 3.278C2.42267 3.596 2.31467 4.004 1.99667 4.18933C1.58733 4.42733 1.33333 4.86933 1.33333 5.342V12.6753C1.33333 13.1387 1.492 13.566 1.75733 13.9053L3.21733 9.14667C3.24933 9.054 3.292 8.96867 3.33333 8.88133V4C3.33333 2.52933 4.52933 1.33333 6 1.33333H6.37067C6.83333 0.54 7.684 0 8.66667 0H12C13.4707 0 14.6667 1.196 14.6667 2.66667V7.376C15.062 7.46267 15.4133 7.68533 15.6627 8.02C15.8967 8.334 16 8.686 16 9.08533C16 9.23267 15.9713 9.38067 15.928 9.526V9.52667ZM7.33333 2.66667V7.33333H13.3333V2.66667C13.3333 1.93133 12.7353 1.33333 12 1.33333H8.66667C7.93133 1.33333 7.33333 1.93133 7.33333 2.66667ZM4.66667 4V7.56867C5 7.42 5.36333 7.33333 5.74333 7.33333H6V2.66667C5.26467 2.66667 4.66667 3.26467 4.66667 4ZM14.5927 8.816C14.5513 8.76067 14.4573 8.66667 14.2953 8.66667H5.74333C5.17667 8.66667 4.67067 9.026 4.484 9.56133L2.928 14.634C3.05867 14.6607 3.194 14.6753 3.33267 14.6753H11.7047C12.5807 14.6753 13.3687 14.09 13.62 13.2507L14.6413 9.17333C14.696 8.98933 14.634 8.872 14.5927 8.816Z" fill="#0E2B6E"/>
    </g>
    <defs>
        <clipPath id="clip0_211_4550">
            <rect width="16" height="16" fill="white"/>
        </clipPath>
    </defs>
</svg>
