<svg width="16" height="16" viewBox="0 0 16 16" fill="none" xmlns="http://www.w3.org/2000/svg">
<path d="M11.9446 6.37177L8.20457 4.24841C8.07665 4.17585 7.91976 4.17577 7.79201 4.24849L4.05525 6.37185C3.92587 6.44538 3.84601 6.58212 3.84601 6.73014V10.475C3.84601 10.623 3.92579 10.7597 4.05509 10.8332L7.79185 12.9582C7.85581 12.9945 7.92707 13.0128 7.99833 13.0128C8.06951 13.0128 8.14077 12.9946 8.20465 12.9583L11.9447 10.8333C12.074 10.7597 12.1539 10.6231 12.1539 10.475V6.73014C12.1539 6.58204 12.074 6.44522 11.9446 6.37177ZM7.5835 11.8884L4.67712 10.2356V7.44206L7.5835 9.09369V11.8884ZM7.99914 8.3788L5.09824 6.73029L7.99841 5.08229L10.9012 6.73032L7.99914 8.3788ZM11.3228 10.2355L8.41462 11.8879V9.09383L11.3228 7.44197V10.2355Z" fill="#006CFF"/>
<path d="M11.9969 6.72993C11.9968 6.63881 11.9478 6.55433 11.8675 6.50858L8.12748 4.3847C8.04749 4.33932 7.94893 4.33941 7.86937 4.3847L4.13246 6.50858C4.05209 6.55444 4.0031 6.63894 4.00302 6.72993V10.4753C4.00312 10.5663 4.0521 10.6508 4.13246 10.6966L7.86937 12.822C7.90919 12.8447 7.95363 12.8557 7.99804 12.8557C8.04251 12.8557 8.08708 12.8445 8.12672 12.822L11.8675 10.6966C11.9478 10.6508 11.9968 10.5663 11.9969 10.4753V6.72993ZM7.74069 9.00241V12.158L4.59967 10.3719L4.52002 10.3267V7.17263L7.74069 9.00241ZM11.4799 10.3267L8.25769 12.1572V9.00241L11.4799 7.17263V10.3267ZM4.83404 10.1444L7.42667 11.618V9.18393L4.83404 7.71107V10.1444ZM8.57171 9.18393V11.618L11.1659 10.1444V7.71107L8.57171 9.18393ZM11.2187 6.72993L10.979 6.86703L8.07693 8.51529L7.99881 8.55894L7.92145 8.51529L5.02092 6.86703L4.78043 6.72993L7.92069 4.94611L7.99804 4.90169L11.2187 6.72993ZM5.41614 6.72993L7.99881 8.1982L10.5822 6.72993L7.99804 5.26244L5.41614 6.72993ZM12.3109 10.4753C12.3108 10.6801 12.2002 10.8689 12.0222 10.97L8.2822 13.0947C8.19417 13.1448 8.09579 13.1698 7.99804 13.1698C7.90027 13.1697 7.80247 13.1446 7.71465 13.0947L3.97775 10.9693C3.79981 10.8681 3.68909 10.68 3.689 10.4753V6.72993C3.68908 6.52519 3.79972 6.33633 3.97775 6.23515L7.71465 4.11203C7.89055 4.01202 8.10645 4.01233 8.2822 4.11203L12.0222 6.23515C12.2004 6.33629 12.3108 6.52518 12.3109 6.72993V10.4753Z" fill="#006CFF"/>
<path d="M14.6273 10.3381V5.30365C14.6273 5.15555 14.5475 5.01873 14.418 4.94528L9.57378 2.19494C9.6098 2.06133 9.63082 1.9217 9.63082 1.77697C9.63082 0.883747 8.89921 0.157013 8 0.157013C7.10079 0.157013 6.36918 0.883747 6.36918 1.77697C6.36918 1.9217 6.3902 2.06133 6.42622 2.19494L1.582 4.94528C1.45254 5.01873 1.37268 5.15555 1.37268 5.30365V10.3381C0.674247 10.5212 0.157013 11.1523 0.157013 11.9028C0.157013 12.796 0.88862 13.5227 1.78783 13.5227C2.24239 13.5227 2.65367 13.3366 2.94972 13.0376L7.79376 15.7886C7.85764 15.8248 7.92882 15.843 8 15.843C8.07118 15.843 8.14236 15.8248 8.20624 15.7886L13.0503 13.0376C13.3463 13.3366 13.7576 13.5227 14.2122 13.5227C15.1114 13.5227 15.843 12.796 15.843 11.9028C15.843 11.1523 15.3258 10.5212 14.6273 10.3381ZM8 0.982591C8.44096 0.982591 8.7997 1.33894 8.7997 1.77697C8.7997 2.21499 8.44096 2.57134 8 2.57134C7.55904 2.57134 7.2003 2.21499 7.2003 1.77697C7.2003 1.33894 7.55904 0.982591 8 0.982591ZM1.78783 12.6972C1.34687 12.6972 0.988127 12.3408 0.988127 11.9028C0.988127 11.4648 1.34687 11.1084 1.78783 11.1084C2.22879 11.1084 2.58753 11.4648 2.58753 11.9028C2.58753 12.3408 2.22879 12.6972 1.78783 12.6972ZM12.5814 11.9028C12.5814 12.0474 12.6024 12.187 12.6383 12.3206L8 14.9547L3.36166 12.3206C3.39764 12.187 3.41865 12.0474 3.41865 11.9028C3.41865 11.1526 2.90182 10.5216 2.20379 10.3383V5.54318L6.83826 2.91192C7.13429 3.21088 7.54553 3.39692 8 3.39692C8.45447 3.39692 8.86571 3.21088 9.16174 2.91192L13.7962 5.54318V10.3383C13.0982 10.5216 12.5814 11.1526 12.5814 11.9028ZM14.2122 12.6972C13.7712 12.6972 13.4125 12.3408 13.4125 11.9028C13.4125 11.4648 13.7712 11.1084 14.2122 11.1084C14.6531 11.1084 15.0119 11.4648 15.0119 11.9028C15.0119 12.3408 14.6531 12.6972 14.2122 12.6972Z" fill="#006CFF"/>
<path d="M9.47362 1.77693C9.4736 0.971343 8.81355 0.314026 8 0.314026C7.18644 0.314026 6.5264 0.971343 6.52638 1.77693C6.52638 1.90623 6.5449 2.03201 6.57769 2.15376L6.6091 2.27171L6.5034 2.33145L1.65974 5.08186C1.57914 5.12759 1.52954 5.21262 1.52954 5.30397V10.4594L1.41235 10.49C0.780167 10.6558 0.314026 11.2268 0.314026 11.9031C0.314202 12.7085 0.974272 13.3659 1.78765 13.366C2.19852 13.366 2.5706 13.1977 2.83849 12.9271L2.92274 12.8421L3.0269 12.9011L7.87133 15.6523C7.9111 15.6748 7.95549 15.686 8 15.686C8.04451 15.686 8.0889 15.6748 8.12867 15.6523L12.9731 12.9011L13.0773 12.8421L13.1615 12.9271C13.4294 13.1977 13.8015 13.366 14.2124 13.366C15.0257 13.3659 15.6858 12.7085 15.686 11.9031C15.686 11.2268 15.2198 10.6558 14.5876 10.49L14.4705 10.4594V5.30397C14.4705 5.21262 14.4209 5.12759 14.3403 5.08186L9.4966 2.33145L9.3909 2.27171L9.42231 2.15376C9.4551 2.03201 9.47362 1.90623 9.47362 1.77693ZM12.4247 11.9031C12.4247 11.1214 12.9351 10.4595 13.6394 10.2219V5.63332L9.18334 3.10426C8.86791 3.38248 8.45431 3.55385 8 3.55385C7.54548 3.55385 7.13138 3.3827 6.81589 3.10426L2.36056 5.63332V10.2219C3.06494 10.4595 3.5753 11.1214 3.5753 11.9031C3.57528 12.0197 3.5627 12.1327 3.54083 12.2416L8 14.7738L12.4584 12.2416C12.4366 12.1327 12.4247 12.0196 12.4247 11.9031ZM2.43102 11.9031C2.43102 11.5527 2.14297 11.2651 1.78765 11.2651C1.43241 11.2652 1.14505 11.5528 1.14505 11.9031C1.14522 12.2533 1.43252 12.5403 1.78765 12.5404C2.14286 12.5404 2.43084 12.2534 2.43102 11.9031ZM14.855 11.9031C14.855 11.5528 14.5676 11.2652 14.2124 11.2651C13.857 11.2651 13.569 11.5527 13.569 11.9031C13.5692 12.2534 13.8571 12.5404 14.2124 12.5404C14.5675 12.5403 14.8548 12.2533 14.855 11.9031ZM8.6426 1.77693C8.64258 1.42654 8.35531 1.13968 8 1.13968C7.64469 1.13968 7.35742 1.42654 7.3574 1.77693C7.3574 2.12733 7.64468 2.41417 8 2.41417C8.35532 2.41417 8.6426 2.12733 8.6426 1.77693ZM2.74428 11.9031C2.7441 12.4286 2.31414 12.8544 1.78765 12.8544C1.26124 12.8543 0.831195 12.4285 0.83102 11.9031C0.83102 11.3775 1.26113 10.9519 1.78765 10.9518C2.31425 10.9518 2.74428 11.3775 2.74428 11.9031ZM12.738 11.9031C12.738 12.0323 12.7573 12.1582 12.79 12.2799L12.8214 12.3971L12.7157 12.4569L8.07736 15.0909L8 15.1353L7.92264 15.0909L3.28425 12.4569L3.17855 12.3971L3.20996 12.2799C3.24274 12.1582 3.26201 12.0323 3.26204 11.9031C3.26204 11.227 2.79561 10.656 2.16371 10.49L2.0473 10.4594V5.4518L2.12618 5.40661L6.76075 2.77568L6.86491 2.71594L6.94993 2.80172C7.21779 3.07213 7.5893 3.23983 8 3.23983C8.4107 3.23983 8.78221 3.07213 9.05007 2.80172L9.13509 2.71594L9.23925 2.77568L13.8738 5.40661L13.9527 5.4518V10.4594L13.8363 10.49C13.2044 10.656 12.738 11.227 12.738 11.9031ZM15.169 11.9031C15.1688 12.4285 14.7388 12.8543 14.2124 12.8544C13.6859 12.8544 13.2559 12.4286 13.2557 11.9031C13.2557 11.3775 13.6857 10.9518 14.2124 10.9518C14.7389 10.9519 15.169 11.3775 15.169 11.9031ZM8.95663 1.77693C8.95663 2.30257 8.5266 2.7282 8 2.7282C7.4734 2.7282 7.04337 2.30257 7.04337 1.77693C7.04339 1.2513 7.47341 0.825658 8 0.825658C8.52659 0.825658 8.95661 1.2513 8.95663 1.77693ZM9.78765 1.77693C9.78765 1.8938 9.77437 2.00698 9.75242 2.11623L14.4957 4.80919C14.6738 4.91041 14.7845 5.09927 14.7845 5.30397V10.2219C15.4891 10.4594 16 11.1213 16 11.9031C15.9998 12.8837 15.197 13.6792 14.2124 13.6793C13.7578 13.6793 13.3437 13.5082 13.0282 13.2297L8.28339 15.9249C8.1955 15.9748 8.09772 16 8 16C7.90228 16 7.8045 15.9748 7.71661 15.9249L2.97099 13.2297C2.65555 13.5079 2.24202 13.6793 1.78765 13.6793C0.802989 13.6792 0.000175878 12.8837 0 11.9031C0 11.1213 0.510936 10.4594 1.21551 10.2219V5.30397C1.21551 5.09927 1.32618 4.91041 1.50426 4.80919L6.24682 2.11623C6.22488 2.00703 6.21235 1.89374 6.21235 1.77693C6.21237 0.796107 7.01516 0 8 0C8.98484 1.21086e-07 9.78763 0.796107 9.78765 1.77693Z" fill="#006CFF"/>
</svg>
