<svg width="16" height="16" viewBox="0 0 16 16" fill="none"
    xmlns="http://www.w3.org/2000/svg">
    <path d="M14.0168 0C12.9185 0 12.0257 0.891959 12.0257 1.98915C12.0257 2.54169 12.2706 3.07055 12.6894 3.45733L12.7605 3.53626L10.6667 8.56438L10.5481 8.52491C10.3664 8.47755 10.2084 8.45387 10.0346 8.45387C9.68691 8.45387 9.31556 8.56438 8.99951 8.76172L8.90469 8.81697L7.59309 6.66206L7.64049 6.57523C7.83802 6.23582 7.94864 5.88061 7.94864 5.54119C7.94864 4.43611 7.0558 3.53626 5.94963 3.53626C4.84346 3.53626 3.95852 4.43611 3.95852 5.54119C3.95852 6.09373 4.20346 6.63049 4.63802 7.02516L4.70914 7.08041L2.62321 12.1085L2.51259 12.077C2.31506 12.0296 2.14914 12.0059 2.00691 12.0059C0.900741 12.0059 0 12.8979 0 14.003C0 15.108 0.900741 16 2.00691 16C3.11309 16 3.99802 15.108 3.99802 14.003C3.99802 13.4425 3.75309 12.9058 3.32642 12.5348L3.23951 12.4637L5.32543 7.43562L5.44395 7.47509C5.98914 7.61717 6.51062 7.53823 6.98469 7.24618L7.09531 7.19092L8.40691 9.33794L8.35161 9.42476C8.15407 9.75629 8.05136 10.1115 8.05136 10.4588C8.05136 11.5639 8.9442 12.4637 10.0346 12.4637C11.1249 12.4637 12.0415 11.5639 12.0415 10.4588C12.0415 9.90627 11.7965 9.36951 11.3699 8.99852L11.2909 8.92748L13.4005 3.89936L13.5032 3.92304C13.6928 3.97829 13.843 3.99408 14.0089 3.99408C15.1072 3.99408 16 3.10212 16 2.00493C16 0.907745 15.1072 0.0157869 14.0089 0.0157869L14.0168 0ZM3.28691 13.9951C3.28691 14.7055 2.71802 15.2738 2.01481 15.2738C1.3116 15.2738 0.734815 14.6976 0.734815 13.9951C0.734815 13.2926 1.3116 12.7163 2.01481 12.7163C2.71802 12.7163 3.28691 13.2926 3.28691 13.9951ZM7.22963 5.54119C7.22963 6.2516 6.66074 6.81993 5.94963 6.81993C5.23852 6.81993 4.66173 6.23582 4.66173 5.54119C4.66173 4.84657 5.23852 4.25456 5.94963 4.25456C6.66074 4.25456 7.22963 4.83078 7.22963 5.54119ZM11.3304 10.443C11.3304 11.1613 10.7536 11.7454 10.0346 11.7454C9.31556 11.7454 8.76247 11.1613 8.76247 10.443C8.76247 9.72472 9.33136 9.16428 10.0346 9.16428C10.7378 9.16428 11.3304 9.73261 11.3304 10.443ZM14.0168 3.27578C13.3215 3.27578 12.7368 2.69166 12.7368 1.99704C12.7368 1.30242 13.3136 0.718303 14.0168 0.718303C14.72 0.718303 15.2968 1.29452 15.2968 1.99704C15.2968 2.69956 14.72 3.27578 14.0168 3.27578Z" fill="#0E2B6E"/>
</svg>
