<svg width="16" height="16" viewBox="0 0 16 16" fill="none"
    xmlns="http://www.w3.org/2000/svg">
    <g clip-path="url(#clip0_211_4306)">
        <path d="M10.075 0H4.875C3.25 0 1.95 1.33333 1.95 3V11C1.95 12.6667 3.25 14 4.875 14H10.075C11.7 14 13 12.6667 13 11V3C13 1.33333 11.7 0 10.075 0ZM12.35 11C12.35 12.2667 11.31 13.3333 10.075 13.3333H4.875C3.64 13.3333 2.6 12.2667 2.6 11V3C2.6 1.73333 3.64 0.666667 4.875 0.666667H10.075C11.31 0.666667 12.35 1.73333 12.35 3V11ZM6.825 8.33333V11C6.825 11.2 6.695 11.3333 6.5 11.3333C6.305 11.3333 6.175 11.2 6.175 11V8.33333C6.175 8.13333 6.305 8 6.5 8C6.695 8 6.825 8.13333 6.825 8.33333ZM4.875 9.66667V11C4.875 11.2 4.745 11.3333 4.55 11.3333C4.355 11.3333 4.225 11.2 4.225 11V9.66667C4.225 9.46667 4.355 9.33333 4.55 9.33333C4.745 9.33333 4.875 9.46667 4.875 9.66667ZM8.775 7V11C8.775 11.2 8.645 11.3333 8.45 11.3333C8.255 11.3333 8.125 11.2 8.125 11V7C8.125 6.8 8.255 6.66667 8.45 6.66667C8.645 6.66667 8.775 6.8 8.775 7ZM10.725 8.33333V11C10.725 11.2 10.595 11.3333 10.4 11.3333C10.205 11.3333 10.075 11.2 10.075 11V8.33333C10.075 8.13333 10.205 8 10.4 8C10.595 8 10.725 8.13333 10.725 8.33333ZM10.075 5.33333C9.88 5.33333 9.75 5.2 9.75 5V3.8L8.32 5.33333C8.06 5.6 7.605 5.6 7.345 5.33333L6.89 4.86667L5.135 6.6C5.005 6.73333 4.81 6.73333 4.68 6.6C4.55 6.46667 4.55 6.26667 4.68 6.13333L6.37 4.4C6.63 4.13333 7.085 4.13333 7.345 4.4L7.8 4.86667L9.295 3.33333H8.125C7.93 3.33333 7.8 3.2 7.8 3C7.8 2.8 7.93 2.66667 8.125 2.66667H9.425C9.945 2.66667 10.4 3.13333 10.4 3.66667V5C10.4 5.2 10.27 5.33333 10.075 5.33333ZM9.75 15.6667C9.75 15.8667 9.62 16 9.425 16H2.925C1.3 16 0 14.6667 0 13V3.66667C0 3.46667 0.13 3.33333 0.325 3.33333C0.52 3.33333 0.65 3.46667 0.65 3.66667V13C0.65 14.2667 1.69 15.3333 2.925 15.3333H9.425C9.62 15.3333 9.75 15.4667 9.75 15.6667Z" fill="#0E2B6E" stroke="#0E2B6E" stroke-width="0.5" stroke-linejoin="round"/>
    </g>
    <defs>
        <clipPath id="clip0_211_4306">
            <rect width="16" height="16" fill="white"/>
        </clipPath>
    </defs>
</svg>
