<svg width="16" height="16" viewBox="0 0 16 16" fill="none"
    xmlns="http://www.w3.org/2000/svg">
    <g clip-path="url(#clip0_211_4557)">
        <path d="M8.00001 5.33337C7.47259 5.33337 6.95702 5.48977 6.51849 5.78279C6.07996 6.07581 5.73817 6.49228 5.53633 6.97955C5.3345 7.46682 5.28169 8.003 5.38458 8.52028C5.48748 9.03756 5.74145 9.51272 6.11439 9.88566C6.48733 10.2586 6.96249 10.5126 7.47977 10.6155C7.99705 10.7184 8.53323 10.6656 9.0205 10.4637C9.50777 10.2619 9.92425 9.92009 10.2173 9.48156C10.5103 9.04303 10.6667 8.52746 10.6667 8.00004C10.6667 7.2928 10.3857 6.61452 9.88563 6.11442C9.38553 5.61433 8.70726 5.33337 8.00001 5.33337ZM8.00001 9.33337C7.7363 9.33337 7.47852 9.25518 7.25925 9.10867C7.03999 8.96216 6.86909 8.75392 6.76817 8.51029C6.66726 8.26665 6.64085 7.99856 6.6923 7.73992C6.74374 7.48128 6.87073 7.2437 7.0572 7.05723C7.24367 6.87076 7.48125 6.74377 7.73989 6.69233C7.99853 6.64088 8.26662 6.66728 8.51026 6.7682C8.75389 6.86912 8.96213 7.04001 9.10864 7.25928C9.25515 7.47855 9.33335 7.73633 9.33335 8.00004C9.33335 8.35366 9.19287 8.6928 8.94282 8.94285C8.69277 9.1929 8.35363 9.33337 8.00001 9.33337Z" fill="#0E2B6E"/>
        <path d="M14.196 9.26667L13.9 9.096C14.0333 8.37096 14.0333 7.62771 13.9 6.90267L14.196 6.732C14.4236 6.60068 14.6232 6.42581 14.7832 6.21737C14.9432 6.00894 15.0607 5.77103 15.1288 5.51721C15.1969 5.2634 15.2143 4.99866 15.1801 4.73811C15.1459 4.47755 15.0607 4.22629 14.9293 3.99867C14.798 3.77104 14.6231 3.57151 14.4147 3.41147C14.2063 3.25143 13.9684 3.134 13.7145 3.06591C13.4607 2.99781 13.196 2.98037 12.9354 3.01459C12.6749 3.04881 12.4236 3.13401 12.196 3.26533L11.8993 3.43667C11.339 2.95795 10.6951 2.58683 10 2.342V2C10 1.46957 9.78928 0.960859 9.41421 0.585786C9.03914 0.210714 8.53043 0 8 0C7.46957 0 6.96086 0.210714 6.58578 0.585786C6.21071 0.960859 6 1.46957 6 2V2.342C5.30492 2.58771 4.66123 2.95973 4.10133 3.43933L3.80333 3.26667C3.34362 3.00145 2.79739 2.92971 2.28479 3.06724C1.77219 3.20477 1.33521 3.54029 1.07 4C0.804782 4.45971 0.733046 5.00595 0.870573 5.51855C1.0081 6.03114 1.34362 6.46812 1.80333 6.73333L2.09933 6.904C1.96607 7.62904 1.96607 8.37229 2.09933 9.09733L1.80333 9.268C1.34362 9.53322 1.0081 9.97019 0.870573 10.4828C0.733046 10.9954 0.804782 11.5416 1.07 12.0013C1.33521 12.461 1.77219 12.7966 2.28479 12.9341C2.79739 13.0716 3.34362 12.9999 3.80333 12.7347L4.1 12.5633C4.66051 13.0421 5.30465 13.4132 6 13.658V14C6 14.5304 6.21071 15.0391 6.58578 15.4142C6.96086 15.7893 7.46957 16 8 16C8.53043 16 9.03914 15.7893 9.41421 15.4142C9.78928 15.0391 10 14.5304 10 14V13.658C10.6951 13.4123 11.3388 13.0403 11.8987 12.5607L12.1967 12.7327C12.6564 12.9979 13.2026 13.0696 13.7152 12.9321C14.2278 12.7946 14.6648 12.459 14.93 11.9993C15.1952 11.5396 15.267 10.9934 15.1294 10.4808C14.9919 9.96819 14.6564 9.53122 14.1967 9.266L14.196 9.26667ZM12.4973 6.74933C12.7231 7.56738 12.7231 8.43129 12.4973 9.24933C12.4579 9.39171 12.4669 9.54316 12.5229 9.67987C12.5789 9.81659 12.6787 9.93084 12.8067 10.0047L13.5293 10.422C13.6825 10.5104 13.7944 10.6561 13.8402 10.8269C13.886 10.9977 13.8621 11.1798 13.7737 11.333C13.6853 11.4862 13.5396 11.598 13.3688 11.6438C13.1979 11.6897 13.0159 11.6657 12.8627 11.5773L12.1387 11.1587C12.0106 11.0845 11.8615 11.055 11.7148 11.075C11.5682 11.0949 11.4323 11.163 11.3287 11.2687C10.7353 11.8744 9.98771 12.3067 9.16667 12.5187C9.02335 12.5555 8.89637 12.639 8.80573 12.7559C8.71508 12.8729 8.66592 13.0167 8.666 13.1647V14C8.666 14.1768 8.59576 14.3464 8.47074 14.4714C8.34571 14.5964 8.17614 14.6667 7.99933 14.6667C7.82252 14.6667 7.65295 14.5964 7.52793 14.4714C7.4029 14.3464 7.33266 14.1768 7.33266 14V13.1653C7.33274 13.0174 7.28358 12.8736 7.19293 12.7566C7.10229 12.6397 6.97531 12.5562 6.832 12.5193C6.0109 12.3065 5.26355 11.8733 4.67066 11.2667C4.56701 11.161 4.43116 11.0929 4.2845 11.073C4.13785 11.053 3.98874 11.0825 3.86066 11.1567L3.138 11.5747C3.06215 11.6191 2.97826 11.6482 2.89115 11.6601C2.80404 11.672 2.71543 11.6665 2.63043 11.6441C2.54543 11.6216 2.46572 11.5825 2.39588 11.5291C2.32604 11.4757 2.26745 11.409 2.22349 11.3329C2.17953 11.2567 2.15106 11.1727 2.13973 11.0855C2.1284 10.9983 2.13442 10.9097 2.15746 10.8249C2.18049 10.74 2.22009 10.6606 2.27395 10.5911C2.32782 10.5216 2.3949 10.4635 2.47133 10.42L3.194 10.0027C3.32196 9.92884 3.42178 9.81459 3.47777 9.67787C3.53376 9.54116 3.54275 9.38972 3.50333 9.24733C3.27757 8.42929 3.27757 7.56538 3.50333 6.74733C3.54204 6.60525 3.53262 6.45436 3.47654 6.31819C3.42046 6.18203 3.32088 6.06827 3.19333 5.99467L2.47066 5.57733C2.31746 5.48893 2.20565 5.34328 2.15982 5.17244C2.114 5.00159 2.13793 4.81954 2.22633 4.66633C2.31474 4.51313 2.46038 4.40131 2.63123 4.35549C2.80207 4.30967 2.98412 4.33359 3.13733 4.422L3.86133 4.84067C3.98905 4.91501 4.13785 4.94481 4.28435 4.92538C4.43085 4.90595 4.56674 4.8384 4.67066 4.73333C5.26406 4.12756 6.01162 3.69535 6.83266 3.48333C6.97642 3.44638 7.10373 3.3625 7.19442 3.245C7.28511 3.1275 7.334 2.98309 7.33333 2.83467V2C7.33333 1.82319 7.40357 1.65362 7.52859 1.5286C7.65362 1.40357 7.82319 1.33333 8 1.33333C8.17681 1.33333 8.34638 1.40357 8.4714 1.5286C8.59643 1.65362 8.66667 1.82319 8.66667 2V2.83467C8.66659 2.98264 8.71575 3.12643 8.80639 3.24339C8.89704 3.36035 9.02402 3.44382 9.16733 3.48067C9.98867 3.69343 10.7363 4.12659 11.3293 4.73333C11.433 4.83898 11.5688 4.90713 11.7155 4.92704C11.8621 4.94696 12.0113 4.91751 12.1393 4.84333L12.862 4.42533C12.9378 4.38087 13.0217 4.35185 13.1088 4.33993C13.196 4.32802 13.2846 4.33346 13.3696 4.35593C13.4546 4.37841 13.5343 4.41747 13.6041 4.47088C13.674 4.52428 13.7325 4.59097 13.7765 4.66712C13.8205 4.74326 13.8489 4.82734 13.8603 4.91453C13.8716 5.00171 13.8656 5.09028 13.8425 5.17513C13.8195 5.25998 13.7799 5.33943 13.726 5.40892C13.6722 5.4784 13.6051 5.53655 13.5287 5.58L12.806 5.99733C12.6787 6.07114 12.5794 6.18498 12.5236 6.32113C12.4677 6.45727 12.4585 6.60807 12.4973 6.75V6.74933Z" fill="#0E2B6E"/>
    </g>
    <defs>
        <clipPath id="clip0_211_4557">
            <rect width="16" height="16" fill="white"/>
        </clipPath>
    </defs>
</svg>
