<svg width="12" height="16" viewBox="0 0 12 16" fill="none"
    xmlns="http://www.w3.org/2000/svg">
    <path d="M12 15.9333L9.558 14.2593L7.782 15.476L6.00467 14.2587L4.22733 15.4747L2.44667 14.2573L0 15.9333V2C0 1.46957 0.210714 0.960859 0.585787 0.585786C0.960859 0.210714 1.46957 0 2 0L10 0C10.5304 0 11.0391 0.210714 11.4142 0.585786C11.7893 0.960859 12 1.46957 12 2V15.9333ZM2.44667 12.6413L4.22667 13.8587L6.00467 12.6413L7.782 13.8587L9.55867 12.6407L10.6667 13.4V2C10.6667 1.82319 10.5964 1.65362 10.4714 1.5286C10.3464 1.40357 10.1768 1.33333 10 1.33333H2C1.82319 1.33333 1.65362 1.40357 1.5286 1.5286C1.40357 1.65362 1.33333 1.82319 1.33333 2V13.4L2.44667 12.6413Z" fill="#0E2B6E"/>
    <path d="M9.33332 5.33337H2.66666V6.66671H9.33332V5.33337Z" fill="#0E2B6E"/>
    <path d="M7.99999 8H2.66666V9.33333H7.99999V8Z" fill="#0E2B6E"/>
</svg>
