<svg width="16" height="16" viewBox="0 0 16 16" fill="none"
    xmlns="http://www.w3.org/2000/svg">
    <path d="M8.26667 6.09547C8.64 5.99797 8.93125 5.7063 9.02875 5.33338H14.6667C15.4025 5.33255 15.9992 4.73588 16 4.00004V1.33335C15.9992 0.597506 15.4025 0.000833341 14.6667 0H1.33333C0.5975 0.000833341 0.000833333 0.597506 0 1.33335V4.00004C0.000833333 4.73588 0.5975 5.33255 1.33333 5.33338H6.97125C7.06875 5.70672 7.36042 5.99797 7.73333 6.09547V9.60009H8.26667V6.09547ZM8 5.59964C7.70542 5.59964 7.46667 5.36088 7.46667 5.0663C7.46667 4.77171 7.70542 4.53296 8 4.53296C8.29458 4.53296 8.53333 4.77171 8.53333 5.0663C8.53333 5.36088 8.29458 5.59964 8 5.59964ZM15.4667 3.99962C15.4667 4.44171 15.1088 4.79963 14.6667 4.79963H9.02875C8.90875 4.32921 8.48542 4.00004 8 4.00004C7.51458 4.00004 7.09083 4.32921 6.97125 4.79963H1.33333C0.89125 4.79963 0.533333 4.44171 0.533333 3.99962V1.33335C0.533333 0.891258 0.89125 0.533338 1.33333 0.533338H14.6667C15.1083 0.533338 15.4667 0.891258 15.4667 1.33335V4.00004V3.99962Z" fill="#0E2B6E"/>
    <path d="M10.3998 1.33344C10.3998 1.48094 10.2802 1.60011 10.1331 1.60011C9.98604 1.60011 9.86646 1.48094 9.86646 1.33344C9.86646 1.18594 9.98562 1.06677 10.1331 1.06677C10.2806 1.06677 10.3998 1.18594 10.3998 1.33344Z" fill="#0E2B6E"/>
    <path d="M9.33338 1.33344C9.33338 1.48094 9.2138 1.60011 9.06672 1.60011C8.91963 1.60011 8.80005 1.48094 8.80005 1.33344C8.80005 1.18594 8.91963 1.06677 9.06672 1.06677C9.2138 1.06677 9.33338 1.18594 9.33338 1.33344Z" fill="#0E2B6E"/>
    <path d="M11.4667 1.33344C11.4667 1.48094 11.3475 1.60011 11.2 1.60011C11.0525 1.60011 10.9333 1.48094 10.9333 1.33344C10.9333 1.18594 11.0529 1.06677 11.2 1.06677C11.3471 1.06677 11.4667 1.18594 11.4667 1.33344Z" fill="#0E2B6E"/>
    <path d="M12.5333 1.33344C12.5333 1.48094 12.4137 1.60011 12.2667 1.60011C12.1196 1.60011 12 1.48094 12 1.33344C12 1.18594 12.1196 1.06677 12.2667 1.06677C12.4137 1.06677 12.5333 1.18594 12.5333 1.33344Z" fill="#0E2B6E"/>
    <path d="M13.6 1.33344C13.6 1.48094 13.4808 1.60011 13.3333 1.60011C13.1858 1.60011 13.0667 1.48094 13.0667 1.33344C13.0667 1.18594 13.1858 1.06677 13.3333 1.06677C13.4808 1.06677 13.6 1.18594 13.6 1.33344Z" fill="#0E2B6E"/>
    <path d="M10.9335 2.13349C10.9335 2.28099 10.8143 2.40016 10.6668 2.40016C10.5193 2.40016 10.4001 2.28058 10.4001 2.13349C10.4001 1.98641 10.5193 1.86682 10.6668 1.86682C10.8143 1.86682 10.9335 1.98599 10.9335 2.13349Z" fill="#0E2B6E"/>
    <path d="M9.86659 2.13349C9.86659 2.28099 9.747 2.40016 9.59992 2.40016C9.45284 2.40016 9.33325 2.28058 9.33325 2.13349C9.33325 1.98641 9.45284 1.86682 9.59992 1.86682C9.747 1.86682 9.86659 1.98599 9.86659 2.13349Z" fill="#0E2B6E"/>
    <path d="M11.9999 2.13349C11.9999 2.28099 11.8803 2.40016 11.7332 2.40016C11.5861 2.40016 11.4666 2.28058 11.4666 2.13349C11.4666 1.98641 11.5861 1.86682 11.7332 1.86682C11.8803 1.86682 11.9999 1.98599 11.9999 2.13349Z" fill="#0E2B6E"/>
    <path d="M13.0668 2.13349C13.0668 2.28099 12.9472 2.40016 12.8001 2.40016C12.653 2.40016 12.5334 2.28058 12.5334 2.13349C12.5334 1.98641 12.6526 1.86682 12.8001 1.86682C12.9476 1.86682 13.0668 1.98599 13.0668 2.13349Z" fill="#0E2B6E"/>
    <path d="M14.1332 2.13349C14.1332 2.28099 14.014 2.40016 13.8665 2.40016C13.719 2.40016 13.5999 2.28058 13.5999 2.13349C13.5999 1.98641 13.7194 1.86682 13.8665 1.86682C14.0136 1.86682 14.1332 1.98599 14.1332 2.13349Z" fill="#0E2B6E"/>
    <path d="M14.6669 1.33344C14.6669 1.48094 14.5473 1.60011 14.4002 1.60011C14.2531 1.60011 14.1335 1.48094 14.1335 1.33344C14.1335 1.18594 14.2531 1.06677 14.4002 1.06677C14.5473 1.06677 14.6669 1.18594 14.6669 1.33344Z" fill="#0E2B6E"/>
    <path d="M10.3998 2.93336C10.3998 3.08086 10.2802 3.20003 10.1331 3.20003C9.98604 3.20003 9.86646 3.08044 9.86646 2.93336C9.86646 2.78627 9.98562 2.66669 10.1331 2.66669C10.2806 2.66669 10.3998 2.78627 10.3998 2.93336Z" fill="#0E2B6E"/>
    <path d="M9.33338 2.93336C9.33338 3.08086 9.2138 3.20003 9.06672 3.20003C8.91963 3.20003 8.80005 3.08044 8.80005 2.93336C8.80005 2.78627 8.91963 2.66669 9.06672 2.66669C9.2138 2.66669 9.33338 2.78627 9.33338 2.93336Z" fill="#0E2B6E"/>
    <path d="M11.4667 2.93336C11.4667 3.08086 11.3475 3.20003 11.2 3.20003C11.0525 3.20003 10.9333 3.08044 10.9333 2.93336C10.9333 2.78627 11.0529 2.66669 11.2 2.66669C11.3471 2.66669 11.4667 2.78627 11.4667 2.93336Z" fill="#0E2B6E"/>
    <path d="M12.5333 2.93336C12.5333 3.08086 12.4137 3.20003 12.2667 3.20003C12.1196 3.20003 12 3.08044 12 2.93336C12 2.78627 12.1196 2.66669 12.2667 2.66669C12.4137 2.66669 12.5333 2.78627 12.5333 2.93336Z" fill="#0E2B6E"/>
    <path d="M13.6 2.93336C13.6 3.08086 13.4808 3.20003 13.3333 3.20003C13.1858 3.20003 13.0667 3.08044 13.0667 2.93336C13.0667 2.78627 13.1858 2.66669 13.3333 2.66669C13.4808 2.66669 13.6 2.78627 13.6 2.93336Z" fill="#0E2B6E"/>
    <path d="M10.9335 3.73347C10.9335 3.88055 10.8143 4.00014 10.6668 4.00014C10.5193 4.00014 10.4001 3.88055 10.4001 3.73347C10.4001 3.58638 10.5193 3.4668 10.6668 3.4668C10.8143 3.4668 10.9335 3.58638 10.9335 3.73347Z" fill="#0E2B6E"/>
    <path d="M9.86659 3.73347C9.86659 3.88055 9.747 4.00014 9.59992 4.00014C9.45284 4.00014 9.33325 3.88055 9.33325 3.73347C9.33325 3.58638 9.45284 3.4668 9.59992 3.4668C9.747 3.4668 9.86659 3.58638 9.86659 3.73347Z" fill="#0E2B6E"/>
    <path d="M11.9999 3.73347C11.9999 3.88055 11.8803 4.00014 11.7332 4.00014C11.5861 4.00014 11.4666 3.88055 11.4666 3.73347C11.4666 3.58638 11.5861 3.4668 11.7332 3.4668C11.8803 3.4668 11.9999 3.58638 11.9999 3.73347Z" fill="#0E2B6E"/>
    <path d="M13.0668 3.73347C13.0668 3.88055 12.9472 4.00014 12.8001 4.00014C12.653 4.00014 12.5334 3.88055 12.5334 3.73347C12.5334 3.58638 12.6526 3.4668 12.8001 3.4668C12.9476 3.4668 13.0668 3.58638 13.0668 3.73347Z" fill="#0E2B6E"/>
    <path d="M14.1332 3.73347C14.1332 3.88055 14.014 4.00014 13.8665 4.00014C13.719 4.00014 13.5999 3.88055 13.5999 3.73347C13.5999 3.58638 13.7194 3.4668 13.8665 3.4668C14.0136 3.4668 14.1332 3.58638 14.1332 3.73347Z" fill="#0E2B6E"/>
    <path d="M14.6669 2.93336C14.6669 3.08086 14.5473 3.20003 14.4002 3.20003C14.2531 3.20003 14.1335 3.08044 14.1335 2.93336C14.1335 2.78627 14.2531 2.66669 14.4002 2.66669C14.5473 2.66669 14.6669 2.78627 14.6669 2.93336Z" fill="#0E2B6E"/>
    <path d="M2.39992 1.59998C1.81075 1.59998 1.33325 2.07748 1.33325 2.66665C1.33325 3.25582 1.81075 3.73333 2.39992 3.73333C2.98909 3.73333 3.46659 3.25582 3.46659 2.66665C3.46659 2.38373 3.3545 2.11248 3.15409 1.91248C2.95409 1.71248 2.68284 1.59998 2.39992 1.59998ZM2.39992 3.19999C2.10534 3.19999 1.86659 2.96124 1.86659 2.66665C1.86659 2.37207 2.10534 2.13331 2.39992 2.13331C2.6945 2.13331 2.93325 2.37207 2.93325 2.66665C2.93325 2.96124 2.6945 3.19999 2.39992 3.19999Z" fill="#0E2B6E"/>
    <path d="M5.06667 1.59998C4.4775 1.59998 4 2.07748 4 2.66665C4 3.25582 4.4775 3.73333 5.06667 3.73333C5.65583 3.73333 6.13333 3.25582 6.13333 2.66665C6.13333 2.38373 6.02083 2.11248 5.82083 1.91248C5.62083 1.71248 5.34958 1.59998 5.06667 1.59998ZM5.06667 3.19999C4.77208 3.19999 4.53333 2.96124 4.53333 2.66665C4.53333 2.37207 4.77208 2.13331 5.06667 2.13331C5.36125 2.13331 5.6 2.37207 5.6 2.66665C5.6 2.96124 5.36125 3.19999 5.06667 3.19999Z" fill="#0E2B6E"/>
    <path d="M10.1333 9.60004H5.86665C5.42498 9.60004 5.06665 9.95837 5.06665 10.4V14.1334C5.06665 14.5751 5.42498 14.9334 5.86665 14.9334H6.71123L6.48873 15.4668H6.13332C5.98623 15.4668 5.86665 15.5863 5.86665 15.7334C5.86665 15.8805 5.98623 16.0001 6.13332 16.0001H9.86665C10.0137 16.0001 10.1333 15.8805 10.1333 15.7334C10.1333 15.5863 10.0137 15.4668 9.86665 15.4668H9.51123L9.28873 14.9334H10.1333C10.575 14.9334 10.9333 14.5751 10.9333 14.1334V10.4C10.9333 9.95837 10.575 9.60004 10.1333 9.60004ZM7.06665 15.4668L7.28873 14.9334H8.71123L8.93332 15.4668H7.06665ZM10.4 14.1334C10.4 14.2805 10.2804 14.4001 10.1333 14.4001H5.86665C5.71915 14.4001 5.59998 14.2805 5.59998 14.1334V13.8667H10.4V14.1334ZM10.4 13.3334H5.59998V10.4C5.59998 10.253 5.71915 10.1334 5.86665 10.1334H10.1333C10.2804 10.1334 10.4 10.253 10.4 10.4V13.3334Z" fill="#0E2B6E"/>
</svg>
