<svg width="16" height="16" viewBox="0 0 16 16" fill="none"
    xmlns="http://www.w3.org/2000/svg">
    <g clip-path="url(#clip0_211_4310)">
        <path d="M13.9364 3.38462L10.5 0.123077C10.4364 0.0615388 10.3727 0.0615387 10.2455 0.0615387H1.65455C0.763636 0.0615387 0 0.8 0 1.66154V14.3385C0 15.2 0.763636 15.9385 1.65455 15.9385H12.4091C13.3 15.9385 14.0636 15.2 14.0636 14.3385V3.63077C14.0636 3.50769 14 3.44615 13.9364 3.38462ZM10.6273 1.10769L10.9455 1.35385L12.6636 3.01539L12.9818 3.32308H11.0091C10.8182 3.32308 10.6909 3.2 10.6909 3.01539V1.10769H10.6273ZM13.4273 14.3385C13.4273 14.8923 12.9818 15.3231 12.4091 15.3231H1.65455C1.08182 15.3231 0.636364 14.8923 0.636364 14.3385V1.66154C0.636364 1.10769 1.08182 0.676923 1.65455 0.676923H9.99091V3.01539C9.99091 3.50769 10.4364 3.93846 10.9455 3.93846H13.4273V14.3385Z" fill="#0E2B6E" stroke="#0E2B6E" stroke-width="0.5" stroke-linejoin="round"/>
        <path d="M10.8182 6.70769C10.8182 6.8923 10.6909 7.01538 10.5 7.01538H3.56363C3.37273 7.01538 3.24545 6.8923 3.24545 6.70769C3.24545 6.52307 3.37273 6.4 3.56363 6.4H10.5C10.6909 6.33846 10.8182 6.52307 10.8182 6.70769Z" fill="#0E2B6E" stroke="#0E2B6E" stroke-width="0.5" stroke-linejoin="round"/>
        <path d="M9.54545 8.55385C9.54545 8.73846 9.41818 8.86154 9.22727 8.86154H3.56363C3.37273 8.86154 3.24545 8.73846 3.24545 8.55385C3.24545 8.36923 3.37273 8.24615 3.56363 8.24615H9.22727C9.41818 8.24615 9.54545 8.43077 9.54545 8.55385Z" fill="#0E2B6E" stroke="#0E2B6E" stroke-width="0.5" stroke-linejoin="round"/>
        <path d="M10.2455 10.4615C10.2455 10.6461 10.1182 10.7692 9.92727 10.7692H3.56363C3.37273 10.7692 3.24545 10.6461 3.24545 10.4615C3.24545 10.2769 3.37273 10.1538 3.56363 10.1538H9.92727C10.0545 10.1538 10.2455 10.3385 10.2455 10.4615Z" fill="#0E2B6E" stroke="#0E2B6E" stroke-width="0.5" stroke-linejoin="round"/>
    </g>
    <defs>
        <clipPath id="clip0_211_4310">
            <rect width="16" height="16" fill="white"/>
        </clipPath>
    </defs>
</svg>
